<svg width="995" height="352" viewBox="0 0 995 352" fill="none" xmlns="http://www.w3.org/2000/svg">
<path d="M27.4 10V12.28H18.4V22.8H25.44V25.08H18.4V38H16.12V10H27.4ZM30.9897 10H33.1097V13.12H30.9897V10ZM30.9897 18H33.1097V38H30.9897V18ZM42.2963 38H40.1763V19.96H36.6563V18H40.2163V14.88C40.2163 13.9467 40.3363 13.1467 40.5763 12.48C40.8163 11.8133 41.1362 11.28 41.5362 10.88C41.9629 10.4533 42.4563 10.1467 43.0163 9.96C43.6029 9.74666 44.2296 9.64 44.8963 9.64H45.6163V11.8H45.0963C44.3496 11.8 43.6829 12 43.0963 12.4C42.5363 12.8 42.2563 13.5333 42.2563 14.6V18H46.0963V19.96H42.2963V38ZM51.2225 32.8V19.96H47.8225V17.96H51.2225V10H53.3425V17.96H57.0225V19.96H53.3425V33C53.3425 34.0933 53.6092 34.8533 54.1425 35.28C54.7025 35.68 55.3692 35.88 56.1425 35.88H57.0225V38.04H55.9425C55.2758 38.04 54.6492 37.9467 54.0625 37.76C53.5025 37.5467 53.0092 37.24 52.5825 36.84C52.1558 36.4133 51.8225 35.8667 51.5825 35.2C51.3425 34.5333 51.2225 33.7333 51.2225 32.8ZM70.2066 38V23.12C70.2066 22.16 69.8866 21.3467 69.2466 20.68C68.6066 19.9867 67.8199 19.64 66.8866 19.64C66.6466 19.64 66.3532 19.6667 66.0066 19.72C65.6599 19.7467 65.2732 19.8133 64.8466 19.92C64.4199 20.0267 63.9932 20.1733 63.5666 20.36C63.1399 20.5467 62.7266 20.7733 62.3266 21.04V38H60.2866V10H62.2866V18.72C63.3532 18.16 64.2732 17.84 65.0466 17.76C65.8199 17.6533 66.4332 17.6 66.8866 17.6C67.6332 17.6 68.3266 17.7467 68.9666 18.04C69.6066 18.3333 70.1666 18.7467 70.6466 19.28C71.1266 19.7867 71.4999 20.3867 71.7666 21.08C72.0599 21.7467 72.2066 22.4667 72.2066 23.24V38H70.2066ZM109.077 29.8C109.077 30.92 108.877 31.9733 108.477 32.96C108.103 33.9467 107.57 34.8133 106.877 35.56C106.21 36.28 105.41 36.8667 104.477 37.32C103.543 37.7467 102.543 37.96 101.477 37.96C100.437 37.96 99.4232 37.8267 98.4366 37.56C97.4499 37.2933 96.5699 37 95.7966 36.68C94.8899 36.3067 94.0232 35.8667 93.1966 35.36L93.9966 33.16C94.9032 33.64 95.7966 34.0533 96.6766 34.4C97.4499 34.6933 98.2632 34.9733 99.1166 35.24C99.9699 35.48 100.743 35.6 101.437 35.6C102.183 35.6 102.877 35.4533 103.517 35.16C104.183 34.8667 104.757 34.4667 105.237 33.96C105.717 33.4267 106.09 32.8133 106.357 32.12C106.623 31.4267 106.757 30.68 106.757 29.88C106.757 29.0533 106.57 28.3733 106.197 27.84C105.823 27.28 105.343 26.8267 104.757 26.48C104.197 26.1067 103.57 25.8267 102.877 25.64C102.183 25.4267 101.503 25.2667 100.837 25.16C99.8499 25 98.9166 24.72 98.0366 24.32C97.1832 23.92 96.4232 23.4 95.7566 22.76C95.1166 22.12 94.6099 21.3733 94.2366 20.52C93.8632 19.6667 93.6766 18.7067 93.6766 17.64C93.6766 16.5467 93.8632 15.52 94.2366 14.56C94.6366 13.5733 95.1699 12.72 95.8366 12C96.5299 11.2533 97.3299 10.6667 98.2366 10.24C99.1432 9.81333 100.103 9.6 101.117 9.6C101.757 9.6 102.41 9.68 103.077 9.84C103.77 9.97333 104.41 10.12 104.997 10.28C105.663 10.4933 106.317 10.72 106.957 10.96L106.197 13.2C105.61 12.96 105.01 12.7467 104.397 12.56C103.863 12.4 103.303 12.2533 102.717 12.12C102.13 11.9867 101.57 11.92 101.037 11.92C100.317 11.92 99.6366 12.08 98.9966 12.4C98.3832 12.6933 97.8499 13.1067 97.3966 13.64C96.9432 14.1467 96.5832 14.7467 96.3166 15.44C96.0499 16.1067 95.9166 16.8 95.9166 17.52C95.9166 18.3467 96.0766 19.08 96.3966 19.72C96.7432 20.3333 97.1699 20.8533 97.6766 21.28C98.2099 21.7067 98.7966 22.0533 99.4366 22.32C100.077 22.56 100.69 22.7333 101.277 22.84C102.37 23.0267 103.383 23.2933 104.317 23.64C105.277 23.9867 106.103 24.44 106.797 25C107.517 25.5333 108.077 26.2 108.477 27C108.877 27.8 109.077 28.7333 109.077 29.8ZM113.879 32.8V19.96H110.479V17.96H113.879V10H115.999V17.96H119.679V19.96H115.999V33C115.999 34.0933 116.265 34.8533 116.799 35.28C117.359 35.68 118.025 35.88 118.799 35.88H119.679V38.04H118.599C117.932 38.04 117.305 37.9467 116.719 37.76C116.159 37.5467 115.665 37.24 115.239 36.84C114.812 36.4133 114.479 35.8667 114.239 35.2C113.999 34.5333 113.879 33.7333 113.879 32.8ZM129.383 28.36H129.463C129.943 28.36 130.383 28.2667 130.783 28.08C131.183 27.8667 131.529 27.6 131.823 27.28C132.116 26.9333 132.343 26.5467 132.503 26.12C132.689 25.6933 132.783 25.24 132.783 24.76V23.08C132.783 22.44 132.663 21.9067 132.423 21.48C132.183 21.0267 131.863 20.6667 131.463 20.4C131.089 20.1333 130.636 19.9467 130.103 19.84C129.596 19.7067 129.063 19.64 128.503 19.64C127.996 19.64 127.503 19.72 127.023 19.88C126.569 20.04 126.169 20.2667 125.823 20.56C125.476 20.8533 125.196 21.2133 124.983 21.64C124.769 22.0667 124.663 22.5467 124.663 23.08V28.32L129.383 28.36ZM122.583 23.28C122.583 22.48 122.716 21.7333 122.983 21.04C123.276 20.3467 123.663 19.7467 124.143 19.24C124.649 18.7333 125.223 18.3333 125.863 18.04C126.529 17.7467 127.249 17.6 128.023 17.6H129.383C130.129 17.6 130.836 17.7467 131.503 18.04C132.169 18.3333 132.756 18.7333 133.263 19.24C133.769 19.7467 134.156 20.3467 134.423 21.04C134.716 21.7333 134.863 22.48 134.863 23.28V24.6C134.863 25.72 134.663 26.6667 134.263 27.44C133.863 28.1867 133.316 28.8 132.623 29.28C131.929 29.76 131.116 30.1067 130.183 30.32C129.276 30.5067 128.303 30.6 127.263 30.6C126.836 30.6 126.409 30.5867 125.983 30.56C125.556 30.5333 125.116 30.4933 124.663 30.44V32.84C124.849 33.9067 125.343 34.76 126.143 35.4C126.969 36.0133 127.903 36.32 128.943 36.32C129.049 36.32 129.383 36.2667 129.943 36.16C130.529 36.0267 131.143 35.8933 131.783 35.76C132.529 35.6 133.356 35.4133 134.263 35.2L134.743 37.32C133.756 37.5333 132.863 37.7067 132.063 37.84C131.369 37.9733 130.703 38.0933 130.063 38.2C129.449 38.3067 129.076 38.36 128.943 38.36C128.089 38.36 127.276 38.2133 126.503 37.92C125.729 37.6 125.049 37.16 124.463 36.6C123.876 36.04 123.409 35.3867 123.063 34.64C122.743 33.8667 122.583 33.0267 122.583 32.12V23.28ZM141.312 34.96C141.632 35.1733 142.005 35.36 142.432 35.52C142.859 35.68 143.285 35.8267 143.712 35.96C144.139 36.0933 144.539 36.2 144.912 36.28C145.312 36.3333 145.632 36.36 145.872 36.36C146.805 36.36 147.592 36.0267 148.232 35.36C148.872 34.6667 149.192 33.84 149.192 32.88V23.08C149.192 22.6 149.099 22.16 148.912 21.76C148.752 21.3333 148.525 20.9733 148.232 20.68C147.939 20.36 147.592 20.1067 147.192 19.92C146.792 19.7333 146.365 19.64 145.912 19.64C145.672 19.64 145.365 19.6667 144.992 19.72C144.619 19.7467 144.219 19.8267 143.792 19.96C143.392 20.0667 142.979 20.2133 142.552 20.4C142.125 20.5867 141.712 20.8133 141.312 21.08V34.96ZM141.272 37.28V48H139.272V19.88L138.392 19.04L139.792 17.6L141.032 18.8C141.939 18.3467 142.819 18.04 143.672 17.88C144.525 17.6933 145.259 17.6 145.872 17.6C146.619 17.6 147.312 17.7467 147.952 18.04C148.592 18.3333 149.152 18.7333 149.632 19.24C150.112 19.7467 150.485 20.3467 150.752 21.04C151.045 21.7333 151.192 22.4667 151.192 23.24V32.76C151.192 33.5333 151.045 34.2667 150.752 34.96C150.485 35.6267 150.112 36.2267 149.632 36.76C149.152 37.2667 148.592 37.6667 147.952 37.96C147.312 38.2533 146.619 38.4 145.872 38.4C145.419 38.4 144.805 38.3467 144.032 38.24C143.259 38.16 142.339 37.84 141.272 37.28Z" fill="black"/>
<path d="M27.4 10H28.4V9H27.4V10ZM27.4 12.28V13.28H28.4V12.28H27.4ZM18.4 12.28V11.28H17.4V12.28H18.4ZM18.4 22.8H17.4V23.8H18.4V22.8ZM25.44 22.8H26.44V21.8H25.44V22.8ZM25.44 25.08V26.08H26.44V25.08H25.44ZM18.4 25.08V24.08H17.4V25.08H18.4ZM18.4 38V39H19.4V38H18.4ZM16.12 38H15.12V39H16.12V38ZM16.12 10V9H15.12V10H16.12ZM26.4 10V12.28H28.4V10H26.4ZM27.4 11.28H18.4V13.28H27.4V11.28ZM17.4 12.28V22.8H19.4V12.28H17.4ZM18.4 23.8H25.44V21.8H18.4V23.8ZM24.44 22.8V25.08H26.44V22.8H24.44ZM25.44 24.08H18.4V26.08H25.44V24.08ZM17.4 25.08V38H19.4V25.08H17.4ZM18.4 37H16.12V39H18.4V37ZM17.12 38V10H15.12V38H17.12ZM16.12 11H27.4V9H16.12V11ZM30.9897 10V9H29.9897V10H30.9897ZM33.1097 10H34.1097V9H33.1097V10ZM33.1097 13.12V14.12H34.1097V13.12H33.1097ZM30.9897 13.12H29.9897V14.12H30.9897V13.12ZM30.9897 18V17H29.9897V18H30.9897ZM33.1097 18H34.1097V17H33.1097V18ZM33.1097 38V39H34.1097V38H33.1097ZM30.9897 38H29.9897V39H30.9897V38ZM30.9897 11H33.1097V9H30.9897V11ZM32.1097 10V13.12H34.1097V10H32.1097ZM33.1097 12.12H30.9897V14.12H33.1097V12.12ZM31.9897 13.12V10H29.9897V13.12H31.9897ZM30.9897 19H33.1097V17H30.9897V19ZM32.1097 18V38H34.1097V18H32.1097ZM33.1097 37H30.9897V39H33.1097V37ZM31.9897 38V18H29.9897V38H31.9897ZM42.2963 38V39H43.2963V38H42.2963ZM40.1763 38H39.1763V39H40.1763V38ZM40.1763 19.96H41.1763V18.96H40.1763V19.96ZM36.6563 19.96H35.6563V20.96H36.6563V19.96ZM36.6563 18V17H35.6563V18H36.6563ZM40.2163 18V19H41.2163V18H40.2163ZM40.5763 12.48L41.5171 12.8187L41.5171 12.8187L40.5763 12.48ZM41.5362 10.88L40.8291 10.1729L40.8291 10.1729L41.5362 10.88ZM43.0163 9.96L43.3325 10.9087L43.3453 10.9044L43.358 10.8998L43.0163 9.96ZM45.6163 9.64H46.6163V8.64H45.6163V9.64ZM45.6163 11.8V12.8H46.6163V11.8H45.6163ZM43.0963 12.4L42.5329 11.5738L42.5239 11.5799L42.515 11.5863L43.0963 12.4ZM42.2563 18H41.2563V19H42.2563V18ZM46.0963 18H47.0963V17H46.0963V18ZM46.0963 19.96V20.96H47.0963V19.96H46.0963ZM42.2963 19.96V18.96H41.2963V19.96H42.2963ZM42.2963 37H40.1763V39H42.2963V37ZM41.1763 38V19.96H39.1763V38H41.1763ZM40.1763 18.96H36.6563V20.96H40.1763V18.96ZM37.6563 19.96V18H35.6563V19.96H37.6563ZM36.6563 19H40.2163V17H36.6563V19ZM41.2163 18V14.88H39.2163V18H41.2163ZM41.2163 14.88C41.2163 14.0276 41.3265 13.3484 41.5171 12.8187L39.6354 12.1413C39.346 12.9449 39.2163 13.8657 39.2163 14.88H41.2163ZM41.5171 12.8187C41.7195 12.2565 41.9703 11.8602 42.2434 11.5871L40.8291 10.1729C40.3022 10.6998 39.913 11.3701 39.6354 12.1413L41.5171 12.8187ZM42.2434 11.5871C42.5628 11.2677 42.9231 11.0451 43.3325 10.9087L42.7 9.01132C41.9894 9.24819 41.3631 9.63898 40.8291 10.1729L42.2434 11.5871ZM43.358 10.8998C43.8279 10.7289 44.3382 10.64 44.8963 10.64V8.64C44.121 8.64 43.378 8.76441 42.6745 9.02021L43.358 10.8998ZM44.8963 10.64H45.6163V8.64H44.8963V10.64ZM44.6163 9.64V11.8H46.6163V9.64H44.6163ZM45.6163 10.8H45.0963V12.8H45.6163V10.8ZM45.0963 10.8C44.1596 10.8 43.2945 11.0545 42.5329 11.5738L43.6596 13.2262C44.0714 12.9455 44.5396 12.8 45.0963 12.8V10.8ZM42.515 11.5863C41.5721 12.2598 41.2563 13.3936 41.2563 14.6H43.2563C43.2563 13.6731 43.5004 13.3402 43.6775 13.2137L42.515 11.5863ZM41.2563 14.6V18H43.2563V14.6H41.2563ZM42.2563 19H46.0963V17H42.2563V19ZM45.0963 18V19.96H47.0963V18H45.0963ZM46.0963 18.96H42.2963V20.96H46.0963V18.96ZM41.2963 19.96V38H43.2963V19.96H41.2963ZM51.2225 19.96H52.2225V18.96H51.2225V19.96ZM47.8225 19.96H46.8225V20.96H47.8225V19.96ZM47.8225 17.96V16.96H46.8225V17.96H47.8225ZM51.2225 17.96V18.96H52.2225V17.96H51.2225ZM51.2225 10V9H50.2225V10H51.2225ZM53.3425 10H54.3425V9H53.3425V10ZM53.3425 17.96H52.3425V18.96H53.3425V17.96ZM57.0225 17.96H58.0225V16.96H57.0225V17.96ZM57.0225 19.96V20.96H58.0225V19.96H57.0225ZM53.3425 19.96V18.96H52.3425V19.96H53.3425ZM54.1425 35.28L53.5178 36.0609L53.5391 36.0779L53.5613 36.0937L54.1425 35.28ZM57.0225 35.88H58.0225V34.88H57.0225V35.88ZM57.0225 38.04V39.04H58.0225V38.04H57.0225ZM54.0625 37.76L53.7065 38.6945L53.7326 38.7044L53.7593 38.7129L54.0625 37.76ZM52.5825 36.84L51.8754 37.5471L51.8868 37.5585L51.8986 37.5695L52.5825 36.84ZM51.5825 35.2L50.6416 35.5387L50.6416 35.5387L51.5825 35.2ZM52.2225 32.8V19.96H50.2225V32.8H52.2225ZM51.2225 18.96H47.8225V20.96H51.2225V18.96ZM48.8225 19.96V17.96H46.8225V19.96H48.8225ZM47.8225 18.96H51.2225V16.96H47.8225V18.96ZM52.2225 17.96V10H50.2225V17.96H52.2225ZM51.2225 11H53.3425V9H51.2225V11ZM52.3425 10V17.96H54.3425V10H52.3425ZM53.3425 18.96H57.0225V16.96H53.3425V18.96ZM56.0225 17.96V19.96H58.0225V17.96H56.0225ZM57.0225 18.96H53.3425V20.96H57.0225V18.96ZM52.3425 19.96V33H54.3425V19.96H52.3425ZM52.3425 33C52.3425 34.2151 52.6345 35.3542 53.5178 36.0609L54.7672 34.4991C54.5839 34.3525 54.3425 33.9716 54.3425 33H52.3425ZM53.5613 36.0937C54.3115 36.6296 55.1876 36.88 56.1425 36.88V34.88C55.5507 34.88 55.0935 34.7304 54.7237 34.4663L53.5613 36.0937ZM56.1425 36.88H57.0225V34.88H56.1425V36.88ZM56.0225 35.88V38.04H58.0225V35.88H56.0225ZM57.0225 37.04H55.9425V39.04H57.0225V37.04ZM55.9425 37.04C55.3702 37.04 54.8465 36.9601 54.3657 36.8071L53.7593 38.7129C54.4518 38.9333 55.1814 39.04 55.9425 39.04V37.04ZM54.4185 36.8255C53.977 36.6573 53.5958 36.4192 53.2664 36.1105L51.8986 37.5695C52.4225 38.0608 53.028 38.436 53.7065 38.6945L54.4185 36.8255ZM53.2896 36.1329C52.9836 35.8269 52.7221 35.4134 52.5234 34.8613L50.6416 35.5387C50.9229 36.3199 51.328 36.9997 51.8754 37.5471L53.2896 36.1329ZM52.5234 34.8613C52.3327 34.3316 52.2225 33.6524 52.2225 32.8H50.2225C50.2225 33.8143 50.3523 34.7351 50.6416 35.5387L52.5234 34.8613ZM70.2066 38H69.2066V39H70.2066V38ZM69.2466 20.68L68.5118 21.3583L68.5184 21.3655L68.5252 21.3725L69.2466 20.68ZM66.0066 19.72L66.0833 20.7171L66.1211 20.7141L66.1586 20.7084L66.0066 19.72ZM63.5666 20.36L63.9674 21.2762L63.9674 21.2762L63.5666 20.36ZM62.3266 21.04L61.7719 20.2079L61.3266 20.5048V21.04H62.3266ZM62.3266 38V39H63.3266V38H62.3266ZM60.2866 38H59.2866V39H60.2866V38ZM60.2866 10V9H59.2866V10H60.2866ZM62.2866 10H63.2866V9H62.2866V10ZM62.2866 18.72H61.2866V20.3744L62.7514 19.6054L62.2866 18.72ZM65.0466 17.76L65.1495 18.7547L65.1664 18.7529L65.1832 18.7506L65.0466 17.76ZM68.9666 18.04L68.5499 18.9491L68.5499 18.9491L68.9666 18.04ZM70.6466 19.28L69.9033 19.949L69.9118 19.9585L69.9206 19.9677L70.6466 19.28ZM71.7666 21.08L70.8332 21.439L70.8417 21.4611L70.8512 21.4827L71.7666 21.08ZM72.2066 38V39H73.2066V38H72.2066ZM71.2066 38V23.12H69.2066V38H71.2066ZM71.2066 23.12C71.2066 21.913 70.7943 20.8482 69.968 19.9875L68.5252 21.3725C68.9788 21.8451 69.2066 22.407 69.2066 23.12H71.2066ZM69.9814 20.0017C69.1544 19.1059 68.1025 18.64 66.8866 18.64V20.64C67.5373 20.64 68.0587 20.8675 68.5118 21.3583L69.9814 20.0017ZM66.8866 18.64C66.5783 18.64 66.2308 18.6737 65.8545 18.7316L66.1586 20.7084C66.4757 20.6596 66.7148 20.64 66.8866 20.64V18.64ZM65.9299 18.7229C65.5149 18.7549 65.0716 18.833 64.604 18.9499L65.0891 20.8901C65.4749 20.7937 65.8049 20.7385 66.0833 20.7171L65.9299 18.7229ZM64.604 18.9499C64.1201 19.0708 63.6406 19.2361 63.1657 19.4438L63.9674 21.2762C64.3459 21.1106 64.7197 20.9825 65.0891 20.8901L64.604 18.9499ZM63.1657 19.4438C62.6837 19.6547 62.219 19.9098 61.7719 20.2079L62.8813 21.872C63.2341 21.6368 63.5961 21.4386 63.9674 21.2762L63.1657 19.4438ZM61.3266 21.04V38H63.3266V21.04H61.3266ZM62.3266 37H60.2866V39H62.3266V37ZM61.2866 38V10H59.2866V38H61.2866ZM60.2866 11H62.2866V9H60.2866V11ZM61.2866 10V18.72H63.2866V10H61.2866ZM62.7514 19.6054C63.7607 19.0755 64.5526 18.8164 65.1495 18.7547L64.9437 16.7653C63.9939 16.8636 62.9458 17.2445 61.8217 17.8346L62.7514 19.6054ZM65.1832 18.7506C65.9386 18.6464 66.5 18.6 66.8866 18.6V16.6C66.3664 16.6 65.7012 16.6602 64.9099 16.7694L65.1832 18.7506ZM66.8866 18.6C67.4983 18.6 68.0485 18.7192 68.5499 18.9491L69.3832 17.1309C68.6046 16.7741 67.7682 16.6 66.8866 16.6V18.6ZM68.5499 18.9491C69.0634 19.1844 69.5128 19.5151 69.9033 19.949L71.3899 18.611C70.8203 17.9782 70.1498 17.4823 69.3832 17.1309L68.5499 18.9491ZM69.9206 19.9677C70.305 20.3734 70.6105 20.8598 70.8332 21.439L72.6999 20.721C72.3893 19.9135 71.9482 19.1999 71.3725 18.5923L69.9206 19.9677ZM70.8512 21.4827C71.0853 22.0147 71.2066 22.5966 71.2066 23.24H73.2066C73.2066 22.3367 73.0345 21.4786 72.6819 20.6773L70.8512 21.4827ZM71.2066 23.24V38H73.2066V23.24H71.2066ZM72.2066 37H70.2066V39H72.2066V37ZM108.477 32.96L107.55 32.5843L107.545 32.5952L107.541 32.6061L108.477 32.96ZM106.877 35.56L106.144 34.8795L106.143 34.8806L106.877 35.56ZM104.477 37.32L104.892 38.2295L104.903 38.2246L104.913 38.2195L104.477 37.32ZM98.4366 37.56L98.6975 36.5946L98.4366 37.56ZM95.7966 36.68L96.1789 35.756L96.1773 35.7553L95.7966 36.68ZM93.1966 35.36L92.2568 35.0183L91.9777 35.7858L92.674 36.2126L93.1966 35.36ZM93.9966 33.16L94.4645 32.2762L93.4493 31.7388L93.0568 32.8183L93.9966 33.16ZM96.6766 34.4L96.31 35.3305L96.3219 35.335L96.6766 34.4ZM99.1166 35.24L98.8183 36.1945L98.832 36.1988L98.8458 36.2027L99.1166 35.24ZM103.517 35.16L103.114 34.2447L103.107 34.2478L103.1 34.2509L103.517 35.16ZM105.237 33.96L105.963 34.6477L105.971 34.6385L105.98 34.629L105.237 33.96ZM106.357 32.12L105.423 31.761L105.423 31.761L106.357 32.12ZM106.197 27.84L105.365 28.3947L105.371 28.4042L105.377 28.4135L106.197 27.84ZM104.757 26.48L104.202 27.312L104.224 27.3271L104.248 27.3409L104.757 26.48ZM102.877 25.64L102.582 26.5958L102.599 26.601L102.617 26.6056L102.877 25.64ZM100.837 25.16L100.676 26.1471L100.679 26.1474L100.837 25.16ZM98.0366 24.32L97.6121 25.2255L97.6228 25.2304L98.0366 24.32ZM95.7566 22.76L95.0495 23.4671L95.0567 23.4743L95.064 23.4814L95.7566 22.76ZM94.2366 20.52L93.3204 20.9208L93.3204 20.9208L94.2366 20.52ZM94.2366 14.56L93.3098 14.1843L93.3071 14.1909L93.3046 14.1976L94.2366 14.56ZM95.8366 12L95.1038 11.3195L95.1028 11.3206L95.8366 12ZM98.2366 10.24L98.6624 11.1448L98.6624 11.1448L98.2366 10.24ZM103.077 9.84L102.843 10.8124L102.865 10.8177L102.888 10.822L103.077 9.84ZM104.997 10.28L105.301 9.32757L105.281 9.32095L105.26 9.31524L104.997 10.28ZM106.957 10.96L107.904 11.2813L108.215 10.3638L107.308 10.0237L106.957 10.96ZM106.197 13.2L105.818 14.1255L106.802 14.5281L107.144 13.5213L106.197 13.2ZM104.397 12.56L104.688 11.6033L104.684 11.6022L104.397 12.56ZM102.717 12.12L102.938 11.1449L102.938 11.1449L102.717 12.12ZM98.9966 12.4L99.428 13.3021L99.4359 13.2983L99.4438 13.2944L98.9966 12.4ZM97.3966 13.64L98.1418 14.3068L98.1503 14.2973L98.1585 14.2876L97.3966 13.64ZM96.3166 15.44L97.2451 15.8114L97.2499 15.799L96.3166 15.44ZM96.3966 19.72L95.5021 20.1672L95.5135 20.1899L95.526 20.2121L96.3966 19.72ZM97.6766 21.28L97.0324 22.0449L97.042 22.053L97.0519 22.0609L97.6766 21.28ZM99.4366 22.32L99.0519 23.2431L99.0686 23.25L99.0854 23.2563L99.4366 22.32ZM101.277 22.84L101.098 23.8239L101.108 23.8257L101.277 22.84ZM104.317 23.64L103.968 24.5775L103.977 24.5806L104.317 23.64ZM106.797 25L106.168 25.7779L106.185 25.7911L106.201 25.8036L106.797 25ZM108.477 27L107.582 27.4472L107.582 27.4472L108.477 27ZM108.077 29.8C108.077 30.798 107.899 31.7231 107.55 32.5843L109.403 33.3357C109.854 32.2236 110.077 31.042 110.077 29.8H108.077ZM107.541 32.6061C107.212 33.4762 106.746 34.231 106.144 34.8795L107.609 36.2405C108.394 35.3957 108.994 34.4171 109.412 33.3139L107.541 32.6061ZM106.143 34.8806C105.565 35.5043 104.868 36.0183 104.04 36.4205L104.913 38.2195C105.952 37.715 106.854 37.0557 107.61 36.2394L106.143 34.8806ZM104.061 36.4105C103.263 36.7752 102.406 36.96 101.477 36.96V38.96C102.681 38.96 103.823 38.7182 104.892 38.2295L104.061 36.4105ZM101.477 36.96C100.523 36.96 99.5976 36.8379 98.6975 36.5946L98.1757 38.5254C99.2489 38.8154 100.35 38.96 101.477 38.96V36.96ZM98.6975 36.5946C97.7435 36.3368 96.9052 36.0565 96.1789 35.756L95.4142 37.604C96.2346 37.9435 97.1563 38.2499 98.1757 38.5254L98.6975 36.5946ZM96.1773 35.7553C95.3192 35.402 94.5 34.986 93.7191 34.5074L92.674 36.2126C93.5465 36.7473 94.4606 37.2114 95.4158 37.6047L96.1773 35.7553ZM94.1364 35.7017L94.9364 33.5017L93.0568 32.8183L92.2568 35.0183L94.1364 35.7017ZM93.5287 34.0438C94.4655 34.5398 95.3926 34.969 96.31 35.3304L97.0431 33.4696C96.2005 33.1377 95.341 32.7402 94.4645 32.2762L93.5287 34.0438ZM96.3219 35.335C97.1153 35.6359 97.9475 35.9224 98.8183 36.1945L99.4148 34.2855C98.579 34.0243 97.7845 33.7507 97.0312 33.465L96.3219 35.335ZM98.8458 36.2027C99.7641 36.4609 100.63 36.6 101.437 36.6V34.6C100.856 34.6 100.176 34.4991 99.3873 34.2773L98.8458 36.2027ZM101.437 36.6C102.318 36.6 103.155 36.4259 103.933 36.0691L103.1 34.2509C102.598 34.4808 102.048 34.6 101.437 34.6V36.6ZM103.919 36.0753C104.702 35.7308 105.387 35.2552 105.963 34.6477L104.511 33.2723C104.126 33.6781 103.664 34.0026 103.114 34.2447L103.919 36.0753ZM105.98 34.629C106.545 34.0016 106.981 33.2823 107.29 32.479L105.423 31.761C105.199 32.3444 104.889 32.8518 104.493 33.291L105.98 34.629ZM107.29 32.479C107.604 31.6625 107.757 30.7932 107.757 29.88H105.757C105.757 30.5668 105.643 31.1908 105.423 31.761L107.29 32.479ZM107.757 29.88C107.757 28.9036 107.535 28.0083 107.016 27.2665L105.377 28.4135C105.605 28.7384 105.757 29.203 105.757 29.88H107.757ZM107.029 27.2853C106.571 26.5986 105.98 26.0412 105.265 25.6191L104.248 27.3409C104.707 27.6121 105.076 27.9614 105.365 28.3947L107.029 27.2853ZM105.311 25.6479C104.655 25.2105 103.928 24.8874 103.137 24.6744L102.617 26.6056C103.212 26.7659 103.738 27.0029 104.202 27.312L105.311 25.6479ZM103.171 24.6842C102.436 24.4582 101.711 24.2871 100.995 24.1726L100.679 26.1474C101.296 26.2462 101.93 26.3952 102.582 26.5958L103.171 24.6842ZM100.997 24.1729C100.095 24.0266 99.2469 23.7717 98.4504 23.4096L97.6228 25.2304C98.5863 25.6683 99.6052 25.9734 100.676 26.1471L100.997 24.1729ZM98.461 23.4145C97.7045 23.0599 97.0355 22.6015 96.4491 22.0386L95.064 23.4814C95.811 24.1985 96.662 24.7801 97.6121 25.2255L98.461 23.4145ZM96.4637 22.0529C95.9144 21.5036 95.4776 20.8617 95.1527 20.1192L93.3204 20.9208C93.7422 21.885 94.3187 22.7364 95.0495 23.4671L96.4637 22.0529ZM95.1527 20.1192C94.8422 19.4093 94.6766 18.5886 94.6766 17.64H92.6766C92.6766 18.8247 92.8843 19.924 93.3204 20.9208L95.1527 20.1192ZM94.6766 17.64C94.6766 16.663 94.8429 15.7599 95.1686 14.9224L93.3046 14.1976C92.8836 15.2801 92.6766 16.4304 92.6766 17.64H94.6766ZM95.1633 14.9357C95.5217 14.0515 95.9925 13.3034 96.5703 12.6794L95.1028 11.3206C94.3472 12.1366 93.7514 13.0951 93.3098 14.1843L95.1633 14.9357ZM96.5694 12.6804C97.1772 12.0259 97.8734 11.5161 98.6624 11.1448L97.8108 9.33518C96.7864 9.81724 95.8826 10.4808 95.1038 11.3195L96.5694 12.6804ZM98.6624 11.1448C99.4343 10.7816 100.249 10.6 101.117 10.6V8.6C99.9577 8.6 98.8522 8.84511 97.8108 9.33518L98.6624 11.1448ZM101.117 10.6C101.673 10.6 102.248 10.6694 102.843 10.8124L103.31 8.86761C102.572 8.69056 101.841 8.6 101.117 8.6V10.6ZM102.888 10.822C103.56 10.9513 104.175 11.0924 104.733 11.2448L105.26 9.31524C104.645 9.14758 103.98 8.99538 103.265 8.85799L102.888 10.822ZM104.692 11.2324C105.343 11.4409 105.981 11.6622 106.605 11.8963L107.308 10.0237C106.652 9.77779 105.983 9.54577 105.301 9.32757L104.692 11.2324ZM106.01 10.6387L105.25 12.8787L107.144 13.5213L107.904 11.2813L106.01 10.6387ZM106.575 12.2745C105.96 12.0226 105.33 11.7989 104.688 11.6033L104.105 13.5167C104.689 13.6944 105.26 13.8974 105.818 14.1255L106.575 12.2745ZM104.684 11.6022C104.127 11.4352 103.545 11.2828 102.938 11.1449L102.495 13.0951C103.061 13.2238 103.599 13.3648 104.109 13.5178L104.684 11.6022ZM102.938 11.1449C102.288 10.9971 101.653 10.92 101.037 10.92V12.92C101.487 12.92 101.972 12.9763 102.495 13.0951L102.938 11.1449ZM101.037 10.92C100.162 10.92 99.3291 11.1157 98.5494 11.5056L99.4438 13.2944C99.944 13.0443 100.471 12.92 101.037 12.92V10.92ZM98.5651 11.4979C97.8212 11.8537 97.1762 12.3552 96.6346 12.9924L98.1585 14.2876C98.5235 13.8582 98.9453 13.533 99.428 13.3021L98.5651 11.4979ZM96.6513 12.9732C96.11 13.5782 95.6894 14.285 95.3832 15.081L97.2499 15.799C97.4771 15.2083 97.7765 14.7151 98.1418 14.3068L96.6513 12.9732ZM95.3881 15.0686C95.074 15.8537 94.9166 16.6731 94.9166 17.52H96.9166C96.9166 16.9269 97.0258 16.3596 97.245 15.8114L95.3881 15.0686ZM94.9166 17.52C94.9166 18.4778 95.1027 19.3683 95.5021 20.1672L97.291 19.2728C97.0505 18.7917 96.9166 18.2156 96.9166 17.52H94.9166ZM95.526 20.2121C95.9275 20.9225 96.429 21.5367 97.0324 22.0449L98.3207 20.5151C97.9108 20.1699 97.5589 19.7442 97.2671 19.2279L95.526 20.2121ZM97.0519 22.0609C97.6593 22.5468 98.327 22.941 99.0519 23.2431L99.8212 21.3969C99.2661 21.1657 98.7605 20.8665 98.3013 20.4991L97.0519 22.0609ZM99.0854 23.2563C99.7734 23.5143 100.445 23.7051 101.098 23.8239L101.455 21.8561C100.935 21.7616 100.38 21.6057 99.7877 21.3837L99.0854 23.2563ZM101.108 23.8257C102.147 24.0031 103.1 24.2547 103.968 24.5774L104.665 22.7026C103.667 22.332 102.593 22.0502 101.445 21.8543L101.108 23.8257ZM103.977 24.5806C104.847 24.8948 105.573 25.2972 106.168 25.7779L107.425 24.2221C106.633 23.5828 105.706 23.0785 104.656 22.6994L103.977 24.5806ZM106.201 25.8036C106.795 26.2435 107.253 26.7881 107.582 27.4472L109.371 26.5528C108.901 25.6119 108.238 24.8232 107.392 24.1964L106.201 25.8036ZM107.582 27.4472C107.901 28.0841 108.077 28.8589 108.077 29.8H110.077C110.077 28.6077 109.853 27.5159 109.371 26.5528L107.582 27.4472ZM113.879 19.96H114.879V18.96H113.879V19.96ZM110.479 19.96H109.479V20.96H110.479V19.96ZM110.479 17.96V16.96H109.479V17.96H110.479ZM113.879 17.96V18.96H114.879V17.96H113.879ZM113.879 10V9H112.879V10H113.879ZM115.999 10H116.999V9H115.999V10ZM115.999 17.96H114.999V18.96H115.999V17.96ZM119.679 17.96H120.679V16.96H119.679V17.96ZM119.679 19.96V20.96H120.679V19.96H119.679ZM115.999 19.96V18.96H114.999V19.96H115.999ZM116.799 35.28L116.174 36.0609L116.195 36.0779L116.218 36.0937L116.799 35.28ZM119.679 35.88H120.679V34.88H119.679V35.88ZM119.679 38.04V39.04H120.679V38.04H119.679ZM116.719 37.76L116.363 38.6945L116.389 38.7044L116.416 38.7129L116.719 37.76ZM115.239 36.84L114.532 37.5471L114.543 37.5585L114.555 37.5695L115.239 36.84ZM114.239 35.2L113.298 35.5387L113.298 35.5387L114.239 35.2ZM114.879 32.8V19.96H112.879V32.8H114.879ZM113.879 18.96H110.479V20.96H113.879V18.96ZM111.479 19.96V17.96H109.479V19.96H111.479ZM110.479 18.96H113.879V16.96H110.479V18.96ZM114.879 17.96V10H112.879V17.96H114.879ZM113.879 11H115.999V9H113.879V11ZM114.999 10V17.96H116.999V10H114.999ZM115.999 18.96H119.679V16.96H115.999V18.96ZM118.679 17.96V19.96H120.679V17.96H118.679ZM119.679 18.96H115.999V20.96H119.679V18.96ZM114.999 19.96V33H116.999V19.96H114.999ZM114.999 33C114.999 34.2151 115.291 35.3542 116.174 36.0609L117.423 34.4991C117.24 34.3525 116.999 33.9716 116.999 33H114.999ZM116.218 36.0937C116.968 36.6296 117.844 36.88 118.799 36.88V34.88C118.207 34.88 117.75 34.7304 117.38 34.4663L116.218 36.0937ZM118.799 36.88H119.679V34.88H118.799V36.88ZM118.679 35.88V38.04H120.679V35.88H118.679ZM119.679 37.04H118.599V39.04H119.679V37.04ZM118.599 37.04C118.026 37.04 117.503 36.9601 117.022 36.8071L116.416 38.7129C117.108 38.9333 117.838 39.04 118.599 39.04V37.04ZM117.075 36.8255C116.633 36.6573 116.252 36.4192 115.923 36.1105L114.555 37.5695C115.079 38.0608 115.684 38.436 116.363 38.6945L117.075 36.8255ZM115.946 36.1329C115.64 35.8269 115.378 35.4134 115.18 34.8613L113.298 35.5387C113.579 36.3199 113.984 36.9997 114.532 37.5471L115.946 36.1329ZM115.18 34.8613C114.989 34.3316 114.879 33.6524 114.879 32.8H112.879C112.879 33.8143 113.009 34.7351 113.298 35.5387L115.18 34.8613ZM129.383 28.36L129.374 29.36H129.383V28.36ZM130.783 28.08L131.206 28.9862L131.23 28.9749L131.253 28.9624L130.783 28.08ZM131.823 27.28L132.56 27.9557L132.573 27.9411L132.586 27.9259L131.823 27.28ZM132.503 26.12L131.587 25.7192L131.576 25.7438L131.566 25.7689L132.503 26.12ZM132.423 21.48L131.539 21.9479L131.545 21.9592L131.551 21.9703L132.423 21.48ZM131.463 20.4L130.882 21.2137L130.895 21.2231L130.908 21.232L131.463 20.4ZM130.103 19.84L129.848 20.8071L129.877 20.8147L129.907 20.8206L130.103 19.84ZM127.023 19.88L126.707 18.9313L126.698 18.9341L126.69 18.937L127.023 19.88ZM125.823 20.56L126.469 21.3234L126.469 21.3234L125.823 20.56ZM124.983 21.64L124.088 21.1928L124.088 21.1928L124.983 21.64ZM124.663 28.32H123.663V29.3116L124.654 29.32L124.663 28.32ZM122.983 21.04L122.062 20.6504L122.055 20.6656L122.049 20.681L122.983 21.04ZM124.143 19.24L123.436 18.5329L123.426 18.5424L123.417 18.5523L124.143 19.24ZM125.863 18.04L125.46 17.1247L125.453 17.1278L125.446 17.1309L125.863 18.04ZM131.503 18.04L131.1 18.9553L131.1 18.9553L131.503 18.04ZM134.423 21.04L133.489 21.399L133.495 21.4144L133.502 21.4296L134.423 21.04ZM134.263 27.44L135.144 27.9122L135.148 27.9058L135.151 27.8994L134.263 27.44ZM132.623 29.28L133.192 30.1022L133.192 30.1022L132.623 29.28ZM130.183 30.32L130.384 31.2995L130.395 31.2973L130.406 31.2949L130.183 30.32ZM125.983 30.56L125.92 31.5581L125.92 31.5581L125.983 30.56ZM124.663 30.44L124.78 29.4468L123.663 29.3155V30.44H124.663ZM124.663 32.84H123.663V32.9268L123.678 33.0124L124.663 32.84ZM126.143 35.4L125.518 36.1809L125.532 36.1922L125.547 36.2031L126.143 35.4ZM129.943 36.16L130.13 37.1423L130.147 37.139L130.164 37.1351L129.943 36.16ZM131.783 35.76L131.987 36.739L131.992 36.7378L131.783 35.76ZM134.263 35.2L135.238 34.9792L135.015 33.9956L134.034 34.2266L134.263 35.2ZM134.743 37.32L134.954 38.2974L135.941 38.084L135.718 37.0992L134.743 37.32ZM132.063 37.84L131.898 36.8536L131.886 36.8556L131.874 36.858L132.063 37.84ZM130.063 38.2L129.898 37.2136L129.891 37.2148L130.063 38.2ZM126.503 37.92L126.12 38.844L126.134 38.8497L126.148 38.855L126.503 37.92ZM124.463 36.6L123.772 37.3234L123.772 37.3234L124.463 36.6ZM123.063 34.64L122.139 35.0224L122.147 35.0419L122.156 35.0611L123.063 34.64ZM129.383 29.36H129.463V27.36H129.383V29.36ZM129.463 29.36C130.076 29.36 130.662 29.2399 131.206 28.9862L130.36 27.1738C130.104 27.2934 129.81 27.36 129.463 27.36V29.36ZM131.253 28.9624C131.749 28.6981 132.187 28.3629 132.56 27.9557L131.086 26.6043C130.872 26.8371 130.617 27.0352 130.312 27.1976L131.253 28.9624ZM132.586 27.9259C132.954 27.4913 133.239 27.0049 133.439 26.4711L131.566 25.7689C131.447 26.0885 131.278 26.3753 131.059 26.6341L132.586 27.9259ZM133.419 26.5208C133.663 25.9638 133.783 25.3736 133.783 24.76H131.783C131.783 25.1064 131.716 25.4228 131.587 25.7192L133.419 26.5208ZM133.783 24.76V23.08H131.783V24.76H133.783ZM133.783 23.08C133.783 22.3195 133.641 21.6052 133.294 20.9897L131.551 21.9703C131.685 22.2081 131.783 22.5605 131.783 23.08H133.783ZM133.307 21.0121C132.994 20.4221 132.565 19.9329 132.018 19.5679L130.908 21.232C131.161 21.4004 131.371 21.6313 131.539 21.9479L133.307 21.0121ZM132.044 19.5863C131.536 19.2235 130.946 18.9888 130.299 18.8594L129.907 20.8206C130.327 20.9046 130.643 21.0431 130.882 21.2137L132.044 19.5863ZM130.357 18.8729C129.762 18.7163 129.143 18.64 128.503 18.64V20.64C128.983 20.64 129.43 20.697 129.848 20.8071L130.357 18.8729ZM128.503 18.64C127.889 18.64 127.289 18.7373 126.707 18.9313L127.339 20.8287C127.717 20.7027 128.103 20.64 128.503 20.64V18.64ZM126.69 18.937C126.129 19.135 125.621 19.4204 125.177 19.7966L126.469 21.3234C126.717 21.1129 127.01 20.945 127.356 20.823L126.69 18.937ZM125.177 19.7966C124.722 20.1818 124.359 20.6512 124.088 21.1928L125.877 22.0872C126.033 21.7755 126.231 21.5249 126.469 21.3234L125.177 19.7966ZM124.088 21.1928C123.798 21.774 123.663 22.4099 123.663 23.08H125.663C125.663 22.6834 125.741 22.3594 125.877 22.0872L124.088 21.1928ZM123.663 23.08V28.32H125.663V23.08H123.663ZM124.654 29.32L129.374 29.36L129.391 27.36L124.671 27.32L124.654 29.32ZM123.583 23.28C123.583 22.5932 123.697 21.9692 123.916 21.399L122.049 20.681C121.735 21.4975 121.583 22.3668 121.583 23.28H123.583ZM123.904 21.4296C124.154 20.8378 124.477 20.3409 124.869 19.9277L123.417 18.5523C122.848 19.1524 122.398 19.8555 122.062 20.6504L123.904 21.4296ZM124.85 19.9471C125.274 19.523 125.749 19.192 126.279 18.9491L125.446 17.1309C124.696 17.4747 124.025 17.9437 123.436 18.5329L124.85 19.9471ZM126.266 18.9553C126.798 18.7212 127.379 18.6 128.023 18.6V16.6C127.12 16.6 126.261 16.7721 125.46 17.1247L126.266 18.9553ZM128.023 18.6H129.383V16.6H128.023V18.6ZM129.383 18.6C129.994 18.6 130.564 18.7193 131.1 18.9553L131.906 17.1247C131.109 16.7741 130.265 16.6 129.383 16.6V18.6ZM131.1 18.9553C131.655 19.1996 132.138 19.5296 132.556 19.9471L133.97 18.5329C133.374 17.9371 132.684 17.4671 131.906 17.1247L131.1 18.9553ZM132.556 19.9471C132.96 20.3512 133.271 20.8313 133.489 21.399L135.356 20.681C135.041 19.862 134.579 19.1422 133.97 18.5329L132.556 19.9471ZM133.502 21.4296C133.74 21.9921 133.863 22.6053 133.863 23.28H135.863C135.863 22.3546 135.692 21.4746 135.344 20.6504L133.502 21.4296ZM133.863 23.28V24.6H135.863V23.28H133.863ZM133.863 24.6C133.863 25.6045 133.683 26.3841 133.375 26.9806L135.151 27.8994C135.642 26.9493 135.863 25.8355 135.863 24.6H133.863ZM133.381 26.9678C133.056 27.5753 132.616 28.0685 132.054 28.4578L133.192 30.1022C134.016 29.5315 134.67 28.798 135.144 27.9122L133.381 26.9678ZM132.054 28.4578C131.478 28.8562 130.786 29.1564 129.96 29.3451L130.406 31.2949C131.446 31.057 132.381 30.6638 133.192 30.1022L132.054 28.4578ZM129.981 29.3405C129.148 29.512 128.243 29.6 127.263 29.6V31.6C128.362 31.6 129.404 31.5013 130.384 31.2995L129.981 29.3405ZM127.263 29.6C126.857 29.6 126.451 29.5873 126.045 29.5619L125.92 31.5581C126.368 31.586 126.815 31.6 127.263 31.6V29.6ZM126.045 29.5619C125.638 29.5365 125.216 29.4982 124.78 29.4468L124.546 31.4332C125.016 31.4885 125.474 31.5302 125.92 31.5581L126.045 29.5619ZM123.663 30.44V32.84H125.663V30.44H123.663ZM123.678 33.0124C123.904 34.3041 124.516 35.3795 125.518 36.1809L126.768 34.6191C126.169 34.1405 125.795 33.5092 125.648 32.6676L123.678 33.0124ZM125.547 36.2031C126.548 36.9457 127.691 37.32 128.943 37.32V35.32C128.115 35.32 127.391 35.0809 126.739 34.5969L125.547 36.2031ZM128.943 37.32C129.09 37.32 129.281 37.2915 129.431 37.2674C129.612 37.2385 129.846 37.1964 130.13 37.1423L129.756 35.1777C129.48 35.2302 129.267 35.2681 129.115 35.2926C129.038 35.3048 128.983 35.3127 128.945 35.3173C128.897 35.3231 128.906 35.32 128.943 35.32V37.32ZM130.164 37.1351C130.745 37.0032 131.352 36.8712 131.987 36.739L131.579 34.781C130.933 34.9155 130.314 35.0501 129.721 35.1849L130.164 37.1351ZM131.992 36.7378C132.747 36.5761 133.58 36.388 134.492 36.1734L134.034 34.2266C133.132 34.4387 132.312 34.6239 131.573 34.7822L131.992 36.7378ZM133.287 35.4208L133.768 37.5408L135.718 37.0992L135.238 34.9792L133.287 35.4208ZM134.531 36.3426C133.557 36.5533 132.679 36.7234 131.898 36.8536L132.227 38.8264C133.046 38.6899 133.955 38.5133 134.954 38.2974L134.531 36.3426ZM131.874 36.858C131.188 36.9899 130.53 37.1084 129.898 37.2136L130.227 39.1864C130.876 39.0783 131.551 38.9568 132.252 38.822L131.874 36.858ZM129.891 37.2148C129.589 37.2673 129.354 37.3054 129.181 37.3301C128.986 37.358 128.928 37.36 128.943 37.36V39.36C129.091 39.36 129.286 39.3354 129.464 39.3099C129.665 39.2812 129.923 39.2393 130.234 39.1852L129.891 37.2148ZM128.943 37.36C128.207 37.36 127.514 37.234 126.857 36.985L126.148 38.855C127.038 39.1927 127.972 39.36 128.943 39.36V37.36ZM126.885 36.996C126.222 36.7217 125.648 36.3486 125.153 35.8766L123.772 37.3234C124.451 37.9714 125.237 38.4783 126.12 38.844L126.885 36.996ZM125.153 35.8766C124.658 35.4043 124.265 34.8539 123.97 34.2189L122.156 35.0611C122.554 35.9194 123.094 36.6757 123.772 37.3234L125.153 35.8766ZM123.987 34.2576C123.721 33.6153 123.583 32.9065 123.583 32.12H121.583C121.583 33.1468 121.765 34.118 122.139 35.0224L123.987 34.2576ZM123.583 32.12V23.28H121.583V32.12H123.583ZM141.312 34.96H140.312V35.4952L140.757 35.7921L141.312 34.96ZM143.712 35.96L144.01 35.0055L144.01 35.0055L143.712 35.96ZM144.912 36.28L144.702 37.2578L144.741 37.266L144.78 37.2712L144.912 36.28ZM148.232 35.36L148.953 36.0525L148.96 36.0455L148.967 36.0383L148.232 35.36ZM148.912 21.76L147.976 22.1111L147.989 22.1476L148.006 22.1829L148.912 21.76ZM148.232 20.68L147.495 21.3557L147.509 21.3717L147.525 21.3871L148.232 20.68ZM147.192 19.92L146.769 20.8262L146.769 20.8262L147.192 19.92ZM144.992 19.72L145.063 20.7175L145.098 20.7149L145.133 20.7099L144.992 19.72ZM143.792 19.96L144.05 20.9262L144.07 20.9208L144.09 20.9145L143.792 19.96ZM142.552 20.4L142.151 19.4838L142.151 19.4838L142.552 20.4ZM141.312 21.08L140.757 20.2479L140.312 20.5448V21.08H141.312ZM141.272 37.28L141.737 36.3946L140.272 35.6256V37.28H141.272ZM141.272 48V49H142.272V48H141.272ZM139.272 48H138.272V49H139.272V48ZM139.272 19.88H140.272V19.4521L139.962 19.1566L139.272 19.88ZM138.392 19.04L137.675 18.3429L136.971 19.0665L137.701 19.7634L138.392 19.04ZM139.792 17.6L140.487 16.8814L139.77 16.1876L139.075 16.9029L139.792 17.6ZM141.032 18.8L140.336 19.5186L140.845 20.0112L141.479 19.6944L141.032 18.8ZM143.672 17.88L143.856 18.8629L143.871 18.8601L143.886 18.8569L143.672 17.88ZM147.952 18.04L147.535 18.9491L147.535 18.9491L147.952 18.04ZM149.632 19.24L148.906 19.9277L148.906 19.9277L149.632 19.24ZM150.752 21.04L149.819 21.399L149.824 21.4144L149.831 21.4296L150.752 21.04ZM150.752 34.96L149.831 34.5704L149.827 34.5794L149.823 34.5886L150.752 34.96ZM149.632 36.76L150.358 37.4477L150.367 37.4385L150.375 37.429L149.632 36.76ZM147.952 37.96L147.535 37.0509L147.535 37.0509L147.952 37.96ZM144.032 38.24L144.169 37.2494L144.152 37.2471L144.135 37.2453L144.032 38.24ZM140.757 35.7921C141.151 36.0548 141.595 36.2743 142.081 36.4563L142.783 34.5837C142.415 34.4457 142.113 34.2919 141.867 34.1279L140.757 35.7921ZM142.081 36.4563C142.525 36.6227 142.969 36.7755 143.414 36.9145L144.01 35.0055C143.602 34.8778 143.193 34.7373 142.783 34.5837L142.081 36.4563ZM143.414 36.9145C143.865 37.0554 144.295 37.1704 144.702 37.2578L145.121 35.3022C144.783 35.2296 144.412 35.1312 144.01 35.0055L143.414 36.9145ZM144.78 37.2712C145.198 37.327 145.568 37.36 145.872 37.36V35.36C145.696 35.36 145.425 35.3396 145.044 35.2888L144.78 37.2712ZM145.872 37.36C147.074 37.36 148.123 36.9178 148.953 36.0525L147.51 34.6675C147.061 35.1355 146.536 35.36 145.872 35.36V37.36ZM148.967 36.0383C149.78 35.1567 150.192 34.0865 150.192 32.88H148.192C148.192 33.5935 147.963 34.1766 147.497 34.6817L148.967 36.0383ZM150.192 32.88V23.08H148.192V32.88H150.192ZM150.192 23.08C150.192 22.4668 150.072 21.8808 149.818 21.3371L148.006 22.1829C148.125 22.4392 148.192 22.7332 148.192 23.08H150.192ZM149.848 21.4089C149.643 20.8618 149.343 20.3767 148.939 19.9729L147.525 21.3871C147.708 21.5699 147.861 21.8048 147.976 22.1111L149.848 21.4089ZM148.969 20.0043C148.586 19.5859 148.132 19.255 147.615 19.0138L146.769 20.8262C147.052 20.9583 147.292 21.1341 147.495 21.3557L148.969 20.0043ZM147.615 19.0138C147.079 18.7637 146.507 18.64 145.912 18.64V20.64C146.223 20.64 146.505 20.703 146.769 20.8262L147.615 19.0138ZM145.912 18.64C145.606 18.64 145.247 18.6733 144.85 18.73L145.133 20.7099C145.483 20.66 145.738 20.64 145.912 20.64V18.64ZM144.921 18.7225C144.457 18.7557 143.98 18.8534 143.494 19.0055L144.09 20.9145C144.457 20.7999 144.78 20.7377 145.063 20.7175L144.921 18.7225ZM143.534 18.9938C143.08 19.115 142.618 19.2794 142.151 19.4838L142.953 21.3162C143.339 21.1473 143.704 21.0184 144.05 20.9262L143.534 18.9938ZM142.151 19.4838C141.669 19.6947 141.204 19.9498 140.757 20.2479L141.867 21.912C142.219 21.6768 142.581 21.4786 142.953 21.3162L142.151 19.4838ZM140.312 21.08V34.96H142.312V21.08H140.312ZM140.272 37.28V48H142.272V37.28H140.272ZM141.272 47H139.272V49H141.272V47ZM140.272 48V19.88H138.272V48H140.272ZM139.962 19.1566L139.082 18.3166L137.701 19.7634L138.581 20.6034L139.962 19.1566ZM139.109 19.7371L140.509 18.2971L139.075 16.9029L137.675 18.3429L139.109 19.7371ZM139.096 18.3186L140.336 19.5186L141.727 18.0814L140.487 16.8814L139.096 18.3186ZM141.479 19.6944C142.316 19.2759 143.108 19.0032 143.856 18.8629L143.488 16.8971C142.529 17.0768 141.561 17.4175 140.585 17.9056L141.479 19.6944ZM143.886 18.8569C144.696 18.6797 145.354 18.6 145.872 18.6V16.6C145.164 16.6 144.355 16.707 143.458 16.9031L143.886 18.8569ZM145.872 18.6C146.484 18.6 147.034 18.7192 147.535 18.9491L148.369 17.1309C147.59 16.7741 146.753 16.6 145.872 16.6V18.6ZM147.535 18.9491C148.06 19.1896 148.515 19.5148 148.906 19.9277L150.358 18.5523C149.789 17.9519 149.124 17.4771 148.369 17.1309L147.535 18.9491ZM148.906 19.9277C149.29 20.3334 149.596 20.8198 149.819 21.399L151.685 20.681C151.375 19.8735 150.933 19.1599 150.358 18.5523L148.906 19.9277ZM149.831 21.4296C150.071 21.9963 150.192 22.5968 150.192 23.24H152.192C152.192 22.3365 152.02 21.4704 151.673 20.6504L149.831 21.4296ZM150.192 23.24V32.76H152.192V23.24H150.192ZM150.192 32.76C150.192 33.4032 150.071 34.0037 149.831 34.5704L151.673 35.3496C152.02 34.5296 152.192 33.6635 152.192 32.76H150.192ZM149.823 34.5886C149.6 35.146 149.29 35.6453 148.889 36.091L150.375 37.429C150.934 36.8081 151.37 36.1073 151.68 35.3314L149.823 34.5886ZM148.906 36.0723C148.515 36.4852 148.06 36.8104 147.535 37.0509L148.369 38.8691C149.124 38.5229 149.789 38.0481 150.358 37.4477L148.906 36.0723ZM147.535 37.0509C147.034 37.2808 146.484 37.4 145.872 37.4V39.4C146.753 39.4 147.59 39.2259 148.369 38.8691L147.535 37.0509ZM145.872 37.4C145.485 37.4 144.924 37.3536 144.169 37.2494L143.895 39.2306C144.687 39.3398 145.352 39.4 145.872 39.4V37.4ZM144.135 37.2453C143.538 37.1836 142.746 36.9245 141.737 36.3946L140.807 38.1654C141.931 38.7555 142.979 39.1364 143.929 39.2347L144.135 37.2453Z" fill="black"/>
<line y1="-1.5" x2="165.519" y2="-1.5" transform="matrix(0.999987 -0.00504483 0.00880945 0.999961 1 54.2727)" stroke="black" stroke-width="3"/>
<line x1="164.983" y1="51" x2="164.983" y2="63.3" stroke="black" stroke-width="3"/>
<line x1="180.5" y1="61" x2="180.5" y2="73.3" stroke="black" stroke-width="3"/>
<line x1="164" y1="62.5" x2="180.588" y2="62.5" stroke="black" stroke-width="3"/>
<path d="M179 73H195.588" stroke="black" stroke-width="3"/>
<path d="M986.931 349.5C985.276 315.833 955.703 247.4 850.655 243C745.607 238.6 418.839 222.5 268.586 215C206.609 215 83.4276 182.7 86.5173 53.5" stroke="black" stroke-width="3"/>
<path d="M986.293 351.707C986.683 352.098 987.317 352.098 987.707 351.707L994.071 345.343C994.462 344.953 994.462 344.319 994.071 343.929C993.681 343.538 993.047 343.538 992.657 343.929L987 349.586L981.343 343.929C980.953 343.538 980.319 343.538 979.929 343.929C979.538 344.319 979.538 344.953 979.929 345.343L986.293 351.707ZM986 345V351H988V345H986Z" fill="black"/>
</svg>
