<svg width="253" height="356" viewBox="0 0 253 356" fill="none" xmlns="http://www.w3.org/2000/svg">
<path d="M251 0.5C250.646 61.5651 225.154 184.334 126.02 186.891C26.8852 189.447 8.23852 297.541 11.307 351.269" stroke="black" stroke-width="3"/>
<path d="M12.3676 355.525C11.7818 356.111 10.8321 356.111 10.2463 355.525L0.700344 345.979C0.114558 345.393 0.114558 344.444 0.700344 343.858C1.28613 343.272 2.23588 343.272 2.82166 343.858L11.3069 352.343L19.7922 343.858C20.378 343.272 21.3278 343.272 21.9135 343.858C22.4993 344.444 22.4993 345.393 21.9135 345.979L12.3676 355.525ZM12.8069 350.914V354.464H9.80695V350.914H12.8069Z" fill="black"/>
</svg>
