<svg width="220" height="472" viewBox="0 0 220 472" fill="none" xmlns="http://www.w3.org/2000/svg">
<path d="M131 0.5C132.2 67.7 95.1667 112.833 76.5 127C52.3333 153.333 31.7 208 142.5 216C253.3 224 217.333 295 185.5 329.5C172.167 345.5 137.3 369.6 104.5 338C63.5 298.5 7.5 288 2.5 329.5C-1.5 362.7 50.1667 398.333 76.5 412C85.8333 415.333 105 429.4 105 461" stroke="black" stroke-width="3"/>
<path d="M103.939 471.061C104.525 471.646 105.475 471.646 106.061 471.061L115.607 461.515C116.192 460.929 116.192 459.979 115.607 459.393C115.021 458.808 114.071 458.808 113.485 459.393L105 467.879L96.5147 459.393C95.9289 458.808 94.9792 458.808 94.3934 459.393C93.8076 459.979 93.8076 460.929 94.3934 461.515L103.939 471.061ZM103.5 461V470H106.5V461H103.5Z" fill="black"/>
</svg>
