<svg width="995" height="352" viewBox="0 0 995 352" fill="none" xmlns="http://www.w3.org/2000/svg">
<path d="M27.4 10V12.28H18.4V22.8H25.44V25.08H18.4V38H16.12V10H27.4ZM30.9897 10H33.1097V13.12H30.9897V10ZM30.9897 18H33.1097V38H30.9897V18ZM48.5763 19.2L47.4563 20.88C47.0029 20.6133 46.6296 20.4133 46.3363 20.28C46.0429 20.12 45.7629 20 45.4963 19.92C45.2563 19.84 45.0163 19.8 44.7763 19.8C44.5629 19.7733 44.3229 19.76 44.0563 19.76C43.6563 19.76 43.1096 19.88 42.4163 20.12C41.7229 20.3333 41.0296 20.76 40.3363 21.4V37.96H38.3363V20.28L37.2963 19.24L38.6963 17.8L40.0963 19.16C40.8696 18.4667 41.6029 18.04 42.2963 17.88C43.0163 17.6933 43.6296 17.6 44.1363 17.6C44.6696 17.6 45.2563 17.7067 45.8963 17.92C46.5363 18.1333 47.4296 18.56 48.5763 19.2ZM62.2994 32.48C62.2994 34.4533 61.806 35.9333 60.8194 36.92C59.8327 37.9067 58.566 38.4 57.0194 38.4C56.5394 38.4 56.046 38.36 55.5394 38.28C55.0327 38.2 54.526 38.0533 54.0194 37.84L50.6994 36.52L51.4994 34.76L54.7794 36.08C55.1794 36.24 55.566 36.36 55.9394 36.44C56.3394 36.4933 56.7127 36.52 57.0594 36.52C57.9927 36.52 58.7794 36.16 59.4194 35.44C60.0594 34.72 60.3794 33.68 60.3794 32.32C60.3794 31.76 60.2594 31.28 60.0194 30.88C59.806 30.48 59.526 30.16 59.1794 29.92C58.8594 29.6533 58.486 29.4667 58.0594 29.36C57.6594 29.2267 57.286 29.16 56.9394 29.16C55.9794 29.16 55.1127 29.08 54.3394 28.92C53.566 28.7333 52.8994 28.4267 52.3394 28C51.806 27.5467 51.3927 26.96 51.0994 26.24C50.806 25.52 50.6594 24.6133 50.6594 23.52C50.6594 21.5733 51.1794 20.1067 52.2194 19.12C53.286 18.1067 54.5927 17.6 56.1394 17.6C56.5927 17.6 57.0594 17.6667 57.5394 17.8C58.046 17.9067 58.566 18.0533 59.0994 18.24L60.4194 18.72L59.6594 20.44C59.0194 20.2 58.4994 20.0267 58.0994 19.92C57.726 19.7867 57.4194 19.6933 57.1794 19.64C56.966 19.5867 56.7927 19.56 56.6594 19.56C56.5527 19.5333 56.4327 19.52 56.2994 19.52H56.0994C55.166 19.52 54.3394 19.8933 53.6194 20.64C52.926 21.36 52.5794 22.3867 52.5794 23.72C52.5794 24.28 52.6994 24.7733 52.9394 25.2C53.1794 25.6267 53.486 26 53.8594 26.32C54.2327 26.6133 54.6194 26.84 55.0194 27C55.446 27.1333 55.846 27.2 56.2194 27.2C57.046 27.2 57.8327 27.28 58.5794 27.44C59.326 27.5733 59.966 27.84 60.4994 28.24C61.0594 28.6133 61.4994 29.1467 61.8194 29.84C62.1394 30.5333 62.2994 31.4133 62.2994 32.48ZM67.4725 32.8V19.96H64.0725V17.96H67.4725V10H69.5925V17.96H73.2725V19.96H69.5925V33C69.5925 34.0933 69.8592 34.8533 70.3925 35.28C70.9525 35.68 71.6192 35.88 72.3925 35.88H73.2725V38.04H72.1925C71.5258 38.04 70.8992 37.9467 70.3125 37.76C69.7525 37.5467 69.2592 37.24 68.8325 36.84C68.4058 36.4133 68.0725 35.8667 67.8325 35.2C67.5925 34.5333 67.4725 33.7333 67.4725 32.8ZM108.373 29.8C108.373 30.92 108.173 31.9733 107.773 32.96C107.4 33.9467 106.867 34.8133 106.173 35.56C105.507 36.28 104.707 36.8667 103.773 37.32C102.84 37.7467 101.84 37.96 100.773 37.96C99.7334 37.96 98.7201 37.8267 97.7334 37.56C96.7468 37.2933 95.8668 37 95.0934 36.68C94.1868 36.3067 93.3201 35.8667 92.4934 35.36L93.2934 33.16C94.2001 33.64 95.0934 34.0533 95.9734 34.4C96.7468 34.6933 97.5601 34.9733 98.4134 35.24C99.2668 35.48 100.04 35.6 100.733 35.6C101.48 35.6 102.173 35.4533 102.813 35.16C103.48 34.8667 104.053 34.4667 104.533 33.96C105.013 33.4267 105.387 32.8133 105.653 32.12C105.92 31.4267 106.053 30.68 106.053 29.88C106.053 29.0533 105.867 28.3733 105.493 27.84C105.12 27.28 104.64 26.8267 104.053 26.48C103.493 26.1067 102.867 25.8267 102.173 25.64C101.48 25.4267 100.8 25.2667 100.133 25.16C99.1468 25 98.2134 24.72 97.3334 24.32C96.4801 23.92 95.7201 23.4 95.0534 22.76C94.4134 22.12 93.9068 21.3733 93.5334 20.52C93.1601 19.6667 92.9734 18.7067 92.9734 17.64C92.9734 16.5467 93.1601 15.52 93.5334 14.56C93.9334 13.5733 94.4668 12.72 95.1334 12C95.8268 11.2533 96.6268 10.6667 97.5334 10.24C98.4401 9.81333 99.4001 9.6 100.413 9.6C101.053 9.6 101.707 9.68 102.373 9.84C103.067 9.97333 103.707 10.12 104.293 10.28C104.96 10.4933 105.613 10.72 106.253 10.96L105.493 13.2C104.907 12.96 104.307 12.7467 103.693 12.56C103.16 12.4 102.6 12.2533 102.013 12.12C101.427 11.9867 100.867 11.92 100.333 11.92C99.6134 11.92 98.9334 12.08 98.2934 12.4C97.6801 12.6933 97.1468 13.1067 96.6934 13.64C96.2401 14.1467 95.8801 14.7467 95.6134 15.44C95.3468 16.1067 95.2134 16.8 95.2134 17.52C95.2134 18.3467 95.3734 19.08 95.6934 19.72C96.0401 20.3333 96.4668 20.8533 96.9734 21.28C97.5068 21.7067 98.0934 22.0533 98.7334 22.32C99.3734 22.56 99.9868 22.7333 100.573 22.84C101.667 23.0267 102.68 23.2933 103.613 23.64C104.573 23.9867 105.4 24.44 106.093 25C106.813 25.5333 107.373 26.2 107.773 27C108.173 27.8 108.373 28.7333 108.373 29.8ZM113.176 32.8V19.96H109.776V17.96H113.176V10H115.296V17.96H118.976V19.96H115.296V33C115.296 34.0933 115.562 34.8533 116.096 35.28C116.656 35.68 117.322 35.88 118.096 35.88H118.976V38.04H117.896C117.229 38.04 116.602 37.9467 116.016 37.76C115.456 37.5467 114.962 37.24 114.536 36.84C114.109 36.4133 113.776 35.8667 113.536 35.2C113.296 34.5333 113.176 33.7333 113.176 32.8ZM128.68 28.36H128.76C129.24 28.36 129.68 28.2667 130.08 28.08C130.48 27.8667 130.826 27.6 131.12 27.28C131.413 26.9333 131.64 26.5467 131.8 26.12C131.986 25.6933 132.08 25.24 132.08 24.76V23.08C132.08 22.44 131.96 21.9067 131.72 21.48C131.48 21.0267 131.16 20.6667 130.76 20.4C130.386 20.1333 129.933 19.9467 129.4 19.84C128.893 19.7067 128.36 19.64 127.8 19.64C127.293 19.64 126.8 19.72 126.32 19.88C125.866 20.04 125.466 20.2667 125.12 20.56C124.773 20.8533 124.493 21.2133 124.28 21.64C124.066 22.0667 123.96 22.5467 123.96 23.08V28.32L128.68 28.36ZM121.88 23.28C121.88 22.48 122.013 21.7333 122.28 21.04C122.573 20.3467 122.96 19.7467 123.44 19.24C123.946 18.7333 124.52 18.3333 125.16 18.04C125.826 17.7467 126.546 17.6 127.32 17.6H128.68C129.426 17.6 130.133 17.7467 130.8 18.04C131.466 18.3333 132.053 18.7333 132.56 19.24C133.066 19.7467 133.453 20.3467 133.72 21.04C134.013 21.7333 134.16 22.48 134.16 23.28V24.6C134.16 25.72 133.96 26.6667 133.56 27.44C133.16 28.1867 132.613 28.8 131.92 29.28C131.226 29.76 130.413 30.1067 129.48 30.32C128.573 30.5067 127.6 30.6 126.56 30.6C126.133 30.6 125.706 30.5867 125.28 30.56C124.853 30.5333 124.413 30.4933 123.96 30.44V32.84C124.146 33.9067 124.64 34.76 125.44 35.4C126.266 36.0133 127.2 36.32 128.24 36.32C128.346 36.32 128.68 36.2667 129.24 36.16C129.826 36.0267 130.44 35.8933 131.08 35.76C131.826 35.6 132.653 35.4133 133.56 35.2L134.04 37.32C133.053 37.5333 132.16 37.7067 131.36 37.84C130.666 37.9733 130 38.0933 129.36 38.2C128.746 38.3067 128.373 38.36 128.24 38.36C127.386 38.36 126.573 38.2133 125.8 37.92C125.026 37.6 124.346 37.16 123.76 36.6C123.173 36.04 122.706 35.3867 122.36 34.64C122.04 33.8667 121.88 33.0267 121.88 32.12V23.28ZM140.609 34.96C140.929 35.1733 141.302 35.36 141.729 35.52C142.155 35.68 142.582 35.8267 143.009 35.96C143.435 36.0933 143.835 36.2 144.209 36.28C144.609 36.3333 144.929 36.36 145.169 36.36C146.102 36.36 146.889 36.0267 147.529 35.36C148.169 34.6667 148.489 33.84 148.489 32.88V23.08C148.489 22.6 148.395 22.16 148.209 21.76C148.049 21.3333 147.822 20.9733 147.529 20.68C147.235 20.36 146.889 20.1067 146.489 19.92C146.089 19.7333 145.662 19.64 145.209 19.64C144.969 19.64 144.662 19.6667 144.289 19.72C143.915 19.7467 143.515 19.8267 143.089 19.96C142.689 20.0667 142.275 20.2133 141.849 20.4C141.422 20.5867 141.009 20.8133 140.609 21.08V34.96ZM140.569 37.28V48H138.569V19.88L137.689 19.04L139.089 17.6L140.329 18.8C141.235 18.3467 142.115 18.04 142.969 17.88C143.822 17.6933 144.555 17.6 145.169 17.6C145.915 17.6 146.609 17.7467 147.249 18.04C147.889 18.3333 148.449 18.7333 148.929 19.24C149.409 19.7467 149.782 20.3467 150.049 21.04C150.342 21.7333 150.489 22.4667 150.489 23.24V32.76C150.489 33.5333 150.342 34.2667 150.049 34.96C149.782 35.6267 149.409 36.2267 148.929 36.76C148.449 37.2667 147.889 37.6667 147.249 37.96C146.609 38.2533 145.915 38.4 145.169 38.4C144.715 38.4 144.102 38.3467 143.329 38.24C142.555 38.16 141.635 37.84 140.569 37.28Z" fill="black"/>
<path d="M27.4 10H28.4V9H27.4V10ZM27.4 12.28V13.28H28.4V12.28H27.4ZM18.4 12.28V11.28H17.4V12.28H18.4ZM18.4 22.8H17.4V23.8H18.4V22.8ZM25.44 22.8H26.44V21.8H25.44V22.8ZM25.44 25.08V26.08H26.44V25.08H25.44ZM18.4 25.08V24.08H17.4V25.08H18.4ZM18.4 38V39H19.4V38H18.4ZM16.12 38H15.12V39H16.12V38ZM16.12 10V9H15.12V10H16.12ZM26.4 10V12.28H28.4V10H26.4ZM27.4 11.28H18.4V13.28H27.4V11.28ZM17.4 12.28V22.8H19.4V12.28H17.4ZM18.4 23.8H25.44V21.8H18.4V23.8ZM24.44 22.8V25.08H26.44V22.8H24.44ZM25.44 24.08H18.4V26.08H25.44V24.08ZM17.4 25.08V38H19.4V25.08H17.4ZM18.4 37H16.12V39H18.4V37ZM17.12 38V10H15.12V38H17.12ZM16.12 11H27.4V9H16.12V11ZM30.9897 10V9H29.9897V10H30.9897ZM33.1097 10H34.1097V9H33.1097V10ZM33.1097 13.12V14.12H34.1097V13.12H33.1097ZM30.9897 13.12H29.9897V14.12H30.9897V13.12ZM30.9897 18V17H29.9897V18H30.9897ZM33.1097 18H34.1097V17H33.1097V18ZM33.1097 38V39H34.1097V38H33.1097ZM30.9897 38H29.9897V39H30.9897V38ZM30.9897 11H33.1097V9H30.9897V11ZM32.1097 10V13.12H34.1097V10H32.1097ZM33.1097 12.12H30.9897V14.12H33.1097V12.12ZM31.9897 13.12V10H29.9897V13.12H31.9897ZM30.9897 19H33.1097V17H30.9897V19ZM32.1097 18V38H34.1097V18H32.1097ZM33.1097 37H30.9897V39H33.1097V37ZM31.9897 38V18H29.9897V38H31.9897ZM48.5763 19.2L49.4083 19.7547L50.0086 18.8542L49.0636 18.3268L48.5763 19.2ZM47.4563 20.88L46.9492 21.7419L47.764 22.2212L48.2883 21.4347L47.4563 20.88ZM46.3363 20.28L45.8574 21.1579L45.8893 21.1753L45.9224 21.1904L46.3363 20.28ZM45.4963 19.92L45.18 20.8687L45.1944 20.8735L45.2089 20.8778L45.4963 19.92ZM44.7763 19.8L44.6522 20.7923L44.714 20.8H44.7763V19.8ZM42.4163 20.12L42.7103 21.0758L42.7269 21.0707L42.7434 21.065L42.4163 20.12ZM40.3363 21.4L39.658 20.6652L39.3363 20.9622V21.4H40.3363ZM40.3363 37.96V38.96H41.3363V37.96H40.3363ZM38.3363 37.96H37.3363V38.96H38.3363V37.96ZM38.3363 20.28H39.3363V19.8658L39.0434 19.5729L38.3363 20.28ZM37.2963 19.24L36.5793 18.5429L35.8919 19.2499L36.5891 19.9471L37.2963 19.24ZM38.6963 17.8L39.393 17.0827L38.676 16.3862L37.9793 17.1029L38.6963 17.8ZM40.0963 19.16L39.3995 19.8773L40.0689 20.5276L40.7638 19.9046L40.0963 19.16ZM42.2963 17.88L42.5211 18.8544L42.5342 18.8514L42.5472 18.848L42.2963 17.88ZM45.8963 17.92L46.2125 16.9713L46.2125 16.9713L45.8963 17.92ZM47.7442 18.6453L46.6242 20.3253L48.2883 21.4347L49.4083 19.7547L47.7442 18.6453ZM47.9633 20.0181C47.496 19.7432 47.0888 19.5236 46.7501 19.3696L45.9224 21.1904C46.1704 21.3031 46.5098 21.4835 46.9492 21.7419L47.9633 20.0181ZM46.8151 19.4021C46.4726 19.2153 46.1283 19.0656 45.7836 18.9622L45.2089 20.8778C45.3975 20.9344 45.6133 21.0247 45.8574 21.1579L46.8151 19.4021ZM45.8125 18.9713C45.4761 18.8592 45.1294 18.8 44.7763 18.8V20.8C44.9031 20.8 45.0364 20.8208 45.18 20.8687L45.8125 18.9713ZM44.9003 18.8077C44.6374 18.7749 44.355 18.76 44.0563 18.76V20.76C44.2909 20.76 44.4884 20.7718 44.6522 20.7923L44.9003 18.8077ZM44.0563 18.76C43.4879 18.76 42.8152 18.9237 42.0891 19.175L42.7434 21.065C43.4039 20.8363 43.8246 20.76 44.0563 20.76V18.76ZM42.1222 19.1642C41.2496 19.4327 40.4294 19.9531 39.658 20.6652L41.0145 22.1348C41.6297 21.5669 42.1963 21.234 42.7103 21.0758L42.1222 19.1642ZM39.3363 21.4V37.96H41.3363V21.4H39.3363ZM40.3363 36.96H38.3363V38.96H40.3363V36.96ZM39.3363 37.96V20.28H37.3363V37.96H39.3363ZM39.0434 19.5729L38.0034 18.5329L36.5891 19.9471L37.6291 20.9871L39.0434 19.5729ZM38.0132 19.9371L39.4132 18.4971L37.9793 17.1029L36.5793 18.5429L38.0132 19.9371ZM37.9995 18.5173L39.3995 19.8773L40.793 18.4427L39.393 17.0827L37.9995 18.5173ZM40.7638 19.9046C41.4652 19.2757 42.0509 18.9629 42.5211 18.8544L42.0714 16.9056C41.155 17.1171 40.2739 17.6576 39.4287 18.4154L40.7638 19.9046ZM42.5472 18.848C43.2197 18.6736 43.7437 18.6 44.1363 18.6V16.6C43.5155 16.6 42.8128 16.713 42.0453 16.912L42.5472 18.848ZM44.1363 18.6C44.538 18.6 45.0162 18.6808 45.58 18.8687L46.2125 16.9713C45.4963 16.7326 44.8012 16.6 44.1363 16.6V18.6ZM45.58 18.8687C46.1286 19.0515 46.9558 19.4408 48.0889 20.0732L49.0636 18.3268C47.9033 17.6792 46.9439 17.2151 46.2125 16.9713L45.58 18.8687ZM60.8194 36.92L61.5265 37.6271L61.5265 37.6271L60.8194 36.92ZM55.5394 38.28L55.6953 37.2922L55.6953 37.2922L55.5394 38.28ZM54.0194 37.84L54.4074 36.9184L54.3982 36.9145L54.3888 36.9108L54.0194 37.84ZM50.6994 36.52L49.789 36.1062L49.3548 37.0615L50.3299 37.4492L50.6994 36.52ZM51.4994 34.76L51.8727 33.8323L50.985 33.475L50.589 34.3462L51.4994 34.76ZM54.7794 36.08L54.406 37.0077L54.408 37.0085L54.7794 36.08ZM55.9394 36.44L55.7298 37.4178L55.7683 37.426L55.8072 37.4312L55.9394 36.44ZM59.4194 35.44L58.672 34.7756L58.672 34.7756L59.4194 35.44ZM60.0194 30.88L59.137 31.3506L59.1489 31.3729L59.1619 31.3945L60.0194 30.88ZM59.1794 29.92L58.5392 30.6882L58.5735 30.7168L58.6102 30.7422L59.1794 29.92ZM58.0594 29.36L57.7431 30.3087L57.7796 30.3208L57.8168 30.3301L58.0594 29.36ZM54.3394 28.92L54.1047 29.8921L54.1207 29.8959L54.1368 29.8993L54.3394 28.92ZM52.3394 28L51.6917 28.7619L51.7121 28.7792L51.7333 28.7954L52.3394 28ZM51.0994 26.24L50.1733 26.6173L50.1733 26.6173L51.0994 26.24ZM52.2194 19.12L52.9076 19.8455L52.9081 19.845L52.2194 19.12ZM57.5394 17.8L57.2717 18.7635L57.3023 18.772L57.3334 18.7786L57.5394 17.8ZM59.0994 18.24L59.4411 17.3001L59.4297 17.2961L59.0994 18.24ZM60.4194 18.72L61.3341 19.1242L61.7664 18.1458L60.7611 17.7802L60.4194 18.72ZM59.6594 20.44L59.3083 21.3763L60.1924 21.7079L60.5741 20.8442L59.6594 20.44ZM58.0994 19.92L57.763 20.8617L57.8019 20.8756L57.8417 20.8862L58.0994 19.92ZM57.1794 19.64L56.9368 20.6101L56.9496 20.6133L56.9624 20.6162L57.1794 19.64ZM56.6594 19.56L56.4168 20.5301L56.5363 20.56H56.6594V19.56ZM53.6194 20.64L52.8995 19.9459L52.8991 19.9464L53.6194 20.64ZM53.8594 26.32L53.2086 27.0793L53.2248 27.0931L53.2416 27.1063L53.8594 26.32ZM55.0194 27L54.648 27.9285L54.684 27.9429L54.7211 27.9545L55.0194 27ZM58.5794 27.44L58.3698 28.4178L58.3867 28.4214L58.4036 28.4244L58.5794 27.44ZM60.4994 28.24L59.8994 29.04L59.9216 29.0567L59.9447 29.072L60.4994 28.24ZM61.8194 29.84L60.9114 30.2591L60.9114 30.2591L61.8194 29.84ZM61.2994 32.48C61.2994 34.2992 60.8453 35.4799 60.1123 36.2129L61.5265 37.6271C62.7668 36.3868 63.2994 34.6075 63.2994 32.48H61.2994ZM60.1123 36.2129C59.3343 36.9908 58.3324 37.4 57.0194 37.4V39.4C58.7997 39.4 60.3311 38.8225 61.5265 37.6271L60.1123 36.2129ZM57.0194 37.4C56.595 37.4 56.1539 37.3646 55.6953 37.2922L55.3834 39.2678C55.9382 39.3554 56.4837 39.4 57.0194 39.4V37.4ZM55.6953 37.2922C55.2739 37.2257 54.845 37.1026 54.4074 36.9184L53.6313 38.7616C54.2071 39.0041 54.7915 39.1743 55.3834 39.2678L55.6953 37.2922ZM54.3888 36.9108L51.0688 35.5908L50.3299 37.4492L53.6499 38.7692L54.3888 36.9108ZM51.6097 36.9338L52.4097 35.1738L50.589 34.3462L49.789 36.1062L51.6097 36.9338ZM51.126 35.6877L54.406 37.0077L55.1527 35.1523L51.8727 33.8323L51.126 35.6877ZM54.408 37.0085C54.8539 37.1868 55.2948 37.3246 55.7298 37.4178L56.1489 35.4622C55.8373 35.3954 55.5049 35.2932 55.1508 35.1515L54.408 37.0085ZM55.8072 37.4312C56.2441 37.4895 56.662 37.52 57.0594 37.52V35.52C56.7634 35.52 56.4346 35.4972 56.0715 35.4488L55.8072 37.4312ZM57.0594 37.52C58.2886 37.52 59.344 37.03 60.1668 36.1044L58.672 34.7756C58.2148 35.29 57.6968 35.52 57.0594 35.52V37.52ZM60.1668 36.1044C61.0256 35.1381 61.3794 33.8246 61.3794 32.32H59.3794C59.3794 33.5354 59.0931 34.3019 58.672 34.7756L60.1668 36.1044ZM61.3794 32.32C61.3794 31.6153 61.2273 30.9495 60.8769 30.3655L59.1619 31.3945C59.2915 31.6105 59.3794 31.9047 59.3794 32.32H61.3794ZM60.9017 30.4094C60.6193 29.8798 60.2358 29.4351 59.7486 29.0978L58.6102 30.7422C58.8162 30.8849 58.9928 31.0802 59.137 31.3506L60.9017 30.4094ZM59.8196 29.1518C59.3775 28.7834 58.8663 28.531 58.3019 28.3899L57.8168 30.3301C58.1058 30.4024 58.3413 30.5233 58.5392 30.6882L59.8196 29.1518ZM58.3756 28.4113C57.8949 28.2511 57.4139 28.16 56.9394 28.16V30.16C57.1582 30.16 57.4238 30.2022 57.7431 30.3087L58.3756 28.4113ZM56.9394 28.16C56.0334 28.16 55.2362 28.0844 54.542 27.9407L54.1368 29.8993C54.9892 30.0756 55.9253 30.16 56.9394 30.16V28.16ZM54.574 27.9479C53.9179 27.7895 53.3817 27.537 52.9454 27.2046L51.7333 28.7954C52.417 29.3163 53.2142 29.6771 54.1047 29.8921L54.574 27.9479ZM52.987 27.2381C52.5891 26.8998 52.265 26.4507 52.0255 25.8627L50.1733 26.6173C50.5204 27.4693 51.023 28.1935 51.6917 28.7619L52.987 27.2381ZM52.0255 25.8627C51.7965 25.3006 51.6594 24.5327 51.6594 23.52H49.6594C49.6594 24.694 49.8156 25.7394 50.1733 26.6173L52.0255 25.8627ZM51.6594 23.52C51.6594 21.7461 52.13 20.5832 52.9076 19.8455L51.5311 18.3945C50.2288 19.6301 49.6594 21.4006 49.6594 23.52H51.6594ZM52.9081 19.845C53.7787 19.018 54.8346 18.6 56.1394 18.6V16.6C54.3509 16.6 52.7934 17.1954 51.5306 18.395L52.9081 19.845ZM56.1394 18.6C56.4938 18.6 56.8704 18.652 57.2717 18.7635L57.807 16.8365C57.2484 16.6813 56.6916 16.6 56.1394 16.6V18.6ZM57.3334 18.7786C57.7943 18.8756 58.2727 19.0101 58.769 19.1839L59.4297 17.2961C58.8594 17.0965 58.2978 16.9377 57.7454 16.8214L57.3334 18.7786ZM58.7576 19.1798L60.0776 19.6598L60.7611 17.7802L59.4411 17.3002L58.7576 19.1798ZM59.5047 18.3158L58.7447 20.0358L60.5741 20.8442L61.3341 19.1242L59.5047 18.3158ZM60.0105 19.5037C59.3568 19.2585 58.8023 19.0725 58.357 18.9538L57.8417 20.8862C58.1964 20.9808 58.682 21.1415 59.3083 21.3763L60.0105 19.5037ZM58.4357 18.9783C58.0438 18.8383 57.6936 18.7299 57.3963 18.6638L56.9624 20.6162C57.1452 20.6568 57.4082 20.735 57.763 20.8617L58.4357 18.9783ZM57.4219 18.6699C57.1734 18.6077 56.91 18.56 56.6594 18.56V20.56C56.6594 20.56 56.6594 20.56 56.6594 20.56C56.6594 20.56 56.6594 20.56 56.6594 20.56C56.6594 20.56 56.6594 20.56 56.6595 20.56C56.6595 20.56 56.6596 20.56 56.6597 20.56C56.66 20.56 56.6603 20.56 56.6608 20.56C56.6617 20.56 56.663 20.5601 56.6648 20.5602C56.6684 20.5603 56.6735 20.5607 56.6802 20.5612C56.6939 20.5624 56.7128 20.5646 56.7373 20.5684C56.7871 20.576 56.8529 20.5892 56.9368 20.6101L57.4219 18.6699ZM56.9019 18.5899C56.7012 18.5397 56.4978 18.52 56.2994 18.52V20.52C56.3676 20.52 56.4042 20.527 56.4168 20.5301L56.9019 18.5899ZM56.2994 18.52H56.0994V20.52H56.2994V18.52ZM56.0994 18.52C54.8629 18.52 53.7849 19.0277 52.8995 19.9459L54.3392 21.3341C54.8939 20.7589 55.4692 20.52 56.0994 20.52V18.52ZM52.8991 19.9464C51.973 20.9081 51.5794 22.2167 51.5794 23.72H53.5794C53.5794 22.5566 53.8791 21.8119 54.3397 21.3336L52.8991 19.9464ZM51.5794 23.72C51.5794 24.4267 51.7321 25.0935 52.0678 25.6903L53.811 24.7097C53.6666 24.4532 53.5794 24.1333 53.5794 23.72H51.5794ZM52.0678 25.6903C52.3654 26.2193 52.7469 26.6835 53.2086 27.0793L54.5102 25.5607C54.2252 25.3165 53.9934 25.0341 53.811 24.7097L52.0678 25.6903ZM53.2416 27.1063C53.6823 27.4526 54.151 27.7297 54.648 27.9285L55.3908 26.0715C55.0878 25.9503 54.7832 25.7741 54.4772 25.5337L53.2416 27.1063ZM54.7211 27.9545C55.2259 28.1122 55.7272 28.2 56.2194 28.2V26.2C55.9649 26.2 55.6662 26.1544 55.3177 26.0455L54.7211 27.9545ZM56.2194 28.2C56.9814 28.2 57.6974 28.2737 58.3698 28.4178L58.7889 26.4622C57.968 26.2863 57.1107 26.2 56.2194 26.2V28.2ZM58.4036 28.4244C59.0177 28.5341 59.5073 28.746 59.8994 29.04L61.0994 27.44C60.4247 26.934 59.6344 26.6126 58.7552 26.4556L58.4036 28.4244ZM59.9447 29.072C60.3312 29.3297 60.6581 29.7103 60.9114 30.2591L62.7273 29.4209C62.3406 28.5831 61.7876 27.8969 61.0541 27.4079L59.9447 29.072ZM60.9114 30.2591C61.1517 30.7797 61.2994 31.5043 61.2994 32.48H63.2994C63.2994 31.3224 63.127 30.287 62.7273 29.4209L60.9114 30.2591ZM67.4725 19.96H68.4725V18.96H67.4725V19.96ZM64.0725 19.96H63.0725V20.96H64.0725V19.96ZM64.0725 17.96V16.96H63.0725V17.96H64.0725ZM67.4725 17.96V18.96H68.4725V17.96H67.4725ZM67.4725 10V9H66.4725V10H67.4725ZM69.5925 10H70.5925V9H69.5925V10ZM69.5925 17.96H68.5925V18.96H69.5925V17.96ZM73.2725 17.96H74.2725V16.96H73.2725V17.96ZM73.2725 19.96V20.96H74.2725V19.96H73.2725ZM69.5925 19.96V18.96H68.5925V19.96H69.5925ZM70.3925 35.28L69.7678 36.0609L69.7891 36.0779L69.8113 36.0937L70.3925 35.28ZM73.2725 35.88H74.2725V34.88H73.2725V35.88ZM73.2725 38.04V39.04H74.2725V38.04H73.2725ZM70.3125 37.76L69.9565 38.6945L69.9826 38.7044L70.0093 38.7129L70.3125 37.76ZM68.8325 36.84L68.1254 37.5471L68.1368 37.5585L68.1486 37.5695L68.8325 36.84ZM67.8325 35.2L66.8916 35.5387L66.8916 35.5387L67.8325 35.2ZM68.4725 32.8V19.96H66.4725V32.8H68.4725ZM67.4725 18.96H64.0725V20.96H67.4725V18.96ZM65.0725 19.96V17.96H63.0725V19.96H65.0725ZM64.0725 18.96H67.4725V16.96H64.0725V18.96ZM68.4725 17.96V10H66.4725V17.96H68.4725ZM67.4725 11H69.5925V9H67.4725V11ZM68.5925 10V17.96H70.5925V10H68.5925ZM69.5925 18.96H73.2725V16.96H69.5925V18.96ZM72.2725 17.96V19.96H74.2725V17.96H72.2725ZM73.2725 18.96H69.5925V20.96H73.2725V18.96ZM68.5925 19.96V33H70.5925V19.96H68.5925ZM68.5925 33C68.5925 34.2151 68.8845 35.3542 69.7678 36.0609L71.0172 34.4991C70.8339 34.3525 70.5925 33.9716 70.5925 33H68.5925ZM69.8113 36.0937C70.5615 36.6296 71.4376 36.88 72.3925 36.88V34.88C71.8007 34.88 71.3435 34.7304 70.9737 34.4663L69.8113 36.0937ZM72.3925 36.88H73.2725V34.88H72.3925V36.88ZM72.2725 35.88V38.04H74.2725V35.88H72.2725ZM73.2725 37.04H72.1925V39.04H73.2725V37.04ZM72.1925 37.04C71.6202 37.04 71.0965 36.9601 70.6157 36.8071L70.0093 38.7129C70.7018 38.9333 71.4314 39.04 72.1925 39.04V37.04ZM70.6685 36.8255C70.227 36.6573 69.8458 36.4192 69.5164 36.1105L68.1486 37.5695C68.6725 38.0608 69.278 38.436 69.9565 38.6945L70.6685 36.8255ZM69.5396 36.1329C69.2336 35.8269 68.9721 35.4134 68.7734 34.8613L66.8916 35.5387C67.1729 36.3199 67.578 36.9997 68.1254 37.5471L69.5396 36.1329ZM68.7734 34.8613C68.5827 34.3316 68.4725 33.6524 68.4725 32.8H66.4725C66.4725 33.8143 66.6023 34.7351 66.8916 35.5387L68.7734 34.8613ZM107.773 32.96L106.847 32.5843L106.842 32.5952L106.838 32.6061L107.773 32.96ZM106.173 35.56L105.441 34.8795L105.44 34.8806L106.173 35.56ZM103.773 37.32L104.189 38.2295L104.2 38.2246L104.21 38.2195L103.773 37.32ZM97.7334 37.56L97.9943 36.5946L97.7334 37.56ZM95.0934 36.68L95.4758 35.756L95.4742 35.7553L95.0934 36.68ZM92.4934 35.36L91.5536 35.0183L91.2745 35.7858L91.9709 36.2126L92.4934 35.36ZM93.2934 33.16L93.7613 32.2762L92.7462 31.7388L92.3536 32.8183L93.2934 33.16ZM95.9734 34.4L95.6069 35.3305L95.6188 35.335L95.9734 34.4ZM98.4134 35.24L98.1152 36.1945L98.1289 36.1988L98.1427 36.2027L98.4134 35.24ZM102.813 35.16L102.411 34.2447L102.404 34.2478L102.397 34.2509L102.813 35.16ZM104.533 33.96L105.259 34.6477L105.268 34.6385L105.277 34.629L104.533 33.96ZM105.653 32.12L104.72 31.761L104.72 31.761L105.653 32.12ZM105.493 27.84L104.661 28.3947L104.668 28.4042L104.674 28.4135L105.493 27.84ZM104.053 26.48L103.499 27.312L103.521 27.3271L103.545 27.3409L104.053 26.48ZM102.173 25.64L101.879 26.5958L101.896 26.601L101.913 26.6056L102.173 25.64ZM100.133 25.16L99.9734 26.1471L99.9754 26.1474L100.133 25.16ZM97.3334 24.32L96.909 25.2255L96.9196 25.2304L97.3334 24.32ZM95.0534 22.76L94.3463 23.4671L94.3535 23.4743L94.3609 23.4814L95.0534 22.76ZM93.5334 20.52L92.6173 20.9208L92.6173 20.9208L93.5334 20.52ZM93.5334 14.56L92.6067 14.1843L92.604 14.1909L92.6014 14.1976L93.5334 14.56ZM95.1334 12L94.4006 11.3195L94.3997 11.3206L95.1334 12ZM97.5334 10.24L97.9592 11.1448L97.9592 11.1448L97.5334 10.24ZM102.373 9.84L102.14 10.8124L102.162 10.8177L102.185 10.822L102.373 9.84ZM104.293 10.28L104.598 9.32757L104.578 9.32095L104.557 9.31524L104.293 10.28ZM106.253 10.96L107.2 11.2813L107.512 10.3638L106.605 10.0237L106.253 10.96ZM105.493 13.2L105.115 14.1255L106.099 14.5281L106.44 13.5213L105.493 13.2ZM103.693 12.56L103.985 11.6033L103.981 11.6022L103.693 12.56ZM102.013 12.12L102.235 11.1449L102.235 11.1449L102.013 12.12ZM98.2934 12.4L98.7249 13.3021L98.7328 13.2983L98.7407 13.2944L98.2934 12.4ZM96.6934 13.64L97.4387 14.3068L97.4471 14.2973L97.4554 14.2876L96.6934 13.64ZM95.6134 15.44L96.542 15.8114L96.5468 15.799L95.6134 15.44ZM95.6934 19.72L94.799 20.1672L94.8104 20.1899L94.8229 20.2121L95.6934 19.72ZM96.9734 21.28L96.3293 22.0449L96.3389 22.053L96.3487 22.0609L96.9734 21.28ZM98.7334 22.32L98.3488 23.2431L98.3654 23.25L98.3823 23.2563L98.7334 22.32ZM100.573 22.84L100.395 23.8239L100.405 23.8257L100.573 22.84ZM103.613 23.64L103.265 24.5775L103.274 24.5806L103.613 23.64ZM106.093 25L105.465 25.7779L105.481 25.7911L105.498 25.8036L106.093 25ZM107.773 27L106.879 27.4472L106.879 27.4472L107.773 27ZM107.373 29.8C107.373 30.798 107.196 31.7231 106.847 32.5843L108.7 33.3357C109.151 32.2236 109.373 31.042 109.373 29.8H107.373ZM106.838 32.6061C106.509 33.4762 106.043 34.231 105.441 34.8795L106.906 36.2405C107.691 35.3957 108.291 34.4171 108.709 33.3139L106.838 32.6061ZM105.44 34.8806C104.862 35.5043 104.165 36.0183 103.337 36.4205L104.21 38.2195C105.249 37.715 106.151 37.0557 106.907 36.2394L105.44 34.8806ZM103.358 36.4105C102.56 36.7752 101.702 36.96 100.773 36.96V38.96C101.978 38.96 103.12 38.7182 104.189 38.2295L103.358 36.4105ZM100.773 36.96C99.82 36.96 98.8945 36.8379 97.9943 36.5946L97.4725 38.5254C98.5458 38.8154 99.6469 38.96 100.773 38.96V36.96ZM97.9943 36.5946C97.0403 36.3368 96.2021 36.0565 95.4758 35.756L94.7111 37.604C95.5315 37.9435 96.4532 38.2499 97.4725 38.5254L97.9943 36.5946ZM95.4742 35.7553C94.6161 35.402 93.7969 34.986 93.016 34.5074L91.9709 36.2126C92.8433 36.7473 93.7575 37.2114 94.7127 37.6047L95.4742 35.7553ZM93.4332 35.7017L94.2332 33.5017L92.3536 32.8183L91.5536 35.0183L93.4332 35.7017ZM92.8255 34.0438C93.7624 34.5398 94.6895 34.969 95.6069 35.3304L96.34 33.4696C95.4974 33.1377 94.6378 32.7402 93.7613 32.2762L92.8255 34.0438ZM95.6188 35.335C96.4121 35.6359 97.2444 35.9224 98.1152 36.1945L98.7117 34.2855C97.8759 34.0243 97.0814 33.7507 96.3281 33.465L95.6188 35.335ZM98.1427 36.2027C99.061 36.4609 99.9273 36.6 100.733 36.6V34.6C100.153 34.6 99.4726 34.4991 98.6842 34.2773L98.1427 36.2027ZM100.733 36.6C101.615 36.6 102.452 36.4259 103.23 36.0691L102.397 34.2509C101.895 34.4808 101.345 34.6 100.733 34.6V36.6ZM103.216 36.0753C103.999 35.7308 104.684 35.2552 105.259 34.6477L103.807 33.2723C103.423 33.6781 102.961 34.0026 102.411 34.2447L103.216 36.0753ZM105.277 34.629C105.841 34.0016 106.278 33.2823 106.587 32.479L104.72 31.761C104.496 32.3444 104.185 32.8518 103.79 33.291L105.277 34.629ZM106.587 32.479C106.901 31.6625 107.053 30.7932 107.053 29.88H105.053C105.053 30.5668 104.939 31.1908 104.72 31.761L106.587 32.479ZM107.053 29.88C107.053 28.9036 106.832 28.0083 106.313 27.2665L104.674 28.4135C104.902 28.7384 105.053 29.203 105.053 29.88H107.053ZM106.325 27.2853C105.868 26.5986 105.277 26.0412 104.562 25.6191L103.545 27.3409C104.004 27.6121 104.373 27.9614 104.661 28.3947L106.325 27.2853ZM104.608 25.6479C103.952 25.2105 103.225 24.8874 102.433 24.6744L101.913 26.6056C102.509 26.7659 103.035 27.0029 103.499 27.312L104.608 25.6479ZM102.468 24.6842C101.733 24.4582 101.007 24.2871 100.291 24.1726L99.9754 26.1474C100.593 26.2462 101.227 26.3952 101.879 26.5958L102.468 24.6842ZM100.294 24.1729C99.3915 24.0266 98.5437 23.7717 97.7472 23.4096L96.9196 25.2304C97.8832 25.6683 98.9021 25.9734 99.9734 26.1471L100.294 24.1729ZM97.7579 23.4145C97.0014 23.0599 96.3323 22.6015 95.746 22.0386L94.3609 23.4814C95.1079 24.1985 95.9588 24.7801 96.909 25.2255L97.7579 23.4145ZM95.7605 22.0529C95.2113 21.5036 94.7744 20.8617 94.4496 20.1192L92.6173 20.9208C93.0391 21.885 93.6156 22.7364 94.3463 23.4671L95.7605 22.0529ZM94.4496 20.1192C94.139 19.4093 93.9734 18.5886 93.9734 17.64H91.9734C91.9734 18.8247 92.1812 19.924 92.6173 20.9208L94.4496 20.1192ZM93.9734 17.64C93.9734 16.663 94.1398 15.7599 94.4654 14.9224L92.6014 14.1976C92.1805 15.2801 91.9734 16.4304 91.9734 17.64H93.9734ZM94.4602 14.9357C94.8186 14.0515 95.2894 13.3034 95.8672 12.6794L94.3997 11.3206C93.6441 12.1366 93.0483 13.0951 92.6067 14.1843L94.4602 14.9357ZM95.8662 12.6804C96.474 12.0259 97.1703 11.5161 97.9592 11.1448L97.1076 9.33518C96.0833 9.81724 95.1795 10.4808 94.4006 11.3195L95.8662 12.6804ZM97.9592 11.1448C98.7312 10.7816 99.5456 10.6 100.413 10.6V8.6C99.2546 8.6 98.149 8.84511 97.1076 9.33518L97.9592 11.1448ZM100.413 10.6C100.969 10.6 101.544 10.6694 102.14 10.8124L102.607 8.86761C101.869 8.69056 101.137 8.6 100.413 8.6V10.6ZM102.185 10.822C102.857 10.9513 103.472 11.0924 104.03 11.2448L104.557 9.31524C103.942 9.14758 103.277 8.99538 102.562 8.85799L102.185 10.822ZM103.989 11.2324C104.64 11.4409 105.278 11.6622 105.902 11.8963L106.605 10.0237C105.949 9.77779 105.28 9.54577 104.598 9.32757L103.989 11.2324ZM105.306 10.6387L104.546 12.8787L106.44 13.5213L107.2 11.2813L105.306 10.6387ZM105.872 12.2745C105.256 12.0226 104.627 11.7989 103.985 11.6033L103.402 13.5167C103.986 13.6944 104.557 13.8974 105.115 14.1255L105.872 12.2745ZM103.981 11.6022C103.424 11.4352 102.842 11.2828 102.235 11.1449L101.792 13.0951C102.358 13.2238 102.896 13.3648 103.406 13.5178L103.981 11.6022ZM102.235 11.1449C101.585 10.9971 100.95 10.92 100.333 10.92V12.92C100.783 12.92 101.269 12.9763 101.792 13.0951L102.235 11.1449ZM100.333 10.92C99.4592 10.92 98.626 11.1157 97.8462 11.5056L98.7407 13.2944C99.2409 13.0443 99.7677 12.92 100.333 12.92V10.92ZM97.862 11.4979C97.118 11.8537 96.4731 12.3552 95.9315 12.9924L97.4554 14.2876C97.8204 13.8582 98.2422 13.533 98.7249 13.3021L97.862 11.4979ZM95.9482 12.9732C95.4068 13.5782 94.9862 14.285 94.6801 15.081L96.5468 15.799C96.774 15.2083 97.0734 14.7151 97.4387 14.3068L95.9482 12.9732ZM94.685 15.0686C94.3709 15.8537 94.2134 16.6731 94.2134 17.52H96.2134C96.2134 16.9269 96.3226 16.3596 96.5419 15.8114L94.685 15.0686ZM94.2134 17.52C94.2134 18.4778 94.3995 19.3683 94.799 20.1672L96.5879 19.2728C96.3473 18.7917 96.2134 18.2156 96.2134 17.52H94.2134ZM94.8229 20.2121C95.2244 20.9225 95.7258 21.5367 96.3293 22.0449L97.6176 20.5151C97.2077 20.1699 96.8558 19.7442 96.564 19.2279L94.8229 20.2121ZM96.3487 22.0609C96.9562 22.5468 97.6239 22.941 98.3488 23.2431L99.1181 21.3969C98.563 21.1657 98.0574 20.8665 97.5981 20.4991L96.3487 22.0609ZM98.3823 23.2563C99.0703 23.5143 99.7414 23.7051 100.395 23.8239L100.752 21.8561C100.232 21.7616 99.6766 21.6057 99.0846 21.3837L98.3823 23.2563ZM100.405 23.8257C101.444 24.0031 102.396 24.2547 103.265 24.5774L103.962 22.7026C102.964 22.332 101.89 22.0502 100.742 21.8543L100.405 23.8257ZM103.274 24.5806C104.144 24.8948 104.87 25.2972 105.465 25.7779L106.722 24.2221C105.93 23.5828 105.003 23.0785 103.953 22.6994L103.274 24.5806ZM105.498 25.8036C106.092 26.2435 106.549 26.7881 106.879 27.4472L108.668 26.5528C108.197 25.6119 107.535 24.8232 106.689 24.1964L105.498 25.8036ZM106.879 27.4472C107.197 28.0841 107.373 28.8589 107.373 29.8H109.373C109.373 28.6077 109.149 27.5159 108.668 26.5528L106.879 27.4472ZM113.176 19.96H114.176V18.96H113.176V19.96ZM109.776 19.96H108.776V20.96H109.776V19.96ZM109.776 17.96V16.96H108.776V17.96H109.776ZM113.176 17.96V18.96H114.176V17.96H113.176ZM113.176 10V9H112.176V10H113.176ZM115.296 10H116.296V9H115.296V10ZM115.296 17.96H114.296V18.96H115.296V17.96ZM118.976 17.96H119.976V16.96H118.976V17.96ZM118.976 19.96V20.96H119.976V19.96H118.976ZM115.296 19.96V18.96H114.296V19.96H115.296ZM116.096 35.28L115.471 36.0609L115.492 36.0779L115.514 36.0937L116.096 35.28ZM118.976 35.88H119.976V34.88H118.976V35.88ZM118.976 38.04V39.04H119.976V38.04H118.976ZM116.016 37.76L115.66 38.6945L115.686 38.7044L115.712 38.7129L116.016 37.76ZM114.536 36.84L113.829 37.5471L113.84 37.5585L113.852 37.5695L114.536 36.84ZM113.536 35.2L112.595 35.5387L112.595 35.5387L113.536 35.2ZM114.176 32.8V19.96H112.176V32.8H114.176ZM113.176 18.96H109.776V20.96H113.176V18.96ZM110.776 19.96V17.96H108.776V19.96H110.776ZM109.776 18.96H113.176V16.96H109.776V18.96ZM114.176 17.96V10H112.176V17.96H114.176ZM113.176 11H115.296V9H113.176V11ZM114.296 10V17.96H116.296V10H114.296ZM115.296 18.96H118.976V16.96H115.296V18.96ZM117.976 17.96V19.96H119.976V17.96H117.976ZM118.976 18.96H115.296V20.96H118.976V18.96ZM114.296 19.96V33H116.296V19.96H114.296ZM114.296 33C114.296 34.2151 114.588 35.3542 115.471 36.0609L116.72 34.4991C116.537 34.3525 116.296 33.9716 116.296 33H114.296ZM115.514 36.0937C116.265 36.6296 117.141 36.88 118.096 36.88V34.88C117.504 34.88 117.047 34.7304 116.677 34.4663L115.514 36.0937ZM118.096 36.88H118.976V34.88H118.096V36.88ZM117.976 35.88V38.04H119.976V35.88H117.976ZM118.976 37.04H117.896V39.04H118.976V37.04ZM117.896 37.04C117.323 37.04 116.8 36.9601 116.319 36.8071L115.712 38.7129C116.405 38.9333 117.135 39.04 117.896 39.04V37.04ZM116.372 36.8255C115.93 36.6573 115.549 36.4192 115.22 36.1105L113.852 37.5695C114.376 38.0608 114.981 38.436 115.66 38.6945L116.372 36.8255ZM115.243 36.1329C114.937 35.8269 114.675 35.4134 114.477 34.8613L112.595 35.5387C112.876 36.3199 113.281 36.9997 113.829 37.5471L115.243 36.1329ZM114.477 34.8613C114.286 34.3316 114.176 33.6524 114.176 32.8H112.176C112.176 33.8143 112.305 34.7351 112.595 35.5387L114.477 34.8613ZM128.68 28.36L128.671 29.36H128.68V28.36ZM130.08 28.08L130.503 28.9862L130.527 28.9749L130.55 28.9624L130.08 28.08ZM131.12 27.28L131.857 27.9557L131.87 27.9411L131.883 27.9259L131.12 27.28ZM131.8 26.12L130.884 25.7192L130.873 25.7438L130.863 25.7689L131.8 26.12ZM131.72 21.48L130.836 21.9479L130.842 21.9592L130.848 21.9703L131.72 21.48ZM130.76 20.4L130.178 21.2137L130.192 21.2231L130.205 21.232L130.76 20.4ZM129.4 19.84L129.145 20.8071L129.174 20.8147L129.204 20.8206L129.4 19.84ZM126.32 19.88L126.003 18.9313L125.995 18.9341L125.987 18.937L126.32 19.88ZM125.12 20.56L125.766 21.3234L125.766 21.3234L125.12 20.56ZM124.28 21.64L123.385 21.1928L123.385 21.1928L124.28 21.64ZM123.96 28.32H122.96V29.3116L123.951 29.32L123.96 28.32ZM122.28 21.04L121.359 20.6504L121.352 20.6656L121.346 20.681L122.28 21.04ZM123.44 19.24L122.733 18.5329L122.723 18.5424L122.714 18.5523L123.44 19.24ZM125.16 18.04L124.757 17.1247L124.75 17.1278L124.743 17.1309L125.16 18.04ZM130.8 18.04L130.397 18.9553L130.397 18.9553L130.8 18.04ZM133.72 21.04L132.786 21.399L132.792 21.4144L132.799 21.4296L133.72 21.04ZM133.56 27.44L134.441 27.9122L134.445 27.9058L134.448 27.8994L133.56 27.44ZM131.92 29.28L132.489 30.1022L132.489 30.1022L131.92 29.28ZM129.48 30.32L129.681 31.2995L129.692 31.2973L129.703 31.2949L129.48 30.32ZM125.28 30.56L125.217 31.5581L125.217 31.5581L125.28 30.56ZM123.96 30.44L124.077 29.4468L122.96 29.3155V30.44H123.96ZM123.96 32.84H122.96V32.9268L122.975 33.0124L123.96 32.84ZM125.44 35.4L124.815 36.1809L124.829 36.1922L124.844 36.2031L125.44 35.4ZM129.24 36.16L129.427 37.1423L129.444 37.139L129.461 37.1351L129.24 36.16ZM131.08 35.76L131.284 36.739L131.289 36.7378L131.08 35.76ZM133.56 35.2L134.535 34.9792L134.312 33.9956L133.331 34.2266L133.56 35.2ZM134.04 37.32L134.251 38.2974L135.238 38.084L135.015 37.0992L134.04 37.32ZM131.36 37.84L131.195 36.8536L131.183 36.8556L131.171 36.858L131.36 37.84ZM129.36 38.2L129.195 37.2136L129.188 37.2148L129.36 38.2ZM125.8 37.92L125.417 38.844L125.431 38.8497L125.445 38.855L125.8 37.92ZM123.76 36.6L123.069 37.3234L123.069 37.3234L123.76 36.6ZM122.36 34.64L121.436 35.0224L121.444 35.0419L121.453 35.0611L122.36 34.64ZM128.68 29.36H128.76V27.36H128.68V29.36ZM128.76 29.36C129.373 29.36 129.959 29.2399 130.503 28.9862L129.657 27.1738C129.4 27.2934 129.107 27.36 128.76 27.36V29.36ZM130.55 28.9624C131.046 28.6981 131.484 28.3629 131.857 27.9557L130.383 26.6043C130.169 26.8371 129.914 27.0352 129.609 27.1976L130.55 28.9624ZM131.883 27.9259C132.251 27.4913 132.536 27.0049 132.736 26.4711L130.863 25.7689C130.744 26.0885 130.575 26.3753 130.356 26.6341L131.883 27.9259ZM132.716 26.5208C132.96 25.9638 133.08 25.3736 133.08 24.76H131.08C131.08 25.1064 131.013 25.4228 130.884 25.7192L132.716 26.5208ZM133.08 24.76V23.08H131.08V24.76H133.08ZM133.08 23.08C133.08 22.3195 132.937 21.6052 132.591 20.9897L130.848 21.9703C130.982 22.2081 131.08 22.5605 131.08 23.08H133.08ZM132.603 21.0121C132.291 20.4221 131.862 19.9329 131.314 19.5679L130.205 21.232C130.458 21.4004 130.668 21.6313 130.836 21.9479L132.603 21.0121ZM131.341 19.5863C130.833 19.2235 130.242 18.9888 129.596 18.8594L129.204 20.8206C129.624 20.9046 129.94 21.0431 130.178 21.2137L131.341 19.5863ZM129.654 18.8729C129.059 18.7163 128.44 18.64 127.8 18.64V20.64C128.28 20.64 128.727 20.697 129.145 20.8071L129.654 18.8729ZM127.8 18.64C127.186 18.64 126.586 18.7373 126.003 18.9313L126.636 20.8287C127.014 20.7027 127.4 20.64 127.8 20.64V18.64ZM125.987 18.937C125.426 19.135 124.918 19.4204 124.474 19.7966L125.766 21.3234C126.014 21.1129 126.307 20.945 126.653 20.823L125.987 18.937ZM124.474 19.7966C124.019 20.1818 123.656 20.6512 123.385 21.1928L125.174 22.0872C125.33 21.7755 125.528 21.5249 125.766 21.3234L124.474 19.7966ZM123.385 21.1928C123.095 21.774 122.96 22.4099 122.96 23.08H124.96C124.96 22.6834 125.038 22.3594 125.174 22.0872L123.385 21.1928ZM122.96 23.08V28.32H124.96V23.08H122.96ZM123.951 29.32L128.671 29.36L128.688 27.36L123.968 27.32L123.951 29.32ZM122.88 23.28C122.88 22.5932 122.994 21.9692 123.213 21.399L121.346 20.681C121.032 21.4975 120.88 22.3668 120.88 23.28H122.88ZM123.201 21.4296C123.451 20.8378 123.774 20.3409 124.166 19.9277L122.714 18.5523C122.145 19.1524 121.695 19.8555 121.359 20.6504L123.201 21.4296ZM124.147 19.9471C124.571 19.523 125.046 19.192 125.576 18.9491L124.743 17.1309C123.993 17.4747 123.322 17.9437 122.733 18.5329L124.147 19.9471ZM125.562 18.9553C126.094 18.7212 126.676 18.6 127.32 18.6V16.6C126.416 16.6 125.558 16.7721 124.757 17.1247L125.562 18.9553ZM127.32 18.6H128.68V16.6H127.32V18.6ZM128.68 18.6C129.291 18.6 129.86 18.7193 130.397 18.9553L131.202 17.1247C130.406 16.7741 129.561 16.6 128.68 16.6V18.6ZM130.397 18.9553C130.952 19.1996 131.435 19.5296 131.853 19.9471L133.267 18.5329C132.671 17.9371 131.981 17.4671 131.202 17.1247L130.397 18.9553ZM131.853 19.9471C132.257 20.3512 132.568 20.8313 132.786 21.399L134.653 20.681C134.338 19.862 133.876 19.1422 133.267 18.5329L131.853 19.9471ZM132.799 21.4296C133.037 21.9921 133.16 22.6053 133.16 23.28H135.16C135.16 22.3546 134.989 21.4746 134.641 20.6504L132.799 21.4296ZM133.16 23.28V24.6H135.16V23.28H133.16ZM133.16 24.6C133.16 25.6045 132.98 26.3841 132.671 26.9806L134.448 27.8994C134.939 26.9493 135.16 25.8355 135.16 24.6H133.16ZM132.678 26.9678C132.353 27.5753 131.913 28.0685 131.35 28.4578L132.489 30.1022C133.313 29.5315 133.967 28.798 134.441 27.9122L132.678 26.9678ZM131.35 28.4578C130.775 28.8562 130.083 29.1564 129.257 29.3451L129.703 31.2949C130.743 31.057 131.678 30.6638 132.489 30.1022L131.35 28.4578ZM129.278 29.3405C128.445 29.512 127.54 29.6 126.56 29.6V31.6C127.659 31.6 128.701 31.5013 129.681 31.2995L129.278 29.3405ZM126.56 29.6C126.154 29.6 125.748 29.5873 125.342 29.5619L125.217 31.5581C125.665 31.586 126.112 31.6 126.56 31.6V29.6ZM125.342 29.5619C124.935 29.5365 124.513 29.4982 124.077 29.4468L123.843 31.4332C124.313 31.4885 124.771 31.5302 125.217 31.5581L125.342 29.5619ZM122.96 30.44V32.84H124.96V30.44H122.96ZM122.975 33.0124C123.201 34.3041 123.813 35.3795 124.815 36.1809L126.064 34.6191C125.466 34.1405 125.092 33.5092 124.945 32.6676L122.975 33.0124ZM124.844 36.2031C125.845 36.9457 126.987 37.32 128.24 37.32V35.32C127.412 35.32 126.688 35.0809 126.036 34.5969L124.844 36.2031ZM128.24 37.32C128.387 37.32 128.577 37.2915 128.728 37.2674C128.908 37.2385 129.143 37.1964 129.427 37.1423L129.053 35.1777C128.777 35.2302 128.564 35.2681 128.412 35.2926C128.335 35.3048 128.28 35.3127 128.242 35.3173C128.194 35.3231 128.203 35.32 128.24 35.32V37.32ZM129.461 37.1351C130.042 37.0032 130.649 36.8712 131.284 36.739L130.876 34.781C130.23 34.9155 129.611 35.0501 129.018 35.1849L129.461 37.1351ZM131.289 36.7378C132.044 36.5761 132.877 36.388 133.789 36.1734L133.331 34.2266C132.429 34.4387 131.609 34.6239 130.87 34.7822L131.289 36.7378ZM132.584 35.4208L133.064 37.5408L135.015 37.0992L134.535 34.9792L132.584 35.4208ZM133.828 36.3426C132.854 36.5533 131.976 36.7234 131.195 36.8536L131.524 38.8264C132.343 38.6899 133.252 38.5133 134.251 38.2974L133.828 36.3426ZM131.171 36.858C130.485 36.9899 129.826 37.1084 129.195 37.2136L129.524 39.1864C130.173 39.0783 130.848 38.9568 131.549 38.822L131.171 36.858ZM129.188 37.2148C128.886 37.2673 128.651 37.3054 128.478 37.3301C128.283 37.358 128.225 37.36 128.24 37.36V39.36C128.388 39.36 128.583 39.3354 128.761 39.3099C128.962 39.2812 129.22 39.2393 129.531 39.1852L129.188 37.2148ZM128.24 37.36C127.504 37.36 126.811 37.234 126.154 36.985L125.445 38.855C126.335 39.1927 127.269 39.36 128.24 39.36V37.36ZM126.182 36.996C125.519 36.7217 124.945 36.3486 124.45 35.8766L123.069 37.3234C123.748 37.9714 124.533 38.4783 125.417 38.844L126.182 36.996ZM124.45 35.8766C123.955 35.4043 123.562 34.8539 123.267 34.2189L121.453 35.0611C121.851 35.9194 122.391 36.6757 123.069 37.3234L124.45 35.8766ZM123.284 34.2576C123.018 33.6153 122.88 32.9065 122.88 32.12H120.88C120.88 33.1468 121.061 34.118 121.436 35.0224L123.284 34.2576ZM122.88 32.12V23.28H120.88V32.12H122.88ZM140.609 34.96H139.609V35.4952L140.054 35.7921L140.609 34.96ZM143.009 35.96L143.307 35.0055L143.307 35.0055L143.009 35.96ZM144.209 36.28L143.999 37.2578L144.038 37.266L144.077 37.2712L144.209 36.28ZM147.529 35.36L148.25 36.0525L148.257 36.0455L148.264 36.0383L147.529 35.36ZM148.209 21.76L147.272 22.1111L147.286 22.1476L147.303 22.1829L148.209 21.76ZM147.529 20.68L146.792 21.3557L146.806 21.3717L146.822 21.3871L147.529 20.68ZM146.489 19.92L146.066 20.8262L146.066 20.8262L146.489 19.92ZM144.289 19.72L144.36 20.7175L144.395 20.7149L144.43 20.7099L144.289 19.72ZM143.089 19.96L143.346 20.9262L143.367 20.9208L143.387 20.9145L143.089 19.96ZM141.849 20.4L141.448 19.4838L141.448 19.4838L141.849 20.4ZM140.609 21.08L140.054 20.2479L139.609 20.5448V21.08H140.609ZM140.569 37.28L141.034 36.3946L139.569 35.6256V37.28H140.569ZM140.569 48V49H141.569V48H140.569ZM138.569 48H137.569V49H138.569V48ZM138.569 19.88H139.569V19.4521L139.259 19.1566L138.569 19.88ZM137.689 19.04L136.972 18.3429L136.268 19.0665L136.998 19.7634L137.689 19.04ZM139.089 17.6L139.784 16.8814L139.067 16.1876L138.372 16.9029L139.089 17.6ZM140.329 18.8L139.633 19.5186L140.142 20.0112L140.776 19.6944L140.329 18.8ZM142.969 17.88L143.153 18.8629L143.168 18.8601L143.182 18.8569L142.969 17.88ZM147.249 18.04L146.832 18.9491L146.832 18.9491L147.249 18.04ZM148.929 19.24L148.203 19.9277L148.203 19.9277L148.929 19.24ZM150.049 21.04L149.115 21.399L149.121 21.4144L149.128 21.4296L150.049 21.04ZM150.049 34.96L149.128 34.5704L149.124 34.5794L149.12 34.5886L150.049 34.96ZM148.929 36.76L149.655 37.4477L149.663 37.4385L149.672 37.429L148.929 36.76ZM147.249 37.96L146.832 37.0509L146.832 37.0509L147.249 37.96ZM143.329 38.24L143.465 37.2494L143.449 37.2471L143.432 37.2453L143.329 38.24ZM140.054 35.7921C140.448 36.0548 140.892 36.2743 141.378 36.4563L142.08 34.5837C141.712 34.4457 141.409 34.2919 141.163 34.1279L140.054 35.7921ZM141.378 36.4563C141.821 36.6227 142.266 36.7755 142.71 36.9145L143.307 35.0055C142.898 34.8778 142.489 34.7373 142.08 34.5837L141.378 36.4563ZM142.71 36.9145C143.162 37.0554 143.591 37.1704 143.999 37.2578L144.418 35.3022C144.079 35.2296 143.709 35.1312 143.307 35.0055L142.71 36.9145ZM144.077 37.2712C144.495 37.327 144.865 37.36 145.169 37.36V35.36C144.993 35.36 144.722 35.3396 144.341 35.2888L144.077 37.2712ZM145.169 37.36C146.371 37.36 147.419 36.9178 148.25 36.0525L146.807 34.6675C146.358 35.1355 145.833 35.36 145.169 35.36V37.36ZM148.264 36.0383C149.077 35.1567 149.489 34.0865 149.489 32.88H147.489C147.489 33.5935 147.26 34.1766 146.794 34.6817L148.264 36.0383ZM149.489 32.88V23.08H147.489V32.88H149.489ZM149.489 23.08C149.489 22.4668 149.369 21.8808 149.115 21.3371L147.303 22.1829C147.422 22.4392 147.489 22.7332 147.489 23.08H149.489ZM149.145 21.4089C148.94 20.8618 148.64 20.3767 148.236 19.9729L146.822 21.3871C147.004 21.5699 147.158 21.8048 147.272 22.1111L149.145 21.4089ZM148.266 20.0043C147.882 19.5859 147.428 19.255 146.912 19.0138L146.066 20.8262C146.349 20.9583 146.588 21.1341 146.792 21.3557L148.266 20.0043ZM146.912 19.0138C146.376 18.7637 145.804 18.64 145.209 18.64V20.64C145.52 20.64 145.802 20.703 146.066 20.8262L146.912 19.0138ZM145.209 18.64C144.903 18.64 144.544 18.6733 144.147 18.73L144.43 20.7099C144.78 20.66 145.035 20.64 145.209 20.64V18.64ZM144.218 18.7225C143.754 18.7557 143.277 18.8534 142.79 19.0055L143.387 20.9145C143.754 20.7999 144.077 20.7377 144.36 20.7175L144.218 18.7225ZM142.831 18.9938C142.377 19.115 141.915 19.2794 141.448 19.4838L142.25 21.3162C142.635 21.1473 143.001 21.0184 143.346 20.9262L142.831 18.9938ZM141.448 19.4838C140.966 19.6947 140.501 19.9498 140.054 20.2479L141.163 21.912C141.516 21.6768 141.878 21.4786 142.25 21.3162L141.448 19.4838ZM139.609 21.08V34.96H141.609V21.08H139.609ZM139.569 37.28V48H141.569V37.28H139.569ZM140.569 47H138.569V49H140.569V47ZM139.569 48V19.88H137.569V48H139.569ZM139.259 19.1566L138.379 18.3166L136.998 19.7634L137.878 20.6034L139.259 19.1566ZM138.406 19.7371L139.806 18.2971L138.372 16.9029L136.972 18.3429L138.406 19.7371ZM138.393 18.3186L139.633 19.5186L141.024 18.0814L139.784 16.8814L138.393 18.3186ZM140.776 19.6944C141.613 19.2759 142.405 19.0032 143.153 18.8629L142.784 16.8971C141.826 17.0768 140.858 17.4175 139.882 17.9056L140.776 19.6944ZM143.182 18.8569C143.993 18.6797 144.65 18.6 145.169 18.6V16.6C144.46 16.6 143.652 16.707 142.755 16.9031L143.182 18.8569ZM145.169 18.6C145.78 18.6 146.331 18.7192 146.832 18.9491L147.665 17.1309C146.887 16.7741 146.05 16.6 145.169 16.6V18.6ZM146.832 18.9491C147.357 19.1896 147.812 19.5148 148.203 19.9277L149.655 18.5523C149.086 17.9519 148.421 17.4771 147.665 17.1309L146.832 18.9491ZM148.203 19.9277C148.587 20.3334 148.893 20.8198 149.115 21.399L150.982 20.681C150.672 19.8735 150.23 19.1599 149.655 18.5523L148.203 19.9277ZM149.128 21.4296C149.368 21.9963 149.489 22.5968 149.489 23.24H151.489C151.489 22.3365 151.317 21.4704 150.97 20.6504L149.128 21.4296ZM149.489 23.24V32.76H151.489V23.24H149.489ZM149.489 32.76C149.489 33.4032 149.368 34.0037 149.128 34.5704L150.97 35.3496C151.317 34.5296 151.489 33.6635 151.489 32.76H149.489ZM149.12 34.5886C148.897 35.146 148.587 35.6453 148.185 36.091L149.672 37.429C150.231 36.8081 150.667 36.1073 150.977 35.3314L149.12 34.5886ZM148.203 36.0723C147.812 36.4852 147.357 36.8104 146.832 37.0509L147.665 38.8691C148.421 38.5229 149.086 38.0481 149.655 37.4477L148.203 36.0723ZM146.832 37.0509C146.331 37.2808 145.78 37.4 145.169 37.4V39.4C146.05 39.4 146.887 39.2259 147.665 38.8691L146.832 37.0509ZM145.169 37.4C144.782 37.4 144.221 37.3536 143.465 37.2494L143.192 39.2306C143.983 39.3398 144.649 39.4 145.169 39.4V37.4ZM143.432 37.2453C142.835 37.1836 142.043 36.9245 141.034 36.3946L140.104 38.1654C141.228 38.7555 142.276 39.1364 143.226 39.2347L143.432 37.2453Z" fill="black"/>
<line y1="-1.5" x2="165.519" y2="-1.5" transform="matrix(0.999987 -0.00504483 0.00880945 0.999961 1 54.2727)" stroke="black" stroke-width="3"/>
<line x1="164.983" y1="51" x2="164.983" y2="63.3" stroke="black" stroke-width="3"/>
<line x1="180.5" y1="61" x2="180.5" y2="73.3" stroke="black" stroke-width="3"/>
<line x1="164" y1="62.5" x2="180.588" y2="62.5" stroke="black" stroke-width="3"/>
<path d="M179 73H195.588" stroke="black" stroke-width="3"/>
<path d="M986.931 349.5C985.276 315.833 955.703 247.4 850.655 243C745.607 238.6 418.839 222.5 268.586 215C206.609 215 83.4276 182.7 86.5173 53.5" stroke="black" stroke-width="3"/>
<path d="M986.293 351.707C986.683 352.098 987.317 352.098 987.707 351.707L994.071 345.343C994.462 344.953 994.462 344.319 994.071 343.929C993.681 343.538 993.047 343.538 992.657 343.929L987 349.586L981.343 343.929C980.953 343.538 980.319 343.538 979.929 343.929C979.538 344.319 979.538 344.953 979.929 345.343L986.293 351.707ZM986 345V351H988V345H986Z" fill="black"/>
</svg>
