<svg width="974" height="356" viewBox="0 0 974 356" fill="none" xmlns="http://www.w3.org/2000/svg">
<path d="M809.4 10V12.28H800.4V22.8H807.44V25.08H800.4V38H798.12V10H809.4ZM822.445 32.24V23.56C822.445 22.68 822.285 21.9867 821.965 21.48C821.645 20.9467 821.258 20.5467 820.805 20.28C820.378 19.9867 819.911 19.8 819.405 19.72C818.925 19.6133 818.511 19.56 818.165 19.56C817.818 19.56 817.391 19.6133 816.885 19.72C816.405 19.8 815.938 19.9867 815.485 20.28C815.031 20.5467 814.645 20.9467 814.325 21.48C814.005 21.9867 813.845 22.68 813.845 23.56V32.24C813.845 33.12 814.005 33.8267 814.325 34.36C814.645 34.8667 815.031 35.2667 815.485 35.56C815.938 35.8533 816.405 36.0533 816.885 36.16C817.391 36.24 817.818 36.28 818.165 36.28C818.511 36.28 818.925 36.24 819.405 36.16C819.911 36.0533 820.378 35.8533 820.805 35.56C821.258 35.2667 821.645 34.8667 821.965 34.36C822.285 33.8267 822.445 33.12 822.445 32.24ZM824.285 32.52C824.285 33.7467 824.058 34.7333 823.605 35.48C823.151 36.2267 822.605 36.8133 821.965 37.24C821.325 37.64 820.658 37.9067 819.965 38.04C819.271 38.1733 818.671 38.24 818.165 38.24C817.658 38.24 817.058 38.1733 816.365 38.04C815.671 37.9067 815.005 37.64 814.365 37.24C813.725 36.8133 813.178 36.2267 812.725 35.48C812.271 34.7333 812.045 33.7467 812.045 32.52V23.28C812.045 22.0533 812.271 21.0667 812.725 20.32C813.178 19.5733 813.725 19 814.365 18.6C815.005 18.2 815.671 17.9333 816.365 17.8C817.058 17.6667 817.658 17.6 818.165 17.6C818.671 17.6 819.271 17.6667 819.965 17.8C820.658 17.9333 821.325 18.2 821.965 18.6C822.605 19 823.151 19.5733 823.605 20.32C824.058 21.0667 824.285 22.0533 824.285 23.28V32.52ZM829.603 35.04C829.283 34.3733 829.097 33.7067 829.043 33.04C828.99 32.3467 828.963 31.64 828.963 30.92V18H831.043V32.16C831.043 32.8533 831.137 33.4667 831.323 34C831.537 34.5067 831.803 34.9333 832.123 35.28C832.47 35.6267 832.857 35.8933 833.283 36.08C833.71 36.2667 834.15 36.36 834.603 36.36C835.457 36.36 836.31 36.2133 837.163 35.92C838.043 35.6 838.723 35.2667 839.203 34.92V18H841.243V36L842.123 36.84L840.683 38.28L839.483 37.08C838.71 37.5067 837.883 37.8133 837.003 38C836.123 38.2133 835.337 38.32 834.643 38.32C833.683 38.32 832.737 38.08 831.803 37.6C830.87 37.0933 830.137 36.24 829.603 35.04ZM856.709 19.2L855.589 20.88C855.136 20.6133 854.762 20.4133 854.469 20.28C854.176 20.12 853.896 20 853.629 19.92C853.389 19.84 853.149 19.8 852.909 19.8C852.696 19.7733 852.456 19.76 852.189 19.76C851.789 19.76 851.242 19.88 850.549 20.12C849.856 20.3333 849.162 20.76 848.469 21.4V37.96H846.469V20.28L845.429 19.24L846.829 17.8L848.229 19.16C849.002 18.4667 849.736 18.04 850.429 17.88C851.149 17.6933 851.762 17.6 852.269 17.6C852.802 17.6 853.389 17.7067 854.029 17.92C854.669 18.1333 855.562 18.56 856.709 19.2ZM861.152 32.8V19.96H857.752V17.96H861.152V10H863.272V17.96H866.952V19.96H863.272V33C863.272 34.0933 863.539 34.8533 864.072 35.28C864.632 35.68 865.299 35.88 866.072 35.88H866.952V38.04H865.872C865.206 38.04 864.579 37.9467 863.992 37.76C863.432 37.5467 862.939 37.24 862.512 36.84C862.086 36.4133 861.752 35.8667 861.512 35.2C861.272 34.5333 861.152 33.7333 861.152 32.8ZM880.136 38V23.12C880.136 22.16 879.816 21.3467 879.176 20.68C878.536 19.9867 877.75 19.64 876.816 19.64C876.576 19.64 876.283 19.6667 875.936 19.72C875.59 19.7467 875.203 19.8133 874.776 19.92C874.35 20.0267 873.923 20.1733 873.496 20.36C873.07 20.5467 872.656 20.7733 872.256 21.04V38H870.216V10H872.216V18.72C873.283 18.16 874.203 17.84 874.976 17.76C875.75 17.6533 876.363 17.6 876.816 17.6C877.563 17.6 878.256 17.7467 878.896 18.04C879.536 18.3333 880.096 18.7467 880.576 19.28C881.056 19.7867 881.43 20.3867 881.696 21.08C881.99 21.7467 882.136 22.4667 882.136 23.24V38H880.136ZM919.006 29.8C919.006 30.92 918.806 31.9733 918.406 32.96C918.033 33.9467 917.5 34.8133 916.806 35.56C916.14 36.28 915.34 36.8667 914.406 37.32C913.473 37.7467 912.473 37.96 911.406 37.96C910.366 37.96 909.353 37.8267 908.366 37.56C907.38 37.2933 906.5 37 905.726 36.68C904.82 36.3067 903.953 35.8667 903.126 35.36L903.926 33.16C904.833 33.64 905.726 34.0533 906.606 34.4C907.38 34.6933 908.193 34.9733 909.046 35.24C909.9 35.48 910.673 35.6 911.366 35.6C912.113 35.6 912.806 35.4533 913.446 35.16C914.113 34.8667 914.686 34.4667 915.166 33.96C915.646 33.4267 916.02 32.8133 916.286 32.12C916.553 31.4267 916.686 30.68 916.686 29.88C916.686 29.0533 916.5 28.3733 916.126 27.84C915.753 27.28 915.273 26.8267 914.686 26.48C914.126 26.1067 913.5 25.8267 912.806 25.64C912.113 25.4267 911.433 25.2667 910.766 25.16C909.78 25 908.846 24.72 907.966 24.32C907.113 23.92 906.353 23.4 905.686 22.76C905.046 22.12 904.54 21.3733 904.166 20.52C903.793 19.6667 903.606 18.7067 903.606 17.64C903.606 16.5467 903.793 15.52 904.166 14.56C904.566 13.5733 905.1 12.72 905.766 12C906.46 11.2533 907.26 10.6667 908.166 10.24C909.073 9.81333 910.033 9.6 911.046 9.6C911.686 9.6 912.34 9.68 913.006 9.84C913.7 9.97333 914.34 10.12 914.926 10.28C915.593 10.4933 916.246 10.72 916.886 10.96L916.126 13.2C915.54 12.96 914.94 12.7467 914.326 12.56C913.793 12.4 913.233 12.2533 912.646 12.12C912.06 11.9867 911.5 11.92 910.966 11.92C910.246 11.92 909.566 12.08 908.926 12.4C908.313 12.6933 907.78 13.1067 907.326 13.64C906.873 14.1467 906.513 14.7467 906.246 15.44C905.98 16.1067 905.846 16.8 905.846 17.52C905.846 18.3467 906.006 19.08 906.326 19.72C906.673 20.3333 907.1 20.8533 907.606 21.28C908.14 21.7067 908.726 22.0533 909.366 22.32C910.006 22.56 910.62 22.7333 911.206 22.84C912.3 23.0267 913.313 23.2933 914.246 23.64C915.206 23.9867 916.033 24.44 916.726 25C917.446 25.5333 918.006 26.2 918.406 27C918.806 27.8 919.006 28.7333 919.006 29.8ZM923.808 32.8V19.96H920.408V17.96H923.808V10H925.928V17.96H929.608V19.96H925.928V33C925.928 34.0933 926.195 34.8533 926.728 35.28C927.288 35.68 927.955 35.88 928.728 35.88H929.608V38.04H928.528C927.862 38.04 927.235 37.9467 926.648 37.76C926.088 37.5467 925.595 37.24 925.168 36.84C924.742 36.4133 924.408 35.8667 924.168 35.2C923.928 34.5333 923.808 33.7333 923.808 32.8ZM939.313 28.36H939.393C939.873 28.36 940.313 28.2667 940.713 28.08C941.113 27.8667 941.459 27.6 941.753 27.28C942.046 26.9333 942.273 26.5467 942.433 26.12C942.619 25.6933 942.713 25.24 942.713 24.76V23.08C942.713 22.44 942.593 21.9067 942.353 21.48C942.113 21.0267 941.793 20.6667 941.393 20.4C941.019 20.1333 940.566 19.9467 940.033 19.84C939.526 19.7067 938.993 19.64 938.433 19.64C937.926 19.64 937.433 19.72 936.953 19.88C936.499 20.04 936.099 20.2667 935.753 20.56C935.406 20.8533 935.126 21.2133 934.913 21.64C934.699 22.0667 934.593 22.5467 934.593 23.08V28.32L939.313 28.36ZM932.513 23.28C932.513 22.48 932.646 21.7333 932.913 21.04C933.206 20.3467 933.593 19.7467 934.073 19.24C934.579 18.7333 935.153 18.3333 935.793 18.04C936.459 17.7467 937.179 17.6 937.953 17.6H939.313C940.059 17.6 940.766 17.7467 941.433 18.04C942.099 18.3333 942.686 18.7333 943.193 19.24C943.699 19.7467 944.086 20.3467 944.353 21.04C944.646 21.7333 944.793 22.48 944.793 23.28V24.6C944.793 25.72 944.593 26.6667 944.193 27.44C943.793 28.1867 943.246 28.8 942.553 29.28C941.859 29.76 941.046 30.1067 940.113 30.32C939.206 30.5067 938.233 30.6 937.193 30.6C936.766 30.6 936.339 30.5867 935.913 30.56C935.486 30.5333 935.046 30.4933 934.593 30.44V32.84C934.779 33.9067 935.273 34.76 936.073 35.4C936.899 36.0133 937.833 36.32 938.873 36.32C938.979 36.32 939.313 36.2667 939.873 36.16C940.459 36.0267 941.073 35.8933 941.713 35.76C942.459 35.6 943.286 35.4133 944.193 35.2L944.673 37.32C943.686 37.5333 942.793 37.7067 941.993 37.84C941.299 37.9733 940.633 38.0933 939.993 38.2C939.379 38.3067 939.006 38.36 938.873 38.36C938.019 38.36 937.206 38.2133 936.433 37.92C935.659 37.6 934.979 37.16 934.393 36.6C933.806 36.04 933.339 35.3867 932.993 34.64C932.673 33.8667 932.513 33.0267 932.513 32.12V23.28ZM951.242 34.96C951.562 35.1733 951.935 35.36 952.362 35.52C952.788 35.68 953.215 35.8267 953.642 35.96C954.068 36.0933 954.468 36.2 954.842 36.28C955.242 36.3333 955.562 36.36 955.802 36.36C956.735 36.36 957.522 36.0267 958.162 35.36C958.802 34.6667 959.122 33.84 959.122 32.88V23.08C959.122 22.6 959.028 22.16 958.842 21.76C958.682 21.3333 958.455 20.9733 958.162 20.68C957.868 20.36 957.522 20.1067 957.122 19.92C956.722 19.7333 956.295 19.64 955.842 19.64C955.602 19.64 955.295 19.6667 954.922 19.72C954.548 19.7467 954.148 19.8267 953.722 19.96C953.322 20.0667 952.908 20.2133 952.482 20.4C952.055 20.5867 951.642 20.8133 951.242 21.08V34.96ZM951.202 37.28V48H949.202V19.88L948.322 19.04L949.722 17.6L950.962 18.8C951.868 18.3467 952.748 18.04 953.602 17.88C954.455 17.6933 955.188 17.6 955.802 17.6C956.548 17.6 957.242 17.7467 957.882 18.04C958.522 18.3333 959.082 18.7333 959.562 19.24C960.042 19.7467 960.415 20.3467 960.682 21.04C960.975 21.7333 961.122 22.4667 961.122 23.24V32.76C961.122 33.5333 960.975 34.2667 960.682 34.96C960.415 35.6267 960.042 36.2267 959.562 36.76C959.082 37.2667 958.522 37.6667 957.882 37.96C957.242 38.2533 956.548 38.4 955.802 38.4C955.348 38.4 954.735 38.3467 953.962 38.24C953.188 38.16 952.268 37.84 951.202 37.28Z" fill="black"/>
<path d="M809.4 10H810.4V9H809.4V10ZM809.4 12.28V13.28H810.4V12.28H809.4ZM800.4 12.28V11.28H799.4V12.28H800.4ZM800.4 22.8H799.4V23.8H800.4V22.8ZM807.44 22.8H808.44V21.8H807.44V22.8ZM807.44 25.08V26.08H808.44V25.08H807.44ZM800.4 25.08V24.08H799.4V25.08H800.4ZM800.4 38V39H801.4V38H800.4ZM798.12 38H797.12V39H798.12V38ZM798.12 10V9H797.12V10H798.12ZM808.4 10V12.28H810.4V10H808.4ZM809.4 11.28H800.4V13.28H809.4V11.28ZM799.4 12.28V22.8H801.4V12.28H799.4ZM800.4 23.8H807.44V21.8H800.4V23.8ZM806.44 22.8V25.08H808.44V22.8H806.44ZM807.44 24.08H800.4V26.08H807.44V24.08ZM799.4 25.08V38H801.4V25.08H799.4ZM800.4 37H798.12V39H800.4V37ZM799.12 38V10H797.12V38H799.12ZM798.12 11H809.4V9H798.12V11ZM821.965 21.48L821.107 21.9945L821.113 22.0043L821.119 22.014L821.965 21.48ZM820.805 20.28L820.238 21.104L820.267 21.124L820.298 21.1419L820.805 20.28ZM819.405 19.72L819.188 20.6962L819.218 20.7029L819.249 20.7078L819.405 19.72ZM816.885 19.72L817.049 20.7064L817.07 20.7029L817.091 20.6985L816.885 19.72ZM815.485 20.28L815.992 21.1419L816.01 21.1311L816.028 21.1196L815.485 20.28ZM814.325 21.48L815.17 22.014L815.176 22.0043L815.182 21.9945L814.325 21.48ZM814.325 34.36L813.467 34.8745L813.473 34.8843L813.479 34.894L814.325 34.36ZM815.485 35.56L816.028 34.7204L816.028 34.7204L815.485 35.56ZM816.885 36.16L816.668 37.1362L816.698 37.1429L816.729 37.1478L816.885 36.16ZM819.405 36.16L819.569 37.1464L819.59 37.1429L819.611 37.1385L819.405 36.16ZM820.805 35.56L820.261 34.7204L820.25 34.728L820.238 34.736L820.805 35.56ZM821.965 34.36L822.81 34.894L822.816 34.8843L822.822 34.8745L821.965 34.36ZM823.605 35.48L824.459 35.999L824.459 35.999L823.605 35.48ZM821.965 37.24L822.495 38.088L822.507 38.0802L822.519 38.0721L821.965 37.24ZM819.965 38.04L820.154 39.022L819.965 38.04ZM816.365 38.04L816.176 39.022L816.176 39.022L816.365 38.04ZM814.365 37.24L813.81 38.0721L813.822 38.0802L813.835 38.088L814.365 37.24ZM812.725 35.48L813.579 34.961L813.579 34.961L812.725 35.48ZM812.725 20.32L813.579 20.839L813.579 20.839L812.725 20.32ZM816.365 17.8L816.554 18.782L816.554 18.782L816.365 17.8ZM819.965 17.8L819.776 18.782L819.776 18.782L819.965 17.8ZM821.965 18.6L822.495 17.752L822.495 17.752L821.965 18.6ZM823.605 20.32L824.459 19.801L824.459 19.801L823.605 20.32ZM823.445 32.24V23.56H821.445V32.24H823.445ZM823.445 23.56C823.445 22.5743 823.268 21.6707 822.81 20.946L821.119 22.014C821.301 22.3026 821.445 22.7857 821.445 23.56H823.445ZM822.822 20.9655C822.432 20.3151 821.933 19.7837 821.312 19.4181L820.298 21.1419C820.583 21.3097 820.857 21.5783 821.107 21.9945L822.822 20.9655ZM821.371 19.456C820.823 19.0789 820.216 18.8357 819.561 18.7322L819.249 20.7078C819.607 20.7643 819.933 20.8944 820.238 21.104L821.371 19.456ZM819.622 18.7438C819.097 18.6273 818.608 18.56 818.165 18.56V20.56C818.415 20.56 818.752 20.5993 819.188 20.6962L819.622 18.7438ZM818.165 18.56C817.724 18.56 817.223 18.6268 816.679 18.7414L817.091 20.6985C817.559 20.5999 817.912 20.56 818.165 20.56V18.56ZM816.72 18.7336C816.091 18.8385 815.497 19.0809 814.941 19.4404L816.028 21.1196C816.379 20.8924 816.718 20.7615 817.049 20.7064L816.72 18.7336ZM814.978 19.4181C814.356 19.7837 813.857 20.3151 813.467 20.9655L815.182 21.9945C815.432 21.5783 815.707 21.3097 815.992 21.1419L814.978 19.4181ZM813.479 20.946C813.021 21.6707 812.845 22.5743 812.845 23.56H814.845C814.845 22.7857 814.988 22.3026 815.17 22.014L813.479 20.946ZM812.845 23.56V32.24H814.845V23.56H812.845ZM812.845 32.24C812.845 33.2298 813.023 34.1342 813.467 34.8745L815.182 33.8455C814.986 33.5191 814.845 33.0102 814.845 32.24H812.845ZM813.479 34.894C813.868 35.5097 814.354 36.0192 814.941 36.3996L816.028 34.7204C815.709 34.5141 815.421 34.2237 815.17 33.826L813.479 34.894ZM814.941 36.3996C815.485 36.7511 816.061 37.0013 816.668 37.1362L817.102 35.1838C816.749 35.1053 816.391 34.9555 816.028 34.7204L814.941 36.3996ZM816.729 37.1478C817.265 37.2324 817.747 37.28 818.165 37.28V35.28C817.889 35.28 817.518 35.2476 817.041 35.1722L816.729 37.1478ZM818.165 37.28C818.583 37.28 819.055 37.2321 819.569 37.1464L819.24 35.1736C818.795 35.2479 818.439 35.28 818.165 35.28V37.28ZM819.611 37.1385C820.247 37.0047 820.836 36.7522 821.371 36.384L820.238 34.736C819.92 34.9545 819.576 35.102 819.199 35.1815L819.611 37.1385ZM821.348 36.3996C821.936 36.0192 822.421 35.5097 822.81 34.894L821.119 33.826C820.868 34.2237 820.58 34.5141 820.261 34.7204L821.348 36.3996ZM822.822 34.8745C823.266 34.1342 823.445 33.2298 823.445 32.24H821.445C821.445 33.0102 821.303 33.5191 821.107 33.8455L822.822 34.8745ZM823.285 32.52C823.285 33.6342 823.077 34.4217 822.75 34.961L824.459 35.999C825.039 35.0449 825.285 33.8591 825.285 32.52H823.285ZM822.75 34.961C822.362 35.5996 821.913 36.0728 821.41 36.4079L822.519 38.0721C823.297 37.5539 823.941 36.8537 824.459 35.999L822.75 34.961ZM821.435 36.392C820.892 36.7312 820.34 36.9495 819.776 37.058L820.154 39.022C820.976 38.8638 821.757 38.5488 822.495 38.088L821.435 36.392ZM819.776 37.058C819.122 37.1836 818.589 37.24 818.165 37.24V39.24C818.754 39.24 819.42 39.163 820.154 39.022L819.776 37.058ZM818.165 37.24C817.741 37.24 817.207 37.1836 816.554 37.058L816.176 39.022C816.909 39.163 817.575 39.24 818.165 39.24V37.24ZM816.554 37.058C815.989 36.9495 815.437 36.7312 814.895 36.392L813.835 38.088C814.572 38.5488 815.353 38.8638 816.176 39.022L816.554 37.058ZM814.919 36.4079C814.417 36.0728 813.967 35.5996 813.579 34.961L811.87 35.999C812.389 36.8537 813.033 37.5539 813.81 38.0721L814.919 36.4079ZM813.579 34.961C813.252 34.4217 813.045 33.6342 813.045 32.52H811.045C811.045 33.8591 811.291 35.0449 811.87 35.999L813.579 34.961ZM813.045 32.52V23.28H811.045V32.52H813.045ZM813.045 23.28C813.045 22.1658 813.252 21.3783 813.579 20.839L811.87 19.801C811.291 20.7551 811.045 21.9408 811.045 23.28H813.045ZM813.579 20.839C813.965 20.2048 814.407 19.7531 814.895 19.448L813.835 17.752C813.043 18.2469 812.392 18.9419 811.87 19.801L813.579 20.839ZM814.895 19.448C815.437 19.1088 815.989 18.8905 816.554 18.782L816.176 16.818C815.353 16.9762 814.572 17.2912 813.835 17.752L814.895 19.448ZM816.554 18.782C817.207 18.6564 817.741 18.6 818.165 18.6V16.6C817.575 16.6 816.909 16.677 816.176 16.818L816.554 18.782ZM818.165 18.6C818.589 18.6 819.122 18.6564 819.776 18.782L820.154 16.818C819.42 16.677 818.754 16.6 818.165 16.6V18.6ZM819.776 18.782C820.34 18.8905 820.892 19.1088 821.435 19.448L822.495 17.752C821.757 17.2912 820.976 16.9762 820.154 16.818L819.776 18.782ZM821.435 19.448C821.923 19.7531 822.365 20.2048 822.75 20.839L824.459 19.801C823.938 18.9419 823.287 18.2469 822.495 17.752L821.435 19.448ZM822.75 20.839C823.077 21.3783 823.285 22.1658 823.285 23.28H825.285C825.285 21.9408 825.039 20.7551 824.459 19.801L822.75 20.839ZM823.285 23.28V32.52H825.285V23.28H823.285ZM829.603 35.04L830.517 34.6339L830.511 34.6205L830.505 34.6073L829.603 35.04ZM829.043 33.04L828.046 33.1167L828.047 33.1197L829.043 33.04ZM828.963 18V17H827.963V18H828.963ZM831.043 18H832.043V17H831.043V18ZM831.323 34L830.38 34.3304L830.39 34.3595L830.402 34.3881L831.323 34ZM832.123 35.28L831.389 35.9583L831.402 35.973L831.416 35.9871L832.123 35.28ZM833.283 36.08L833.684 35.1638L833.684 35.1638L833.283 36.08ZM837.163 35.92L837.489 36.8657L837.497 36.8628L837.505 36.8598L837.163 35.92ZM839.203 34.92L839.789 35.7307L840.203 35.4313V34.92H839.203ZM839.203 18V17H838.203V18H839.203ZM841.243 18H842.243V17H841.243V18ZM841.243 36H840.243V36.4279L840.553 36.7234L841.243 36ZM842.123 36.84L842.831 37.5471L843.554 36.8234L842.814 36.1166L842.123 36.84ZM840.683 38.28L839.976 38.9871L840.683 39.6942L841.391 38.9871L840.683 38.28ZM839.483 37.08L840.191 36.3729L839.659 35.8411L839 36.2044L839.483 37.08ZM837.003 38L836.796 37.0218L836.782 37.0248L836.768 37.0281L837.003 38ZM831.803 37.6L831.326 38.4789L831.336 38.4842L831.346 38.4893L831.803 37.6ZM830.505 34.6073C830.233 34.0397 830.083 33.4921 830.04 32.9603L828.047 33.1197C828.111 33.9212 828.334 34.707 828.702 35.4727L830.505 34.6073ZM830.04 32.9633C829.989 32.2964 829.963 31.6153 829.963 30.92H827.963C827.963 31.6647 827.991 32.397 828.046 33.1167L830.04 32.9633ZM829.963 30.92V18H827.963V30.92H829.963ZM828.963 19H831.043V17H828.963V19ZM830.043 18V32.16H832.043V18H830.043ZM830.043 32.16C830.043 32.9412 830.148 33.6699 830.38 34.3304L832.267 33.6696C832.125 33.2635 832.043 32.7655 832.043 32.16H830.043ZM830.402 34.3881C830.653 34.9842 830.978 35.5136 831.389 35.9583L832.858 34.6017C832.629 34.353 832.421 34.0291 832.245 33.6119L830.402 34.3881ZM831.416 35.9871C831.846 36.4172 832.336 36.7569 832.883 36.9962L833.684 35.1638C833.378 35.0298 833.094 34.8361 832.831 34.5729L831.416 35.9871ZM832.883 36.9962C833.432 37.2366 834.008 37.36 834.603 37.36V35.36C834.292 35.36 833.988 35.2968 833.684 35.1638L832.883 36.9962ZM834.603 37.36C835.574 37.36 836.537 37.1929 837.489 36.8657L836.838 34.9743C836.084 35.2338 835.34 35.36 834.603 35.36V37.36ZM837.505 36.8598C838.428 36.5243 839.204 36.1534 839.789 35.7307L838.618 34.1093C838.243 34.38 837.659 34.6757 836.822 34.9802L837.505 36.8598ZM840.203 34.92V18H838.203V34.92H840.203ZM839.203 19H841.243V17H839.203V19ZM840.243 18V36H842.243V18H840.243ZM840.553 36.7234L841.433 37.5634L842.814 36.1166L841.934 35.2766L840.553 36.7234ZM841.416 36.1329L839.976 37.5729L841.391 38.9871L842.831 37.5471L841.416 36.1329ZM841.391 37.5729L840.191 36.3729L838.776 37.7871L839.976 38.9871L841.391 37.5729ZM839 36.2044C838.315 36.5826 837.581 36.8552 836.796 37.0218L837.211 38.9782C838.186 38.7715 839.105 38.4307 839.967 37.9556L839 36.2044ZM836.768 37.0281C835.943 37.2281 835.238 37.32 834.643 37.32V39.32C835.436 39.32 836.304 39.1985 837.239 38.9719L836.768 37.0281ZM834.643 37.32C833.857 37.32 833.066 37.1249 832.261 36.7107L831.346 38.4893C832.407 39.0351 833.51 39.32 834.643 39.32V37.32ZM832.281 36.7211C831.583 36.3425 830.983 35.6811 830.517 34.6339L828.69 35.4461C829.291 36.7989 830.157 37.8442 831.326 38.4789L832.281 36.7211ZM856.709 19.2L857.541 19.7547L858.141 18.8542L857.196 18.3268L856.709 19.2ZM855.589 20.88L855.082 21.7419L855.897 22.2212L856.421 21.4347L855.589 20.88ZM854.469 20.28L853.99 21.1579L854.022 21.1753L854.055 21.1904L854.469 20.28ZM853.629 19.92L853.313 20.8687L853.327 20.8735L853.342 20.8778L853.629 19.92ZM852.909 19.8L852.785 20.7923L852.847 20.8H852.909V19.8ZM850.549 20.12L850.843 21.0758L850.86 21.0707L850.876 21.065L850.549 20.12ZM848.469 21.4L847.791 20.6652L847.469 20.9622V21.4H848.469ZM848.469 37.96V38.96H849.469V37.96H848.469ZM846.469 37.96H845.469V38.96H846.469V37.96ZM846.469 20.28H847.469V19.8658L847.176 19.5729L846.469 20.28ZM845.429 19.24L844.712 18.5429L844.025 19.2499L844.722 19.9471L845.429 19.24ZM846.829 17.8L847.526 17.0827L846.809 16.3862L846.112 17.1029L846.829 17.8ZM848.229 19.16L847.532 19.8773L848.202 20.5276L848.897 19.9046L848.229 19.16ZM850.429 17.88L850.654 18.8544L850.667 18.8514L850.68 18.848L850.429 17.88ZM854.029 17.92L854.345 16.9713L854.345 16.9713L854.029 17.92ZM855.877 18.6453L854.757 20.3253L856.421 21.4347L857.541 19.7547L855.877 18.6453ZM856.096 20.0181C855.629 19.7432 855.222 19.5236 854.883 19.3696L854.055 21.1904C854.303 21.3031 854.643 21.4835 855.082 21.7419L856.096 20.0181ZM854.948 19.4021C854.605 19.2153 854.261 19.0656 853.916 18.9622L853.342 20.8778C853.53 20.9344 853.746 21.0247 853.99 21.1579L854.948 19.4021ZM853.945 18.9713C853.609 18.8592 853.262 18.8 852.909 18.8V20.8C853.036 20.8 853.169 20.8208 853.313 20.8687L853.945 18.9713ZM853.033 18.8077C852.77 18.7749 852.488 18.76 852.189 18.76V20.76C852.424 20.76 852.621 20.7718 852.785 20.7923L853.033 18.8077ZM852.189 18.76C851.621 18.76 850.948 18.9237 850.222 19.175L850.876 21.065C851.537 20.8363 851.957 20.76 852.189 20.76V18.76ZM850.255 19.1642C849.382 19.4327 848.562 19.9531 847.791 20.6652L849.147 22.1348C849.763 21.5669 850.329 21.234 850.843 21.0758L850.255 19.1642ZM847.469 21.4V37.96H849.469V21.4H847.469ZM848.469 36.96H846.469V38.96H848.469V36.96ZM847.469 37.96V20.28H845.469V37.96H847.469ZM847.176 19.5729L846.136 18.5329L844.722 19.9471L845.762 20.9871L847.176 19.5729ZM846.146 19.9371L847.546 18.4971L846.112 17.1029L844.712 18.5429L846.146 19.9371ZM846.132 18.5173L847.532 19.8773L848.926 18.4427L847.526 17.0827L846.132 18.5173ZM848.897 19.9046C849.598 19.2757 850.184 18.9629 850.654 18.8544L850.204 16.9056C849.288 17.1171 848.407 17.6576 847.562 18.4154L848.897 19.9046ZM850.68 18.848C851.353 18.6736 851.876 18.6 852.269 18.6V16.6C851.648 16.6 850.946 16.713 850.178 16.912L850.68 18.848ZM852.269 18.6C852.671 18.6 853.149 18.6808 853.713 18.8687L854.345 16.9713C853.629 16.7326 852.934 16.6 852.269 16.6V18.6ZM853.713 18.8687C854.261 19.0515 855.089 19.4408 856.222 20.0732L857.196 18.3268C856.036 17.6792 855.077 17.2151 854.345 16.9713L853.713 18.8687ZM861.152 19.96H862.152V18.96H861.152V19.96ZM857.752 19.96H856.752V20.96H857.752V19.96ZM857.752 17.96V16.96H856.752V17.96H857.752ZM861.152 17.96V18.96H862.152V17.96H861.152ZM861.152 10V9H860.152V10H861.152ZM863.272 10H864.272V9H863.272V10ZM863.272 17.96H862.272V18.96H863.272V17.96ZM866.952 17.96H867.952V16.96H866.952V17.96ZM866.952 19.96V20.96H867.952V19.96H866.952ZM863.272 19.96V18.96H862.272V19.96H863.272ZM864.072 35.28L863.447 36.0609L863.469 36.0779L863.491 36.0937L864.072 35.28ZM866.952 35.88H867.952V34.88H866.952V35.88ZM866.952 38.04V39.04H867.952V38.04H866.952ZM863.992 37.76L863.636 38.6945L863.662 38.7044L863.689 38.7129L863.992 37.76ZM862.512 36.84L861.805 37.5471L861.816 37.5585L861.828 37.5695L862.512 36.84ZM861.512 35.2L860.571 35.5387L860.571 35.5387L861.512 35.2ZM862.152 32.8V19.96H860.152V32.8H862.152ZM861.152 18.96H857.752V20.96H861.152V18.96ZM858.752 19.96V17.96H856.752V19.96H858.752ZM857.752 18.96H861.152V16.96H857.752V18.96ZM862.152 17.96V10H860.152V17.96H862.152ZM861.152 11H863.272V9H861.152V11ZM862.272 10V17.96H864.272V10H862.272ZM863.272 18.96H866.952V16.96H863.272V18.96ZM865.952 17.96V19.96H867.952V17.96H865.952ZM866.952 18.96H863.272V20.96H866.952V18.96ZM862.272 19.96V33H864.272V19.96H862.272ZM862.272 33C862.272 34.2151 862.564 35.3542 863.447 36.0609L864.697 34.4991C864.514 34.3525 864.272 33.9716 864.272 33H862.272ZM863.491 36.0937C864.241 36.6296 865.117 36.88 866.072 36.88V34.88C865.48 34.88 865.023 34.7304 864.653 34.4663L863.491 36.0937ZM866.072 36.88H866.952V34.88H866.072V36.88ZM865.952 35.88V38.04H867.952V35.88H865.952ZM866.952 37.04H865.872V39.04H866.952V37.04ZM865.872 37.04C865.3 37.04 864.776 36.9601 864.295 36.8071L863.689 38.7129C864.381 38.9333 865.111 39.04 865.872 39.04V37.04ZM864.348 36.8255C863.907 36.6573 863.525 36.4192 863.196 36.1105L861.828 37.5695C862.352 38.0608 862.958 38.436 863.636 38.6945L864.348 36.8255ZM863.219 36.1329C862.913 35.8269 862.652 35.4134 862.453 34.8613L860.571 35.5387C860.853 36.3199 861.258 36.9997 861.805 37.5471L863.219 36.1329ZM862.453 34.8613C862.262 34.3316 862.152 33.6524 862.152 32.8H860.152C860.152 33.8143 860.282 34.7351 860.571 35.5387L862.453 34.8613ZM880.136 38H879.136V39H880.136V38ZM879.176 20.68L878.441 21.3583L878.448 21.3655L878.455 21.3725L879.176 20.68ZM875.936 19.72L876.013 20.7171L876.051 20.7141L876.088 20.7084L875.936 19.72ZM873.496 20.36L873.897 21.2762L873.897 21.2762L873.496 20.36ZM872.256 21.04L871.702 20.2079L871.256 20.5048V21.04H872.256ZM872.256 38V39H873.256V38H872.256ZM870.216 38H869.216V39H870.216V38ZM870.216 10V9H869.216V10H870.216ZM872.216 10H873.216V9H872.216V10ZM872.216 18.72H871.216V20.3744L872.681 19.6054L872.216 18.72ZM874.976 17.76L875.079 18.7547L875.096 18.7529L875.113 18.7506L874.976 17.76ZM878.896 18.04L878.48 18.9491L878.48 18.9491L878.896 18.04ZM880.576 19.28L879.833 19.949L879.842 19.9585L879.85 19.9677L880.576 19.28ZM881.696 21.08L880.763 21.439L880.771 21.4611L880.781 21.4827L881.696 21.08ZM882.136 38V39H883.136V38H882.136ZM881.136 38V23.12H879.136V38H881.136ZM881.136 23.12C881.136 21.913 880.724 20.8482 879.898 19.9875L878.455 21.3725C878.909 21.8451 879.136 22.407 879.136 23.12H881.136ZM879.911 20.0017C879.084 19.1059 878.032 18.64 876.816 18.64V20.64C877.467 20.64 877.988 20.8675 878.441 21.3583L879.911 20.0017ZM876.816 18.64C876.508 18.64 876.16 18.6737 875.784 18.7316L876.088 20.7084C876.405 20.6596 876.645 20.64 876.816 20.64V18.64ZM875.86 18.7229C875.445 18.7549 875.001 18.833 874.534 18.9499L875.019 20.8901C875.405 20.7937 875.735 20.7385 876.013 20.7171L875.86 18.7229ZM874.534 18.9499C874.05 19.0708 873.57 19.2361 873.095 19.4438L873.897 21.2762C874.276 21.1106 874.649 20.9825 875.019 20.8901L874.534 18.9499ZM873.095 19.4438C872.613 19.6547 872.149 19.9098 871.702 20.2079L872.811 21.872C873.164 21.6368 873.526 21.4386 873.897 21.2762L873.095 19.4438ZM871.256 21.04V38H873.256V21.04H871.256ZM872.256 37H870.216V39H872.256V37ZM871.216 38V10H869.216V38H871.216ZM870.216 11H872.216V9H870.216V11ZM871.216 10V18.72H873.216V10H871.216ZM872.681 19.6054C873.69 19.0755 874.482 18.8164 875.079 18.7547L874.873 16.7653C873.924 16.8636 872.875 17.2445 871.751 17.8346L872.681 19.6054ZM875.113 18.7506C875.868 18.6464 876.43 18.6 876.816 18.6V16.6C876.296 16.6 875.631 16.6602 874.84 16.7694L875.113 18.7506ZM876.816 18.6C877.428 18.6 877.978 18.7192 878.48 18.9491L879.313 17.1309C878.534 16.7741 877.698 16.6 876.816 16.6V18.6ZM878.48 18.9491C878.993 19.1844 879.443 19.5151 879.833 19.949L881.32 18.611C880.75 17.9782 880.079 17.4823 879.313 17.1309L878.48 18.9491ZM879.85 19.9677C880.235 20.3734 880.54 20.8598 880.763 21.439L882.63 20.721C882.319 19.9135 881.878 19.1999 881.302 18.5923L879.85 19.9677ZM880.781 21.4827C881.015 22.0147 881.136 22.5966 881.136 23.24H883.136C883.136 22.3367 882.964 21.4786 882.612 20.6773L880.781 21.4827ZM881.136 23.24V38H883.136V23.24H881.136ZM882.136 37H880.136V39H882.136V37ZM918.406 32.96L917.48 32.5843L917.475 32.5952L917.471 32.6061L918.406 32.96ZM916.806 35.56L916.073 34.8795L916.072 34.8806L916.806 35.56ZM914.406 37.32L914.822 38.2295L914.833 38.2246L914.843 38.2195L914.406 37.32ZM908.366 37.56L908.627 36.5946L908.366 37.56ZM905.726 36.68L906.109 35.756L906.107 35.7553L905.726 36.68ZM903.126 35.36L902.186 35.0183L901.907 35.7858L902.604 36.2126L903.126 35.36ZM903.926 33.16L904.394 32.2762L903.379 31.7388L902.986 32.8183L903.926 33.16ZM906.606 34.4L906.24 35.3305L906.252 35.335L906.606 34.4ZM909.046 35.24L908.748 36.1945L908.762 36.1988L908.776 36.2027L909.046 35.24ZM913.446 35.16L913.044 34.2447L913.037 34.2478L913.03 34.2509L913.446 35.16ZM915.166 33.96L915.892 34.6477L915.901 34.6385L915.91 34.629L915.166 33.96ZM916.286 32.12L915.353 31.761L915.353 31.761L916.286 32.12ZM916.126 27.84L915.294 28.3947L915.301 28.4042L915.307 28.4135L916.126 27.84ZM914.686 26.48L914.132 27.312L914.154 27.3271L914.178 27.3409L914.686 26.48ZM912.806 25.64L912.512 26.5958L912.529 26.601L912.546 26.6056L912.806 25.64ZM910.766 25.16L910.606 26.1471L910.608 26.1474L910.766 25.16ZM907.966 24.32L907.542 25.2255L907.552 25.2304L907.966 24.32ZM905.686 22.76L904.979 23.4671L904.986 23.4743L904.994 23.4814L905.686 22.76ZM904.166 20.52L903.25 20.9208L903.25 20.9208L904.166 20.52ZM904.166 14.56L903.24 14.1843L903.237 14.1909L903.234 14.1976L904.166 14.56ZM905.766 12L905.033 11.3195L905.032 11.3206L905.766 12ZM908.166 10.24L908.592 11.1448L908.592 11.1448L908.166 10.24ZM913.006 9.84L912.773 10.8124L912.795 10.8177L912.817 10.822L913.006 9.84ZM914.926 10.28L915.231 9.32757L915.21 9.32095L915.189 9.31524L914.926 10.28ZM916.886 10.96L917.833 11.2813L918.145 10.3638L917.237 10.0237L916.886 10.96ZM916.126 13.2L915.748 14.1255L916.732 14.5281L917.073 13.5213L916.126 13.2ZM914.326 12.56L914.617 11.6033L914.614 11.6022L914.326 12.56ZM912.646 12.12L912.868 11.1449L912.868 11.1449L912.646 12.12ZM908.926 12.4L909.358 13.3021L909.366 13.2983L909.373 13.2944L908.926 12.4ZM907.326 13.64L908.071 14.3068L908.08 14.2973L908.088 14.2876L907.326 13.64ZM906.246 15.44L907.175 15.8114L907.18 15.799L906.246 15.44ZM906.326 19.72L905.432 20.1672L905.443 20.1899L905.456 20.2121L906.326 19.72ZM907.606 21.28L906.962 22.0449L906.972 22.053L906.982 22.0609L907.606 21.28ZM909.366 22.32L908.982 23.2431L908.998 23.25L909.015 23.2563L909.366 22.32ZM911.206 22.84L911.027 23.8239L911.038 23.8257L911.206 22.84ZM914.246 23.64L913.898 24.5775L913.907 24.5806L914.246 23.64ZM916.726 25L916.098 25.7779L916.114 25.7911L916.131 25.8036L916.726 25ZM918.406 27L917.512 27.4472L917.512 27.4472L918.406 27ZM918.006 29.8C918.006 30.798 917.829 31.7231 917.48 32.5843L919.333 33.3357C919.784 32.2236 920.006 31.042 920.006 29.8H918.006ZM917.471 32.6061C917.142 33.4762 916.676 34.231 916.073 34.8795L917.539 36.2405C918.323 35.3957 918.924 34.4171 919.342 33.3139L917.471 32.6061ZM916.072 34.8806C915.495 35.5043 914.797 36.0183 913.969 36.4205L914.843 38.2195C915.882 37.715 916.784 37.0557 917.54 36.2394L916.072 34.8806ZM913.99 36.4105C913.193 36.7752 912.335 36.96 911.406 36.96V38.96C912.611 38.96 913.753 38.7182 914.822 38.2295L913.99 36.4105ZM911.406 36.96C910.453 36.96 909.527 36.8379 908.627 36.5946L908.105 38.5254C909.179 38.8154 910.28 38.96 911.406 38.96V36.96ZM908.627 36.5946C907.673 36.3368 906.835 36.0565 906.109 35.756L905.344 37.604C906.164 37.9435 907.086 38.2499 908.105 38.5254L908.627 36.5946ZM906.107 35.7553C905.249 35.402 904.43 34.986 903.649 34.5074L902.604 36.2126C903.476 36.7473 904.39 37.2114 905.346 37.6047L906.107 35.7553ZM904.066 35.7017L904.866 33.5017L902.986 32.8183L902.186 35.0183L904.066 35.7017ZM903.458 34.0438C904.395 34.5398 905.322 34.969 906.24 35.3304L906.973 33.4696C906.13 33.1377 905.271 32.7402 904.394 32.2762L903.458 34.0438ZM906.252 35.335C907.045 35.6359 907.877 35.9224 908.748 36.1945L909.345 34.2855C908.509 34.0243 907.714 33.7507 906.961 33.465L906.252 35.335ZM908.776 36.2027C909.694 36.4609 910.56 36.6 911.366 36.6V34.6C910.786 34.6 910.105 34.4991 909.317 34.2773L908.776 36.2027ZM911.366 36.6C912.248 36.6 913.084 36.4259 913.863 36.0691L913.03 34.2509C912.528 34.4808 911.978 34.6 911.366 34.6V36.6ZM913.849 36.0753C914.632 35.7308 915.317 35.2552 915.892 34.6477L914.44 33.2723C914.056 33.6781 913.594 34.0026 913.044 34.2447L913.849 36.0753ZM915.91 34.629C916.474 34.0016 916.911 33.2823 917.22 32.479L915.353 31.761C915.129 32.3444 914.818 32.8518 914.423 33.291L915.91 34.629ZM917.22 32.479C917.534 31.6625 917.686 30.7932 917.686 29.88H915.686C915.686 30.5668 915.572 31.1908 915.353 31.761L917.22 32.479ZM917.686 29.88C917.686 28.9036 917.465 28.0083 916.945 27.2665L915.307 28.4135C915.534 28.7384 915.686 29.203 915.686 29.88H917.686ZM916.958 27.2853C916.501 26.5986 915.909 26.0412 915.195 25.6191L914.178 27.3409C914.636 27.6121 915.005 27.9614 915.294 28.3947L916.958 27.2853ZM915.241 25.6479C914.585 25.2105 913.857 24.8874 913.066 24.6744L912.546 26.6056C913.142 26.7659 913.668 27.0029 914.132 27.312L915.241 25.6479ZM913.1 24.6842C912.366 24.4582 911.64 24.2871 910.924 24.1726L910.608 26.1474C911.226 26.2462 911.86 26.3952 912.512 26.5958L913.1 24.6842ZM910.926 24.1729C910.024 24.0266 909.177 23.7717 908.38 23.4096L907.552 25.2304C908.516 25.6683 909.535 25.9734 910.606 26.1471L910.926 24.1729ZM908.391 23.4145C907.634 23.0599 906.965 22.6015 906.379 22.0386L904.994 23.4814C905.741 24.1985 906.592 24.7801 907.542 25.2255L908.391 23.4145ZM906.393 22.0529C905.844 21.5036 905.407 20.8617 905.082 20.1192L903.25 20.9208C903.672 21.885 904.248 22.7364 904.979 23.4671L906.393 22.0529ZM905.082 20.1192C904.772 19.4093 904.606 18.5886 904.606 17.64H902.606C902.606 18.8247 902.814 19.924 903.25 20.9208L905.082 20.1192ZM904.606 17.64C904.606 16.663 904.773 15.7599 905.098 14.9224L903.234 14.1976C902.813 15.2801 902.606 16.4304 902.606 17.64H904.606ZM905.093 14.9357C905.451 14.0515 905.922 13.3034 906.5 12.6794L905.032 11.3206C904.277 12.1366 903.681 13.0951 903.24 14.1843L905.093 14.9357ZM906.499 12.6804C907.107 12.0259 907.803 11.5161 908.592 11.1448L907.74 9.33518C906.716 9.81724 905.812 10.4808 905.033 11.3195L906.499 12.6804ZM908.592 11.1448C909.364 10.7816 910.178 10.6 911.046 10.6V8.6C909.887 8.6 908.782 8.84511 907.74 9.33518L908.592 11.1448ZM911.046 10.6C911.602 10.6 912.177 10.6694 912.773 10.8124L913.24 8.86761C912.502 8.69056 911.77 8.6 911.046 8.6V10.6ZM912.817 10.822C913.49 10.9513 914.105 11.0924 914.663 11.2448L915.189 9.31524C914.575 9.14758 913.91 8.99538 913.195 8.85799L912.817 10.822ZM914.621 11.2324C915.273 11.4409 915.911 11.6622 916.535 11.8963L917.237 10.0237C916.582 9.77779 915.913 9.54577 915.231 9.32757L914.621 11.2324ZM915.939 10.6387L915.179 12.8787L917.073 13.5213L917.833 11.2813L915.939 10.6387ZM916.505 12.2745C915.889 12.0226 915.26 11.7989 914.617 11.6033L914.035 13.5167C914.619 13.6944 915.19 13.8974 915.748 14.1255L916.505 12.2745ZM914.614 11.6022C914.057 11.4352 913.475 11.2828 912.868 11.1449L912.425 13.0951C912.991 13.2238 913.529 13.3648 914.039 13.5178L914.614 11.6022ZM912.868 11.1449C912.218 10.9971 911.583 10.92 910.966 10.92V12.92C911.416 12.92 911.902 12.9763 912.425 13.0951L912.868 11.1449ZM910.966 10.92C910.092 10.92 909.259 11.1157 908.479 11.5056L909.373 13.2944C909.874 13.0443 910.4 12.92 910.966 12.92V10.92ZM908.495 11.4979C907.751 11.8537 907.106 12.3552 906.564 12.9924L908.088 14.2876C908.453 13.8582 908.875 13.533 909.358 13.3021L908.495 11.4979ZM906.581 12.9732C906.04 13.5782 905.619 14.285 905.313 15.081L907.18 15.799C907.407 15.2083 907.706 14.7151 908.071 14.3068L906.581 12.9732ZM905.318 15.0686C905.004 15.8537 904.846 16.6731 904.846 17.52H906.846C906.846 16.9269 906.955 16.3596 907.175 15.8114L905.318 15.0686ZM904.846 17.52C904.846 18.4778 905.032 19.3683 905.432 20.1672L907.221 19.2728C906.98 18.7917 906.846 18.2156 906.846 17.52H904.846ZM905.456 20.2121C905.857 20.9225 906.359 21.5367 906.962 22.0449L908.25 20.5151C907.841 20.1699 907.489 19.7442 907.197 19.2279L905.456 20.2121ZM906.982 22.0609C907.589 22.5468 908.257 22.941 908.982 23.2431L909.751 21.3969C909.196 21.1657 908.69 20.8665 908.231 20.4991L906.982 22.0609ZM909.015 23.2563C909.703 23.5143 910.374 23.7051 911.027 23.8239L911.385 21.8561C910.865 21.7616 910.309 21.6057 909.717 21.3837L909.015 23.2563ZM911.038 23.8257C912.077 24.0031 913.029 24.2547 913.898 24.5774L914.594 22.7026C913.597 22.332 912.522 22.0502 911.375 21.8543L911.038 23.8257ZM913.907 24.5806C914.777 24.8948 915.503 25.2972 916.098 25.7779L917.355 24.2221C916.563 23.5828 915.636 23.0785 914.586 22.6994L913.907 24.5806ZM916.131 25.8036C916.725 26.2435 917.182 26.7881 917.512 27.4472L919.301 26.5528C918.83 25.6119 918.168 24.8232 917.321 24.1964L916.131 25.8036ZM917.512 27.4472C917.83 28.0841 918.006 28.8589 918.006 29.8H920.006C920.006 28.6077 919.782 27.5159 919.301 26.5528L917.512 27.4472ZM923.808 19.96H924.808V18.96H923.808V19.96ZM920.408 19.96H919.408V20.96H920.408V19.96ZM920.408 17.96V16.96H919.408V17.96H920.408ZM923.808 17.96V18.96H924.808V17.96H923.808ZM923.808 10V9H922.808V10H923.808ZM925.928 10H926.928V9H925.928V10ZM925.928 17.96H924.928V18.96H925.928V17.96ZM929.608 17.96H930.608V16.96H929.608V17.96ZM929.608 19.96V20.96H930.608V19.96H929.608ZM925.928 19.96V18.96H924.928V19.96H925.928ZM926.728 35.28L926.104 36.0609L926.125 36.0779L926.147 36.0937L926.728 35.28ZM929.608 35.88H930.608V34.88H929.608V35.88ZM929.608 38.04V39.04H930.608V38.04H929.608ZM926.648 37.76L926.292 38.6945L926.319 38.7044L926.345 38.7129L926.648 37.76ZM925.168 36.84L924.461 37.5471L924.473 37.5585L924.484 37.5695L925.168 36.84ZM924.168 35.2L923.228 35.5387L923.228 35.5387L924.168 35.2ZM924.808 32.8V19.96H922.808V32.8H924.808ZM923.808 18.96H920.408V20.96H923.808V18.96ZM921.408 19.96V17.96H919.408V19.96H921.408ZM920.408 18.96H923.808V16.96H920.408V18.96ZM924.808 17.96V10H922.808V17.96H924.808ZM923.808 11H925.928V9H923.808V11ZM924.928 10V17.96H926.928V10H924.928ZM925.928 18.96H929.608V16.96H925.928V18.96ZM928.608 17.96V19.96H930.608V17.96H928.608ZM929.608 18.96H925.928V20.96H929.608V18.96ZM924.928 19.96V33H926.928V19.96H924.928ZM924.928 33C924.928 34.2151 925.22 35.3542 926.104 36.0609L927.353 34.4991C927.17 34.3525 926.928 33.9716 926.928 33H924.928ZM926.147 36.0937C926.897 36.6296 927.774 36.88 928.728 36.88V34.88C928.137 34.88 927.679 34.7304 927.31 34.4663L926.147 36.0937ZM928.728 36.88H929.608V34.88H928.728V36.88ZM928.608 35.88V38.04H930.608V35.88H928.608ZM929.608 37.04H928.528V39.04H929.608V37.04ZM928.528 37.04C927.956 37.04 927.432 36.9601 926.952 36.8071L926.345 38.7129C927.038 38.9333 927.767 39.04 928.528 39.04V37.04ZM927.004 36.8255C926.563 36.6573 926.182 36.4192 925.852 36.1105L924.484 37.5695C925.008 38.0608 925.614 38.436 926.292 38.6945L927.004 36.8255ZM925.876 36.1329C925.57 35.8269 925.308 35.4134 925.109 34.8613L923.228 35.5387C923.509 36.3199 923.914 36.9997 924.461 37.5471L925.876 36.1329ZM925.109 34.8613C924.919 34.3316 924.808 33.6524 924.808 32.8H922.808C922.808 33.8143 922.938 34.7351 923.228 35.5387L925.109 34.8613ZM939.313 28.36L939.304 29.36H939.313V28.36ZM940.713 28.08L941.135 28.9862L941.16 28.9749L941.183 28.9624L940.713 28.08ZM941.753 27.28L942.49 27.9557L942.503 27.9411L942.516 27.9259L941.753 27.28ZM942.433 26.12L941.516 25.7192L941.506 25.7438L941.496 25.7689L942.433 26.12ZM942.353 21.48L941.469 21.9479L941.475 21.9592L941.481 21.9703L942.353 21.48ZM941.393 20.4L940.811 21.2137L940.824 21.2231L940.838 21.232L941.393 20.4ZM940.033 19.84L939.778 20.8071L939.807 20.8147L939.836 20.8206L940.033 19.84ZM936.953 19.88L936.636 18.9313L936.628 18.9341L936.62 18.937L936.953 19.88ZM935.753 20.56L936.398 21.3234L936.398 21.3234L935.753 20.56ZM934.913 21.64L934.018 21.1928L934.018 21.1928L934.913 21.64ZM934.593 28.32H933.593V29.3116L934.584 29.32L934.593 28.32ZM932.913 21.04L931.992 20.6504L931.985 20.6656L931.979 20.681L932.913 21.04ZM934.073 19.24L933.365 18.5329L933.356 18.5424L933.347 18.5523L934.073 19.24ZM935.793 18.04L935.39 17.1247L935.383 17.1278L935.376 17.1309L935.793 18.04ZM941.433 18.04L941.03 18.9553L941.03 18.9553L941.433 18.04ZM944.353 21.04L943.419 21.399L943.425 21.4144L943.432 21.4296L944.353 21.04ZM944.193 27.44L945.074 27.9122L945.077 27.9058L945.081 27.8994L944.193 27.44ZM942.553 29.28L943.122 30.1022L943.122 30.1022L942.553 29.28ZM940.113 30.32L940.314 31.2995L940.325 31.2973L940.335 31.2949L940.113 30.32ZM935.913 30.56L935.85 31.5581L935.85 31.5581L935.913 30.56ZM934.593 30.44L934.709 29.4468L933.593 29.3155V30.44H934.593ZM934.593 32.84H933.593V32.9268L933.607 33.0124L934.593 32.84ZM936.073 35.4L935.448 36.1809L935.462 36.1922L935.477 36.2031L936.073 35.4ZM939.873 36.16L940.06 37.1423L940.077 37.139L940.094 37.1351L939.873 36.16ZM941.713 35.76L941.916 36.739L941.922 36.7378L941.713 35.76ZM944.193 35.2L945.168 34.9792L944.945 33.9956L943.963 34.2266L944.193 35.2ZM944.673 37.32L944.884 38.2974L945.871 38.084L945.648 37.0992L944.673 37.32ZM941.993 37.84L941.828 36.8536L941.816 36.8556L941.804 36.858L941.993 37.84ZM939.993 38.2L939.828 37.2136L939.821 37.2148L939.993 38.2ZM936.433 37.92L936.05 38.844L936.064 38.8497L936.078 38.855L936.433 37.92ZM934.393 36.6L933.702 37.3234L933.702 37.3234L934.393 36.6ZM932.993 34.64L932.068 35.0224L932.077 35.0419L932.085 35.0611L932.993 34.64ZM939.313 29.36H939.393V27.36H939.313V29.36ZM939.393 29.36C940.006 29.36 940.592 29.2399 941.135 28.9862L940.29 27.1738C940.033 27.2934 939.739 27.36 939.393 27.36V29.36ZM941.183 28.9624C941.679 28.6981 942.116 28.3629 942.49 27.9557L941.015 26.6043C940.802 26.8371 940.546 27.0352 940.242 27.1976L941.183 28.9624ZM942.516 27.9259C942.884 27.4913 943.169 27.0049 943.369 26.4711L941.496 25.7689C941.376 26.0885 941.208 26.3753 940.989 26.6341L942.516 27.9259ZM943.349 26.5208C943.592 25.9638 943.713 25.3736 943.713 24.76H941.713C941.713 25.1064 941.646 25.4228 941.516 25.7192L943.349 26.5208ZM943.713 24.76V23.08H941.713V24.76H943.713ZM943.713 23.08C943.713 22.3195 943.57 21.6052 943.224 20.9897L941.481 21.9703C941.615 22.2081 941.713 22.5605 941.713 23.08H943.713ZM943.236 21.0121C942.924 20.4221 942.495 19.9329 941.947 19.5679L940.838 21.232C941.09 21.4004 941.301 21.6313 941.469 21.9479L943.236 21.0121ZM941.974 19.5863C941.466 19.2235 940.875 18.9888 940.229 18.8594L939.836 20.8206C940.256 20.9046 940.572 21.0431 940.811 21.2137L941.974 19.5863ZM940.287 18.8729C939.692 18.7163 939.073 18.64 938.433 18.64V20.64C938.912 20.64 939.36 20.697 939.778 20.8071L940.287 18.8729ZM938.433 18.64C937.819 18.64 937.218 18.7373 936.636 18.9313L937.269 20.8287C937.647 20.7027 938.033 20.64 938.433 20.64V18.64ZM936.62 18.937C936.059 19.135 935.551 19.4204 935.107 19.7966L936.398 21.3234C936.647 21.1129 936.94 20.945 937.285 20.823L936.62 18.937ZM935.107 19.7966C934.651 20.1818 934.289 20.6512 934.018 21.1928L935.807 22.0872C935.963 21.7755 936.16 21.5249 936.398 21.3234L935.107 19.7966ZM934.018 21.1928C933.727 21.774 933.593 22.4099 933.593 23.08H935.593C935.593 22.6834 935.671 22.3594 935.807 22.0872L934.018 21.1928ZM933.593 23.08V28.32H935.593V23.08H933.593ZM934.584 29.32L939.304 29.36L939.321 27.36L934.601 27.32L934.584 29.32ZM933.513 23.28C933.513 22.5932 933.627 21.9692 933.846 21.399L931.979 20.681C931.665 21.4975 931.513 22.3668 931.513 23.28H933.513ZM933.833 21.4296C934.084 20.8378 934.407 20.3409 934.798 19.9277L933.347 18.5523C932.778 19.1524 932.328 19.8555 931.992 20.6504L933.833 21.4296ZM934.78 19.9471C935.204 19.523 935.679 19.192 936.209 18.9491L935.376 17.1309C934.626 17.4747 933.955 17.9437 933.365 18.5329L934.78 19.9471ZM936.195 18.9553C936.727 18.7212 937.309 18.6 937.953 18.6V16.6C937.049 16.6 936.191 16.7721 935.39 17.1247L936.195 18.9553ZM937.953 18.6H939.313V16.6H937.953V18.6ZM939.313 18.6C939.924 18.6 940.493 18.7193 941.03 18.9553L941.835 17.1247C941.038 16.7741 940.194 16.6 939.313 16.6V18.6ZM941.03 18.9553C941.585 19.1996 942.068 19.5296 942.485 19.9471L943.9 18.5329C943.304 17.9371 942.613 17.4671 941.835 17.1247L941.03 18.9553ZM942.485 19.9471C942.889 20.3512 943.201 20.8313 943.419 21.399L945.286 20.681C944.971 19.862 944.509 19.1422 943.9 18.5329L942.485 19.9471ZM943.432 21.4296C943.669 21.9921 943.793 22.6053 943.793 23.28H945.793C945.793 22.3546 945.622 21.4746 945.273 20.6504L943.432 21.4296ZM943.793 23.28V24.6H945.793V23.28H943.793ZM943.793 24.6C943.793 25.6045 943.613 26.3841 943.304 26.9806L945.081 27.8994C945.572 26.9493 945.793 25.8355 945.793 24.6H943.793ZM943.311 26.9678C942.986 27.5753 942.546 28.0685 941.983 28.4578L943.122 30.1022C943.946 29.5315 944.599 28.798 945.074 27.9122L943.311 26.9678ZM941.983 28.4578C941.408 28.8562 940.716 29.1564 939.89 29.3451L940.335 31.2949C941.376 31.057 942.31 30.6638 943.122 30.1022L941.983 28.4578ZM939.911 29.3405C939.078 29.512 938.173 29.6 937.193 29.6V31.6C938.292 31.6 939.334 31.5013 940.314 31.2995L939.911 29.3405ZM937.193 29.6C936.787 29.6 936.381 29.5873 935.975 29.5619L935.85 31.5581C936.298 31.586 936.745 31.6 937.193 31.6V29.6ZM935.975 29.5619C935.568 29.5365 935.146 29.4982 934.709 29.4468L934.476 31.4332C934.946 31.4885 935.404 31.5302 935.85 31.5581L935.975 29.5619ZM933.593 30.44V32.84H935.593V30.44H933.593ZM933.607 33.0124C933.834 34.3041 934.446 35.3795 935.448 36.1809L936.697 34.6191C936.099 34.1405 935.725 33.5092 935.578 32.6676L933.607 33.0124ZM935.477 36.2031C936.478 36.9457 937.62 37.32 938.873 37.32V35.32C938.045 35.32 937.321 35.0809 936.668 34.5969L935.477 36.2031ZM938.873 37.32C939.02 37.32 939.21 37.2915 939.36 37.2674C939.541 37.2385 939.776 37.1964 940.06 37.1423L939.685 35.1777C939.409 35.2302 939.197 35.2681 939.045 35.2926C938.968 35.3048 938.912 35.3127 938.875 35.3173C938.827 35.3231 938.836 35.32 938.873 35.32V37.32ZM940.094 37.1351C940.674 37.0032 941.282 36.8712 941.916 36.739L941.509 34.781C940.863 34.9155 940.244 35.0501 939.651 35.1849L940.094 37.1351ZM941.922 36.7378C942.676 36.5761 943.51 36.388 944.422 36.1734L943.963 34.2266C943.062 34.4387 942.242 34.6239 941.503 34.7822L941.922 36.7378ZM943.217 35.4208L943.697 37.5408L945.648 37.0992L945.168 34.9792L943.217 35.4208ZM944.461 36.3426C943.486 36.5533 942.609 36.7234 941.828 36.8536L942.157 38.8264C942.976 38.6899 943.885 38.5133 944.884 38.2974L944.461 36.3426ZM941.804 36.858C941.118 36.9899 940.459 37.1084 939.828 37.2136L940.157 39.1864C940.806 39.0783 941.481 38.9568 942.181 38.822L941.804 36.858ZM939.821 37.2148C939.519 37.2673 939.283 37.3054 939.111 37.3301C938.916 37.358 938.857 37.36 938.873 37.36V39.36C939.021 39.36 939.216 39.3354 939.394 39.3099C939.595 39.2812 939.853 39.2393 940.164 39.1852L939.821 37.2148ZM938.873 37.36C938.136 37.36 937.444 37.234 936.787 36.985L936.078 38.855C936.968 39.1927 937.902 39.36 938.873 39.36V37.36ZM936.815 36.996C936.152 36.7217 935.577 36.3486 935.083 35.8766L933.702 37.3234C934.381 37.9714 935.166 38.4783 936.05 38.844L936.815 36.996ZM935.083 35.8766C934.588 35.4043 934.194 34.8539 933.9 34.2189L932.085 35.0611C932.484 35.9194 933.024 36.6757 933.702 37.3234L935.083 35.8766ZM933.917 34.2576C933.651 33.6153 933.513 32.9065 933.513 32.12H931.513C931.513 33.1468 931.694 34.118 932.068 35.0224L933.917 34.2576ZM933.513 32.12V23.28H931.513V32.12H933.513ZM951.242 34.96H950.242V35.4952L950.687 35.7921L951.242 34.96ZM953.642 35.96L953.94 35.0055L953.94 35.0055L953.642 35.96ZM954.842 36.28L954.632 37.2578L954.67 37.266L954.709 37.2712L954.842 36.28ZM958.162 35.36L958.883 36.0525L958.89 36.0455L958.896 36.0383L958.162 35.36ZM958.842 21.76L957.905 22.1111L957.919 22.1476L957.935 22.1829L958.842 21.76ZM958.162 20.68L957.424 21.3557L957.439 21.3717L957.454 21.3871L958.162 20.68ZM957.122 19.92L956.699 20.8262L956.699 20.8262L957.122 19.92ZM954.922 19.72L954.993 20.7175L955.028 20.7149L955.063 20.7099L954.922 19.72ZM953.722 19.96L953.979 20.9262L954 20.9208L954.02 20.9145L953.722 19.96ZM952.482 20.4L952.081 19.4838L952.081 19.4838L952.482 20.4ZM951.242 21.08L950.687 20.2479L950.242 20.5448V21.08H951.242ZM951.202 37.28L951.666 36.3946L950.202 35.6256V37.28H951.202ZM951.202 48V49H952.202V48H951.202ZM949.202 48H948.202V49H949.202V48ZM949.202 19.88H950.202V19.4521L949.892 19.1566L949.202 19.88ZM948.322 19.04L947.605 18.3429L946.901 19.0665L947.631 19.7634L948.322 19.04ZM949.722 17.6L950.417 16.8814L949.7 16.1876L949.005 16.9029L949.722 17.6ZM950.962 18.8L950.266 19.5186L950.775 20.0112L951.409 19.6944L950.962 18.8ZM953.602 17.88L953.786 18.8629L953.801 18.8601L953.815 18.8569L953.602 17.88ZM957.882 18.04L957.465 18.9491L957.465 18.9491L957.882 18.04ZM959.562 19.24L958.836 19.9277L958.836 19.9277L959.562 19.24ZM960.682 21.04L959.748 21.399L959.754 21.4144L959.761 21.4296L960.682 21.04ZM960.682 34.96L959.761 34.5704L959.757 34.5794L959.753 34.5886L960.682 34.96ZM959.562 36.76L960.288 37.4477L960.296 37.4385L960.305 37.429L959.562 36.76ZM957.882 37.96L957.465 37.0509L957.465 37.0509L957.882 37.96ZM953.962 38.24L954.098 37.2494L954.081 37.2471L954.064 37.2453L953.962 38.24ZM950.687 35.7921C951.081 36.0548 951.525 36.2743 952.01 36.4563L952.713 34.5837C952.345 34.4457 952.042 34.2919 951.796 34.1279L950.687 35.7921ZM952.01 36.4563C952.454 36.6227 952.898 36.7755 953.343 36.9145L953.94 35.0055C953.531 34.8778 953.122 34.7373 952.713 34.5837L952.01 36.4563ZM953.343 36.9145C953.794 37.0554 954.224 37.1704 954.632 37.2578L955.051 35.3022C954.712 35.2296 954.342 35.1312 953.94 35.0055L953.343 36.9145ZM954.709 37.2712C955.128 37.327 955.498 37.36 955.802 37.36V35.36C955.625 35.36 955.355 35.3396 954.974 35.2888L954.709 37.2712ZM955.802 37.36C957.004 37.36 958.052 36.9178 958.883 36.0525L957.44 34.6675C956.991 35.1355 956.466 35.36 955.802 35.36V37.36ZM958.896 36.0383C959.71 35.1567 960.122 34.0865 960.122 32.88H958.122C958.122 33.5935 957.893 34.1766 957.427 34.6817L958.896 36.0383ZM960.122 32.88V23.08H958.122V32.88H960.122ZM960.122 23.08C960.122 22.4668 960.001 21.8808 959.748 21.3371L957.935 22.1829C958.055 22.4392 958.122 22.7332 958.122 23.08H960.122ZM959.778 21.4089C959.573 20.8618 959.273 20.3767 958.869 19.9729L957.454 21.3871C957.637 21.5699 957.79 21.8048 957.905 22.1111L959.778 21.4089ZM958.899 20.0043C958.515 19.5859 958.061 19.255 957.544 19.0138L956.699 20.8262C956.982 20.9583 957.221 21.1341 957.424 21.3557L958.899 20.0043ZM957.544 19.0138C957.008 18.7637 956.437 18.64 955.842 18.64V20.64C956.153 20.64 956.435 20.703 956.699 20.8262L957.544 19.0138ZM955.842 18.64C955.535 18.64 955.177 18.6733 954.78 18.73L955.063 20.7099C955.413 20.66 955.668 20.64 955.842 20.64V18.64ZM954.85 18.7225C954.387 18.7557 953.91 18.8534 953.423 19.0055L954.02 20.9145C954.387 20.7999 954.71 20.7377 954.993 20.7175L954.85 18.7225ZM953.464 18.9938C953.009 19.115 952.548 19.2794 952.081 19.4838L952.882 21.3162C953.268 21.1473 953.634 21.0184 953.979 20.9262L953.464 18.9938ZM952.081 19.4838C951.599 19.6947 951.134 19.9498 950.687 20.2479L951.796 21.912C952.149 21.6768 952.511 21.4786 952.882 21.3162L952.081 19.4838ZM950.242 21.08V34.96H952.242V21.08H950.242ZM950.202 37.28V48H952.202V37.28H950.202ZM951.202 47H949.202V49H951.202V47ZM950.202 48V19.88H948.202V48H950.202ZM949.892 19.1566L949.012 18.3166L947.631 19.7634L948.511 20.6034L949.892 19.1566ZM949.039 19.7371L950.439 18.2971L949.005 16.9029L947.605 18.3429L949.039 19.7371ZM949.026 18.3186L950.266 19.5186L951.657 18.0814L950.417 16.8814L949.026 18.3186ZM951.409 19.6944C952.246 19.2759 953.038 19.0032 953.786 18.8629L953.417 16.8971C952.459 17.0768 951.491 17.4175 950.514 17.9056L951.409 19.6944ZM953.815 18.8569C954.625 18.6797 955.283 18.6 955.802 18.6V16.6C955.093 16.6 954.284 16.707 953.388 16.9031L953.815 18.8569ZM955.802 18.6C956.413 18.6 956.963 18.7192 957.465 18.9491L958.298 17.1309C957.52 16.7741 956.683 16.6 955.802 16.6V18.6ZM957.465 18.9491C957.99 19.1896 958.444 19.5148 958.836 19.9277L960.288 18.5523C959.719 17.9519 959.053 17.4771 958.298 17.1309L957.465 18.9491ZM958.836 19.9277C959.22 20.3334 959.525 20.8198 959.748 21.399L961.615 20.681C961.304 19.8735 960.863 19.1599 960.288 18.5523L958.836 19.9277ZM959.761 21.4296C960 21.9963 960.122 22.5968 960.122 23.24H962.122C962.122 22.3365 961.949 21.4704 961.603 20.6504L959.761 21.4296ZM960.122 23.24V32.76H962.122V23.24H960.122ZM960.122 32.76C960.122 33.4032 960 34.0037 959.761 34.5704L961.603 35.3496C961.949 34.5296 962.122 33.6635 962.122 32.76H960.122ZM959.753 34.5886C959.53 35.146 959.219 35.6453 958.818 36.091L960.305 37.429C960.864 36.8081 961.3 36.1073 961.61 35.3314L959.753 34.5886ZM958.836 36.0723C958.444 36.4852 957.99 36.8104 957.465 37.0509L958.298 38.8691C959.053 38.5229 959.719 38.0481 960.288 37.4477L958.836 36.0723ZM957.465 37.0509C956.963 37.2808 956.413 37.4 955.802 37.4V39.4C956.683 39.4 957.52 39.2259 958.298 38.8691L957.465 37.0509ZM955.802 37.4C955.415 37.4 954.854 37.3536 954.098 37.2494L953.825 39.2306C954.616 39.3398 955.281 39.4 955.802 39.4V37.4ZM954.064 37.2453C953.468 37.1836 952.676 36.9245 951.666 36.3946L950.737 38.1654C951.861 38.7555 952.909 39.1364 953.859 39.2347L954.064 37.2453Z" fill="black"/>
<line y1="-1.5" x2="158.301" y2="-1.5" transform="matrix(-0.999985 -0.00541203 -0.00821176 0.999966 951 58.2727)" stroke="black" stroke-width="3"/>
<line y1="-1.5" x2="12.3" y2="-1.5" transform="matrix(0 1 1 0 795.603 55)" stroke="black" stroke-width="3"/>
<line y1="-1.5" x2="12.3" y2="-1.5" transform="matrix(0 1 1 0 780.763 65)" stroke="black" stroke-width="3"/>
<line y1="-1.5" x2="15.865" y2="-1.5" transform="matrix(-1 0 0 1 795.109 68)" stroke="black" stroke-width="3"/>
<path d="M780.763 77H764.898" stroke="black" stroke-width="3"/>
<path d="M8.066 353.5C9.64899 319.833 37.9318 251.4 138.399 247C238.866 242.6 551.383 226.5 695.083 219C754.358 219 872.167 186.7 869.212 57.5" stroke="black" stroke-width="3"/>
<path d="M8.70711 355.707C8.31658 356.098 7.68342 356.098 7.29289 355.707L0.928932 349.343C0.538408 348.953 0.538408 348.319 0.928932 347.929C1.31946 347.538 1.95262 347.538 2.34315 347.929L8 353.586L13.6569 347.929C14.0474 347.538 14.6805 347.538 15.0711 347.929C15.4616 348.319 15.4616 348.953 15.0711 349.343L8.70711 355.707ZM9 349V355H7V349H9Z" fill="black"/>
</svg>
