<svg width="800" height="800" viewBox="0 0 800 800" fill="none" xmlns="http://www.w3.org/2000/svg">
<path d="M713.041 330.434H634.78V78.2608C634.78 35.1062 599.675 0 556.519 0H243.478C200.323 0 165.217 35.1062 165.217 78.2608V330.434H86.9561C72.5452 330.434 60.8687 342.11 60.8687 356.521C60.8687 370.932 72.5452 382.609 86.9561 382.609H147.55C138.531 416.021 146.679 453.138 172.861 479.313C181.872 488.324 186.829 500.304 186.829 513.043C186.829 525.782 181.87 537.763 172.861 546.772C133.917 585.708 133.917 649.074 172.861 688.008C191.457 706.605 191.457 736.87 172.861 755.467C162.672 765.648 162.672 782.173 172.861 792.356C177.956 797.452 184.631 800 191.304 800C197.978 800 204.654 797.452 209.748 792.356C248.692 753.42 248.692 690.055 209.748 651.121C200.737 642.11 195.779 630.13 195.779 617.391C195.779 604.652 200.739 592.671 209.748 583.661C248.692 544.725 248.692 481.36 209.748 442.426C193.522 426.199 191.47 401.101 203.557 382.609H564.94C555.921 416.021 564.069 453.138 590.25 479.313C599.261 488.324 604.219 500.304 604.219 513.043C604.219 525.782 599.26 537.763 590.25 546.772C551.307 585.708 551.307 649.074 590.25 688.008C608.847 706.605 608.847 736.87 590.25 755.467C580.061 765.648 580.061 782.173 590.25 792.356C595.346 797.452 602.021 800 608.694 800C615.368 800 622.044 797.452 627.138 792.356C666.082 753.42 666.082 690.055 627.138 651.121C618.127 642.11 613.169 630.13 613.169 617.391C613.169 604.652 618.128 592.671 627.138 583.661C666.082 544.725 666.082 481.36 627.138 442.426C610.911 426.199 608.86 401.101 620.947 382.609H713.044C727.445 382.609 739.131 370.932 739.131 356.521C739.131 342.11 727.442 330.434 713.041 330.434ZM582.607 330.434H217.39V278.26H582.607V330.434Z" fill="black"/>
</svg>
