<svg width="100" height="100" viewBox="0 0 100 100" fill="none" xmlns="http://www.w3.org/2000/svg">
<path d="M36.1703 57.6812H45.3859L49.9953 65.3656L54.6094 57.6812H63.825L59.2156 50L63.8265 42.3172H54.6109L49.9968 34.6344L45.3875 42.3172H36.1718L40.7828 50L36.1703 57.6812ZM40.2219 55.4328L42.1328 52.25L44.039 55.4328H40.2219ZM49.9968 60.8641L48.0875 57.6812H51.9062L49.9968 60.8641ZM59.7765 55.4328H55.9609L57.8672 52.25L59.7765 55.4328ZM59.7765 44.5672L57.8656 47.75L55.9593 44.5672H59.7765ZM49.9968 39.1344L51.9078 42.3172H48.089L49.9968 39.1344ZM46.7406 44.5672H53.2593L56.5156 50L53.2593 55.4328H46.7406L43.4781 50L46.7406 44.5672ZM40.2219 44.5672H44.0375L42.1312 47.75L40.2219 44.5672Z" fill="white"/>
<path d="M50 3.125C24.1125 3.125 3.125 24.1125 3.125 50C3.125 75.8875 24.1125 96.875 50 96.875C75.8875 96.875 96.875 75.8875 96.875 50C96.875 24.1125 75.8875 3.125 50 3.125ZM77.7438 16.1984H22.2563C29.8125 9.98594 39.4781 6.25 50 6.25C60.5219 6.25 70.1875 9.98594 77.7438 16.1984ZM10.3375 31.5625H89.6625C92.3593 37.3347 93.7547 43.6289 93.75 50C93.75 56.5859 92.2797 62.8297 89.6625 68.4375H10.3375C7.64049 62.6654 6.24507 56.3711 6.25 50C6.25 43.4156 7.72031 37.1703 10.3375 31.5625ZM22.2563 83.8016H77.7438C70.1875 90.0141 60.5219 93.75 50 93.75C39.4781 93.75 29.8125 90.0141 22.2563 83.8016Z" fill="white"/>
</svg>
