<svg width="512" height="512" viewBox="0 0 512 512" fill="none" xmlns="http://www.w3.org/2000/svg">
<path d="M499.886 78.02V61.275H476.898V78.02H472.426V87.98H476.766C475.96 124.545 466.274 158.933 449.695 189.08L445.929 186.885L440.949 195.531L444.715 197.685C435.511 212.775 424.553 226.676 412.123 239.097C399.743 251.485 385.909 262.326 370.919 271.506L369.289 268.703L360.676 273.683L362.314 276.51C334.436 291.874 302.942 301.428 269.412 303.448V272.711C297.248 270.773 323.445 262.775 346.742 250.105L349.311 254.561L357.933 249.589L355.365 245.141C368.143 237.284 379.941 228.022 390.484 217.479C401.018 206.937 410.313 195.139 418.17 182.377L422.585 184.921L427.573 176.308L423.183 173.764C437.142 148.14 445.331 118.94 446.138 87.979H451.243V78.019H446.254V61.275H423.274V78.02H419.641V87.98H423.149C422.359 114.802 415.283 140.043 403.253 162.258L400.202 160.496L395.221 169.109L398.248 170.855C391.413 181.888 383.357 192.073 374.22 201.21C365.083 210.331 354.89 218.378 343.873 225.205L342.135 222.212L333.513 227.184L335.251 230.21C315.363 240.943 293.081 247.794 269.411 249.664V218.96C287.51 217.172 304.604 211.843 319.944 203.704L322.081 207.387L330.703 202.415L328.549 198.682C337.263 193.228 345.335 186.801 352.569 179.552C359.811 172.319 366.213 164.245 371.7 155.541L375.433 157.694L380.413 149.072L376.705 146.926C386.117 129.209 391.737 109.188 392.502 87.979H396.784V78.019H392.636V61.275H369.647V78.02H365.174V87.98H369.522C368.782 105.04 364.26 121.103 356.777 135.437L353.044 133.275L348.056 141.897L351.772 144.034C347.315 151.018 342.161 157.469 336.324 163.322C330.488 169.142 323.986 174.264 317.018 178.728L314.906 175.045L306.276 180.033L308.404 183.716C296.474 189.944 283.354 194.175 269.411 195.813V164.885C277.8 163.538 285.748 160.878 293.098 157.203L295.268 160.944L303.897 155.972L301.719 152.206C306.391 149.121 310.756 145.612 314.697 141.68C318.638 137.748 322.163 133.407 325.256 128.726L328.989 130.88L333.961 122.267L330.236 120.105C335.133 110.328 338.159 99.453 338.832 87.979H343.156V78.019H338.99V61.275H316.01V78.02H311.545V87.98H315.769C315.171 95.313 313.233 102.222 310.24 108.549L306.598 106.454L301.626 115.084L305.276 117.204C303.231 120.122 300.961 122.9 298.434 125.419C295.907 127.955 293.146 130.208 290.196 132.253L288.084 128.586L279.462 133.591L281.574 137.266C277.733 139.062 273.659 140.475 269.41 141.456V49.802H242.596V141.457C238.356 140.475 234.274 139.062 230.425 137.267L232.545 133.592L223.915 128.587L221.804 132.254C218.877 130.209 216.092 127.956 213.564 125.42C211.045 122.901 208.766 120.124 206.729 117.205L210.396 115.085L205.408 106.455L201.766 108.55C198.773 102.223 196.852 95.314 196.246 87.981H200.461V78.021H195.988V61.275H173.008V78.02H168.859V87.98H173.174C173.856 99.454 176.882 110.328 181.762 120.106L178.046 122.268L183.026 130.881L186.751 128.727C189.852 133.408 193.386 137.748 197.309 141.681C201.259 145.613 205.624 149.123 210.287 152.207L208.125 155.973L216.738 160.945L218.908 157.204C226.25 160.879 234.215 163.539 242.595 164.886V195.814C228.661 194.176 215.533 189.945 203.61 183.717L205.731 180.034L197.109 175.046L194.989 178.729C188.022 174.265 181.52 169.143 175.692 163.323C169.864 157.47 164.692 151.018 160.236 144.035L163.952 141.898L158.972 133.276L155.23 135.438C147.756 121.104 143.225 105.042 142.493 87.981H146.833V78.021H142.369V61.275H119.389V78.02H115.232V87.98H119.513C120.27 109.189 125.899 129.21 135.31 146.927L131.602 149.073L136.574 157.695L140.307 155.542C145.785 164.246 152.205 172.32 159.438 179.553C166.672 186.803 174.736 193.229 183.457 198.683L181.304 202.416L189.926 207.388L192.054 203.705C207.418 211.844 224.504 217.174 242.595 218.961V249.665C218.925 247.795 196.652 240.944 176.764 230.211L178.493 227.185L169.879 222.213L168.133 225.206C157.126 218.38 146.924 210.332 137.779 201.211C128.658 192.074 120.602 181.889 113.759 170.856L116.777 169.11L111.797 160.497L108.746 162.259C96.731 140.043 89.656 114.802 88.866 87.981H92.374V78.021H88.74V61.275H65.757V78.02H60.777V87.98H65.89C66.68 118.942 74.877 148.141 88.828 173.765L84.438 176.309L89.418 184.922L93.841 182.378C101.697 195.14 110.993 206.938 121.535 217.48C132.069 228.022 143.875 237.284 156.645 245.142L154.076 249.574L162.698 254.562L165.275 250.106C188.563 262.777 214.761 270.774 242.596 272.712V303.449C209.066 301.429 177.571 291.875 149.703 276.511L151.324 273.684L142.711 268.704L141.081 271.507C126.107 262.327 112.257 251.486 99.885 239.098C87.456 226.676 76.498 212.792 67.294 197.686L71.069 195.532L66.08 186.886L62.314 189.081C45.744 158.934 36.041 124.547 35.234 87.981H39.574V78.021H35.11V61.275H12.13V78.02H7.97302V87.98H12.255C13.079 128.702 23.903 167.031 42.418 200.554L38.719 202.698L43.699 211.328L47.391 209.191C57.609 226.027 69.798 241.525 83.64 255.376C97.408 269.136 112.865 281.233 129.592 291.418L126.915 296.066L135.537 301.055L138.206 296.415C169.468 313.733 204.919 324.433 242.598 326.488V406.062H269.412V326.488C307.108 324.434 342.534 313.734 373.804 296.432L376.472 301.055L385.102 296.066L382.417 291.418C399.162 281.233 414.609 269.136 428.377 255.376C442.22 241.525 454.408 226.028 464.626 209.191L468.31 211.328L473.29 202.698L469.582 200.554C488.122 167.032 498.939 128.703 499.762 87.98H504.027V78.02H499.886Z" fill="black"/>
<path d="M269.411 0H242.597V39.293H269.411V0Z" fill="black"/>
<path d="M35.11 15.3149H12.13V39.7079H35.11V15.3149Z" fill="black"/>
<path d="M88.7451 15.3149H65.7571V39.7079H88.7451V15.3149Z" fill="black"/>
<path d="M142.371 15.3149H119.391V39.7079H142.371V15.3149Z" fill="black"/>
<path d="M195.989 15.3149H173.009V39.7079H195.989V15.3149Z" fill="black"/>
<path d="M338.992 15.3149H316.012V39.7079H338.992V15.3149Z" fill="black"/>
<path d="M392.635 15.3149H369.646V39.7079H392.635V15.3149Z" fill="black"/>
<path d="M446.252 15.3149H423.272V39.7079H446.252V15.3149Z" fill="black"/>
<path d="M499.885 15.3149H476.897V39.7079H499.885V15.3149Z" fill="black"/>
<path d="M308.421 416.288H203.605V457.509H308.421V416.288Z" fill="black"/>
<path d="M238.715 470.778H168.486V512H238.715H273.302H343.515V470.778H273.302H238.715Z" fill="black"/>
</svg>
