<svg width="1003" height="345" viewBox="0 0 1003 345" fill="none" xmlns="http://www.w3.org/2000/svg">
<path d="M28.17 28H2.91V6.58H5.61V25.6H14.16V6.58H16.86V25.6H25.44V6.58H28.17V28ZM39.7533 11.65C41.7133 11.65 43.1633 12.08 44.1033 12.94C45.0433 13.8 45.5133 15.17 45.5133 17.05V28H43.5933L43.0833 25.72H42.9633C42.5033 26.3 42.0233 26.79 41.5233 27.19C41.0433 27.57 40.4833 27.85 39.8433 28.03C39.2233 28.21 38.4633 28.3 37.5633 28.3C36.6033 28.3 35.7333 28.13 34.9533 27.79C34.1933 27.45 33.5933 26.93 33.1533 26.23C32.7133 25.51 32.4933 24.61 32.4933 23.53C32.4933 21.93 33.1233 20.7 34.3833 19.84C35.6433 18.96 37.5833 18.48 40.2033 18.4L42.9333 18.31V17.35C42.9333 16.01 42.6433 15.08 42.0633 14.56C41.4833 14.04 40.6633 13.78 39.6033 13.78C38.7633 13.78 37.9633 13.91 37.2033 14.17C36.4433 14.41 35.7333 14.69 35.0733 15.01L34.2633 13.03C34.9633 12.65 35.7933 12.33 36.7533 12.07C37.7133 11.79 38.7133 11.65 39.7533 11.65ZM40.5333 20.23C38.5333 20.31 37.1433 20.63 36.3633 21.19C35.6033 21.75 35.2233 22.54 35.2233 23.56C35.2233 24.46 35.4933 25.12 36.0333 25.54C36.5933 25.96 37.3033 26.17 38.1633 26.17C39.5233 26.17 40.6533 25.8 41.5533 25.06C42.4533 24.3 42.9033 23.14 42.9033 21.58V20.14L40.5333 20.23ZM60.2897 11.92V14.14H53.1197V28H50.4797V11.92H60.2897ZM83.347 11.92V28H80.707V14.17H72.397V28H69.757V11.92H83.347ZM89.4677 28H86.4077L90.9977 21.25C90.3777 21.09 89.7777 20.84 89.1977 20.5C88.6177 20.14 88.1477 19.65 87.7877 19.03C87.4277 18.39 87.2477 17.6 87.2477 16.66C87.2477 15.12 87.7677 13.95 88.8077 13.15C89.8477 12.33 91.2277 11.92 92.9477 11.92H100.148V28H97.5077V21.61H93.6077L89.4677 28ZM89.7977 16.69C89.7977 17.61 90.1377 18.3 90.8177 18.76C91.5177 19.2 92.4877 19.42 93.7277 19.42H97.5077V14.11H93.2177C91.9977 14.11 91.1177 14.35 90.5777 14.83C90.0577 15.31 89.7977 15.93 89.7977 16.69ZM116.336 14.14H111.086V28H108.476V14.14H103.286V11.92H116.336V14.14ZM119.503 28V11.92H122.143V18.52H126.313C127.713 18.52 128.863 18.69 129.763 19.03C130.663 19.37 131.333 19.88 131.773 20.56C132.213 21.22 132.433 22.06 132.433 23.08C132.433 24.08 132.213 24.95 131.773 25.69C131.353 26.43 130.683 27 129.763 27.4C128.863 27.8 127.673 28 126.193 28H119.503ZM125.953 25.87C127.093 25.87 128.023 25.68 128.743 25.3C129.463 24.9 129.823 24.21 129.823 23.23C129.823 22.25 129.493 21.59 128.833 21.25C128.173 20.89 127.223 20.71 125.983 20.71H122.143V25.87H125.953ZM135.103 28V11.92H137.743V28H135.103ZM155.873 5.26C155.793 6.26 155.543 7.1 155.123 7.78C154.723 8.46 154.123 8.97 153.323 9.31C152.523 9.65 151.483 9.82 150.203 9.82C148.903 9.82 147.853 9.65 147.053 9.31C146.273 8.97 145.703 8.47 145.343 7.81C144.983 7.13 144.763 6.28 144.683 5.26H147.143C147.243 6.34 147.523 7.07 147.983 7.45C148.463 7.81 149.223 7.99 150.263 7.99C151.183 7.99 151.903 7.8 152.423 7.42C152.963 7.02 153.283 6.3 153.383 5.26H155.873ZM145.343 21.73C145.343 21.91 145.333 22.17 145.313 22.51C145.313 22.83 145.303 23.18 145.283 23.56C145.263 23.92 145.243 24.27 145.223 24.61C145.203 24.93 145.183 25.19 145.163 25.39L153.773 11.92H157.013V28H154.553V18.52C154.553 18.2 154.553 17.78 154.553 17.26C154.573 16.74 154.593 16.23 154.613 15.73C154.633 15.21 154.653 14.82 154.673 14.56L146.123 28H142.853V11.92H145.343V21.73Z" fill="black"/>
<path d="M28.17 28V29H29.17V28H28.17ZM2.91 28H1.91V29H2.91V28ZM2.91 6.58V5.58H1.91V6.58H2.91ZM5.61 6.58H6.61V5.58H5.61V6.58ZM5.61 25.6H4.61V26.6H5.61V25.6ZM14.16 25.6V26.6H15.16V25.6H14.16ZM14.16 6.58V5.58H13.16V6.58H14.16ZM16.86 6.58H17.86V5.58H16.86V6.58ZM16.86 25.6H15.86V26.6H16.86V25.6ZM25.44 25.6V26.6H26.44V25.6H25.44ZM25.44 6.58V5.58H24.44V6.58H25.44ZM28.17 6.58H29.17V5.58H28.17V6.58ZM28.17 27H2.91V29H28.17V27ZM3.91 28V6.58H1.91V28H3.91ZM2.91 7.58H5.61V5.58H2.91V7.58ZM4.61 6.58V25.6H6.61V6.58H4.61ZM5.61 26.6H14.16V24.6H5.61V26.6ZM15.16 25.6V6.58H13.16V25.6H15.16ZM14.16 7.58H16.86V5.58H14.16V7.58ZM15.86 6.58V25.6H17.86V6.58H15.86ZM16.86 26.6H25.44V24.6H16.86V26.6ZM26.44 25.6V6.58H24.44V25.6H26.44ZM25.44 7.58H28.17V5.58H25.44V7.58ZM27.17 6.58V28H29.17V6.58H27.17ZM44.1033 12.94L44.7783 12.2022L44.7783 12.2022L44.1033 12.94ZM45.5133 28V29H46.5133V28H45.5133ZM43.5933 28L42.6174 28.2183L42.7923 29H43.5933V28ZM43.0833 25.72L44.0592 25.5017L43.8843 24.72H43.0833V25.72ZM42.9633 25.72V24.72H42.4801L42.1798 25.0986L42.9633 25.72ZM41.5233 27.19L42.144 27.9741L42.148 27.9709L41.5233 27.19ZM39.8433 28.03L39.5725 27.0673L39.5645 27.0697L39.8433 28.03ZM34.9533 27.79L34.5449 28.7029L34.5537 28.7067L34.9533 27.79ZM33.1533 26.23L32.2999 26.7515L32.3066 26.7622L33.1533 26.23ZM34.3833 19.84L34.9471 20.666L34.9559 20.6598L34.3833 19.84ZM40.2033 18.4L40.2338 19.3995L40.2362 19.3995L40.2033 18.4ZM42.9333 18.31L42.9662 19.3095L43.9333 19.2776V18.31H42.9333ZM42.0633 14.56L41.3957 15.3046L41.3957 15.3046L42.0633 14.56ZM37.2033 14.17L37.5044 15.1236L37.5157 15.12L37.527 15.1162L37.2033 14.17ZM35.0733 15.01L34.1477 15.3886L34.5511 16.3745L35.5096 15.9098L35.0733 15.01ZM34.2633 13.03L33.7862 12.1511L32.9983 12.5789L33.3377 13.4086L34.2633 13.03ZM36.7533 12.07L37.0147 13.0352L37.024 13.0327L37.0333 13.03L36.7533 12.07ZM40.5333 20.23L40.4953 19.2307L40.4933 19.2308L40.5333 20.23ZM36.3633 21.19L35.78 20.3776L35.7701 20.3849L36.3633 21.19ZM36.0333 25.54L35.4193 26.3294L35.4263 26.3347L35.4333 26.34L36.0333 25.54ZM41.5533 25.06L42.1884 25.8325L42.1985 25.824L41.5533 25.06ZM42.9033 20.14H43.9033V19.1013L42.8653 19.1407L42.9033 20.14ZM39.7533 12.65C41.5933 12.65 42.7501 13.0573 43.4283 13.6778L44.7783 12.2022C43.5765 11.1027 41.8333 10.65 39.7533 10.65V12.65ZM43.4283 13.6778C44.0793 14.2734 44.5133 15.316 44.5133 17.05H46.5133C46.5133 15.024 46.0073 13.3266 44.7783 12.2022L43.4283 13.6778ZM44.5133 17.05V28H46.5133V17.05H44.5133ZM45.5133 27H43.5933V29H45.5133V27ZM44.5692 27.7817L44.0592 25.5017L42.1074 25.9383L42.6174 28.2183L44.5692 27.7817ZM43.0833 24.72H42.9633V26.72H43.0833V24.72ZM42.1798 25.0986C41.7595 25.6286 41.3315 26.0628 40.8986 26.4091L42.148 27.9709C42.715 27.5172 43.2471 26.9714 43.7468 26.3414L42.1798 25.0986ZM40.9026 26.406C40.5349 26.697 40.0963 26.9201 39.5725 27.0673L40.114 28.9927C40.8703 28.7799 41.5517 28.443 42.144 27.974L40.9026 26.406ZM39.5645 27.0697C39.0629 27.2153 38.4031 27.3 37.5633 27.3V29.3C38.5235 29.3 39.3837 29.2047 40.1221 28.9903L39.5645 27.0697ZM37.5633 27.3C36.7232 27.3 35.9916 27.1517 35.3529 26.8733L34.5537 28.7067C35.475 29.1083 36.4834 29.3 37.5633 29.3V27.3ZM35.3616 26.8772C34.7808 26.6173 34.3339 26.2292 33.9999 25.6978L32.3066 26.7622C32.8527 27.6308 33.6057 28.2827 34.5449 28.7028L35.3616 26.8772ZM34.0066 25.7085C33.6859 25.1839 33.4933 24.4768 33.4933 23.53H31.4933C31.4933 24.7432 31.7406 25.8361 32.3 26.7514L34.0066 25.7085ZM33.4933 23.53C33.4933 22.2413 33.9755 21.3291 34.947 20.6659L33.8195 19.014C32.2711 20.0709 31.4933 21.6187 31.4933 23.53H33.4933ZM34.9559 20.6598C35.9796 19.9448 37.6864 19.4773 40.2338 19.3995L40.1728 17.4005C37.4802 17.4827 35.3069 17.9752 33.8107 19.0202L34.9559 20.6598ZM40.2362 19.3995L42.9662 19.3095L42.9003 17.3105L40.1703 17.4005L40.2362 19.3995ZM43.9333 18.31V17.35H41.9333V18.31H43.9333ZM43.9333 17.35C43.9333 15.9199 43.6332 14.6245 42.7308 13.8154L41.3957 15.3046C41.6534 15.5355 41.9333 16.1001 41.9333 17.35H43.9333ZM42.7308 13.8154C41.9101 13.0796 40.82 12.78 39.6033 12.78V14.78C40.5066 14.78 41.0565 15.0004 41.3957 15.3046L42.7308 13.8154ZM39.6033 12.78C38.6582 12.78 37.7485 12.9266 36.8796 13.2238L37.527 15.1162C38.1781 14.8934 38.8683 14.78 39.6033 14.78V12.78ZM36.9022 13.2164C36.0998 13.4698 35.3443 13.7673 34.637 14.1102L35.5096 15.9098C36.1223 15.6127 36.7868 15.3502 37.5044 15.1236L36.9022 13.2164ZM35.9988 14.6314L35.1888 12.6514L33.3377 13.4086L34.1477 15.3886L35.9988 14.6314ZM34.7404 13.9089C35.3577 13.5738 36.112 13.2797 37.0147 13.0352L36.4919 11.1048C35.4745 11.3803 34.5689 11.7262 33.7862 12.1511L34.7404 13.9089ZM37.0333 13.03C37.8987 12.7776 38.8042 12.65 39.7533 12.65V10.65C38.6223 10.65 37.5278 10.8024 36.4733 11.11L37.0333 13.03ZM40.4933 19.2308C38.4693 19.3118 36.8168 19.6334 35.7801 20.3777L36.9465 22.0023C37.4698 21.6266 38.5973 21.3082 40.5732 21.2292L40.4933 19.2308ZM35.7701 20.3849C34.7312 21.1504 34.2233 22.252 34.2233 23.56H36.2233C36.2233 22.828 36.4753 22.3496 36.9565 21.9951L35.7701 20.3849ZM34.2233 23.56C34.2233 24.6632 34.5631 25.6634 35.4193 26.3294L36.6472 24.7506C36.4234 24.5766 36.2233 24.2568 36.2233 23.56H34.2233ZM35.4333 26.34C36.2028 26.9172 37.1374 27.17 38.1633 27.17V25.17C37.4692 25.17 36.9837 25.0028 36.6333 24.74L35.4333 26.34ZM38.1633 27.17C39.7143 27.17 41.0804 26.7435 42.1884 25.8324L40.9182 24.2876C40.2262 24.8565 39.3323 25.17 38.1633 25.17V27.17ZM42.1985 25.824C43.391 24.817 43.9033 23.3328 43.9033 21.58H41.9033C41.9033 22.9472 41.5155 23.783 40.9081 24.296L42.1985 25.824ZM43.9033 21.58V20.14H41.9033V21.58H43.9033ZM42.8653 19.1407L40.4953 19.2307L40.5712 21.2293L42.9412 21.1393L42.8653 19.1407ZM60.2897 11.92H61.2897V10.92H60.2897V11.92ZM60.2897 14.14V15.14H61.2897V14.14H60.2897ZM53.1197 14.14V13.14H52.1197V14.14H53.1197ZM53.1197 28V29H54.1197V28H53.1197ZM50.4797 28H49.4797V29H50.4797V28ZM50.4797 11.92V10.92H49.4797V11.92H50.4797ZM59.2897 11.92V14.14H61.2897V11.92H59.2897ZM60.2897 13.14H53.1197V15.14H60.2897V13.14ZM52.1197 14.14V28H54.1197V14.14H52.1197ZM53.1197 27H50.4797V29H53.1197V27ZM51.4797 28V11.92H49.4797V28H51.4797ZM50.4797 12.92H60.2897V10.92H50.4797V12.92ZM83.347 11.92H84.347V10.92H83.347V11.92ZM83.347 28V29H84.347V28H83.347ZM80.707 28H79.707V29H80.707V28ZM80.707 14.17H81.707V13.17H80.707V14.17ZM72.397 14.17V13.17H71.397V14.17H72.397ZM72.397 28V29H73.397V28H72.397ZM69.757 28H68.757V29H69.757V28ZM69.757 11.92V10.92H68.757V11.92H69.757ZM82.347 11.92V28H84.347V11.92H82.347ZM83.347 27H80.707V29H83.347V27ZM81.707 28V14.17H79.707V28H81.707ZM80.707 13.17H72.397V15.17H80.707V13.17ZM71.397 14.17V28H73.397V14.17H71.397ZM72.397 27H69.757V29H72.397V27ZM70.757 28V11.92H68.757V28H70.757ZM69.757 12.92H83.347V10.92H69.757V12.92ZM89.4677 28V29H90.0114L90.307 28.5437L89.4677 28ZM86.4077 28L85.5808 27.4377L84.5184 29H86.4077V28ZM90.9977 21.25L91.8247 21.8123L92.6239 20.6369L91.2476 20.2817L90.9977 21.25ZM89.1977 20.5L88.6704 21.3496L88.6811 21.3563L88.692 21.3627L89.1977 20.5ZM87.7877 19.03L86.9161 19.5203L86.9229 19.5321L87.7877 19.03ZM88.8077 13.15L89.4175 13.9427L89.4269 13.9353L88.8077 13.15ZM100.148 11.92H101.148V10.92H100.148V11.92ZM100.148 28V29H101.148V28H100.148ZM97.5077 28H96.5077V29H97.5077V28ZM97.5077 21.61H98.5077V20.61H97.5077V21.61ZM93.6077 21.61V20.61H93.0641L92.7685 21.0663L93.6077 21.61ZM90.8177 18.76L90.2574 19.5883L90.2713 19.5977L90.2856 19.6066L90.8177 18.76ZM97.5077 19.42V20.42H98.5077V19.42H97.5077ZM97.5077 14.11H98.5077V13.11H97.5077V14.11ZM90.5777 14.83L89.9134 14.0826L89.9064 14.0888L89.8995 14.0952L90.5777 14.83ZM89.4677 27H86.4077V29H89.4677V27ZM87.2347 28.5623L91.8247 21.8123L90.1708 20.6877L85.5808 27.4377L87.2347 28.5623ZM91.2476 20.2817C90.7218 20.146 90.2075 19.9328 89.7035 19.6373L88.692 21.3627C89.348 21.7472 90.0337 22.034 90.7479 22.2183L91.2476 20.2817ZM89.7251 19.6504C89.2914 19.3812 88.9345 19.0135 88.6525 18.5279L86.9229 19.5321C87.361 20.2865 87.9441 20.8988 88.6704 21.3496L89.7251 19.6504ZM88.6593 18.5397C88.4039 18.0857 88.2477 17.4753 88.2477 16.66H86.2477C86.2477 17.7247 86.4516 18.6943 86.9162 19.5203L88.6593 18.5397ZM88.2477 16.66C88.2477 15.3697 88.668 14.5191 89.4174 13.9426L88.198 12.3574C86.8675 13.3809 86.2477 14.8703 86.2477 16.66H88.2477ZM89.4269 13.9353C90.2438 13.2911 91.3847 12.92 92.9477 12.92V10.92C91.0708 10.92 89.4516 11.3689 88.1886 12.3647L89.4269 13.9353ZM92.9477 12.92H100.148V10.92H92.9477V12.92ZM99.1477 11.92V28H101.148V11.92H99.1477ZM100.148 27H97.5077V29H100.148V27ZM98.5077 28V21.61H96.5077V28H98.5077ZM97.5077 20.61H93.6077V22.61H97.5077V20.61ZM92.7685 21.0663L88.6285 27.4563L90.307 28.5437L94.447 22.1537L92.7685 21.0663ZM88.7977 16.69C88.7977 17.8951 89.2658 18.9175 90.2574 19.5883L91.378 17.9317C91.0097 17.6825 90.7977 17.3249 90.7977 16.69H88.7977ZM90.2856 19.6066C91.2058 20.1851 92.3872 20.42 93.7277 20.42V18.42C92.5882 18.42 91.8297 18.2149 91.3499 17.9134L90.2856 19.6066ZM93.7277 20.42H97.5077V18.42H93.7277V20.42ZM98.5077 19.42V14.11H96.5077V19.42H98.5077ZM97.5077 13.11H93.2177V15.11H97.5077V13.11ZM93.2177 13.11C91.9087 13.11 90.7265 13.3598 89.9134 14.0826L91.2421 15.5774C91.5089 15.3402 92.0867 15.11 93.2177 15.11V13.11ZM89.8995 14.0952C89.158 14.7796 88.7977 15.674 88.7977 16.69H90.7977C90.7977 16.186 90.9575 15.8404 91.256 15.5648L89.8995 14.0952ZM116.336 14.14V15.14H117.336V14.14H116.336ZM111.086 14.14V13.14H110.086V14.14H111.086ZM111.086 28V29H112.086V28H111.086ZM108.476 28H107.476V29H108.476V28ZM108.476 14.14H109.476V13.14H108.476V14.14ZM103.286 14.14H102.286V15.14H103.286V14.14ZM103.286 11.92V10.92H102.286V11.92H103.286ZM116.336 11.92H117.336V10.92H116.336V11.92ZM116.336 13.14H111.086V15.14H116.336V13.14ZM110.086 14.14V28H112.086V14.14H110.086ZM111.086 27H108.476V29H111.086V27ZM109.476 28V14.14H107.476V28H109.476ZM108.476 13.14H103.286V15.14H108.476V13.14ZM104.286 14.14V11.92H102.286V14.14H104.286ZM103.286 12.92H116.336V10.92H103.286V12.92ZM115.336 11.92V14.14H117.336V11.92H115.336ZM119.503 28H118.503V29H119.503V28ZM119.503 11.92V10.92H118.503V11.92H119.503ZM122.143 11.92H123.143V10.92H122.143V11.92ZM122.143 18.52H121.143V19.52H122.143V18.52ZM129.763 19.03L130.117 18.0945L130.117 18.0945L129.763 19.03ZM131.773 20.56L130.933 21.1033L130.941 21.1147L131.773 20.56ZM131.773 25.69L130.914 25.1789L130.908 25.1876L130.903 25.1964L131.773 25.69ZM129.763 27.4L129.364 26.4829L129.357 26.4862L129.763 27.4ZM128.743 25.3L129.21 26.1844L129.219 26.1794L129.229 26.1742L128.743 25.3ZM128.833 21.25L128.354 22.1279L128.365 22.1336L128.375 22.139L128.833 21.25ZM122.143 20.71V19.71H121.143V20.71H122.143ZM122.143 25.87H121.143V26.87H122.143V25.87ZM135.103 28H134.103V29H135.103V28ZM135.103 11.92V10.92H134.103V11.92H135.103ZM137.743 11.92H138.743V10.92H137.743V11.92ZM137.743 28V29H138.743V28H137.743ZM120.503 28V11.92H118.503V28H120.503ZM119.503 12.92H122.143V10.92H119.503V12.92ZM121.143 11.92V18.52H123.143V11.92H121.143ZM122.143 19.52H126.313V17.52H122.143V19.52ZM126.313 19.52C127.643 19.52 128.662 19.6828 129.41 19.9655L130.117 18.0945C129.065 17.6972 127.784 17.52 126.313 17.52V19.52ZM129.41 19.9655C130.149 20.2446 130.63 20.6344 130.934 21.1033L132.613 20.0167C132.036 19.1256 131.178 18.4954 130.117 18.0945L129.41 19.9655ZM130.941 21.1147C131.244 21.5693 131.433 22.2014 131.433 23.08H133.433C133.433 21.9186 133.182 20.8707 132.605 20.0053L130.941 21.1147ZM131.433 23.08C131.433 23.9296 131.248 24.617 130.914 25.1789L132.633 26.2011C133.179 25.283 133.433 24.2304 133.433 23.08H131.433ZM130.903 25.1964C130.609 25.7158 130.122 26.1533 129.364 26.4829L130.162 28.3171C131.244 27.8467 132.098 27.1442 132.643 26.1836L130.903 25.1964ZM129.357 26.4862C128.633 26.8082 127.597 27 126.193 27V29C127.749 29 129.094 28.7918 130.169 28.3138L129.357 26.4862ZM126.193 27H119.503V29H126.193V27ZM125.953 26.87C127.194 26.87 128.3 26.6646 129.21 26.1844L128.276 24.4156C127.746 24.6954 126.992 24.87 125.953 24.87V26.87ZM129.229 26.1742C130.332 25.5612 130.823 24.4909 130.823 23.23H128.823C128.823 23.9291 128.594 24.2388 128.257 24.4258L129.229 26.1742ZM130.823 23.23C130.823 22.0154 130.392 20.9283 129.291 20.361L128.375 22.139C128.594 22.2517 128.823 22.4846 128.823 23.23H130.823ZM129.312 20.3721C128.439 19.8959 127.294 19.71 125.983 19.71V21.71C127.152 21.71 127.907 21.8841 128.354 22.1279L129.312 20.3721ZM125.983 19.71H122.143V21.71H125.983V19.71ZM121.143 20.71V25.87H123.143V20.71H121.143ZM122.143 26.87H125.953V24.87H122.143V26.87ZM136.103 28V11.92H134.103V28H136.103ZM135.103 12.92H137.743V10.92H135.103V12.92ZM136.743 11.92V28H138.743V11.92H136.743ZM137.743 27H135.103V29H137.743V27ZM155.873 5.26L156.87 5.33974L156.956 4.26H155.873V5.26ZM155.123 7.78L154.272 7.25451L154.266 7.26368L154.261 7.27298L155.123 7.78ZM153.323 9.31L152.932 8.38967L152.932 8.38967L153.323 9.31ZM147.053 9.31L146.653 10.2267L146.662 10.2303L147.053 9.31ZM145.343 7.81L144.459 8.27792L144.465 8.28885L145.343 7.81ZM144.683 5.26V4.26H143.601L143.686 5.33819L144.683 5.26ZM147.143 5.26L148.138 5.1678L148.054 4.26H147.143V5.26ZM147.983 7.45L147.346 8.22096L147.364 8.23591L147.383 8.25L147.983 7.45ZM152.423 7.42L153.013 8.22741L153.018 8.22356L152.423 7.42ZM153.383 5.26V4.26H152.474L152.387 5.16429L153.383 5.26ZM145.313 22.51L144.314 22.4513L144.313 22.4806V22.51H145.313ZM145.283 23.56L146.281 23.6155L146.281 23.6126L145.283 23.56ZM145.223 24.61L146.221 24.6724L146.221 24.6687L145.223 24.61ZM145.163 25.39L144.168 25.2905L146.005 25.9286L145.163 25.39ZM153.773 11.92V10.92H153.225L152.93 11.3814L153.773 11.92ZM157.013 11.92H158.013V10.92H157.013V11.92ZM157.013 28V29H158.013V28H157.013ZM154.553 28H153.553V29H154.553V28ZM154.553 17.26L153.553 17.2216L153.553 17.2408V17.26H154.553ZM154.613 15.73L155.612 15.77L155.612 15.7684L154.613 15.73ZM154.673 14.56L155.67 14.6367L153.829 14.0232L154.673 14.56ZM146.123 28V29H146.672L146.966 28.5368L146.123 28ZM142.853 28H141.853V29H142.853V28ZM142.853 11.92V10.92H141.853V11.92H142.853ZM145.343 11.92H146.343V10.92H145.343V11.92ZM154.876 5.18025C154.805 6.06162 154.59 6.73945 154.272 7.25451L155.974 8.30549C156.495 7.46055 156.78 6.45838 156.87 5.33974L154.876 5.18025ZM154.261 7.27298C153.981 7.74947 153.556 8.12447 152.932 8.38967L153.714 10.2303C154.69 9.81553 155.465 9.17052 155.985 8.28702L154.261 7.27298ZM152.932 8.38967C152.299 8.65837 151.406 8.82 150.203 8.82V10.82C151.559 10.82 152.746 10.6416 153.714 10.2303L152.932 8.38967ZM150.203 8.82C148.977 8.82 148.075 8.65772 147.444 8.38967L146.662 10.2303C147.631 10.6423 148.829 10.82 150.203 10.82V8.82ZM147.452 8.3933C146.848 8.12977 146.46 7.77072 146.221 7.33115L144.465 8.28885C144.945 9.16928 145.698 9.81023 146.653 10.2267L147.452 8.3933ZM146.227 7.34211C145.948 6.81569 145.752 6.10815 145.68 5.18181L143.686 5.33819C143.773 6.45185 144.018 7.4443 144.459 8.27789L146.227 7.34211ZM144.683 6.26H147.143V4.26H144.683V6.26ZM146.147 5.3522C146.253 6.50004 146.567 7.57723 147.346 8.22096L148.62 6.67904C148.479 6.56277 148.232 6.17996 148.138 5.1678L146.147 5.3522ZM147.383 8.25C148.123 8.80488 149.148 8.99 150.263 8.99V6.99C149.297 6.99 148.803 6.81512 148.583 6.65L147.383 8.25ZM150.263 8.99C151.307 8.99 152.262 8.77594 153.013 8.22739L151.833 6.61261C151.543 6.82406 151.058 6.99 150.263 6.99V8.99ZM153.018 8.22356C153.886 7.58044 154.266 6.52284 154.378 5.35571L152.387 5.16429C152.3 6.07716 152.039 6.45956 151.828 6.61644L153.018 8.22356ZM153.383 6.26H155.873V4.26H153.383V6.26ZM144.343 21.73C144.343 21.8802 144.334 22.1169 144.314 22.4513L146.311 22.5687C146.331 22.2231 146.343 21.9398 146.343 21.73H144.343ZM144.313 22.51C144.313 22.8096 144.303 23.1418 144.284 23.5074L146.281 23.6126C146.302 23.2182 146.313 22.8504 146.313 22.51H144.313ZM144.284 23.5045C144.264 23.8635 144.244 24.2124 144.224 24.5513L146.221 24.6687C146.241 24.3276 146.261 23.9765 146.281 23.6155L144.284 23.5045ZM144.225 24.5476C144.205 24.8616 144.186 25.1079 144.168 25.2905L146.158 25.4895C146.18 25.2721 146.2 24.9984 146.221 24.6724L144.225 24.5476ZM146.005 25.9286L154.615 12.4586L152.93 11.3814L144.32 24.8514L146.005 25.9286ZM153.773 12.92H157.013V10.92H153.773V12.92ZM156.013 11.92V28H158.013V11.92H156.013ZM157.013 27H154.553V29H157.013V27ZM155.553 28V18.52H153.553V28H155.553ZM155.553 18.52C155.553 18.5194 155.553 18.5187 155.553 18.5181C155.553 18.5175 155.553 18.5169 155.553 18.5162C155.553 18.5156 155.553 18.515 155.553 18.5144C155.553 18.5137 155.553 18.5131 155.553 18.5125C155.553 18.5119 155.553 18.5112 155.553 18.5106C155.553 18.51 155.553 18.5093 155.553 18.5087C155.553 18.5081 155.553 18.5074 155.553 18.5068C155.553 18.5062 155.553 18.5056 155.553 18.5049C155.553 18.5043 155.553 18.5037 155.553 18.503C155.553 18.5024 155.553 18.5018 155.553 18.5011C155.553 18.5005 155.553 18.4999 155.553 18.4992C155.553 18.4986 155.553 18.498 155.553 18.4973C155.553 18.4967 155.553 18.4961 155.553 18.4954C155.553 18.4948 155.553 18.4942 155.553 18.4935C155.553 18.4929 155.553 18.4923 155.553 18.4916C155.553 18.491 155.553 18.4903 155.553 18.4897C155.553 18.4891 155.553 18.4884 155.553 18.4878C155.553 18.4872 155.553 18.4865 155.553 18.4859C155.553 18.4852 155.553 18.4846 155.553 18.484C155.553 18.4833 155.553 18.4827 155.553 18.482C155.553 18.4814 155.553 18.4808 155.553 18.4801C155.553 18.4795 155.553 18.4788 155.553 18.4782C155.553 18.4776 155.553 18.4769 155.553 18.4763C155.553 18.4756 155.553 18.475 155.553 18.4743C155.553 18.4737 155.553 18.4731 155.553 18.4724C155.553 18.4718 155.553 18.4711 155.553 18.4705C155.553 18.4698 155.553 18.4692 155.553 18.4685C155.553 18.4679 155.553 18.4672 155.553 18.4666C155.553 18.466 155.553 18.4653 155.553 18.4647C155.553 18.464 155.553 18.4634 155.553 18.4627C155.553 18.4621 155.553 18.4614 155.553 18.4608C155.553 18.4601 155.553 18.4595 155.553 18.4588C155.553 18.4582 155.553 18.4575 155.553 18.4569C155.553 18.4562 155.553 18.4556 155.553 18.4549C155.553 18.4543 155.553 18.4536 155.553 18.453C155.553 18.4523 155.553 18.4517 155.553 18.451C155.553 18.4504 155.553 18.4497 155.553 18.4491C155.553 18.4484 155.553 18.4478 155.553 18.4471C155.553 18.4464 155.553 18.4458 155.553 18.4451C155.553 18.4445 155.553 18.4438 155.553 18.4432C155.553 18.4425 155.553 18.4419 155.553 18.4412C155.553 18.4405 155.553 18.4399 155.553 18.4392C155.553 18.4386 155.553 18.4379 155.553 18.4373C155.553 18.4366 155.553 18.4359 155.553 18.4353C155.553 18.4346 155.553 18.434 155.553 18.4333C155.553 18.4326 155.553 18.432 155.553 18.4313C155.553 18.4307 155.553 18.43 155.553 18.4293C155.553 18.4287 155.553 18.428 155.553 18.4274C155.553 18.4267 155.553 18.426 155.553 18.4254C155.553 18.4247 155.553 18.4241 155.553 18.4234C155.553 18.4227 155.553 18.4221 155.553 18.4214C155.553 18.4207 155.553 18.4201 155.553 18.4194C155.553 18.4187 155.553 18.4181 155.553 18.4174C155.553 18.4167 155.553 18.4161 155.553 18.4154C155.553 18.4147 155.553 18.4141 155.553 18.4134C155.553 18.4127 155.553 18.4121 155.553 18.4114C155.553 18.4107 155.553 18.4101 155.553 18.4094C155.553 18.4087 155.553 18.4081 155.553 18.4074C155.553 18.4067 155.553 18.4061 155.553 18.4054C155.553 18.4047 155.553 18.4041 155.553 18.4034C155.553 18.4027 155.553 18.402 155.553 18.4014C155.553 18.4007 155.553 18.4 155.553 18.3994C155.553 18.3987 155.553 18.398 155.553 18.3973C155.553 18.3967 155.553 18.396 155.553 18.3953C155.553 18.3946 155.553 18.394 155.553 18.3933C155.553 18.3926 155.553 18.3919 155.553 18.3913C155.553 18.3906 155.553 18.3899 155.553 18.3892C155.553 18.3886 155.553 18.3879 155.553 18.3872C155.553 18.3865 155.553 18.3859 155.553 18.3852C155.553 18.3845 155.553 18.3838 155.553 18.3831C155.553 18.3825 155.553 18.3818 155.553 18.3811C155.553 18.3804 155.553 18.3797 155.553 18.3791C155.553 18.3784 155.553 18.3777 155.553 18.377C155.553 18.3763 155.553 18.3757 155.553 18.375C155.553 18.3743 155.553 18.3736 155.553 18.3729C155.553 18.3723 155.553 18.3716 155.553 18.3709C155.553 18.3702 155.553 18.3695 155.553 18.3688C155.553 18.3682 155.553 18.3675 155.553 18.3668C155.553 18.3661 155.553 18.3654 155.553 18.3647C155.553 18.364 155.553 18.3634 155.553 18.3627C155.553 18.362 155.553 18.3613 155.553 18.3606C155.553 18.3599 155.553 18.3592 155.553 18.3586C155.553 18.3579 155.553 18.3572 155.553 18.3565C155.553 18.3558 155.553 18.3551 155.553 18.3544C155.553 18.3537 155.553 18.353 155.553 18.3524C155.553 18.3517 155.553 18.351 155.553 18.3503C155.553 18.3496 155.553 18.3489 155.553 18.3482C155.553 18.3475 155.553 18.3468 155.553 18.3461C155.553 18.3454 155.553 18.3448 155.553 18.3441C155.553 18.3434 155.553 18.3427 155.553 18.342C155.553 18.3413 155.553 18.3406 155.553 18.3399C155.553 18.3392 155.553 18.3385 155.553 18.3378C155.553 18.3371 155.553 18.3364 155.553 18.3357C155.553 18.335 155.553 18.3343 155.553 18.3336C155.553 18.3329 155.553 18.3322 155.553 18.3315C155.553 18.3308 155.553 18.3302 155.553 18.3295C155.553 18.3288 155.553 18.3281 155.553 18.3274C155.553 18.3267 155.553 18.326 155.553 18.3253C155.553 18.3246 155.553 18.3239 155.553 18.3232C155.553 18.3225 155.553 18.3218 155.553 18.3211C155.553 18.3204 155.553 18.3197 155.553 18.319C155.553 18.3182 155.553 18.3175 155.553 18.3168C155.553 18.3161 155.553 18.3154 155.553 18.3147C155.553 18.314 155.553 18.3133 155.553 18.3126C155.553 18.3119 155.553 18.3112 155.553 18.3105C155.553 18.3098 155.553 18.3091 155.553 18.3084C155.553 18.3077 155.553 18.307 155.553 18.3063C155.553 18.3056 155.553 18.3049 155.553 18.3042C155.553 18.3034 155.553 18.3027 155.553 18.302C155.553 18.3013 155.553 18.3006 155.553 18.2999C155.553 18.2992 155.553 18.2985 155.553 18.2978C155.553 18.2971 155.553 18.2964 155.553 18.2956C155.553 18.2949 155.553 18.2942 155.553 18.2935C155.553 18.2928 155.553 18.2921 155.553 18.2914C155.553 18.2907 155.553 18.29 155.553 18.2892C155.553 18.2885 155.553 18.2878 155.553 18.2871C155.553 18.2864 155.553 18.2857 155.553 18.285C155.553 18.2842 155.553 18.2835 155.553 18.2828C155.553 18.2821 155.553 18.2814 155.553 18.2807C155.553 18.28 155.553 18.2792 155.553 18.2785C155.553 18.2778 155.553 18.2771 155.553 18.2764C155.553 18.2757 155.553 18.2749 155.553 18.2742C155.553 18.2735 155.553 18.2728 155.553 18.2721C155.553 18.2713 155.553 18.2706 155.553 18.2699C155.553 18.2692 155.553 18.2685 155.553 18.2677C155.553 18.267 155.553 18.2663 155.553 18.2656C155.553 18.2649 155.553 18.2641 155.553 18.2634C155.553 18.2627 155.553 18.262 155.553 18.2612C155.553 18.2605 155.553 18.2598 155.553 18.2591C155.553 18.2584 155.553 18.2576 155.553 18.2569C155.553 18.2562 155.553 18.2555 155.553 18.2547C155.553 18.254 155.553 18.2533 155.553 18.2526C155.553 18.2518 155.553 18.2511 155.553 18.2504C155.553 18.2497 155.553 18.2489 155.553 18.2482C155.553 18.2475 155.553 18.2467 155.553 18.246C155.553 18.2453 155.553 18.2446 155.553 18.2438C155.553 18.2431 155.553 18.2424 155.553 18.2416C155.553 18.2409 155.553 18.2402 155.553 18.2395C155.553 18.2387 155.553 18.238 155.553 18.2373C155.553 18.2365 155.553 18.2358 155.553 18.2351C155.553 18.2343 155.553 18.2336 155.553 18.2329C155.553 18.2321 155.553 18.2314 155.553 18.2307C155.553 18.2299 155.553 18.2292 155.553 18.2285C155.553 18.2277 155.553 18.227 155.553 18.2263C155.553 18.2255 155.553 18.2248 155.553 18.2241C155.553 18.2233 155.553 18.2226 155.553 18.2219C155.553 18.2211 155.553 18.2204 155.553 18.2196C155.553 18.2189 155.553 18.2182 155.553 18.2174C155.553 18.2167 155.553 18.216 155.553 18.2152C155.553 18.2145 155.553 18.2137 155.553 18.213C155.553 18.2123 155.553 18.2115 155.553 18.2108C155.553 18.21 155.553 18.2093 155.553 18.2086C155.553 18.2078 155.553 18.2071 155.553 18.2063C155.553 18.2056 155.553 18.2049 155.553 18.2041C155.553 18.2034 155.553 18.2026 155.553 18.2019C155.553 18.2011 155.553 18.2004 155.553 18.1996C155.553 18.1989 155.553 18.1982 155.553 18.1974C155.553 18.1967 155.553 18.1959 155.553 18.1952C155.553 18.1944 155.553 18.1937 155.553 18.1929C155.553 18.1922 155.553 18.1914 155.553 18.1907C155.553 18.19 155.553 18.1892 155.553 18.1885C155.553 18.1877 155.553 18.187 155.553 18.1862C155.553 18.1855 155.553 18.1847 155.553 18.184C155.553 18.1832 155.553 18.1825 155.553 18.1817C155.553 18.181 155.553 18.1802 155.553 18.1795C155.553 18.1787 155.553 18.178 155.553 18.1772C155.553 18.1765 155.553 18.1757 155.553 18.175C155.553 18.1742 155.553 18.1735 155.553 18.1727C155.553 18.1719 155.553 18.1712 155.553 18.1704C155.553 18.1697 155.553 18.1689 155.553 18.1682C155.553 18.1674 155.553 18.1667 155.553 18.1659C155.553 18.1652 155.553 18.1644 155.553 18.1636C155.553 18.1629 155.553 18.1621 155.553 18.1614C155.553 18.1606 155.553 18.1599 155.553 18.1591C155.553 18.1583 155.553 18.1576 155.553 18.1568C155.553 18.1561 155.553 18.1553 155.553 18.1546C155.553 18.1538 155.553 18.153 155.553 18.1523C155.553 18.1515 155.553 18.1508 155.553 18.15C155.553 18.1492 155.553 18.1485 155.553 18.1477C155.553 18.1469 155.553 18.1462 155.553 18.1454C155.553 18.1447 155.553 18.1439 155.553 18.1431C155.553 18.1424 155.553 18.1416 155.553 18.1408C155.553 18.1401 155.553 18.1393 155.553 18.1385C155.553 18.1378 155.553 18.137 155.553 18.1363C155.553 18.1355 155.553 18.1347 155.553 18.134C155.553 18.1332 155.553 18.1324 155.553 18.1317C155.553 18.1309 155.553 18.1301 155.553 18.1294C155.553 18.1286 155.553 18.1278 155.553 18.1271C155.553 18.1263 155.553 18.1255 155.553 18.1247C155.553 18.124 155.553 18.1232 155.553 18.1224C155.553 18.1217 155.553 18.1209 155.553 18.1201C155.553 18.1194 155.553 18.1186 155.553 18.1178C155.553 18.117 155.553 18.1163 155.553 18.1155C155.553 18.1147 155.553 18.114 155.553 18.1132C155.553 18.1124 155.553 18.1116 155.553 18.1109C155.553 18.1101 155.553 18.1093 155.553 18.1085C155.553 18.1078 155.553 18.107 155.553 18.1062C155.553 18.1054 155.553 18.1047 155.553 18.1039C155.553 18.1031 155.553 18.1023 155.553 18.1016C155.553 18.1008 155.553 18.1 155.553 18.0992C155.553 18.0984 155.553 18.0977 155.553 18.0969C155.553 18.0961 155.553 18.0953 155.553 18.0946C155.553 18.0938 155.553 18.093 155.553 18.0922C155.553 18.0914 155.553 18.0907 155.553 18.0899C155.553 18.0891 155.553 18.0883 155.553 18.0875C155.553 18.0867 155.553 18.086 155.553 18.0852C155.553 18.0844 155.553 18.0836 155.553 18.0828C155.553 18.0821 155.553 18.0813 155.553 18.0805C155.553 18.0797 155.553 18.0789 155.553 18.0781C155.553 18.0774 155.553 18.0766 155.553 18.0758C155.553 18.075 155.553 18.0742 155.553 18.0734C155.553 18.0726 155.553 18.0719 155.553 18.0711C155.553 18.0703 155.553 18.0695 155.553 18.0687C155.553 18.0679 155.553 18.0671 155.553 18.0663C155.553 18.0656 155.553 18.0648 155.553 18.064C155.553 18.0632 155.553 18.0624 155.553 18.0616C155.553 18.0608 155.553 18.06 155.553 18.0592C155.553 18.0584 155.553 18.0577 155.553 18.0569C155.553 18.0561 155.553 18.0553 155.553 18.0545C155.553 18.0537 155.553 18.0529 155.553 18.0521C155.553 18.0513 155.553 18.0505 155.553 18.0497C155.553 18.0489 155.553 18.0481 155.553 18.0473C155.553 18.0466 155.553 18.0458 155.553 18.045C155.553 18.0442 155.553 18.0434 155.553 18.0426C155.553 18.0418 155.553 18.041 155.553 18.0402C155.553 18.0394 155.553 18.0386 155.553 18.0378C155.553 18.037 155.553 18.0362 155.553 18.0354C155.553 18.0346 155.553 18.0338 155.553 18.033C155.553 18.0322 155.553 18.0314 155.553 18.0306C155.553 18.0298 155.553 18.029 155.553 18.0282C155.553 18.0274 155.553 18.0266 155.553 18.0258C155.553 18.025 155.553 18.0242 155.553 18.0234C155.553 18.0226 155.553 18.0218 155.553 18.021C155.553 18.0202 155.553 18.0194 155.553 18.0186C155.553 18.0178 155.553 18.017 155.553 18.0162C155.553 18.0154 155.553 18.0146 155.553 18.0138C155.553 18.013 155.553 18.0122 155.553 18.0113C155.553 18.0105 155.553 18.0097 155.553 18.0089C155.553 18.0081 155.553 18.0073 155.553 18.0065C155.553 18.0057 155.553 18.0049 155.553 18.0041C155.553 18.0033 155.553 18.0025 155.553 18.0017C155.553 18.0008 155.553 18 155.553 17.9992C155.553 17.9984 155.553 17.9976 155.553 17.9968C155.553 17.996 155.553 17.9952 155.553 17.9944C155.553 17.9936 155.553 17.9927 155.553 17.9919C155.553 17.9911 155.553 17.9903 155.553 17.9895C155.553 17.9887 155.553 17.9879 155.553 17.9871C155.553 17.9862 155.553 17.9854 155.553 17.9846C155.553 17.9838 155.553 17.983 155.553 17.9822C155.553 17.9814 155.553 17.9805 155.553 17.9797C155.553 17.9789 155.553 17.9781 155.553 17.9773C155.553 17.9765 155.553 17.9756 155.553 17.9748C155.553 17.974 155.553 17.9732 155.553 17.9724C155.553 17.9716 155.553 17.9707 155.553 17.9699C155.553 17.9691 155.553 17.9683 155.553 17.9675C155.553 17.9666 155.553 17.9658 155.553 17.965C155.553 17.9642 155.553 17.9634 155.553 17.9625C155.553 17.9617 155.553 17.9609 155.553 17.9601C155.553 17.9593 155.553 17.9584 155.553 17.9576C155.553 17.9568 155.553 17.956 155.553 17.9551C155.553 17.9543 155.553 17.9535 155.553 17.9527C155.553 17.9518 155.553 17.951 155.553 17.9502C155.553 17.9494 155.553 17.9485 155.553 17.9477C155.553 17.9469 155.553 17.9461 155.553 17.9452C155.553 17.9444 155.553 17.9436 155.553 17.9428C155.553 17.9419 155.553 17.9411 155.553 17.9403C155.553 17.9394 155.553 17.9386 155.553 17.9378C155.553 17.937 155.553 17.9361 155.553 17.9353C155.553 17.9345 155.553 17.9336 155.553 17.9328C155.553 17.932 155.553 17.9312 155.553 17.9303C155.553 17.9295 155.553 17.9287 155.553 17.9278C155.553 17.927 155.553 17.9262 155.553 17.9253C155.553 17.9245 155.553 17.9237 155.553 17.9228C155.553 17.922 155.553 17.9212 155.553 17.9203C155.553 17.9195 155.553 17.9187 155.553 17.9178C155.553 17.917 155.553 17.9162 155.553 17.9153C155.553 17.9145 155.553 17.9137 155.553 17.9128C155.553 17.912 155.553 17.9111 155.553 17.9103C155.553 17.9095 155.553 17.9086 155.553 17.9078C155.553 17.907 155.553 17.9061 155.553 17.9053C155.553 17.9044 155.553 17.9036 155.553 17.9028C155.553 17.9019 155.553 17.9011 155.553 17.9002C155.553 17.8994 155.553 17.8986 155.553 17.8977C155.553 17.8969 155.553 17.896 155.553 17.8952C155.553 17.8944 155.553 17.8935 155.553 17.8927C155.553 17.8918 155.553 17.891 155.553 17.8901C155.553 17.8893 155.553 17.8885 155.553 17.8876C155.553 17.8868 155.553 17.8859 155.553 17.8851C155.553 17.8842 155.553 17.8834 155.553 17.8825C155.553 17.8817 155.553 17.8809 155.553 17.88C155.553 17.8792 155.553 17.8783 155.553 17.8775C155.553 17.8766 155.553 17.8758 155.553 17.8749C155.553 17.8741 155.553 17.8732 155.553 17.8724C155.553 17.8715 155.553 17.8707 155.553 17.8698C155.553 17.869 155.553 17.8681 155.553 17.8673C155.553 17.8664 155.553 17.8656 155.553 17.8647C155.553 17.8639 155.553 17.863 155.553 17.8622C155.553 17.8613 155.553 17.8605 155.553 17.8596C155.553 17.8588 155.553 17.8579 155.553 17.8571C155.553 17.8562 155.553 17.8554 155.553 17.8545C155.553 17.8536 155.553 17.8528 155.553 17.8519C155.553 17.8511 155.553 17.8502 155.553 17.8494C155.553 17.8485 155.553 17.8477 155.553 17.8468C155.553 17.846 155.553 17.8451 155.553 17.8442C155.553 17.8434 155.553 17.8425 155.553 17.8417C155.553 17.8408 155.553 17.84 155.553 17.8391C155.553 17.8382 155.553 17.8374 155.553 17.8365C155.553 17.8357 155.553 17.8348 155.553 17.8339C155.553 17.8331 155.553 17.8322 155.553 17.8314C155.553 17.8305 155.553 17.8296 155.553 17.8288C155.553 17.8279 155.553 17.827 155.553 17.8262C155.553 17.8253 155.553 17.8245 155.553 17.8236C155.553 17.8227 155.553 17.8219 155.553 17.821C155.553 17.8201 155.553 17.8193 155.553 17.8184C155.553 17.8176 155.553 17.8167 155.553 17.8158C155.553 17.815 155.553 17.8141 155.553 17.8132C155.553 17.8124 155.553 17.8115 155.553 17.8106C155.553 17.8098 155.553 17.8089 155.553 17.808C155.553 17.8072 155.553 17.8063 155.553 17.8054C155.553 17.8045 155.553 17.8037 155.553 17.8028C155.553 17.8019 155.553 17.8011 155.553 17.8002C155.553 17.7993 155.553 17.7985 155.553 17.7976C155.553 17.7967 155.553 17.7959 155.553 17.795C155.553 17.7941 155.553 17.7932 155.553 17.7924C155.553 17.7915 155.553 17.7906 155.553 17.7897C155.553 17.7889 155.553 17.788 155.553 17.7871C155.553 17.7863 155.553 17.7854 155.553 17.7845C155.553 17.7836 155.553 17.7828 155.553 17.7819C155.553 17.781 155.553 17.7801 155.553 17.7793C155.553 17.7784 155.553 17.7775 155.553 17.7766C155.553 17.7757 155.553 17.7749 155.553 17.774C155.553 17.7731 155.553 17.7722 155.553 17.7714C155.553 17.7705 155.553 17.7696 155.553 17.7687C155.553 17.7678 155.553 17.767 155.553 17.7661C155.553 17.7652 155.553 17.7643 155.553 17.7634C155.553 17.7626 155.553 17.7617 155.553 17.7608C155.553 17.7599 155.553 17.759 155.553 17.7582C155.553 17.7573 155.553 17.7564 155.553 17.7555C155.553 17.7546 155.553 17.7537 155.553 17.7529C155.553 17.752 155.553 17.7511 155.553 17.7502C155.553 17.7493 155.553 17.7484 155.553 17.7476C155.553 17.7467 155.553 17.7458 155.553 17.7449C155.553 17.744 155.553 17.7431 155.553 17.7422C155.553 17.7413 155.553 17.7405 155.553 17.7396C155.553 17.7387 155.553 17.7378 155.553 17.7369C155.553 17.736 155.553 17.7351 155.553 17.7342C155.553 17.7334 155.553 17.7325 155.553 17.7316C155.553 17.7307 155.553 17.7298 155.553 17.7289C155.553 17.728 155.553 17.7271 155.553 17.7262C155.553 17.7253 155.553 17.7245 155.553 17.7236C155.553 17.7227 155.553 17.7218 155.553 17.7209C155.553 17.72 155.553 17.7191 155.553 17.7182C155.553 17.7173 155.553 17.7164 155.553 17.7155C155.553 17.7146 155.553 17.7137 155.553 17.7128C155.553 17.7119 155.553 17.711 155.553 17.7102C155.553 17.7093 155.553 17.7084 155.553 17.7075C155.553 17.7066 155.553 17.7057 155.553 17.7048C155.553 17.7039 155.553 17.703 155.553 17.7021C155.553 17.7012 155.553 17.7003 155.553 17.6994C155.553 17.6985 155.553 17.6976 155.553 17.6967C155.553 17.6958 155.553 17.6949 155.553 17.694C155.553 17.6931 155.553 17.6922 155.553 17.6913C155.553 17.6904 155.553 17.6895 155.553 17.6886C155.553 17.6877 155.553 17.6868 155.553 17.6859C155.553 17.685 155.553 17.6841 155.553 17.6832C155.553 17.6823 155.553 17.6814 155.553 17.6804C155.553 17.6795 155.553 17.6786 155.553 17.6777C155.553 17.6768 155.553 17.6759 155.553 17.675C155.553 17.6741 155.553 17.6732 155.553 17.6723C155.553 17.6714 155.553 17.6705 155.553 17.6696C155.553 17.6687 155.553 17.6678 155.553 17.6669C155.553 17.6659 155.553 17.665 155.553 17.6641C155.553 17.6632 155.553 17.6623 155.553 17.6614C155.553 17.6605 155.553 17.6596 155.553 17.6587C155.553 17.6578 155.553 17.6569 155.553 17.6559C155.553 17.655 155.553 17.6541 155.553 17.6532C155.553 17.6523 155.553 17.6514 155.553 17.6505C155.553 17.6496 155.553 17.6486 155.553 17.6477C155.553 17.6468 155.553 17.6459 155.553 17.645C155.553 17.6441 155.553 17.6432 155.553 17.6422C155.553 17.6413 155.553 17.6404 155.553 17.6395C155.553 17.6386 155.553 17.6377 155.553 17.6368C155.553 17.6358 155.553 17.6349 155.553 17.634C155.553 17.6331 155.553 17.6322 155.553 17.6312C155.553 17.6303 155.553 17.6294 155.553 17.6285C155.553 17.6276 155.553 17.6267 155.553 17.6257C155.553 17.6248 155.553 17.6239 155.553 17.623C155.553 17.6221 155.553 17.6211 155.553 17.6202C155.553 17.6193 155.553 17.6184 155.553 17.6175C155.553 17.6165 155.553 17.6156 155.553 17.6147C155.553 17.6138 155.553 17.6128 155.553 17.6119C155.553 17.611 155.553 17.6101 155.553 17.6091C155.553 17.6082 155.553 17.6073 155.553 17.6064C155.553 17.6054 155.553 17.6045 155.553 17.6036C155.553 17.6027 155.553 17.6017 155.553 17.6008C155.553 17.5999 155.553 17.599 155.553 17.598C155.553 17.5971 155.553 17.5962 155.553 17.5953C155.553 17.5943 155.553 17.5934 155.553 17.5925C155.553 17.5915 155.553 17.5906 155.553 17.5897C155.553 17.5888 155.553 17.5878 155.553 17.5869C155.553 17.586 155.553 17.585 155.553 17.5841C155.553 17.5832 155.553 17.5822 155.553 17.5813C155.553 17.5804 155.553 17.5794 155.553 17.5785C155.553 17.5776 155.553 17.5766 155.553 17.5757C155.553 17.5748 155.553 17.5738 155.553 17.5729C155.553 17.572 155.553 17.571 155.553 17.5701C155.553 17.5692 155.553 17.5682 155.553 17.5673C155.553 17.5664 155.553 17.5654 155.553 17.5645C155.553 17.5636 155.553 17.5626 155.553 17.5617C155.553 17.5607 155.553 17.5598 155.553 17.5589C155.553 17.5579 155.553 17.557 155.553 17.5561C155.553 17.5551 155.553 17.5542 155.553 17.5532C155.553 17.5523 155.553 17.5514 155.553 17.5504C155.553 17.5495 155.553 17.5485 155.553 17.5476C155.553 17.5467 155.553 17.5457 155.553 17.5448C155.553 17.5438 155.553 17.5429 155.553 17.542C155.553 17.541 155.553 17.5401 155.553 17.5391C155.553 17.5382 155.553 17.5372 155.553 17.5363C155.553 17.5353 155.553 17.5344 155.553 17.5335C155.553 17.5325 155.553 17.5316 155.553 17.5306C155.553 17.5297 155.553 17.5287 155.553 17.5278C155.553 17.5268 155.553 17.5259 155.553 17.5249C155.553 17.524 155.553 17.5231 155.553 17.5221C155.553 17.5212 155.553 17.5202 155.553 17.5193C155.553 17.5183 155.553 17.5174 155.553 17.5164C155.553 17.5155 155.553 17.5145 155.553 17.5136C155.553 17.5126 155.553 17.5117 155.553 17.5107C155.553 17.5098 155.553 17.5088 155.553 17.5079C155.553 17.5069 155.553 17.506 155.553 17.505C155.553 17.5041 155.553 17.5031 155.553 17.5021C155.553 17.5012 155.553 17.5002 155.553 17.4993C155.553 17.4983 155.553 17.4974 155.553 17.4964C155.553 17.4955 155.553 17.4945 155.553 17.4936C155.553 17.4926 155.553 17.4916 155.553 17.4907C155.553 17.4897 155.553 17.4888 155.553 17.4878C155.553 17.4869 155.553 17.4859 155.553 17.485C155.553 17.484 155.553 17.483 155.553 17.4821C155.553 17.4811 155.553 17.4802 155.553 17.4792C155.553 17.4782 155.553 17.4773 155.553 17.4763C155.553 17.4754 155.553 17.4744 155.553 17.4734C155.553 17.4725 155.553 17.4715 155.553 17.4706C155.553 17.4696 155.553 17.4686 155.553 17.4677C155.553 17.4667 155.553 17.4657 155.553 17.4648C155.553 17.4638 155.553 17.4629 155.553 17.4619C155.553 17.4609 155.553 17.46 155.553 17.459C155.553 17.458 155.553 17.4571 155.553 17.4561C155.553 17.4551 155.553 17.4542 155.553 17.4532C155.553 17.4522 155.553 17.4513 155.553 17.4503C155.553 17.4493 155.553 17.4484 155.553 17.4474C155.553 17.4464 155.553 17.4455 155.553 17.4445C155.553 17.4435 155.553 17.4426 155.553 17.4416C155.553 17.4406 155.553 17.4397 155.553 17.4387C155.553 17.4377 155.553 17.4368 155.553 17.4358C155.553 17.4348 155.553 17.4338 155.553 17.4329C155.553 17.4319 155.553 17.4309 155.553 17.43C155.553 17.429 155.553 17.428 155.553 17.427C155.553 17.4261 155.553 17.4251 155.553 17.4241C155.553 17.4231 155.553 17.4222 155.553 17.4212C155.553 17.4202 155.553 17.4192 155.553 17.4183C155.553 17.4173 155.553 17.4163 155.553 17.4153C155.553 17.4144 155.553 17.4134 155.553 17.4124C155.553 17.4114 155.553 17.4105 155.553 17.4095C155.553 17.4085 155.553 17.4075 155.553 17.4065C155.553 17.4056 155.553 17.4046 155.553 17.4036C155.553 17.4026 155.553 17.4017 155.553 17.4007C155.553 17.3997 155.553 17.3987 155.553 17.3977C155.553 17.3968 155.553 17.3958 155.553 17.3948C155.553 17.3938 155.553 17.3928 155.553 17.3918C155.553 17.3909 155.553 17.3899 155.553 17.3889C155.553 17.3879 155.553 17.3869 155.553 17.3859C155.553 17.385 155.553 17.384 155.553 17.383C155.553 17.382 155.553 17.381 155.553 17.38C155.553 17.3791 155.553 17.3781 155.553 17.3771C155.553 17.3761 155.553 17.3751 155.553 17.3741C155.553 17.3731 155.553 17.3722 155.553 17.3712C155.553 17.3702 155.553 17.3692 155.553 17.3682C155.553 17.3672 155.553 17.3662 155.553 17.3652C155.553 17.3642 155.553 17.3633 155.553 17.3623C155.553 17.3613 155.553 17.3603 155.553 17.3593C155.553 17.3583 155.553 17.3573 155.553 17.3563C155.553 17.3553 155.553 17.3543 155.553 17.3534C155.553 17.3524 155.553 17.3514 155.553 17.3504C155.553 17.3494 155.553 17.3484 155.553 17.3474C155.553 17.3464 155.553 17.3454 155.553 17.3444C155.553 17.3434 155.553 17.3424 155.553 17.3414C155.553 17.3404 155.553 17.3394 155.553 17.3384C155.553 17.3374 155.553 17.3365 155.553 17.3355C155.553 17.3345 155.553 17.3335 155.553 17.3325C155.553 17.3315 155.553 17.3305 155.553 17.3295C155.553 17.3285 155.553 17.3275 155.553 17.3265C155.553 17.3255 155.553 17.3245 155.553 17.3235C155.553 17.3225 155.553 17.3215 155.553 17.3205C155.553 17.3195 155.553 17.3185 155.553 17.3175C155.553 17.3165 155.553 17.3155 155.553 17.3145C155.553 17.3135 155.553 17.3125 155.553 17.3115C155.553 17.3105 155.553 17.3095 155.553 17.3085C155.553 17.3075 155.553 17.3064 155.553 17.3054C155.553 17.3044 155.553 17.3034 155.553 17.3024C155.553 17.3014 155.553 17.3004 155.553 17.2994C155.553 17.2984 155.553 17.2974 155.553 17.2964C155.553 17.2954 155.553 17.2944 155.553 17.2934C155.553 17.2924 155.553 17.2914 155.553 17.2904C155.553 17.2893 155.553 17.2883 155.553 17.2873C155.553 17.2863 155.553 17.2853 155.553 17.2843C155.553 17.2833 155.553 17.2823 155.553 17.2813C155.553 17.2803 155.553 17.2793 155.553 17.2782C155.553 17.2772 155.553 17.2762 155.553 17.2752C155.553 17.2742 155.553 17.2732 155.553 17.2722C155.553 17.2712 155.553 17.2701 155.553 17.2691C155.553 17.2681 155.553 17.2671 155.553 17.2661C155.553 17.2651 155.553 17.2641 155.553 17.263C155.553 17.262 155.553 17.261 155.553 17.26H153.553C153.553 17.261 153.553 17.262 153.553 17.263C153.553 17.2641 153.553 17.2651 153.553 17.2661C153.553 17.2671 153.553 17.2681 153.553 17.2691C153.553 17.2701 153.553 17.2712 153.553 17.2722C153.553 17.2732 153.553 17.2742 153.553 17.2752C153.553 17.2762 153.553 17.2772 153.553 17.2782C153.553 17.2793 153.553 17.2803 153.553 17.2813C153.553 17.2823 153.553 17.2833 153.553 17.2843C153.553 17.2853 153.553 17.2863 153.553 17.2873C153.553 17.2883 153.553 17.2893 153.553 17.2904C153.553 17.2914 153.553 17.2924 153.553 17.2934C153.553 17.2944 153.553 17.2954 153.553 17.2964C153.553 17.2974 153.553 17.2984 153.553 17.2994C153.553 17.3004 153.553 17.3014 153.553 17.3024C153.553 17.3034 153.553 17.3044 153.553 17.3054C153.553 17.3064 153.553 17.3075 153.553 17.3085C153.553 17.3095 153.553 17.3105 153.553 17.3115C153.553 17.3125 153.553 17.3135 153.553 17.3145C153.553 17.3155 153.553 17.3165 153.553 17.3175C153.553 17.3185 153.553 17.3195 153.553 17.3205C153.553 17.3215 153.553 17.3225 153.553 17.3235C153.553 17.3245 153.553 17.3255 153.553 17.3265C153.553 17.3275 153.553 17.3285 153.553 17.3295C153.553 17.3305 153.553 17.3315 153.553 17.3325C153.553 17.3335 153.553 17.3345 153.553 17.3355C153.553 17.3365 153.553 17.3374 153.553 17.3384C153.553 17.3394 153.553 17.3404 153.553 17.3414C153.553 17.3424 153.553 17.3434 153.553 17.3444C153.553 17.3454 153.553 17.3464 153.553 17.3474C153.553 17.3484 153.553 17.3494 153.553 17.3504C153.553 17.3514 153.553 17.3524 153.553 17.3534C153.553 17.3543 153.553 17.3553 153.553 17.3563C153.553 17.3573 153.553 17.3583 153.553 17.3593C153.553 17.3603 153.553 17.3613 153.553 17.3623C153.553 17.3633 153.553 17.3642 153.553 17.3652C153.553 17.3662 153.553 17.3672 153.553 17.3682C153.553 17.3692 153.553 17.3702 153.553 17.3712C153.553 17.3722 153.553 17.3731 153.553 17.3741C153.553 17.3751 153.553 17.3761 153.553 17.3771C153.553 17.3781 153.553 17.3791 153.553 17.38C153.553 17.381 153.553 17.382 153.553 17.383C153.553 17.384 153.553 17.385 153.553 17.3859C153.553 17.3869 153.553 17.3879 153.553 17.3889C153.553 17.3899 153.553 17.3909 153.553 17.3918C153.553 17.3928 153.553 17.3938 153.553 17.3948C153.553 17.3958 153.553 17.3968 153.553 17.3977C153.553 17.3987 153.553 17.3997 153.553 17.4007C153.553 17.4017 153.553 17.4026 153.553 17.4036C153.553 17.4046 153.553 17.4056 153.553 17.4065C153.553 17.4075 153.553 17.4085 153.553 17.4095C153.553 17.4105 153.553 17.4114 153.553 17.4124C153.553 17.4134 153.553 17.4144 153.553 17.4153C153.553 17.4163 153.553 17.4173 153.553 17.4183C153.553 17.4192 153.553 17.4202 153.553 17.4212C153.553 17.4222 153.553 17.4231 153.553 17.4241C153.553 17.4251 153.553 17.4261 153.553 17.427C153.553 17.428 153.553 17.429 153.553 17.43C153.553 17.4309 153.553 17.4319 153.553 17.4329C153.553 17.4338 153.553 17.4348 153.553 17.4358C153.553 17.4368 153.553 17.4377 153.553 17.4387C153.553 17.4397 153.553 17.4406 153.553 17.4416C153.553 17.4426 153.553 17.4435 153.553 17.4445C153.553 17.4455 153.553 17.4464 153.553 17.4474C153.553 17.4484 153.553 17.4493 153.553 17.4503C153.553 17.4513 153.553 17.4522 153.553 17.4532C153.553 17.4542 153.553 17.4551 153.553 17.4561C153.553 17.4571 153.553 17.458 153.553 17.459C153.553 17.46 153.553 17.4609 153.553 17.4619C153.553 17.4629 153.553 17.4638 153.553 17.4648C153.553 17.4657 153.553 17.4667 153.553 17.4677C153.553 17.4686 153.553 17.4696 153.553 17.4706C153.553 17.4715 153.553 17.4725 153.553 17.4734C153.553 17.4744 153.553 17.4754 153.553 17.4763C153.553 17.4773 153.553 17.4782 153.553 17.4792C153.553 17.4802 153.553 17.4811 153.553 17.4821C153.553 17.483 153.553 17.484 153.553 17.485C153.553 17.4859 153.553 17.4869 153.553 17.4878C153.553 17.4888 153.553 17.4897 153.553 17.4907C153.553 17.4916 153.553 17.4926 153.553 17.4936C153.553 17.4945 153.553 17.4955 153.553 17.4964C153.553 17.4974 153.553 17.4983 153.553 17.4993C153.553 17.5002 153.553 17.5012 153.553 17.5021C153.553 17.5031 153.553 17.5041 153.553 17.505C153.553 17.506 153.553 17.5069 153.553 17.5079C153.553 17.5088 153.553 17.5098 153.553 17.5107C153.553 17.5117 153.553 17.5126 153.553 17.5136C153.553 17.5145 153.553 17.5155 153.553 17.5164C153.553 17.5174 153.553 17.5183 153.553 17.5193C153.553 17.5202 153.553 17.5212 153.553 17.5221C153.553 17.5231 153.553 17.524 153.553 17.5249C153.553 17.5259 153.553 17.5268 153.553 17.5278C153.553 17.5287 153.553 17.5297 153.553 17.5306C153.553 17.5316 153.553 17.5325 153.553 17.5335C153.553 17.5344 153.553 17.5353 153.553 17.5363C153.553 17.5372 153.553 17.5382 153.553 17.5391C153.553 17.5401 153.553 17.541 153.553 17.542C153.553 17.5429 153.553 17.5438 153.553 17.5448C153.553 17.5457 153.553 17.5467 153.553 17.5476C153.553 17.5485 153.553 17.5495 153.553 17.5504C153.553 17.5514 153.553 17.5523 153.553 17.5532C153.553 17.5542 153.553 17.5551 153.553 17.5561C153.553 17.557 153.553 17.5579 153.553 17.5589C153.553 17.5598 153.553 17.5607 153.553 17.5617C153.553 17.5626 153.553 17.5636 153.553 17.5645C153.553 17.5654 153.553 17.5664 153.553 17.5673C153.553 17.5682 153.553 17.5692 153.553 17.5701C153.553 17.571 153.553 17.572 153.553 17.5729C153.553 17.5738 153.553 17.5748 153.553 17.5757C153.553 17.5766 153.553 17.5776 153.553 17.5785C153.553 17.5794 153.553 17.5804 153.553 17.5813C153.553 17.5822 153.553 17.5832 153.553 17.5841C153.553 17.585 153.553 17.586 153.553 17.5869C153.553 17.5878 153.553 17.5888 153.553 17.5897C153.553 17.5906 153.553 17.5915 153.553 17.5925C153.553 17.5934 153.553 17.5943 153.553 17.5953C153.553 17.5962 153.553 17.5971 153.553 17.598C153.553 17.599 153.553 17.5999 153.553 17.6008C153.553 17.6017 153.553 17.6027 153.553 17.6036C153.553 17.6045 153.553 17.6054 153.553 17.6064C153.553 17.6073 153.553 17.6082 153.553 17.6091C153.553 17.6101 153.553 17.611 153.553 17.6119C153.553 17.6128 153.553 17.6138 153.553 17.6147C153.553 17.6156 153.553 17.6165 153.553 17.6175C153.553 17.6184 153.553 17.6193 153.553 17.6202C153.553 17.6211 153.553 17.6221 153.553 17.623C153.553 17.6239 153.553 17.6248 153.553 17.6257C153.553 17.6267 153.553 17.6276 153.553 17.6285C153.553 17.6294 153.553 17.6303 153.553 17.6312C153.553 17.6322 153.553 17.6331 153.553 17.634C153.553 17.6349 153.553 17.6358 153.553 17.6368C153.553 17.6377 153.553 17.6386 153.553 17.6395C153.553 17.6404 153.553 17.6413 153.553 17.6422C153.553 17.6432 153.553 17.6441 153.553 17.645C153.553 17.6459 153.553 17.6468 153.553 17.6477C153.553 17.6486 153.553 17.6496 153.553 17.6505C153.553 17.6514 153.553 17.6523 153.553 17.6532C153.553 17.6541 153.553 17.655 153.553 17.6559C153.553 17.6569 153.553 17.6578 153.553 17.6587C153.553 17.6596 153.553 17.6605 153.553 17.6614C153.553 17.6623 153.553 17.6632 153.553 17.6641C153.553 17.665 153.553 17.6659 153.553 17.6669C153.553 17.6678 153.553 17.6687 153.553 17.6696C153.553 17.6705 153.553 17.6714 153.553 17.6723C153.553 17.6732 153.553 17.6741 153.553 17.675C153.553 17.6759 153.553 17.6768 153.553 17.6777C153.553 17.6786 153.553 17.6795 153.553 17.6804C153.553 17.6814 153.553 17.6823 153.553 17.6832C153.553 17.6841 153.553 17.685 153.553 17.6859C153.553 17.6868 153.553 17.6877 153.553 17.6886C153.553 17.6895 153.553 17.6904 153.553 17.6913C153.553 17.6922 153.553 17.6931 153.553 17.694C153.553 17.6949 153.553 17.6958 153.553 17.6967C153.553 17.6976 153.553 17.6985 153.553 17.6994C153.553 17.7003 153.553 17.7012 153.553 17.7021C153.553 17.703 153.553 17.7039 153.553 17.7048C153.553 17.7057 153.553 17.7066 153.553 17.7075C153.553 17.7084 153.553 17.7093 153.553 17.7102C153.553 17.711 153.553 17.7119 153.553 17.7128C153.553 17.7137 153.553 17.7146 153.553 17.7155C153.553 17.7164 153.553 17.7173 153.553 17.7182C153.553 17.7191 153.553 17.72 153.553 17.7209C153.553 17.7218 153.553 17.7227 153.553 17.7236C153.553 17.7245 153.553 17.7253 153.553 17.7262C153.553 17.7271 153.553 17.728 153.553 17.7289C153.553 17.7298 153.553 17.7307 153.553 17.7316C153.553 17.7325 153.553 17.7334 153.553 17.7342C153.553 17.7351 153.553 17.736 153.553 17.7369C153.553 17.7378 153.553 17.7387 153.553 17.7396C153.553 17.7405 153.553 17.7413 153.553 17.7422C153.553 17.7431 153.553 17.744 153.553 17.7449C153.553 17.7458 153.553 17.7467 153.553 17.7476C153.553 17.7484 153.553 17.7493 153.553 17.7502C153.553 17.7511 153.553 17.752 153.553 17.7529C153.553 17.7537 153.553 17.7546 153.553 17.7555C153.553 17.7564 153.553 17.7573 153.553 17.7582C153.553 17.759 153.553 17.7599 153.553 17.7608C153.553 17.7617 153.553 17.7626 153.553 17.7634C153.553 17.7643 153.553 17.7652 153.553 17.7661C153.553 17.767 153.553 17.7678 153.553 17.7687C153.553 17.7696 153.553 17.7705 153.553 17.7714C153.553 17.7722 153.553 17.7731 153.553 17.774C153.553 17.7749 153.553 17.7757 153.553 17.7766C153.553 17.7775 153.553 17.7784 153.553 17.7793C153.553 17.7801 153.553 17.781 153.553 17.7819C153.553 17.7828 153.553 17.7836 153.553 17.7845C153.553 17.7854 153.553 17.7863 153.553 17.7871C153.553 17.788 153.553 17.7889 153.553 17.7897C153.553 17.7906 153.553 17.7915 153.553 17.7924C153.553 17.7932 153.553 17.7941 153.553 17.795C153.553 17.7959 153.553 17.7967 153.553 17.7976C153.553 17.7985 153.553 17.7993 153.553 17.8002C153.553 17.8011 153.553 17.8019 153.553 17.8028C153.553 17.8037 153.553 17.8045 153.553 17.8054C153.553 17.8063 153.553 17.8072 153.553 17.808C153.553 17.8089 153.553 17.8098 153.553 17.8106C153.553 17.8115 153.553 17.8124 153.553 17.8132C153.553 17.8141 153.553 17.815 153.553 17.8158C153.553 17.8167 153.553 17.8176 153.553 17.8184C153.553 17.8193 153.553 17.8201 153.553 17.821C153.553 17.8219 153.553 17.8227 153.553 17.8236C153.553 17.8245 153.553 17.8253 153.553 17.8262C153.553 17.827 153.553 17.8279 153.553 17.8288C153.553 17.8296 153.553 17.8305 153.553 17.8314C153.553 17.8322 153.553 17.8331 153.553 17.8339C153.553 17.8348 153.553 17.8357 153.553 17.8365C153.553 17.8374 153.553 17.8382 153.553 17.8391C153.553 17.84 153.553 17.8408 153.553 17.8417C153.553 17.8425 153.553 17.8434 153.553 17.8442C153.553 17.8451 153.553 17.846 153.553 17.8468C153.553 17.8477 153.553 17.8485 153.553 17.8494C153.553 17.8502 153.553 17.8511 153.553 17.8519C153.553 17.8528 153.553 17.8536 153.553 17.8545C153.553 17.8554 153.553 17.8562 153.553 17.8571C153.553 17.8579 153.553 17.8588 153.553 17.8596C153.553 17.8605 153.553 17.8613 153.553 17.8622C153.553 17.863 153.553 17.8639 153.553 17.8647C153.553 17.8656 153.553 17.8664 153.553 17.8673C153.553 17.8681 153.553 17.869 153.553 17.8698C153.553 17.8707 153.553 17.8715 153.553 17.8724C153.553 17.8732 153.553 17.8741 153.553 17.8749C153.553 17.8758 153.553 17.8766 153.553 17.8775C153.553 17.8783 153.553 17.8792 153.553 17.88C153.553 17.8809 153.553 17.8817 153.553 17.8825C153.553 17.8834 153.553 17.8842 153.553 17.8851C153.553 17.8859 153.553 17.8868 153.553 17.8876C153.553 17.8885 153.553 17.8893 153.553 17.8901C153.553 17.891 153.553 17.8918 153.553 17.8927C153.553 17.8935 153.553 17.8944 153.553 17.8952C153.553 17.896 153.553 17.8969 153.553 17.8977C153.553 17.8986 153.553 17.8994 153.553 17.9002C153.553 17.9011 153.553 17.9019 153.553 17.9028C153.553 17.9036 153.553 17.9044 153.553 17.9053C153.553 17.9061 153.553 17.907 153.553 17.9078C153.553 17.9086 153.553 17.9095 153.553 17.9103C153.553 17.9111 153.553 17.912 153.553 17.9128C153.553 17.9137 153.553 17.9145 153.553 17.9153C153.553 17.9162 153.553 17.917 153.553 17.9178C153.553 17.9187 153.553 17.9195 153.553 17.9203C153.553 17.9212 153.553 17.922 153.553 17.9228C153.553 17.9237 153.553 17.9245 153.553 17.9253C153.553 17.9262 153.553 17.927 153.553 17.9278C153.553 17.9287 153.553 17.9295 153.553 17.9303C153.553 17.9312 153.553 17.932 153.553 17.9328C153.553 17.9336 153.553 17.9345 153.553 17.9353C153.553 17.9361 153.553 17.937 153.553 17.9378C153.553 17.9386 153.553 17.9394 153.553 17.9403C153.553 17.9411 153.553 17.9419 153.553 17.9428C153.553 17.9436 153.553 17.9444 153.553 17.9452C153.553 17.9461 153.553 17.9469 153.553 17.9477C153.553 17.9485 153.553 17.9494 153.553 17.9502C153.553 17.951 153.553 17.9518 153.553 17.9527C153.553 17.9535 153.553 17.9543 153.553 17.9551C153.553 17.956 153.553 17.9568 153.553 17.9576C153.553 17.9584 153.553 17.9593 153.553 17.9601C153.553 17.9609 153.553 17.9617 153.553 17.9625C153.553 17.9634 153.553 17.9642 153.553 17.965C153.553 17.9658 153.553 17.9666 153.553 17.9675C153.553 17.9683 153.553 17.9691 153.553 17.9699C153.553 17.9707 153.553 17.9716 153.553 17.9724C153.553 17.9732 153.553 17.974 153.553 17.9748C153.553 17.9756 153.553 17.9765 153.553 17.9773C153.553 17.9781 153.553 17.9789 153.553 17.9797C153.553 17.9805 153.553 17.9814 153.553 17.9822C153.553 17.983 153.553 17.9838 153.553 17.9846C153.553 17.9854 153.553 17.9862 153.553 17.9871C153.553 17.9879 153.553 17.9887 153.553 17.9895C153.553 17.9903 153.553 17.9911 153.553 17.9919C153.553 17.9927 153.553 17.9936 153.553 17.9944C153.553 17.9952 153.553 17.996 153.553 17.9968C153.553 17.9976 153.553 17.9984 153.553 17.9992C153.553 18 153.553 18.0008 153.553 18.0017C153.553 18.0025 153.553 18.0033 153.553 18.0041C153.553 18.0049 153.553 18.0057 153.553 18.0065C153.553 18.0073 153.553 18.0081 153.553 18.0089C153.553 18.0097 153.553 18.0105 153.553 18.0113C153.553 18.0122 153.553 18.013 153.553 18.0138C153.553 18.0146 153.553 18.0154 153.553 18.0162C153.553 18.017 153.553 18.0178 153.553 18.0186C153.553 18.0194 153.553 18.0202 153.553 18.021C153.553 18.0218 153.553 18.0226 153.553 18.0234C153.553 18.0242 153.553 18.025 153.553 18.0258C153.553 18.0266 153.553 18.0274 153.553 18.0282C153.553 18.029 153.553 18.0298 153.553 18.0306C153.553 18.0314 153.553 18.0322 153.553 18.033C153.553 18.0338 153.553 18.0346 153.553 18.0354C153.553 18.0362 153.553 18.037 153.553 18.0378C153.553 18.0386 153.553 18.0394 153.553 18.0402C153.553 18.041 153.553 18.0418 153.553 18.0426C153.553 18.0434 153.553 18.0442 153.553 18.045C153.553 18.0458 153.553 18.0466 153.553 18.0473C153.553 18.0481 153.553 18.0489 153.553 18.0497C153.553 18.0505 153.553 18.0513 153.553 18.0521C153.553 18.0529 153.553 18.0537 153.553 18.0545C153.553 18.0553 153.553 18.0561 153.553 18.0569C153.553 18.0577 153.553 18.0584 153.553 18.0592C153.553 18.06 153.553 18.0608 153.553 18.0616C153.553 18.0624 153.553 18.0632 153.553 18.064C153.553 18.0648 153.553 18.0656 153.553 18.0663C153.553 18.0671 153.553 18.0679 153.553 18.0687C153.553 18.0695 153.553 18.0703 153.553 18.0711C153.553 18.0719 153.553 18.0726 153.553 18.0734C153.553 18.0742 153.553 18.075 153.553 18.0758C153.553 18.0766 153.553 18.0774 153.553 18.0781C153.553 18.0789 153.553 18.0797 153.553 18.0805C153.553 18.0813 153.553 18.0821 153.553 18.0828C153.553 18.0836 153.553 18.0844 153.553 18.0852C153.553 18.086 153.553 18.0867 153.553 18.0875C153.553 18.0883 153.553 18.0891 153.553 18.0899C153.553 18.0907 153.553 18.0914 153.553 18.0922C153.553 18.093 153.553 18.0938 153.553 18.0946C153.553 18.0953 153.553 18.0961 153.553 18.0969C153.553 18.0977 153.553 18.0984 153.553 18.0992C153.553 18.1 153.553 18.1008 153.553 18.1016C153.553 18.1023 153.553 18.1031 153.553 18.1039C153.553 18.1047 153.553 18.1054 153.553 18.1062C153.553 18.107 153.553 18.1078 153.553 18.1085C153.553 18.1093 153.553 18.1101 153.553 18.1109C153.553 18.1116 153.553 18.1124 153.553 18.1132C153.553 18.114 153.553 18.1147 153.553 18.1155C153.553 18.1163 153.553 18.117 153.553 18.1178C153.553 18.1186 153.553 18.1194 153.553 18.1201C153.553 18.1209 153.553 18.1217 153.553 18.1224C153.553 18.1232 153.553 18.124 153.553 18.1247C153.553 18.1255 153.553 18.1263 153.553 18.1271C153.553 18.1278 153.553 18.1286 153.553 18.1294C153.553 18.1301 153.553 18.1309 153.553 18.1317C153.553 18.1324 153.553 18.1332 153.553 18.134C153.553 18.1347 153.553 18.1355 153.553 18.1363C153.553 18.137 153.553 18.1378 153.553 18.1385C153.553 18.1393 153.553 18.1401 153.553 18.1408C153.553 18.1416 153.553 18.1424 153.553 18.1431C153.553 18.1439 153.553 18.1447 153.553 18.1454C153.553 18.1462 153.553 18.1469 153.553 18.1477C153.553 18.1485 153.553 18.1492 153.553 18.15C153.553 18.1508 153.553 18.1515 153.553 18.1523C153.553 18.153 153.553 18.1538 153.553 18.1546C153.553 18.1553 153.553 18.1561 153.553 18.1568C153.553 18.1576 153.553 18.1583 153.553 18.1591C153.553 18.1599 153.553 18.1606 153.553 18.1614C153.553 18.1621 153.553 18.1629 153.553 18.1636C153.553 18.1644 153.553 18.1652 153.553 18.1659C153.553 18.1667 153.553 18.1674 153.553 18.1682C153.553 18.1689 153.553 18.1697 153.553 18.1704C153.553 18.1712 153.553 18.1719 153.553 18.1727C153.553 18.1735 153.553 18.1742 153.553 18.175C153.553 18.1757 153.553 18.1765 153.553 18.1772C153.553 18.178 153.553 18.1787 153.553 18.1795C153.553 18.1802 153.553 18.181 153.553 18.1817C153.553 18.1825 153.553 18.1832 153.553 18.184C153.553 18.1847 153.553 18.1855 153.553 18.1862C153.553 18.187 153.553 18.1877 153.553 18.1885C153.553 18.1892 153.553 18.19 153.553 18.1907C153.553 18.1914 153.553 18.1922 153.553 18.1929C153.553 18.1937 153.553 18.1944 153.553 18.1952C153.553 18.1959 153.553 18.1967 153.553 18.1974C153.553 18.1982 153.553 18.1989 153.553 18.1996C153.553 18.2004 153.553 18.2011 153.553 18.2019C153.553 18.2026 153.553 18.2034 153.553 18.2041C153.553 18.2049 153.553 18.2056 153.553 18.2063C153.553 18.2071 153.553 18.2078 153.553 18.2086C153.553 18.2093 153.553 18.21 153.553 18.2108C153.553 18.2115 153.553 18.2123 153.553 18.213C153.553 18.2137 153.553 18.2145 153.553 18.2152C153.553 18.216 153.553 18.2167 153.553 18.2174C153.553 18.2182 153.553 18.2189 153.553 18.2196C153.553 18.2204 153.553 18.2211 153.553 18.2219C153.553 18.2226 153.553 18.2233 153.553 18.2241C153.553 18.2248 153.553 18.2255 153.553 18.2263C153.553 18.227 153.553 18.2277 153.553 18.2285C153.553 18.2292 153.553 18.2299 153.553 18.2307C153.553 18.2314 153.553 18.2321 153.553 18.2329C153.553 18.2336 153.553 18.2343 153.553 18.2351C153.553 18.2358 153.553 18.2365 153.553 18.2373C153.553 18.238 153.553 18.2387 153.553 18.2395C153.553 18.2402 153.553 18.2409 153.553 18.2416C153.553 18.2424 153.553 18.2431 153.553 18.2438C153.553 18.2446 153.553 18.2453 153.553 18.246C153.553 18.2467 153.553 18.2475 153.553 18.2482C153.553 18.2489 153.553 18.2497 153.553 18.2504C153.553 18.2511 153.553 18.2518 153.553 18.2526C153.553 18.2533 153.553 18.254 153.553 18.2547C153.553 18.2555 153.553 18.2562 153.553 18.2569C153.553 18.2576 153.553 18.2584 153.553 18.2591C153.553 18.2598 153.553 18.2605 153.553 18.2612C153.553 18.262 153.553 18.2627 153.553 18.2634C153.553 18.2641 153.553 18.2649 153.553 18.2656C153.553 18.2663 153.553 18.267 153.553 18.2677C153.553 18.2685 153.553 18.2692 153.553 18.2699C153.553 18.2706 153.553 18.2713 153.553 18.2721C153.553 18.2728 153.553 18.2735 153.553 18.2742C153.553 18.2749 153.553 18.2757 153.553 18.2764C153.553 18.2771 153.553 18.2778 153.553 18.2785C153.553 18.2792 153.553 18.28 153.553 18.2807C153.553 18.2814 153.553 18.2821 153.553 18.2828C153.553 18.2835 153.553 18.2842 153.553 18.285C153.553 18.2857 153.553 18.2864 153.553 18.2871C153.553 18.2878 153.553 18.2885 153.553 18.2892C153.553 18.29 153.553 18.2907 153.553 18.2914C153.553 18.2921 153.553 18.2928 153.553 18.2935C153.553 18.2942 153.553 18.2949 153.553 18.2956C153.553 18.2964 153.553 18.2971 153.553 18.2978C153.553 18.2985 153.553 18.2992 153.553 18.2999C153.553 18.3006 153.553 18.3013 153.553 18.302C153.553 18.3027 153.553 18.3034 153.553 18.3042C153.553 18.3049 153.553 18.3056 153.553 18.3063C153.553 18.307 153.553 18.3077 153.553 18.3084C153.553 18.3091 153.553 18.3098 153.553 18.3105C153.553 18.3112 153.553 18.3119 153.553 18.3126C153.553 18.3133 153.553 18.314 153.553 18.3147C153.553 18.3154 153.553 18.3161 153.553 18.3168C153.553 18.3175 153.553 18.3182 153.553 18.319C153.553 18.3197 153.553 18.3204 153.553 18.3211C153.553 18.3218 153.553 18.3225 153.553 18.3232C153.553 18.3239 153.553 18.3246 153.553 18.3253C153.553 18.326 153.553 18.3267 153.553 18.3274C153.553 18.3281 153.553 18.3288 153.553 18.3295C153.553 18.3302 153.553 18.3308 153.553 18.3315C153.553 18.3322 153.553 18.3329 153.553 18.3336C153.553 18.3343 153.553 18.335 153.553 18.3357C153.553 18.3364 153.553 18.3371 153.553 18.3378C153.553 18.3385 153.553 18.3392 153.553 18.3399C153.553 18.3406 153.553 18.3413 153.553 18.342C153.553 18.3427 153.553 18.3434 153.553 18.3441C153.553 18.3448 153.553 18.3454 153.553 18.3461C153.553 18.3468 153.553 18.3475 153.553 18.3482C153.553 18.3489 153.553 18.3496 153.553 18.3503C153.553 18.351 153.553 18.3517 153.553 18.3524C153.553 18.353 153.553 18.3537 153.553 18.3544C153.553 18.3551 153.553 18.3558 153.553 18.3565C153.553 18.3572 153.553 18.3579 153.553 18.3586C153.553 18.3592 153.553 18.3599 153.553 18.3606C153.553 18.3613 153.553 18.362 153.553 18.3627C153.553 18.3634 153.553 18.364 153.553 18.3647C153.553 18.3654 153.553 18.3661 153.553 18.3668C153.553 18.3675 153.553 18.3682 153.553 18.3688C153.553 18.3695 153.553 18.3702 153.553 18.3709C153.553 18.3716 153.553 18.3723 153.553 18.3729C153.553 18.3736 153.553 18.3743 153.553 18.375C153.553 18.3757 153.553 18.3763 153.553 18.377C153.553 18.3777 153.553 18.3784 153.553 18.3791C153.553 18.3797 153.553 18.3804 153.553 18.3811C153.553 18.3818 153.553 18.3825 153.553 18.3831C153.553 18.3838 153.553 18.3845 153.553 18.3852C153.553 18.3859 153.553 18.3865 153.553 18.3872C153.553 18.3879 153.553 18.3886 153.553 18.3892C153.553 18.3899 153.553 18.3906 153.553 18.3913C153.553 18.3919 153.553 18.3926 153.553 18.3933C153.553 18.394 153.553 18.3946 153.553 18.3953C153.553 18.396 153.553 18.3967 153.553 18.3973C153.553 18.398 153.553 18.3987 153.553 18.3994C153.553 18.4 153.553 18.4007 153.553 18.4014C153.553 18.402 153.553 18.4027 153.553 18.4034C153.553 18.4041 153.553 18.4047 153.553 18.4054C153.553 18.4061 153.553 18.4067 153.553 18.4074C153.553 18.4081 153.553 18.4087 153.553 18.4094C153.553 18.4101 153.553 18.4107 153.553 18.4114C153.553 18.4121 153.553 18.4127 153.553 18.4134C153.553 18.4141 153.553 18.4147 153.553 18.4154C153.553 18.4161 153.553 18.4167 153.553 18.4174C153.553 18.4181 153.553 18.4187 153.553 18.4194C153.553 18.4201 153.553 18.4207 153.553 18.4214C153.553 18.4221 153.553 18.4227 153.553 18.4234C153.553 18.4241 153.553 18.4247 153.553 18.4254C153.553 18.426 153.553 18.4267 153.553 18.4274C153.553 18.428 153.553 18.4287 153.553 18.4293C153.553 18.43 153.553 18.4307 153.553 18.4313C153.553 18.432 153.553 18.4326 153.553 18.4333C153.553 18.434 153.553 18.4346 153.553 18.4353C153.553 18.4359 153.553 18.4366 153.553 18.4373C153.553 18.4379 153.553 18.4386 153.553 18.4392C153.553 18.4399 153.553 18.4405 153.553 18.4412C153.553 18.4419 153.553 18.4425 153.553 18.4432C153.553 18.4438 153.553 18.4445 153.553 18.4451C153.553 18.4458 153.553 18.4464 153.553 18.4471C153.553 18.4478 153.553 18.4484 153.553 18.4491C153.553 18.4497 153.553 18.4504 153.553 18.451C153.553 18.4517 153.553 18.4523 153.553 18.453C153.553 18.4536 153.553 18.4543 153.553 18.4549C153.553 18.4556 153.553 18.4562 153.553 18.4569C153.553 18.4575 153.553 18.4582 153.553 18.4588C153.553 18.4595 153.553 18.4601 153.553 18.4608C153.553 18.4614 153.553 18.4621 153.553 18.4627C153.553 18.4634 153.553 18.464 153.553 18.4647C153.553 18.4653 153.553 18.466 153.553 18.4666C153.553 18.4672 153.553 18.4679 153.553 18.4685C153.553 18.4692 153.553 18.4698 153.553 18.4705C153.553 18.4711 153.553 18.4718 153.553 18.4724C153.553 18.4731 153.553 18.4737 153.553 18.4743C153.553 18.475 153.553 18.4756 153.553 18.4763C153.553 18.4769 153.553 18.4776 153.553 18.4782C153.553 18.4788 153.553 18.4795 153.553 18.4801C153.553 18.4808 153.553 18.4814 153.553 18.482C153.553 18.4827 153.553 18.4833 153.553 18.484C153.553 18.4846 153.553 18.4852 153.553 18.4859C153.553 18.4865 153.553 18.4872 153.553 18.4878C153.553 18.4884 153.553 18.4891 153.553 18.4897C153.553 18.4903 153.553 18.491 153.553 18.4916C153.553 18.4923 153.553 18.4929 153.553 18.4935C153.553 18.4942 153.553 18.4948 153.553 18.4954C153.553 18.4961 153.553 18.4967 153.553 18.4973C153.553 18.498 153.553 18.4986 153.553 18.4992C153.553 18.4999 153.553 18.5005 153.553 18.5011C153.553 18.5018 153.553 18.5024 153.553 18.503C153.553 18.5037 153.553 18.5043 153.553 18.5049C153.553 18.5056 153.553 18.5062 153.553 18.5068C153.553 18.5074 153.553 18.5081 153.553 18.5087C153.553 18.5093 153.553 18.51 153.553 18.5106C153.553 18.5112 153.553 18.5119 153.553 18.5125C153.553 18.5131 153.553 18.5137 153.553 18.5144C153.553 18.515 153.553 18.5156 153.553 18.5162C153.553 18.5169 153.553 18.5175 153.553 18.5181C153.553 18.5187 153.553 18.5194 153.553 18.52H155.553ZM155.552 17.2984C155.572 16.7789 155.592 16.2694 155.612 15.77L153.614 15.69C153.594 16.1906 153.573 16.7011 153.553 17.2216L155.552 17.2984ZM155.612 15.7684C155.632 15.2513 155.651 14.8769 155.67 14.6367L153.676 14.4833C153.654 14.7631 153.634 15.1687 153.613 15.6916L155.612 15.7684ZM153.829 14.0232L145.279 27.4632L146.966 28.5368L155.516 15.0968L153.829 14.0232ZM146.123 27H142.853V29H146.123V27ZM143.853 28V11.92H141.853V28H143.853ZM142.853 12.92H145.343V10.92H142.853V12.92ZM144.343 11.92V21.73H146.343V11.92H144.343Z" fill="black"/>
<line y1="-1.5" x2="165.519" y2="-1.5" transform="matrix(0.999987 -0.00504483 0.00880945 0.999961 9 47.2727)" stroke="black" stroke-width="3"/>
<line x1="172.983" y1="44" x2="172.983" y2="56.3" stroke="black" stroke-width="3"/>
<line x1="188.5" y1="54" x2="188.5" y2="66.3" stroke="black" stroke-width="3"/>
<line x1="172" y1="55.5" x2="188.588" y2="55.5" stroke="black" stroke-width="3"/>
<path d="M187 66H203.588" stroke="black" stroke-width="3"/>
<path d="M994.931 342.5C993.276 308.833 963.703 240.4 858.655 236C753.607 231.6 426.839 215.5 276.586 208C214.609 208 91.4276 175.7 94.5173 46.5" stroke="black" stroke-width="3"/>
<path d="M994.293 344.707C994.683 345.098 995.317 345.098 995.707 344.707L1002.07 338.343C1002.46 337.953 1002.46 337.319 1002.07 336.929C1001.68 336.538 1001.05 336.538 1000.66 336.929L995 342.586L989.343 336.929C988.953 336.538 988.319 336.538 987.929 336.929C987.538 337.319 987.538 337.953 987.929 338.343L994.293 344.707ZM994 338V344H996V338H994Z" fill="black"/>
</svg>
