<svg width="1070" height="344" viewBox="0 0 1070 344" fill="none" xmlns="http://www.w3.org/2000/svg">
<path d="M775.17 28H749.91V6.58H752.61V25.6H761.16V6.58H763.86V25.6H772.44V6.58H775.17V28ZM786.753 11.65C788.713 11.65 790.163 12.08 791.103 12.94C792.043 13.8 792.513 15.17 792.513 17.05V28H790.593L790.083 25.72H789.963C789.503 26.3 789.023 26.79 788.523 27.19C788.043 27.57 787.483 27.85 786.843 28.03C786.223 28.21 785.463 28.3 784.563 28.3C783.603 28.3 782.733 28.13 781.953 27.79C781.193 27.45 780.593 26.93 780.153 26.23C779.713 25.51 779.493 24.61 779.493 23.53C779.493 21.93 780.123 20.7 781.383 19.84C782.643 18.96 784.583 18.48 787.203 18.4L789.933 18.31V17.35C789.933 16.01 789.643 15.08 789.063 14.56C788.483 14.04 787.663 13.78 786.603 13.78C785.763 13.78 784.963 13.91 784.203 14.17C783.443 14.41 782.733 14.69 782.073 15.01L781.263 13.03C781.963 12.65 782.793 12.33 783.753 12.07C784.713 11.79 785.713 11.65 786.753 11.65ZM787.533 20.23C785.533 20.31 784.143 20.63 783.363 21.19C782.603 21.75 782.223 22.54 782.223 23.56C782.223 24.46 782.493 25.12 783.033 25.54C783.593 25.96 784.303 26.17 785.163 26.17C786.523 26.17 787.653 25.8 788.553 25.06C789.453 24.3 789.903 23.14 789.903 21.58V20.14L787.533 20.23ZM807.29 11.92V14.14H800.12V28H797.48V11.92H807.29ZM819.067 17.77C819.067 18.71 819.327 19.41 819.847 19.87C820.387 20.31 821.157 20.53 822.157 20.53C823.157 20.53 824.067 20.38 824.887 20.08C825.707 19.76 826.547 19.34 827.407 18.82V11.92H830.047V28H827.407V20.83C826.507 21.41 825.617 21.87 824.737 22.21C823.877 22.53 822.837 22.69 821.617 22.69C819.977 22.69 818.697 22.26 817.777 21.4C816.877 20.54 816.427 19.39 816.427 17.95V11.92H819.067V17.77ZM841.365 11.62C842.745 11.62 843.925 11.92 844.905 12.52C845.905 13.12 846.665 13.97 847.185 15.07C847.725 16.15 847.995 17.42 847.995 18.88V20.47H836.985C837.025 22.29 837.485 23.68 838.365 24.64C839.265 25.58 840.515 26.05 842.115 26.05C843.135 26.05 844.035 25.96 844.815 25.78C845.615 25.58 846.435 25.3 847.275 24.94V27.25C846.455 27.61 845.645 27.87 844.845 28.03C844.045 28.21 843.095 28.3 841.995 28.3C840.475 28.3 839.125 27.99 837.945 27.37C836.785 26.75 835.875 25.83 835.215 24.61C834.575 23.37 834.255 21.86 834.255 20.08C834.255 18.32 834.545 16.81 835.125 15.55C835.725 14.29 836.555 13.32 837.615 12.64C838.695 11.96 839.945 11.62 841.365 11.62ZM841.335 13.78C840.075 13.78 839.075 14.19 838.335 15.01C837.615 15.81 837.185 16.93 837.045 18.37H845.235C845.235 17.45 845.095 16.65 844.815 15.97C844.535 15.29 844.105 14.76 843.525 14.38C842.965 13.98 842.235 13.78 841.335 13.78ZM863.189 14.14H857.939V28H855.329V14.14H850.139V11.92H863.189V14.14ZM879.287 15.97C879.287 16.97 878.987 17.75 878.387 18.31C877.787 18.87 877.017 19.25 876.077 19.45V19.57C877.077 19.71 877.947 20.07 878.687 20.65C879.427 21.21 879.797 22.09 879.797 23.29C879.797 23.97 879.667 24.6 879.407 25.18C879.167 25.76 878.787 26.26 878.267 26.68C877.747 27.1 877.077 27.43 876.257 27.67C875.437 27.89 874.447 28 873.287 28H866.357V11.92H873.257C874.397 11.92 875.417 12.05 876.317 12.31C877.237 12.55 877.957 12.97 878.477 13.57C879.017 14.15 879.287 14.95 879.287 15.97ZM877.067 23.29C877.067 22.37 876.717 21.71 876.017 21.31C875.317 20.91 874.287 20.71 872.927 20.71H868.997V25.87H872.987C874.307 25.87 875.317 25.68 876.017 25.3C876.717 24.9 877.067 24.23 877.067 23.29ZM876.617 16.3C876.617 15.54 876.337 14.99 875.777 14.65C875.237 14.29 874.347 14.11 873.107 14.11H868.997V18.52H872.627C873.927 18.52 874.917 18.34 875.597 17.98C876.277 17.62 876.617 17.06 876.617 16.3ZM889.852 11.62C891.232 11.62 892.412 11.92 893.392 12.52C894.392 13.12 895.152 13.97 895.672 15.07C896.212 16.15 896.482 17.42 896.482 18.88V20.47H885.472C885.512 22.29 885.972 23.68 886.852 24.64C887.752 25.58 889.002 26.05 890.602 26.05C891.622 26.05 892.522 25.96 893.302 25.78C894.102 25.58 894.922 25.3 895.762 24.94V27.25C894.942 27.61 894.132 27.87 893.332 28.03C892.532 28.21 891.582 28.3 890.482 28.3C888.962 28.3 887.612 27.99 886.432 27.37C885.272 26.75 884.362 25.83 883.702 24.61C883.062 23.37 882.742 21.86 882.742 20.08C882.742 18.32 883.032 16.81 883.612 15.55C884.212 14.29 885.042 13.32 886.102 12.64C887.182 11.96 888.432 11.62 889.852 11.62ZM889.822 13.78C888.562 13.78 887.562 14.19 886.822 15.01C886.102 15.81 885.672 16.93 885.532 18.37H893.722C893.722 17.45 893.582 16.65 893.302 15.97C893.022 15.29 892.592 14.76 892.012 14.38C891.452 13.98 890.722 13.78 889.822 13.78ZM908.225 11.62C910.205 11.62 911.795 12.31 912.995 13.69C914.215 15.07 914.825 17.15 914.825 19.93C914.825 21.75 914.545 23.29 913.985 24.55C913.445 25.79 912.675 26.73 911.675 27.37C910.695 27.99 909.535 28.3 908.195 28.3C907.375 28.3 906.645 28.19 906.005 27.97C905.365 27.75 904.815 27.47 904.355 27.13C903.915 26.77 903.535 26.38 903.215 25.96H903.035C903.075 26.3 903.115 26.73 903.155 27.25C903.195 27.77 903.215 28.22 903.215 28.6V35.2H900.575V11.92H902.735L903.095 14.11H903.215C903.535 13.65 903.915 13.23 904.355 12.85C904.815 12.47 905.355 12.17 905.975 11.95C906.615 11.73 907.365 11.62 908.225 11.62ZM907.745 13.84C906.665 13.84 905.795 14.05 905.135 14.47C904.475 14.87 903.995 15.48 903.695 16.3C903.395 17.12 903.235 18.16 903.215 19.42V19.93C903.215 21.25 903.355 22.37 903.635 23.29C903.915 24.21 904.385 24.91 905.045 25.39C905.725 25.87 906.645 26.11 907.805 26.11C908.785 26.11 909.585 25.84 910.205 25.3C910.845 24.76 911.315 24.03 911.615 23.11C911.935 22.17 912.095 21.1 912.095 19.9C912.095 18.06 911.735 16.59 911.015 15.49C910.315 14.39 909.225 13.84 907.745 13.84ZM929.839 14.14H924.589V28H921.979V14.14H916.789V11.92H929.839V14.14ZM933.007 28V11.92H935.647V18.52H939.817C941.217 18.52 942.367 18.69 943.267 19.03C944.167 19.37 944.837 19.88 945.277 20.56C945.717 21.22 945.937 22.06 945.937 23.08C945.937 24.08 945.717 24.95 945.277 25.69C944.857 26.43 944.187 27 943.267 27.4C942.367 27.8 941.177 28 939.697 28H933.007ZM939.457 25.87C940.597 25.87 941.527 25.68 942.247 25.3C942.967 24.9 943.327 24.21 943.327 23.23C943.327 22.25 942.997 21.59 942.337 21.25C941.677 20.89 940.727 20.71 939.487 20.71H935.647V25.87H939.457ZM948.607 28V11.92H951.247V28H948.607ZM969.377 5.26C969.297 6.26 969.047 7.1 968.627 7.78C968.227 8.46 967.627 8.97 966.827 9.31C966.027 9.65 964.987 9.82 963.707 9.82C962.407 9.82 961.357 9.65 960.557 9.31C959.777 8.97 959.207 8.47 958.847 7.81C958.487 7.13 958.267 6.28 958.187 5.26H960.647C960.747 6.34 961.027 7.07 961.487 7.45C961.967 7.81 962.727 7.99 963.767 7.99C964.687 7.99 965.407 7.8 965.927 7.42C966.467 7.02 966.787 6.3 966.887 5.26H969.377ZM958.847 21.73C958.847 21.91 958.837 22.17 958.817 22.51C958.817 22.83 958.807 23.18 958.787 23.56C958.767 23.92 958.747 24.27 958.727 24.61C958.707 24.93 958.687 25.19 958.667 25.39L967.277 11.92H970.517V28H968.057V18.52C968.057 18.2 968.057 17.78 968.057 17.26C968.077 16.74 968.097 16.23 968.117 15.73C968.137 15.21 968.157 14.82 968.177 14.56L959.627 28H956.357V11.92H958.847V21.73Z" fill="black"/>
<path d="M775.17 28V29H776.17V28H775.17ZM749.91 28H748.91V29H749.91V28ZM749.91 6.58V5.58H748.91V6.58H749.91ZM752.61 6.58H753.61V5.58H752.61V6.58ZM752.61 25.6H751.61V26.6H752.61V25.6ZM761.16 25.6V26.6H762.16V25.6H761.16ZM761.16 6.58V5.58H760.16V6.58H761.16ZM763.86 6.58H764.86V5.58H763.86V6.58ZM763.86 25.6H762.86V26.6H763.86V25.6ZM772.44 25.6V26.6H773.44V25.6H772.44ZM772.44 6.58V5.58H771.44V6.58H772.44ZM775.17 6.58H776.17V5.58H775.17V6.58ZM775.17 27H749.91V29H775.17V27ZM750.91 28V6.58H748.91V28H750.91ZM749.91 7.58H752.61V5.58H749.91V7.58ZM751.61 6.58V25.6H753.61V6.58H751.61ZM752.61 26.6H761.16V24.6H752.61V26.6ZM762.16 25.6V6.58H760.16V25.6H762.16ZM761.16 7.58H763.86V5.58H761.16V7.58ZM762.86 6.58V25.6H764.86V6.58H762.86ZM763.86 26.6H772.44V24.6H763.86V26.6ZM773.44 25.6V6.58H771.44V25.6H773.44ZM772.44 7.58H775.17V5.58H772.44V7.58ZM774.17 6.58V28H776.17V6.58H774.17ZM791.103 12.94L791.778 12.2022L791.778 12.2022L791.103 12.94ZM792.513 28V29H793.513V28H792.513ZM790.593 28L789.617 28.2183L789.792 29H790.593V28ZM790.083 25.72L791.059 25.5017L790.884 24.72H790.083V25.72ZM789.963 25.72V24.72H789.48L789.18 25.0986L789.963 25.72ZM788.523 27.19L789.144 27.9741L789.148 27.9709L788.523 27.19ZM786.843 28.03L786.573 27.0673L786.564 27.0697L786.843 28.03ZM781.953 27.79L781.545 28.7029L781.554 28.7067L781.953 27.79ZM780.153 26.23L779.3 26.7515L779.307 26.7622L780.153 26.23ZM781.383 19.84L781.947 20.666L781.956 20.6598L781.383 19.84ZM787.203 18.4L787.234 19.3995L787.236 19.3995L787.203 18.4ZM789.933 18.31L789.966 19.3095L790.933 19.2776V18.31H789.933ZM789.063 14.56L788.396 15.3046L788.396 15.3046L789.063 14.56ZM784.203 14.17L784.504 15.1236L784.516 15.12L784.527 15.1162L784.203 14.17ZM782.073 15.01L781.148 15.3886L781.551 16.3745L782.51 15.9098L782.073 15.01ZM781.263 13.03L780.786 12.1511L779.998 12.5789L780.338 13.4086L781.263 13.03ZM783.753 12.07L784.015 13.0352L784.024 13.0327L784.033 13.03L783.753 12.07ZM787.533 20.23L787.495 19.2307L787.493 19.2308L787.533 20.23ZM783.363 21.19L782.78 20.3776L782.77 20.3849L783.363 21.19ZM783.033 25.54L782.419 26.3294L782.426 26.3347L782.433 26.34L783.033 25.54ZM788.553 25.06L789.188 25.8325L789.198 25.824L788.553 25.06ZM789.903 20.14H790.903V19.1013L789.865 19.1407L789.903 20.14ZM786.753 12.65C788.593 12.65 789.75 13.0573 790.428 13.6778L791.778 12.2022C790.576 11.1027 788.833 10.65 786.753 10.65V12.65ZM790.428 13.6778C791.079 14.2734 791.513 15.316 791.513 17.05H793.513C793.513 15.024 793.007 13.3266 791.778 12.2022L790.428 13.6778ZM791.513 17.05V28H793.513V17.05H791.513ZM792.513 27H790.593V29H792.513V27ZM791.569 27.7817L791.059 25.5017L789.107 25.9383L789.617 28.2183L791.569 27.7817ZM790.083 24.72H789.963V26.72H790.083V24.72ZM789.18 25.0986C788.759 25.6286 788.332 26.0628 787.899 26.4091L789.148 27.9709C789.715 27.5172 790.247 26.9714 790.747 26.3414L789.18 25.0986ZM787.903 26.406C787.535 26.697 787.096 26.9201 786.573 27.0673L787.114 28.9927C787.87 28.7799 788.552 28.443 789.144 27.974L787.903 26.406ZM786.564 27.0697C786.063 27.2153 785.403 27.3 784.563 27.3V29.3C785.524 29.3 786.384 29.2047 787.122 28.9903L786.564 27.0697ZM784.563 27.3C783.723 27.3 782.992 27.1517 782.353 26.8733L781.554 28.7067C782.475 29.1083 783.483 29.3 784.563 29.3V27.3ZM782.362 26.8772C781.781 26.6173 781.334 26.2292 781 25.6978L779.307 26.7622C779.853 27.6308 780.606 28.2827 781.545 28.7028L782.362 26.8772ZM781.007 25.7085C780.686 25.1839 780.493 24.4768 780.493 23.53H778.493C778.493 24.7432 778.741 25.8361 779.3 26.7514L781.007 25.7085ZM780.493 23.53C780.493 22.2413 780.975 21.3291 781.947 20.6659L780.82 19.014C779.271 20.0709 778.493 21.6187 778.493 23.53H780.493ZM781.956 20.6598C782.98 19.9448 784.686 19.4773 787.234 19.3995L787.173 17.4005C784.48 17.4827 782.307 17.9752 780.811 19.0202L781.956 20.6598ZM787.236 19.3995L789.966 19.3095L789.9 17.3105L787.17 17.4005L787.236 19.3995ZM790.933 18.31V17.35H788.933V18.31H790.933ZM790.933 17.35C790.933 15.9199 790.633 14.6245 789.731 13.8154L788.396 15.3046C788.653 15.5355 788.933 16.1001 788.933 17.35H790.933ZM789.731 13.8154C788.91 13.0796 787.82 12.78 786.603 12.78V14.78C787.507 14.78 788.056 15.0004 788.396 15.3046L789.731 13.8154ZM786.603 12.78C785.658 12.78 784.748 12.9266 783.88 13.2238L784.527 15.1162C785.178 14.8934 785.868 14.78 786.603 14.78V12.78ZM783.902 13.2164C783.1 13.4698 782.344 13.7673 781.637 14.1102L782.51 15.9098C783.122 15.6127 783.787 15.3502 784.504 15.1236L783.902 13.2164ZM782.999 14.6314L782.189 12.6514L780.338 13.4086L781.148 15.3886L782.999 14.6314ZM781.74 13.9089C782.358 13.5738 783.112 13.2797 784.015 13.0352L783.492 11.1048C782.475 11.3803 781.569 11.7262 780.786 12.1511L781.74 13.9089ZM784.033 13.03C784.899 12.7776 785.804 12.65 786.753 12.65V10.65C785.622 10.65 784.528 10.8024 783.473 11.11L784.033 13.03ZM787.493 19.2308C785.469 19.3118 783.817 19.6334 782.78 20.3777L783.946 22.0023C784.47 21.6266 785.597 21.3082 787.573 21.2292L787.493 19.2308ZM782.77 20.3849C781.731 21.1504 781.223 22.252 781.223 23.56H783.223C783.223 22.828 783.475 22.3496 783.956 21.9951L782.77 20.3849ZM781.223 23.56C781.223 24.6632 781.563 25.6634 782.419 26.3294L783.647 24.7506C783.423 24.5766 783.223 24.2568 783.223 23.56H781.223ZM782.433 26.34C783.203 26.9172 784.137 27.17 785.163 27.17V25.17C784.469 25.17 783.984 25.0028 783.633 24.74L782.433 26.34ZM785.163 27.17C786.714 27.17 788.08 26.7435 789.188 25.8324L787.918 24.2876C787.226 24.8565 786.332 25.17 785.163 25.17V27.17ZM789.198 25.824C790.391 24.817 790.903 23.3328 790.903 21.58H788.903C788.903 22.9472 788.516 23.783 787.908 24.296L789.198 25.824ZM790.903 21.58V20.14H788.903V21.58H790.903ZM789.865 19.1407L787.495 19.2307L787.571 21.2293L789.941 21.1393L789.865 19.1407ZM807.29 11.92H808.29V10.92H807.29V11.92ZM807.29 14.14V15.14H808.29V14.14H807.29ZM800.12 14.14V13.14H799.12V14.14H800.12ZM800.12 28V29H801.12V28H800.12ZM797.48 28H796.48V29H797.48V28ZM797.48 11.92V10.92H796.48V11.92H797.48ZM806.29 11.92V14.14H808.29V11.92H806.29ZM807.29 13.14H800.12V15.14H807.29V13.14ZM799.12 14.14V28H801.12V14.14H799.12ZM800.12 27H797.48V29H800.12V27ZM798.48 28V11.92H796.48V28H798.48ZM797.48 12.92H807.29V10.92H797.48V12.92ZM819.847 19.87L819.184 20.619L819.2 20.6324L819.215 20.6452L819.847 19.87ZM824.887 20.08L825.231 21.0191L825.241 21.0155L825.251 21.0116L824.887 20.08ZM827.407 18.82L827.924 19.6757L828.407 19.3839V18.82H827.407ZM827.407 11.92V10.92H826.407V11.92H827.407ZM830.047 11.92H831.047V10.92H830.047V11.92ZM830.047 28V29H831.047V28H830.047ZM827.407 28H826.407V29H827.407V28ZM827.407 20.83H828.407V18.9959L826.865 19.9894L827.407 20.83ZM824.737 22.21L825.086 23.1473L825.097 23.1428L824.737 22.21ZM817.777 21.4L817.086 22.123L817.094 22.1305L817.777 21.4ZM816.427 11.92V10.92H815.427V11.92H816.427ZM819.067 11.92H820.067V10.92H819.067V11.92ZM818.067 17.77C818.067 18.8902 818.381 19.9086 819.184 20.619L820.51 19.121C820.273 18.9114 820.067 18.5298 820.067 17.77H818.067ZM819.215 20.6452C819.997 21.2823 821.025 21.53 822.157 21.53V19.53C821.289 19.53 820.777 19.3377 820.479 19.0948L819.215 20.6452ZM822.157 21.53C823.257 21.53 824.286 21.3648 825.231 21.0191L824.543 19.1409C823.848 19.3952 823.057 19.53 822.157 19.53V21.53ZM825.251 21.0116C826.131 20.6681 827.022 20.2213 827.924 19.6757L826.89 17.9643C826.072 18.4587 825.283 18.8519 824.523 19.1484L825.251 21.0116ZM828.407 18.82V11.92H826.407V18.82H828.407ZM827.407 12.92H830.047V10.92H827.407V12.92ZM829.047 11.92V28H831.047V11.92H829.047ZM830.047 27H827.407V29H830.047V27ZM828.407 28V20.83H826.407V28H828.407ZM826.865 19.9894C826.015 20.5374 825.185 20.9647 824.377 21.2772L825.097 23.1428C826.049 22.7753 826.999 22.2826 827.949 21.6706L826.865 19.9894ZM824.388 21.2728C823.67 21.5401 822.755 21.69 821.617 21.69V23.69C822.919 23.69 824.084 23.5199 825.086 23.1472L824.388 21.2728ZM821.617 21.69C820.152 21.69 819.144 21.309 818.46 20.6695L817.094 22.1305C818.25 23.211 819.802 23.69 821.617 23.69V21.69ZM818.468 20.677C817.797 20.0357 817.427 19.1636 817.427 17.95H815.427C815.427 19.6164 815.957 21.0443 817.086 22.123L818.468 20.677ZM817.427 17.95V11.92H815.427V17.95H817.427ZM816.427 12.92H819.067V10.92H816.427V12.92ZM818.067 11.92V17.77H820.067V11.92H818.067ZM844.905 12.52L844.383 13.3729L844.391 13.3775L844.905 12.52ZM847.185 15.07L846.281 15.4974L846.286 15.5073L846.291 15.5172L847.185 15.07ZM847.995 20.47V21.47H848.995V20.47H847.995ZM836.985 20.47V19.47H835.963L835.986 20.492L836.985 20.47ZM838.365 24.64L837.628 25.3157L837.636 25.3237L837.643 25.3316L838.365 24.64ZM844.815 25.78L845.04 26.7544L845.049 26.7523L845.058 26.7501L844.815 25.78ZM847.275 24.94H848.275V23.4235L846.882 24.0209L847.275 24.94ZM847.275 27.25L847.677 28.1656L848.275 27.9031V27.25H847.275ZM844.845 28.03L844.649 27.0494L844.638 27.0518L844.626 27.0544L844.845 28.03ZM837.945 27.37L837.474 28.252L837.48 28.2552L837.945 27.37ZM835.215 24.61L834.327 25.0686L834.331 25.0773L834.336 25.0858L835.215 24.61ZM835.125 15.55L834.223 15.12L834.217 15.1319L835.125 15.55ZM837.615 12.64L837.083 11.7937L837.076 11.7983L837.615 12.64ZM838.335 15.01L837.593 14.34L837.592 14.341L838.335 15.01ZM837.045 18.37L836.05 18.2732L835.944 19.37H837.045V18.37ZM845.235 18.37V19.37H846.235V18.37H845.235ZM844.815 15.97L843.891 16.3507L843.891 16.3507L844.815 15.97ZM843.525 14.38L842.944 15.1937L842.961 15.2054L842.977 15.2165L843.525 14.38ZM841.365 12.62C842.598 12.62 843.589 12.8868 844.383 13.3729L845.428 11.6671C844.261 10.9532 842.892 10.62 841.365 10.62V12.62ZM844.391 13.3775C845.214 13.8712 845.842 14.5679 846.281 15.4974L848.09 14.6426C847.489 13.3721 846.597 12.3688 845.42 11.6625L844.391 13.3775ZM846.291 15.5172C846.749 16.4323 846.995 17.5432 846.995 18.88H848.995C848.995 17.2968 848.702 15.8677 848.08 14.6228L846.291 15.5172ZM846.995 18.88V20.47H848.995V18.88H846.995ZM847.995 19.47H836.985V21.47H847.995V19.47ZM835.986 20.492C836.029 22.4584 836.529 24.1168 837.628 25.3157L839.103 23.9643C838.442 23.2432 838.022 22.1216 837.985 20.448L835.986 20.492ZM837.643 25.3316C838.774 26.5122 840.31 27.05 842.115 27.05V25.05C840.721 25.05 839.757 24.6478 839.088 23.9484L837.643 25.3316ZM842.115 27.05C843.192 27.05 844.17 26.9553 845.04 26.7544L844.591 24.8056C843.901 24.9647 843.079 25.05 842.115 25.05V27.05ZM845.058 26.7501C845.915 26.5359 846.786 26.2379 847.669 25.8591L846.882 24.0209C846.085 24.3621 845.316 24.6241 844.573 24.8099L845.058 26.7501ZM846.275 24.94V27.25H848.275V24.94H846.275ZM846.873 26.3344C846.113 26.6681 845.372 26.9049 844.649 27.0494L845.042 29.0106C845.919 28.8351 846.798 28.5519 847.677 28.1656L846.873 26.3344ZM844.626 27.0544C843.918 27.2138 843.045 27.3 841.995 27.3V29.3C843.146 29.3 844.173 29.2062 845.065 29.0056L844.626 27.0544ZM841.995 27.3C840.615 27.3 839.428 27.0194 838.411 26.4848L837.48 28.2552C838.823 28.9606 840.336 29.3 841.995 29.3V27.3ZM838.417 26.4881C837.439 25.9657 836.667 25.1916 836.095 24.1342L834.336 25.0858C835.084 26.4684 836.131 27.5343 837.474 28.2519L838.417 26.4881ZM836.104 24.1514C835.555 23.0868 835.255 21.7432 835.255 20.08H833.255C833.255 21.9768 833.596 23.6532 834.327 25.0686L836.104 24.1514ZM835.255 20.08C835.255 18.4268 835.528 17.0667 836.034 15.9681L834.217 15.1319C833.563 16.5533 833.255 18.2132 833.255 20.08H835.255ZM836.028 15.9799C836.557 14.8696 837.269 14.0503 838.155 13.4817L837.076 11.7983C835.842 12.5897 834.894 13.7104 834.223 15.1201L836.028 15.9799ZM838.148 13.4862C839.051 12.9178 840.112 12.62 841.365 12.62V10.62C839.779 10.62 838.34 11.0022 837.083 11.7938L838.148 13.4862ZM841.335 12.78C839.836 12.78 838.55 13.2793 837.593 14.34L839.078 15.68C839.601 15.1007 840.314 14.78 841.335 14.78V12.78ZM837.592 14.341C836.687 15.3466 836.204 16.6929 836.05 18.2732L838.041 18.4668C838.167 17.1671 838.544 16.2734 839.079 15.679L837.592 14.341ZM837.045 19.37H845.235V17.37H837.045V19.37ZM846.235 18.37C846.235 17.351 846.081 16.4162 845.74 15.5892L843.891 16.3507C844.11 16.8838 844.235 17.549 844.235 18.37H846.235ZM845.74 15.5892C845.388 14.7348 844.833 14.0409 844.073 13.5435L842.977 15.2165C843.378 15.4791 843.683 15.8452 843.891 16.3507L845.74 15.5892ZM844.107 13.5663C843.332 13.0127 842.38 12.78 841.335 12.78V14.78C842.091 14.78 842.599 14.9473 842.944 15.1937L844.107 13.5663ZM863.189 14.14V15.14H864.189V14.14H863.189ZM857.939 14.14V13.14H856.939V14.14H857.939ZM857.939 28V29H858.939V28H857.939ZM855.329 28H854.329V29H855.329V28ZM855.329 14.14H856.329V13.14H855.329V14.14ZM850.139 14.14H849.139V15.14H850.139V14.14ZM850.139 11.92V10.92H849.139V11.92H850.139ZM863.189 11.92H864.189V10.92H863.189V11.92ZM863.189 13.14H857.939V15.14H863.189V13.14ZM856.939 14.14V28H858.939V14.14H856.939ZM857.939 27H855.329V29H857.939V27ZM856.329 28V14.14H854.329V28H856.329ZM855.329 13.14H850.139V15.14H855.329V13.14ZM851.139 14.14V11.92H849.139V14.14H851.139ZM850.139 12.92H863.189V10.92H850.139V12.92ZM862.189 11.92V14.14H864.189V11.92H862.189ZM878.387 18.31L877.704 17.5789L878.387 18.31ZM876.077 19.45L875.869 18.4719L875.077 18.6404V19.45H876.077ZM876.077 19.57H875.077V20.4398L875.938 20.5603L876.077 19.57ZM878.687 20.65L878.07 21.4371L878.076 21.4423L878.083 21.4474L878.687 20.65ZM879.407 25.18L878.494 24.7709L878.488 24.7842L878.483 24.7976L879.407 25.18ZM876.257 27.67L876.516 28.6358L876.527 28.6329L876.538 28.6297L876.257 27.67ZM866.357 28H865.357V29H866.357V28ZM866.357 11.92V10.92H865.357V11.92H866.357ZM876.317 12.31L876.039 13.2707L876.052 13.2743L876.064 13.2776L876.317 12.31ZM878.477 13.57L877.721 14.2249L877.733 14.2384L877.745 14.2514L878.477 13.57ZM876.017 21.31L875.521 22.1782L875.521 22.1782L876.017 21.31ZM868.997 20.71V19.71H867.997V20.71H868.997ZM868.997 25.87H867.997V26.87H868.997V25.87ZM876.017 25.3L876.494 26.1789L876.503 26.1737L876.513 26.1682L876.017 25.3ZM875.777 14.65L875.222 15.482L875.24 15.4938L875.258 15.5048L875.777 14.65ZM868.997 14.11V13.11H867.997V14.11H868.997ZM868.997 18.52H867.997V19.52H868.997V18.52ZM875.597 17.98L875.129 17.0962L875.129 17.0962L875.597 17.98ZM878.287 15.97C878.287 16.758 878.058 17.2484 877.704 17.5789L879.069 19.0411C879.915 18.2516 880.287 17.182 880.287 15.97H878.287ZM877.704 17.5789C877.258 17.9953 876.662 18.3031 875.869 18.4719L876.285 20.4281C877.372 20.1969 878.315 19.7447 879.069 19.0411L877.704 17.5789ZM875.077 19.45V19.57H877.077V19.45H875.077ZM875.938 20.5603C876.777 20.6778 877.479 20.9738 878.07 21.4371L879.304 19.8629C878.415 19.1662 877.376 18.7422 876.215 18.5797L875.938 20.5603ZM878.083 21.4474C878.503 21.765 878.797 22.3027 878.797 23.29H880.797C880.797 21.8773 880.35 20.655 879.29 19.8526L878.083 21.4474ZM878.797 23.29C878.797 23.839 878.693 24.3284 878.494 24.7709L880.319 25.5891C880.641 24.8716 880.797 24.101 880.797 23.29H878.797ZM878.483 24.7976C878.311 25.2131 878.037 25.5801 877.638 25.9021L878.895 27.4579C879.536 26.9399 880.023 26.3069 880.331 25.5624L878.483 24.7976ZM877.638 25.9021C877.245 26.2195 876.703 26.4974 875.976 26.7103L876.538 28.6297C877.45 28.3626 878.248 27.9805 878.895 27.4579L877.638 25.9021ZM875.998 26.7042C875.286 26.8949 874.389 27 873.287 27V29C874.505 29 875.587 28.8851 876.516 28.6358L875.998 26.7042ZM873.287 27H866.357V29H873.287V27ZM867.357 28V11.92H865.357V28H867.357ZM866.357 12.92H873.257V10.92H866.357V12.92ZM873.257 12.92C874.322 12.92 875.246 13.0417 876.039 13.2707L876.594 11.3493C875.587 11.0583 874.471 10.92 873.257 10.92V12.92ZM876.064 13.2776C876.828 13.4769 877.358 13.8057 877.721 14.2249L879.232 12.9151C878.556 12.1343 877.645 11.6231 876.569 11.3424L876.064 13.2776ZM877.745 14.2514C878.067 14.5979 878.287 15.1277 878.287 15.97H880.287C880.287 14.7723 879.966 13.7021 879.209 12.8886L877.745 14.2514ZM878.067 23.29C878.067 22.072 877.574 21.0481 876.513 20.4418L875.521 22.1782C875.859 22.3719 876.067 22.668 876.067 23.29H878.067ZM876.513 20.4418C875.591 19.915 874.355 19.71 872.927 19.71V21.71C874.218 21.71 875.042 21.905 875.521 22.1782L876.513 20.4418ZM872.927 19.71H868.997V21.71H872.927V19.71ZM867.997 20.71V25.87H869.997V20.71H867.997ZM868.997 26.87H872.987V24.87H868.997V26.87ZM872.987 26.87C874.376 26.87 875.581 26.6744 876.494 26.1789L875.54 24.4211C875.052 24.6856 874.237 24.87 872.987 24.87V26.87ZM876.513 26.1682C877.582 25.5575 878.067 24.5178 878.067 23.29H876.067C876.067 23.9422 875.852 24.2425 875.521 24.4318L876.513 26.1682ZM877.617 16.3C877.617 15.2567 877.207 14.3484 876.296 13.7952L875.258 15.5048C875.467 15.6316 875.617 15.8233 875.617 16.3H877.617ZM876.331 13.8179C875.535 13.2869 874.392 13.11 873.107 13.11V15.11C874.301 15.11 874.938 15.2931 875.222 15.482L876.331 13.8179ZM873.107 13.11H868.997V15.11H873.107V13.11ZM867.997 14.11V18.52H869.997V14.11H867.997ZM868.997 19.52H872.627V17.52H868.997V19.52ZM872.627 19.52C873.991 19.52 875.173 19.3357 876.065 18.8638L875.129 17.0962C874.66 17.3443 873.862 17.52 872.627 17.52V19.52ZM876.065 18.8638C876.536 18.6142 876.938 18.2684 877.216 17.809C877.496 17.3489 877.617 16.8333 877.617 16.3H875.617C875.617 16.5267 875.568 16.6711 875.507 16.771C875.446 16.8716 875.337 16.9858 875.129 17.0962L876.065 18.8638ZM893.392 12.52L892.87 13.3729L892.877 13.3775L893.392 12.52ZM895.672 15.07L894.768 15.4974L894.772 15.5073L894.777 15.5172L895.672 15.07ZM896.482 20.47V21.47H897.482V20.47H896.482ZM885.472 20.47V19.47H884.45L884.472 20.492L885.472 20.47ZM886.852 24.64L886.115 25.3157L886.122 25.3237L886.129 25.3316L886.852 24.64ZM893.302 25.78L893.527 26.7544L893.536 26.7523L893.544 26.7501L893.302 25.78ZM895.762 24.94H896.762V23.4235L895.368 24.0209L895.762 24.94ZM895.762 27.25L896.164 28.1656L896.762 27.9031V27.25H895.762ZM893.332 28.03L893.136 27.0494L893.124 27.0518L893.112 27.0544L893.332 28.03ZM886.432 27.37L885.96 28.252L885.967 28.2552L886.432 27.37ZM883.702 24.61L882.813 25.0686L882.818 25.0773L882.822 25.0858L883.702 24.61ZM883.612 15.55L882.709 15.12L882.703 15.1319L883.612 15.55ZM886.102 12.64L885.569 11.7937L885.562 11.7983L886.102 12.64ZM886.822 15.01L886.079 14.34L886.079 14.341L886.822 15.01ZM885.532 18.37L884.536 18.2732L884.43 19.37H885.532V18.37ZM893.722 18.37V19.37H894.722V18.37H893.722ZM893.302 15.97L892.377 16.3507L892.377 16.3507L893.302 15.97ZM892.012 14.38L891.431 15.1937L891.447 15.2054L891.464 15.2165L892.012 14.38ZM889.852 12.62C891.085 12.62 892.076 12.8868 892.87 13.3729L893.914 11.6671C892.748 10.9532 891.379 10.62 889.852 10.62V12.62ZM892.877 13.3775C893.7 13.8712 894.328 14.5679 894.768 15.4974L896.576 14.6426C895.975 13.3721 895.083 12.3688 893.906 11.6625L892.877 13.3775ZM894.777 15.5172C895.235 16.4323 895.482 17.5432 895.482 18.88H897.482C897.482 17.2968 897.189 15.8677 896.566 14.6228L894.777 15.5172ZM895.482 18.88V20.47H897.482V18.88H895.482ZM896.482 19.47H885.472V21.47H896.482V19.47ZM884.472 20.492C884.515 22.4584 885.016 24.1168 886.115 25.3157L887.589 23.9643C886.928 23.2432 886.508 22.1216 886.472 20.448L884.472 20.492ZM886.129 25.3316C887.26 26.5122 888.796 27.05 890.602 27.05V25.05C889.208 25.05 888.244 24.6478 887.574 23.9484L886.129 25.3316ZM890.602 27.05C891.678 27.05 892.656 26.9553 893.527 26.7544L893.077 24.8056C892.388 24.9647 891.566 25.05 890.602 25.05V27.05ZM893.544 26.7501C894.401 26.5359 895.272 26.2379 896.156 25.8591L895.368 24.0209C894.572 24.3621 893.802 24.6241 893.059 24.8099L893.544 26.7501ZM894.762 24.94V27.25H896.762V24.94H894.762ZM895.36 26.3344C894.6 26.6681 893.858 26.9049 893.136 27.0494L893.528 29.0106C894.405 28.8351 895.284 28.5519 896.164 28.1656L895.36 26.3344ZM893.112 27.0544C892.404 27.2138 891.531 27.3 890.482 27.3V29.3C891.632 29.3 892.66 29.2062 893.551 29.0056L893.112 27.0544ZM890.482 27.3C889.101 27.3 887.914 27.0194 886.897 26.4848L885.967 28.2552C887.309 28.9606 888.823 29.3 890.482 29.3V27.3ZM886.903 26.4881C885.926 25.9657 885.153 25.1916 884.581 24.1342L882.822 25.0858C883.57 26.4684 884.618 27.5343 885.96 28.2519L886.903 26.4881ZM884.59 24.1514C884.041 23.0868 883.742 21.7432 883.742 20.08H881.742C881.742 21.9768 882.083 23.6532 882.813 25.0686L884.59 24.1514ZM883.742 20.08C883.742 18.4268 884.014 17.0667 884.52 15.9681L882.703 15.1319C882.049 16.5533 881.742 18.2132 881.742 20.08H883.742ZM884.515 15.9799C885.043 14.8696 885.755 14.0503 886.642 13.4817L885.562 11.7983C884.328 12.5897 883.38 13.7104 882.709 15.1201L884.515 15.9799ZM886.635 13.4862C887.537 12.9178 888.598 12.62 889.852 12.62V10.62C888.265 10.62 886.826 11.0022 885.569 11.7938L886.635 13.4862ZM889.822 12.78C888.323 12.78 887.037 13.2793 886.079 14.34L887.564 15.68C888.087 15.1007 888.801 14.78 889.822 14.78V12.78ZM886.079 14.341C885.173 15.3466 884.69 16.6929 884.536 18.2732L886.527 18.4668C886.653 17.1671 887.03 16.2734 887.565 15.679L886.079 14.341ZM885.532 19.37H893.722V17.37H885.532V19.37ZM894.722 18.37C894.722 17.351 894.567 16.4162 894.226 15.5892L892.377 16.3507C892.597 16.8838 892.722 17.549 892.722 18.37H894.722ZM894.226 15.5892C893.875 14.7348 893.319 14.0409 892.56 13.5435L891.464 15.2165C891.865 15.4791 892.169 15.8452 892.377 16.3507L894.226 15.5892ZM892.593 13.5663C891.818 13.0127 890.866 12.78 889.822 12.78V14.78C890.577 14.78 891.086 14.9473 891.431 15.1937L892.593 13.5663ZM912.995 13.69L912.241 14.3462L912.246 14.3523L912.995 13.69ZM913.985 24.55L913.072 24.1439L913.069 24.1507L913.985 24.55ZM911.675 27.37L912.21 28.2151L912.214 28.2123L911.675 27.37ZM906.005 27.97L905.68 28.9157L905.68 28.9157L906.005 27.97ZM904.355 27.13L903.722 27.904L903.741 27.9195L903.761 27.9342L904.355 27.13ZM903.215 25.96L904.011 25.354L903.711 24.96H903.215V25.96ZM903.035 25.96V24.96H901.911L902.042 26.0768L903.035 25.96ZM903.155 27.25L902.158 27.3267L902.158 27.3267L903.155 27.25ZM903.215 35.2V36.2H904.215V35.2H903.215ZM900.575 35.2H899.575V36.2H900.575V35.2ZM900.575 11.92V10.92H899.575V11.92H900.575ZM902.735 11.92L903.722 11.7578L903.584 10.92H902.735V11.92ZM903.095 14.11L902.109 14.2722L902.246 15.11H903.095V14.11ZM903.215 14.11V15.11H903.738L904.036 14.6811L903.215 14.11ZM904.355 12.85L903.719 12.079L903.71 12.086L903.702 12.0932L904.355 12.85ZM905.975 11.95L905.65 11.0043L905.641 11.0076L905.975 11.95ZM905.135 14.47L905.654 15.3252L905.663 15.3195L905.672 15.3137L905.135 14.47ZM903.215 19.42L902.216 19.4041L902.215 19.4121V19.42H903.215ZM903.635 23.29L902.679 23.5812L902.679 23.5812L903.635 23.29ZM905.045 25.39L904.457 26.1988L904.469 26.207L905.045 25.39ZM910.205 25.3L909.561 24.5357L909.555 24.5408L909.549 24.5459L910.205 25.3ZM911.615 23.11L910.669 22.7877L910.665 22.8L911.615 23.11ZM911.015 15.49L910.172 16.0269L910.179 16.0377L911.015 15.49ZM908.225 12.62C909.943 12.62 911.248 13.2042 912.241 14.3462L913.75 13.0338C912.343 11.4158 910.468 10.62 908.225 10.62V12.62ZM912.246 14.3523C913.24 15.476 913.825 17.2737 913.825 19.93H915.825C915.825 17.0263 915.191 14.664 913.745 13.0277L912.246 14.3523ZM913.825 19.93C913.825 21.6527 913.56 23.0456 913.072 24.1439L914.899 24.9561C915.531 23.5344 915.825 21.8473 915.825 19.93H913.825ZM913.069 24.1507C912.596 25.235 911.947 26.009 911.136 26.5277L912.214 28.2123C913.404 27.451 914.294 26.345 914.902 24.9493L913.069 24.1507ZM911.141 26.5249C910.344 27.0288 909.376 27.3 908.195 27.3V29.3C909.695 29.3 911.046 28.9512 912.21 28.2151L911.141 26.5249ZM908.195 27.3C907.463 27.3 906.846 27.2017 906.33 27.0243L905.68 28.9157C906.444 29.1783 907.287 29.3 908.195 29.3V27.3ZM906.33 27.0243C905.77 26.8316 905.314 26.5953 904.95 26.3258L903.761 27.9342C904.316 28.3447 904.961 28.6684 905.68 28.9157L906.33 27.0243ZM904.989 26.356C904.604 26.0417 904.28 25.7073 904.011 25.354L902.42 26.566C902.791 27.0527 903.226 27.4983 903.722 27.904L904.989 26.356ZM903.215 24.96H903.035V26.96H903.215V24.96ZM902.042 26.0768C902.08 26.3985 902.119 26.814 902.158 27.3267L904.152 27.1733C904.112 26.646 904.071 26.2015 904.029 25.8432L902.042 26.0768ZM902.158 27.3267C902.197 27.8298 902.215 28.253 902.215 28.6H904.215C904.215 28.187 904.194 27.7102 904.152 27.1733L902.158 27.3267ZM902.215 28.6V35.2H904.215V28.6H902.215ZM903.215 34.2H900.575V36.2H903.215V34.2ZM901.575 35.2V11.92H899.575V35.2H901.575ZM900.575 12.92H902.735V10.92H900.575V12.92ZM901.749 12.0822L902.109 14.2722L904.082 13.9478L903.722 11.7578L901.749 12.0822ZM903.095 15.11H903.215V13.11H903.095V15.11ZM904.036 14.6811C904.307 14.2923 904.63 13.9342 905.009 13.6068L903.702 12.0932C903.201 12.5258 902.764 13.0077 902.394 13.5389L904.036 14.6811ZM904.992 13.621C905.353 13.3226 905.789 13.0774 906.31 12.8924L905.641 11.0076C904.922 11.2626 904.277 11.6174 903.719 12.079L904.992 13.621ZM906.3 12.8957C906.812 12.7199 907.447 12.62 908.225 12.62V10.62C907.283 10.62 906.419 10.7401 905.65 11.0043L906.3 12.8957ZM907.745 12.84C906.545 12.84 905.469 13.0723 904.599 13.6263L905.672 15.3137C906.122 15.0277 906.786 14.84 907.745 14.84V12.84ZM904.617 13.6148C903.737 14.1479 903.124 14.9526 902.756 15.9564L904.635 16.6436C904.867 16.0074 905.213 15.5921 905.654 15.3252L904.617 13.6148ZM902.756 15.9564C902.405 16.9169 902.237 18.0775 902.216 19.4041L904.215 19.4359C904.234 18.2425 904.386 17.3231 904.635 16.6436L902.756 15.9564ZM902.215 19.42V19.93H904.215V19.42H902.215ZM902.215 19.93C902.215 21.3147 902.362 22.539 902.679 23.5812L904.592 22.9988C904.349 22.201 904.215 21.1853 904.215 19.93H902.215ZM902.679 23.5812C903.01 24.6708 903.591 25.5691 904.457 26.1987L905.634 24.5813C905.179 24.2509 904.82 23.7492 904.592 22.9988L902.679 23.5812ZM904.469 26.207C905.372 26.8447 906.518 27.11 907.805 27.11V25.11C906.773 25.11 906.079 24.8953 905.622 24.573L904.469 26.207ZM907.805 27.11C908.978 27.11 910.026 26.782 910.862 26.0541L909.549 24.5459C909.144 24.898 908.593 25.11 907.805 25.11V27.11ZM910.85 26.0643C911.653 25.3866 912.218 24.4889 912.566 23.42L910.665 22.8C910.413 23.5711 910.037 24.1334 909.561 24.5357L910.85 26.0643ZM912.562 23.4323C912.924 22.3694 913.095 21.1875 913.095 19.9H911.095C911.095 21.0125 910.947 21.9706 910.669 22.7877L912.562 23.4323ZM913.095 19.9C913.095 17.9402 912.713 16.258 911.852 14.9423L910.179 16.0377C910.757 16.922 911.095 18.1798 911.095 19.9H913.095ZM911.859 14.9531C910.948 13.5215 909.513 12.84 907.745 12.84V14.84C908.938 14.84 909.683 15.2585 910.172 16.0269L911.859 14.9531ZM929.839 14.14V15.14H930.839V14.14H929.839ZM924.589 14.14V13.14H923.589V14.14H924.589ZM924.589 28V29H925.589V28H924.589ZM921.979 28H920.979V29H921.979V28ZM921.979 14.14H922.979V13.14H921.979V14.14ZM916.789 14.14H915.789V15.14H916.789V14.14ZM916.789 11.92V10.92H915.789V11.92H916.789ZM929.839 11.92H930.839V10.92H929.839V11.92ZM929.839 13.14H924.589V15.14H929.839V13.14ZM923.589 14.14V28H925.589V14.14H923.589ZM924.589 27H921.979V29H924.589V27ZM922.979 28V14.14H920.979V28H922.979ZM921.979 13.14H916.789V15.14H921.979V13.14ZM917.789 14.14V11.92H915.789V14.14H917.789ZM916.789 12.92H929.839V10.92H916.789V12.92ZM928.839 11.92V14.14H930.839V11.92H928.839ZM933.007 28H932.007V29H933.007V28ZM933.007 11.92V10.92H932.007V11.92H933.007ZM935.647 11.92H936.647V10.92H935.647V11.92ZM935.647 18.52H934.647V19.52H935.647V18.52ZM943.267 19.03L943.62 18.0945L943.62 18.0945L943.267 19.03ZM945.277 20.56L944.437 21.1033L944.445 21.1147L945.277 20.56ZM945.277 25.69L944.417 25.1789L944.412 25.1876L944.407 25.1964L945.277 25.69ZM943.267 27.4L942.868 26.4829L942.861 26.4862L943.267 27.4ZM942.247 25.3L942.714 26.1844L942.723 26.1794L942.733 26.1742L942.247 25.3ZM942.337 21.25L941.858 22.1279L941.869 22.1336L941.879 22.139L942.337 21.25ZM935.647 20.71V19.71H934.647V20.71H935.647ZM935.647 25.87H934.647V26.87H935.647V25.87ZM948.607 28H947.607V29H948.607V28ZM948.607 11.92V10.92H947.607V11.92H948.607ZM951.247 11.92H952.247V10.92H951.247V11.92ZM951.247 28V29H952.247V28H951.247ZM934.007 28V11.92H932.007V28H934.007ZM933.007 12.92H935.647V10.92H933.007V12.92ZM934.647 11.92V18.52H936.647V11.92H934.647ZM935.647 19.52H939.817V17.52H935.647V19.52ZM939.817 19.52C941.146 19.52 942.165 19.6828 942.914 19.9655L943.62 18.0945C942.569 17.6972 941.288 17.52 939.817 17.52V19.52ZM942.914 19.9655C943.652 20.2446 944.134 20.6344 944.437 21.1033L946.117 20.0167C945.54 19.1256 944.682 18.4954 943.62 18.0945L942.914 19.9655ZM944.445 21.1147C944.748 21.5693 944.937 22.2014 944.937 23.08H946.937C946.937 21.9186 946.686 20.8707 946.109 20.0053L944.445 21.1147ZM944.937 23.08C944.937 23.9296 944.752 24.617 944.417 25.1789L946.137 26.2011C946.682 25.283 946.937 24.2304 946.937 23.08H944.937ZM944.407 25.1964C944.113 25.7158 943.626 26.1533 942.868 26.4829L943.666 28.3171C944.748 27.8467 945.602 27.1442 946.147 26.1836L944.407 25.1964ZM942.861 26.4862C942.136 26.8082 941.101 27 939.697 27V29C941.253 29 942.598 28.7918 943.673 28.3138L942.861 26.4862ZM939.697 27H933.007V29H939.697V27ZM939.457 26.87C940.698 26.87 941.804 26.6646 942.714 26.1844L941.78 24.4156C941.25 24.6954 940.496 24.87 939.457 24.87V26.87ZM942.733 26.1742C943.836 25.5612 944.327 24.4909 944.327 23.23H942.327C942.327 23.9291 942.098 24.2388 941.761 24.4258L942.733 26.1742ZM944.327 23.23C944.327 22.0154 943.896 20.9283 942.795 20.361L941.879 22.139C942.098 22.2517 942.327 22.4846 942.327 23.23H944.327ZM942.816 20.3721C941.943 19.8959 940.798 19.71 939.487 19.71V21.71C940.656 21.71 941.411 21.8841 941.858 22.1279L942.816 20.3721ZM939.487 19.71H935.647V21.71H939.487V19.71ZM934.647 20.71V25.87H936.647V20.71H934.647ZM935.647 26.87H939.457V24.87H935.647V26.87ZM949.607 28V11.92H947.607V28H949.607ZM948.607 12.92H951.247V10.92H948.607V12.92ZM950.247 11.92V28H952.247V11.92H950.247ZM951.247 27H948.607V29H951.247V27ZM969.377 5.26L970.373 5.33974L970.46 4.26H969.377V5.26ZM968.627 7.78L967.776 7.25451L967.77 7.26368L967.765 7.27298L968.627 7.78ZM966.827 9.31L966.436 8.38967L966.435 8.38967L966.827 9.31ZM960.557 9.31L960.157 10.2267L960.165 10.2303L960.557 9.31ZM958.847 7.81L957.963 8.27792L957.969 8.28885L958.847 7.81ZM958.187 5.26V4.26H957.105L957.19 5.33819L958.187 5.26ZM960.647 5.26L961.642 5.1678L961.558 4.26H960.647V5.26ZM961.487 7.45L960.85 8.22096L960.868 8.23591L960.887 8.25L961.487 7.45ZM965.927 7.42L966.517 8.22741L966.522 8.22356L965.927 7.42ZM966.887 5.26V4.26H965.978L965.891 5.16429L966.887 5.26ZM958.817 22.51L957.818 22.4513L957.817 22.4806V22.51H958.817ZM958.787 23.56L959.785 23.6155L959.785 23.6126L958.787 23.56ZM958.727 24.61L959.725 24.6724L959.725 24.6687L958.727 24.61ZM958.667 25.39L957.672 25.2905L959.509 25.9286L958.667 25.39ZM967.277 11.92V10.92H966.729L966.434 11.3814L967.277 11.92ZM970.517 11.92H971.517V10.92H970.517V11.92ZM970.517 28V29H971.517V28H970.517ZM968.057 28H967.057V29H968.057V28ZM968.057 17.26L967.057 17.2216L967.057 17.2408V17.26H968.057ZM968.117 15.73L969.116 15.77L969.116 15.7684L968.117 15.73ZM968.177 14.56L969.174 14.6367L967.333 14.0232L968.177 14.56ZM959.627 28V29H960.176L960.47 28.5368L959.627 28ZM956.357 28H955.357V29H956.357V28ZM956.357 11.92V10.92H955.357V11.92H956.357ZM958.847 11.92H959.847V10.92H958.847V11.92ZM968.38 5.18025C968.309 6.06162 968.094 6.73945 967.776 7.25451L969.477 8.30549C969.999 7.46055 970.284 6.45838 970.373 5.33974L968.38 5.18025ZM967.765 7.27298C967.484 7.74947 967.059 8.12447 966.436 8.38967L967.218 10.2303C968.194 9.81553 968.969 9.17052 969.489 8.28702L967.765 7.27298ZM966.435 8.38967C965.803 8.65837 964.91 8.82 963.707 8.82V10.82C965.063 10.82 966.25 10.6416 967.218 10.2303L966.435 8.38967ZM963.707 8.82C962.481 8.82 961.578 8.65772 960.948 8.38967L960.165 10.2303C961.135 10.6423 962.333 10.82 963.707 10.82V8.82ZM960.956 8.3933C960.352 8.12977 959.964 7.77072 959.725 7.33115L957.969 8.28885C958.449 9.16928 959.202 9.81023 960.157 10.2267L960.956 8.3933ZM959.73 7.34211C959.452 6.81569 959.256 6.10815 959.184 5.18181L957.19 5.33819C957.277 6.45185 957.522 7.4443 957.963 8.27789L959.73 7.34211ZM958.187 6.26H960.647V4.26H958.187V6.26ZM959.651 5.3522C959.757 6.50004 960.071 7.57723 960.85 8.22096L962.124 6.67904C961.983 6.56277 961.736 6.17996 961.642 5.1678L959.651 5.3522ZM960.887 8.25C961.626 8.80488 962.652 8.99 963.767 8.99V6.99C962.801 6.99 962.307 6.81512 962.087 6.65L960.887 8.25ZM963.767 8.99C964.811 8.99 965.766 8.77594 966.517 8.22739L965.337 6.61261C965.047 6.82406 964.562 6.99 963.767 6.99V8.99ZM966.522 8.22356C967.39 7.58044 967.77 6.52284 967.882 5.35571L965.891 5.16429C965.803 6.07716 965.543 6.45956 965.331 6.61644L966.522 8.22356ZM966.887 6.26H969.377V4.26H966.887V6.26ZM957.847 21.73C957.847 21.8802 957.838 22.1169 957.818 22.4513L959.815 22.5687C959.835 22.2231 959.847 21.9398 959.847 21.73H957.847ZM957.817 22.51C957.817 22.8096 957.807 23.1418 957.788 23.5074L959.785 23.6126C959.806 23.2182 959.817 22.8504 959.817 22.51H957.817ZM957.788 23.5045C957.768 23.8635 957.748 24.2124 957.728 24.5513L959.725 24.6687C959.745 24.3276 959.765 23.9765 959.785 23.6155L957.788 23.5045ZM957.729 24.5476C957.709 24.8616 957.69 25.1079 957.672 25.2905L959.662 25.4895C959.683 25.2721 959.704 24.9984 959.725 24.6724L957.729 24.5476ZM959.509 25.9286L968.119 12.4586L966.434 11.3814L957.824 24.8514L959.509 25.9286ZM967.277 12.92H970.517V10.92H967.277V12.92ZM969.517 11.92V28H971.517V11.92H969.517ZM970.517 27H968.057V29H970.517V27ZM969.057 28V18.52H967.057V28H969.057ZM969.057 18.52C969.057 18.5194 969.057 18.5187 969.057 18.5181C969.057 18.5175 969.057 18.5169 969.057 18.5162C969.057 18.5156 969.057 18.515 969.057 18.5144C969.057 18.5137 969.057 18.5131 969.057 18.5125C969.057 18.5119 969.057 18.5112 969.057 18.5106C969.057 18.51 969.057 18.5093 969.057 18.5087C969.057 18.5081 969.057 18.5074 969.057 18.5068C969.057 18.5062 969.057 18.5056 969.057 18.5049C969.057 18.5043 969.057 18.5037 969.057 18.503C969.057 18.5024 969.057 18.5018 969.057 18.5011C969.057 18.5005 969.057 18.4999 969.057 18.4992C969.057 18.4986 969.057 18.498 969.057 18.4973C969.057 18.4967 969.057 18.4961 969.057 18.4954C969.057 18.4948 969.057 18.4942 969.057 18.4935C969.057 18.4929 969.057 18.4923 969.057 18.4916C969.057 18.491 969.057 18.4903 969.057 18.4897C969.057 18.4891 969.057 18.4884 969.057 18.4878C969.057 18.4872 969.057 18.4865 969.057 18.4859C969.057 18.4852 969.057 18.4846 969.057 18.484C969.057 18.4833 969.057 18.4827 969.057 18.482C969.057 18.4814 969.057 18.4808 969.057 18.4801C969.057 18.4795 969.057 18.4788 969.057 18.4782C969.057 18.4776 969.057 18.4769 969.057 18.4763C969.057 18.4756 969.057 18.475 969.057 18.4743C969.057 18.4737 969.057 18.4731 969.057 18.4724C969.057 18.4718 969.057 18.4711 969.057 18.4705C969.057 18.4698 969.057 18.4692 969.057 18.4685C969.057 18.4679 969.057 18.4672 969.057 18.4666C969.057 18.466 969.057 18.4653 969.057 18.4647C969.057 18.464 969.057 18.4634 969.057 18.4627C969.057 18.4621 969.057 18.4614 969.057 18.4608C969.057 18.4601 969.057 18.4595 969.057 18.4588C969.057 18.4582 969.057 18.4575 969.057 18.4569C969.057 18.4562 969.057 18.4556 969.057 18.4549C969.057 18.4543 969.057 18.4536 969.057 18.453C969.057 18.4523 969.057 18.4517 969.057 18.451C969.057 18.4504 969.057 18.4497 969.057 18.4491C969.057 18.4484 969.057 18.4478 969.057 18.4471C969.057 18.4464 969.057 18.4458 969.057 18.4451C969.057 18.4445 969.057 18.4438 969.057 18.4432C969.057 18.4425 969.057 18.4419 969.057 18.4412C969.057 18.4405 969.057 18.4399 969.057 18.4392C969.057 18.4386 969.057 18.4379 969.057 18.4373C969.057 18.4366 969.057 18.4359 969.057 18.4353C969.057 18.4346 969.057 18.434 969.057 18.4333C969.057 18.4326 969.057 18.432 969.057 18.4313C969.057 18.4307 969.057 18.43 969.057 18.4293C969.057 18.4287 969.057 18.428 969.057 18.4274C969.057 18.4267 969.057 18.426 969.057 18.4254C969.057 18.4247 969.057 18.4241 969.057 18.4234C969.057 18.4227 969.057 18.4221 969.057 18.4214C969.057 18.4207 969.057 18.4201 969.057 18.4194C969.057 18.4187 969.057 18.4181 969.057 18.4174C969.057 18.4167 969.057 18.4161 969.057 18.4154C969.057 18.4147 969.057 18.4141 969.057 18.4134C969.057 18.4127 969.057 18.4121 969.057 18.4114C969.057 18.4107 969.057 18.4101 969.057 18.4094C969.057 18.4087 969.057 18.4081 969.057 18.4074C969.057 18.4067 969.057 18.4061 969.057 18.4054C969.057 18.4047 969.057 18.4041 969.057 18.4034C969.057 18.4027 969.057 18.402 969.057 18.4014C969.057 18.4007 969.057 18.4 969.057 18.3994C969.057 18.3987 969.057 18.398 969.057 18.3973C969.057 18.3967 969.057 18.396 969.057 18.3953C969.057 18.3946 969.057 18.394 969.057 18.3933C969.057 18.3926 969.057 18.3919 969.057 18.3913C969.057 18.3906 969.057 18.3899 969.057 18.3892C969.057 18.3886 969.057 18.3879 969.057 18.3872C969.057 18.3865 969.057 18.3859 969.057 18.3852C969.057 18.3845 969.057 18.3838 969.057 18.3831C969.057 18.3825 969.057 18.3818 969.057 18.3811C969.057 18.3804 969.057 18.3797 969.057 18.3791C969.057 18.3784 969.057 18.3777 969.057 18.377C969.057 18.3763 969.057 18.3757 969.057 18.375C969.057 18.3743 969.057 18.3736 969.057 18.3729C969.057 18.3723 969.057 18.3716 969.057 18.3709C969.057 18.3702 969.057 18.3695 969.057 18.3688C969.057 18.3682 969.057 18.3675 969.057 18.3668C969.057 18.3661 969.057 18.3654 969.057 18.3647C969.057 18.364 969.057 18.3634 969.057 18.3627C969.057 18.362 969.057 18.3613 969.057 18.3606C969.057 18.3599 969.057 18.3592 969.057 18.3586C969.057 18.3579 969.057 18.3572 969.057 18.3565C969.057 18.3558 969.057 18.3551 969.057 18.3544C969.057 18.3537 969.057 18.353 969.057 18.3524C969.057 18.3517 969.057 18.351 969.057 18.3503C969.057 18.3496 969.057 18.3489 969.057 18.3482C969.057 18.3475 969.057 18.3468 969.057 18.3461C969.057 18.3454 969.057 18.3448 969.057 18.3441C969.057 18.3434 969.057 18.3427 969.057 18.342C969.057 18.3413 969.057 18.3406 969.057 18.3399C969.057 18.3392 969.057 18.3385 969.057 18.3378C969.057 18.3371 969.057 18.3364 969.057 18.3357C969.057 18.335 969.057 18.3343 969.057 18.3336C969.057 18.3329 969.057 18.3322 969.057 18.3315C969.057 18.3308 969.057 18.3302 969.057 18.3295C969.057 18.3288 969.057 18.3281 969.057 18.3274C969.057 18.3267 969.057 18.326 969.057 18.3253C969.057 18.3246 969.057 18.3239 969.057 18.3232C969.057 18.3225 969.057 18.3218 969.057 18.3211C969.057 18.3204 969.057 18.3197 969.057 18.319C969.057 18.3182 969.057 18.3175 969.057 18.3168C969.057 18.3161 969.057 18.3154 969.057 18.3147C969.057 18.314 969.057 18.3133 969.057 18.3126C969.057 18.3119 969.057 18.3112 969.057 18.3105C969.057 18.3098 969.057 18.3091 969.057 18.3084C969.057 18.3077 969.057 18.307 969.057 18.3063C969.057 18.3056 969.057 18.3049 969.057 18.3042C969.057 18.3034 969.057 18.3027 969.057 18.302C969.057 18.3013 969.057 18.3006 969.057 18.2999C969.057 18.2992 969.057 18.2985 969.057 18.2978C969.057 18.2971 969.057 18.2964 969.057 18.2956C969.057 18.2949 969.057 18.2942 969.057 18.2935C969.057 18.2928 969.057 18.2921 969.057 18.2914C969.057 18.2907 969.057 18.29 969.057 18.2892C969.057 18.2885 969.057 18.2878 969.057 18.2871C969.057 18.2864 969.057 18.2857 969.057 18.285C969.057 18.2842 969.057 18.2835 969.057 18.2828C969.057 18.2821 969.057 18.2814 969.057 18.2807C969.057 18.28 969.057 18.2792 969.057 18.2785C969.057 18.2778 969.057 18.2771 969.057 18.2764C969.057 18.2757 969.057 18.2749 969.057 18.2742C969.057 18.2735 969.057 18.2728 969.057 18.2721C969.057 18.2713 969.057 18.2706 969.057 18.2699C969.057 18.2692 969.057 18.2685 969.057 18.2677C969.057 18.267 969.057 18.2663 969.057 18.2656C969.057 18.2649 969.057 18.2641 969.057 18.2634C969.057 18.2627 969.057 18.262 969.057 18.2612C969.057 18.2605 969.057 18.2598 969.057 18.2591C969.057 18.2584 969.057 18.2576 969.057 18.2569C969.057 18.2562 969.057 18.2555 969.057 18.2547C969.057 18.254 969.057 18.2533 969.057 18.2526C969.057 18.2518 969.057 18.2511 969.057 18.2504C969.057 18.2497 969.057 18.2489 969.057 18.2482C969.057 18.2475 969.057 18.2467 969.057 18.246C969.057 18.2453 969.057 18.2446 969.057 18.2438C969.057 18.2431 969.057 18.2424 969.057 18.2416C969.057 18.2409 969.057 18.2402 969.057 18.2395C969.057 18.2387 969.057 18.238 969.057 18.2373C969.057 18.2365 969.057 18.2358 969.057 18.2351C969.057 18.2343 969.057 18.2336 969.057 18.2329C969.057 18.2321 969.057 18.2314 969.057 18.2307C969.057 18.2299 969.057 18.2292 969.057 18.2285C969.057 18.2277 969.057 18.227 969.057 18.2263C969.057 18.2255 969.057 18.2248 969.057 18.2241C969.057 18.2233 969.057 18.2226 969.057 18.2219C969.057 18.2211 969.057 18.2204 969.057 18.2196C969.057 18.2189 969.057 18.2182 969.057 18.2174C969.057 18.2167 969.057 18.216 969.057 18.2152C969.057 18.2145 969.057 18.2137 969.057 18.213C969.057 18.2123 969.057 18.2115 969.057 18.2108C969.057 18.21 969.057 18.2093 969.057 18.2086C969.057 18.2078 969.057 18.2071 969.057 18.2063C969.057 18.2056 969.057 18.2049 969.057 18.2041C969.057 18.2034 969.057 18.2026 969.057 18.2019C969.057 18.2011 969.057 18.2004 969.057 18.1996C969.057 18.1989 969.057 18.1982 969.057 18.1974C969.057 18.1967 969.057 18.1959 969.057 18.1952C969.057 18.1944 969.057 18.1937 969.057 18.1929C969.057 18.1922 969.057 18.1914 969.057 18.1907C969.057 18.19 969.057 18.1892 969.057 18.1885C969.057 18.1877 969.057 18.187 969.057 18.1862C969.057 18.1855 969.057 18.1847 969.057 18.184C969.057 18.1832 969.057 18.1825 969.057 18.1817C969.057 18.181 969.057 18.1802 969.057 18.1795C969.057 18.1787 969.057 18.178 969.057 18.1772C969.057 18.1765 969.057 18.1757 969.057 18.175C969.057 18.1742 969.057 18.1735 969.057 18.1727C969.057 18.1719 969.057 18.1712 969.057 18.1704C969.057 18.1697 969.057 18.1689 969.057 18.1682C969.057 18.1674 969.057 18.1667 969.057 18.1659C969.057 18.1652 969.057 18.1644 969.057 18.1636C969.057 18.1629 969.057 18.1621 969.057 18.1614C969.057 18.1606 969.057 18.1599 969.057 18.1591C969.057 18.1583 969.057 18.1576 969.057 18.1568C969.057 18.1561 969.057 18.1553 969.057 18.1546C969.057 18.1538 969.057 18.153 969.057 18.1523C969.057 18.1515 969.057 18.1508 969.057 18.15C969.057 18.1492 969.057 18.1485 969.057 18.1477C969.057 18.1469 969.057 18.1462 969.057 18.1454C969.057 18.1447 969.057 18.1439 969.057 18.1431C969.057 18.1424 969.057 18.1416 969.057 18.1408C969.057 18.1401 969.057 18.1393 969.057 18.1385C969.057 18.1378 969.057 18.137 969.057 18.1363C969.057 18.1355 969.057 18.1347 969.057 18.134C969.057 18.1332 969.057 18.1324 969.057 18.1317C969.057 18.1309 969.057 18.1301 969.057 18.1294C969.057 18.1286 969.057 18.1278 969.057 18.1271C969.057 18.1263 969.057 18.1255 969.057 18.1247C969.057 18.124 969.057 18.1232 969.057 18.1224C969.057 18.1217 969.057 18.1209 969.057 18.1201C969.057 18.1194 969.057 18.1186 969.057 18.1178C969.057 18.117 969.057 18.1163 969.057 18.1155C969.057 18.1147 969.057 18.114 969.057 18.1132C969.057 18.1124 969.057 18.1116 969.057 18.1109C969.057 18.1101 969.057 18.1093 969.057 18.1085C969.057 18.1078 969.057 18.107 969.057 18.1062C969.057 18.1054 969.057 18.1047 969.057 18.1039C969.057 18.1031 969.057 18.1023 969.057 18.1016C969.057 18.1008 969.057 18.1 969.057 18.0992C969.057 18.0984 969.057 18.0977 969.057 18.0969C969.057 18.0961 969.057 18.0953 969.057 18.0946C969.057 18.0938 969.057 18.093 969.057 18.0922C969.057 18.0914 969.057 18.0907 969.057 18.0899C969.057 18.0891 969.057 18.0883 969.057 18.0875C969.057 18.0867 969.057 18.086 969.057 18.0852C969.057 18.0844 969.057 18.0836 969.057 18.0828C969.057 18.0821 969.057 18.0813 969.057 18.0805C969.057 18.0797 969.057 18.0789 969.057 18.0781C969.057 18.0774 969.057 18.0766 969.057 18.0758C969.057 18.075 969.057 18.0742 969.057 18.0734C969.057 18.0726 969.057 18.0719 969.057 18.0711C969.057 18.0703 969.057 18.0695 969.057 18.0687C969.057 18.0679 969.057 18.0671 969.057 18.0663C969.057 18.0656 969.057 18.0648 969.057 18.064C969.057 18.0632 969.057 18.0624 969.057 18.0616C969.057 18.0608 969.057 18.06 969.057 18.0592C969.057 18.0584 969.057 18.0577 969.057 18.0569C969.057 18.0561 969.057 18.0553 969.057 18.0545C969.057 18.0537 969.057 18.0529 969.057 18.0521C969.057 18.0513 969.057 18.0505 969.057 18.0497C969.057 18.0489 969.057 18.0481 969.057 18.0473C969.057 18.0466 969.057 18.0458 969.057 18.045C969.057 18.0442 969.057 18.0434 969.057 18.0426C969.057 18.0418 969.057 18.041 969.057 18.0402C969.057 18.0394 969.057 18.0386 969.057 18.0378C969.057 18.037 969.057 18.0362 969.057 18.0354C969.057 18.0346 969.057 18.0338 969.057 18.033C969.057 18.0322 969.057 18.0314 969.057 18.0306C969.057 18.0298 969.057 18.029 969.057 18.0282C969.057 18.0274 969.057 18.0266 969.057 18.0258C969.057 18.025 969.057 18.0242 969.057 18.0234C969.057 18.0226 969.057 18.0218 969.057 18.021C969.057 18.0202 969.057 18.0194 969.057 18.0186C969.057 18.0178 969.057 18.017 969.057 18.0162C969.057 18.0154 969.057 18.0146 969.057 18.0138C969.057 18.013 969.057 18.0122 969.057 18.0113C969.057 18.0105 969.057 18.0097 969.057 18.0089C969.057 18.0081 969.057 18.0073 969.057 18.0065C969.057 18.0057 969.057 18.0049 969.057 18.0041C969.057 18.0033 969.057 18.0025 969.057 18.0017C969.057 18.0008 969.057 18 969.057 17.9992C969.057 17.9984 969.057 17.9976 969.057 17.9968C969.057 17.996 969.057 17.9952 969.057 17.9944C969.057 17.9936 969.057 17.9927 969.057 17.9919C969.057 17.9911 969.057 17.9903 969.057 17.9895C969.057 17.9887 969.057 17.9879 969.057 17.9871C969.057 17.9862 969.057 17.9854 969.057 17.9846C969.057 17.9838 969.057 17.983 969.057 17.9822C969.057 17.9814 969.057 17.9805 969.057 17.9797C969.057 17.9789 969.057 17.9781 969.057 17.9773C969.057 17.9765 969.057 17.9756 969.057 17.9748C969.057 17.974 969.057 17.9732 969.057 17.9724C969.057 17.9716 969.057 17.9707 969.057 17.9699C969.057 17.9691 969.057 17.9683 969.057 17.9675C969.057 17.9666 969.057 17.9658 969.057 17.965C969.057 17.9642 969.057 17.9634 969.057 17.9625C969.057 17.9617 969.057 17.9609 969.057 17.9601C969.057 17.9593 969.057 17.9584 969.057 17.9576C969.057 17.9568 969.057 17.956 969.057 17.9551C969.057 17.9543 969.057 17.9535 969.057 17.9527C969.057 17.9518 969.057 17.951 969.057 17.9502C969.057 17.9494 969.057 17.9485 969.057 17.9477C969.057 17.9469 969.057 17.9461 969.057 17.9452C969.057 17.9444 969.057 17.9436 969.057 17.9428C969.057 17.9419 969.057 17.9411 969.057 17.9403C969.057 17.9394 969.057 17.9386 969.057 17.9378C969.057 17.937 969.057 17.9361 969.057 17.9353C969.057 17.9345 969.057 17.9336 969.057 17.9328C969.057 17.932 969.057 17.9312 969.057 17.9303C969.057 17.9295 969.057 17.9287 969.057 17.9278C969.057 17.927 969.057 17.9262 969.057 17.9253C969.057 17.9245 969.057 17.9237 969.057 17.9228C969.057 17.922 969.057 17.9212 969.057 17.9203C969.057 17.9195 969.057 17.9187 969.057 17.9178C969.057 17.917 969.057 17.9162 969.057 17.9153C969.057 17.9145 969.057 17.9137 969.057 17.9128C969.057 17.912 969.057 17.9111 969.057 17.9103C969.057 17.9095 969.057 17.9086 969.057 17.9078C969.057 17.907 969.057 17.9061 969.057 17.9053C969.057 17.9044 969.057 17.9036 969.057 17.9028C969.057 17.9019 969.057 17.9011 969.057 17.9002C969.057 17.8994 969.057 17.8986 969.057 17.8977C969.057 17.8969 969.057 17.896 969.057 17.8952C969.057 17.8944 969.057 17.8935 969.057 17.8927C969.057 17.8918 969.057 17.891 969.057 17.8901C969.057 17.8893 969.057 17.8885 969.057 17.8876C969.057 17.8868 969.057 17.8859 969.057 17.8851C969.057 17.8842 969.057 17.8834 969.057 17.8825C969.057 17.8817 969.057 17.8809 969.057 17.88C969.057 17.8792 969.057 17.8783 969.057 17.8775C969.057 17.8766 969.057 17.8758 969.057 17.8749C969.057 17.8741 969.057 17.8732 969.057 17.8724C969.057 17.8715 969.057 17.8707 969.057 17.8698C969.057 17.869 969.057 17.8681 969.057 17.8673C969.057 17.8664 969.057 17.8656 969.057 17.8647C969.057 17.8639 969.057 17.863 969.057 17.8622C969.057 17.8613 969.057 17.8605 969.057 17.8596C969.057 17.8588 969.057 17.8579 969.057 17.8571C969.057 17.8562 969.057 17.8554 969.057 17.8545C969.057 17.8536 969.057 17.8528 969.057 17.8519C969.057 17.8511 969.057 17.8502 969.057 17.8494C969.057 17.8485 969.057 17.8477 969.057 17.8468C969.057 17.846 969.057 17.8451 969.057 17.8442C969.057 17.8434 969.057 17.8425 969.057 17.8417C969.057 17.8408 969.057 17.84 969.057 17.8391C969.057 17.8382 969.057 17.8374 969.057 17.8365C969.057 17.8357 969.057 17.8348 969.057 17.8339C969.057 17.8331 969.057 17.8322 969.057 17.8314C969.057 17.8305 969.057 17.8296 969.057 17.8288C969.057 17.8279 969.057 17.827 969.057 17.8262C969.057 17.8253 969.057 17.8245 969.057 17.8236C969.057 17.8227 969.057 17.8219 969.057 17.821C969.057 17.8201 969.057 17.8193 969.057 17.8184C969.057 17.8176 969.057 17.8167 969.057 17.8158C969.057 17.815 969.057 17.8141 969.057 17.8132C969.057 17.8124 969.057 17.8115 969.057 17.8106C969.057 17.8098 969.057 17.8089 969.057 17.808C969.057 17.8072 969.057 17.8063 969.057 17.8054C969.057 17.8045 969.057 17.8037 969.057 17.8028C969.057 17.8019 969.057 17.8011 969.057 17.8002C969.057 17.7993 969.057 17.7985 969.057 17.7976C969.057 17.7967 969.057 17.7959 969.057 17.795C969.057 17.7941 969.057 17.7932 969.057 17.7924C969.057 17.7915 969.057 17.7906 969.057 17.7897C969.057 17.7889 969.057 17.788 969.057 17.7871C969.057 17.7863 969.057 17.7854 969.057 17.7845C969.057 17.7836 969.057 17.7828 969.057 17.7819C969.057 17.781 969.057 17.7801 969.057 17.7793C969.057 17.7784 969.057 17.7775 969.057 17.7766C969.057 17.7757 969.057 17.7749 969.057 17.774C969.057 17.7731 969.057 17.7722 969.057 17.7714C969.057 17.7705 969.057 17.7696 969.057 17.7687C969.057 17.7678 969.057 17.767 969.057 17.7661C969.057 17.7652 969.057 17.7643 969.057 17.7634C969.057 17.7626 969.057 17.7617 969.057 17.7608C969.057 17.7599 969.057 17.759 969.057 17.7582C969.057 17.7573 969.057 17.7564 969.057 17.7555C969.057 17.7546 969.057 17.7537 969.057 17.7529C969.057 17.752 969.057 17.7511 969.057 17.7502C969.057 17.7493 969.057 17.7484 969.057 17.7476C969.057 17.7467 969.057 17.7458 969.057 17.7449C969.057 17.744 969.057 17.7431 969.057 17.7422C969.057 17.7413 969.057 17.7405 969.057 17.7396C969.057 17.7387 969.057 17.7378 969.057 17.7369C969.057 17.736 969.057 17.7351 969.057 17.7342C969.057 17.7334 969.057 17.7325 969.057 17.7316C969.057 17.7307 969.057 17.7298 969.057 17.7289C969.057 17.728 969.057 17.7271 969.057 17.7262C969.057 17.7253 969.057 17.7245 969.057 17.7236C969.057 17.7227 969.057 17.7218 969.057 17.7209C969.057 17.72 969.057 17.7191 969.057 17.7182C969.057 17.7173 969.057 17.7164 969.057 17.7155C969.057 17.7146 969.057 17.7137 969.057 17.7128C969.057 17.7119 969.057 17.711 969.057 17.7102C969.057 17.7093 969.057 17.7084 969.057 17.7075C969.057 17.7066 969.057 17.7057 969.057 17.7048C969.057 17.7039 969.057 17.703 969.057 17.7021C969.057 17.7012 969.057 17.7003 969.057 17.6994C969.057 17.6985 969.057 17.6976 969.057 17.6967C969.057 17.6958 969.057 17.6949 969.057 17.694C969.057 17.6931 969.057 17.6922 969.057 17.6913C969.057 17.6904 969.057 17.6895 969.057 17.6886C969.057 17.6877 969.057 17.6868 969.057 17.6859C969.057 17.685 969.057 17.6841 969.057 17.6832C969.057 17.6823 969.057 17.6814 969.057 17.6804C969.057 17.6795 969.057 17.6786 969.057 17.6777C969.057 17.6768 969.057 17.6759 969.057 17.675C969.057 17.6741 969.057 17.6732 969.057 17.6723C969.057 17.6714 969.057 17.6705 969.057 17.6696C969.057 17.6687 969.057 17.6678 969.057 17.6669C969.057 17.6659 969.057 17.665 969.057 17.6641C969.057 17.6632 969.057 17.6623 969.057 17.6614C969.057 17.6605 969.057 17.6596 969.057 17.6587C969.057 17.6578 969.057 17.6569 969.057 17.6559C969.057 17.655 969.057 17.6541 969.057 17.6532C969.057 17.6523 969.057 17.6514 969.057 17.6505C969.057 17.6496 969.057 17.6486 969.057 17.6477C969.057 17.6468 969.057 17.6459 969.057 17.645C969.057 17.6441 969.057 17.6432 969.057 17.6422C969.057 17.6413 969.057 17.6404 969.057 17.6395C969.057 17.6386 969.057 17.6377 969.057 17.6368C969.057 17.6358 969.057 17.6349 969.057 17.634C969.057 17.6331 969.057 17.6322 969.057 17.6312C969.057 17.6303 969.057 17.6294 969.057 17.6285C969.057 17.6276 969.057 17.6267 969.057 17.6257C969.057 17.6248 969.057 17.6239 969.057 17.623C969.057 17.6221 969.057 17.6211 969.057 17.6202C969.057 17.6193 969.057 17.6184 969.057 17.6175C969.057 17.6165 969.057 17.6156 969.057 17.6147C969.057 17.6138 969.057 17.6128 969.057 17.6119C969.057 17.611 969.057 17.6101 969.057 17.6091C969.057 17.6082 969.057 17.6073 969.057 17.6064C969.057 17.6054 969.057 17.6045 969.057 17.6036C969.057 17.6027 969.057 17.6017 969.057 17.6008C969.057 17.5999 969.057 17.599 969.057 17.598C969.057 17.5971 969.057 17.5962 969.057 17.5953C969.057 17.5943 969.057 17.5934 969.057 17.5925C969.057 17.5915 969.057 17.5906 969.057 17.5897C969.057 17.5888 969.057 17.5878 969.057 17.5869C969.057 17.586 969.057 17.585 969.057 17.5841C969.057 17.5832 969.057 17.5822 969.057 17.5813C969.057 17.5804 969.057 17.5794 969.057 17.5785C969.057 17.5776 969.057 17.5766 969.057 17.5757C969.057 17.5748 969.057 17.5738 969.057 17.5729C969.057 17.572 969.057 17.571 969.057 17.5701C969.057 17.5692 969.057 17.5682 969.057 17.5673C969.057 17.5664 969.057 17.5654 969.057 17.5645C969.057 17.5636 969.057 17.5626 969.057 17.5617C969.057 17.5607 969.057 17.5598 969.057 17.5589C969.057 17.5579 969.057 17.557 969.057 17.5561C969.057 17.5551 969.057 17.5542 969.057 17.5532C969.057 17.5523 969.057 17.5514 969.057 17.5504C969.057 17.5495 969.057 17.5485 969.057 17.5476C969.057 17.5467 969.057 17.5457 969.057 17.5448C969.057 17.5438 969.057 17.5429 969.057 17.542C969.057 17.541 969.057 17.5401 969.057 17.5391C969.057 17.5382 969.057 17.5372 969.057 17.5363C969.057 17.5353 969.057 17.5344 969.057 17.5335C969.057 17.5325 969.057 17.5316 969.057 17.5306C969.057 17.5297 969.057 17.5287 969.057 17.5278C969.057 17.5268 969.057 17.5259 969.057 17.5249C969.057 17.524 969.057 17.5231 969.057 17.5221C969.057 17.5212 969.057 17.5202 969.057 17.5193C969.057 17.5183 969.057 17.5174 969.057 17.5164C969.057 17.5155 969.057 17.5145 969.057 17.5136C969.057 17.5126 969.057 17.5117 969.057 17.5107C969.057 17.5098 969.057 17.5088 969.057 17.5079C969.057 17.5069 969.057 17.506 969.057 17.505C969.057 17.5041 969.057 17.5031 969.057 17.5021C969.057 17.5012 969.057 17.5002 969.057 17.4993C969.057 17.4983 969.057 17.4974 969.057 17.4964C969.057 17.4955 969.057 17.4945 969.057 17.4936C969.057 17.4926 969.057 17.4916 969.057 17.4907C969.057 17.4897 969.057 17.4888 969.057 17.4878C969.057 17.4869 969.057 17.4859 969.057 17.485C969.057 17.484 969.057 17.483 969.057 17.4821C969.057 17.4811 969.057 17.4802 969.057 17.4792C969.057 17.4782 969.057 17.4773 969.057 17.4763C969.057 17.4754 969.057 17.4744 969.057 17.4734C969.057 17.4725 969.057 17.4715 969.057 17.4706C969.057 17.4696 969.057 17.4686 969.057 17.4677C969.057 17.4667 969.057 17.4657 969.057 17.4648C969.057 17.4638 969.057 17.4629 969.057 17.4619C969.057 17.4609 969.057 17.46 969.057 17.459C969.057 17.458 969.057 17.4571 969.057 17.4561C969.057 17.4551 969.057 17.4542 969.057 17.4532C969.057 17.4522 969.057 17.4513 969.057 17.4503C969.057 17.4493 969.057 17.4484 969.057 17.4474C969.057 17.4464 969.057 17.4455 969.057 17.4445C969.057 17.4435 969.057 17.4426 969.057 17.4416C969.057 17.4406 969.057 17.4397 969.057 17.4387C969.057 17.4377 969.057 17.4368 969.057 17.4358C969.057 17.4348 969.057 17.4338 969.057 17.4329C969.057 17.4319 969.057 17.4309 969.057 17.43C969.057 17.429 969.057 17.428 969.057 17.427C969.057 17.4261 969.057 17.4251 969.057 17.4241C969.057 17.4231 969.057 17.4222 969.057 17.4212C969.057 17.4202 969.057 17.4192 969.057 17.4183C969.057 17.4173 969.057 17.4163 969.057 17.4153C969.057 17.4144 969.057 17.4134 969.057 17.4124C969.057 17.4114 969.057 17.4105 969.057 17.4095C969.057 17.4085 969.057 17.4075 969.057 17.4065C969.057 17.4056 969.057 17.4046 969.057 17.4036C969.057 17.4026 969.057 17.4017 969.057 17.4007C969.057 17.3997 969.057 17.3987 969.057 17.3977C969.057 17.3968 969.057 17.3958 969.057 17.3948C969.057 17.3938 969.057 17.3928 969.057 17.3918C969.057 17.3909 969.057 17.3899 969.057 17.3889C969.057 17.3879 969.057 17.3869 969.057 17.3859C969.057 17.385 969.057 17.384 969.057 17.383C969.057 17.382 969.057 17.381 969.057 17.38C969.057 17.3791 969.057 17.3781 969.057 17.3771C969.057 17.3761 969.057 17.3751 969.057 17.3741C969.057 17.3731 969.057 17.3722 969.057 17.3712C969.057 17.3702 969.057 17.3692 969.057 17.3682C969.057 17.3672 969.057 17.3662 969.057 17.3652C969.057 17.3642 969.057 17.3633 969.057 17.3623C969.057 17.3613 969.057 17.3603 969.057 17.3593C969.057 17.3583 969.057 17.3573 969.057 17.3563C969.057 17.3553 969.057 17.3543 969.057 17.3534C969.057 17.3524 969.057 17.3514 969.057 17.3504C969.057 17.3494 969.057 17.3484 969.057 17.3474C969.057 17.3464 969.057 17.3454 969.057 17.3444C969.057 17.3434 969.057 17.3424 969.057 17.3414C969.057 17.3404 969.057 17.3394 969.057 17.3384C969.057 17.3374 969.057 17.3365 969.057 17.3355C969.057 17.3345 969.057 17.3335 969.057 17.3325C969.057 17.3315 969.057 17.3305 969.057 17.3295C969.057 17.3285 969.057 17.3275 969.057 17.3265C969.057 17.3255 969.057 17.3245 969.057 17.3235C969.057 17.3225 969.057 17.3215 969.057 17.3205C969.057 17.3195 969.057 17.3185 969.057 17.3175C969.057 17.3165 969.057 17.3155 969.057 17.3145C969.057 17.3135 969.057 17.3125 969.057 17.3115C969.057 17.3105 969.057 17.3095 969.057 17.3085C969.057 17.3075 969.057 17.3064 969.057 17.3054C969.057 17.3044 969.057 17.3034 969.057 17.3024C969.057 17.3014 969.057 17.3004 969.057 17.2994C969.057 17.2984 969.057 17.2974 969.057 17.2964C969.057 17.2954 969.057 17.2944 969.057 17.2934C969.057 17.2924 969.057 17.2914 969.057 17.2904C969.057 17.2893 969.057 17.2883 969.057 17.2873C969.057 17.2863 969.057 17.2853 969.057 17.2843C969.057 17.2833 969.057 17.2823 969.057 17.2813C969.057 17.2803 969.057 17.2793 969.057 17.2782C969.057 17.2772 969.057 17.2762 969.057 17.2752C969.057 17.2742 969.057 17.2732 969.057 17.2722C969.057 17.2712 969.057 17.2701 969.057 17.2691C969.057 17.2681 969.057 17.2671 969.057 17.2661C969.057 17.2651 969.057 17.2641 969.057 17.263C969.057 17.262 969.057 17.261 969.057 17.26H967.057C967.057 17.261 967.057 17.262 967.057 17.263C967.057 17.2641 967.057 17.2651 967.057 17.2661C967.057 17.2671 967.057 17.2681 967.057 17.2691C967.057 17.2701 967.057 17.2712 967.057 17.2722C967.057 17.2732 967.057 17.2742 967.057 17.2752C967.057 17.2762 967.057 17.2772 967.057 17.2782C967.057 17.2793 967.057 17.2803 967.057 17.2813C967.057 17.2823 967.057 17.2833 967.057 17.2843C967.057 17.2853 967.057 17.2863 967.057 17.2873C967.057 17.2883 967.057 17.2893 967.057 17.2904C967.057 17.2914 967.057 17.2924 967.057 17.2934C967.057 17.2944 967.057 17.2954 967.057 17.2964C967.057 17.2974 967.057 17.2984 967.057 17.2994C967.057 17.3004 967.057 17.3014 967.057 17.3024C967.057 17.3034 967.057 17.3044 967.057 17.3054C967.057 17.3064 967.057 17.3075 967.057 17.3085C967.057 17.3095 967.057 17.3105 967.057 17.3115C967.057 17.3125 967.057 17.3135 967.057 17.3145C967.057 17.3155 967.057 17.3165 967.057 17.3175C967.057 17.3185 967.057 17.3195 967.057 17.3205C967.057 17.3215 967.057 17.3225 967.057 17.3235C967.057 17.3245 967.057 17.3255 967.057 17.3265C967.057 17.3275 967.057 17.3285 967.057 17.3295C967.057 17.3305 967.057 17.3315 967.057 17.3325C967.057 17.3335 967.057 17.3345 967.057 17.3355C967.057 17.3365 967.057 17.3374 967.057 17.3384C967.057 17.3394 967.057 17.3404 967.057 17.3414C967.057 17.3424 967.057 17.3434 967.057 17.3444C967.057 17.3454 967.057 17.3464 967.057 17.3474C967.057 17.3484 967.057 17.3494 967.057 17.3504C967.057 17.3514 967.057 17.3524 967.057 17.3534C967.057 17.3543 967.057 17.3553 967.057 17.3563C967.057 17.3573 967.057 17.3583 967.057 17.3593C967.057 17.3603 967.057 17.3613 967.057 17.3623C967.057 17.3633 967.057 17.3642 967.057 17.3652C967.057 17.3662 967.057 17.3672 967.057 17.3682C967.057 17.3692 967.057 17.3702 967.057 17.3712C967.057 17.3722 967.057 17.3731 967.057 17.3741C967.057 17.3751 967.057 17.3761 967.057 17.3771C967.057 17.3781 967.057 17.3791 967.057 17.38C967.057 17.381 967.057 17.382 967.057 17.383C967.057 17.384 967.057 17.385 967.057 17.3859C967.057 17.3869 967.057 17.3879 967.057 17.3889C967.057 17.3899 967.057 17.3909 967.057 17.3918C967.057 17.3928 967.057 17.3938 967.057 17.3948C967.057 17.3958 967.057 17.3968 967.057 17.3977C967.057 17.3987 967.057 17.3997 967.057 17.4007C967.057 17.4017 967.057 17.4026 967.057 17.4036C967.057 17.4046 967.057 17.4056 967.057 17.4065C967.057 17.4075 967.057 17.4085 967.057 17.4095C967.057 17.4105 967.057 17.4114 967.057 17.4124C967.057 17.4134 967.057 17.4144 967.057 17.4153C967.057 17.4163 967.057 17.4173 967.057 17.4183C967.057 17.4192 967.057 17.4202 967.057 17.4212C967.057 17.4222 967.057 17.4231 967.057 17.4241C967.057 17.4251 967.057 17.4261 967.057 17.427C967.057 17.428 967.057 17.429 967.057 17.43C967.057 17.4309 967.057 17.4319 967.057 17.4329C967.057 17.4338 967.057 17.4348 967.057 17.4358C967.057 17.4368 967.057 17.4377 967.057 17.4387C967.057 17.4397 967.057 17.4406 967.057 17.4416C967.057 17.4426 967.057 17.4435 967.057 17.4445C967.057 17.4455 967.057 17.4464 967.057 17.4474C967.057 17.4484 967.057 17.4493 967.057 17.4503C967.057 17.4513 967.057 17.4522 967.057 17.4532C967.057 17.4542 967.057 17.4551 967.057 17.4561C967.057 17.4571 967.057 17.458 967.057 17.459C967.057 17.46 967.057 17.4609 967.057 17.4619C967.057 17.4629 967.057 17.4638 967.057 17.4648C967.057 17.4657 967.057 17.4667 967.057 17.4677C967.057 17.4686 967.057 17.4696 967.057 17.4706C967.057 17.4715 967.057 17.4725 967.057 17.4734C967.057 17.4744 967.057 17.4754 967.057 17.4763C967.057 17.4773 967.057 17.4782 967.057 17.4792C967.057 17.4802 967.057 17.4811 967.057 17.4821C967.057 17.483 967.057 17.484 967.057 17.485C967.057 17.4859 967.057 17.4869 967.057 17.4878C967.057 17.4888 967.057 17.4897 967.057 17.4907C967.057 17.4916 967.057 17.4926 967.057 17.4936C967.057 17.4945 967.057 17.4955 967.057 17.4964C967.057 17.4974 967.057 17.4983 967.057 17.4993C967.057 17.5002 967.057 17.5012 967.057 17.5021C967.057 17.5031 967.057 17.5041 967.057 17.505C967.057 17.506 967.057 17.5069 967.057 17.5079C967.057 17.5088 967.057 17.5098 967.057 17.5107C967.057 17.5117 967.057 17.5126 967.057 17.5136C967.057 17.5145 967.057 17.5155 967.057 17.5164C967.057 17.5174 967.057 17.5183 967.057 17.5193C967.057 17.5202 967.057 17.5212 967.057 17.5221C967.057 17.5231 967.057 17.524 967.057 17.5249C967.057 17.5259 967.057 17.5268 967.057 17.5278C967.057 17.5287 967.057 17.5297 967.057 17.5306C967.057 17.5316 967.057 17.5325 967.057 17.5335C967.057 17.5344 967.057 17.5353 967.057 17.5363C967.057 17.5372 967.057 17.5382 967.057 17.5391C967.057 17.5401 967.057 17.541 967.057 17.542C967.057 17.5429 967.057 17.5438 967.057 17.5448C967.057 17.5457 967.057 17.5467 967.057 17.5476C967.057 17.5485 967.057 17.5495 967.057 17.5504C967.057 17.5514 967.057 17.5523 967.057 17.5532C967.057 17.5542 967.057 17.5551 967.057 17.5561C967.057 17.557 967.057 17.5579 967.057 17.5589C967.057 17.5598 967.057 17.5607 967.057 17.5617C967.057 17.5626 967.057 17.5636 967.057 17.5645C967.057 17.5654 967.057 17.5664 967.057 17.5673C967.057 17.5682 967.057 17.5692 967.057 17.5701C967.057 17.571 967.057 17.572 967.057 17.5729C967.057 17.5738 967.057 17.5748 967.057 17.5757C967.057 17.5766 967.057 17.5776 967.057 17.5785C967.057 17.5794 967.057 17.5804 967.057 17.5813C967.057 17.5822 967.057 17.5832 967.057 17.5841C967.057 17.585 967.057 17.586 967.057 17.5869C967.057 17.5878 967.057 17.5888 967.057 17.5897C967.057 17.5906 967.057 17.5915 967.057 17.5925C967.057 17.5934 967.057 17.5943 967.057 17.5953C967.057 17.5962 967.057 17.5971 967.057 17.598C967.057 17.599 967.057 17.5999 967.057 17.6008C967.057 17.6017 967.057 17.6027 967.057 17.6036C967.057 17.6045 967.057 17.6054 967.057 17.6064C967.057 17.6073 967.057 17.6082 967.057 17.6091C967.057 17.6101 967.057 17.611 967.057 17.6119C967.057 17.6128 967.057 17.6138 967.057 17.6147C967.057 17.6156 967.057 17.6165 967.057 17.6175C967.057 17.6184 967.057 17.6193 967.057 17.6202C967.057 17.6211 967.057 17.6221 967.057 17.623C967.057 17.6239 967.057 17.6248 967.057 17.6257C967.057 17.6267 967.057 17.6276 967.057 17.6285C967.057 17.6294 967.057 17.6303 967.057 17.6312C967.057 17.6322 967.057 17.6331 967.057 17.634C967.057 17.6349 967.057 17.6358 967.057 17.6368C967.057 17.6377 967.057 17.6386 967.057 17.6395C967.057 17.6404 967.057 17.6413 967.057 17.6422C967.057 17.6432 967.057 17.6441 967.057 17.645C967.057 17.6459 967.057 17.6468 967.057 17.6477C967.057 17.6486 967.057 17.6496 967.057 17.6505C967.057 17.6514 967.057 17.6523 967.057 17.6532C967.057 17.6541 967.057 17.655 967.057 17.6559C967.057 17.6569 967.057 17.6578 967.057 17.6587C967.057 17.6596 967.057 17.6605 967.057 17.6614C967.057 17.6623 967.057 17.6632 967.057 17.6641C967.057 17.665 967.057 17.6659 967.057 17.6669C967.057 17.6678 967.057 17.6687 967.057 17.6696C967.057 17.6705 967.057 17.6714 967.057 17.6723C967.057 17.6732 967.057 17.6741 967.057 17.675C967.057 17.6759 967.057 17.6768 967.057 17.6777C967.057 17.6786 967.057 17.6795 967.057 17.6804C967.057 17.6814 967.057 17.6823 967.057 17.6832C967.057 17.6841 967.057 17.685 967.057 17.6859C967.057 17.6868 967.057 17.6877 967.057 17.6886C967.057 17.6895 967.057 17.6904 967.057 17.6913C967.057 17.6922 967.057 17.6931 967.057 17.694C967.057 17.6949 967.057 17.6958 967.057 17.6967C967.057 17.6976 967.057 17.6985 967.057 17.6994C967.057 17.7003 967.057 17.7012 967.057 17.7021C967.057 17.703 967.057 17.7039 967.057 17.7048C967.057 17.7057 967.057 17.7066 967.057 17.7075C967.057 17.7084 967.057 17.7093 967.057 17.7102C967.057 17.711 967.057 17.7119 967.057 17.7128C967.057 17.7137 967.057 17.7146 967.057 17.7155C967.057 17.7164 967.057 17.7173 967.057 17.7182C967.057 17.7191 967.057 17.72 967.057 17.7209C967.057 17.7218 967.057 17.7227 967.057 17.7236C967.057 17.7245 967.057 17.7253 967.057 17.7262C967.057 17.7271 967.057 17.728 967.057 17.7289C967.057 17.7298 967.057 17.7307 967.057 17.7316C967.057 17.7325 967.057 17.7334 967.057 17.7342C967.057 17.7351 967.057 17.736 967.057 17.7369C967.057 17.7378 967.057 17.7387 967.057 17.7396C967.057 17.7405 967.057 17.7413 967.057 17.7422C967.057 17.7431 967.057 17.744 967.057 17.7449C967.057 17.7458 967.057 17.7467 967.057 17.7476C967.057 17.7484 967.057 17.7493 967.057 17.7502C967.057 17.7511 967.057 17.752 967.057 17.7529C967.057 17.7537 967.057 17.7546 967.057 17.7555C967.057 17.7564 967.057 17.7573 967.057 17.7582C967.057 17.759 967.057 17.7599 967.057 17.7608C967.057 17.7617 967.057 17.7626 967.057 17.7634C967.057 17.7643 967.057 17.7652 967.057 17.7661C967.057 17.767 967.057 17.7678 967.057 17.7687C967.057 17.7696 967.057 17.7705 967.057 17.7714C967.057 17.7722 967.057 17.7731 967.057 17.774C967.057 17.7749 967.057 17.7757 967.057 17.7766C967.057 17.7775 967.057 17.7784 967.057 17.7793C967.057 17.7801 967.057 17.781 967.057 17.7819C967.057 17.7828 967.057 17.7836 967.057 17.7845C967.057 17.7854 967.057 17.7863 967.057 17.7871C967.057 17.788 967.057 17.7889 967.057 17.7897C967.057 17.7906 967.057 17.7915 967.057 17.7924C967.057 17.7932 967.057 17.7941 967.057 17.795C967.057 17.7959 967.057 17.7967 967.057 17.7976C967.057 17.7985 967.057 17.7993 967.057 17.8002C967.057 17.8011 967.057 17.8019 967.057 17.8028C967.057 17.8037 967.057 17.8045 967.057 17.8054C967.057 17.8063 967.057 17.8072 967.057 17.808C967.057 17.8089 967.057 17.8098 967.057 17.8106C967.057 17.8115 967.057 17.8124 967.057 17.8132C967.057 17.8141 967.057 17.815 967.057 17.8158C967.057 17.8167 967.057 17.8176 967.057 17.8184C967.057 17.8193 967.057 17.8201 967.057 17.821C967.057 17.8219 967.057 17.8227 967.057 17.8236C967.057 17.8245 967.057 17.8253 967.057 17.8262C967.057 17.827 967.057 17.8279 967.057 17.8288C967.057 17.8296 967.057 17.8305 967.057 17.8314C967.057 17.8322 967.057 17.8331 967.057 17.8339C967.057 17.8348 967.057 17.8357 967.057 17.8365C967.057 17.8374 967.057 17.8382 967.057 17.8391C967.057 17.84 967.057 17.8408 967.057 17.8417C967.057 17.8425 967.057 17.8434 967.057 17.8442C967.057 17.8451 967.057 17.846 967.057 17.8468C967.057 17.8477 967.057 17.8485 967.057 17.8494C967.057 17.8502 967.057 17.8511 967.057 17.8519C967.057 17.8528 967.057 17.8536 967.057 17.8545C967.057 17.8554 967.057 17.8562 967.057 17.8571C967.057 17.8579 967.057 17.8588 967.057 17.8596C967.057 17.8605 967.057 17.8613 967.057 17.8622C967.057 17.863 967.057 17.8639 967.057 17.8647C967.057 17.8656 967.057 17.8664 967.057 17.8673C967.057 17.8681 967.057 17.869 967.057 17.8698C967.057 17.8707 967.057 17.8715 967.057 17.8724C967.057 17.8732 967.057 17.8741 967.057 17.8749C967.057 17.8758 967.057 17.8766 967.057 17.8775C967.057 17.8783 967.057 17.8792 967.057 17.88C967.057 17.8809 967.057 17.8817 967.057 17.8825C967.057 17.8834 967.057 17.8842 967.057 17.8851C967.057 17.8859 967.057 17.8868 967.057 17.8876C967.057 17.8885 967.057 17.8893 967.057 17.8901C967.057 17.891 967.057 17.8918 967.057 17.8927C967.057 17.8935 967.057 17.8944 967.057 17.8952C967.057 17.896 967.057 17.8969 967.057 17.8977C967.057 17.8986 967.057 17.8994 967.057 17.9002C967.057 17.9011 967.057 17.9019 967.057 17.9028C967.057 17.9036 967.057 17.9044 967.057 17.9053C967.057 17.9061 967.057 17.907 967.057 17.9078C967.057 17.9086 967.057 17.9095 967.057 17.9103C967.057 17.9111 967.057 17.912 967.057 17.9128C967.057 17.9137 967.057 17.9145 967.057 17.9153C967.057 17.9162 967.057 17.917 967.057 17.9178C967.057 17.9187 967.057 17.9195 967.057 17.9203C967.057 17.9212 967.057 17.922 967.057 17.9228C967.057 17.9237 967.057 17.9245 967.057 17.9253C967.057 17.9262 967.057 17.927 967.057 17.9278C967.057 17.9287 967.057 17.9295 967.057 17.9303C967.057 17.9312 967.057 17.932 967.057 17.9328C967.057 17.9336 967.057 17.9345 967.057 17.9353C967.057 17.9361 967.057 17.937 967.057 17.9378C967.057 17.9386 967.057 17.9394 967.057 17.9403C967.057 17.9411 967.057 17.9419 967.057 17.9428C967.057 17.9436 967.057 17.9444 967.057 17.9452C967.057 17.9461 967.057 17.9469 967.057 17.9477C967.057 17.9485 967.057 17.9494 967.057 17.9502C967.057 17.951 967.057 17.9518 967.057 17.9527C967.057 17.9535 967.057 17.9543 967.057 17.9551C967.057 17.956 967.057 17.9568 967.057 17.9576C967.057 17.9584 967.057 17.9593 967.057 17.9601C967.057 17.9609 967.057 17.9617 967.057 17.9625C967.057 17.9634 967.057 17.9642 967.057 17.965C967.057 17.9658 967.057 17.9666 967.057 17.9675C967.057 17.9683 967.057 17.9691 967.057 17.9699C967.057 17.9707 967.057 17.9716 967.057 17.9724C967.057 17.9732 967.057 17.974 967.057 17.9748C967.057 17.9756 967.057 17.9765 967.057 17.9773C967.057 17.9781 967.057 17.9789 967.057 17.9797C967.057 17.9805 967.057 17.9814 967.057 17.9822C967.057 17.983 967.057 17.9838 967.057 17.9846C967.057 17.9854 967.057 17.9862 967.057 17.9871C967.057 17.9879 967.057 17.9887 967.057 17.9895C967.057 17.9903 967.057 17.9911 967.057 17.9919C967.057 17.9927 967.057 17.9936 967.057 17.9944C967.057 17.9952 967.057 17.996 967.057 17.9968C967.057 17.9976 967.057 17.9984 967.057 17.9992C967.057 18 967.057 18.0008 967.057 18.0017C967.057 18.0025 967.057 18.0033 967.057 18.0041C967.057 18.0049 967.057 18.0057 967.057 18.0065C967.057 18.0073 967.057 18.0081 967.057 18.0089C967.057 18.0097 967.057 18.0105 967.057 18.0113C967.057 18.0122 967.057 18.013 967.057 18.0138C967.057 18.0146 967.057 18.0154 967.057 18.0162C967.057 18.017 967.057 18.0178 967.057 18.0186C967.057 18.0194 967.057 18.0202 967.057 18.021C967.057 18.0218 967.057 18.0226 967.057 18.0234C967.057 18.0242 967.057 18.025 967.057 18.0258C967.057 18.0266 967.057 18.0274 967.057 18.0282C967.057 18.029 967.057 18.0298 967.057 18.0306C967.057 18.0314 967.057 18.0322 967.057 18.033C967.057 18.0338 967.057 18.0346 967.057 18.0354C967.057 18.0362 967.057 18.037 967.057 18.0378C967.057 18.0386 967.057 18.0394 967.057 18.0402C967.057 18.041 967.057 18.0418 967.057 18.0426C967.057 18.0434 967.057 18.0442 967.057 18.045C967.057 18.0458 967.057 18.0466 967.057 18.0473C967.057 18.0481 967.057 18.0489 967.057 18.0497C967.057 18.0505 967.057 18.0513 967.057 18.0521C967.057 18.0529 967.057 18.0537 967.057 18.0545C967.057 18.0553 967.057 18.0561 967.057 18.0569C967.057 18.0577 967.057 18.0584 967.057 18.0592C967.057 18.06 967.057 18.0608 967.057 18.0616C967.057 18.0624 967.057 18.0632 967.057 18.064C967.057 18.0648 967.057 18.0656 967.057 18.0663C967.057 18.0671 967.057 18.0679 967.057 18.0687C967.057 18.0695 967.057 18.0703 967.057 18.0711C967.057 18.0719 967.057 18.0726 967.057 18.0734C967.057 18.0742 967.057 18.075 967.057 18.0758C967.057 18.0766 967.057 18.0774 967.057 18.0781C967.057 18.0789 967.057 18.0797 967.057 18.0805C967.057 18.0813 967.057 18.0821 967.057 18.0828C967.057 18.0836 967.057 18.0844 967.057 18.0852C967.057 18.086 967.057 18.0867 967.057 18.0875C967.057 18.0883 967.057 18.0891 967.057 18.0899C967.057 18.0907 967.057 18.0914 967.057 18.0922C967.057 18.093 967.057 18.0938 967.057 18.0946C967.057 18.0953 967.057 18.0961 967.057 18.0969C967.057 18.0977 967.057 18.0984 967.057 18.0992C967.057 18.1 967.057 18.1008 967.057 18.1016C967.057 18.1023 967.057 18.1031 967.057 18.1039C967.057 18.1047 967.057 18.1054 967.057 18.1062C967.057 18.107 967.057 18.1078 967.057 18.1085C967.057 18.1093 967.057 18.1101 967.057 18.1109C967.057 18.1116 967.057 18.1124 967.057 18.1132C967.057 18.114 967.057 18.1147 967.057 18.1155C967.057 18.1163 967.057 18.117 967.057 18.1178C967.057 18.1186 967.057 18.1194 967.057 18.1201C967.057 18.1209 967.057 18.1217 967.057 18.1224C967.057 18.1232 967.057 18.124 967.057 18.1247C967.057 18.1255 967.057 18.1263 967.057 18.1271C967.057 18.1278 967.057 18.1286 967.057 18.1294C967.057 18.1301 967.057 18.1309 967.057 18.1317C967.057 18.1324 967.057 18.1332 967.057 18.134C967.057 18.1347 967.057 18.1355 967.057 18.1363C967.057 18.137 967.057 18.1378 967.057 18.1385C967.057 18.1393 967.057 18.1401 967.057 18.1408C967.057 18.1416 967.057 18.1424 967.057 18.1431C967.057 18.1439 967.057 18.1447 967.057 18.1454C967.057 18.1462 967.057 18.1469 967.057 18.1477C967.057 18.1485 967.057 18.1492 967.057 18.15C967.057 18.1508 967.057 18.1515 967.057 18.1523C967.057 18.153 967.057 18.1538 967.057 18.1546C967.057 18.1553 967.057 18.1561 967.057 18.1568C967.057 18.1576 967.057 18.1583 967.057 18.1591C967.057 18.1599 967.057 18.1606 967.057 18.1614C967.057 18.1621 967.057 18.1629 967.057 18.1636C967.057 18.1644 967.057 18.1652 967.057 18.1659C967.057 18.1667 967.057 18.1674 967.057 18.1682C967.057 18.1689 967.057 18.1697 967.057 18.1704C967.057 18.1712 967.057 18.1719 967.057 18.1727C967.057 18.1735 967.057 18.1742 967.057 18.175C967.057 18.1757 967.057 18.1765 967.057 18.1772C967.057 18.178 967.057 18.1787 967.057 18.1795C967.057 18.1802 967.057 18.181 967.057 18.1817C967.057 18.1825 967.057 18.1832 967.057 18.184C967.057 18.1847 967.057 18.1855 967.057 18.1862C967.057 18.187 967.057 18.1877 967.057 18.1885C967.057 18.1892 967.057 18.19 967.057 18.1907C967.057 18.1914 967.057 18.1922 967.057 18.1929C967.057 18.1937 967.057 18.1944 967.057 18.1952C967.057 18.1959 967.057 18.1967 967.057 18.1974C967.057 18.1982 967.057 18.1989 967.057 18.1996C967.057 18.2004 967.057 18.2011 967.057 18.2019C967.057 18.2026 967.057 18.2034 967.057 18.2041C967.057 18.2049 967.057 18.2056 967.057 18.2063C967.057 18.2071 967.057 18.2078 967.057 18.2086C967.057 18.2093 967.057 18.21 967.057 18.2108C967.057 18.2115 967.057 18.2123 967.057 18.213C967.057 18.2137 967.057 18.2145 967.057 18.2152C967.057 18.216 967.057 18.2167 967.057 18.2174C967.057 18.2182 967.057 18.2189 967.057 18.2196C967.057 18.2204 967.057 18.2211 967.057 18.2219C967.057 18.2226 967.057 18.2233 967.057 18.2241C967.057 18.2248 967.057 18.2255 967.057 18.2263C967.057 18.227 967.057 18.2277 967.057 18.2285C967.057 18.2292 967.057 18.2299 967.057 18.2307C967.057 18.2314 967.057 18.2321 967.057 18.2329C967.057 18.2336 967.057 18.2343 967.057 18.2351C967.057 18.2358 967.057 18.2365 967.057 18.2373C967.057 18.238 967.057 18.2387 967.057 18.2395C967.057 18.2402 967.057 18.2409 967.057 18.2416C967.057 18.2424 967.057 18.2431 967.057 18.2438C967.057 18.2446 967.057 18.2453 967.057 18.246C967.057 18.2467 967.057 18.2475 967.057 18.2482C967.057 18.2489 967.057 18.2497 967.057 18.2504C967.057 18.2511 967.057 18.2518 967.057 18.2526C967.057 18.2533 967.057 18.254 967.057 18.2547C967.057 18.2555 967.057 18.2562 967.057 18.2569C967.057 18.2576 967.057 18.2584 967.057 18.2591C967.057 18.2598 967.057 18.2605 967.057 18.2612C967.057 18.262 967.057 18.2627 967.057 18.2634C967.057 18.2641 967.057 18.2649 967.057 18.2656C967.057 18.2663 967.057 18.267 967.057 18.2677C967.057 18.2685 967.057 18.2692 967.057 18.2699C967.057 18.2706 967.057 18.2713 967.057 18.2721C967.057 18.2728 967.057 18.2735 967.057 18.2742C967.057 18.2749 967.057 18.2757 967.057 18.2764C967.057 18.2771 967.057 18.2778 967.057 18.2785C967.057 18.2792 967.057 18.28 967.057 18.2807C967.057 18.2814 967.057 18.2821 967.057 18.2828C967.057 18.2835 967.057 18.2842 967.057 18.285C967.057 18.2857 967.057 18.2864 967.057 18.2871C967.057 18.2878 967.057 18.2885 967.057 18.2892C967.057 18.29 967.057 18.2907 967.057 18.2914C967.057 18.2921 967.057 18.2928 967.057 18.2935C967.057 18.2942 967.057 18.2949 967.057 18.2956C967.057 18.2964 967.057 18.2971 967.057 18.2978C967.057 18.2985 967.057 18.2992 967.057 18.2999C967.057 18.3006 967.057 18.3013 967.057 18.302C967.057 18.3027 967.057 18.3034 967.057 18.3042C967.057 18.3049 967.057 18.3056 967.057 18.3063C967.057 18.307 967.057 18.3077 967.057 18.3084C967.057 18.3091 967.057 18.3098 967.057 18.3105C967.057 18.3112 967.057 18.3119 967.057 18.3126C967.057 18.3133 967.057 18.314 967.057 18.3147C967.057 18.3154 967.057 18.3161 967.057 18.3168C967.057 18.3175 967.057 18.3182 967.057 18.319C967.057 18.3197 967.057 18.3204 967.057 18.3211C967.057 18.3218 967.057 18.3225 967.057 18.3232C967.057 18.3239 967.057 18.3246 967.057 18.3253C967.057 18.326 967.057 18.3267 967.057 18.3274C967.057 18.3281 967.057 18.3288 967.057 18.3295C967.057 18.3302 967.057 18.3308 967.057 18.3315C967.057 18.3322 967.057 18.3329 967.057 18.3336C967.057 18.3343 967.057 18.335 967.057 18.3357C967.057 18.3364 967.057 18.3371 967.057 18.3378C967.057 18.3385 967.057 18.3392 967.057 18.3399C967.057 18.3406 967.057 18.3413 967.057 18.342C967.057 18.3427 967.057 18.3434 967.057 18.3441C967.057 18.3448 967.057 18.3454 967.057 18.3461C967.057 18.3468 967.057 18.3475 967.057 18.3482C967.057 18.3489 967.057 18.3496 967.057 18.3503C967.057 18.351 967.057 18.3517 967.057 18.3524C967.057 18.353 967.057 18.3537 967.057 18.3544C967.057 18.3551 967.057 18.3558 967.057 18.3565C967.057 18.3572 967.057 18.3579 967.057 18.3586C967.057 18.3592 967.057 18.3599 967.057 18.3606C967.057 18.3613 967.057 18.362 967.057 18.3627C967.057 18.3634 967.057 18.364 967.057 18.3647C967.057 18.3654 967.057 18.3661 967.057 18.3668C967.057 18.3675 967.057 18.3682 967.057 18.3688C967.057 18.3695 967.057 18.3702 967.057 18.3709C967.057 18.3716 967.057 18.3723 967.057 18.3729C967.057 18.3736 967.057 18.3743 967.057 18.375C967.057 18.3757 967.057 18.3763 967.057 18.377C967.057 18.3777 967.057 18.3784 967.057 18.3791C967.057 18.3797 967.057 18.3804 967.057 18.3811C967.057 18.3818 967.057 18.3825 967.057 18.3831C967.057 18.3838 967.057 18.3845 967.057 18.3852C967.057 18.3859 967.057 18.3865 967.057 18.3872C967.057 18.3879 967.057 18.3886 967.057 18.3892C967.057 18.3899 967.057 18.3906 967.057 18.3913C967.057 18.3919 967.057 18.3926 967.057 18.3933C967.057 18.394 967.057 18.3946 967.057 18.3953C967.057 18.396 967.057 18.3967 967.057 18.3973C967.057 18.398 967.057 18.3987 967.057 18.3994C967.057 18.4 967.057 18.4007 967.057 18.4014C967.057 18.402 967.057 18.4027 967.057 18.4034C967.057 18.4041 967.057 18.4047 967.057 18.4054C967.057 18.4061 967.057 18.4067 967.057 18.4074C967.057 18.4081 967.057 18.4087 967.057 18.4094C967.057 18.4101 967.057 18.4107 967.057 18.4114C967.057 18.4121 967.057 18.4127 967.057 18.4134C967.057 18.4141 967.057 18.4147 967.057 18.4154C967.057 18.4161 967.057 18.4167 967.057 18.4174C967.057 18.4181 967.057 18.4187 967.057 18.4194C967.057 18.4201 967.057 18.4207 967.057 18.4214C967.057 18.4221 967.057 18.4227 967.057 18.4234C967.057 18.4241 967.057 18.4247 967.057 18.4254C967.057 18.426 967.057 18.4267 967.057 18.4274C967.057 18.428 967.057 18.4287 967.057 18.4293C967.057 18.43 967.057 18.4307 967.057 18.4313C967.057 18.432 967.057 18.4326 967.057 18.4333C967.057 18.434 967.057 18.4346 967.057 18.4353C967.057 18.4359 967.057 18.4366 967.057 18.4373C967.057 18.4379 967.057 18.4386 967.057 18.4392C967.057 18.4399 967.057 18.4405 967.057 18.4412C967.057 18.4419 967.057 18.4425 967.057 18.4432C967.057 18.4438 967.057 18.4445 967.057 18.4451C967.057 18.4458 967.057 18.4464 967.057 18.4471C967.057 18.4478 967.057 18.4484 967.057 18.4491C967.057 18.4497 967.057 18.4504 967.057 18.451C967.057 18.4517 967.057 18.4523 967.057 18.453C967.057 18.4536 967.057 18.4543 967.057 18.4549C967.057 18.4556 967.057 18.4562 967.057 18.4569C967.057 18.4575 967.057 18.4582 967.057 18.4588C967.057 18.4595 967.057 18.4601 967.057 18.4608C967.057 18.4614 967.057 18.4621 967.057 18.4627C967.057 18.4634 967.057 18.464 967.057 18.4647C967.057 18.4653 967.057 18.466 967.057 18.4666C967.057 18.4672 967.057 18.4679 967.057 18.4685C967.057 18.4692 967.057 18.4698 967.057 18.4705C967.057 18.4711 967.057 18.4718 967.057 18.4724C967.057 18.4731 967.057 18.4737 967.057 18.4743C967.057 18.475 967.057 18.4756 967.057 18.4763C967.057 18.4769 967.057 18.4776 967.057 18.4782C967.057 18.4788 967.057 18.4795 967.057 18.4801C967.057 18.4808 967.057 18.4814 967.057 18.482C967.057 18.4827 967.057 18.4833 967.057 18.484C967.057 18.4846 967.057 18.4852 967.057 18.4859C967.057 18.4865 967.057 18.4872 967.057 18.4878C967.057 18.4884 967.057 18.4891 967.057 18.4897C967.057 18.4903 967.057 18.491 967.057 18.4916C967.057 18.4923 967.057 18.4929 967.057 18.4935C967.057 18.4942 967.057 18.4948 967.057 18.4954C967.057 18.4961 967.057 18.4967 967.057 18.4973C967.057 18.498 967.057 18.4986 967.057 18.4992C967.057 18.4999 967.057 18.5005 967.057 18.5011C967.057 18.5018 967.057 18.5024 967.057 18.503C967.057 18.5037 967.057 18.5043 967.057 18.5049C967.057 18.5056 967.057 18.5062 967.057 18.5068C967.057 18.5074 967.057 18.5081 967.057 18.5087C967.057 18.5093 967.057 18.51 967.057 18.5106C967.057 18.5112 967.057 18.5119 967.057 18.5125C967.057 18.5131 967.057 18.5137 967.057 18.5144C967.057 18.515 967.057 18.5156 967.057 18.5162C967.057 18.5169 967.057 18.5175 967.057 18.5181C967.057 18.5187 967.057 18.5194 967.057 18.52H969.057ZM969.056 17.2984C969.076 16.7789 969.096 16.2694 969.116 15.77L967.117 15.69C967.097 16.1906 967.077 16.7011 967.057 17.2216L969.056 17.2984ZM969.116 15.7684C969.136 15.2513 969.155 14.8769 969.174 14.6367L967.18 14.4833C967.158 14.7631 967.137 15.1687 967.117 15.6916L969.116 15.7684ZM967.333 14.0232L958.783 27.4632L960.47 28.5368L969.02 15.0968L967.333 14.0232ZM959.627 27H956.357V29H959.627V27ZM957.357 28V11.92H955.357V28H957.357ZM956.357 12.92H958.847V10.92H956.357V12.92ZM957.847 11.92V21.73H959.847V11.92H957.847Z" fill="black"/>
<line y1="-1.5" x2="158.301" y2="-1.5" transform="matrix(-0.999985 -0.00541203 -0.00821176 0.999966 951 46.2727)" stroke="black" stroke-width="3"/>
<line y1="-1.5" x2="12.3" y2="-1.5" transform="matrix(0 1 1 0 795.603 43)" stroke="black" stroke-width="3"/>
<line y1="-1.5" x2="12.3" y2="-1.5" transform="matrix(0 1 1 0 780.763 53)" stroke="black" stroke-width="3"/>
<line y1="-1.5" x2="15.865" y2="-1.5" transform="matrix(-1 0 0 1 795.109 56)" stroke="black" stroke-width="3"/>
<path d="M780.763 65H764.898" stroke="black" stroke-width="3"/>
<path d="M8.066 341.5C9.64899 307.833 37.9318 239.4 138.399 235C238.866 230.6 551.383 214.5 695.083 207C754.358 207 872.167 174.7 869.212 45.5" stroke="black" stroke-width="3"/>
<path d="M8.70711 343.707C8.31658 344.098 7.68342 344.098 7.29289 343.707L0.928932 337.343C0.538408 336.953 0.538408 336.319 0.928932 335.929C1.31946 335.538 1.95262 335.538 2.34315 335.929L8 341.586L13.6569 335.929C14.0474 335.538 14.6805 335.538 15.0711 335.929C15.4616 336.319 15.4616 336.953 15.0711 337.343L8.70711 343.707ZM9 337V343H7V337H9Z" fill="black"/>
</svg>
