<svg width="1003" height="345" viewBox="0 0 1003 345" fill="none" xmlns="http://www.w3.org/2000/svg">
<path d="M28.17 28H2.91V6.58H5.61V25.6H14.16V6.58H16.86V25.6H25.44V6.58H28.17V28ZM39.7533 11.65C41.7133 11.65 43.1633 12.08 44.1033 12.94C45.0433 13.8 45.5133 15.17 45.5133 17.05V28H43.5933L43.0833 25.72H42.9633C42.5033 26.3 42.0233 26.79 41.5233 27.19C41.0433 27.57 40.4833 27.85 39.8433 28.03C39.2233 28.21 38.4633 28.3 37.5633 28.3C36.6033 28.3 35.7333 28.13 34.9533 27.79C34.1933 27.45 33.5933 26.93 33.1533 26.23C32.7133 25.51 32.4933 24.61 32.4933 23.53C32.4933 21.93 33.1233 20.7 34.3833 19.84C35.6433 18.96 37.5833 18.48 40.2033 18.4L42.9333 18.31V17.35C42.9333 16.01 42.6433 15.08 42.0633 14.56C41.4833 14.04 40.6633 13.78 39.6033 13.78C38.7633 13.78 37.9633 13.91 37.2033 14.17C36.4433 14.41 35.7333 14.69 35.0733 15.01L34.2633 13.03C34.9633 12.65 35.7933 12.33 36.7533 12.07C37.7133 11.79 38.7133 11.65 39.7533 11.65ZM40.5333 20.23C38.5333 20.31 37.1433 20.63 36.3633 21.19C35.6033 21.75 35.2233 22.54 35.2233 23.56C35.2233 24.46 35.4933 25.12 36.0333 25.54C36.5933 25.96 37.3033 26.17 38.1633 26.17C39.5233 26.17 40.6533 25.8 41.5533 25.06C42.4533 24.3 42.9033 23.14 42.9033 21.58V20.14L40.5333 20.23ZM60.2897 11.92V14.14H53.1197V28H50.4797V11.92H60.2897ZM83.347 11.92V28H80.707V14.17H72.397V28H69.757V11.92H83.347ZM94.6877 11.62C96.0677 11.62 97.2477 11.92 98.2277 12.52C99.2277 13.12 99.9877 13.97 100.508 15.07C101.048 16.15 101.318 17.42 101.318 18.88V20.47H90.3077C90.3477 22.29 90.8077 23.68 91.6877 24.64C92.5877 25.58 93.8377 26.05 95.4377 26.05C96.4577 26.05 97.3577 25.96 98.1377 25.78C98.9377 25.58 99.7577 25.3 100.598 24.94V27.25C99.7777 27.61 98.9677 27.87 98.1677 28.03C97.3677 28.21 96.4177 28.3 95.3177 28.3C93.7977 28.3 92.4477 27.99 91.2677 27.37C90.1077 26.75 89.1977 25.83 88.5377 24.61C87.8977 23.37 87.5777 21.86 87.5777 20.08C87.5777 18.32 87.8677 16.81 88.4477 15.55C89.0477 14.29 89.8777 13.32 90.9377 12.64C92.0177 11.96 93.2677 11.62 94.6877 11.62ZM94.6577 13.78C93.3977 13.78 92.3977 14.19 91.6577 15.01C90.9377 15.81 90.5077 16.93 90.3677 18.37H98.5577C98.5577 17.45 98.4177 16.65 98.1377 15.97C97.8577 15.29 97.4277 14.76 96.8477 14.38C96.2877 13.98 95.5577 13.78 94.6577 13.78ZM113.061 11.62C115.041 11.62 116.631 12.31 117.831 13.69C119.051 15.07 119.661 17.15 119.661 19.93C119.661 21.75 119.381 23.29 118.821 24.55C118.281 25.79 117.511 26.73 116.511 27.37C115.531 27.99 114.371 28.3 113.031 28.3C112.211 28.3 111.481 28.19 110.841 27.97C110.201 27.75 109.651 27.47 109.191 27.13C108.751 26.77 108.371 26.38 108.051 25.96H107.871C107.911 26.3 107.951 26.73 107.991 27.25C108.031 27.77 108.051 28.22 108.051 28.6V35.2H105.411V11.92H107.571L107.931 14.11H108.051C108.371 13.65 108.751 13.23 109.191 12.85C109.651 12.47 110.191 12.17 110.811 11.95C111.451 11.73 112.201 11.62 113.061 11.62ZM112.581 13.84C111.501 13.84 110.631 14.05 109.971 14.47C109.311 14.87 108.831 15.48 108.531 16.3C108.231 17.12 108.071 18.16 108.051 19.42V19.93C108.051 21.25 108.191 22.37 108.471 23.29C108.751 24.21 109.221 24.91 109.881 25.39C110.561 25.87 111.481 26.11 112.641 26.11C113.621 26.11 114.421 25.84 115.041 25.3C115.681 24.76 116.151 24.03 116.451 23.11C116.771 22.17 116.931 21.1 116.931 19.9C116.931 18.06 116.571 16.59 115.851 15.49C115.151 14.39 114.061 13.84 112.581 13.84ZM136.798 15.97C136.798 16.97 136.498 17.75 135.898 18.31C135.298 18.87 134.528 19.25 133.588 19.45V19.57C134.588 19.71 135.458 20.07 136.198 20.65C136.938 21.21 137.308 22.09 137.308 23.29C137.308 23.97 137.178 24.6 136.918 25.18C136.678 25.76 136.298 26.26 135.778 26.68C135.258 27.1 134.588 27.43 133.768 27.67C132.948 27.89 131.958 28 130.798 28H123.868V11.92H130.768C131.908 11.92 132.928 12.05 133.828 12.31C134.748 12.55 135.468 12.97 135.988 13.57C136.528 14.15 136.798 14.95 136.798 15.97ZM134.578 23.29C134.578 22.37 134.228 21.71 133.528 21.31C132.828 20.91 131.798 20.71 130.438 20.71H126.508V25.87H130.498C131.818 25.87 132.828 25.68 133.528 25.3C134.228 24.9 134.578 24.23 134.578 23.29ZM134.128 16.3C134.128 15.54 133.848 14.99 133.288 14.65C132.748 14.29 131.858 14.11 130.618 14.11H126.508V18.52H130.138C131.438 18.52 132.428 18.34 133.108 17.98C133.788 17.62 134.128 17.06 134.128 16.3ZM141.154 28V11.92H143.794V18.52H147.964C149.364 18.52 150.514 18.69 151.414 19.03C152.314 19.37 152.984 19.88 153.424 20.56C153.864 21.22 154.084 22.06 154.084 23.08C154.084 24.08 153.864 24.95 153.424 25.69C153.004 26.43 152.334 27 151.414 27.4C150.514 27.8 149.324 28 147.844 28H141.154ZM147.604 25.87C148.744 25.87 149.674 25.68 150.394 25.3C151.114 24.9 151.474 24.21 151.474 23.23C151.474 22.25 151.144 21.59 150.484 21.25C149.824 20.89 148.874 20.71 147.634 20.71H143.794V25.87H147.604ZM156.754 28V11.92H159.394V28H156.754ZM177.523 5.26C177.443 6.26 177.193 7.1 176.773 7.78C176.373 8.46 175.773 8.97 174.973 9.31C174.173 9.65 173.133 9.82 171.853 9.82C170.553 9.82 169.503 9.65 168.703 9.31C167.923 8.97 167.353 8.47 166.993 7.81C166.633 7.13 166.413 6.28 166.333 5.26H168.793C168.893 6.34 169.173 7.07 169.633 7.45C170.113 7.81 170.873 7.99 171.913 7.99C172.833 7.99 173.553 7.8 174.073 7.42C174.613 7.02 174.933 6.3 175.033 5.26H177.523ZM166.993 21.73C166.993 21.91 166.983 22.17 166.963 22.51C166.963 22.83 166.953 23.18 166.933 23.56C166.913 23.92 166.893 24.27 166.873 24.61C166.853 24.93 166.833 25.19 166.813 25.39L175.423 11.92H178.663V28H176.203V18.52C176.203 18.2 176.203 17.78 176.203 17.26C176.223 16.74 176.243 16.23 176.263 15.73C176.283 15.21 176.303 14.82 176.323 14.56L167.773 28H164.503V11.92H166.993V21.73Z" fill="black"/>
<path d="M28.17 28V29H29.17V28H28.17ZM2.91 28H1.91V29H2.91V28ZM2.91 6.58V5.58H1.91V6.58H2.91ZM5.61 6.58H6.61V5.58H5.61V6.58ZM5.61 25.6H4.61V26.6H5.61V25.6ZM14.16 25.6V26.6H15.16V25.6H14.16ZM14.16 6.58V5.58H13.16V6.58H14.16ZM16.86 6.58H17.86V5.58H16.86V6.58ZM16.86 25.6H15.86V26.6H16.86V25.6ZM25.44 25.6V26.6H26.44V25.6H25.44ZM25.44 6.58V5.58H24.44V6.58H25.44ZM28.17 6.58H29.17V5.58H28.17V6.58ZM28.17 27H2.91V29H28.17V27ZM3.91 28V6.58H1.91V28H3.91ZM2.91 7.58H5.61V5.58H2.91V7.58ZM4.61 6.58V25.6H6.61V6.58H4.61ZM5.61 26.6H14.16V24.6H5.61V26.6ZM15.16 25.6V6.58H13.16V25.6H15.16ZM14.16 7.58H16.86V5.58H14.16V7.58ZM15.86 6.58V25.6H17.86V6.58H15.86ZM16.86 26.6H25.44V24.6H16.86V26.6ZM26.44 25.6V6.58H24.44V25.6H26.44ZM25.44 7.58H28.17V5.58H25.44V7.58ZM27.17 6.58V28H29.17V6.58H27.17ZM44.1033 12.94L44.7783 12.2022L44.7783 12.2022L44.1033 12.94ZM45.5133 28V29H46.5133V28H45.5133ZM43.5933 28L42.6174 28.2183L42.7923 29H43.5933V28ZM43.0833 25.72L44.0592 25.5017L43.8843 24.72H43.0833V25.72ZM42.9633 25.72V24.72H42.4801L42.1798 25.0986L42.9633 25.72ZM41.5233 27.19L42.144 27.9741L42.148 27.9709L41.5233 27.19ZM39.8433 28.03L39.5725 27.0673L39.5645 27.0697L39.8433 28.03ZM34.9533 27.79L34.5449 28.7029L34.5537 28.7067L34.9533 27.79ZM33.1533 26.23L32.2999 26.7515L32.3066 26.7622L33.1533 26.23ZM34.3833 19.84L34.9471 20.666L34.9559 20.6598L34.3833 19.84ZM40.2033 18.4L40.2338 19.3995L40.2362 19.3995L40.2033 18.4ZM42.9333 18.31L42.9662 19.3095L43.9333 19.2776V18.31H42.9333ZM42.0633 14.56L41.3957 15.3046L41.3957 15.3046L42.0633 14.56ZM37.2033 14.17L37.5044 15.1236L37.5157 15.12L37.527 15.1162L37.2033 14.17ZM35.0733 15.01L34.1477 15.3886L34.5511 16.3745L35.5096 15.9098L35.0733 15.01ZM34.2633 13.03L33.7862 12.1511L32.9983 12.5789L33.3377 13.4086L34.2633 13.03ZM36.7533 12.07L37.0147 13.0352L37.024 13.0327L37.0333 13.03L36.7533 12.07ZM40.5333 20.23L40.4953 19.2307L40.4933 19.2308L40.5333 20.23ZM36.3633 21.19L35.78 20.3776L35.7701 20.3849L36.3633 21.19ZM36.0333 25.54L35.4193 26.3294L35.4263 26.3347L35.4333 26.34L36.0333 25.54ZM41.5533 25.06L42.1884 25.8325L42.1985 25.824L41.5533 25.06ZM42.9033 20.14H43.9033V19.1013L42.8653 19.1407L42.9033 20.14ZM39.7533 12.65C41.5933 12.65 42.7501 13.0573 43.4283 13.6778L44.7783 12.2022C43.5765 11.1027 41.8333 10.65 39.7533 10.65V12.65ZM43.4283 13.6778C44.0793 14.2734 44.5133 15.316 44.5133 17.05H46.5133C46.5133 15.024 46.0073 13.3266 44.7783 12.2022L43.4283 13.6778ZM44.5133 17.05V28H46.5133V17.05H44.5133ZM45.5133 27H43.5933V29H45.5133V27ZM44.5692 27.7817L44.0592 25.5017L42.1074 25.9383L42.6174 28.2183L44.5692 27.7817ZM43.0833 24.72H42.9633V26.72H43.0833V24.72ZM42.1798 25.0986C41.7595 25.6286 41.3315 26.0628 40.8986 26.4091L42.148 27.9709C42.715 27.5172 43.2471 26.9714 43.7468 26.3414L42.1798 25.0986ZM40.9026 26.406C40.5349 26.697 40.0963 26.9201 39.5725 27.0673L40.114 28.9927C40.8703 28.7799 41.5517 28.443 42.144 27.974L40.9026 26.406ZM39.5645 27.0697C39.0629 27.2153 38.4031 27.3 37.5633 27.3V29.3C38.5235 29.3 39.3837 29.2047 40.1221 28.9903L39.5645 27.0697ZM37.5633 27.3C36.7232 27.3 35.9916 27.1517 35.3529 26.8733L34.5537 28.7067C35.475 29.1083 36.4834 29.3 37.5633 29.3V27.3ZM35.3616 26.8772C34.7808 26.6173 34.3339 26.2292 33.9999 25.6978L32.3066 26.7622C32.8527 27.6308 33.6057 28.2827 34.5449 28.7028L35.3616 26.8772ZM34.0066 25.7085C33.6859 25.1839 33.4933 24.4768 33.4933 23.53H31.4933C31.4933 24.7432 31.7406 25.8361 32.3 26.7514L34.0066 25.7085ZM33.4933 23.53C33.4933 22.2413 33.9755 21.3291 34.947 20.6659L33.8195 19.014C32.2711 20.0709 31.4933 21.6187 31.4933 23.53H33.4933ZM34.9559 20.6598C35.9796 19.9448 37.6864 19.4773 40.2338 19.3995L40.1728 17.4005C37.4802 17.4827 35.3069 17.9752 33.8107 19.0202L34.9559 20.6598ZM40.2362 19.3995L42.9662 19.3095L42.9003 17.3105L40.1703 17.4005L40.2362 19.3995ZM43.9333 18.31V17.35H41.9333V18.31H43.9333ZM43.9333 17.35C43.9333 15.9199 43.6332 14.6245 42.7308 13.8154L41.3957 15.3046C41.6534 15.5355 41.9333 16.1001 41.9333 17.35H43.9333ZM42.7308 13.8154C41.9101 13.0796 40.82 12.78 39.6033 12.78V14.78C40.5066 14.78 41.0565 15.0004 41.3957 15.3046L42.7308 13.8154ZM39.6033 12.78C38.6582 12.78 37.7485 12.9266 36.8796 13.2238L37.527 15.1162C38.1781 14.8934 38.8683 14.78 39.6033 14.78V12.78ZM36.9022 13.2164C36.0998 13.4698 35.3443 13.7673 34.637 14.1102L35.5096 15.9098C36.1223 15.6127 36.7868 15.3502 37.5044 15.1236L36.9022 13.2164ZM35.9988 14.6314L35.1888 12.6514L33.3377 13.4086L34.1477 15.3886L35.9988 14.6314ZM34.7404 13.9089C35.3577 13.5738 36.112 13.2797 37.0147 13.0352L36.4919 11.1048C35.4745 11.3803 34.5689 11.7262 33.7862 12.1511L34.7404 13.9089ZM37.0333 13.03C37.8987 12.7776 38.8042 12.65 39.7533 12.65V10.65C38.6223 10.65 37.5278 10.8024 36.4733 11.11L37.0333 13.03ZM40.4933 19.2308C38.4693 19.3118 36.8168 19.6334 35.7801 20.3777L36.9465 22.0023C37.4698 21.6266 38.5973 21.3082 40.5732 21.2292L40.4933 19.2308ZM35.7701 20.3849C34.7312 21.1504 34.2233 22.252 34.2233 23.56H36.2233C36.2233 22.828 36.4753 22.3496 36.9565 21.9951L35.7701 20.3849ZM34.2233 23.56C34.2233 24.6632 34.5631 25.6634 35.4193 26.3294L36.6472 24.7506C36.4234 24.5766 36.2233 24.2568 36.2233 23.56H34.2233ZM35.4333 26.34C36.2028 26.9172 37.1374 27.17 38.1633 27.17V25.17C37.4692 25.17 36.9837 25.0028 36.6333 24.74L35.4333 26.34ZM38.1633 27.17C39.7143 27.17 41.0804 26.7435 42.1884 25.8324L40.9182 24.2876C40.2262 24.8565 39.3323 25.17 38.1633 25.17V27.17ZM42.1985 25.824C43.391 24.817 43.9033 23.3328 43.9033 21.58H41.9033C41.9033 22.9472 41.5155 23.783 40.9081 24.296L42.1985 25.824ZM43.9033 21.58V20.14H41.9033V21.58H43.9033ZM42.8653 19.1407L40.4953 19.2307L40.5712 21.2293L42.9412 21.1393L42.8653 19.1407ZM60.2897 11.92H61.2897V10.92H60.2897V11.92ZM60.2897 14.14V15.14H61.2897V14.14H60.2897ZM53.1197 14.14V13.14H52.1197V14.14H53.1197ZM53.1197 28V29H54.1197V28H53.1197ZM50.4797 28H49.4797V29H50.4797V28ZM50.4797 11.92V10.92H49.4797V11.92H50.4797ZM59.2897 11.92V14.14H61.2897V11.92H59.2897ZM60.2897 13.14H53.1197V15.14H60.2897V13.14ZM52.1197 14.14V28H54.1197V14.14H52.1197ZM53.1197 27H50.4797V29H53.1197V27ZM51.4797 28V11.92H49.4797V28H51.4797ZM50.4797 12.92H60.2897V10.92H50.4797V12.92ZM83.347 11.92H84.347V10.92H83.347V11.92ZM83.347 28V29H84.347V28H83.347ZM80.707 28H79.707V29H80.707V28ZM80.707 14.17H81.707V13.17H80.707V14.17ZM72.397 14.17V13.17H71.397V14.17H72.397ZM72.397 28V29H73.397V28H72.397ZM69.757 28H68.757V29H69.757V28ZM69.757 11.92V10.92H68.757V11.92H69.757ZM82.347 11.92V28H84.347V11.92H82.347ZM83.347 27H80.707V29H83.347V27ZM81.707 28V14.17H79.707V28H81.707ZM80.707 13.17H72.397V15.17H80.707V13.17ZM71.397 14.17V28H73.397V14.17H71.397ZM72.397 27H69.757V29H72.397V27ZM70.757 28V11.92H68.757V28H70.757ZM69.757 12.92H83.347V10.92H69.757V12.92ZM98.2277 12.52L97.7056 13.3729L97.7132 13.3775L98.2277 12.52ZM100.508 15.07L99.6037 15.4974L99.6084 15.5073L99.6133 15.5172L100.508 15.07ZM101.318 20.47V21.47H102.318V20.47H101.318ZM90.3077 20.47V19.47H89.2855L89.308 20.492L90.3077 20.47ZM91.6877 24.64L90.9506 25.3157L90.9579 25.3237L90.9654 25.3316L91.6877 24.64ZM98.1377 25.78L98.3626 26.7544L98.3715 26.7523L98.3803 26.7501L98.1377 25.78ZM100.598 24.94H101.598V23.4235L100.204 24.0209L100.598 24.94ZM100.598 27.25L101 28.1656L101.598 27.9031V27.25H100.598ZM98.1677 28.03L97.9716 27.0494L97.9599 27.0518L97.9482 27.0544L98.1677 28.03ZM91.2677 27.37L90.7963 28.252L90.8026 28.2552L91.2677 27.37ZM88.5377 24.61L87.6491 25.0686L87.6536 25.0773L87.6582 25.0858L88.5377 24.61ZM88.4477 15.55L87.5448 15.12L87.5394 15.1319L88.4477 15.55ZM90.9377 12.64L90.4049 11.7937L90.3978 11.7983L90.9377 12.64ZM91.6577 15.01L90.9153 14.34L90.9144 14.341L91.6577 15.01ZM90.3677 18.37L89.3724 18.2732L89.2658 19.37H90.3677V18.37ZM98.5577 18.37V19.37H99.5577V18.37H98.5577ZM98.1377 15.97L97.2131 16.3507L97.2131 16.3507L98.1377 15.97ZM96.8477 14.38L96.2665 15.1937L96.2829 15.2054L96.2997 15.2165L96.8477 14.38ZM94.6877 12.62C95.9207 12.62 96.9118 12.8868 97.7056 13.3729L98.7499 11.6671C97.5837 10.9532 96.2148 10.62 94.6877 10.62V12.62ZM97.7132 13.3775C98.5361 13.8712 99.1643 14.5679 99.6037 15.4974L101.412 14.6426C100.811 13.3721 99.9193 12.3688 98.7422 11.6625L97.7132 13.3775ZM99.6133 15.5172C100.071 16.4323 100.318 17.5432 100.318 18.88H102.318C102.318 17.2968 102.025 15.8677 101.402 14.6228L99.6133 15.5172ZM100.318 18.88V20.47H102.318V18.88H100.318ZM101.318 19.47H90.3077V21.47H101.318V19.47ZM89.308 20.492C89.3512 22.4584 89.8516 24.1168 90.9506 25.3157L92.4249 23.9643C91.7639 23.2432 91.3443 22.1216 91.3075 20.448L89.308 20.492ZM90.9654 25.3316C92.0958 26.5122 93.6319 27.05 95.4377 27.05V25.05C94.0436 25.05 93.0797 24.6478 92.41 23.9484L90.9654 25.3316ZM95.4377 27.05C96.5139 27.05 97.492 26.9553 98.3626 26.7544L97.9129 24.8056C97.2235 24.9647 96.4016 25.05 95.4377 25.05V27.05ZM98.3803 26.7501C99.2372 26.5359 100.108 26.2379 100.992 25.8591L100.204 24.0209C99.4076 24.3621 98.6383 24.6241 97.8952 24.8099L98.3803 26.7501ZM99.5977 24.94V27.25H101.598V24.94H99.5977ZM100.196 26.3344C99.4355 26.6681 98.6944 26.9049 97.9716 27.0494L98.3639 29.0106C99.2411 28.8351 100.12 28.5519 101 28.1656L100.196 26.3344ZM97.9482 27.0544C97.2399 27.2138 96.3672 27.3 95.3177 27.3V29.3C96.4683 29.3 97.4955 29.2062 98.3872 29.0056L97.9482 27.0544ZM95.3177 27.3C93.9368 27.3 92.7504 27.0194 91.7329 26.4848L90.8026 28.2552C92.1451 28.9606 93.6586 29.3 95.3177 29.3V27.3ZM91.7391 26.4881C90.7617 25.9657 89.9893 25.1916 89.4173 24.1342L87.6582 25.0858C88.4061 26.4684 89.4538 27.5343 90.7964 28.2519L91.7391 26.4881ZM89.4264 24.1514C88.8769 23.0868 88.5777 21.7432 88.5777 20.08H86.5777C86.5777 21.9768 86.9185 23.6532 87.6491 25.0686L89.4264 24.1514ZM88.5777 20.08C88.5777 18.4268 88.8504 17.0667 89.3561 15.9681L87.5394 15.1319C86.8851 16.5533 86.5777 18.2132 86.5777 20.08H88.5777ZM89.3506 15.9799C89.8793 14.8696 90.5913 14.0503 91.4777 13.4817L90.3978 11.7983C89.1641 12.5897 88.2161 13.7104 87.5449 15.1201L89.3506 15.9799ZM91.4705 13.4862C92.3734 12.9178 93.4344 12.62 94.6877 12.62V10.62C93.1011 10.62 91.6621 11.0022 90.4049 11.7938L91.4705 13.4862ZM94.6577 12.78C93.1587 12.78 91.8726 13.2793 90.9153 14.34L92.4001 15.68C92.9229 15.1007 93.6367 14.78 94.6577 14.78V12.78ZM90.9144 14.341C90.0094 15.3466 89.5261 16.6929 89.3724 18.2732L91.363 18.4668C91.4894 17.1671 91.866 16.2734 92.401 15.679L90.9144 14.341ZM90.3677 19.37H98.5577V17.37H90.3677V19.37ZM99.5577 18.37C99.5577 17.351 99.4029 16.4162 99.0624 15.5892L97.2131 16.3507C97.4325 16.8838 97.5577 17.549 97.5577 18.37H99.5577ZM99.0624 15.5892C98.7106 14.7348 98.1548 14.0409 97.3958 13.5435L96.2997 15.2165C96.7006 15.4791 97.0049 15.8452 97.2131 16.3507L99.0624 15.5892ZM97.429 13.5663C96.654 13.0127 95.7024 12.78 94.6577 12.78V14.78C95.4131 14.78 95.9215 14.9473 96.2665 15.1937L97.429 13.5663ZM117.831 13.69L117.077 14.3462L117.082 14.3523L117.831 13.69ZM118.821 24.55L117.907 24.1439L117.904 24.1507L118.821 24.55ZM116.511 27.37L117.046 28.2151L117.05 28.2123L116.511 27.37ZM110.841 27.97L110.516 28.9157L110.516 28.9157L110.841 27.97ZM109.191 27.13L108.558 27.904L108.577 27.9195L108.597 27.9342L109.191 27.13ZM108.051 25.96L108.847 25.354L108.547 24.96H108.051V25.96ZM107.871 25.96V24.96H106.747L106.878 26.0768L107.871 25.96ZM107.991 27.25L106.994 27.3267L106.994 27.3267L107.991 27.25ZM108.051 35.2V36.2H109.051V35.2H108.051ZM105.411 35.2H104.411V36.2H105.411V35.2ZM105.411 11.92V10.92H104.411V11.92H105.411ZM107.571 11.92L108.558 11.7578L108.42 10.92H107.571V11.92ZM107.931 14.11L106.945 14.2722L107.082 15.11H107.931V14.11ZM108.051 14.11V15.11H108.574L108.872 14.6811L108.051 14.11ZM109.191 12.85L108.554 12.079L108.546 12.086L108.538 12.0932L109.191 12.85ZM110.811 11.95L110.486 11.0043L110.477 11.0076L110.811 11.95ZM109.971 14.47L110.49 15.3252L110.499 15.3195L110.508 15.3137L109.971 14.47ZM108.051 19.42L107.051 19.4041L107.051 19.4121V19.42H108.051ZM108.471 23.29L107.515 23.5812L107.515 23.5812L108.471 23.29ZM109.881 25.39L109.293 26.1988L109.305 26.207L109.881 25.39ZM115.041 25.3L114.396 24.5357L114.39 24.5408L114.385 24.5459L115.041 25.3ZM116.451 23.11L115.505 22.7877L115.501 22.8L116.451 23.11ZM115.851 15.49L115.008 16.0269L115.015 16.0377L115.851 15.49ZM113.061 12.62C114.779 12.62 116.084 13.2042 117.077 14.3462L118.586 13.0338C117.179 11.4158 115.304 10.62 113.061 10.62V12.62ZM117.082 14.3523C118.076 15.476 118.661 17.2737 118.661 19.93H120.661C120.661 17.0263 120.027 14.664 118.581 13.0277L117.082 14.3523ZM118.661 19.93C118.661 21.6527 118.396 23.0456 117.908 24.1439L119.735 24.9561C120.367 23.5344 120.661 21.8473 120.661 19.93H118.661ZM117.904 24.1507C117.432 25.235 116.783 26.009 115.972 26.5277L117.05 28.2123C118.24 27.451 119.13 26.345 119.738 24.9493L117.904 24.1507ZM115.977 26.5249C115.18 27.0288 114.212 27.3 113.031 27.3V29.3C114.531 29.3 115.882 28.9512 117.046 28.2151L115.977 26.5249ZM113.031 27.3C112.299 27.3 111.682 27.2017 111.166 27.0243L110.516 28.9157C111.28 29.1783 112.123 29.3 113.031 29.3V27.3ZM111.166 27.0243C110.606 26.8316 110.15 26.5953 109.786 26.3258L108.597 27.9342C109.152 28.3447 109.797 28.6684 110.516 28.9157L111.166 27.0243ZM109.825 26.356C109.44 26.0417 109.116 25.7073 108.847 25.354L107.256 26.566C107.627 27.0527 108.062 27.4983 108.558 27.904L109.825 26.356ZM108.051 24.96H107.871V26.96H108.051V24.96ZM106.878 26.0768C106.916 26.3985 106.955 26.814 106.994 27.3267L108.988 27.1733C108.948 26.646 108.907 26.2015 108.864 25.8432L106.878 26.0768ZM106.994 27.3267C107.033 27.8298 107.051 28.253 107.051 28.6H109.051C109.051 28.187 109.03 27.7102 108.988 27.1733L106.994 27.3267ZM107.051 28.6V35.2H109.051V28.6H107.051ZM108.051 34.2H105.411V36.2H108.051V34.2ZM106.411 35.2V11.92H104.411V35.2H106.411ZM105.411 12.92H107.571V10.92H105.411V12.92ZM106.585 12.0822L106.945 14.2722L108.918 13.9478L108.558 11.7578L106.585 12.0822ZM107.931 15.11H108.051V13.11H107.931V15.11ZM108.872 14.6811C109.143 14.2923 109.466 13.9342 109.845 13.6068L108.538 12.0932C108.037 12.5258 107.6 13.0077 107.23 13.5389L108.872 14.6811ZM109.828 13.621C110.189 13.3226 110.625 13.0774 111.146 12.8924L110.477 11.0076C109.758 11.2626 109.113 11.6174 108.554 12.079L109.828 13.621ZM111.136 12.8957C111.648 12.7199 112.283 12.62 113.061 12.62V10.62C112.119 10.62 111.255 10.7401 110.486 11.0043L111.136 12.8957ZM112.581 12.84C111.381 12.84 110.305 13.0723 109.434 13.6263L110.508 15.3137C110.958 15.0277 111.622 14.84 112.581 14.84V12.84ZM109.453 13.6148C108.573 14.1479 107.959 14.9526 107.592 15.9564L109.47 16.6436C109.703 16.0074 110.049 15.5921 110.49 15.3252L109.453 13.6148ZM107.592 15.9564C107.241 16.9169 107.073 18.0775 107.051 19.4041L109.051 19.4359C109.07 18.2425 109.222 17.3231 109.47 16.6436L107.592 15.9564ZM107.051 19.42V19.93H109.051V19.42H107.051ZM107.051 19.93C107.051 21.3147 107.197 22.539 107.515 23.5812L109.428 22.9988C109.185 22.201 109.051 21.1853 109.051 19.93H107.051ZM107.515 23.5812C107.846 24.6708 108.427 25.5691 109.293 26.1987L110.47 24.5813C110.015 24.2509 109.656 23.7492 109.428 22.9988L107.515 23.5812ZM109.305 26.207C110.208 26.8447 111.354 27.11 112.641 27.11V25.11C111.609 25.11 110.915 24.8953 110.458 24.573L109.305 26.207ZM112.641 27.11C113.814 27.11 114.862 26.782 115.698 26.0541L114.385 24.5459C113.98 24.898 113.429 25.11 112.641 25.11V27.11ZM115.686 26.0643C116.489 25.3866 117.054 24.4889 117.402 23.42L115.501 22.8C115.249 23.5711 114.873 24.1334 114.396 24.5357L115.686 26.0643ZM117.398 23.4323C117.76 22.3694 117.931 21.1875 117.931 19.9H115.931C115.931 21.0125 115.783 21.9706 115.505 22.7877L117.398 23.4323ZM117.931 19.9C117.931 17.9402 117.549 16.258 116.688 14.9423L115.015 16.0377C115.593 16.922 115.931 18.1798 115.931 19.9H117.931ZM116.695 14.9531C115.784 13.5215 114.349 12.84 112.581 12.84V14.84C113.774 14.84 114.519 15.2585 115.008 16.0269L116.695 14.9531ZM135.898 18.31L135.216 17.5789L135.898 18.31ZM133.588 19.45L133.38 18.4719L132.588 18.6404V19.45H133.588ZM133.588 19.57H132.588V20.4398L133.45 20.5603L133.588 19.57ZM136.198 20.65L135.581 21.4371L135.588 21.4423L135.595 21.4474L136.198 20.65ZM136.918 25.18L136.006 24.7709L136 24.7842L135.994 24.7976L136.918 25.18ZM133.768 27.67L134.027 28.6358L134.038 28.6329L134.049 28.6297L133.768 27.67ZM123.868 28H122.868V29H123.868V28ZM123.868 11.92V10.92H122.868V11.92H123.868ZM133.828 12.31L133.551 13.2707L133.563 13.2743L133.576 13.2776L133.828 12.31ZM135.988 13.57L135.233 14.2249L135.244 14.2384L135.256 14.2514L135.988 13.57ZM133.528 21.31L133.032 22.1782L133.032 22.1782L133.528 21.31ZM126.508 20.71V19.71H125.508V20.71H126.508ZM126.508 25.87H125.508V26.87H126.508V25.87ZM133.528 25.3L134.005 26.1789L134.015 26.1737L134.024 26.1682L133.528 25.3ZM133.288 14.65L132.734 15.482L132.751 15.4938L132.769 15.5048L133.288 14.65ZM126.508 14.11V13.11H125.508V14.11H126.508ZM126.508 18.52H125.508V19.52H126.508V18.52ZM133.108 17.98L132.64 17.0962L132.64 17.0962L133.108 17.98ZM135.798 15.97C135.798 16.758 135.57 17.2484 135.216 17.5789L136.581 19.0411C137.427 18.2516 137.798 17.182 137.798 15.97H135.798ZM135.216 17.5789C134.77 17.9953 134.173 18.3031 133.38 18.4719L133.796 20.4281C134.883 20.1969 135.827 19.7447 136.581 19.0411L135.216 17.5789ZM132.588 19.45V19.57H134.588V19.45H132.588ZM133.45 20.5603C134.289 20.6778 134.99 20.9738 135.581 21.4371L136.815 19.8629C135.926 19.1662 134.888 18.7422 133.727 18.5797L133.45 20.5603ZM135.595 21.4474C136.015 21.765 136.308 22.3027 136.308 23.29H138.308C138.308 21.8773 137.862 20.655 136.802 19.8526L135.595 21.4474ZM136.308 23.29C136.308 23.839 136.204 24.3284 136.006 24.7709L137.831 25.5891C138.153 24.8716 138.308 24.101 138.308 23.29H136.308ZM135.994 24.7976C135.822 25.2131 135.549 25.5801 135.15 25.9021L136.407 27.4579C137.048 26.9399 137.534 26.3069 137.842 25.5624L135.994 24.7976ZM135.15 25.9021C134.757 26.2195 134.215 26.4974 133.487 26.7103L134.049 28.6297C134.962 28.3626 135.76 27.9805 136.407 27.4579L135.15 25.9021ZM133.509 26.7042C132.798 26.8949 131.9 27 130.798 27V29C132.016 29 133.099 28.8851 134.027 28.6358L133.509 26.7042ZM130.798 27H123.868V29H130.798V27ZM124.868 28V11.92H122.868V28H124.868ZM123.868 12.92H130.768V10.92H123.868V12.92ZM130.768 12.92C131.834 12.92 132.758 13.0417 133.551 13.2707L134.106 11.3493C133.099 11.0583 131.983 10.92 130.768 10.92V12.92ZM133.576 13.2776C134.34 13.4769 134.869 13.8057 135.233 14.2249L136.744 12.9151C136.067 12.1343 135.157 11.6231 134.081 11.3424L133.576 13.2776ZM135.256 14.2514C135.579 14.5979 135.798 15.1277 135.798 15.97H137.798C137.798 14.7723 137.478 13.7021 136.72 12.8886L135.256 14.2514ZM135.578 23.29C135.578 22.072 135.086 21.0481 134.024 20.4418L133.032 22.1782C133.371 22.3719 133.578 22.668 133.578 23.29H135.578ZM134.024 20.4418C133.103 19.915 131.867 19.71 130.438 19.71V21.71C131.73 21.71 132.554 21.905 133.032 22.1782L134.024 20.4418ZM130.438 19.71H126.508V21.71H130.438V19.71ZM125.508 20.71V25.87H127.508V20.71H125.508ZM126.508 26.87H130.498V24.87H126.508V26.87ZM130.498 26.87C131.888 26.87 133.093 26.6744 134.005 26.1789L133.051 24.4211C132.564 24.6856 131.749 24.87 130.498 24.87V26.87ZM134.024 26.1682C135.093 25.5575 135.578 24.5178 135.578 23.29H133.578C133.578 23.9422 133.363 24.2425 133.032 24.4318L134.024 26.1682ZM135.128 16.3C135.128 15.2567 134.718 14.3484 133.807 13.7952L132.769 15.5048C132.978 15.6316 133.128 15.8233 133.128 16.3H135.128ZM133.843 13.8179C133.047 13.2869 131.904 13.11 130.618 13.11V15.11C131.813 15.11 132.45 15.2931 132.734 15.482L133.843 13.8179ZM130.618 13.11H126.508V15.11H130.618V13.11ZM125.508 14.11V18.52H127.508V14.11H125.508ZM126.508 19.52H130.138V17.52H126.508V19.52ZM130.138 19.52C131.503 19.52 132.685 19.3357 133.576 18.8638L132.64 17.0962C132.172 17.3443 131.374 17.52 130.138 17.52V19.52ZM133.576 18.8638C134.048 18.6142 134.449 18.2684 134.728 17.809C135.007 17.3489 135.128 16.8333 135.128 16.3H133.128C133.128 16.5267 133.079 16.6711 133.019 16.771C132.957 16.8716 132.849 16.9858 132.64 17.0962L133.576 18.8638ZM141.154 28H140.154V29H141.154V28ZM141.154 11.92V10.92H140.154V11.92H141.154ZM143.794 11.92H144.794V10.92H143.794V11.92ZM143.794 18.52H142.794V19.52H143.794V18.52ZM151.414 19.03L151.767 18.0945L151.767 18.0945L151.414 19.03ZM153.424 20.56L152.584 21.1033L152.591 21.1147L153.424 20.56ZM153.424 25.69L152.564 25.1789L152.559 25.1876L152.554 25.1964L153.424 25.69ZM151.414 27.4L151.015 26.4829L151.007 26.4862L151.414 27.4ZM150.394 25.3L150.86 26.1844L150.87 26.1794L150.879 26.1742L150.394 25.3ZM150.484 21.25L150.005 22.1279L150.015 22.1336L150.026 22.139L150.484 21.25ZM143.794 20.71V19.71H142.794V20.71H143.794ZM143.794 25.87H142.794V26.87H143.794V25.87ZM156.754 28H155.754V29H156.754V28ZM156.754 11.92V10.92H155.754V11.92H156.754ZM159.394 11.92H160.394V10.92H159.394V11.92ZM159.394 28V29H160.394V28H159.394ZM142.154 28V11.92H140.154V28H142.154ZM141.154 12.92H143.794V10.92H141.154V12.92ZM142.794 11.92V18.52H144.794V11.92H142.794ZM143.794 19.52H147.964V17.52H143.794V19.52ZM147.964 19.52C149.293 19.52 150.312 19.6828 151.06 19.9655L151.767 18.0945C150.715 17.6972 149.434 17.52 147.964 17.52V19.52ZM151.06 19.9655C151.799 20.2446 152.281 20.6344 152.584 21.1033L154.263 20.0167C153.686 19.1256 152.828 18.4954 151.767 18.0945L151.06 19.9655ZM152.591 21.1147C152.895 21.5693 153.084 22.2014 153.084 23.08H155.084C155.084 21.9186 154.832 20.8707 154.256 20.0053L152.591 21.1147ZM153.084 23.08C153.084 23.9296 152.898 24.617 152.564 25.1789L154.283 26.2011C154.829 25.283 155.084 24.2304 155.084 23.08H153.084ZM152.554 25.1964C152.259 25.7158 151.773 26.1533 151.015 26.4829L151.812 28.3171C152.894 27.8467 153.748 27.1442 154.293 26.1836L152.554 25.1964ZM151.007 26.4862C150.283 26.8082 149.247 27 147.844 27V29C149.4 29 150.744 28.7918 151.82 28.3138L151.007 26.4862ZM147.844 27H141.154V29H147.844V27ZM147.604 26.87C148.845 26.87 149.95 26.6646 150.86 26.1844L149.927 24.4156C149.397 24.6954 148.642 24.87 147.604 24.87V26.87ZM150.879 26.1742C151.983 25.5612 152.474 24.4909 152.474 23.23H150.474C150.474 23.9291 150.245 24.2388 149.908 24.4258L150.879 26.1742ZM152.474 23.23C152.474 22.0154 152.043 20.9283 150.941 20.361L150.026 22.139C150.244 22.2517 150.474 22.4846 150.474 23.23H152.474ZM150.962 20.3721C150.089 19.8959 148.944 19.71 147.634 19.71V21.71C148.803 21.71 149.558 21.8841 150.005 22.1279L150.962 20.3721ZM147.634 19.71H143.794V21.71H147.634V19.71ZM142.794 20.71V25.87H144.794V20.71H142.794ZM143.794 26.87H147.604V24.87H143.794V26.87ZM157.754 28V11.92H155.754V28H157.754ZM156.754 12.92H159.394V10.92H156.754V12.92ZM158.394 11.92V28H160.394V11.92H158.394ZM159.394 27H156.754V29H159.394V27ZM177.523 5.26L178.52 5.33974L178.606 4.26H177.523V5.26ZM176.773 7.78L175.922 7.25451L175.917 7.26368L175.911 7.27298L176.773 7.78ZM174.973 9.31L174.582 8.38967L174.582 8.38967L174.973 9.31ZM168.703 9.31L168.304 10.2267L168.312 10.2303L168.703 9.31ZM166.993 7.81L166.109 8.27792L166.115 8.28885L166.993 7.81ZM166.333 5.26V4.26H165.252L165.336 5.33819L166.333 5.26ZM168.793 5.26L169.789 5.1678L169.705 4.26H168.793V5.26ZM169.633 7.45L168.996 8.22096L169.014 8.23591L169.033 8.25L169.633 7.45ZM174.073 7.42L174.663 8.22741L174.668 8.22356L174.073 7.42ZM175.033 5.26V4.26H174.125L174.038 5.16429L175.033 5.26ZM166.963 22.51L165.965 22.4513L165.963 22.4806V22.51H166.963ZM166.933 23.56L167.932 23.6155L167.932 23.6126L166.933 23.56ZM166.873 24.61L167.871 24.6724L167.871 24.6687L166.873 24.61ZM166.813 25.39L165.818 25.2905L167.656 25.9286L166.813 25.39ZM175.423 11.92V10.92H174.875L174.581 11.3814L175.423 11.92ZM178.663 11.92H179.663V10.92H178.663V11.92ZM178.663 28V29H179.663V28H178.663ZM176.203 28H175.203V29H176.203V28ZM176.203 17.26L175.204 17.2216L175.203 17.2408V17.26H176.203ZM176.263 15.73L177.262 15.77L177.262 15.7684L176.263 15.73ZM176.323 14.56L177.32 14.6367L175.479 14.0232L176.323 14.56ZM167.773 28V29H168.322L168.617 28.5368L167.773 28ZM164.503 28H163.503V29H164.503V28ZM164.503 11.92V10.92H163.503V11.92H164.503ZM166.993 11.92H167.993V10.92H166.993V11.92ZM176.526 5.18025C176.456 6.06162 176.24 6.73945 175.922 7.25451L177.624 8.30549C178.146 7.46055 178.43 6.45838 178.52 5.33974L176.526 5.18025ZM175.911 7.27298C175.631 7.74947 175.206 8.12447 174.582 8.38967L175.364 10.2303C176.34 9.81553 177.115 9.17052 177.635 8.28702L175.911 7.27298ZM174.582 8.38967C173.95 8.65837 173.057 8.82 171.853 8.82V10.82C173.21 10.82 174.397 10.6416 175.364 10.2303L174.582 8.38967ZM171.853 8.82C170.627 8.82 169.725 8.65772 169.094 8.38967L168.312 10.2303C169.281 10.6423 170.479 10.82 171.853 10.82V8.82ZM169.103 8.3933C168.498 8.12977 168.111 7.77072 167.871 7.33115L166.115 8.28885C166.595 9.16928 167.348 9.81023 168.304 10.2267L169.103 8.3933ZM167.877 7.34211C167.598 6.81569 167.403 6.10815 167.33 5.18181L165.336 5.33819C165.424 6.45185 165.668 7.4443 166.109 8.27789L167.877 7.34211ZM166.333 6.26H168.793V4.26H166.333V6.26ZM167.797 5.3522C167.904 6.50004 168.217 7.57723 168.996 8.22096L170.27 6.67904C170.129 6.56277 169.883 6.17996 169.789 5.1678L167.797 5.3522ZM169.033 8.25C169.773 8.80488 170.799 8.99 171.913 8.99V6.99C170.948 6.99 170.453 6.81512 170.233 6.65L169.033 8.25ZM171.913 8.99C172.957 8.99 173.913 8.77594 174.663 8.22739L173.483 6.61261C173.194 6.82406 172.709 6.99 171.913 6.99V8.99ZM174.668 8.22356C175.537 7.58044 175.916 6.52284 176.029 5.35571L174.038 5.16429C173.95 6.07716 173.69 6.45956 173.478 6.61644L174.668 8.22356ZM175.033 6.26H177.523V4.26H175.033V6.26ZM165.993 21.73C165.993 21.8802 165.985 22.1169 165.965 22.4513L167.961 22.5687C167.982 22.2231 167.993 21.9398 167.993 21.73H165.993ZM165.963 22.51C165.963 22.8096 165.954 23.1418 165.935 23.5074L167.932 23.6126C167.952 23.2182 167.963 22.8504 167.963 22.51H165.963ZM165.935 23.5045C165.915 23.8635 165.895 24.2124 165.875 24.5513L167.871 24.6687C167.891 24.3276 167.912 23.9765 167.932 23.6155L165.935 23.5045ZM165.875 24.5476C165.855 24.8616 165.836 25.1079 165.818 25.2905L167.808 25.4895C167.83 25.2721 167.851 24.9984 167.871 24.6724L165.875 24.5476ZM167.656 25.9286L176.266 12.4586L174.581 11.3814L165.971 24.8514L167.656 25.9286ZM175.423 12.92H178.663V10.92H175.423V12.92ZM177.663 11.92V28H179.663V11.92H177.663ZM178.663 27H176.203V29H178.663V27ZM177.203 28V18.52H175.203V28H177.203ZM177.203 18.52C177.203 18.5194 177.203 18.5187 177.203 18.5181C177.203 18.5175 177.203 18.5169 177.203 18.5162C177.203 18.5156 177.203 18.515 177.203 18.5144C177.203 18.5137 177.203 18.5131 177.203 18.5125C177.203 18.5119 177.203 18.5112 177.203 18.5106C177.203 18.51 177.203 18.5093 177.203 18.5087C177.203 18.5081 177.203 18.5074 177.203 18.5068C177.203 18.5062 177.203 18.5056 177.203 18.5049C177.203 18.5043 177.203 18.5037 177.203 18.503C177.203 18.5024 177.203 18.5018 177.203 18.5011C177.203 18.5005 177.203 18.4999 177.203 18.4992C177.203 18.4986 177.203 18.498 177.203 18.4973C177.203 18.4967 177.203 18.4961 177.203 18.4954C177.203 18.4948 177.203 18.4942 177.203 18.4935C177.203 18.4929 177.203 18.4923 177.203 18.4916C177.203 18.491 177.203 18.4903 177.203 18.4897C177.203 18.4891 177.203 18.4884 177.203 18.4878C177.203 18.4872 177.203 18.4865 177.203 18.4859C177.203 18.4852 177.203 18.4846 177.203 18.484C177.203 18.4833 177.203 18.4827 177.203 18.482C177.203 18.4814 177.203 18.4808 177.203 18.4801C177.203 18.4795 177.203 18.4788 177.203 18.4782C177.203 18.4776 177.203 18.4769 177.203 18.4763C177.203 18.4756 177.203 18.475 177.203 18.4743C177.203 18.4737 177.203 18.4731 177.203 18.4724C177.203 18.4718 177.203 18.4711 177.203 18.4705C177.203 18.4698 177.203 18.4692 177.203 18.4685C177.203 18.4679 177.203 18.4672 177.203 18.4666C177.203 18.466 177.203 18.4653 177.203 18.4647C177.203 18.464 177.203 18.4634 177.203 18.4627C177.203 18.4621 177.203 18.4614 177.203 18.4608C177.203 18.4601 177.203 18.4595 177.203 18.4588C177.203 18.4582 177.203 18.4575 177.203 18.4569C177.203 18.4562 177.203 18.4556 177.203 18.4549C177.203 18.4543 177.203 18.4536 177.203 18.453C177.203 18.4523 177.203 18.4517 177.203 18.451C177.203 18.4504 177.203 18.4497 177.203 18.4491C177.203 18.4484 177.203 18.4478 177.203 18.4471C177.203 18.4464 177.203 18.4458 177.203 18.4451C177.203 18.4445 177.203 18.4438 177.203 18.4432C177.203 18.4425 177.203 18.4419 177.203 18.4412C177.203 18.4405 177.203 18.4399 177.203 18.4392C177.203 18.4386 177.203 18.4379 177.203 18.4373C177.203 18.4366 177.203 18.4359 177.203 18.4353C177.203 18.4346 177.203 18.434 177.203 18.4333C177.203 18.4326 177.203 18.432 177.203 18.4313C177.203 18.4307 177.203 18.43 177.203 18.4293C177.203 18.4287 177.203 18.428 177.203 18.4274C177.203 18.4267 177.203 18.426 177.203 18.4254C177.203 18.4247 177.203 18.4241 177.203 18.4234C177.203 18.4227 177.203 18.4221 177.203 18.4214C177.203 18.4207 177.203 18.4201 177.203 18.4194C177.203 18.4187 177.203 18.4181 177.203 18.4174C177.203 18.4167 177.203 18.4161 177.203 18.4154C177.203 18.4147 177.203 18.4141 177.203 18.4134C177.203 18.4127 177.203 18.4121 177.203 18.4114C177.203 18.4107 177.203 18.4101 177.203 18.4094C177.203 18.4087 177.203 18.4081 177.203 18.4074C177.203 18.4067 177.203 18.4061 177.203 18.4054C177.203 18.4047 177.203 18.4041 177.203 18.4034C177.203 18.4027 177.203 18.402 177.203 18.4014C177.203 18.4007 177.203 18.4 177.203 18.3994C177.203 18.3987 177.203 18.398 177.203 18.3973C177.203 18.3967 177.203 18.396 177.203 18.3953C177.203 18.3946 177.203 18.394 177.203 18.3933C177.203 18.3926 177.203 18.3919 177.203 18.3913C177.203 18.3906 177.203 18.3899 177.203 18.3892C177.203 18.3886 177.203 18.3879 177.203 18.3872C177.203 18.3865 177.203 18.3859 177.203 18.3852C177.203 18.3845 177.203 18.3838 177.203 18.3831C177.203 18.3825 177.203 18.3818 177.203 18.3811C177.203 18.3804 177.203 18.3797 177.203 18.3791C177.203 18.3784 177.203 18.3777 177.203 18.377C177.203 18.3763 177.203 18.3757 177.203 18.375C177.203 18.3743 177.203 18.3736 177.203 18.3729C177.203 18.3723 177.203 18.3716 177.203 18.3709C177.203 18.3702 177.203 18.3695 177.203 18.3688C177.203 18.3682 177.203 18.3675 177.203 18.3668C177.203 18.3661 177.203 18.3654 177.203 18.3647C177.203 18.364 177.203 18.3634 177.203 18.3627C177.203 18.362 177.203 18.3613 177.203 18.3606C177.203 18.3599 177.203 18.3592 177.203 18.3586C177.203 18.3579 177.203 18.3572 177.203 18.3565C177.203 18.3558 177.203 18.3551 177.203 18.3544C177.203 18.3537 177.203 18.353 177.203 18.3524C177.203 18.3517 177.203 18.351 177.203 18.3503C177.203 18.3496 177.203 18.3489 177.203 18.3482C177.203 18.3475 177.203 18.3468 177.203 18.3461C177.203 18.3454 177.203 18.3448 177.203 18.3441C177.203 18.3434 177.203 18.3427 177.203 18.342C177.203 18.3413 177.203 18.3406 177.203 18.3399C177.203 18.3392 177.203 18.3385 177.203 18.3378C177.203 18.3371 177.203 18.3364 177.203 18.3357C177.203 18.335 177.203 18.3343 177.203 18.3336C177.203 18.3329 177.203 18.3322 177.203 18.3315C177.203 18.3308 177.203 18.3302 177.203 18.3295C177.203 18.3288 177.203 18.3281 177.203 18.3274C177.203 18.3267 177.203 18.326 177.203 18.3253C177.203 18.3246 177.203 18.3239 177.203 18.3232C177.203 18.3225 177.203 18.3218 177.203 18.3211C177.203 18.3204 177.203 18.3197 177.203 18.319C177.203 18.3182 177.203 18.3175 177.203 18.3168C177.203 18.3161 177.203 18.3154 177.203 18.3147C177.203 18.314 177.203 18.3133 177.203 18.3126C177.203 18.3119 177.203 18.3112 177.203 18.3105C177.203 18.3098 177.203 18.3091 177.203 18.3084C177.203 18.3077 177.203 18.307 177.203 18.3063C177.203 18.3056 177.203 18.3049 177.203 18.3042C177.203 18.3034 177.203 18.3027 177.203 18.302C177.203 18.3013 177.203 18.3006 177.203 18.2999C177.203 18.2992 177.203 18.2985 177.203 18.2978C177.203 18.2971 177.203 18.2964 177.203 18.2956C177.203 18.2949 177.203 18.2942 177.203 18.2935C177.203 18.2928 177.203 18.2921 177.203 18.2914C177.203 18.2907 177.203 18.29 177.203 18.2892C177.203 18.2885 177.203 18.2878 177.203 18.2871C177.203 18.2864 177.203 18.2857 177.203 18.285C177.203 18.2842 177.203 18.2835 177.203 18.2828C177.203 18.2821 177.203 18.2814 177.203 18.2807C177.203 18.28 177.203 18.2792 177.203 18.2785C177.203 18.2778 177.203 18.2771 177.203 18.2764C177.203 18.2757 177.203 18.2749 177.203 18.2742C177.203 18.2735 177.203 18.2728 177.203 18.2721C177.203 18.2713 177.203 18.2706 177.203 18.2699C177.203 18.2692 177.203 18.2685 177.203 18.2677C177.203 18.267 177.203 18.2663 177.203 18.2656C177.203 18.2649 177.203 18.2641 177.203 18.2634C177.203 18.2627 177.203 18.262 177.203 18.2612C177.203 18.2605 177.203 18.2598 177.203 18.2591C177.203 18.2584 177.203 18.2576 177.203 18.2569C177.203 18.2562 177.203 18.2555 177.203 18.2547C177.203 18.254 177.203 18.2533 177.203 18.2526C177.203 18.2518 177.203 18.2511 177.203 18.2504C177.203 18.2497 177.203 18.2489 177.203 18.2482C177.203 18.2475 177.203 18.2467 177.203 18.246C177.203 18.2453 177.203 18.2446 177.203 18.2438C177.203 18.2431 177.203 18.2424 177.203 18.2416C177.203 18.2409 177.203 18.2402 177.203 18.2395C177.203 18.2387 177.203 18.238 177.203 18.2373C177.203 18.2365 177.203 18.2358 177.203 18.2351C177.203 18.2343 177.203 18.2336 177.203 18.2329C177.203 18.2321 177.203 18.2314 177.203 18.2307C177.203 18.2299 177.203 18.2292 177.203 18.2285C177.203 18.2277 177.203 18.227 177.203 18.2263C177.203 18.2255 177.203 18.2248 177.203 18.2241C177.203 18.2233 177.203 18.2226 177.203 18.2219C177.203 18.2211 177.203 18.2204 177.203 18.2196C177.203 18.2189 177.203 18.2182 177.203 18.2174C177.203 18.2167 177.203 18.216 177.203 18.2152C177.203 18.2145 177.203 18.2137 177.203 18.213C177.203 18.2123 177.203 18.2115 177.203 18.2108C177.203 18.21 177.203 18.2093 177.203 18.2086C177.203 18.2078 177.203 18.2071 177.203 18.2063C177.203 18.2056 177.203 18.2049 177.203 18.2041C177.203 18.2034 177.203 18.2026 177.203 18.2019C177.203 18.2011 177.203 18.2004 177.203 18.1996C177.203 18.1989 177.203 18.1982 177.203 18.1974C177.203 18.1967 177.203 18.1959 177.203 18.1952C177.203 18.1944 177.203 18.1937 177.203 18.1929C177.203 18.1922 177.203 18.1914 177.203 18.1907C177.203 18.19 177.203 18.1892 177.203 18.1885C177.203 18.1877 177.203 18.187 177.203 18.1862C177.203 18.1855 177.203 18.1847 177.203 18.184C177.203 18.1832 177.203 18.1825 177.203 18.1817C177.203 18.181 177.203 18.1802 177.203 18.1795C177.203 18.1787 177.203 18.178 177.203 18.1772C177.203 18.1765 177.203 18.1757 177.203 18.175C177.203 18.1742 177.203 18.1735 177.203 18.1727C177.203 18.1719 177.203 18.1712 177.203 18.1704C177.203 18.1697 177.203 18.1689 177.203 18.1682C177.203 18.1674 177.203 18.1667 177.203 18.1659C177.203 18.1652 177.203 18.1644 177.203 18.1636C177.203 18.1629 177.203 18.1621 177.203 18.1614C177.203 18.1606 177.203 18.1599 177.203 18.1591C177.203 18.1583 177.203 18.1576 177.203 18.1568C177.203 18.1561 177.203 18.1553 177.203 18.1546C177.203 18.1538 177.203 18.153 177.203 18.1523C177.203 18.1515 177.203 18.1508 177.203 18.15C177.203 18.1492 177.203 18.1485 177.203 18.1477C177.203 18.1469 177.203 18.1462 177.203 18.1454C177.203 18.1447 177.203 18.1439 177.203 18.1431C177.203 18.1424 177.203 18.1416 177.203 18.1408C177.203 18.1401 177.203 18.1393 177.203 18.1385C177.203 18.1378 177.203 18.137 177.203 18.1363C177.203 18.1355 177.203 18.1347 177.203 18.134C177.203 18.1332 177.203 18.1324 177.203 18.1317C177.203 18.1309 177.203 18.1301 177.203 18.1294C177.203 18.1286 177.203 18.1278 177.203 18.1271C177.203 18.1263 177.203 18.1255 177.203 18.1247C177.203 18.124 177.203 18.1232 177.203 18.1224C177.203 18.1217 177.203 18.1209 177.203 18.1201C177.203 18.1194 177.203 18.1186 177.203 18.1178C177.203 18.117 177.203 18.1163 177.203 18.1155C177.203 18.1147 177.203 18.114 177.203 18.1132C177.203 18.1124 177.203 18.1116 177.203 18.1109C177.203 18.1101 177.203 18.1093 177.203 18.1085C177.203 18.1078 177.203 18.107 177.203 18.1062C177.203 18.1054 177.203 18.1047 177.203 18.1039C177.203 18.1031 177.203 18.1023 177.203 18.1016C177.203 18.1008 177.203 18.1 177.203 18.0992C177.203 18.0984 177.203 18.0977 177.203 18.0969C177.203 18.0961 177.203 18.0953 177.203 18.0946C177.203 18.0938 177.203 18.093 177.203 18.0922C177.203 18.0914 177.203 18.0907 177.203 18.0899C177.203 18.0891 177.203 18.0883 177.203 18.0875C177.203 18.0867 177.203 18.086 177.203 18.0852C177.203 18.0844 177.203 18.0836 177.203 18.0828C177.203 18.0821 177.203 18.0813 177.203 18.0805C177.203 18.0797 177.203 18.0789 177.203 18.0781C177.203 18.0774 177.203 18.0766 177.203 18.0758C177.203 18.075 177.203 18.0742 177.203 18.0734C177.203 18.0726 177.203 18.0719 177.203 18.0711C177.203 18.0703 177.203 18.0695 177.203 18.0687C177.203 18.0679 177.203 18.0671 177.203 18.0663C177.203 18.0656 177.203 18.0648 177.203 18.064C177.203 18.0632 177.203 18.0624 177.203 18.0616C177.203 18.0608 177.203 18.06 177.203 18.0592C177.203 18.0584 177.203 18.0577 177.203 18.0569C177.203 18.0561 177.203 18.0553 177.203 18.0545C177.203 18.0537 177.203 18.0529 177.203 18.0521C177.203 18.0513 177.203 18.0505 177.203 18.0497C177.203 18.0489 177.203 18.0481 177.203 18.0473C177.203 18.0466 177.203 18.0458 177.203 18.045C177.203 18.0442 177.203 18.0434 177.203 18.0426C177.203 18.0418 177.203 18.041 177.203 18.0402C177.203 18.0394 177.203 18.0386 177.203 18.0378C177.203 18.037 177.203 18.0362 177.203 18.0354C177.203 18.0346 177.203 18.0338 177.203 18.033C177.203 18.0322 177.203 18.0314 177.203 18.0306C177.203 18.0298 177.203 18.029 177.203 18.0282C177.203 18.0274 177.203 18.0266 177.203 18.0258C177.203 18.025 177.203 18.0242 177.203 18.0234C177.203 18.0226 177.203 18.0218 177.203 18.021C177.203 18.0202 177.203 18.0194 177.203 18.0186C177.203 18.0178 177.203 18.017 177.203 18.0162C177.203 18.0154 177.203 18.0146 177.203 18.0138C177.203 18.013 177.203 18.0122 177.203 18.0113C177.203 18.0105 177.203 18.0097 177.203 18.0089C177.203 18.0081 177.203 18.0073 177.203 18.0065C177.203 18.0057 177.203 18.0049 177.203 18.0041C177.203 18.0033 177.203 18.0025 177.203 18.0017C177.203 18.0008 177.203 18 177.203 17.9992C177.203 17.9984 177.203 17.9976 177.203 17.9968C177.203 17.996 177.203 17.9952 177.203 17.9944C177.203 17.9936 177.203 17.9927 177.203 17.9919C177.203 17.9911 177.203 17.9903 177.203 17.9895C177.203 17.9887 177.203 17.9879 177.203 17.9871C177.203 17.9862 177.203 17.9854 177.203 17.9846C177.203 17.9838 177.203 17.983 177.203 17.9822C177.203 17.9814 177.203 17.9805 177.203 17.9797C177.203 17.9789 177.203 17.9781 177.203 17.9773C177.203 17.9765 177.203 17.9756 177.203 17.9748C177.203 17.974 177.203 17.9732 177.203 17.9724C177.203 17.9716 177.203 17.9707 177.203 17.9699C177.203 17.9691 177.203 17.9683 177.203 17.9675C177.203 17.9666 177.203 17.9658 177.203 17.965C177.203 17.9642 177.203 17.9634 177.203 17.9625C177.203 17.9617 177.203 17.9609 177.203 17.9601C177.203 17.9593 177.203 17.9584 177.203 17.9576C177.203 17.9568 177.203 17.956 177.203 17.9551C177.203 17.9543 177.203 17.9535 177.203 17.9527C177.203 17.9518 177.203 17.951 177.203 17.9502C177.203 17.9494 177.203 17.9485 177.203 17.9477C177.203 17.9469 177.203 17.9461 177.203 17.9452C177.203 17.9444 177.203 17.9436 177.203 17.9428C177.203 17.9419 177.203 17.9411 177.203 17.9403C177.203 17.9394 177.203 17.9386 177.203 17.9378C177.203 17.937 177.203 17.9361 177.203 17.9353C177.203 17.9345 177.203 17.9336 177.203 17.9328C177.203 17.932 177.203 17.9312 177.203 17.9303C177.203 17.9295 177.203 17.9287 177.203 17.9278C177.203 17.927 177.203 17.9262 177.203 17.9253C177.203 17.9245 177.203 17.9237 177.203 17.9228C177.203 17.922 177.203 17.9212 177.203 17.9203C177.203 17.9195 177.203 17.9187 177.203 17.9178C177.203 17.917 177.203 17.9162 177.203 17.9153C177.203 17.9145 177.203 17.9137 177.203 17.9128C177.203 17.912 177.203 17.9111 177.203 17.9103C177.203 17.9095 177.203 17.9086 177.203 17.9078C177.203 17.907 177.203 17.9061 177.203 17.9053C177.203 17.9044 177.203 17.9036 177.203 17.9028C177.203 17.9019 177.203 17.9011 177.203 17.9002C177.203 17.8994 177.203 17.8986 177.203 17.8977C177.203 17.8969 177.203 17.896 177.203 17.8952C177.203 17.8944 177.203 17.8935 177.203 17.8927C177.203 17.8918 177.203 17.891 177.203 17.8901C177.203 17.8893 177.203 17.8885 177.203 17.8876C177.203 17.8868 177.203 17.8859 177.203 17.8851C177.203 17.8842 177.203 17.8834 177.203 17.8825C177.203 17.8817 177.203 17.8809 177.203 17.88C177.203 17.8792 177.203 17.8783 177.203 17.8775C177.203 17.8766 177.203 17.8758 177.203 17.8749C177.203 17.8741 177.203 17.8732 177.203 17.8724C177.203 17.8715 177.203 17.8707 177.203 17.8698C177.203 17.869 177.203 17.8681 177.203 17.8673C177.203 17.8664 177.203 17.8656 177.203 17.8647C177.203 17.8639 177.203 17.863 177.203 17.8622C177.203 17.8613 177.203 17.8605 177.203 17.8596C177.203 17.8588 177.203 17.8579 177.203 17.8571C177.203 17.8562 177.203 17.8554 177.203 17.8545C177.203 17.8536 177.203 17.8528 177.203 17.8519C177.203 17.8511 177.203 17.8502 177.203 17.8494C177.203 17.8485 177.203 17.8477 177.203 17.8468C177.203 17.846 177.203 17.8451 177.203 17.8442C177.203 17.8434 177.203 17.8425 177.203 17.8417C177.203 17.8408 177.203 17.84 177.203 17.8391C177.203 17.8382 177.203 17.8374 177.203 17.8365C177.203 17.8357 177.203 17.8348 177.203 17.8339C177.203 17.8331 177.203 17.8322 177.203 17.8314C177.203 17.8305 177.203 17.8296 177.203 17.8288C177.203 17.8279 177.203 17.827 177.203 17.8262C177.203 17.8253 177.203 17.8245 177.203 17.8236C177.203 17.8227 177.203 17.8219 177.203 17.821C177.203 17.8201 177.203 17.8193 177.203 17.8184C177.203 17.8176 177.203 17.8167 177.203 17.8158C177.203 17.815 177.203 17.8141 177.203 17.8132C177.203 17.8124 177.203 17.8115 177.203 17.8106C177.203 17.8098 177.203 17.8089 177.203 17.808C177.203 17.8072 177.203 17.8063 177.203 17.8054C177.203 17.8045 177.203 17.8037 177.203 17.8028C177.203 17.8019 177.203 17.8011 177.203 17.8002C177.203 17.7993 177.203 17.7985 177.203 17.7976C177.203 17.7967 177.203 17.7959 177.203 17.795C177.203 17.7941 177.203 17.7932 177.203 17.7924C177.203 17.7915 177.203 17.7906 177.203 17.7897C177.203 17.7889 177.203 17.788 177.203 17.7871C177.203 17.7863 177.203 17.7854 177.203 17.7845C177.203 17.7836 177.203 17.7828 177.203 17.7819C177.203 17.781 177.203 17.7801 177.203 17.7793C177.203 17.7784 177.203 17.7775 177.203 17.7766C177.203 17.7757 177.203 17.7749 177.203 17.774C177.203 17.7731 177.203 17.7722 177.203 17.7714C177.203 17.7705 177.203 17.7696 177.203 17.7687C177.203 17.7678 177.203 17.767 177.203 17.7661C177.203 17.7652 177.203 17.7643 177.203 17.7634C177.203 17.7626 177.203 17.7617 177.203 17.7608C177.203 17.7599 177.203 17.759 177.203 17.7582C177.203 17.7573 177.203 17.7564 177.203 17.7555C177.203 17.7546 177.203 17.7537 177.203 17.7529C177.203 17.752 177.203 17.7511 177.203 17.7502C177.203 17.7493 177.203 17.7484 177.203 17.7476C177.203 17.7467 177.203 17.7458 177.203 17.7449C177.203 17.744 177.203 17.7431 177.203 17.7422C177.203 17.7413 177.203 17.7405 177.203 17.7396C177.203 17.7387 177.203 17.7378 177.203 17.7369C177.203 17.736 177.203 17.7351 177.203 17.7342C177.203 17.7334 177.203 17.7325 177.203 17.7316C177.203 17.7307 177.203 17.7298 177.203 17.7289C177.203 17.728 177.203 17.7271 177.203 17.7262C177.203 17.7253 177.203 17.7245 177.203 17.7236C177.203 17.7227 177.203 17.7218 177.203 17.7209C177.203 17.72 177.203 17.7191 177.203 17.7182C177.203 17.7173 177.203 17.7164 177.203 17.7155C177.203 17.7146 177.203 17.7137 177.203 17.7128C177.203 17.7119 177.203 17.711 177.203 17.7102C177.203 17.7093 177.203 17.7084 177.203 17.7075C177.203 17.7066 177.203 17.7057 177.203 17.7048C177.203 17.7039 177.203 17.703 177.203 17.7021C177.203 17.7012 177.203 17.7003 177.203 17.6994C177.203 17.6985 177.203 17.6976 177.203 17.6967C177.203 17.6958 177.203 17.6949 177.203 17.694C177.203 17.6931 177.203 17.6922 177.203 17.6913C177.203 17.6904 177.203 17.6895 177.203 17.6886C177.203 17.6877 177.203 17.6868 177.203 17.6859C177.203 17.685 177.203 17.6841 177.203 17.6832C177.203 17.6823 177.203 17.6814 177.203 17.6804C177.203 17.6795 177.203 17.6786 177.203 17.6777C177.203 17.6768 177.203 17.6759 177.203 17.675C177.203 17.6741 177.203 17.6732 177.203 17.6723C177.203 17.6714 177.203 17.6705 177.203 17.6696C177.203 17.6687 177.203 17.6678 177.203 17.6669C177.203 17.6659 177.203 17.665 177.203 17.6641C177.203 17.6632 177.203 17.6623 177.203 17.6614C177.203 17.6605 177.203 17.6596 177.203 17.6587C177.203 17.6578 177.203 17.6569 177.203 17.6559C177.203 17.655 177.203 17.6541 177.203 17.6532C177.203 17.6523 177.203 17.6514 177.203 17.6505C177.203 17.6496 177.203 17.6486 177.203 17.6477C177.203 17.6468 177.203 17.6459 177.203 17.645C177.203 17.6441 177.203 17.6432 177.203 17.6422C177.203 17.6413 177.203 17.6404 177.203 17.6395C177.203 17.6386 177.203 17.6377 177.203 17.6368C177.203 17.6358 177.203 17.6349 177.203 17.634C177.203 17.6331 177.203 17.6322 177.203 17.6312C177.203 17.6303 177.203 17.6294 177.203 17.6285C177.203 17.6276 177.203 17.6267 177.203 17.6257C177.203 17.6248 177.203 17.6239 177.203 17.623C177.203 17.6221 177.203 17.6211 177.203 17.6202C177.203 17.6193 177.203 17.6184 177.203 17.6175C177.203 17.6165 177.203 17.6156 177.203 17.6147C177.203 17.6138 177.203 17.6128 177.203 17.6119C177.203 17.611 177.203 17.6101 177.203 17.6091C177.203 17.6082 177.203 17.6073 177.203 17.6064C177.203 17.6054 177.203 17.6045 177.203 17.6036C177.203 17.6027 177.203 17.6017 177.203 17.6008C177.203 17.5999 177.203 17.599 177.203 17.598C177.203 17.5971 177.203 17.5962 177.203 17.5953C177.203 17.5943 177.203 17.5934 177.203 17.5925C177.203 17.5915 177.203 17.5906 177.203 17.5897C177.203 17.5888 177.203 17.5878 177.203 17.5869C177.203 17.586 177.203 17.585 177.203 17.5841C177.203 17.5832 177.203 17.5822 177.203 17.5813C177.203 17.5804 177.203 17.5794 177.203 17.5785C177.203 17.5776 177.203 17.5766 177.203 17.5757C177.203 17.5748 177.203 17.5738 177.203 17.5729C177.203 17.572 177.203 17.571 177.203 17.5701C177.203 17.5692 177.203 17.5682 177.203 17.5673C177.203 17.5664 177.203 17.5654 177.203 17.5645C177.203 17.5636 177.203 17.5626 177.203 17.5617C177.203 17.5607 177.203 17.5598 177.203 17.5589C177.203 17.5579 177.203 17.557 177.203 17.5561C177.203 17.5551 177.203 17.5542 177.203 17.5532C177.203 17.5523 177.203 17.5514 177.203 17.5504C177.203 17.5495 177.203 17.5485 177.203 17.5476C177.203 17.5467 177.203 17.5457 177.203 17.5448C177.203 17.5438 177.203 17.5429 177.203 17.542C177.203 17.541 177.203 17.5401 177.203 17.5391C177.203 17.5382 177.203 17.5372 177.203 17.5363C177.203 17.5353 177.203 17.5344 177.203 17.5335C177.203 17.5325 177.203 17.5316 177.203 17.5306C177.203 17.5297 177.203 17.5287 177.203 17.5278C177.203 17.5268 177.203 17.5259 177.203 17.5249C177.203 17.524 177.203 17.5231 177.203 17.5221C177.203 17.5212 177.203 17.5202 177.203 17.5193C177.203 17.5183 177.203 17.5174 177.203 17.5164C177.203 17.5155 177.203 17.5145 177.203 17.5136C177.203 17.5126 177.203 17.5117 177.203 17.5107C177.203 17.5098 177.203 17.5088 177.203 17.5079C177.203 17.5069 177.203 17.506 177.203 17.505C177.203 17.5041 177.203 17.5031 177.203 17.5021C177.203 17.5012 177.203 17.5002 177.203 17.4993C177.203 17.4983 177.203 17.4974 177.203 17.4964C177.203 17.4955 177.203 17.4945 177.203 17.4936C177.203 17.4926 177.203 17.4916 177.203 17.4907C177.203 17.4897 177.203 17.4888 177.203 17.4878C177.203 17.4869 177.203 17.4859 177.203 17.485C177.203 17.484 177.203 17.483 177.203 17.4821C177.203 17.4811 177.203 17.4802 177.203 17.4792C177.203 17.4782 177.203 17.4773 177.203 17.4763C177.203 17.4754 177.203 17.4744 177.203 17.4734C177.203 17.4725 177.203 17.4715 177.203 17.4706C177.203 17.4696 177.203 17.4686 177.203 17.4677C177.203 17.4667 177.203 17.4657 177.203 17.4648C177.203 17.4638 177.203 17.4629 177.203 17.4619C177.203 17.4609 177.203 17.46 177.203 17.459C177.203 17.458 177.203 17.4571 177.203 17.4561C177.203 17.4551 177.203 17.4542 177.203 17.4532C177.203 17.4522 177.203 17.4513 177.203 17.4503C177.203 17.4493 177.203 17.4484 177.203 17.4474C177.203 17.4464 177.203 17.4455 177.203 17.4445C177.203 17.4435 177.203 17.4426 177.203 17.4416C177.203 17.4406 177.203 17.4397 177.203 17.4387C177.203 17.4377 177.203 17.4368 177.203 17.4358C177.203 17.4348 177.203 17.4338 177.203 17.4329C177.203 17.4319 177.203 17.4309 177.203 17.43C177.203 17.429 177.203 17.428 177.203 17.427C177.203 17.4261 177.203 17.4251 177.203 17.4241C177.203 17.4231 177.203 17.4222 177.203 17.4212C177.203 17.4202 177.203 17.4192 177.203 17.4183C177.203 17.4173 177.203 17.4163 177.203 17.4153C177.203 17.4144 177.203 17.4134 177.203 17.4124C177.203 17.4114 177.203 17.4105 177.203 17.4095C177.203 17.4085 177.203 17.4075 177.203 17.4065C177.203 17.4056 177.203 17.4046 177.203 17.4036C177.203 17.4026 177.203 17.4017 177.203 17.4007C177.203 17.3997 177.203 17.3987 177.203 17.3977C177.203 17.3968 177.203 17.3958 177.203 17.3948C177.203 17.3938 177.203 17.3928 177.203 17.3918C177.203 17.3909 177.203 17.3899 177.203 17.3889C177.203 17.3879 177.203 17.3869 177.203 17.3859C177.203 17.385 177.203 17.384 177.203 17.383C177.203 17.382 177.203 17.381 177.203 17.38C177.203 17.3791 177.203 17.3781 177.203 17.3771C177.203 17.3761 177.203 17.3751 177.203 17.3741C177.203 17.3731 177.203 17.3722 177.203 17.3712C177.203 17.3702 177.203 17.3692 177.203 17.3682C177.203 17.3672 177.203 17.3662 177.203 17.3652C177.203 17.3642 177.203 17.3633 177.203 17.3623C177.203 17.3613 177.203 17.3603 177.203 17.3593C177.203 17.3583 177.203 17.3573 177.203 17.3563C177.203 17.3553 177.203 17.3543 177.203 17.3534C177.203 17.3524 177.203 17.3514 177.203 17.3504C177.203 17.3494 177.203 17.3484 177.203 17.3474C177.203 17.3464 177.203 17.3454 177.203 17.3444C177.203 17.3434 177.203 17.3424 177.203 17.3414C177.203 17.3404 177.203 17.3394 177.203 17.3384C177.203 17.3374 177.203 17.3365 177.203 17.3355C177.203 17.3345 177.203 17.3335 177.203 17.3325C177.203 17.3315 177.203 17.3305 177.203 17.3295C177.203 17.3285 177.203 17.3275 177.203 17.3265C177.203 17.3255 177.203 17.3245 177.203 17.3235C177.203 17.3225 177.203 17.3215 177.203 17.3205C177.203 17.3195 177.203 17.3185 177.203 17.3175C177.203 17.3165 177.203 17.3155 177.203 17.3145C177.203 17.3135 177.203 17.3125 177.203 17.3115C177.203 17.3105 177.203 17.3095 177.203 17.3085C177.203 17.3075 177.203 17.3064 177.203 17.3054C177.203 17.3044 177.203 17.3034 177.203 17.3024C177.203 17.3014 177.203 17.3004 177.203 17.2994C177.203 17.2984 177.203 17.2974 177.203 17.2964C177.203 17.2954 177.203 17.2944 177.203 17.2934C177.203 17.2924 177.203 17.2914 177.203 17.2904C177.203 17.2893 177.203 17.2883 177.203 17.2873C177.203 17.2863 177.203 17.2853 177.203 17.2843C177.203 17.2833 177.203 17.2823 177.203 17.2813C177.203 17.2803 177.203 17.2793 177.203 17.2782C177.203 17.2772 177.203 17.2762 177.203 17.2752C177.203 17.2742 177.203 17.2732 177.203 17.2722C177.203 17.2712 177.203 17.2701 177.203 17.2691C177.203 17.2681 177.203 17.2671 177.203 17.2661C177.203 17.2651 177.203 17.2641 177.203 17.263C177.203 17.262 177.203 17.261 177.203 17.26H175.203C175.203 17.261 175.203 17.262 175.203 17.263C175.203 17.2641 175.203 17.2651 175.203 17.2661C175.203 17.2671 175.203 17.2681 175.203 17.2691C175.203 17.2701 175.203 17.2712 175.203 17.2722C175.203 17.2732 175.203 17.2742 175.203 17.2752C175.203 17.2762 175.203 17.2772 175.203 17.2782C175.203 17.2793 175.203 17.2803 175.203 17.2813C175.203 17.2823 175.203 17.2833 175.203 17.2843C175.203 17.2853 175.203 17.2863 175.203 17.2873C175.203 17.2883 175.203 17.2893 175.203 17.2904C175.203 17.2914 175.203 17.2924 175.203 17.2934C175.203 17.2944 175.203 17.2954 175.203 17.2964C175.203 17.2974 175.203 17.2984 175.203 17.2994C175.203 17.3004 175.203 17.3014 175.203 17.3024C175.203 17.3034 175.203 17.3044 175.203 17.3054C175.203 17.3064 175.203 17.3075 175.203 17.3085C175.203 17.3095 175.203 17.3105 175.203 17.3115C175.203 17.3125 175.203 17.3135 175.203 17.3145C175.203 17.3155 175.203 17.3165 175.203 17.3175C175.203 17.3185 175.203 17.3195 175.203 17.3205C175.203 17.3215 175.203 17.3225 175.203 17.3235C175.203 17.3245 175.203 17.3255 175.203 17.3265C175.203 17.3275 175.203 17.3285 175.203 17.3295C175.203 17.3305 175.203 17.3315 175.203 17.3325C175.203 17.3335 175.203 17.3345 175.203 17.3355C175.203 17.3365 175.203 17.3374 175.203 17.3384C175.203 17.3394 175.203 17.3404 175.203 17.3414C175.203 17.3424 175.203 17.3434 175.203 17.3444C175.203 17.3454 175.203 17.3464 175.203 17.3474C175.203 17.3484 175.203 17.3494 175.203 17.3504C175.203 17.3514 175.203 17.3524 175.203 17.3534C175.203 17.3543 175.203 17.3553 175.203 17.3563C175.203 17.3573 175.203 17.3583 175.203 17.3593C175.203 17.3603 175.203 17.3613 175.203 17.3623C175.203 17.3633 175.203 17.3642 175.203 17.3652C175.203 17.3662 175.203 17.3672 175.203 17.3682C175.203 17.3692 175.203 17.3702 175.203 17.3712C175.203 17.3722 175.203 17.3731 175.203 17.3741C175.203 17.3751 175.203 17.3761 175.203 17.3771C175.203 17.3781 175.203 17.3791 175.203 17.38C175.203 17.381 175.203 17.382 175.203 17.383C175.203 17.384 175.203 17.385 175.203 17.3859C175.203 17.3869 175.203 17.3879 175.203 17.3889C175.203 17.3899 175.203 17.3909 175.203 17.3918C175.203 17.3928 175.203 17.3938 175.203 17.3948C175.203 17.3958 175.203 17.3968 175.203 17.3977C175.203 17.3987 175.203 17.3997 175.203 17.4007C175.203 17.4017 175.203 17.4026 175.203 17.4036C175.203 17.4046 175.203 17.4056 175.203 17.4065C175.203 17.4075 175.203 17.4085 175.203 17.4095C175.203 17.4105 175.203 17.4114 175.203 17.4124C175.203 17.4134 175.203 17.4144 175.203 17.4153C175.203 17.4163 175.203 17.4173 175.203 17.4183C175.203 17.4192 175.203 17.4202 175.203 17.4212C175.203 17.4222 175.203 17.4231 175.203 17.4241C175.203 17.4251 175.203 17.4261 175.203 17.427C175.203 17.428 175.203 17.429 175.203 17.43C175.203 17.4309 175.203 17.4319 175.203 17.4329C175.203 17.4338 175.203 17.4348 175.203 17.4358C175.203 17.4368 175.203 17.4377 175.203 17.4387C175.203 17.4397 175.203 17.4406 175.203 17.4416C175.203 17.4426 175.203 17.4435 175.203 17.4445C175.203 17.4455 175.203 17.4464 175.203 17.4474C175.203 17.4484 175.203 17.4493 175.203 17.4503C175.203 17.4513 175.203 17.4522 175.203 17.4532C175.203 17.4542 175.203 17.4551 175.203 17.4561C175.203 17.4571 175.203 17.458 175.203 17.459C175.203 17.46 175.203 17.4609 175.203 17.4619C175.203 17.4629 175.203 17.4638 175.203 17.4648C175.203 17.4657 175.203 17.4667 175.203 17.4677C175.203 17.4686 175.203 17.4696 175.203 17.4706C175.203 17.4715 175.203 17.4725 175.203 17.4734C175.203 17.4744 175.203 17.4754 175.203 17.4763C175.203 17.4773 175.203 17.4782 175.203 17.4792C175.203 17.4802 175.203 17.4811 175.203 17.4821C175.203 17.483 175.203 17.484 175.203 17.485C175.203 17.4859 175.203 17.4869 175.203 17.4878C175.203 17.4888 175.203 17.4897 175.203 17.4907C175.203 17.4916 175.203 17.4926 175.203 17.4936C175.203 17.4945 175.203 17.4955 175.203 17.4964C175.203 17.4974 175.203 17.4983 175.203 17.4993C175.203 17.5002 175.203 17.5012 175.203 17.5021C175.203 17.5031 175.203 17.5041 175.203 17.505C175.203 17.506 175.203 17.5069 175.203 17.5079C175.203 17.5088 175.203 17.5098 175.203 17.5107C175.203 17.5117 175.203 17.5126 175.203 17.5136C175.203 17.5145 175.203 17.5155 175.203 17.5164C175.203 17.5174 175.203 17.5183 175.203 17.5193C175.203 17.5202 175.203 17.5212 175.203 17.5221C175.203 17.5231 175.203 17.524 175.203 17.5249C175.203 17.5259 175.203 17.5268 175.203 17.5278C175.203 17.5287 175.203 17.5297 175.203 17.5306C175.203 17.5316 175.203 17.5325 175.203 17.5335C175.203 17.5344 175.203 17.5353 175.203 17.5363C175.203 17.5372 175.203 17.5382 175.203 17.5391C175.203 17.5401 175.203 17.541 175.203 17.542C175.203 17.5429 175.203 17.5438 175.203 17.5448C175.203 17.5457 175.203 17.5467 175.203 17.5476C175.203 17.5485 175.203 17.5495 175.203 17.5504C175.203 17.5514 175.203 17.5523 175.203 17.5532C175.203 17.5542 175.203 17.5551 175.203 17.5561C175.203 17.557 175.203 17.5579 175.203 17.5589C175.203 17.5598 175.203 17.5607 175.203 17.5617C175.203 17.5626 175.203 17.5636 175.203 17.5645C175.203 17.5654 175.203 17.5664 175.203 17.5673C175.203 17.5682 175.203 17.5692 175.203 17.5701C175.203 17.571 175.203 17.572 175.203 17.5729C175.203 17.5738 175.203 17.5748 175.203 17.5757C175.203 17.5766 175.203 17.5776 175.203 17.5785C175.203 17.5794 175.203 17.5804 175.203 17.5813C175.203 17.5822 175.203 17.5832 175.203 17.5841C175.203 17.585 175.203 17.586 175.203 17.5869C175.203 17.5878 175.203 17.5888 175.203 17.5897C175.203 17.5906 175.203 17.5915 175.203 17.5925C175.203 17.5934 175.203 17.5943 175.203 17.5953C175.203 17.5962 175.203 17.5971 175.203 17.598C175.203 17.599 175.203 17.5999 175.203 17.6008C175.203 17.6017 175.203 17.6027 175.203 17.6036C175.203 17.6045 175.203 17.6054 175.203 17.6064C175.203 17.6073 175.203 17.6082 175.203 17.6091C175.203 17.6101 175.203 17.611 175.203 17.6119C175.203 17.6128 175.203 17.6138 175.203 17.6147C175.203 17.6156 175.203 17.6165 175.203 17.6175C175.203 17.6184 175.203 17.6193 175.203 17.6202C175.203 17.6211 175.203 17.6221 175.203 17.623C175.203 17.6239 175.203 17.6248 175.203 17.6257C175.203 17.6267 175.203 17.6276 175.203 17.6285C175.203 17.6294 175.203 17.6303 175.203 17.6312C175.203 17.6322 175.203 17.6331 175.203 17.634C175.203 17.6349 175.203 17.6358 175.203 17.6368C175.203 17.6377 175.203 17.6386 175.203 17.6395C175.203 17.6404 175.203 17.6413 175.203 17.6422C175.203 17.6432 175.203 17.6441 175.203 17.645C175.203 17.6459 175.203 17.6468 175.203 17.6477C175.203 17.6486 175.203 17.6496 175.203 17.6505C175.203 17.6514 175.203 17.6523 175.203 17.6532C175.203 17.6541 175.203 17.655 175.203 17.6559C175.203 17.6569 175.203 17.6578 175.203 17.6587C175.203 17.6596 175.203 17.6605 175.203 17.6614C175.203 17.6623 175.203 17.6632 175.203 17.6641C175.203 17.665 175.203 17.6659 175.203 17.6669C175.203 17.6678 175.203 17.6687 175.203 17.6696C175.203 17.6705 175.203 17.6714 175.203 17.6723C175.203 17.6732 175.203 17.6741 175.203 17.675C175.203 17.6759 175.203 17.6768 175.203 17.6777C175.203 17.6786 175.203 17.6795 175.203 17.6804C175.203 17.6814 175.203 17.6823 175.203 17.6832C175.203 17.6841 175.203 17.685 175.203 17.6859C175.203 17.6868 175.203 17.6877 175.203 17.6886C175.203 17.6895 175.203 17.6904 175.203 17.6913C175.203 17.6922 175.203 17.6931 175.203 17.694C175.203 17.6949 175.203 17.6958 175.203 17.6967C175.203 17.6976 175.203 17.6985 175.203 17.6994C175.203 17.7003 175.203 17.7012 175.203 17.7021C175.203 17.703 175.203 17.7039 175.203 17.7048C175.203 17.7057 175.203 17.7066 175.203 17.7075C175.203 17.7084 175.203 17.7093 175.203 17.7102C175.203 17.711 175.203 17.7119 175.203 17.7128C175.203 17.7137 175.203 17.7146 175.203 17.7155C175.203 17.7164 175.203 17.7173 175.203 17.7182C175.203 17.7191 175.203 17.72 175.203 17.7209C175.203 17.7218 175.203 17.7227 175.203 17.7236C175.203 17.7245 175.203 17.7253 175.203 17.7262C175.203 17.7271 175.203 17.728 175.203 17.7289C175.203 17.7298 175.203 17.7307 175.203 17.7316C175.203 17.7325 175.203 17.7334 175.203 17.7342C175.203 17.7351 175.203 17.736 175.203 17.7369C175.203 17.7378 175.203 17.7387 175.203 17.7396C175.203 17.7405 175.203 17.7413 175.203 17.7422C175.203 17.7431 175.203 17.744 175.203 17.7449C175.203 17.7458 175.203 17.7467 175.203 17.7476C175.203 17.7484 175.203 17.7493 175.203 17.7502C175.203 17.7511 175.203 17.752 175.203 17.7529C175.203 17.7537 175.203 17.7546 175.203 17.7555C175.203 17.7564 175.203 17.7573 175.203 17.7582C175.203 17.759 175.203 17.7599 175.203 17.7608C175.203 17.7617 175.203 17.7626 175.203 17.7634C175.203 17.7643 175.203 17.7652 175.203 17.7661C175.203 17.767 175.203 17.7678 175.203 17.7687C175.203 17.7696 175.203 17.7705 175.203 17.7714C175.203 17.7722 175.203 17.7731 175.203 17.774C175.203 17.7749 175.203 17.7757 175.203 17.7766C175.203 17.7775 175.203 17.7784 175.203 17.7793C175.203 17.7801 175.203 17.781 175.203 17.7819C175.203 17.7828 175.203 17.7836 175.203 17.7845C175.203 17.7854 175.203 17.7863 175.203 17.7871C175.203 17.788 175.203 17.7889 175.203 17.7897C175.203 17.7906 175.203 17.7915 175.203 17.7924C175.203 17.7932 175.203 17.7941 175.203 17.795C175.203 17.7959 175.203 17.7967 175.203 17.7976C175.203 17.7985 175.203 17.7993 175.203 17.8002C175.203 17.8011 175.203 17.8019 175.203 17.8028C175.203 17.8037 175.203 17.8045 175.203 17.8054C175.203 17.8063 175.203 17.8072 175.203 17.808C175.203 17.8089 175.203 17.8098 175.203 17.8106C175.203 17.8115 175.203 17.8124 175.203 17.8132C175.203 17.8141 175.203 17.815 175.203 17.8158C175.203 17.8167 175.203 17.8176 175.203 17.8184C175.203 17.8193 175.203 17.8201 175.203 17.821C175.203 17.8219 175.203 17.8227 175.203 17.8236C175.203 17.8245 175.203 17.8253 175.203 17.8262C175.203 17.827 175.203 17.8279 175.203 17.8288C175.203 17.8296 175.203 17.8305 175.203 17.8314C175.203 17.8322 175.203 17.8331 175.203 17.8339C175.203 17.8348 175.203 17.8357 175.203 17.8365C175.203 17.8374 175.203 17.8382 175.203 17.8391C175.203 17.84 175.203 17.8408 175.203 17.8417C175.203 17.8425 175.203 17.8434 175.203 17.8442C175.203 17.8451 175.203 17.846 175.203 17.8468C175.203 17.8477 175.203 17.8485 175.203 17.8494C175.203 17.8502 175.203 17.8511 175.203 17.8519C175.203 17.8528 175.203 17.8536 175.203 17.8545C175.203 17.8554 175.203 17.8562 175.203 17.8571C175.203 17.8579 175.203 17.8588 175.203 17.8596C175.203 17.8605 175.203 17.8613 175.203 17.8622C175.203 17.863 175.203 17.8639 175.203 17.8647C175.203 17.8656 175.203 17.8664 175.203 17.8673C175.203 17.8681 175.203 17.869 175.203 17.8698C175.203 17.8707 175.203 17.8715 175.203 17.8724C175.203 17.8732 175.203 17.8741 175.203 17.8749C175.203 17.8758 175.203 17.8766 175.203 17.8775C175.203 17.8783 175.203 17.8792 175.203 17.88C175.203 17.8809 175.203 17.8817 175.203 17.8825C175.203 17.8834 175.203 17.8842 175.203 17.8851C175.203 17.8859 175.203 17.8868 175.203 17.8876C175.203 17.8885 175.203 17.8893 175.203 17.8901C175.203 17.891 175.203 17.8918 175.203 17.8927C175.203 17.8935 175.203 17.8944 175.203 17.8952C175.203 17.896 175.203 17.8969 175.203 17.8977C175.203 17.8986 175.203 17.8994 175.203 17.9002C175.203 17.9011 175.203 17.9019 175.203 17.9028C175.203 17.9036 175.203 17.9044 175.203 17.9053C175.203 17.9061 175.203 17.907 175.203 17.9078C175.203 17.9086 175.203 17.9095 175.203 17.9103C175.203 17.9111 175.203 17.912 175.203 17.9128C175.203 17.9137 175.203 17.9145 175.203 17.9153C175.203 17.9162 175.203 17.917 175.203 17.9178C175.203 17.9187 175.203 17.9195 175.203 17.9203C175.203 17.9212 175.203 17.922 175.203 17.9228C175.203 17.9237 175.203 17.9245 175.203 17.9253C175.203 17.9262 175.203 17.927 175.203 17.9278C175.203 17.9287 175.203 17.9295 175.203 17.9303C175.203 17.9312 175.203 17.932 175.203 17.9328C175.203 17.9336 175.203 17.9345 175.203 17.9353C175.203 17.9361 175.203 17.937 175.203 17.9378C175.203 17.9386 175.203 17.9394 175.203 17.9403C175.203 17.9411 175.203 17.9419 175.203 17.9428C175.203 17.9436 175.203 17.9444 175.203 17.9452C175.203 17.9461 175.203 17.9469 175.203 17.9477C175.203 17.9485 175.203 17.9494 175.203 17.9502C175.203 17.951 175.203 17.9518 175.203 17.9527C175.203 17.9535 175.203 17.9543 175.203 17.9551C175.203 17.956 175.203 17.9568 175.203 17.9576C175.203 17.9584 175.203 17.9593 175.203 17.9601C175.203 17.9609 175.203 17.9617 175.203 17.9625C175.203 17.9634 175.203 17.9642 175.203 17.965C175.203 17.9658 175.203 17.9666 175.203 17.9675C175.203 17.9683 175.203 17.9691 175.203 17.9699C175.203 17.9707 175.203 17.9716 175.203 17.9724C175.203 17.9732 175.203 17.974 175.203 17.9748C175.203 17.9756 175.203 17.9765 175.203 17.9773C175.203 17.9781 175.203 17.9789 175.203 17.9797C175.203 17.9805 175.203 17.9814 175.203 17.9822C175.203 17.983 175.203 17.9838 175.203 17.9846C175.203 17.9854 175.203 17.9862 175.203 17.9871C175.203 17.9879 175.203 17.9887 175.203 17.9895C175.203 17.9903 175.203 17.9911 175.203 17.9919C175.203 17.9927 175.203 17.9936 175.203 17.9944C175.203 17.9952 175.203 17.996 175.203 17.9968C175.203 17.9976 175.203 17.9984 175.203 17.9992C175.203 18 175.203 18.0008 175.203 18.0017C175.203 18.0025 175.203 18.0033 175.203 18.0041C175.203 18.0049 175.203 18.0057 175.203 18.0065C175.203 18.0073 175.203 18.0081 175.203 18.0089C175.203 18.0097 175.203 18.0105 175.203 18.0113C175.203 18.0122 175.203 18.013 175.203 18.0138C175.203 18.0146 175.203 18.0154 175.203 18.0162C175.203 18.017 175.203 18.0178 175.203 18.0186C175.203 18.0194 175.203 18.0202 175.203 18.021C175.203 18.0218 175.203 18.0226 175.203 18.0234C175.203 18.0242 175.203 18.025 175.203 18.0258C175.203 18.0266 175.203 18.0274 175.203 18.0282C175.203 18.029 175.203 18.0298 175.203 18.0306C175.203 18.0314 175.203 18.0322 175.203 18.033C175.203 18.0338 175.203 18.0346 175.203 18.0354C175.203 18.0362 175.203 18.037 175.203 18.0378C175.203 18.0386 175.203 18.0394 175.203 18.0402C175.203 18.041 175.203 18.0418 175.203 18.0426C175.203 18.0434 175.203 18.0442 175.203 18.045C175.203 18.0458 175.203 18.0466 175.203 18.0473C175.203 18.0481 175.203 18.0489 175.203 18.0497C175.203 18.0505 175.203 18.0513 175.203 18.0521C175.203 18.0529 175.203 18.0537 175.203 18.0545C175.203 18.0553 175.203 18.0561 175.203 18.0569C175.203 18.0577 175.203 18.0584 175.203 18.0592C175.203 18.06 175.203 18.0608 175.203 18.0616C175.203 18.0624 175.203 18.0632 175.203 18.064C175.203 18.0648 175.203 18.0656 175.203 18.0663C175.203 18.0671 175.203 18.0679 175.203 18.0687C175.203 18.0695 175.203 18.0703 175.203 18.0711C175.203 18.0719 175.203 18.0726 175.203 18.0734C175.203 18.0742 175.203 18.075 175.203 18.0758C175.203 18.0766 175.203 18.0774 175.203 18.0781C175.203 18.0789 175.203 18.0797 175.203 18.0805C175.203 18.0813 175.203 18.0821 175.203 18.0828C175.203 18.0836 175.203 18.0844 175.203 18.0852C175.203 18.086 175.203 18.0867 175.203 18.0875C175.203 18.0883 175.203 18.0891 175.203 18.0899C175.203 18.0907 175.203 18.0914 175.203 18.0922C175.203 18.093 175.203 18.0938 175.203 18.0946C175.203 18.0953 175.203 18.0961 175.203 18.0969C175.203 18.0977 175.203 18.0984 175.203 18.0992C175.203 18.1 175.203 18.1008 175.203 18.1016C175.203 18.1023 175.203 18.1031 175.203 18.1039C175.203 18.1047 175.203 18.1054 175.203 18.1062C175.203 18.107 175.203 18.1078 175.203 18.1085C175.203 18.1093 175.203 18.1101 175.203 18.1109C175.203 18.1116 175.203 18.1124 175.203 18.1132C175.203 18.114 175.203 18.1147 175.203 18.1155C175.203 18.1163 175.203 18.117 175.203 18.1178C175.203 18.1186 175.203 18.1194 175.203 18.1201C175.203 18.1209 175.203 18.1217 175.203 18.1224C175.203 18.1232 175.203 18.124 175.203 18.1247C175.203 18.1255 175.203 18.1263 175.203 18.1271C175.203 18.1278 175.203 18.1286 175.203 18.1294C175.203 18.1301 175.203 18.1309 175.203 18.1317C175.203 18.1324 175.203 18.1332 175.203 18.134C175.203 18.1347 175.203 18.1355 175.203 18.1363C175.203 18.137 175.203 18.1378 175.203 18.1385C175.203 18.1393 175.203 18.1401 175.203 18.1408C175.203 18.1416 175.203 18.1424 175.203 18.1431C175.203 18.1439 175.203 18.1447 175.203 18.1454C175.203 18.1462 175.203 18.1469 175.203 18.1477C175.203 18.1485 175.203 18.1492 175.203 18.15C175.203 18.1508 175.203 18.1515 175.203 18.1523C175.203 18.153 175.203 18.1538 175.203 18.1546C175.203 18.1553 175.203 18.1561 175.203 18.1568C175.203 18.1576 175.203 18.1583 175.203 18.1591C175.203 18.1599 175.203 18.1606 175.203 18.1614C175.203 18.1621 175.203 18.1629 175.203 18.1636C175.203 18.1644 175.203 18.1652 175.203 18.1659C175.203 18.1667 175.203 18.1674 175.203 18.1682C175.203 18.1689 175.203 18.1697 175.203 18.1704C175.203 18.1712 175.203 18.1719 175.203 18.1727C175.203 18.1735 175.203 18.1742 175.203 18.175C175.203 18.1757 175.203 18.1765 175.203 18.1772C175.203 18.178 175.203 18.1787 175.203 18.1795C175.203 18.1802 175.203 18.181 175.203 18.1817C175.203 18.1825 175.203 18.1832 175.203 18.184C175.203 18.1847 175.203 18.1855 175.203 18.1862C175.203 18.187 175.203 18.1877 175.203 18.1885C175.203 18.1892 175.203 18.19 175.203 18.1907C175.203 18.1914 175.203 18.1922 175.203 18.1929C175.203 18.1937 175.203 18.1944 175.203 18.1952C175.203 18.1959 175.203 18.1967 175.203 18.1974C175.203 18.1982 175.203 18.1989 175.203 18.1996C175.203 18.2004 175.203 18.2011 175.203 18.2019C175.203 18.2026 175.203 18.2034 175.203 18.2041C175.203 18.2049 175.203 18.2056 175.203 18.2063C175.203 18.2071 175.203 18.2078 175.203 18.2086C175.203 18.2093 175.203 18.21 175.203 18.2108C175.203 18.2115 175.203 18.2123 175.203 18.213C175.203 18.2137 175.203 18.2145 175.203 18.2152C175.203 18.216 175.203 18.2167 175.203 18.2174C175.203 18.2182 175.203 18.2189 175.203 18.2196C175.203 18.2204 175.203 18.2211 175.203 18.2219C175.203 18.2226 175.203 18.2233 175.203 18.2241C175.203 18.2248 175.203 18.2255 175.203 18.2263C175.203 18.227 175.203 18.2277 175.203 18.2285C175.203 18.2292 175.203 18.2299 175.203 18.2307C175.203 18.2314 175.203 18.2321 175.203 18.2329C175.203 18.2336 175.203 18.2343 175.203 18.2351C175.203 18.2358 175.203 18.2365 175.203 18.2373C175.203 18.238 175.203 18.2387 175.203 18.2395C175.203 18.2402 175.203 18.2409 175.203 18.2416C175.203 18.2424 175.203 18.2431 175.203 18.2438C175.203 18.2446 175.203 18.2453 175.203 18.246C175.203 18.2467 175.203 18.2475 175.203 18.2482C175.203 18.2489 175.203 18.2497 175.203 18.2504C175.203 18.2511 175.203 18.2518 175.203 18.2526C175.203 18.2533 175.203 18.254 175.203 18.2547C175.203 18.2555 175.203 18.2562 175.203 18.2569C175.203 18.2576 175.203 18.2584 175.203 18.2591C175.203 18.2598 175.203 18.2605 175.203 18.2612C175.203 18.262 175.203 18.2627 175.203 18.2634C175.203 18.2641 175.203 18.2649 175.203 18.2656C175.203 18.2663 175.203 18.267 175.203 18.2677C175.203 18.2685 175.203 18.2692 175.203 18.2699C175.203 18.2706 175.203 18.2713 175.203 18.2721C175.203 18.2728 175.203 18.2735 175.203 18.2742C175.203 18.2749 175.203 18.2757 175.203 18.2764C175.203 18.2771 175.203 18.2778 175.203 18.2785C175.203 18.2792 175.203 18.28 175.203 18.2807C175.203 18.2814 175.203 18.2821 175.203 18.2828C175.203 18.2835 175.203 18.2842 175.203 18.285C175.203 18.2857 175.203 18.2864 175.203 18.2871C175.203 18.2878 175.203 18.2885 175.203 18.2892C175.203 18.29 175.203 18.2907 175.203 18.2914C175.203 18.2921 175.203 18.2928 175.203 18.2935C175.203 18.2942 175.203 18.2949 175.203 18.2956C175.203 18.2964 175.203 18.2971 175.203 18.2978C175.203 18.2985 175.203 18.2992 175.203 18.2999C175.203 18.3006 175.203 18.3013 175.203 18.302C175.203 18.3027 175.203 18.3034 175.203 18.3042C175.203 18.3049 175.203 18.3056 175.203 18.3063C175.203 18.307 175.203 18.3077 175.203 18.3084C175.203 18.3091 175.203 18.3098 175.203 18.3105C175.203 18.3112 175.203 18.3119 175.203 18.3126C175.203 18.3133 175.203 18.314 175.203 18.3147C175.203 18.3154 175.203 18.3161 175.203 18.3168C175.203 18.3175 175.203 18.3182 175.203 18.319C175.203 18.3197 175.203 18.3204 175.203 18.3211C175.203 18.3218 175.203 18.3225 175.203 18.3232C175.203 18.3239 175.203 18.3246 175.203 18.3253C175.203 18.326 175.203 18.3267 175.203 18.3274C175.203 18.3281 175.203 18.3288 175.203 18.3295C175.203 18.3302 175.203 18.3308 175.203 18.3315C175.203 18.3322 175.203 18.3329 175.203 18.3336C175.203 18.3343 175.203 18.335 175.203 18.3357C175.203 18.3364 175.203 18.3371 175.203 18.3378C175.203 18.3385 175.203 18.3392 175.203 18.3399C175.203 18.3406 175.203 18.3413 175.203 18.342C175.203 18.3427 175.203 18.3434 175.203 18.3441C175.203 18.3448 175.203 18.3454 175.203 18.3461C175.203 18.3468 175.203 18.3475 175.203 18.3482C175.203 18.3489 175.203 18.3496 175.203 18.3503C175.203 18.351 175.203 18.3517 175.203 18.3524C175.203 18.353 175.203 18.3537 175.203 18.3544C175.203 18.3551 175.203 18.3558 175.203 18.3565C175.203 18.3572 175.203 18.3579 175.203 18.3586C175.203 18.3592 175.203 18.3599 175.203 18.3606C175.203 18.3613 175.203 18.362 175.203 18.3627C175.203 18.3634 175.203 18.364 175.203 18.3647C175.203 18.3654 175.203 18.3661 175.203 18.3668C175.203 18.3675 175.203 18.3682 175.203 18.3688C175.203 18.3695 175.203 18.3702 175.203 18.3709C175.203 18.3716 175.203 18.3723 175.203 18.3729C175.203 18.3736 175.203 18.3743 175.203 18.375C175.203 18.3757 175.203 18.3763 175.203 18.377C175.203 18.3777 175.203 18.3784 175.203 18.3791C175.203 18.3797 175.203 18.3804 175.203 18.3811C175.203 18.3818 175.203 18.3825 175.203 18.3831C175.203 18.3838 175.203 18.3845 175.203 18.3852C175.203 18.3859 175.203 18.3865 175.203 18.3872C175.203 18.3879 175.203 18.3886 175.203 18.3892C175.203 18.3899 175.203 18.3906 175.203 18.3913C175.203 18.3919 175.203 18.3926 175.203 18.3933C175.203 18.394 175.203 18.3946 175.203 18.3953C175.203 18.396 175.203 18.3967 175.203 18.3973C175.203 18.398 175.203 18.3987 175.203 18.3994C175.203 18.4 175.203 18.4007 175.203 18.4014C175.203 18.402 175.203 18.4027 175.203 18.4034C175.203 18.4041 175.203 18.4047 175.203 18.4054C175.203 18.4061 175.203 18.4067 175.203 18.4074C175.203 18.4081 175.203 18.4087 175.203 18.4094C175.203 18.4101 175.203 18.4107 175.203 18.4114C175.203 18.4121 175.203 18.4127 175.203 18.4134C175.203 18.4141 175.203 18.4147 175.203 18.4154C175.203 18.4161 175.203 18.4167 175.203 18.4174C175.203 18.4181 175.203 18.4187 175.203 18.4194C175.203 18.4201 175.203 18.4207 175.203 18.4214C175.203 18.4221 175.203 18.4227 175.203 18.4234C175.203 18.4241 175.203 18.4247 175.203 18.4254C175.203 18.426 175.203 18.4267 175.203 18.4274C175.203 18.428 175.203 18.4287 175.203 18.4293C175.203 18.43 175.203 18.4307 175.203 18.4313C175.203 18.432 175.203 18.4326 175.203 18.4333C175.203 18.434 175.203 18.4346 175.203 18.4353C175.203 18.4359 175.203 18.4366 175.203 18.4373C175.203 18.4379 175.203 18.4386 175.203 18.4392C175.203 18.4399 175.203 18.4405 175.203 18.4412C175.203 18.4419 175.203 18.4425 175.203 18.4432C175.203 18.4438 175.203 18.4445 175.203 18.4451C175.203 18.4458 175.203 18.4464 175.203 18.4471C175.203 18.4478 175.203 18.4484 175.203 18.4491C175.203 18.4497 175.203 18.4504 175.203 18.451C175.203 18.4517 175.203 18.4523 175.203 18.453C175.203 18.4536 175.203 18.4543 175.203 18.4549C175.203 18.4556 175.203 18.4562 175.203 18.4569C175.203 18.4575 175.203 18.4582 175.203 18.4588C175.203 18.4595 175.203 18.4601 175.203 18.4608C175.203 18.4614 175.203 18.4621 175.203 18.4627C175.203 18.4634 175.203 18.464 175.203 18.4647C175.203 18.4653 175.203 18.466 175.203 18.4666C175.203 18.4672 175.203 18.4679 175.203 18.4685C175.203 18.4692 175.203 18.4698 175.203 18.4705C175.203 18.4711 175.203 18.4718 175.203 18.4724C175.203 18.4731 175.203 18.4737 175.203 18.4743C175.203 18.475 175.203 18.4756 175.203 18.4763C175.203 18.4769 175.203 18.4776 175.203 18.4782C175.203 18.4788 175.203 18.4795 175.203 18.4801C175.203 18.4808 175.203 18.4814 175.203 18.482C175.203 18.4827 175.203 18.4833 175.203 18.484C175.203 18.4846 175.203 18.4852 175.203 18.4859C175.203 18.4865 175.203 18.4872 175.203 18.4878C175.203 18.4884 175.203 18.4891 175.203 18.4897C175.203 18.4903 175.203 18.491 175.203 18.4916C175.203 18.4923 175.203 18.4929 175.203 18.4935C175.203 18.4942 175.203 18.4948 175.203 18.4954C175.203 18.4961 175.203 18.4967 175.203 18.4973C175.203 18.498 175.203 18.4986 175.203 18.4992C175.203 18.4999 175.203 18.5005 175.203 18.5011C175.203 18.5018 175.203 18.5024 175.203 18.503C175.203 18.5037 175.203 18.5043 175.203 18.5049C175.203 18.5056 175.203 18.5062 175.203 18.5068C175.203 18.5074 175.203 18.5081 175.203 18.5087C175.203 18.5093 175.203 18.51 175.203 18.5106C175.203 18.5112 175.203 18.5119 175.203 18.5125C175.203 18.5131 175.203 18.5137 175.203 18.5144C175.203 18.515 175.203 18.5156 175.203 18.5162C175.203 18.5169 175.203 18.5175 175.203 18.5181C175.203 18.5187 175.203 18.5194 175.203 18.52H177.203ZM177.202 17.2984C177.222 16.7789 177.242 16.2694 177.262 15.77L175.264 15.69C175.244 16.1906 175.224 16.7011 175.204 17.2216L177.202 17.2984ZM177.262 15.7684C177.282 15.2513 177.302 14.8769 177.32 14.6367L175.326 14.4833C175.305 14.7631 175.284 15.1687 175.264 15.6916L177.262 15.7684ZM175.479 14.0232L166.929 27.4632L168.617 28.5368L177.167 15.0968L175.479 14.0232ZM167.773 27H164.503V29H167.773V27ZM165.503 28V11.92H163.503V28H165.503ZM164.503 12.92H166.993V10.92H164.503V12.92ZM165.993 11.92V21.73H167.993V11.92H165.993Z" fill="black"/>
<line y1="-1.5" x2="165.519" y2="-1.5" transform="matrix(0.999987 -0.00504483 0.00880945 0.999961 9 47.2727)" stroke="black" stroke-width="3"/>
<line x1="172.983" y1="44" x2="172.983" y2="56.3" stroke="black" stroke-width="3"/>
<line x1="188.5" y1="54" x2="188.5" y2="66.3" stroke="black" stroke-width="3"/>
<line x1="172" y1="55.5" x2="188.588" y2="55.5" stroke="black" stroke-width="3"/>
<path d="M187 66H203.588" stroke="black" stroke-width="3"/>
<path d="M994.931 342.5C993.276 308.833 963.703 240.4 858.655 236C753.607 231.6 426.839 215.5 276.586 208C214.609 208 91.4276 175.7 94.5173 46.5" stroke="black" stroke-width="3"/>
<path d="M994.293 344.707C994.683 345.098 995.317 345.098 995.707 344.707L1002.07 338.343C1002.46 337.953 1002.46 337.319 1002.07 336.929C1001.68 336.538 1001.05 336.538 1000.66 336.929L995 342.586L989.343 336.929C988.953 336.538 988.319 336.538 987.929 336.929C987.538 337.319 987.538 337.953 987.929 338.343L994.293 344.707ZM994 338V344H996V338H994Z" fill="black"/>
</svg>
