<svg width="1070" height="344" viewBox="0 0 1070 344" fill="none" xmlns="http://www.w3.org/2000/svg">
<path d="M784.56 38H750.88V9.44H754.48V34.8H765.88V9.44H769.48V34.8H780.92V9.44H784.56V38ZM800.004 16.2C802.618 16.2 804.551 16.7733 805.804 17.92C807.058 19.0667 807.684 20.8933 807.684 23.4V38H805.124L804.444 34.96H804.284C803.671 35.7333 803.031 36.3867 802.364 36.92C801.724 37.4267 800.978 37.8 800.124 38.04C799.298 38.28 798.284 38.4 797.084 38.4C795.804 38.4 794.644 38.1733 793.604 37.72C792.591 37.2667 791.791 36.5733 791.204 35.64C790.618 34.68 790.324 33.48 790.324 32.04C790.324 29.9067 791.164 28.2667 792.844 27.12C794.524 25.9467 797.111 25.3067 800.604 25.2L804.244 25.08V23.8C804.244 22.0133 803.858 20.7733 803.084 20.08C802.311 19.3867 801.218 19.04 799.804 19.04C798.684 19.04 797.618 19.2133 796.604 19.56C795.591 19.88 794.644 20.2533 793.764 20.68L792.684 18.04C793.618 17.5333 794.724 17.1067 796.004 16.76C797.284 16.3867 798.618 16.2 800.004 16.2ZM801.044 27.64C798.378 27.7467 796.524 28.1733 795.484 28.92C794.471 29.6667 793.964 30.72 793.964 32.08C793.964 33.28 794.324 34.16 795.044 34.72C795.791 35.28 796.738 35.56 797.884 35.56C799.698 35.56 801.204 35.0667 802.404 34.08C803.604 33.0667 804.204 31.52 804.204 29.44V27.52L801.044 27.64ZM827.386 16.56V19.52H817.826V38H814.306V16.56H827.386ZM869.089 16.56V38H840.009V16.56H843.529V35.04H852.769V16.56H856.289V35.04H865.569V16.56H869.089ZM884.227 16.16C886.067 16.16 887.64 16.56 888.947 17.36C890.28 18.16 891.294 19.2933 891.987 20.76C892.707 22.2 893.067 23.8933 893.067 25.84V27.96H878.387C878.44 30.3867 879.054 32.24 880.227 33.52C881.427 34.7733 883.094 35.4 885.227 35.4C886.587 35.4 887.787 35.28 888.827 35.04C889.894 34.7733 890.987 34.4 892.107 33.92V37C891.014 37.48 889.934 37.8267 888.867 38.04C887.8 38.28 886.534 38.4 885.067 38.4C883.04 38.4 881.24 37.9867 879.667 37.16C878.12 36.3333 876.907 35.1067 876.027 33.48C875.174 31.8267 874.747 29.8133 874.747 27.44C874.747 25.0933 875.134 23.08 875.907 21.4C876.707 19.72 877.814 18.4267 879.227 17.52C880.667 16.6133 882.334 16.16 884.227 16.16ZM884.187 19.04C882.507 19.04 881.174 19.5867 880.187 20.68C879.227 21.7467 878.654 23.24 878.467 25.16H889.387C889.387 23.9333 889.2 22.8667 888.827 21.96C888.454 21.0533 887.88 20.3467 887.107 19.84C886.36 19.3067 885.387 19.04 884.187 19.04ZM907.125 38.4C905.232 38.4 903.538 38.0133 902.045 37.24C900.578 36.4667 899.418 35.2667 898.565 33.64C897.738 32.0133 897.325 29.9333 897.325 27.4C897.325 24.76 897.765 22.6133 898.645 20.96C899.525 19.3067 900.712 18.0933 902.205 17.32C903.725 16.5467 905.445 16.16 907.365 16.16C908.458 16.16 909.512 16.28 910.525 16.52C911.538 16.7333 912.365 17 913.005 17.32L911.925 20.24C911.285 20 910.538 19.7733 909.685 19.56C908.832 19.3467 908.032 19.24 907.285 19.24C905.845 19.24 904.658 19.5467 903.725 20.16C902.792 20.7733 902.098 21.68 901.645 22.88C901.192 24.08 900.965 25.5733 900.965 27.36C900.965 29.0667 901.192 30.52 901.645 31.72C902.098 32.92 902.778 33.8267 903.685 34.44C904.592 35.0533 905.725 35.36 907.085 35.36C908.258 35.36 909.285 35.24 910.165 35C911.072 34.76 911.898 34.4667 912.645 34.12V37.24C911.925 37.6133 911.125 37.8933 910.245 38.08C909.392 38.2933 908.352 38.4 907.125 38.4ZM932.544 19.52H925.544V38H922.064V19.52H915.144V16.56H932.544V19.52ZM955.017 27.24C955.017 29.0267 954.777 30.6133 954.297 32C953.843 33.36 953.177 34.52 952.297 35.48C951.443 36.44 950.39 37.1733 949.137 37.68C947.91 38.16 946.537 38.4 945.017 38.4C943.603 38.4 942.297 38.16 941.097 37.68C939.897 37.1733 938.857 36.44 937.977 35.48C937.097 34.52 936.403 33.36 935.897 32C935.417 30.6133 935.177 29.0267 935.177 27.24C935.177 24.8667 935.577 22.8667 936.377 21.24C937.177 19.5867 938.323 18.3333 939.817 17.48C941.31 16.6 943.083 16.16 945.137 16.16C947.083 16.16 948.79 16.6 950.257 17.48C951.75 18.3333 952.91 19.5867 953.737 21.24C954.59 22.8667 955.017 24.8667 955.017 27.24ZM938.817 27.24C938.817 28.92 939.03 30.3867 939.457 31.64C939.91 32.8667 940.603 33.8133 941.537 34.48C942.47 35.1467 943.657 35.48 945.097 35.48C946.537 35.48 947.723 35.1467 948.657 34.48C949.59 33.8133 950.27 32.8667 950.697 31.64C951.15 30.3867 951.377 28.92 951.377 27.24C951.377 25.5333 951.15 24.08 950.697 22.88C950.243 21.68 949.55 20.76 948.617 20.12C947.71 19.4533 946.523 19.12 945.057 19.12C942.87 19.12 941.283 19.84 940.297 21.28C939.31 22.72 938.817 24.7067 938.817 27.24ZM977.955 7.68C977.849 9.01333 977.515 10.1333 976.955 11.04C976.422 11.9467 975.622 12.6267 974.555 13.08C973.489 13.5333 972.102 13.76 970.395 13.76C968.662 13.76 967.262 13.5333 966.195 13.08C965.155 12.6267 964.395 11.96 963.915 11.08C963.435 10.1733 963.142 9.04 963.035 7.68H966.315C966.449 9.12 966.822 10.0933 967.435 10.6C968.075 11.08 969.089 11.32 970.475 11.32C971.702 11.32 972.662 11.0667 973.355 10.56C974.075 10.0267 974.502 9.06667 974.635 7.68H977.955ZM963.915 29.64C963.915 29.88 963.902 30.2267 963.875 30.68C963.875 31.1067 963.862 31.5733 963.835 32.08C963.809 32.56 963.782 33.0267 963.755 33.48C963.729 33.9067 963.702 34.2533 963.675 34.52L975.155 16.56H979.475V38H976.195V25.36C976.195 24.9333 976.195 24.3733 976.195 23.68C976.222 22.9867 976.249 22.3067 976.275 21.64C976.302 20.9467 976.329 20.4267 976.355 20.08L964.955 38H960.595V16.56H963.915V29.64Z" fill="black"/>
<path d="M784.56 38V39H785.56V38H784.56ZM750.88 38H749.88V39H750.88V38ZM750.88 9.44V8.44H749.88V9.44H750.88ZM754.48 9.44H755.48V8.44H754.48V9.44ZM754.48 34.8H753.48V35.8H754.48V34.8ZM765.88 34.8V35.8H766.88V34.8H765.88ZM765.88 9.44V8.44H764.88V9.44H765.88ZM769.48 9.44H770.48V8.44H769.48V9.44ZM769.48 34.8H768.48V35.8H769.48V34.8ZM780.92 34.8V35.8H781.92V34.8H780.92ZM780.92 9.44V8.44H779.92V9.44H780.92ZM784.56 9.44H785.56V8.44H784.56V9.44ZM784.56 37H750.88V39H784.56V37ZM751.88 38V9.44H749.88V38H751.88ZM750.88 10.44H754.48V8.44H750.88V10.44ZM753.48 9.44V34.8H755.48V9.44H753.48ZM754.48 35.8H765.88V33.8H754.48V35.8ZM766.88 34.8V9.44H764.88V34.8H766.88ZM765.88 10.44H769.48V8.44H765.88V10.44ZM768.48 9.44V34.8H770.48V9.44H768.48ZM769.48 35.8H780.92V33.8H769.48V35.8ZM781.92 34.8V9.44H779.92V34.8H781.92ZM780.92 10.44H784.56V8.44H780.92V10.44ZM783.56 9.44V38H785.56V9.44H783.56ZM805.804 17.92L806.479 17.1822L806.479 17.1822L805.804 17.92ZM807.684 38V39H808.684V38H807.684ZM805.124 38L804.148 38.2183L804.323 39H805.124V38ZM804.444 34.96L805.42 34.7417L805.245 33.96H804.444V34.96ZM804.284 34.96V33.96H803.801L803.501 34.3386L804.284 34.96ZM802.364 36.92L802.985 37.7041L802.989 37.7009L802.364 36.92ZM800.124 38.04L799.854 37.0773L799.846 37.0797L800.124 38.04ZM793.604 37.72L793.196 38.6329L793.205 38.6367L793.604 37.72ZM791.204 35.64L790.351 36.1615L790.358 36.1722L791.204 35.64ZM792.844 27.12L793.408 27.946L793.417 27.9398L792.844 27.12ZM800.604 25.2L800.635 26.1995L800.637 26.1995L800.604 25.2ZM804.244 25.08L804.277 26.0795L805.244 26.0476V25.08H804.244ZM803.084 20.08L802.417 20.8246L802.417 20.8246L803.084 20.08ZM796.604 19.56L796.906 20.5136L796.917 20.51L796.928 20.5062L796.604 19.56ZM793.764 20.68L792.839 21.0586L793.242 22.0445L794.201 21.5798L793.764 20.68ZM792.684 18.04L792.207 17.1611L791.419 17.5889L791.759 18.4186L792.684 18.04ZM796.004 16.76L796.266 17.7252L796.275 17.7227L796.284 17.72L796.004 16.76ZM801.044 27.64L801.006 26.6407L801.004 26.6408L801.044 27.64ZM795.484 28.92L794.901 28.1076L794.891 28.1149L795.484 28.92ZM795.044 34.72L794.43 35.5094L794.437 35.5147L794.444 35.52L795.044 34.72ZM802.404 34.08L803.04 34.8525L803.05 34.844L802.404 34.08ZM804.204 27.52H805.204V26.4813L804.166 26.5207L804.204 27.52ZM800.004 17.2C802.498 17.2 804.138 17.7507 805.129 18.6578L806.479 17.1822C804.964 15.796 802.738 15.2 800.004 15.2V17.2ZM805.129 18.6578C806.094 19.5401 806.684 21.0393 806.684 23.4H808.684C808.684 20.7473 808.022 18.5933 806.479 17.1822L805.129 18.6578ZM806.684 23.4V38H808.684V23.4H806.684ZM807.684 37H805.124V39H807.684V37ZM806.1 37.7817L805.42 34.7417L803.468 35.1783L804.148 38.2183L806.1 37.7817ZM804.444 33.96H804.284V35.96H804.444V33.96ZM803.501 34.3386C802.927 35.0619 802.339 35.6594 801.74 36.1391L802.989 37.7009C803.723 37.1139 804.415 36.4048 805.068 35.5814L803.501 34.3386ZM801.744 36.136C801.216 36.5537 800.591 36.8701 799.854 37.0773L800.395 39.0027C801.365 38.7299 802.233 38.2996 802.985 37.704L801.744 36.136ZM799.846 37.0797C799.137 37.2853 798.224 37.4 797.084 37.4V39.4C798.345 39.4 799.458 39.2747 800.403 39.0003L799.846 37.0797ZM797.084 37.4C795.924 37.4 794.903 37.1951 794.004 36.8033L793.205 38.6367C794.386 39.1516 795.684 39.4 797.084 39.4V37.4ZM794.013 36.8072C793.179 36.434 792.532 35.8725 792.051 35.1078L790.358 36.1722C791.05 37.2742 792.004 38.0993 793.196 38.6328L794.013 36.8072ZM792.058 35.1185C791.59 34.3539 791.324 33.3468 791.324 32.04H789.324C789.324 33.6132 789.645 35.0061 790.351 36.1614L792.058 35.1185ZM791.324 32.04C791.324 30.218 792.017 28.8957 793.408 27.9459L792.281 26.294C790.312 27.6376 789.324 29.5954 789.324 32.04H791.324ZM793.417 27.9398C794.861 26.9315 797.214 26.304 800.635 26.1995L800.574 24.2005C797.008 24.3093 794.188 24.9618 792.272 26.3002L793.417 27.9398ZM800.637 26.1995L804.277 26.0795L804.211 24.0805L800.571 24.2005L800.637 26.1995ZM805.244 25.08V23.8H803.244V25.08H805.244ZM805.244 23.8C805.244 21.9232 804.848 20.3178 803.752 19.3354L802.417 20.8246C802.868 21.2289 803.244 22.1034 803.244 23.8H805.244ZM803.752 19.3354C802.738 18.4262 801.374 18.04 799.804 18.04V20.04C801.061 20.04 801.884 20.3471 802.417 20.8246L803.752 19.3354ZM799.804 18.04C798.579 18.04 797.403 18.2299 796.281 18.6138L796.928 20.5062C797.832 20.1968 798.789 20.04 799.804 20.04V18.04ZM796.303 18.6064C795.248 18.9398 794.255 19.3306 793.328 19.7802L794.201 21.5798C795.033 21.1761 795.935 20.8202 796.906 20.5136L796.303 18.6064ZM794.69 20.3014L793.61 17.6614L791.759 18.4186L792.839 21.0586L794.69 20.3014ZM793.161 18.9189C794.012 18.4571 795.043 18.0564 796.266 17.7252L795.743 15.7948C794.406 16.157 793.223 16.6096 792.207 17.1611L793.161 18.9189ZM796.284 17.72C797.47 17.3742 798.709 17.2 800.004 17.2V15.2C798.527 15.2 797.099 15.3991 795.724 15.8L796.284 17.72ZM801.004 26.6408C798.314 26.7484 796.198 27.1767 794.901 28.1077L796.068 29.7323C796.851 29.1699 798.442 28.7449 801.084 28.6392L801.004 26.6408ZM794.891 28.1149C793.599 29.0671 792.964 30.432 792.964 32.08H794.964C794.964 31.008 795.343 30.2663 796.078 29.7251L794.891 28.1149ZM792.964 32.08C792.964 33.4832 793.394 34.7034 794.43 35.5094L795.658 33.9306C795.255 33.6166 794.964 33.0768 794.964 32.08H792.964ZM794.444 35.52C795.401 36.2372 796.572 36.56 797.884 36.56V34.56C796.904 34.56 796.181 34.3228 795.644 33.92L794.444 35.52ZM797.884 36.56C799.889 36.56 801.631 36.0101 803.039 34.8524L801.769 33.3076C800.777 34.1232 799.507 34.56 797.884 34.56V36.56ZM803.05 34.844C804.542 33.5836 805.204 31.7128 805.204 29.44H803.204C803.204 31.3272 802.667 32.5497 801.759 33.316L803.05 34.844ZM805.204 29.44V27.52H803.204V29.44H805.204ZM804.166 26.5207L801.006 26.6407L801.082 28.6393L804.242 28.5193L804.166 26.5207ZM827.386 16.56H828.386V15.56H827.386V16.56ZM827.386 19.52V20.52H828.386V19.52H827.386ZM817.826 19.52V18.52H816.826V19.52H817.826ZM817.826 38V39H818.826V38H817.826ZM814.306 38H813.306V39H814.306V38ZM814.306 16.56V15.56H813.306V16.56H814.306ZM826.386 16.56V19.52H828.386V16.56H826.386ZM827.386 18.52H817.826V20.52H827.386V18.52ZM816.826 19.52V38H818.826V19.52H816.826ZM817.826 37H814.306V39H817.826V37ZM815.306 38V16.56H813.306V38H815.306ZM814.306 17.56H827.386V15.56H814.306V17.56ZM869.089 16.56H870.089V15.56H869.089V16.56ZM869.089 38V39H870.089V38H869.089ZM840.009 38H839.009V39H840.009V38ZM840.009 16.56V15.56H839.009V16.56H840.009ZM843.529 16.56H844.529V15.56H843.529V16.56ZM843.529 35.04H842.529V36.04H843.529V35.04ZM852.769 35.04V36.04H853.769V35.04H852.769ZM852.769 16.56V15.56H851.769V16.56H852.769ZM856.289 16.56H857.289V15.56H856.289V16.56ZM856.289 35.04H855.289V36.04H856.289V35.04ZM865.569 35.04V36.04H866.569V35.04H865.569ZM865.569 16.56V15.56H864.569V16.56H865.569ZM868.089 16.56V38H870.089V16.56H868.089ZM869.089 37H840.009V39H869.089V37ZM841.009 38V16.56H839.009V38H841.009ZM840.009 17.56H843.529V15.56H840.009V17.56ZM842.529 16.56V35.04H844.529V16.56H842.529ZM843.529 36.04H852.769V34.04H843.529V36.04ZM853.769 35.04V16.56H851.769V35.04H853.769ZM852.769 17.56H856.289V15.56H852.769V17.56ZM855.289 16.56V35.04H857.289V16.56H855.289ZM856.289 36.04H865.569V34.04H856.289V36.04ZM866.569 35.04V16.56H864.569V35.04H866.569ZM865.569 17.56H869.089V15.56H865.569V17.56ZM888.947 17.36L888.425 18.2129L888.432 18.2175L888.947 17.36ZM891.987 20.76L891.083 21.1874L891.088 21.1973L891.092 21.2072L891.987 20.76ZM893.067 27.96V28.96H894.067V27.96H893.067ZM878.387 27.96V26.96H877.365L877.387 27.982L878.387 27.96ZM880.227 33.52L879.49 34.1957L879.497 34.2037L879.505 34.2116L880.227 33.52ZM888.827 35.04L889.052 36.0144L889.061 36.0123L889.069 36.0101L888.827 35.04ZM892.107 33.92H893.107V32.4035L891.713 33.0009L892.107 33.92ZM892.107 37L892.509 37.9156L893.107 37.6531V37H892.107ZM888.867 38.04L888.671 37.0594L888.659 37.0618L888.647 37.0644L888.867 38.04ZM879.667 37.16L879.195 38.042L879.202 38.0452L879.667 37.16ZM876.027 33.48L875.138 33.9386L875.143 33.9473L875.147 33.9558L876.027 33.48ZM875.907 21.4L875.004 20.97L874.998 20.9819L875.907 21.4ZM879.227 17.52L878.694 16.6737L878.687 16.6783L879.227 17.52ZM880.187 20.68L879.444 20.01L879.444 20.011L880.187 20.68ZM878.467 25.16L877.472 25.0632L877.365 26.16H878.467V25.16ZM889.387 25.16V26.16H890.387V25.16H889.387ZM888.827 21.96L887.902 22.3407L887.902 22.3407L888.827 21.96ZM887.107 19.84L886.526 20.6537L886.542 20.6654L886.559 20.6765L887.107 19.84ZM884.227 17.16C885.92 17.16 887.304 17.5268 888.425 18.2129L889.469 16.5071C887.976 15.5932 886.214 15.16 884.227 15.16V17.16ZM888.432 18.2175C889.589 18.9112 890.47 19.8913 891.083 21.1874L892.891 20.3326C892.117 18.6954 890.972 17.4088 889.461 16.5025L888.432 18.2175ZM891.092 21.2072C891.73 22.4823 892.067 24.0165 892.067 25.84H894.067C894.067 23.7701 893.684 21.9177 892.881 20.3128L891.092 21.2072ZM892.067 25.84V27.96H894.067V25.84H892.067ZM893.067 26.96H878.387V28.96H893.067V26.96ZM877.387 27.982C877.444 30.5551 878.097 32.6768 879.49 34.1957L880.964 32.8443C880.01 31.8032 879.437 30.2183 879.387 27.938L877.387 27.982ZM879.505 34.2116C880.935 35.7055 882.888 36.4 885.227 36.4V34.4C883.299 34.4 881.919 33.8411 880.949 32.8284L879.505 34.2116ZM885.227 36.4C886.643 36.4 887.921 36.2753 889.052 36.0144L888.602 34.0656C887.653 34.2847 886.531 34.4 885.227 34.4V36.4ZM889.069 36.0101C890.193 35.7292 891.337 35.3379 892.501 34.8391L891.713 33.0009C890.637 33.4621 889.594 33.8174 888.584 34.0699L889.069 36.0101ZM891.107 33.92V37H893.107V33.92H891.107ZM891.705 36.0844C890.671 36.5381 889.66 36.8615 888.671 37.0594L889.063 39.0206C890.207 38.7918 891.356 38.4219 892.509 37.9156L891.705 36.0844ZM888.647 37.0644C887.672 37.2838 886.483 37.4 885.067 37.4V39.4C886.584 39.4 887.928 39.2762 889.086 39.0156L888.647 37.0644ZM885.067 37.4C883.179 37.4 881.543 37.0161 880.132 36.2748L879.202 38.0452C880.938 38.9573 882.901 39.4 885.067 39.4V37.4ZM880.138 36.2781C878.774 35.549 877.698 34.4683 876.906 33.0042L875.147 33.9558C876.115 35.745 877.466 37.1177 879.195 38.0419L880.138 36.2781ZM876.915 33.0214C876.153 31.5435 875.747 29.6965 875.747 27.44H873.747C873.747 29.9301 874.194 32.1098 875.138 33.9386L876.915 33.0214ZM875.747 27.44C875.747 25.2002 876.116 23.3367 876.815 21.8181L874.998 20.9819C874.151 22.8233 873.747 24.9865 873.747 27.44H875.747ZM876.81 21.8299C877.538 20.2996 878.527 19.157 879.767 18.3617L878.687 16.6783C877.1 17.6964 875.875 19.1404 875.004 20.9701L876.81 21.8299ZM879.76 18.3662C881.023 17.5711 882.5 17.16 884.227 17.16V15.16C882.167 15.16 880.311 15.6556 878.694 16.6738L879.76 18.3662ZM884.187 18.04C882.268 18.04 880.648 18.676 879.444 20.01L880.929 21.35C881.699 20.4973 882.746 20.04 884.187 20.04V18.04ZM879.444 20.011C878.299 21.2833 877.672 23.0029 877.472 25.0632L879.462 25.2568C879.635 23.4771 880.155 22.2101 880.93 21.349L879.444 20.011ZM878.467 26.16H889.387V24.16H878.467V26.16ZM890.387 25.16C890.387 23.8344 890.185 22.6329 889.752 21.5792L887.902 22.3407C888.215 23.1005 888.387 24.0323 888.387 25.16H890.387ZM889.752 21.5792C889.306 20.4981 888.607 19.6275 887.655 19.0035L886.559 20.6765C887.153 21.0658 887.601 21.6086 887.902 22.3407L889.752 21.5792ZM887.688 19.0263C886.726 18.3394 885.532 18.04 884.187 18.04V20.04C885.242 20.04 885.994 20.274 886.526 20.6537L887.688 19.0263ZM902.045 37.24L901.579 38.1246L901.585 38.128L902.045 37.24ZM898.565 33.64L897.673 34.0931L897.679 34.1045L898.565 33.64ZM898.645 20.96L899.528 21.4298L899.528 21.4298L898.645 20.96ZM902.205 17.32L901.752 16.4287L901.745 16.432L902.205 17.32ZM910.525 16.52L910.295 17.4931L910.307 17.496L910.319 17.4985L910.525 16.52ZM913.005 17.32L913.943 17.6669L914.254 16.8264L913.452 16.4256L913.005 17.32ZM911.925 20.24L911.574 21.1763L912.514 21.529L912.863 20.5869L911.925 20.24ZM909.685 19.56L909.928 18.5899L909.928 18.5899L909.685 19.56ZM901.645 22.88L900.71 22.5266L900.71 22.5266L901.645 22.88ZM901.645 31.72L900.71 32.0734L900.71 32.0734L901.645 31.72ZM903.685 34.44L904.245 33.6117L904.245 33.6117L903.685 34.44ZM910.165 35L909.909 34.0333L909.902 34.0352L910.165 35ZM912.645 34.12H913.645V32.5532L912.224 33.213L912.645 34.12ZM912.645 37.24L913.105 38.1278L913.645 37.8479V37.24H912.645ZM910.245 38.08L910.037 37.1018L910.02 37.1055L910.002 37.1099L910.245 38.08ZM907.125 37.4C905.371 37.4 903.839 37.0429 902.505 36.352L901.585 38.128C903.238 38.9838 905.092 39.4 907.125 39.4V37.4ZM902.511 36.3554C901.243 35.6866 900.22 34.6431 899.451 33.1755L897.679 34.1045C898.616 35.8902 899.914 37.2468 901.579 38.1246L902.511 36.3554ZM899.456 33.1869C898.723 31.7444 898.325 29.8336 898.325 27.4H896.325C896.325 30.0331 896.753 32.2823 897.674 34.093L899.456 33.1869ZM898.325 27.4C898.325 24.8607 898.75 22.8915 899.528 21.4298L897.762 20.4901C896.78 22.3352 896.325 24.6593 896.325 27.4H898.325ZM899.528 21.4298C900.324 19.9343 901.372 18.8776 902.665 18.208L901.745 16.432C900.051 17.3091 898.726 18.679 897.762 20.4901L899.528 21.4298ZM902.658 18.2113C904.021 17.518 905.583 17.16 907.365 17.16V15.16C905.307 15.16 903.429 15.5754 901.752 16.4287L902.658 18.2113ZM907.365 17.16C908.385 17.16 909.36 17.2718 910.295 17.4931L910.755 15.5469C909.663 15.2882 908.532 15.16 907.365 15.16V17.16ZM910.319 17.4985C911.282 17.7014 912.02 17.9455 912.558 18.2144L913.452 16.4256C912.71 16.0545 911.794 15.7653 910.731 15.5414L910.319 17.4985ZM912.067 16.9731L910.987 19.8931L912.863 20.5869L913.943 17.6669L912.067 16.9731ZM912.276 19.3037C911.592 19.0472 910.808 18.8099 909.928 18.5899L909.442 20.5301C910.269 20.7367 910.978 20.9528 911.574 21.1763L912.276 19.3037ZM909.928 18.5899C909.009 18.3601 908.126 18.24 907.285 18.24V20.24C907.937 20.24 908.655 20.3332 909.442 20.5301L909.928 18.5899ZM907.285 18.24C905.706 18.24 904.313 18.5767 903.176 19.3243L904.274 20.9957C905.003 20.5166 905.984 20.24 907.285 20.24V18.24ZM903.176 19.3243C902.041 20.0703 901.226 21.1596 900.71 22.5266L902.58 23.2334C902.971 22.2004 903.543 21.4764 904.274 20.9957L903.176 19.3243ZM900.71 22.5266C900.2 23.8744 899.965 25.4965 899.965 27.36H901.965C901.965 25.6501 902.183 24.2856 902.58 23.2334L900.71 22.5266ZM899.965 27.36C899.965 29.1498 900.202 30.73 900.71 32.0734L902.58 31.3666C902.181 30.31 901.965 28.9835 901.965 27.36H899.965ZM900.71 32.0734C901.223 33.4325 902.019 34.5203 903.125 35.2683L904.245 33.6117C903.538 33.133 902.974 32.4075 902.58 31.3666L900.71 32.0734ZM903.125 35.2683C904.233 36.018 905.574 36.36 907.085 36.36V34.36C905.876 34.36 904.95 34.0887 904.245 33.6117L903.125 35.2683ZM907.085 36.36C908.323 36.36 909.442 36.2337 910.428 35.9648L909.902 34.0352C909.128 34.2463 908.193 34.36 907.085 34.36V36.36ZM910.421 35.9667C911.377 35.7137 912.259 35.4015 913.066 35.027L912.224 33.213C911.537 33.5318 910.767 33.8063 909.909 34.0333L910.421 35.9667ZM911.645 34.12V37.24H913.645V34.12H911.645ZM912.185 36.3522C911.553 36.68 910.839 36.9317 910.037 37.1018L910.453 39.0582C911.411 38.8549 912.297 38.5467 913.105 38.1278L912.185 36.3522ZM910.002 37.1099C909.253 37.2973 908.299 37.4 907.125 37.4V39.4C908.404 39.4 909.531 39.2894 910.488 39.0501L910.002 37.1099ZM932.544 19.52V20.52H933.544V19.52H932.544ZM925.544 19.52V18.52H924.544V19.52H925.544ZM925.544 38V39H926.544V38H925.544ZM922.064 38H921.064V39H922.064V38ZM922.064 19.52H923.064V18.52H922.064V19.52ZM915.144 19.52H914.144V20.52H915.144V19.52ZM915.144 16.56V15.56H914.144V16.56H915.144ZM932.544 16.56H933.544V15.56H932.544V16.56ZM932.544 18.52H925.544V20.52H932.544V18.52ZM924.544 19.52V38H926.544V19.52H924.544ZM925.544 37H922.064V39H925.544V37ZM923.064 38V19.52H921.064V38H923.064ZM922.064 18.52H915.144V20.52H922.064V18.52ZM916.144 19.52V16.56H914.144V19.52H916.144ZM915.144 17.56H932.544V15.56H915.144V17.56ZM931.544 16.56V19.52H933.544V16.56H931.544ZM954.297 32L953.352 31.6729L953.348 31.6838L954.297 32ZM952.297 35.48L951.559 34.8043L951.554 34.8099L951.549 34.8156L952.297 35.48ZM949.137 37.68L949.501 38.6113L949.511 38.6071L949.137 37.68ZM941.097 37.68L940.708 38.6012L940.716 38.6049L940.725 38.6085L941.097 37.68ZM937.977 35.48L937.239 36.1557L937.239 36.1557L937.977 35.48ZM935.897 32L934.952 32.3271L934.955 32.3382L934.959 32.3491L935.897 32ZM936.377 21.24L937.274 21.6813L937.277 21.6756L936.377 21.24ZM939.817 17.48L940.313 18.3483L940.324 18.3415L939.817 17.48ZM950.257 17.48L949.742 18.3375L949.751 18.343L949.76 18.3482L950.257 17.48ZM953.737 21.24L952.842 21.6872L952.846 21.6959L952.851 21.7045L953.737 21.24ZM939.457 31.64L938.51 31.9623L938.514 31.9745L938.519 31.9866L939.457 31.64ZM941.537 34.48L942.118 33.6663L942.118 33.6663L941.537 34.48ZM948.657 34.48L948.075 33.6663L948.075 33.6663L948.657 34.48ZM950.697 31.64L949.756 31.2998L949.752 31.3115L950.697 31.64ZM950.697 22.88L951.632 22.5266L951.632 22.5266L950.697 22.88ZM948.617 20.12L948.024 20.9256L948.037 20.9354L948.051 20.9447L948.617 20.12ZM940.297 21.28L941.121 21.8452L941.121 21.8452L940.297 21.28ZM954.017 27.24C954.017 28.9387 953.788 30.4115 953.352 31.6729L955.242 32.3271C955.765 30.8152 956.017 29.1146 956.017 27.24H954.017ZM953.348 31.6838C952.934 32.924 952.335 33.9579 951.559 34.8043L953.034 36.1557C954.018 35.0821 954.752 33.796 955.245 32.3162L953.348 31.6838ZM951.549 34.8156C950.804 35.6545 949.88 36.3008 948.762 36.7529L949.511 38.6071C950.9 38.0458 952.083 37.2255 953.044 36.1444L951.549 34.8156ZM948.772 36.7488C947.678 37.1769 946.431 37.4 945.017 37.4V39.4C946.642 39.4 948.142 39.1431 949.501 38.6112L948.772 36.7488ZM945.017 37.4C943.719 37.4 942.539 37.18 941.468 36.7515L940.725 38.6085C942.054 39.14 943.488 39.4 945.017 39.4V37.4ZM941.486 36.7588C940.418 36.308 939.497 35.6584 938.714 34.8043L937.239 36.1557C938.217 37.2216 939.375 38.0387 940.708 38.6012L941.486 36.7588ZM938.714 34.8043C937.93 33.9495 937.3 32.904 936.834 31.6509L934.959 32.3491C935.506 33.816 936.263 35.0905 937.239 36.1557L938.714 34.8043ZM936.842 31.6729C936.405 30.4115 936.177 28.9387 936.177 27.24H934.177C934.177 29.1146 934.428 30.8152 934.952 32.3271L936.842 31.6729ZM936.177 27.24C936.177 24.9742 936.559 23.135 937.274 21.6813L935.479 20.7987C934.594 22.5983 934.177 24.7591 934.177 27.24H936.177ZM937.277 21.6756C937.995 20.1909 939.007 19.0945 940.313 18.3482L939.32 16.6118C937.64 17.5722 936.358 18.9824 935.476 20.8044L937.277 21.6756ZM940.324 18.3415C941.637 17.5677 943.229 17.16 945.137 17.16V15.16C942.938 15.16 940.982 15.6323 939.309 16.6185L940.324 18.3415ZM945.137 17.16C946.928 17.16 948.451 17.5631 949.742 18.3375L950.771 16.6225C949.128 15.6369 947.239 15.16 945.137 15.16V17.16ZM949.76 18.3482C951.069 19.0962 952.097 20.1966 952.842 21.6872L954.631 20.7928C953.723 18.9767 952.43 17.5704 950.753 16.6118L949.76 18.3482ZM952.851 21.7045C953.61 23.1522 954.017 24.9827 954.017 27.24H956.017C956.017 24.7507 955.569 22.5811 954.622 20.7755L952.851 21.7045ZM937.817 27.24C937.817 29.0015 938.04 30.5815 938.51 31.9623L940.403 31.3177C940.02 30.1918 939.817 28.8385 939.817 27.24H937.817ZM938.519 31.9866C939.031 33.374 939.837 34.4948 940.955 35.2937L942.118 33.6663C941.37 33.1318 940.788 32.3593 940.395 31.2933L938.519 31.9866ZM940.955 35.2937C942.097 36.1094 943.502 36.48 945.097 36.48V34.48C943.811 34.48 942.843 34.1839 942.118 33.6663L940.955 35.2937ZM945.097 36.48C946.691 36.48 948.096 36.1094 949.238 35.2937L948.075 33.6663C947.351 34.1839 946.382 34.48 945.097 34.48V36.48ZM949.238 35.2937C950.361 34.4913 951.156 33.3637 951.641 31.9685L949.752 31.3115C949.384 32.3696 948.819 33.1354 948.075 33.6663L949.238 35.2937ZM951.637 31.9801C952.138 30.5935 952.377 29.0071 952.377 27.24H950.377C950.377 28.8329 950.161 30.1798 949.756 31.2999L951.637 31.9801ZM952.377 27.24C952.377 25.4502 952.14 23.87 951.632 22.5266L949.761 23.2334C950.16 24.29 950.377 25.6165 950.377 27.24H952.377ZM951.632 22.5266C951.116 21.1619 950.306 20.0659 949.182 19.2953L948.051 20.9447C948.794 21.4541 949.37 22.1981 949.761 23.2334L951.632 22.5266ZM949.209 19.3143C948.085 18.4879 946.672 18.12 945.057 18.12V20.12C946.375 20.12 947.335 20.4188 948.024 20.9256L949.209 19.3143ZM945.057 18.12C942.634 18.12 940.692 18.9334 939.472 20.7148L941.121 21.8452C941.874 20.7466 943.106 20.12 945.057 20.12V18.12ZM939.472 20.7148C938.33 22.3807 937.817 24.5917 937.817 27.24H939.817C939.817 24.8217 940.29 23.0593 941.121 21.8452L939.472 20.7148ZM977.955 7.68L978.952 7.75974L979.039 6.68H977.955V7.68ZM976.955 11.04L976.105 10.5145L976.099 10.5237L976.093 10.533L976.955 11.04ZM974.555 13.08L974.164 12.1597L974.164 12.1597L974.555 13.08ZM966.195 13.08L965.796 13.9967L965.804 14.0003L966.195 13.08ZM963.915 11.08L963.031 11.5479L963.037 11.5589L963.915 11.08ZM963.035 7.68V6.68H961.954L962.038 7.75819L963.035 7.68ZM966.315 7.68L967.311 7.5878L967.227 6.68H966.315V7.68ZM967.435 10.6L966.798 11.371L966.817 11.3859L966.835 11.4L967.435 10.6ZM973.355 10.56L973.945 11.3674L973.951 11.3636L973.355 10.56ZM974.635 7.68V6.68H973.727L973.64 7.58429L974.635 7.68ZM963.875 30.68L962.877 30.6213L962.875 30.6506V30.68H963.875ZM963.835 32.08L964.834 32.1355L964.834 32.1326L963.835 32.08ZM963.755 33.48L964.753 33.5424L964.754 33.5387L963.755 33.48ZM963.675 34.52L962.68 34.4205L964.518 35.0586L963.675 34.52ZM975.155 16.56V15.56H974.608L974.313 16.0214L975.155 16.56ZM979.475 16.56H980.475V15.56H979.475V16.56ZM979.475 38V39H980.475V38H979.475ZM976.195 38H975.195V39H976.195V38ZM976.195 23.68L975.196 23.6416L975.195 23.6608V23.68H976.195ZM976.275 21.64L977.275 21.68L977.275 21.6784L976.275 21.64ZM976.355 20.08L977.352 20.1567L975.512 19.5432L976.355 20.08ZM964.955 38V39H965.504L965.799 38.5368L964.955 38ZM960.595 38H959.595V39H960.595V38ZM960.595 16.56V15.56H959.595V16.56H960.595ZM963.915 16.56H964.915V15.56H963.915V16.56ZM976.958 7.60025C976.861 8.81495 976.563 9.77279 976.105 10.5145L977.806 11.5655C978.468 10.4939 978.836 9.21172 978.952 7.75974L976.958 7.60025ZM976.093 10.533C975.68 11.2361 975.055 11.7811 974.164 12.1597L974.946 14.0003C976.189 13.4722 977.164 12.6572 977.817 11.547L976.093 10.533ZM974.164 12.1597C973.265 12.5417 972.026 12.76 970.395 12.76V14.76C972.178 14.76 973.712 14.525 974.946 14.0003L974.164 12.1597ZM970.395 12.76C968.736 12.76 967.484 12.5411 966.586 12.1597L965.804 14.0003C967.04 14.5256 968.588 14.76 970.395 14.76V12.76ZM966.595 12.1633C965.73 11.7864 965.153 11.2607 964.793 10.6011L963.037 11.5589C963.638 12.6593 964.58 13.4669 965.796 13.9967L966.595 12.1633ZM964.799 10.6121C964.4 9.85903 964.132 8.86815 964.032 7.60181L962.038 7.75819C962.152 9.21185 962.47 10.4876 963.032 11.5479L964.799 10.6121ZM963.035 8.68H966.315V6.68H963.035V8.68ZM965.32 7.7722C965.459 9.28004 965.866 10.6006 966.798 11.371L968.072 9.82904C967.778 9.5861 967.438 8.95996 967.311 7.5878L965.32 7.7722ZM966.835 11.4C967.735 12.0749 969.014 12.32 970.475 12.32V10.32C969.163 10.32 968.415 10.0851 968.035 9.8L966.835 11.4ZM970.475 12.32C971.826 12.32 973.021 12.0426 973.945 11.3674L972.765 9.75261C972.303 10.0907 971.578 10.32 970.475 10.32V12.32ZM973.951 11.3636C974.999 10.5871 975.485 9.2895 975.631 7.77571L973.64 7.58429C973.519 8.84383 973.152 9.46622 972.76 9.75644L973.951 11.3636ZM974.635 8.68H977.955V6.68H974.635V8.68ZM962.915 29.64C962.915 29.8502 962.903 30.1736 962.877 30.6213L964.874 30.7387C964.901 30.2798 964.915 29.9098 964.915 29.64H962.915ZM962.875 30.68C962.875 31.0862 962.863 31.5351 962.837 32.0274L964.834 32.1326C964.861 31.6115 964.875 31.1271 964.875 30.68H962.875ZM962.837 32.0245C962.81 32.5035 962.784 32.9691 962.757 33.4213L964.754 33.5387C964.78 33.0842 964.807 32.6165 964.834 32.1355L962.837 32.0245ZM962.757 33.4176C962.731 33.8382 962.705 34.1712 962.68 34.4205L964.67 34.6195C964.699 34.3355 964.726 33.9751 964.753 33.5424L962.757 33.4176ZM964.518 35.0586L975.998 17.0986L974.313 16.0214L962.833 33.9814L964.518 35.0586ZM975.155 17.56H979.475V15.56H975.155V17.56ZM978.475 16.56V38H980.475V16.56H978.475ZM979.475 37H976.195V39H979.475V37ZM977.195 38V25.36H975.195V38H977.195ZM977.195 25.36C977.195 25.3592 977.195 25.3583 977.195 25.3575C977.195 25.3567 977.195 25.3558 977.195 25.355C977.195 25.3542 977.195 25.3533 977.195 25.3525C977.195 25.3516 977.195 25.3508 977.195 25.35C977.195 25.3491 977.195 25.3483 977.195 25.3475C977.195 25.3466 977.195 25.3458 977.195 25.3449C977.195 25.3441 977.195 25.3433 977.195 25.3424C977.195 25.3416 977.195 25.3407 977.195 25.3399C977.195 25.3391 977.195 25.3382 977.195 25.3374C977.195 25.3365 977.195 25.3357 977.195 25.3348C977.195 25.334 977.195 25.3332 977.195 25.3323C977.195 25.3315 977.195 25.3306 977.195 25.3298C977.195 25.3289 977.195 25.3281 977.195 25.3272C977.195 25.3264 977.195 25.3255 977.195 25.3247C977.195 25.3239 977.195 25.323 977.195 25.3222C977.195 25.3213 977.195 25.3205 977.195 25.3196C977.195 25.3188 977.195 25.3179 977.195 25.3171C977.195 25.3162 977.195 25.3154 977.195 25.3145C977.195 25.3137 977.195 25.3128 977.195 25.3119C977.195 25.3111 977.195 25.3102 977.195 25.3094C977.195 25.3085 977.195 25.3077 977.195 25.3068C977.195 25.306 977.195 25.3051 977.195 25.3043C977.195 25.3034 977.195 25.3025 977.195 25.3017C977.195 25.3008 977.195 25.3 977.195 25.2991C977.195 25.2983 977.195 25.2974 977.195 25.2965C977.195 25.2957 977.195 25.2948 977.195 25.294C977.195 25.2931 977.195 25.2922 977.195 25.2914C977.195 25.2905 977.195 25.2897 977.195 25.2888C977.195 25.2879 977.195 25.2871 977.195 25.2862C977.195 25.2854 977.195 25.2845 977.195 25.2836C977.195 25.2828 977.195 25.2819 977.195 25.281C977.195 25.2802 977.195 25.2793 977.195 25.2784C977.195 25.2776 977.195 25.2767 977.195 25.2758C977.195 25.275 977.195 25.2741 977.195 25.2732C977.195 25.2724 977.195 25.2715 977.195 25.2706C977.195 25.2698 977.195 25.2689 977.195 25.268C977.195 25.2672 977.195 25.2663 977.195 25.2654C977.195 25.2645 977.195 25.2637 977.195 25.2628C977.195 25.2619 977.195 25.2611 977.195 25.2602C977.195 25.2593 977.195 25.2584 977.195 25.2576C977.195 25.2567 977.195 25.2558 977.195 25.2549C977.195 25.2541 977.195 25.2532 977.195 25.2523C977.195 25.2514 977.195 25.2506 977.195 25.2497C977.195 25.2488 977.195 25.2479 977.195 25.247C977.195 25.2462 977.195 25.2453 977.195 25.2444C977.195 25.2435 977.195 25.2427 977.195 25.2418C977.195 25.2409 977.195 25.24 977.195 25.2391C977.195 25.2382 977.195 25.2374 977.195 25.2365C977.195 25.2356 977.195 25.2347 977.195 25.2338C977.195 25.233 977.195 25.2321 977.195 25.2312C977.195 25.2303 977.195 25.2294 977.195 25.2285C977.195 25.2276 977.195 25.2268 977.195 25.2259C977.195 25.225 977.195 25.2241 977.195 25.2232C977.195 25.2223 977.195 25.2214 977.195 25.2205C977.195 25.2197 977.195 25.2188 977.195 25.2179C977.195 25.217 977.195 25.2161 977.195 25.2152C977.195 25.2143 977.195 25.2134 977.195 25.2125C977.195 25.2117 977.195 25.2108 977.195 25.2099C977.195 25.209 977.195 25.2081 977.195 25.2072C977.195 25.2063 977.195 25.2054 977.195 25.2045C977.195 25.2036 977.195 25.2027 977.195 25.2018C977.195 25.2009 977.195 25.2 977.195 25.1991C977.195 25.1982 977.195 25.1973 977.195 25.1964C977.195 25.1955 977.195 25.1946 977.195 25.1937C977.195 25.1929 977.195 25.192 977.195 25.1911C977.195 25.1902 977.195 25.1893 977.195 25.1884C977.195 25.1875 977.195 25.1866 977.195 25.1856C977.195 25.1847 977.195 25.1838 977.195 25.1829C977.195 25.182 977.195 25.1811 977.195 25.1802C977.195 25.1793 977.195 25.1784 977.195 25.1775C977.195 25.1766 977.195 25.1757 977.195 25.1748C977.195 25.1739 977.195 25.173 977.195 25.1721C977.195 25.1712 977.195 25.1703 977.195 25.1694C977.195 25.1685 977.195 25.1676 977.195 25.1666C977.195 25.1657 977.195 25.1648 977.195 25.1639C977.195 25.163 977.195 25.1621 977.195 25.1612C977.195 25.1603 977.195 25.1594 977.195 25.1585C977.195 25.1575 977.195 25.1566 977.195 25.1557C977.195 25.1548 977.195 25.1539 977.195 25.153C977.195 25.1521 977.195 25.1511 977.195 25.1502C977.195 25.1493 977.195 25.1484 977.195 25.1475C977.195 25.1466 977.195 25.1457 977.195 25.1447C977.195 25.1438 977.195 25.1429 977.195 25.142C977.195 25.1411 977.195 25.1402 977.195 25.1392C977.195 25.1383 977.195 25.1374 977.195 25.1365C977.195 25.1356 977.195 25.1346 977.195 25.1337C977.195 25.1328 977.195 25.1319 977.195 25.131C977.195 25.13 977.195 25.1291 977.195 25.1282C977.195 25.1273 977.195 25.1263 977.195 25.1254C977.195 25.1245 977.195 25.1236 977.195 25.1226C977.195 25.1217 977.195 25.1208 977.195 25.1199C977.195 25.1189 977.195 25.118 977.195 25.1171C977.195 25.1162 977.195 25.1152 977.195 25.1143C977.195 25.1134 977.195 25.1124 977.195 25.1115C977.195 25.1106 977.195 25.1097 977.195 25.1087C977.195 25.1078 977.195 25.1069 977.195 25.1059C977.195 25.105 977.195 25.1041 977.195 25.1031C977.195 25.1022 977.195 25.1013 977.195 25.1003C977.195 25.0994 977.195 25.0985 977.195 25.0975C977.195 25.0966 977.195 25.0957 977.195 25.0947C977.195 25.0938 977.195 25.0929 977.195 25.0919C977.195 25.091 977.195 25.0901 977.195 25.0891C977.195 25.0882 977.195 25.0872 977.195 25.0863C977.195 25.0854 977.195 25.0844 977.195 25.0835C977.195 25.0826 977.195 25.0816 977.195 25.0807C977.195 25.0797 977.195 25.0788 977.195 25.0779C977.195 25.0769 977.195 25.076 977.195 25.075C977.195 25.0741 977.195 25.0731 977.195 25.0722C977.195 25.0713 977.195 25.0703 977.195 25.0694C977.195 25.0684 977.195 25.0675 977.195 25.0665C977.195 25.0656 977.195 25.0646 977.195 25.0637C977.195 25.0628 977.195 25.0618 977.195 25.0609C977.195 25.0599 977.195 25.059 977.195 25.058C977.195 25.0571 977.195 25.0561 977.195 25.0552C977.195 25.0542 977.195 25.0533 977.195 25.0523C977.195 25.0514 977.195 25.0504 977.195 25.0495C977.195 25.0485 977.195 25.0476 977.195 25.0466C977.195 25.0457 977.195 25.0447 977.195 25.0438C977.195 25.0428 977.195 25.0418 977.195 25.0409C977.195 25.0399 977.195 25.039 977.195 25.038C977.195 25.0371 977.195 25.0361 977.195 25.0352C977.195 25.0342 977.195 25.0332 977.195 25.0323C977.195 25.0313 977.195 25.0304 977.195 25.0294C977.195 25.0285 977.195 25.0275 977.195 25.0265C977.195 25.0256 977.195 25.0246 977.195 25.0237C977.195 25.0227 977.195 25.0217 977.195 25.0208C977.195 25.0198 977.195 25.0189 977.195 25.0179C977.195 25.0169 977.195 25.016 977.195 25.015C977.195 25.014 977.195 25.0131 977.195 25.0121C977.195 25.0111 977.195 25.0102 977.195 25.0092C977.195 25.0082 977.195 25.0073 977.195 25.0063C977.195 25.0053 977.195 25.0044 977.195 25.0034C977.195 25.0024 977.195 25.0015 977.195 25.0005C977.195 24.9995 977.195 24.9986 977.195 24.9976C977.195 24.9966 977.195 24.9957 977.195 24.9947C977.195 24.9937 977.195 24.9927 977.195 24.9918C977.195 24.9908 977.195 24.9898 977.195 24.9889C977.195 24.9879 977.195 24.9869 977.195 24.9859C977.195 24.985 977.195 24.984 977.195 24.983C977.195 24.982 977.195 24.9811 977.195 24.9801C977.195 24.9791 977.195 24.9781 977.195 24.9772C977.195 24.9762 977.195 24.9752 977.195 24.9742C977.195 24.9733 977.195 24.9723 977.195 24.9713C977.195 24.9703 977.195 24.9693 977.195 24.9684C977.195 24.9674 977.195 24.9664 977.195 24.9654C977.195 24.9644 977.195 24.9635 977.195 24.9625C977.195 24.9615 977.195 24.9605 977.195 24.9595C977.195 24.9585 977.195 24.9576 977.195 24.9566C977.195 24.9556 977.195 24.9546 977.195 24.9536C977.195 24.9526 977.195 24.9517 977.195 24.9507C977.195 24.9497 977.195 24.9487 977.195 24.9477C977.195 24.9467 977.195 24.9457 977.195 24.9447C977.195 24.9438 977.195 24.9428 977.195 24.9418C977.195 24.9408 977.195 24.9398 977.195 24.9388C977.195 24.9378 977.195 24.9368 977.195 24.9358C977.195 24.9348 977.195 24.9339 977.195 24.9329C977.195 24.9319 977.195 24.9309 977.195 24.9299C977.195 24.9289 977.195 24.9279 977.195 24.9269C977.195 24.9259 977.195 24.9249 977.195 24.9239C977.195 24.9229 977.195 24.9219 977.195 24.9209C977.195 24.9199 977.195 24.9189 977.195 24.9179C977.195 24.9169 977.195 24.916 977.195 24.915C977.195 24.914 977.195 24.913 977.195 24.912C977.195 24.911 977.195 24.91 977.195 24.909C977.195 24.908 977.195 24.907 977.195 24.906C977.195 24.905 977.195 24.904 977.195 24.903C977.195 24.902 977.195 24.9009 977.195 24.8999C977.195 24.8989 977.195 24.8979 977.195 24.8969C977.195 24.8959 977.195 24.8949 977.195 24.8939C977.195 24.8929 977.195 24.8919 977.195 24.8909C977.195 24.8899 977.195 24.8889 977.195 24.8879C977.195 24.8869 977.195 24.8859 977.195 24.8849C977.195 24.8838 977.195 24.8828 977.195 24.8818C977.195 24.8808 977.195 24.8798 977.195 24.8788C977.195 24.8778 977.195 24.8768 977.195 24.8758C977.195 24.8748 977.195 24.8737 977.195 24.8727C977.195 24.8717 977.195 24.8707 977.195 24.8697C977.195 24.8687 977.195 24.8677 977.195 24.8667C977.195 24.8656 977.195 24.8646 977.195 24.8636C977.195 24.8626 977.195 24.8616 977.195 24.8606C977.195 24.8595 977.195 24.8585 977.195 24.8575C977.195 24.8565 977.195 24.8555 977.195 24.8545C977.195 24.8534 977.195 24.8524 977.195 24.8514C977.195 24.8504 977.195 24.8494 977.195 24.8483C977.195 24.8473 977.195 24.8463 977.195 24.8453C977.195 24.8443 977.195 24.8432 977.195 24.8422C977.195 24.8412 977.195 24.8402 977.195 24.8391C977.195 24.8381 977.195 24.8371 977.195 24.8361C977.195 24.835 977.195 24.834 977.195 24.833C977.195 24.832 977.195 24.8309 977.195 24.8299C977.195 24.8289 977.195 24.8279 977.195 24.8268C977.195 24.8258 977.195 24.8248 977.195 24.8237C977.195 24.8227 977.195 24.8217 977.195 24.8207C977.195 24.8196 977.195 24.8186 977.195 24.8176C977.195 24.8165 977.195 24.8155 977.195 24.8145C977.195 24.8134 977.195 24.8124 977.195 24.8114C977.195 24.8103 977.195 24.8093 977.195 24.8083C977.195 24.8072 977.195 24.8062 977.195 24.8052C977.195 24.8041 977.195 24.8031 977.195 24.8021C977.195 24.801 977.195 24.8 977.195 24.799C977.195 24.7979 977.195 24.7969 977.195 24.7959C977.195 24.7948 977.195 24.7938 977.195 24.7927C977.195 24.7917 977.195 24.7907 977.195 24.7896C977.195 24.7886 977.195 24.7875 977.195 24.7865C977.195 24.7855 977.195 24.7844 977.195 24.7834C977.195 24.7823 977.195 24.7813 977.195 24.7802C977.195 24.7792 977.195 24.7782 977.195 24.7771C977.195 24.7761 977.195 24.775 977.195 24.774C977.195 24.7729 977.195 24.7719 977.195 24.7708C977.195 24.7698 977.195 24.7688 977.195 24.7677C977.195 24.7667 977.195 24.7656 977.195 24.7646C977.195 24.7635 977.195 24.7625 977.195 24.7614C977.195 24.7604 977.195 24.7593 977.195 24.7583C977.195 24.7572 977.195 24.7562 977.195 24.7551C977.195 24.7541 977.195 24.753 977.195 24.752C977.195 24.7509 977.195 24.7499 977.195 24.7488C977.195 24.7478 977.195 24.7467 977.195 24.7456C977.195 24.7446 977.195 24.7435 977.195 24.7425C977.195 24.7414 977.195 24.7404 977.195 24.7393C977.195 24.7383 977.195 24.7372 977.195 24.7361C977.195 24.7351 977.195 24.734 977.195 24.733C977.195 24.7319 977.195 24.7309 977.195 24.7298C977.195 24.7287 977.195 24.7277 977.195 24.7266C977.195 24.7256 977.195 24.7245 977.195 24.7234C977.195 24.7224 977.195 24.7213 977.195 24.7203C977.195 24.7192 977.195 24.7181 977.195 24.7171C977.195 24.716 977.195 24.7149 977.195 24.7139C977.195 24.7128 977.195 24.7117 977.195 24.7107C977.195 24.7096 977.195 24.7085 977.195 24.7075C977.195 24.7064 977.195 24.7053 977.195 24.7043C977.195 24.7032 977.195 24.7021 977.195 24.7011C977.195 24.7 977.195 24.6989 977.195 24.6979C977.195 24.6968 977.195 24.6957 977.195 24.6947C977.195 24.6936 977.195 24.6925 977.195 24.6914C977.195 24.6904 977.195 24.6893 977.195 24.6882C977.195 24.6872 977.195 24.6861 977.195 24.685C977.195 24.6839 977.195 24.6829 977.195 24.6818C977.195 24.6807 977.195 24.6796 977.195 24.6786C977.195 24.6775 977.195 24.6764 977.195 24.6753C977.195 24.6743 977.195 24.6732 977.195 24.6721C977.195 24.671 977.195 24.67 977.195 24.6689C977.195 24.6678 977.195 24.6667 977.195 24.6656C977.195 24.6646 977.195 24.6635 977.195 24.6624C977.195 24.6613 977.195 24.6602 977.195 24.6592C977.195 24.6581 977.195 24.657 977.195 24.6559C977.195 24.6548 977.195 24.6537 977.195 24.6527C977.195 24.6516 977.195 24.6505 977.195 24.6494C977.195 24.6483 977.195 24.6472 977.195 24.6462C977.195 24.6451 977.195 24.644 977.195 24.6429C977.195 24.6418 977.195 24.6407 977.195 24.6396C977.195 24.6385 977.195 24.6375 977.195 24.6364C977.195 24.6353 977.195 24.6342 977.195 24.6331C977.195 24.632 977.195 24.6309 977.195 24.6298C977.195 24.6287 977.195 24.6276 977.195 24.6266C977.195 24.6255 977.195 24.6244 977.195 24.6233C977.195 24.6222 977.195 24.6211 977.195 24.62C977.195 24.6189 977.195 24.6178 977.195 24.6167C977.195 24.6156 977.195 24.6145 977.195 24.6134C977.195 24.6123 977.195 24.6112 977.195 24.6101C977.195 24.609 977.195 24.6079 977.195 24.6068C977.195 24.6058 977.195 24.6047 977.195 24.6036C977.195 24.6025 977.195 24.6014 977.195 24.6003C977.195 24.5992 977.195 24.5981 977.195 24.597C977.195 24.5959 977.195 24.5948 977.195 24.5937C977.195 24.5925 977.195 24.5914 977.195 24.5903C977.195 24.5892 977.195 24.5881 977.195 24.587C977.195 24.5859 977.195 24.5848 977.195 24.5837C977.195 24.5826 977.195 24.5815 977.195 24.5804C977.195 24.5793 977.195 24.5782 977.195 24.5771C977.195 24.576 977.195 24.5749 977.195 24.5738C977.195 24.5727 977.195 24.5715 977.195 24.5704C977.195 24.5693 977.195 24.5682 977.195 24.5671C977.195 24.566 977.195 24.5649 977.195 24.5638C977.195 24.5627 977.195 24.5616 977.195 24.5604C977.195 24.5593 977.195 24.5582 977.195 24.5571C977.195 24.556 977.195 24.5549 977.195 24.5538C977.195 24.5526 977.195 24.5515 977.195 24.5504C977.195 24.5493 977.195 24.5482 977.195 24.5471C977.195 24.546 977.195 24.5448 977.195 24.5437C977.195 24.5426 977.195 24.5415 977.195 24.5404C977.195 24.5393 977.195 24.5381 977.195 24.537C977.195 24.5359 977.195 24.5348 977.195 24.5337C977.195 24.5325 977.195 24.5314 977.195 24.5303C977.195 24.5292 977.195 24.5281 977.195 24.5269C977.195 24.5258 977.195 24.5247 977.195 24.5236C977.195 24.5224 977.195 24.5213 977.195 24.5202C977.195 24.5191 977.195 24.5179 977.195 24.5168C977.195 24.5157 977.195 24.5146 977.195 24.5134C977.195 24.5123 977.195 24.5112 977.195 24.5101C977.195 24.5089 977.195 24.5078 977.195 24.5067C977.195 24.5055 977.195 24.5044 977.195 24.5033C977.195 24.5022 977.195 24.501 977.195 24.4999C977.195 24.4988 977.195 24.4976 977.195 24.4965C977.195 24.4954 977.195 24.4942 977.195 24.4931C977.195 24.492 977.195 24.4908 977.195 24.4897C977.195 24.4886 977.195 24.4874 977.195 24.4863C977.195 24.4852 977.195 24.484 977.195 24.4829C977.195 24.4818 977.195 24.4806 977.195 24.4795C977.195 24.4784 977.195 24.4772 977.195 24.4761C977.195 24.4749 977.195 24.4738 977.195 24.4727C977.195 24.4715 977.195 24.4704 977.195 24.4693C977.195 24.4681 977.195 24.467 977.195 24.4658C977.195 24.4647 977.195 24.4636 977.195 24.4624C977.195 24.4613 977.195 24.4601 977.195 24.459C977.195 24.4578 977.195 24.4567 977.195 24.4556C977.195 24.4544 977.195 24.4533 977.195 24.4521C977.195 24.451 977.195 24.4498 977.195 24.4487C977.195 24.4475 977.195 24.4464 977.195 24.4452C977.195 24.4441 977.195 24.443 977.195 24.4418C977.195 24.4407 977.195 24.4395 977.195 24.4384C977.195 24.4372 977.195 24.4361 977.195 24.4349C977.195 24.4338 977.195 24.4326 977.195 24.4315C977.195 24.4303 977.195 24.4292 977.195 24.428C977.195 24.4269 977.195 24.4257 977.195 24.4246C977.195 24.4234 977.195 24.4222 977.195 24.4211C977.195 24.4199 977.195 24.4188 977.195 24.4176C977.195 24.4165 977.195 24.4153 977.195 24.4142C977.195 24.413 977.195 24.4119 977.195 24.4107C977.195 24.4095 977.195 24.4084 977.195 24.4072C977.195 24.4061 977.195 24.4049 977.195 24.4037C977.195 24.4026 977.195 24.4014 977.195 24.4003C977.195 24.3991 977.195 24.398 977.195 24.3968C977.195 24.3956 977.195 24.3945 977.195 24.3933C977.195 24.3921 977.195 24.391 977.195 24.3898C977.195 24.3887 977.195 24.3875 977.195 24.3863C977.195 24.3852 977.195 24.384 977.195 24.3828C977.195 24.3817 977.195 24.3805 977.195 24.3793C977.195 24.3782 977.195 24.377 977.195 24.3758C977.195 24.3747 977.195 24.3735 977.195 24.3723C977.195 24.3712 977.195 24.37 977.195 24.3688C977.195 24.3677 977.195 24.3665 977.195 24.3653C977.195 24.3642 977.195 24.363 977.195 24.3618C977.195 24.3606 977.195 24.3595 977.195 24.3583C977.195 24.3571 977.195 24.356 977.195 24.3548C977.195 24.3536 977.195 24.3524 977.195 24.3513C977.195 24.3501 977.195 24.3489 977.195 24.3477C977.195 24.3466 977.195 24.3454 977.195 24.3442C977.195 24.343 977.195 24.3419 977.195 24.3407C977.195 24.3395 977.195 24.3383 977.195 24.3371C977.195 24.336 977.195 24.3348 977.195 24.3336C977.195 24.3324 977.195 24.3312 977.195 24.3301C977.195 24.3289 977.195 24.3277 977.195 24.3265C977.195 24.3253 977.195 24.3242 977.195 24.323C977.195 24.3218 977.195 24.3206 977.195 24.3194C977.195 24.3182 977.195 24.3171 977.195 24.3159C977.195 24.3147 977.195 24.3135 977.195 24.3123C977.195 24.3111 977.195 24.31 977.195 24.3088C977.195 24.3076 977.195 24.3064 977.195 24.3052C977.195 24.304 977.195 24.3028 977.195 24.3016C977.195 24.3005 977.195 24.2993 977.195 24.2981C977.195 24.2969 977.195 24.2957 977.195 24.2945C977.195 24.2933 977.195 24.2921 977.195 24.2909C977.195 24.2897 977.195 24.2886 977.195 24.2874C977.195 24.2862 977.195 24.285 977.195 24.2838C977.195 24.2826 977.195 24.2814 977.195 24.2802C977.195 24.279 977.195 24.2778 977.195 24.2766C977.195 24.2754 977.195 24.2742 977.195 24.273C977.195 24.2718 977.195 24.2706 977.195 24.2694C977.195 24.2682 977.195 24.267 977.195 24.2658C977.195 24.2646 977.195 24.2634 977.195 24.2622C977.195 24.261 977.195 24.2598 977.195 24.2586C977.195 24.2574 977.195 24.2562 977.195 24.255C977.195 24.2538 977.195 24.2526 977.195 24.2514C977.195 24.2502 977.195 24.249 977.195 24.2478C977.195 24.2466 977.195 24.2454 977.195 24.2442C977.195 24.243 977.195 24.2418 977.195 24.2406C977.195 24.2394 977.195 24.2382 977.195 24.237C977.195 24.2358 977.195 24.2346 977.195 24.2334C977.195 24.2322 977.195 24.2309 977.195 24.2297C977.195 24.2285 977.195 24.2273 977.195 24.2261C977.195 24.2249 977.195 24.2237 977.195 24.2225C977.195 24.2213 977.195 24.2201 977.195 24.2188C977.195 24.2176 977.195 24.2164 977.195 24.2152C977.195 24.214 977.195 24.2128 977.195 24.2116C977.195 24.2104 977.195 24.2091 977.195 24.2079C977.195 24.2067 977.195 24.2055 977.195 24.2043C977.195 24.2031 977.195 24.2018 977.195 24.2006C977.195 24.1994 977.195 24.1982 977.195 24.197C977.195 24.1958 977.195 24.1945 977.195 24.1933C977.195 24.1921 977.195 24.1909 977.195 24.1897C977.195 24.1884 977.195 24.1872 977.195 24.186C977.195 24.1848 977.195 24.1836 977.195 24.1823C977.195 24.1811 977.195 24.1799 977.195 24.1787C977.195 24.1774 977.195 24.1762 977.195 24.175C977.195 24.1738 977.195 24.1726 977.195 24.1713C977.195 24.1701 977.195 24.1689 977.195 24.1676C977.195 24.1664 977.195 24.1652 977.195 24.164C977.195 24.1627 977.195 24.1615 977.195 24.1603C977.195 24.1591 977.195 24.1578 977.195 24.1566C977.195 24.1554 977.195 24.1541 977.195 24.1529C977.195 24.1517 977.195 24.1505 977.195 24.1492C977.195 24.148 977.195 24.1468 977.195 24.1455C977.195 24.1443 977.195 24.1431 977.195 24.1418C977.195 24.1406 977.195 24.1394 977.195 24.1381C977.195 24.1369 977.195 24.1357 977.195 24.1344C977.195 24.1332 977.195 24.132 977.195 24.1307C977.195 24.1295 977.195 24.1282 977.195 24.127C977.195 24.1258 977.195 24.1245 977.195 24.1233C977.195 24.1221 977.195 24.1208 977.195 24.1196C977.195 24.1183 977.195 24.1171 977.195 24.1159C977.195 24.1146 977.195 24.1134 977.195 24.1121C977.195 24.1109 977.195 24.1097 977.195 24.1084C977.195 24.1072 977.195 24.1059 977.195 24.1047C977.195 24.1034 977.195 24.1022 977.195 24.101C977.195 24.0997 977.195 24.0985 977.195 24.0972C977.195 24.096 977.195 24.0947 977.195 24.0935C977.195 24.0922 977.195 24.091 977.195 24.0897C977.195 24.0885 977.195 24.0872 977.195 24.086C977.195 24.0847 977.195 24.0835 977.195 24.0822C977.195 24.081 977.195 24.0797 977.195 24.0785C977.195 24.0772 977.195 24.076 977.195 24.0747C977.195 24.0735 977.195 24.0722 977.195 24.071C977.195 24.0697 977.195 24.0685 977.195 24.0672C977.195 24.066 977.195 24.0647 977.195 24.0635C977.195 24.0622 977.195 24.061 977.195 24.0597C977.195 24.0584 977.195 24.0572 977.195 24.0559C977.195 24.0547 977.195 24.0534 977.195 24.0522C977.195 24.0509 977.195 24.0497 977.195 24.0484C977.195 24.0471 977.195 24.0459 977.195 24.0446C977.195 24.0434 977.195 24.0421 977.195 24.0408C977.195 24.0396 977.195 24.0383 977.195 24.0371C977.195 24.0358 977.195 24.0345 977.195 24.0333C977.195 24.032 977.195 24.0307 977.195 24.0295C977.195 24.0282 977.195 24.0269 977.195 24.0257C977.195 24.0244 977.195 24.0232 977.195 24.0219C977.195 24.0206 977.195 24.0194 977.195 24.0181C977.195 24.0168 977.195 24.0156 977.195 24.0143C977.195 24.013 977.195 24.0118 977.195 24.0105C977.195 24.0092 977.195 24.0079 977.195 24.0067C977.195 24.0054 977.195 24.0041 977.195 24.0029C977.195 24.0016 977.195 24.0003 977.195 23.9991C977.195 23.9978 977.195 23.9965 977.195 23.9952C977.195 23.994 977.195 23.9927 977.195 23.9914C977.195 23.9901 977.195 23.9889 977.195 23.9876C977.195 23.9863 977.195 23.985 977.195 23.9838C977.195 23.9825 977.195 23.9812 977.195 23.9799C977.195 23.9787 977.195 23.9774 977.195 23.9761C977.195 23.9748 977.195 23.9735 977.195 23.9723C977.195 23.971 977.195 23.9697 977.195 23.9684C977.195 23.9672 977.195 23.9659 977.195 23.9646C977.195 23.9633 977.195 23.962 977.195 23.9607C977.195 23.9595 977.195 23.9582 977.195 23.9569C977.195 23.9556 977.195 23.9543 977.195 23.953C977.195 23.9518 977.195 23.9505 977.195 23.9492C977.195 23.9479 977.195 23.9466 977.195 23.9453C977.195 23.9441 977.195 23.9428 977.195 23.9415C977.195 23.9402 977.195 23.9389 977.195 23.9376C977.195 23.9363 977.195 23.935 977.195 23.9337C977.195 23.9325 977.195 23.9312 977.195 23.9299C977.195 23.9286 977.195 23.9273 977.195 23.926C977.195 23.9247 977.195 23.9234 977.195 23.9221C977.195 23.9208 977.195 23.9195 977.195 23.9183C977.195 23.917 977.195 23.9157 977.195 23.9144C977.195 23.9131 977.195 23.9118 977.195 23.9105C977.195 23.9092 977.195 23.9079 977.195 23.9066C977.195 23.9053 977.195 23.904 977.195 23.9027C977.195 23.9014 977.195 23.9001 977.195 23.8988C977.195 23.8975 977.195 23.8962 977.195 23.8949C977.195 23.8936 977.195 23.8923 977.195 23.891C977.195 23.8897 977.195 23.8884 977.195 23.8871C977.195 23.8858 977.195 23.8845 977.195 23.8832C977.195 23.8819 977.195 23.8806 977.195 23.8793C977.195 23.878 977.195 23.8767 977.195 23.8754C977.195 23.8741 977.195 23.8728 977.195 23.8715C977.195 23.8702 977.195 23.8689 977.195 23.8676C977.195 23.8663 977.195 23.865 977.195 23.8636C977.195 23.8623 977.195 23.861 977.195 23.8597C977.195 23.8584 977.195 23.8571 977.195 23.8558C977.195 23.8545 977.195 23.8532 977.195 23.8519C977.195 23.8506 977.195 23.8492 977.195 23.8479C977.195 23.8466 977.195 23.8453 977.195 23.844C977.195 23.8427 977.195 23.8414 977.195 23.8401C977.195 23.8387 977.195 23.8374 977.195 23.8361C977.195 23.8348 977.195 23.8335 977.195 23.8322C977.195 23.8309 977.195 23.8295 977.195 23.8282C977.195 23.8269 977.195 23.8256 977.195 23.8243C977.195 23.823 977.195 23.8216 977.195 23.8203C977.195 23.819 977.195 23.8177 977.195 23.8164C977.195 23.815 977.195 23.8137 977.195 23.8124C977.195 23.8111 977.195 23.8098 977.195 23.8084C977.195 23.8071 977.195 23.8058 977.195 23.8045C977.195 23.8031 977.195 23.8018 977.195 23.8005C977.195 23.7992 977.195 23.7979 977.195 23.7965C977.195 23.7952 977.195 23.7939 977.195 23.7926C977.195 23.7912 977.195 23.7899 977.195 23.7886C977.195 23.7872 977.195 23.7859 977.195 23.7846C977.195 23.7833 977.195 23.7819 977.195 23.7806C977.195 23.7793 977.195 23.778 977.195 23.7766C977.195 23.7753 977.195 23.774 977.195 23.7726C977.195 23.7713 977.195 23.77 977.195 23.7686C977.195 23.7673 977.195 23.766 977.195 23.7646C977.195 23.7633 977.195 23.762 977.195 23.7606C977.195 23.7593 977.195 23.758 977.195 23.7566C977.195 23.7553 977.195 23.754 977.195 23.7526C977.195 23.7513 977.195 23.75 977.195 23.7486C977.195 23.7473 977.195 23.7459 977.195 23.7446C977.195 23.7433 977.195 23.7419 977.195 23.7406C977.195 23.7393 977.195 23.7379 977.195 23.7366C977.195 23.7352 977.195 23.7339 977.195 23.7326C977.195 23.7312 977.195 23.7299 977.195 23.7285C977.195 23.7272 977.195 23.7258 977.195 23.7245C977.195 23.7232 977.195 23.7218 977.195 23.7205C977.195 23.7191 977.195 23.7178 977.195 23.7164C977.195 23.7151 977.195 23.7137 977.195 23.7124C977.195 23.7111 977.195 23.7097 977.195 23.7084C977.195 23.707 977.195 23.7057 977.195 23.7043C977.195 23.703 977.195 23.7016 977.195 23.7003C977.195 23.6989 977.195 23.6976 977.195 23.6962C977.195 23.6949 977.195 23.6935 977.195 23.6922C977.195 23.6908 977.195 23.6895 977.195 23.6881C977.195 23.6868 977.195 23.6854 977.195 23.6841C977.195 23.6827 977.195 23.6814 977.195 23.68H975.195C975.195 23.6814 975.195 23.6827 975.195 23.6841C975.195 23.6854 975.195 23.6868 975.195 23.6881C975.195 23.6895 975.195 23.6908 975.195 23.6922C975.195 23.6935 975.195 23.6949 975.195 23.6962C975.195 23.6976 975.195 23.6989 975.195 23.7003C975.195 23.7016 975.195 23.703 975.195 23.7043C975.195 23.7057 975.195 23.707 975.195 23.7084C975.195 23.7097 975.195 23.7111 975.195 23.7124C975.195 23.7137 975.195 23.7151 975.195 23.7164C975.195 23.7178 975.195 23.7191 975.195 23.7205C975.195 23.7218 975.195 23.7232 975.195 23.7245C975.195 23.7258 975.195 23.7272 975.195 23.7285C975.195 23.7299 975.195 23.7312 975.195 23.7326C975.195 23.7339 975.195 23.7352 975.195 23.7366C975.195 23.7379 975.195 23.7393 975.195 23.7406C975.195 23.7419 975.195 23.7433 975.195 23.7446C975.195 23.7459 975.195 23.7473 975.195 23.7486C975.195 23.75 975.195 23.7513 975.195 23.7526C975.195 23.754 975.195 23.7553 975.195 23.7566C975.195 23.758 975.195 23.7593 975.195 23.7606C975.195 23.762 975.195 23.7633 975.195 23.7646C975.195 23.766 975.195 23.7673 975.195 23.7686C975.195 23.77 975.195 23.7713 975.195 23.7726C975.195 23.774 975.195 23.7753 975.195 23.7766C975.195 23.778 975.195 23.7793 975.195 23.7806C975.195 23.7819 975.195 23.7833 975.195 23.7846C975.195 23.7859 975.195 23.7872 975.195 23.7886C975.195 23.7899 975.195 23.7912 975.195 23.7926C975.195 23.7939 975.195 23.7952 975.195 23.7965C975.195 23.7979 975.195 23.7992 975.195 23.8005C975.195 23.8018 975.195 23.8031 975.195 23.8045C975.195 23.8058 975.195 23.8071 975.195 23.8084C975.195 23.8098 975.195 23.8111 975.195 23.8124C975.195 23.8137 975.195 23.815 975.195 23.8164C975.195 23.8177 975.195 23.819 975.195 23.8203C975.195 23.8216 975.195 23.823 975.195 23.8243C975.195 23.8256 975.195 23.8269 975.195 23.8282C975.195 23.8295 975.195 23.8309 975.195 23.8322C975.195 23.8335 975.195 23.8348 975.195 23.8361C975.195 23.8374 975.195 23.8387 975.195 23.8401C975.195 23.8414 975.195 23.8427 975.195 23.844C975.195 23.8453 975.195 23.8466 975.195 23.8479C975.195 23.8492 975.195 23.8506 975.195 23.8519C975.195 23.8532 975.195 23.8545 975.195 23.8558C975.195 23.8571 975.195 23.8584 975.195 23.8597C975.195 23.861 975.195 23.8623 975.195 23.8636C975.195 23.865 975.195 23.8663 975.195 23.8676C975.195 23.8689 975.195 23.8702 975.195 23.8715C975.195 23.8728 975.195 23.8741 975.195 23.8754C975.195 23.8767 975.195 23.878 975.195 23.8793C975.195 23.8806 975.195 23.8819 975.195 23.8832C975.195 23.8845 975.195 23.8858 975.195 23.8871C975.195 23.8884 975.195 23.8897 975.195 23.891C975.195 23.8923 975.195 23.8936 975.195 23.8949C975.195 23.8962 975.195 23.8975 975.195 23.8988C975.195 23.9001 975.195 23.9014 975.195 23.9027C975.195 23.904 975.195 23.9053 975.195 23.9066C975.195 23.9079 975.195 23.9092 975.195 23.9105C975.195 23.9118 975.195 23.9131 975.195 23.9144C975.195 23.9157 975.195 23.917 975.195 23.9183C975.195 23.9195 975.195 23.9208 975.195 23.9221C975.195 23.9234 975.195 23.9247 975.195 23.926C975.195 23.9273 975.195 23.9286 975.195 23.9299C975.195 23.9312 975.195 23.9325 975.195 23.9337C975.195 23.935 975.195 23.9363 975.195 23.9376C975.195 23.9389 975.195 23.9402 975.195 23.9415C975.195 23.9428 975.195 23.9441 975.195 23.9453C975.195 23.9466 975.195 23.9479 975.195 23.9492C975.195 23.9505 975.195 23.9518 975.195 23.953C975.195 23.9543 975.195 23.9556 975.195 23.9569C975.195 23.9582 975.195 23.9595 975.195 23.9607C975.195 23.962 975.195 23.9633 975.195 23.9646C975.195 23.9659 975.195 23.9672 975.195 23.9684C975.195 23.9697 975.195 23.971 975.195 23.9723C975.195 23.9735 975.195 23.9748 975.195 23.9761C975.195 23.9774 975.195 23.9787 975.195 23.9799C975.195 23.9812 975.195 23.9825 975.195 23.9838C975.195 23.985 975.195 23.9863 975.195 23.9876C975.195 23.9889 975.195 23.9901 975.195 23.9914C975.195 23.9927 975.195 23.994 975.195 23.9952C975.195 23.9965 975.195 23.9978 975.195 23.9991C975.195 24.0003 975.195 24.0016 975.195 24.0029C975.195 24.0041 975.195 24.0054 975.195 24.0067C975.195 24.0079 975.195 24.0092 975.195 24.0105C975.195 24.0118 975.195 24.013 975.195 24.0143C975.195 24.0156 975.195 24.0168 975.195 24.0181C975.195 24.0194 975.195 24.0206 975.195 24.0219C975.195 24.0232 975.195 24.0244 975.195 24.0257C975.195 24.0269 975.195 24.0282 975.195 24.0295C975.195 24.0307 975.195 24.032 975.195 24.0333C975.195 24.0345 975.195 24.0358 975.195 24.0371C975.195 24.0383 975.195 24.0396 975.195 24.0408C975.195 24.0421 975.195 24.0434 975.195 24.0446C975.195 24.0459 975.195 24.0471 975.195 24.0484C975.195 24.0497 975.195 24.0509 975.195 24.0522C975.195 24.0534 975.195 24.0547 975.195 24.0559C975.195 24.0572 975.195 24.0584 975.195 24.0597C975.195 24.061 975.195 24.0622 975.195 24.0635C975.195 24.0647 975.195 24.066 975.195 24.0672C975.195 24.0685 975.195 24.0697 975.195 24.071C975.195 24.0722 975.195 24.0735 975.195 24.0747C975.195 24.076 975.195 24.0772 975.195 24.0785C975.195 24.0797 975.195 24.081 975.195 24.0822C975.195 24.0835 975.195 24.0847 975.195 24.086C975.195 24.0872 975.195 24.0885 975.195 24.0897C975.195 24.091 975.195 24.0922 975.195 24.0935C975.195 24.0947 975.195 24.096 975.195 24.0972C975.195 24.0985 975.195 24.0997 975.195 24.101C975.195 24.1022 975.195 24.1034 975.195 24.1047C975.195 24.1059 975.195 24.1072 975.195 24.1084C975.195 24.1097 975.195 24.1109 975.195 24.1121C975.195 24.1134 975.195 24.1146 975.195 24.1159C975.195 24.1171 975.195 24.1183 975.195 24.1196C975.195 24.1208 975.195 24.1221 975.195 24.1233C975.195 24.1245 975.195 24.1258 975.195 24.127C975.195 24.1282 975.195 24.1295 975.195 24.1307C975.195 24.132 975.195 24.1332 975.195 24.1344C975.195 24.1357 975.195 24.1369 975.195 24.1381C975.195 24.1394 975.195 24.1406 975.195 24.1418C975.195 24.1431 975.195 24.1443 975.195 24.1455C975.195 24.1468 975.195 24.148 975.195 24.1492C975.195 24.1505 975.195 24.1517 975.195 24.1529C975.195 24.1541 975.195 24.1554 975.195 24.1566C975.195 24.1578 975.195 24.1591 975.195 24.1603C975.195 24.1615 975.195 24.1627 975.195 24.164C975.195 24.1652 975.195 24.1664 975.195 24.1676C975.195 24.1689 975.195 24.1701 975.195 24.1713C975.195 24.1726 975.195 24.1738 975.195 24.175C975.195 24.1762 975.195 24.1774 975.195 24.1787C975.195 24.1799 975.195 24.1811 975.195 24.1823C975.195 24.1836 975.195 24.1848 975.195 24.186C975.195 24.1872 975.195 24.1884 975.195 24.1897C975.195 24.1909 975.195 24.1921 975.195 24.1933C975.195 24.1945 975.195 24.1958 975.195 24.197C975.195 24.1982 975.195 24.1994 975.195 24.2006C975.195 24.2018 975.195 24.2031 975.195 24.2043C975.195 24.2055 975.195 24.2067 975.195 24.2079C975.195 24.2091 975.195 24.2104 975.195 24.2116C975.195 24.2128 975.195 24.214 975.195 24.2152C975.195 24.2164 975.195 24.2176 975.195 24.2188C975.195 24.2201 975.195 24.2213 975.195 24.2225C975.195 24.2237 975.195 24.2249 975.195 24.2261C975.195 24.2273 975.195 24.2285 975.195 24.2297C975.195 24.2309 975.195 24.2322 975.195 24.2334C975.195 24.2346 975.195 24.2358 975.195 24.237C975.195 24.2382 975.195 24.2394 975.195 24.2406C975.195 24.2418 975.195 24.243 975.195 24.2442C975.195 24.2454 975.195 24.2466 975.195 24.2478C975.195 24.249 975.195 24.2502 975.195 24.2514C975.195 24.2526 975.195 24.2538 975.195 24.255C975.195 24.2562 975.195 24.2574 975.195 24.2586C975.195 24.2598 975.195 24.261 975.195 24.2622C975.195 24.2634 975.195 24.2646 975.195 24.2658C975.195 24.267 975.195 24.2682 975.195 24.2694C975.195 24.2706 975.195 24.2718 975.195 24.273C975.195 24.2742 975.195 24.2754 975.195 24.2766C975.195 24.2778 975.195 24.279 975.195 24.2802C975.195 24.2814 975.195 24.2826 975.195 24.2838C975.195 24.285 975.195 24.2862 975.195 24.2874C975.195 24.2886 975.195 24.2897 975.195 24.2909C975.195 24.2921 975.195 24.2933 975.195 24.2945C975.195 24.2957 975.195 24.2969 975.195 24.2981C975.195 24.2993 975.195 24.3005 975.195 24.3016C975.195 24.3028 975.195 24.304 975.195 24.3052C975.195 24.3064 975.195 24.3076 975.195 24.3088C975.195 24.31 975.195 24.3111 975.195 24.3123C975.195 24.3135 975.195 24.3147 975.195 24.3159C975.195 24.3171 975.195 24.3182 975.195 24.3194C975.195 24.3206 975.195 24.3218 975.195 24.323C975.195 24.3242 975.195 24.3253 975.195 24.3265C975.195 24.3277 975.195 24.3289 975.195 24.3301C975.195 24.3312 975.195 24.3324 975.195 24.3336C975.195 24.3348 975.195 24.336 975.195 24.3371C975.195 24.3383 975.195 24.3395 975.195 24.3407C975.195 24.3419 975.195 24.343 975.195 24.3442C975.195 24.3454 975.195 24.3466 975.195 24.3477C975.195 24.3489 975.195 24.3501 975.195 24.3513C975.195 24.3524 975.195 24.3536 975.195 24.3548C975.195 24.356 975.195 24.3571 975.195 24.3583C975.195 24.3595 975.195 24.3606 975.195 24.3618C975.195 24.363 975.195 24.3642 975.195 24.3653C975.195 24.3665 975.195 24.3677 975.195 24.3688C975.195 24.37 975.195 24.3712 975.195 24.3723C975.195 24.3735 975.195 24.3747 975.195 24.3758C975.195 24.377 975.195 24.3782 975.195 24.3793C975.195 24.3805 975.195 24.3817 975.195 24.3828C975.195 24.384 975.195 24.3852 975.195 24.3863C975.195 24.3875 975.195 24.3887 975.195 24.3898C975.195 24.391 975.195 24.3921 975.195 24.3933C975.195 24.3945 975.195 24.3956 975.195 24.3968C975.195 24.398 975.195 24.3991 975.195 24.4003C975.195 24.4014 975.195 24.4026 975.195 24.4037C975.195 24.4049 975.195 24.4061 975.195 24.4072C975.195 24.4084 975.195 24.4095 975.195 24.4107C975.195 24.4119 975.195 24.413 975.195 24.4142C975.195 24.4153 975.195 24.4165 975.195 24.4176C975.195 24.4188 975.195 24.4199 975.195 24.4211C975.195 24.4222 975.195 24.4234 975.195 24.4246C975.195 24.4257 975.195 24.4269 975.195 24.428C975.195 24.4292 975.195 24.4303 975.195 24.4315C975.195 24.4326 975.195 24.4338 975.195 24.4349C975.195 24.4361 975.195 24.4372 975.195 24.4384C975.195 24.4395 975.195 24.4407 975.195 24.4418C975.195 24.443 975.195 24.4441 975.195 24.4452C975.195 24.4464 975.195 24.4475 975.195 24.4487C975.195 24.4498 975.195 24.451 975.195 24.4521C975.195 24.4533 975.195 24.4544 975.195 24.4556C975.195 24.4567 975.195 24.4578 975.195 24.459C975.195 24.4601 975.195 24.4613 975.195 24.4624C975.195 24.4636 975.195 24.4647 975.195 24.4658C975.195 24.467 975.195 24.4681 975.195 24.4693C975.195 24.4704 975.195 24.4715 975.195 24.4727C975.195 24.4738 975.195 24.4749 975.195 24.4761C975.195 24.4772 975.195 24.4784 975.195 24.4795C975.195 24.4806 975.195 24.4818 975.195 24.4829C975.195 24.484 975.195 24.4852 975.195 24.4863C975.195 24.4874 975.195 24.4886 975.195 24.4897C975.195 24.4908 975.195 24.492 975.195 24.4931C975.195 24.4942 975.195 24.4954 975.195 24.4965C975.195 24.4976 975.195 24.4988 975.195 24.4999C975.195 24.501 975.195 24.5022 975.195 24.5033C975.195 24.5044 975.195 24.5055 975.195 24.5067C975.195 24.5078 975.195 24.5089 975.195 24.5101C975.195 24.5112 975.195 24.5123 975.195 24.5134C975.195 24.5146 975.195 24.5157 975.195 24.5168C975.195 24.5179 975.195 24.5191 975.195 24.5202C975.195 24.5213 975.195 24.5224 975.195 24.5236C975.195 24.5247 975.195 24.5258 975.195 24.5269C975.195 24.5281 975.195 24.5292 975.195 24.5303C975.195 24.5314 975.195 24.5325 975.195 24.5337C975.195 24.5348 975.195 24.5359 975.195 24.537C975.195 24.5381 975.195 24.5393 975.195 24.5404C975.195 24.5415 975.195 24.5426 975.195 24.5437C975.195 24.5448 975.195 24.546 975.195 24.5471C975.195 24.5482 975.195 24.5493 975.195 24.5504C975.195 24.5515 975.195 24.5526 975.195 24.5538C975.195 24.5549 975.195 24.556 975.195 24.5571C975.195 24.5582 975.195 24.5593 975.195 24.5604C975.195 24.5616 975.195 24.5627 975.195 24.5638C975.195 24.5649 975.195 24.566 975.195 24.5671C975.195 24.5682 975.195 24.5693 975.195 24.5704C975.195 24.5715 975.195 24.5727 975.195 24.5738C975.195 24.5749 975.195 24.576 975.195 24.5771C975.195 24.5782 975.195 24.5793 975.195 24.5804C975.195 24.5815 975.195 24.5826 975.195 24.5837C975.195 24.5848 975.195 24.5859 975.195 24.587C975.195 24.5881 975.195 24.5892 975.195 24.5903C975.195 24.5914 975.195 24.5925 975.195 24.5937C975.195 24.5948 975.195 24.5959 975.195 24.597C975.195 24.5981 975.195 24.5992 975.195 24.6003C975.195 24.6014 975.195 24.6025 975.195 24.6036C975.195 24.6047 975.195 24.6058 975.195 24.6068C975.195 24.6079 975.195 24.609 975.195 24.6101C975.195 24.6112 975.195 24.6123 975.195 24.6134C975.195 24.6145 975.195 24.6156 975.195 24.6167C975.195 24.6178 975.195 24.6189 975.195 24.62C975.195 24.6211 975.195 24.6222 975.195 24.6233C975.195 24.6244 975.195 24.6255 975.195 24.6266C975.195 24.6276 975.195 24.6287 975.195 24.6298C975.195 24.6309 975.195 24.632 975.195 24.6331C975.195 24.6342 975.195 24.6353 975.195 24.6364C975.195 24.6375 975.195 24.6385 975.195 24.6396C975.195 24.6407 975.195 24.6418 975.195 24.6429C975.195 24.644 975.195 24.6451 975.195 24.6462C975.195 24.6472 975.195 24.6483 975.195 24.6494C975.195 24.6505 975.195 24.6516 975.195 24.6527C975.195 24.6537 975.195 24.6548 975.195 24.6559C975.195 24.657 975.195 24.6581 975.195 24.6592C975.195 24.6602 975.195 24.6613 975.195 24.6624C975.195 24.6635 975.195 24.6646 975.195 24.6656C975.195 24.6667 975.195 24.6678 975.195 24.6689C975.195 24.67 975.195 24.671 975.195 24.6721C975.195 24.6732 975.195 24.6743 975.195 24.6753C975.195 24.6764 975.195 24.6775 975.195 24.6786C975.195 24.6796 975.195 24.6807 975.195 24.6818C975.195 24.6829 975.195 24.6839 975.195 24.685C975.195 24.6861 975.195 24.6872 975.195 24.6882C975.195 24.6893 975.195 24.6904 975.195 24.6914C975.195 24.6925 975.195 24.6936 975.195 24.6947C975.195 24.6957 975.195 24.6968 975.195 24.6979C975.195 24.6989 975.195 24.7 975.195 24.7011C975.195 24.7021 975.195 24.7032 975.195 24.7043C975.195 24.7053 975.195 24.7064 975.195 24.7075C975.195 24.7085 975.195 24.7096 975.195 24.7107C975.195 24.7117 975.195 24.7128 975.195 24.7139C975.195 24.7149 975.195 24.716 975.195 24.7171C975.195 24.7181 975.195 24.7192 975.195 24.7203C975.195 24.7213 975.195 24.7224 975.195 24.7234C975.195 24.7245 975.195 24.7256 975.195 24.7266C975.195 24.7277 975.195 24.7287 975.195 24.7298C975.195 24.7309 975.195 24.7319 975.195 24.733C975.195 24.734 975.195 24.7351 975.195 24.7361C975.195 24.7372 975.195 24.7383 975.195 24.7393C975.195 24.7404 975.195 24.7414 975.195 24.7425C975.195 24.7435 975.195 24.7446 975.195 24.7456C975.195 24.7467 975.195 24.7478 975.195 24.7488C975.195 24.7499 975.195 24.7509 975.195 24.752C975.195 24.753 975.195 24.7541 975.195 24.7551C975.195 24.7562 975.195 24.7572 975.195 24.7583C975.195 24.7593 975.195 24.7604 975.195 24.7614C975.195 24.7625 975.195 24.7635 975.195 24.7646C975.195 24.7656 975.195 24.7667 975.195 24.7677C975.195 24.7688 975.195 24.7698 975.195 24.7708C975.195 24.7719 975.195 24.7729 975.195 24.774C975.195 24.775 975.195 24.7761 975.195 24.7771C975.195 24.7782 975.195 24.7792 975.195 24.7802C975.195 24.7813 975.195 24.7823 975.195 24.7834C975.195 24.7844 975.195 24.7855 975.195 24.7865C975.195 24.7875 975.195 24.7886 975.195 24.7896C975.195 24.7907 975.195 24.7917 975.195 24.7927C975.195 24.7938 975.195 24.7948 975.195 24.7959C975.195 24.7969 975.195 24.7979 975.195 24.799C975.195 24.8 975.195 24.801 975.195 24.8021C975.195 24.8031 975.195 24.8041 975.195 24.8052C975.195 24.8062 975.195 24.8072 975.195 24.8083C975.195 24.8093 975.195 24.8103 975.195 24.8114C975.195 24.8124 975.195 24.8134 975.195 24.8145C975.195 24.8155 975.195 24.8165 975.195 24.8176C975.195 24.8186 975.195 24.8196 975.195 24.8207C975.195 24.8217 975.195 24.8227 975.195 24.8237C975.195 24.8248 975.195 24.8258 975.195 24.8268C975.195 24.8279 975.195 24.8289 975.195 24.8299C975.195 24.8309 975.195 24.832 975.195 24.833C975.195 24.834 975.195 24.835 975.195 24.8361C975.195 24.8371 975.195 24.8381 975.195 24.8391C975.195 24.8402 975.195 24.8412 975.195 24.8422C975.195 24.8432 975.195 24.8443 975.195 24.8453C975.195 24.8463 975.195 24.8473 975.195 24.8483C975.195 24.8494 975.195 24.8504 975.195 24.8514C975.195 24.8524 975.195 24.8534 975.195 24.8545C975.195 24.8555 975.195 24.8565 975.195 24.8575C975.195 24.8585 975.195 24.8595 975.195 24.8606C975.195 24.8616 975.195 24.8626 975.195 24.8636C975.195 24.8646 975.195 24.8656 975.195 24.8667C975.195 24.8677 975.195 24.8687 975.195 24.8697C975.195 24.8707 975.195 24.8717 975.195 24.8727C975.195 24.8737 975.195 24.8748 975.195 24.8758C975.195 24.8768 975.195 24.8778 975.195 24.8788C975.195 24.8798 975.195 24.8808 975.195 24.8818C975.195 24.8828 975.195 24.8838 975.195 24.8849C975.195 24.8859 975.195 24.8869 975.195 24.8879C975.195 24.8889 975.195 24.8899 975.195 24.8909C975.195 24.8919 975.195 24.8929 975.195 24.8939C975.195 24.8949 975.195 24.8959 975.195 24.8969C975.195 24.8979 975.195 24.8989 975.195 24.8999C975.195 24.9009 975.195 24.902 975.195 24.903C975.195 24.904 975.195 24.905 975.195 24.906C975.195 24.907 975.195 24.908 975.195 24.909C975.195 24.91 975.195 24.911 975.195 24.912C975.195 24.913 975.195 24.914 975.195 24.915C975.195 24.916 975.195 24.9169 975.195 24.9179C975.195 24.9189 975.195 24.9199 975.195 24.9209C975.195 24.9219 975.195 24.9229 975.195 24.9239C975.195 24.9249 975.195 24.9259 975.195 24.9269C975.195 24.9279 975.195 24.9289 975.195 24.9299C975.195 24.9309 975.195 24.9319 975.195 24.9329C975.195 24.9339 975.195 24.9348 975.195 24.9358C975.195 24.9368 975.195 24.9378 975.195 24.9388C975.195 24.9398 975.195 24.9408 975.195 24.9418C975.195 24.9428 975.195 24.9438 975.195 24.9447C975.195 24.9457 975.195 24.9467 975.195 24.9477C975.195 24.9487 975.195 24.9497 975.195 24.9507C975.195 24.9517 975.195 24.9526 975.195 24.9536C975.195 24.9546 975.195 24.9556 975.195 24.9566C975.195 24.9576 975.195 24.9585 975.195 24.9595C975.195 24.9605 975.195 24.9615 975.195 24.9625C975.195 24.9635 975.195 24.9644 975.195 24.9654C975.195 24.9664 975.195 24.9674 975.195 24.9684C975.195 24.9693 975.195 24.9703 975.195 24.9713C975.195 24.9723 975.195 24.9733 975.195 24.9742C975.195 24.9752 975.195 24.9762 975.195 24.9772C975.195 24.9781 975.195 24.9791 975.195 24.9801C975.195 24.9811 975.195 24.982 975.195 24.983C975.195 24.984 975.195 24.985 975.195 24.9859C975.195 24.9869 975.195 24.9879 975.195 24.9889C975.195 24.9898 975.195 24.9908 975.195 24.9918C975.195 24.9927 975.195 24.9937 975.195 24.9947C975.195 24.9957 975.195 24.9966 975.195 24.9976C975.195 24.9986 975.195 24.9995 975.195 25.0005C975.195 25.0015 975.195 25.0024 975.195 25.0034C975.195 25.0044 975.195 25.0053 975.195 25.0063C975.195 25.0073 975.195 25.0082 975.195 25.0092C975.195 25.0102 975.195 25.0111 975.195 25.0121C975.195 25.0131 975.195 25.014 975.195 25.015C975.195 25.016 975.195 25.0169 975.195 25.0179C975.195 25.0189 975.195 25.0198 975.195 25.0208C975.195 25.0217 975.195 25.0227 975.195 25.0237C975.195 25.0246 975.195 25.0256 975.195 25.0265C975.195 25.0275 975.195 25.0285 975.195 25.0294C975.195 25.0304 975.195 25.0313 975.195 25.0323C975.195 25.0332 975.195 25.0342 975.195 25.0352C975.195 25.0361 975.195 25.0371 975.195 25.038C975.195 25.039 975.195 25.0399 975.195 25.0409C975.195 25.0418 975.195 25.0428 975.195 25.0438C975.195 25.0447 975.195 25.0457 975.195 25.0466C975.195 25.0476 975.195 25.0485 975.195 25.0495C975.195 25.0504 975.195 25.0514 975.195 25.0523C975.195 25.0533 975.195 25.0542 975.195 25.0552C975.195 25.0561 975.195 25.0571 975.195 25.058C975.195 25.059 975.195 25.0599 975.195 25.0609C975.195 25.0618 975.195 25.0628 975.195 25.0637C975.195 25.0646 975.195 25.0656 975.195 25.0665C975.195 25.0675 975.195 25.0684 975.195 25.0694C975.195 25.0703 975.195 25.0713 975.195 25.0722C975.195 25.0731 975.195 25.0741 975.195 25.075C975.195 25.076 975.195 25.0769 975.195 25.0779C975.195 25.0788 975.195 25.0797 975.195 25.0807C975.195 25.0816 975.195 25.0826 975.195 25.0835C975.195 25.0844 975.195 25.0854 975.195 25.0863C975.195 25.0872 975.195 25.0882 975.195 25.0891C975.195 25.0901 975.195 25.091 975.195 25.0919C975.195 25.0929 975.195 25.0938 975.195 25.0947C975.195 25.0957 975.195 25.0966 975.195 25.0975C975.195 25.0985 975.195 25.0994 975.195 25.1003C975.195 25.1013 975.195 25.1022 975.195 25.1031C975.195 25.1041 975.195 25.105 975.195 25.1059C975.195 25.1069 975.195 25.1078 975.195 25.1087C975.195 25.1097 975.195 25.1106 975.195 25.1115C975.195 25.1124 975.195 25.1134 975.195 25.1143C975.195 25.1152 975.195 25.1162 975.195 25.1171C975.195 25.118 975.195 25.1189 975.195 25.1199C975.195 25.1208 975.195 25.1217 975.195 25.1226C975.195 25.1236 975.195 25.1245 975.195 25.1254C975.195 25.1263 975.195 25.1273 975.195 25.1282C975.195 25.1291 975.195 25.13 975.195 25.131C975.195 25.1319 975.195 25.1328 975.195 25.1337C975.195 25.1346 975.195 25.1356 975.195 25.1365C975.195 25.1374 975.195 25.1383 975.195 25.1392C975.195 25.1402 975.195 25.1411 975.195 25.142C975.195 25.1429 975.195 25.1438 975.195 25.1447C975.195 25.1457 975.195 25.1466 975.195 25.1475C975.195 25.1484 975.195 25.1493 975.195 25.1502C975.195 25.1511 975.195 25.1521 975.195 25.153C975.195 25.1539 975.195 25.1548 975.195 25.1557C975.195 25.1566 975.195 25.1575 975.195 25.1585C975.195 25.1594 975.195 25.1603 975.195 25.1612C975.195 25.1621 975.195 25.163 975.195 25.1639C975.195 25.1648 975.195 25.1657 975.195 25.1666C975.195 25.1676 975.195 25.1685 975.195 25.1694C975.195 25.1703 975.195 25.1712 975.195 25.1721C975.195 25.173 975.195 25.1739 975.195 25.1748C975.195 25.1757 975.195 25.1766 975.195 25.1775C975.195 25.1784 975.195 25.1793 975.195 25.1802C975.195 25.1811 975.195 25.182 975.195 25.1829C975.195 25.1838 975.195 25.1847 975.195 25.1856C975.195 25.1866 975.195 25.1875 975.195 25.1884C975.195 25.1893 975.195 25.1902 975.195 25.1911C975.195 25.192 975.195 25.1929 975.195 25.1937C975.195 25.1946 975.195 25.1955 975.195 25.1964C975.195 25.1973 975.195 25.1982 975.195 25.1991C975.195 25.2 975.195 25.2009 975.195 25.2018C975.195 25.2027 975.195 25.2036 975.195 25.2045C975.195 25.2054 975.195 25.2063 975.195 25.2072C975.195 25.2081 975.195 25.209 975.195 25.2099C975.195 25.2108 975.195 25.2117 975.195 25.2125C975.195 25.2134 975.195 25.2143 975.195 25.2152C975.195 25.2161 975.195 25.217 975.195 25.2179C975.195 25.2188 975.195 25.2197 975.195 25.2205C975.195 25.2214 975.195 25.2223 975.195 25.2232C975.195 25.2241 975.195 25.225 975.195 25.2259C975.195 25.2268 975.195 25.2276 975.195 25.2285C975.195 25.2294 975.195 25.2303 975.195 25.2312C975.195 25.2321 975.195 25.233 975.195 25.2338C975.195 25.2347 975.195 25.2356 975.195 25.2365C975.195 25.2374 975.195 25.2382 975.195 25.2391C975.195 25.24 975.195 25.2409 975.195 25.2418C975.195 25.2427 975.195 25.2435 975.195 25.2444C975.195 25.2453 975.195 25.2462 975.195 25.247C975.195 25.2479 975.195 25.2488 975.195 25.2497C975.195 25.2506 975.195 25.2514 975.195 25.2523C975.195 25.2532 975.195 25.2541 975.195 25.2549C975.195 25.2558 975.195 25.2567 975.195 25.2576C975.195 25.2584 975.195 25.2593 975.195 25.2602C975.195 25.2611 975.195 25.2619 975.195 25.2628C975.195 25.2637 975.195 25.2645 975.195 25.2654C975.195 25.2663 975.195 25.2672 975.195 25.268C975.195 25.2689 975.195 25.2698 975.195 25.2706C975.195 25.2715 975.195 25.2724 975.195 25.2732C975.195 25.2741 975.195 25.275 975.195 25.2758C975.195 25.2767 975.195 25.2776 975.195 25.2784C975.195 25.2793 975.195 25.2802 975.195 25.281C975.195 25.2819 975.195 25.2828 975.195 25.2836C975.195 25.2845 975.195 25.2854 975.195 25.2862C975.195 25.2871 975.195 25.2879 975.195 25.2888C975.195 25.2897 975.195 25.2905 975.195 25.2914C975.195 25.2922 975.195 25.2931 975.195 25.294C975.195 25.2948 975.195 25.2957 975.195 25.2965C975.195 25.2974 975.195 25.2983 975.195 25.2991C975.195 25.3 975.195 25.3008 975.195 25.3017C975.195 25.3025 975.195 25.3034 975.195 25.3043C975.195 25.3051 975.195 25.306 975.195 25.3068C975.195 25.3077 975.195 25.3085 975.195 25.3094C975.195 25.3102 975.195 25.3111 975.195 25.3119C975.195 25.3128 975.195 25.3137 975.195 25.3145C975.195 25.3154 975.195 25.3162 975.195 25.3171C975.195 25.3179 975.195 25.3188 975.195 25.3196C975.195 25.3205 975.195 25.3213 975.195 25.3222C975.195 25.323 975.195 25.3239 975.195 25.3247C975.195 25.3255 975.195 25.3264 975.195 25.3272C975.195 25.3281 975.195 25.3289 975.195 25.3298C975.195 25.3306 975.195 25.3315 975.195 25.3323C975.195 25.3332 975.195 25.334 975.195 25.3348C975.195 25.3357 975.195 25.3365 975.195 25.3374C975.195 25.3382 975.195 25.3391 975.195 25.3399C975.195 25.3407 975.195 25.3416 975.195 25.3424C975.195 25.3433 975.195 25.3441 975.195 25.3449C975.195 25.3458 975.195 25.3466 975.195 25.3475C975.195 25.3483 975.195 25.3491 975.195 25.35C975.195 25.3508 975.195 25.3516 975.195 25.3525C975.195 25.3533 975.195 25.3542 975.195 25.355C975.195 25.3558 975.195 25.3567 975.195 25.3575C975.195 25.3583 975.195 25.3592 975.195 25.36H977.195ZM977.195 23.7184C977.221 23.0256 977.248 22.3461 977.275 21.68L975.276 21.6C975.249 22.2672 975.223 22.9477 975.196 23.6416L977.195 23.7184ZM977.275 21.6784C977.301 20.988 977.327 20.4836 977.352 20.1567L975.358 20.0033C975.33 20.3698 975.303 20.9054 975.276 21.6016L977.275 21.6784ZM975.512 19.5432L964.112 37.4632L965.799 38.5368L977.199 20.6168L975.512 19.5432ZM964.955 37H960.595V39H964.955V37ZM961.595 38V16.56H959.595V38H961.595ZM960.595 17.56H963.915V15.56H960.595V17.56ZM962.915 16.56V29.64H964.915V16.56H962.915Z" fill="black"/>
<line y1="-1.5" x2="158.301" y2="-1.5" transform="matrix(-0.999985 -0.00541203 -0.00821176 0.999966 951 46.2727)" stroke="black" stroke-width="3"/>
<line y1="-1.5" x2="12.3" y2="-1.5" transform="matrix(0 1 1 0 795.603 43)" stroke="black" stroke-width="3"/>
<line y1="-1.5" x2="12.3" y2="-1.5" transform="matrix(0 1 1 0 780.763 53)" stroke="black" stroke-width="3"/>
<line y1="-1.5" x2="15.865" y2="-1.5" transform="matrix(-1 0 0 1 795.109 56)" stroke="black" stroke-width="3"/>
<path d="M780.763 65H764.898" stroke="black" stroke-width="3"/>
<path d="M8.066 341.5C9.64899 307.833 37.9318 239.4 138.399 235C238.866 230.6 551.383 214.5 695.083 207C754.358 207 872.167 174.7 869.212 45.5" stroke="black" stroke-width="3"/>
<path d="M8.70711 343.707C8.31658 344.098 7.68342 344.098 7.29289 343.707L0.928932 337.343C0.538408 336.953 0.538408 336.319 0.928932 335.929C1.31946 335.538 1.95262 335.538 2.34315 335.929L8 341.586L13.6569 335.929C14.0474 335.538 14.6805 335.538 15.0711 335.929C15.4616 336.319 15.4616 336.953 15.0711 337.343L8.70711 343.707ZM9 337V343H7V337H9Z" fill="black"/>
</svg>
