<svg width="1003" height="345" viewBox="0 0 1003 345" fill="none" xmlns="http://www.w3.org/2000/svg">
<path d="M28.17 28H2.91V6.58H5.61V25.6H14.16V6.58H16.86V25.6H25.44V6.58H28.17V28ZM39.7533 11.65C41.7133 11.65 43.1633 12.08 44.1033 12.94C45.0433 13.8 45.5133 15.17 45.5133 17.05V28H43.5933L43.0833 25.72H42.9633C42.5033 26.3 42.0233 26.79 41.5233 27.19C41.0433 27.57 40.4833 27.85 39.8433 28.03C39.2233 28.21 38.4633 28.3 37.5633 28.3C36.6033 28.3 35.7333 28.13 34.9533 27.79C34.1933 27.45 33.5933 26.93 33.1533 26.23C32.7133 25.51 32.4933 24.61 32.4933 23.53C32.4933 21.93 33.1233 20.7 34.3833 19.84C35.6433 18.96 37.5833 18.48 40.2033 18.4L42.9333 18.31V17.35C42.9333 16.01 42.6433 15.08 42.0633 14.56C41.4833 14.04 40.6633 13.78 39.6033 13.78C38.7633 13.78 37.9633 13.91 37.2033 14.17C36.4433 14.41 35.7333 14.69 35.0733 15.01L34.2633 13.03C34.9633 12.65 35.7933 12.33 36.7533 12.07C37.7133 11.79 38.7133 11.65 39.7533 11.65ZM40.5333 20.23C38.5333 20.31 37.1433 20.63 36.3633 21.19C35.6033 21.75 35.2233 22.54 35.2233 23.56C35.2233 24.46 35.4933 25.12 36.0333 25.54C36.5933 25.96 37.3033 26.17 38.1633 26.17C39.5233 26.17 40.6533 25.8 41.5533 25.06C42.4533 24.3 42.9033 23.14 42.9033 21.58V20.14L40.5333 20.23ZM60.2897 11.92V14.14H53.1197V28H50.4797V11.92H60.2897ZM76.207 28.3C74.787 28.3 73.517 28.01 72.397 27.43C71.297 26.85 70.427 25.95 69.787 24.73C69.167 23.51 68.857 21.95 68.857 20.05C68.857 18.07 69.187 16.46 69.847 15.22C70.507 13.98 71.397 13.07 72.517 12.49C73.657 11.91 74.947 11.62 76.387 11.62C77.207 11.62 77.997 11.71 78.757 11.89C79.517 12.05 80.137 12.25 80.617 12.49L79.807 14.68C79.327 14.5 78.767 14.33 78.127 14.17C77.487 14.01 76.887 13.93 76.327 13.93C75.247 13.93 74.357 14.16 73.657 14.62C72.957 15.08 72.437 15.76 72.097 16.66C71.757 17.56 71.587 18.68 71.587 20.02C71.587 21.3 71.757 22.39 72.097 23.29C72.437 24.19 72.947 24.87 73.627 25.33C74.307 25.79 75.157 26.02 76.177 26.02C77.057 26.02 77.827 25.93 78.487 25.75C79.167 25.57 79.787 25.35 80.347 25.09V27.43C79.807 27.71 79.207 27.92 78.547 28.06C77.907 28.22 77.127 28.3 76.207 28.3ZM90.3811 11.62C91.7611 11.62 92.9411 11.92 93.9211 12.52C94.9211 13.12 95.6811 13.97 96.2011 15.07C96.7411 16.15 97.0111 17.42 97.0111 18.88V20.47H86.0011C86.0411 22.29 86.5011 23.68 87.3811 24.64C88.2811 25.58 89.5311 26.05 91.1311 26.05C92.1511 26.05 93.0511 25.96 93.8311 25.78C94.6311 25.58 95.4511 25.3 96.2911 24.94V27.25C95.4711 27.61 94.6611 27.87 93.8611 28.03C93.0611 28.21 92.1111 28.3 91.0111 28.3C89.4911 28.3 88.1411 27.99 86.9611 27.37C85.8011 26.75 84.8911 25.83 84.2311 24.61C83.5911 23.37 83.2711 21.86 83.2711 20.08C83.2711 18.32 83.5611 16.81 84.1411 15.55C84.7411 14.29 85.5711 13.32 86.6311 12.64C87.7111 11.96 88.9611 11.62 90.3811 11.62ZM90.3511 13.78C89.0911 13.78 88.0911 14.19 87.3511 15.01C86.6311 15.81 86.2011 16.93 86.0611 18.37H94.2511C94.2511 17.45 94.1111 16.65 93.8311 15.97C93.5511 15.29 93.1211 14.76 92.5411 14.38C91.9811 13.98 91.2511 13.78 90.3511 13.78ZM113.045 11.92V25.78H115.385V33.58H112.835V28H101.645V33.58H99.1247V25.78H100.415C101.335 24.5 102.095 23.11 102.695 21.61C103.315 20.09 103.775 18.51 104.075 16.87C104.395 15.21 104.565 13.56 104.585 11.92H113.045ZM106.925 13.99C106.845 15.35 106.635 16.76 106.295 18.22C105.955 19.66 105.515 21.04 104.975 22.36C104.455 23.68 103.845 24.82 103.145 25.78H110.495V13.99H106.925ZM125.946 18.52C127.346 18.52 128.506 18.69 129.426 19.03C130.346 19.37 131.036 19.88 131.496 20.56C131.976 21.22 132.216 22.06 132.216 23.08C132.216 24.08 131.986 24.95 131.526 25.69C131.086 26.43 130.396 27 129.456 27.4C128.516 27.8 127.306 28 125.826 28H118.536V11.92H121.176V18.52H125.946ZM129.576 23.23C129.576 22.25 129.226 21.59 128.526 21.25C127.846 20.89 126.886 20.71 125.646 20.71H121.176V25.87H125.706C126.826 25.87 127.746 25.67 128.466 25.27C129.206 24.87 129.576 24.19 129.576 23.23ZM153.599 11.92V28H151.229V17.74C151.229 17.32 151.239 16.88 151.259 16.42C151.299 15.96 151.339 15.51 151.379 15.07H151.289L146.039 28H143.819L138.719 15.07H138.629C138.669 15.51 138.689 15.96 138.689 16.42C138.709 16.88 138.719 17.35 138.719 17.83V28H136.349V11.92H139.859L144.929 24.85L150.089 11.92H153.599ZM172.712 19.93C172.712 21.27 172.532 22.46 172.172 23.5C171.832 24.52 171.332 25.39 170.672 26.11C170.032 26.83 169.242 27.38 168.302 27.76C167.382 28.12 166.352 28.3 165.212 28.3C164.152 28.3 163.172 28.12 162.272 27.76C161.372 27.38 160.592 26.83 159.932 26.11C159.272 25.39 158.752 24.52 158.372 23.5C158.012 22.46 157.832 21.27 157.832 19.93C157.832 18.15 158.132 16.65 158.732 15.43C159.332 14.19 160.192 13.25 161.312 12.61C162.432 11.95 163.762 11.62 165.302 11.62C166.762 11.62 168.042 11.95 169.142 12.61C170.262 13.25 171.132 14.19 171.752 15.43C172.392 16.65 172.712 18.15 172.712 19.93ZM160.562 19.93C160.562 21.19 160.722 22.29 161.042 23.23C161.382 24.15 161.902 24.86 162.602 25.36C163.302 25.86 164.192 26.11 165.272 26.11C166.352 26.11 167.242 25.86 167.942 25.36C168.642 24.86 169.152 24.15 169.472 23.23C169.812 22.29 169.982 21.19 169.982 19.93C169.982 18.65 169.812 17.56 169.472 16.66C169.132 15.76 168.612 15.07 167.912 14.59C167.232 14.09 166.342 13.84 165.242 13.84C163.602 13.84 162.412 14.38 161.672 15.46C160.932 16.54 160.562 18.03 160.562 19.93ZM189.916 5.26C189.836 6.26 189.586 7.1 189.166 7.78C188.766 8.46 188.166 8.97 187.366 9.31C186.566 9.65 185.526 9.82 184.246 9.82C182.946 9.82 181.896 9.65 181.096 9.31C180.316 8.97 179.746 8.47 179.386 7.81C179.026 7.13 178.806 6.28 178.726 5.26H181.186C181.286 6.34 181.566 7.07 182.026 7.45C182.506 7.81 183.266 7.99 184.306 7.99C185.226 7.99 185.946 7.8 186.466 7.42C187.006 7.02 187.326 6.3 187.426 5.26H189.916ZM179.386 21.73C179.386 21.91 179.376 22.17 179.356 22.51C179.356 22.83 179.346 23.18 179.326 23.56C179.306 23.92 179.286 24.27 179.266 24.61C179.246 24.93 179.226 25.19 179.206 25.39L187.816 11.92H191.056V28H188.596V18.52C188.596 18.2 188.596 17.78 188.596 17.26C188.616 16.74 188.636 16.23 188.656 15.73C188.676 15.21 188.696 14.82 188.716 14.56L180.166 28H176.896V11.92H179.386V21.73Z" fill="black"/>
<path d="M28.17 28V29H29.17V28H28.17ZM2.91 28H1.91V29H2.91V28ZM2.91 6.58V5.58H1.91V6.58H2.91ZM5.61 6.58H6.61V5.58H5.61V6.58ZM5.61 25.6H4.61V26.6H5.61V25.6ZM14.16 25.6V26.6H15.16V25.6H14.16ZM14.16 6.58V5.58H13.16V6.58H14.16ZM16.86 6.58H17.86V5.58H16.86V6.58ZM16.86 25.6H15.86V26.6H16.86V25.6ZM25.44 25.6V26.6H26.44V25.6H25.44ZM25.44 6.58V5.58H24.44V6.58H25.44ZM28.17 6.58H29.17V5.58H28.17V6.58ZM28.17 27H2.91V29H28.17V27ZM3.91 28V6.58H1.91V28H3.91ZM2.91 7.58H5.61V5.58H2.91V7.58ZM4.61 6.58V25.6H6.61V6.58H4.61ZM5.61 26.6H14.16V24.6H5.61V26.6ZM15.16 25.6V6.58H13.16V25.6H15.16ZM14.16 7.58H16.86V5.58H14.16V7.58ZM15.86 6.58V25.6H17.86V6.58H15.86ZM16.86 26.6H25.44V24.6H16.86V26.6ZM26.44 25.6V6.58H24.44V25.6H26.44ZM25.44 7.58H28.17V5.58H25.44V7.58ZM27.17 6.58V28H29.17V6.58H27.17ZM44.1033 12.94L44.7783 12.2022L44.7783 12.2022L44.1033 12.94ZM45.5133 28V29H46.5133V28H45.5133ZM43.5933 28L42.6174 28.2183L42.7923 29H43.5933V28ZM43.0833 25.72L44.0592 25.5017L43.8843 24.72H43.0833V25.72ZM42.9633 25.72V24.72H42.4801L42.1798 25.0986L42.9633 25.72ZM41.5233 27.19L42.144 27.9741L42.148 27.9709L41.5233 27.19ZM39.8433 28.03L39.5725 27.0673L39.5645 27.0697L39.8433 28.03ZM34.9533 27.79L34.5449 28.7029L34.5537 28.7067L34.9533 27.79ZM33.1533 26.23L32.2999 26.7515L32.3066 26.7622L33.1533 26.23ZM34.3833 19.84L34.9471 20.666L34.9559 20.6598L34.3833 19.84ZM40.2033 18.4L40.2338 19.3995L40.2362 19.3995L40.2033 18.4ZM42.9333 18.31L42.9662 19.3095L43.9333 19.2776V18.31H42.9333ZM42.0633 14.56L41.3957 15.3046L41.3957 15.3046L42.0633 14.56ZM37.2033 14.17L37.5044 15.1236L37.5157 15.12L37.527 15.1162L37.2033 14.17ZM35.0733 15.01L34.1477 15.3886L34.5511 16.3745L35.5096 15.9098L35.0733 15.01ZM34.2633 13.03L33.7862 12.1511L32.9983 12.5789L33.3377 13.4086L34.2633 13.03ZM36.7533 12.07L37.0147 13.0352L37.024 13.0327L37.0333 13.03L36.7533 12.07ZM40.5333 20.23L40.4953 19.2307L40.4933 19.2308L40.5333 20.23ZM36.3633 21.19L35.78 20.3776L35.7701 20.3849L36.3633 21.19ZM36.0333 25.54L35.4193 26.3294L35.4263 26.3347L35.4333 26.34L36.0333 25.54ZM41.5533 25.06L42.1884 25.8325L42.1985 25.824L41.5533 25.06ZM42.9033 20.14H43.9033V19.1013L42.8653 19.1407L42.9033 20.14ZM39.7533 12.65C41.5933 12.65 42.7501 13.0573 43.4283 13.6778L44.7783 12.2022C43.5765 11.1027 41.8333 10.65 39.7533 10.65V12.65ZM43.4283 13.6778C44.0793 14.2734 44.5133 15.316 44.5133 17.05H46.5133C46.5133 15.024 46.0073 13.3266 44.7783 12.2022L43.4283 13.6778ZM44.5133 17.05V28H46.5133V17.05H44.5133ZM45.5133 27H43.5933V29H45.5133V27ZM44.5692 27.7817L44.0592 25.5017L42.1074 25.9383L42.6174 28.2183L44.5692 27.7817ZM43.0833 24.72H42.9633V26.72H43.0833V24.72ZM42.1798 25.0986C41.7595 25.6286 41.3315 26.0628 40.8986 26.4091L42.148 27.9709C42.715 27.5172 43.2471 26.9714 43.7468 26.3414L42.1798 25.0986ZM40.9026 26.406C40.5349 26.697 40.0963 26.9201 39.5725 27.0673L40.114 28.9927C40.8703 28.7799 41.5517 28.443 42.144 27.974L40.9026 26.406ZM39.5645 27.0697C39.0629 27.2153 38.4031 27.3 37.5633 27.3V29.3C38.5235 29.3 39.3837 29.2047 40.1221 28.9903L39.5645 27.0697ZM37.5633 27.3C36.7232 27.3 35.9916 27.1517 35.3529 26.8733L34.5537 28.7067C35.475 29.1083 36.4834 29.3 37.5633 29.3V27.3ZM35.3616 26.8772C34.7808 26.6173 34.3339 26.2292 33.9999 25.6978L32.3066 26.7622C32.8527 27.6308 33.6057 28.2827 34.5449 28.7028L35.3616 26.8772ZM34.0066 25.7085C33.6859 25.1839 33.4933 24.4768 33.4933 23.53H31.4933C31.4933 24.7432 31.7406 25.8361 32.3 26.7514L34.0066 25.7085ZM33.4933 23.53C33.4933 22.2413 33.9755 21.3291 34.947 20.6659L33.8195 19.014C32.2711 20.0709 31.4933 21.6187 31.4933 23.53H33.4933ZM34.9559 20.6598C35.9796 19.9448 37.6864 19.4773 40.2338 19.3995L40.1728 17.4005C37.4802 17.4827 35.3069 17.9752 33.8107 19.0202L34.9559 20.6598ZM40.2362 19.3995L42.9662 19.3095L42.9003 17.3105L40.1703 17.4005L40.2362 19.3995ZM43.9333 18.31V17.35H41.9333V18.31H43.9333ZM43.9333 17.35C43.9333 15.9199 43.6332 14.6245 42.7308 13.8154L41.3957 15.3046C41.6534 15.5355 41.9333 16.1001 41.9333 17.35H43.9333ZM42.7308 13.8154C41.9101 13.0796 40.82 12.78 39.6033 12.78V14.78C40.5066 14.78 41.0565 15.0004 41.3957 15.3046L42.7308 13.8154ZM39.6033 12.78C38.6582 12.78 37.7485 12.9266 36.8796 13.2238L37.527 15.1162C38.1781 14.8934 38.8683 14.78 39.6033 14.78V12.78ZM36.9022 13.2164C36.0998 13.4698 35.3443 13.7673 34.637 14.1102L35.5096 15.9098C36.1223 15.6127 36.7868 15.3502 37.5044 15.1236L36.9022 13.2164ZM35.9988 14.6314L35.1888 12.6514L33.3377 13.4086L34.1477 15.3886L35.9988 14.6314ZM34.7404 13.9089C35.3577 13.5738 36.112 13.2797 37.0147 13.0352L36.4919 11.1048C35.4745 11.3803 34.5689 11.7262 33.7862 12.1511L34.7404 13.9089ZM37.0333 13.03C37.8987 12.7776 38.8042 12.65 39.7533 12.65V10.65C38.6223 10.65 37.5278 10.8024 36.4733 11.11L37.0333 13.03ZM40.4933 19.2308C38.4693 19.3118 36.8168 19.6334 35.7801 20.3777L36.9465 22.0023C37.4698 21.6266 38.5973 21.3082 40.5732 21.2292L40.4933 19.2308ZM35.7701 20.3849C34.7312 21.1504 34.2233 22.252 34.2233 23.56H36.2233C36.2233 22.828 36.4753 22.3496 36.9565 21.9951L35.7701 20.3849ZM34.2233 23.56C34.2233 24.6632 34.5631 25.6634 35.4193 26.3294L36.6472 24.7506C36.4234 24.5766 36.2233 24.2568 36.2233 23.56H34.2233ZM35.4333 26.34C36.2028 26.9172 37.1374 27.17 38.1633 27.17V25.17C37.4692 25.17 36.9837 25.0028 36.6333 24.74L35.4333 26.34ZM38.1633 27.17C39.7143 27.17 41.0804 26.7435 42.1884 25.8324L40.9182 24.2876C40.2262 24.8565 39.3323 25.17 38.1633 25.17V27.17ZM42.1985 25.824C43.391 24.817 43.9033 23.3328 43.9033 21.58H41.9033C41.9033 22.9472 41.5155 23.783 40.9081 24.296L42.1985 25.824ZM43.9033 21.58V20.14H41.9033V21.58H43.9033ZM42.8653 19.1407L40.4953 19.2307L40.5712 21.2293L42.9412 21.1393L42.8653 19.1407ZM60.2897 11.92H61.2897V10.92H60.2897V11.92ZM60.2897 14.14V15.14H61.2897V14.14H60.2897ZM53.1197 14.14V13.14H52.1197V14.14H53.1197ZM53.1197 28V29H54.1197V28H53.1197ZM50.4797 28H49.4797V29H50.4797V28ZM50.4797 11.92V10.92H49.4797V11.92H50.4797ZM59.2897 11.92V14.14H61.2897V11.92H59.2897ZM60.2897 13.14H53.1197V15.14H60.2897V13.14ZM52.1197 14.14V28H54.1197V14.14H52.1197ZM53.1197 27H50.4797V29H53.1197V27ZM51.4797 28V11.92H49.4797V28H51.4797ZM50.4797 12.92H60.2897V10.92H50.4797V12.92ZM72.397 27.43L71.9306 28.3146L71.9372 28.318L72.397 27.43ZM69.787 24.73L68.8955 25.1831L68.9015 25.1945L69.787 24.73ZM69.847 15.22L70.7298 15.6898L70.7298 15.6898L69.847 15.22ZM72.517 12.49L72.0636 11.5987L72.0572 11.602L72.517 12.49ZM78.757 11.89L78.5266 12.8631L78.5388 12.866L78.551 12.8685L78.757 11.89ZM80.617 12.49L81.5549 12.8369L81.8658 11.9964L81.0642 11.5956L80.617 12.49ZM79.807 14.68L79.4559 15.6163L80.3965 15.969L80.7449 15.0269L79.807 14.68ZM78.127 14.17L78.3696 13.1999L78.3696 13.1999L78.127 14.17ZM72.097 16.66L71.1616 16.3066L71.1616 16.3066L72.097 16.66ZM72.097 23.29L71.1616 23.6434L71.1616 23.6434L72.097 23.29ZM73.627 25.33L74.1873 24.5017L74.1873 24.5017L73.627 25.33ZM78.487 25.75L78.2311 24.7833L78.2239 24.7852L78.487 25.75ZM80.347 25.09H81.347V23.5232L79.9259 24.183L80.347 25.09ZM80.347 27.43L80.8073 28.3178L81.347 28.0379V27.43H80.347ZM78.547 28.06L78.3395 27.0818L78.3219 27.0855L78.3045 27.0899L78.547 28.06ZM76.207 27.3C74.9267 27.3 73.8177 27.0396 72.8569 26.542L71.9372 28.318C73.2163 28.9804 74.6474 29.3 76.207 29.3V27.3ZM72.8634 26.5454C71.9616 26.0699 71.2292 25.3264 70.6726 24.2655L68.9015 25.1945C69.6249 26.5736 70.6325 27.6301 71.9306 28.3146L72.8634 26.5454ZM70.6785 24.2769C70.1521 23.241 69.857 21.8502 69.857 20.05H67.857C67.857 22.0498 68.182 23.779 68.8955 25.183L70.6785 24.2769ZM69.857 20.05C69.857 18.1707 70.1718 16.7382 70.7298 15.6898L68.9643 14.7502C68.2023 16.1818 67.857 17.9693 67.857 20.05H69.857ZM70.7298 15.6898C71.3058 14.6077 72.0572 13.8543 72.9769 13.378L72.0572 11.602C70.7369 12.2857 69.7083 13.3523 68.9643 14.7502L70.7298 15.6898ZM72.9705 13.3813C73.9532 12.8813 75.0846 12.62 76.387 12.62V10.62C74.8095 10.62 73.3609 10.9387 72.0636 11.5987L72.9705 13.3813ZM76.387 12.62C77.1333 12.62 77.8458 12.7018 78.5266 12.8631L78.9875 10.9169C78.1483 10.7182 77.2808 10.62 76.387 10.62V12.62ZM78.551 12.8685C79.2611 13.018 79.792 13.1955 80.1698 13.3844L81.0642 11.5956C80.4821 11.3045 79.7729 11.082 78.963 10.9114L78.551 12.8685ZM79.6791 12.1431L78.8691 14.3331L80.7449 15.0269L81.5549 12.8369L79.6791 12.1431ZM80.1582 13.7437C79.6343 13.5472 79.0365 13.3666 78.3696 13.1999L77.8845 15.1401C78.4975 15.2934 79.0198 15.4528 79.4559 15.6163L80.1582 13.7437ZM78.3696 13.1999C77.6639 13.0234 76.9818 12.93 76.327 12.93V14.93C76.7923 14.93 77.3102 14.9966 77.8845 15.1401L78.3696 13.1999ZM76.327 12.93C75.1078 12.93 74.0121 13.1901 73.1079 13.7843L74.2062 15.4557C74.7019 15.1299 75.3863 14.93 76.327 14.93V12.93ZM73.1079 13.7843C72.206 14.3769 71.5647 15.2396 71.1616 16.3066L73.0325 17.0134C73.3094 16.2804 73.7081 15.7831 74.2062 15.4557L73.1079 13.7843ZM71.1616 16.3066C70.7657 17.3544 70.587 18.6032 70.587 20.02H72.587C72.587 18.7568 72.7483 17.7656 73.0325 17.0134L71.1616 16.3066ZM70.587 20.02C70.587 21.3832 70.7674 22.6 71.1616 23.6434L73.0325 22.9366C72.7467 22.18 72.587 21.2168 72.587 20.02H70.587ZM71.1616 23.6434C71.5617 24.7025 72.1877 25.5636 73.0667 26.1583L74.1873 24.5017C73.7064 24.1764 73.3124 23.6775 73.0325 22.9366L71.1616 23.6434ZM73.0667 26.1583C73.9483 26.7547 75.006 27.02 76.177 27.02V25.02C75.3081 25.02 74.6657 24.8253 74.1873 24.5017L73.0667 26.1583ZM76.177 27.02C77.1219 27.02 77.984 26.9237 78.7501 26.7148L78.2239 24.7852C77.6701 24.9363 76.9921 25.02 76.177 25.02V27.02ZM78.7429 26.7167C79.472 26.5237 80.1482 26.2848 80.7681 25.997L79.9259 24.183C79.4259 24.4152 78.8621 24.6163 78.2311 24.7833L78.7429 26.7167ZM79.347 25.09V27.43H81.347V25.09H79.347ZM79.8867 26.5422C79.4347 26.7766 78.921 26.9584 78.3395 27.0818L78.7545 29.0382C79.493 28.8816 80.1794 28.6434 80.8073 28.3178L79.8867 26.5422ZM78.3045 27.0899C77.7681 27.224 77.0748 27.3 76.207 27.3V29.3C77.1793 29.3 78.046 29.216 78.7896 29.0301L78.3045 27.0899ZM93.9211 12.52L93.3989 13.3729L93.4066 13.3775L93.9211 12.52ZM96.2011 15.07L95.297 15.4974L95.3017 15.5073L95.3067 15.5172L96.2011 15.07ZM97.0111 20.47V21.47H98.0111V20.47H97.0111ZM86.0011 20.47V19.47H84.9789L85.0013 20.492L86.0011 20.47ZM87.3811 24.64L86.6439 25.3157L86.6513 25.3237L86.6588 25.3316L87.3811 24.64ZM93.8311 25.78L94.056 26.7544L94.0648 26.7523L94.0736 26.7501L93.8311 25.78ZM96.2911 24.94H97.2911V23.4235L95.8972 24.0209L96.2911 24.94ZM96.2911 27.25L96.6931 28.1656L97.2911 27.9031V27.25H96.2911ZM93.8611 28.03L93.665 27.0494L93.6533 27.0518L93.6416 27.0544L93.8611 28.03ZM86.9611 27.37L86.4897 28.252L86.496 28.2552L86.9611 27.37ZM84.2311 24.61L83.3425 25.0686L83.3469 25.0773L83.3516 25.0858L84.2311 24.61ZM84.1411 15.55L83.2382 15.12L83.2327 15.1319L84.1411 15.55ZM86.6311 12.64L86.0983 11.7937L86.0911 11.7983L86.6311 12.64ZM87.3511 15.01L86.6087 14.34L86.6078 14.341L87.3511 15.01ZM86.0611 18.37L85.0658 18.2732L84.9592 19.37H86.0611V18.37ZM94.2511 18.37V19.37H95.2511V18.37H94.2511ZM93.8311 15.97L92.9064 16.3507L92.9064 16.3507L93.8311 15.97ZM92.5411 14.38L91.9599 15.1937L91.9762 15.2054L91.9931 15.2165L92.5411 14.38ZM90.3811 12.62C91.6141 12.62 92.6051 12.8868 93.3989 13.3729L94.4432 11.6671C93.2771 10.9532 91.9081 10.62 90.3811 10.62V12.62ZM93.4066 13.3775C94.2295 13.8712 94.8576 14.5679 95.297 15.4974L97.1052 14.6426C96.5045 13.3721 95.6127 12.3688 94.4356 11.6625L93.4066 13.3775ZM95.3067 15.5172C95.7642 16.4323 96.0111 17.5432 96.0111 18.88H98.0111C98.0111 17.2968 97.718 15.8677 97.0955 14.6228L95.3067 15.5172ZM96.0111 18.88V20.47H98.0111V18.88H96.0111ZM97.0111 19.47H86.0011V21.47H97.0111V19.47ZM85.0013 20.492C85.0446 22.4584 85.545 24.1168 86.6439 25.3157L88.1182 23.9643C87.4572 23.2432 87.0376 22.1216 87.0009 20.448L85.0013 20.492ZM86.6588 25.3316C87.7892 26.5122 89.3253 27.05 91.1311 27.05V25.05C89.7369 25.05 88.773 24.6478 88.1034 23.9484L86.6588 25.3316ZM91.1311 27.05C92.2072 27.05 93.1853 26.9553 94.056 26.7544L93.6062 24.8056C92.9168 24.9647 92.0949 25.05 91.1311 25.05V27.05ZM94.0736 26.7501C94.9306 26.5359 95.8012 26.2379 96.685 25.8591L95.8972 24.0209C95.101 24.3621 94.3316 24.6241 93.5886 24.8099L94.0736 26.7501ZM95.2911 24.94V27.25H97.2911V24.94H95.2911ZM95.8891 26.3344C95.1288 26.6681 94.3877 26.9049 93.665 27.0494L94.0572 29.0106C94.9345 28.8351 95.8134 28.5519 96.6931 28.1656L95.8891 26.3344ZM93.6416 27.0544C92.9333 27.2138 92.0606 27.3 91.0111 27.3V29.3C92.1616 29.3 93.1889 29.2062 94.0806 29.0056L93.6416 27.0544ZM91.0111 27.3C89.6302 27.3 88.4438 27.0194 87.4262 26.4848L86.496 28.2552C87.8384 28.9606 89.352 29.3 91.0111 29.3V27.3ZM87.4325 26.4881C86.4551 25.9657 85.6827 25.1916 85.1106 24.1342L83.3516 25.0858C84.0995 26.4684 85.1471 27.5343 86.4897 28.2519L87.4325 26.4881ZM85.1197 24.1514C84.5703 23.0868 84.2711 21.7432 84.2711 20.08H82.2711C82.2711 21.9768 82.6119 23.6532 83.3425 25.0686L85.1197 24.1514ZM84.2711 20.08C84.2711 18.4268 84.5438 17.0667 85.0495 15.9681L83.2327 15.1319C82.5784 16.5533 82.2711 18.2132 82.2711 20.08H84.2711ZM85.044 15.9799C85.5727 14.8696 86.2847 14.0503 87.171 13.4817L86.0911 11.7983C84.8575 12.5897 83.9095 13.7104 83.2382 15.1201L85.044 15.9799ZM87.1639 13.4862C88.0668 12.9178 89.1277 12.62 90.3811 12.62V10.62C88.7945 10.62 87.3554 11.0022 86.0983 11.7938L87.1639 13.4862ZM90.3511 12.78C88.8521 12.78 87.5659 13.2793 86.6087 14.34L88.0935 15.68C88.6163 15.1007 89.3301 14.78 90.3511 14.78V12.78ZM86.6078 14.341C85.7028 15.3466 85.2194 16.6929 85.0658 18.2732L87.0564 18.4668C87.1828 17.1671 87.5594 16.2734 88.0944 15.679L86.6078 14.341ZM86.0611 19.37H94.2511V17.37H86.0611V19.37ZM95.2511 18.37C95.2511 17.351 95.0963 16.4162 94.7558 15.5892L92.9064 16.3507C93.1259 16.8838 93.2511 17.549 93.2511 18.37H95.2511ZM94.7558 15.5892C94.4039 14.7348 93.8482 14.0409 93.0891 13.5435L91.9931 15.2165C92.394 15.4791 92.6983 15.8452 92.9064 16.3507L94.7558 15.5892ZM93.1223 13.5663C92.3473 13.0127 91.3957 12.78 90.3511 12.78V14.78C91.1064 14.78 91.6149 14.9473 91.9599 15.1937L93.1223 13.5663ZM113.045 11.92H114.045V10.92H113.045V11.92ZM113.045 25.78H112.045V26.78H113.045V25.78ZM115.385 25.78H116.385V24.78H115.385V25.78ZM115.385 33.58V34.58H116.385V33.58H115.385ZM112.835 33.58H111.835V34.58H112.835V33.58ZM112.835 28H113.835V27H112.835V28ZM101.645 28V27H100.645V28H101.645ZM101.645 33.58V34.58H102.645V33.58H101.645ZM99.1247 33.58H98.1247V34.58H99.1247V33.58ZM99.1247 25.78V24.78H98.1247V25.78H99.1247ZM100.415 25.78V26.78H100.927L101.227 26.3636L100.415 25.78ZM102.695 21.61L101.769 21.2323L101.766 21.2386L102.695 21.61ZM104.075 16.87L103.093 16.6807L103.091 16.6901L104.075 16.87ZM104.585 11.92V10.92H103.597L103.585 11.9078L104.585 11.92ZM106.925 13.99V12.99H105.982L105.926 13.9313L106.925 13.99ZM106.295 18.22L107.268 18.4498L107.269 18.4468L106.295 18.22ZM104.975 22.36L104.049 21.9813L104.044 21.9935L104.975 22.36ZM103.145 25.78L102.337 25.1908L101.178 26.78H103.145V25.78ZM110.495 25.78V26.78H111.495V25.78H110.495ZM110.495 13.99H111.495V12.99H110.495V13.99ZM112.045 11.92V25.78H114.045V11.92H112.045ZM113.045 26.78H115.385V24.78H113.045V26.78ZM114.385 25.78V33.58H116.385V25.78H114.385ZM115.385 32.58H112.835V34.58H115.385V32.58ZM113.835 33.58V28H111.835V33.58H113.835ZM112.835 27H101.645V29H112.835V27ZM100.645 28V33.58H102.645V28H100.645ZM101.645 32.58H99.1247V34.58H101.645V32.58ZM100.125 33.58V25.78H98.1247V33.58H100.125ZM99.1247 26.78H100.415V24.78H99.1247V26.78ZM101.227 26.3636C102.195 25.0162 102.994 23.5547 103.623 21.9814L101.766 21.2386C101.196 22.6653 100.474 23.9838 99.6027 25.1964L101.227 26.3636ZM103.621 21.9877C104.267 20.4029 104.746 18.7566 105.058 17.0499L103.091 16.6901C102.803 18.2634 102.362 19.7771 101.769 21.2323L103.621 21.9877ZM105.057 17.0593C105.388 15.3427 105.564 13.6334 105.585 11.9322L103.585 11.9078C103.566 13.4866 103.402 15.0773 103.093 16.6807L105.057 17.0593ZM104.585 12.92H113.045V10.92H104.585V12.92ZM105.926 13.9313C105.85 15.2294 105.649 16.583 105.321 17.9932L107.269 18.4468C107.62 16.937 107.839 15.4706 107.923 14.0487L105.926 13.9313ZM105.321 17.9902C104.993 19.3813 104.569 20.7114 104.049 21.9814L105.9 22.7386C106.461 21.3686 106.916 19.9387 107.268 18.4498L105.321 17.9902ZM104.044 21.9935C103.55 23.2492 102.978 24.3113 102.337 25.1908L103.953 26.3692C104.711 25.3287 105.36 24.1108 105.905 22.7265L104.044 21.9935ZM103.145 26.78H110.495V24.78H103.145V26.78ZM111.495 25.78V13.99H109.495V25.78H111.495ZM110.495 12.99H106.925V14.99H110.495V12.99ZM129.426 19.03L129.773 18.092L129.773 18.092L129.426 19.03ZM131.496 20.56L130.668 21.1203L130.678 21.1344L130.688 21.1482L131.496 20.56ZM131.526 25.69L130.677 25.1621L130.672 25.1704L130.667 25.1789L131.526 25.69ZM129.456 27.4L129.848 28.3202L129.848 28.3202L129.456 27.4ZM118.536 28H117.536V29H118.536V28ZM118.536 11.92V10.92H117.536V11.92H118.536ZM121.176 11.92H122.176V10.92H121.176V11.92ZM121.176 18.52H120.176V19.52H121.176V18.52ZM128.526 21.25L128.058 22.1338L128.074 22.1419L128.089 22.1495L128.526 21.25ZM121.176 20.71V19.71H120.176V20.71H121.176ZM121.176 25.87H120.176V26.87H121.176V25.87ZM128.466 25.27L127.991 24.3902L127.981 24.3958L128.466 25.27ZM125.946 19.52C127.274 19.52 128.307 19.6825 129.08 19.968L129.773 18.092C128.706 17.6975 127.418 17.52 125.946 17.52V19.52ZM129.08 19.968C129.843 20.25 130.347 20.645 130.668 21.1203L132.325 19.9997C131.726 19.115 130.85 18.49 129.773 18.092L129.08 19.968ZM130.688 21.1482C131.015 21.5986 131.216 22.2179 131.216 23.08H133.216C133.216 21.9021 132.937 20.8414 132.305 19.9718L130.688 21.1482ZM131.216 23.08C131.216 23.9216 131.025 24.6029 130.677 25.1621L132.376 26.2179C132.948 25.2971 133.216 24.2384 133.216 23.08H131.216ZM130.667 25.1789C130.355 25.7041 129.847 26.1471 129.065 26.4798L129.848 28.3202C130.946 27.8529 131.818 27.1559 132.386 26.2011L130.667 25.1789ZM129.065 26.4798C128.291 26.8091 127.227 27 125.826 27V29C127.385 29 128.742 28.7909 129.848 28.3202L129.065 26.4798ZM125.826 27H118.536V29H125.826V27ZM119.536 28V11.92H117.536V28H119.536ZM118.536 12.92H121.176V10.92H118.536V12.92ZM120.176 11.92V18.52H122.176V11.92H120.176ZM121.176 19.52H125.946V17.52H121.176V19.52ZM130.576 23.23C130.576 21.9863 130.103 20.9042 128.963 20.3505L128.089 22.1495C128.349 22.2758 128.576 22.5137 128.576 23.23H130.576ZM128.994 20.3662C128.108 19.8969 126.96 19.71 125.646 19.71V21.71C126.812 21.71 127.585 21.8831 128.058 22.1338L128.994 20.3662ZM125.646 19.71H121.176V21.71H125.646V19.71ZM120.176 20.71V25.87H122.176V20.71H120.176ZM121.176 26.87H125.706V24.87H121.176V26.87ZM125.706 26.87C126.938 26.87 128.04 26.6511 128.952 26.1442L127.981 24.3958C127.453 24.6889 126.715 24.87 125.706 24.87V26.87ZM128.942 26.1497C130.057 25.547 130.576 24.4943 130.576 23.23H128.576C128.576 23.8857 128.356 24.193 127.991 24.3903L128.942 26.1497ZM153.599 11.92H154.599V10.92H153.599V11.92ZM153.599 28V29H154.599V28H153.599ZM151.229 28H150.229V29H151.229V28ZM151.259 16.42L150.263 16.3334L150.261 16.3549L150.26 16.3766L151.259 16.42ZM151.379 15.07L152.375 15.1605L152.474 14.07H151.379V15.07ZM151.289 15.07V14.07H150.616L150.362 14.6938L151.289 15.07ZM146.039 28V29H146.712L146.965 28.3762L146.039 28ZM143.819 28L142.889 28.3669L143.138 29H143.819V28ZM138.719 15.07L139.649 14.7031L139.399 14.07H138.719V15.07ZM138.629 15.07V14.07H137.534L137.633 15.1605L138.629 15.07ZM138.689 16.42H137.689V16.4417L137.69 16.4634L138.689 16.42ZM138.719 28V29H139.719V28H138.719ZM136.349 28H135.349V29H136.349V28ZM136.349 11.92V10.92H135.349V11.92H136.349ZM139.859 11.92L140.79 11.5549L140.541 10.92H139.859V11.92ZM144.929 24.85L143.998 25.2151L144.921 27.5685L145.858 25.2206L144.929 24.85ZM150.089 11.92V10.92H149.411L149.16 11.5494L150.089 11.92ZM152.599 11.92V28H154.599V11.92H152.599ZM153.599 27H151.229V29H153.599V27ZM152.229 28V17.74H150.229V28H152.229ZM152.229 17.74C152.229 17.3358 152.238 16.9103 152.258 16.4634L150.26 16.3766C150.239 16.8497 150.229 17.3042 150.229 17.74H152.229ZM152.255 16.5066C152.295 16.0479 152.335 15.5992 152.375 15.1605L150.383 14.9795C150.343 15.4208 150.303 15.8721 150.263 16.3334L152.255 16.5066ZM151.379 14.07H151.289V16.07H151.379V14.07ZM150.362 14.6938L145.112 27.6238L146.965 28.3762L152.215 15.4462L150.362 14.6938ZM146.039 27H143.819V29H146.039V27ZM144.749 27.6331L139.649 14.7031L137.789 15.4369L142.889 28.3669L144.749 27.6331ZM138.719 14.07H138.629V16.07H138.719V14.07ZM137.633 15.1605C137.67 15.5692 137.689 15.989 137.689 16.42H139.689C139.689 15.931 139.668 15.4508 139.625 14.9795L137.633 15.1605ZM137.69 16.4634C137.709 16.9084 137.719 17.3639 137.719 17.83H139.719C139.719 17.3361 139.709 16.8516 139.688 16.3766L137.69 16.4634ZM137.719 17.83V28H139.719V17.83H137.719ZM138.719 27H136.349V29H138.719V27ZM137.349 28V11.92H135.349V28H137.349ZM136.349 12.92H139.859V10.92H136.349V12.92ZM138.928 12.2851L143.998 25.2151L145.86 24.4849L140.79 11.5549L138.928 12.2851ZM145.858 25.2206L151.018 12.2906L149.16 11.5494L144 24.4794L145.858 25.2206ZM150.089 12.92H153.599V10.92H150.089V12.92ZM172.172 23.5L171.227 23.1729L171.223 23.1838L172.172 23.5ZM170.672 26.11L169.934 25.4343L169.929 25.4399L169.924 25.4456L170.672 26.11ZM168.302 27.76L168.666 28.6913L168.676 28.6871L168.302 27.76ZM162.272 27.76L161.883 28.6812L161.891 28.6849L161.9 28.6885L162.272 27.76ZM159.932 26.11L159.194 26.7857L159.194 26.7857L159.932 26.11ZM158.372 23.5L157.427 23.8271L157.43 23.8382L157.435 23.8491L158.372 23.5ZM158.732 15.43L159.629 15.8713L159.632 15.8656L158.732 15.43ZM161.312 12.61L161.808 13.4783L161.819 13.4715L161.312 12.61ZM169.142 12.61L168.627 13.4675L168.636 13.473L168.646 13.4782L169.142 12.61ZM171.752 15.43L170.857 15.8772L170.862 15.8859L170.866 15.8945L171.752 15.43ZM161.042 23.23L160.095 23.5523L160.099 23.5645L160.104 23.5766L161.042 23.23ZM162.602 25.36L163.183 24.5463L163.183 24.5463L162.602 25.36ZM167.942 25.36L167.36 24.5463L167.36 24.5463L167.942 25.36ZM169.472 23.23L168.531 22.8898L168.527 22.9015L169.472 23.23ZM169.472 16.66L170.407 16.3066L170.407 16.3066L169.472 16.66ZM167.912 14.59L167.319 15.3957L167.333 15.4054L167.346 15.4147L167.912 14.59ZM161.672 15.46L162.497 16.0252L162.497 16.0252L161.672 15.46ZM171.712 19.93C171.712 21.1821 171.543 22.2581 171.227 23.1729L173.117 23.8271C173.52 22.6618 173.712 21.3579 173.712 19.93H171.712ZM171.223 23.1838C170.923 24.084 170.49 24.8279 169.934 25.4343L171.409 26.7857C172.173 25.9521 172.74 24.956 173.12 23.8162L171.223 23.1838ZM169.924 25.4456C169.392 26.0445 168.732 26.5075 167.927 26.8329L168.676 28.6871C169.752 28.2525 170.671 27.6155 171.419 26.7744L169.924 25.4456ZM167.937 26.8288C167.15 27.1369 166.246 27.3 165.212 27.3V29.3C166.457 29.3 167.613 29.1031 168.666 28.6912L167.937 26.8288ZM165.212 27.3C164.267 27.3 163.414 27.14 162.643 26.8315L161.9 28.6885C162.929 29.1 164.036 29.3 165.212 29.3V27.3ZM162.661 26.8388C161.893 26.5146 161.232 26.0484 160.669 25.4343L159.194 26.7857C159.952 27.6116 160.85 28.2454 161.883 28.6812L162.661 26.8388ZM160.669 25.4343C160.105 24.8195 159.649 24.064 159.309 23.1509L157.435 23.8491C157.854 24.976 158.438 25.9605 159.194 26.7857L160.669 25.4343ZM159.317 23.1729C159 22.2581 158.832 21.1821 158.832 19.93H156.832C156.832 21.3579 157.023 22.6619 157.427 23.8271L159.317 23.1729ZM158.832 19.93C158.832 18.2575 159.114 16.9183 159.629 15.8713L157.834 14.9887C157.149 16.3817 156.832 18.0424 156.832 19.93H158.832ZM159.632 15.8656C160.15 14.7943 160.875 14.0112 161.808 13.4782L160.816 11.7418C159.508 12.4888 158.513 13.5857 157.831 14.9944L159.632 15.8656ZM161.819 13.4715C162.759 12.9177 163.907 12.62 165.302 12.62V10.62C163.616 10.62 162.104 10.9823 160.804 11.7485L161.819 13.4715ZM165.302 12.62C166.606 12.62 167.703 12.9131 168.627 13.4675L169.656 11.7525C168.38 10.9869 166.917 10.62 165.302 10.62V12.62ZM168.646 13.4782C169.581 14.0129 170.319 14.8 170.857 15.8772L172.646 14.9828C171.945 13.58 170.942 12.4871 169.638 11.7418L168.646 13.4782ZM170.866 15.8945C171.412 16.9355 171.712 18.266 171.712 19.93H173.712C173.712 18.034 173.371 16.3645 172.637 14.9655L170.866 15.8945ZM159.562 19.93C159.562 21.2715 159.732 22.4849 160.095 23.5523L161.988 22.9077C161.712 22.0951 161.562 21.1085 161.562 19.93H159.562ZM160.104 23.5766C160.503 24.6574 161.135 25.5415 162.02 26.1737L163.183 24.5463C162.668 24.1785 162.26 23.6426 161.98 22.8833L160.104 23.5766ZM162.02 26.1737C162.929 26.8227 164.037 27.11 165.272 27.11V25.11C164.346 25.11 163.674 24.8973 163.183 24.5463L162.02 26.1737ZM165.272 27.11C166.506 27.11 167.614 26.8227 168.523 26.1737L167.36 24.5463C166.869 24.8973 166.197 25.11 165.272 25.11V27.11ZM168.523 26.1737C169.413 25.5379 170.038 24.6471 170.416 23.5585L168.527 22.9015C168.266 23.6529 167.87 24.1821 167.36 24.5463L168.523 26.1737ZM170.412 23.5701C170.8 22.4968 170.982 21.2771 170.982 19.93H168.982C168.982 21.1029 168.823 22.0832 168.531 22.8899L170.412 23.5701ZM170.982 19.93C170.982 18.5668 170.801 17.35 170.407 16.3066L168.536 17.0134C168.822 17.77 168.982 18.7332 168.982 19.93H170.982ZM170.407 16.3066C170.005 15.2419 169.368 14.3759 168.477 13.7653L167.346 15.4147C167.856 15.7641 168.258 16.2781 168.536 17.0134L170.407 16.3066ZM168.504 13.7843C167.607 13.1246 166.49 12.84 165.242 12.84V14.84C166.193 14.84 166.857 15.0554 167.319 15.3957L168.504 13.7843ZM165.242 12.84C163.366 12.84 161.821 13.4734 160.847 14.8948L162.497 16.0252C163.003 15.2866 163.838 14.84 165.242 14.84V12.84ZM160.847 14.8948C159.952 16.2007 159.562 17.915 159.562 19.93H161.562C161.562 18.145 161.911 16.8793 162.497 16.0252L160.847 14.8948ZM189.916 5.26L190.913 5.33974L190.999 4.26H189.916V5.26ZM189.166 7.78L188.315 7.25451L188.309 7.26368L188.304 7.27298L189.166 7.78ZM187.366 9.31L186.975 8.38967L186.975 8.38967L187.366 9.31ZM181.096 9.31L180.696 10.2267L180.705 10.2303L181.096 9.31ZM179.386 7.81L178.502 8.27792L178.508 8.28885L179.386 7.81ZM178.726 5.26V4.26H177.644L177.729 5.33819L178.726 5.26ZM181.186 5.26L182.181 5.1678L182.097 4.26H181.186V5.26ZM182.026 7.45L181.389 8.22096L181.407 8.23591L181.426 8.25L182.026 7.45ZM186.466 7.42L187.056 8.22741L187.061 8.22356L186.466 7.42ZM187.426 5.26V4.26H186.517L186.43 5.16429L187.426 5.26ZM179.356 22.51L178.357 22.4513L178.356 22.4806V22.51H179.356ZM179.326 23.56L180.324 23.6155L180.324 23.6126L179.326 23.56ZM179.266 24.61L180.264 24.6724L180.264 24.6687L179.266 24.61ZM179.206 25.39L178.211 25.2905L180.048 25.9286L179.206 25.39ZM187.816 11.92V10.92H187.268L186.973 11.3814L187.816 11.92ZM191.056 11.92H192.056V10.92H191.056V11.92ZM191.056 28V29H192.056V28H191.056ZM188.596 28H187.596V29H188.596V28ZM188.596 17.26L187.596 17.2216L187.596 17.2408V17.26H188.596ZM188.656 15.73L189.655 15.77L189.655 15.7684L188.656 15.73ZM188.716 14.56L189.713 14.6367L187.872 14.0232L188.716 14.56ZM180.166 28V29H180.715L181.009 28.5368L180.166 28ZM176.896 28H175.896V29H176.896V28ZM176.896 11.92V10.92H175.896V11.92H176.896ZM179.386 11.92H180.386V10.92H179.386V11.92ZM188.919 5.18025C188.848 6.06162 188.633 6.73945 188.315 7.25451L190.017 8.30549C190.538 7.46055 190.823 6.45838 190.913 5.33974L188.919 5.18025ZM188.304 7.27298C188.023 7.74947 187.599 8.12447 186.975 8.38967L187.757 10.2303C188.733 9.81553 189.508 9.17052 190.028 8.28702L188.304 7.27298ZM186.975 8.38967C186.342 8.65837 185.449 8.82 184.246 8.82V10.82C185.602 10.82 186.789 10.6416 187.757 10.2303L186.975 8.38967ZM184.246 8.82C183.02 8.82 182.118 8.65772 181.487 8.38967L180.705 10.2303C181.674 10.6423 182.872 10.82 184.246 10.82V8.82ZM181.495 8.3933C180.891 8.12977 180.503 7.77072 180.264 7.33115L178.508 8.28885C178.988 9.16928 179.741 9.81023 180.696 10.2267L181.495 8.3933ZM180.269 7.34211C179.991 6.81569 179.795 6.10815 179.723 5.18181L177.729 5.33819C177.816 6.45185 178.061 7.4443 178.502 8.27789L180.269 7.34211ZM178.726 6.26H181.186V4.26H178.726V6.26ZM180.19 5.3522C180.296 6.50004 180.61 7.57723 181.389 8.22096L182.663 6.67904C182.522 6.56277 182.275 6.17996 182.181 5.1678L180.19 5.3522ZM181.426 8.25C182.166 8.80488 183.191 8.99 184.306 8.99V6.99C183.34 6.99 182.846 6.81512 182.626 6.65L181.426 8.25ZM184.306 8.99C185.35 8.99 186.305 8.77594 187.056 8.22739L185.876 6.61261C185.586 6.82406 185.101 6.99 184.306 6.99V8.99ZM187.061 8.22356C187.929 7.58044 188.309 6.52284 188.421 5.35571L186.43 5.16429C186.343 6.07716 186.082 6.45956 185.87 6.61644L187.061 8.22356ZM187.426 6.26H189.916V4.26H187.426V6.26ZM178.386 21.73C178.386 21.8802 178.377 22.1169 178.357 22.4513L180.354 22.5687C180.374 22.2231 180.386 21.9398 180.386 21.73H178.386ZM178.356 22.51C178.356 22.8096 178.346 23.1418 178.327 23.5074L180.324 23.6126C180.345 23.2182 180.356 22.8504 180.356 22.51H178.356ZM178.327 23.5045C178.307 23.8635 178.287 24.2124 178.267 24.5513L180.264 24.6687C180.284 24.3276 180.304 23.9765 180.324 23.6155L178.327 23.5045ZM178.268 24.5476C178.248 24.8616 178.229 25.1079 178.211 25.2905L180.201 25.4895C180.222 25.2721 180.243 24.9984 180.264 24.6724L178.268 24.5476ZM180.048 25.9286L188.658 12.4586L186.973 11.3814L178.363 24.8514L180.048 25.9286ZM187.816 12.92H191.056V10.92H187.816V12.92ZM190.056 11.92V28H192.056V11.92H190.056ZM191.056 27H188.596V29H191.056V27ZM189.596 28V18.52H187.596V28H189.596ZM189.596 18.52C189.596 18.5194 189.596 18.5187 189.596 18.5181C189.596 18.5175 189.596 18.5169 189.596 18.5162C189.596 18.5156 189.596 18.515 189.596 18.5144C189.596 18.5137 189.596 18.5131 189.596 18.5125C189.596 18.5119 189.596 18.5112 189.596 18.5106C189.596 18.51 189.596 18.5093 189.596 18.5087C189.596 18.5081 189.596 18.5074 189.596 18.5068C189.596 18.5062 189.596 18.5056 189.596 18.5049C189.596 18.5043 189.596 18.5037 189.596 18.503C189.596 18.5024 189.596 18.5018 189.596 18.5011C189.596 18.5005 189.596 18.4999 189.596 18.4992C189.596 18.4986 189.596 18.498 189.596 18.4973C189.596 18.4967 189.596 18.4961 189.596 18.4954C189.596 18.4948 189.596 18.4942 189.596 18.4935C189.596 18.4929 189.596 18.4923 189.596 18.4916C189.596 18.491 189.596 18.4903 189.596 18.4897C189.596 18.4891 189.596 18.4884 189.596 18.4878C189.596 18.4872 189.596 18.4865 189.596 18.4859C189.596 18.4852 189.596 18.4846 189.596 18.484C189.596 18.4833 189.596 18.4827 189.596 18.482C189.596 18.4814 189.596 18.4808 189.596 18.4801C189.596 18.4795 189.596 18.4788 189.596 18.4782C189.596 18.4776 189.596 18.4769 189.596 18.4763C189.596 18.4756 189.596 18.475 189.596 18.4743C189.596 18.4737 189.596 18.4731 189.596 18.4724C189.596 18.4718 189.596 18.4711 189.596 18.4705C189.596 18.4698 189.596 18.4692 189.596 18.4685C189.596 18.4679 189.596 18.4672 189.596 18.4666C189.596 18.466 189.596 18.4653 189.596 18.4647C189.596 18.464 189.596 18.4634 189.596 18.4627C189.596 18.4621 189.596 18.4614 189.596 18.4608C189.596 18.4601 189.596 18.4595 189.596 18.4588C189.596 18.4582 189.596 18.4575 189.596 18.4569C189.596 18.4562 189.596 18.4556 189.596 18.4549C189.596 18.4543 189.596 18.4536 189.596 18.453C189.596 18.4523 189.596 18.4517 189.596 18.451C189.596 18.4504 189.596 18.4497 189.596 18.4491C189.596 18.4484 189.596 18.4478 189.596 18.4471C189.596 18.4464 189.596 18.4458 189.596 18.4451C189.596 18.4445 189.596 18.4438 189.596 18.4432C189.596 18.4425 189.596 18.4419 189.596 18.4412C189.596 18.4405 189.596 18.4399 189.596 18.4392C189.596 18.4386 189.596 18.4379 189.596 18.4373C189.596 18.4366 189.596 18.4359 189.596 18.4353C189.596 18.4346 189.596 18.434 189.596 18.4333C189.596 18.4326 189.596 18.432 189.596 18.4313C189.596 18.4307 189.596 18.43 189.596 18.4293C189.596 18.4287 189.596 18.428 189.596 18.4274C189.596 18.4267 189.596 18.426 189.596 18.4254C189.596 18.4247 189.596 18.4241 189.596 18.4234C189.596 18.4227 189.596 18.4221 189.596 18.4214C189.596 18.4207 189.596 18.4201 189.596 18.4194C189.596 18.4187 189.596 18.4181 189.596 18.4174C189.596 18.4167 189.596 18.4161 189.596 18.4154C189.596 18.4147 189.596 18.4141 189.596 18.4134C189.596 18.4127 189.596 18.4121 189.596 18.4114C189.596 18.4107 189.596 18.4101 189.596 18.4094C189.596 18.4087 189.596 18.4081 189.596 18.4074C189.596 18.4067 189.596 18.4061 189.596 18.4054C189.596 18.4047 189.596 18.4041 189.596 18.4034C189.596 18.4027 189.596 18.402 189.596 18.4014C189.596 18.4007 189.596 18.4 189.596 18.3994C189.596 18.3987 189.596 18.398 189.596 18.3973C189.596 18.3967 189.596 18.396 189.596 18.3953C189.596 18.3946 189.596 18.394 189.596 18.3933C189.596 18.3926 189.596 18.3919 189.596 18.3913C189.596 18.3906 189.596 18.3899 189.596 18.3892C189.596 18.3886 189.596 18.3879 189.596 18.3872C189.596 18.3865 189.596 18.3859 189.596 18.3852C189.596 18.3845 189.596 18.3838 189.596 18.3831C189.596 18.3825 189.596 18.3818 189.596 18.3811C189.596 18.3804 189.596 18.3797 189.596 18.3791C189.596 18.3784 189.596 18.3777 189.596 18.377C189.596 18.3763 189.596 18.3757 189.596 18.375C189.596 18.3743 189.596 18.3736 189.596 18.3729C189.596 18.3723 189.596 18.3716 189.596 18.3709C189.596 18.3702 189.596 18.3695 189.596 18.3688C189.596 18.3682 189.596 18.3675 189.596 18.3668C189.596 18.3661 189.596 18.3654 189.596 18.3647C189.596 18.364 189.596 18.3634 189.596 18.3627C189.596 18.362 189.596 18.3613 189.596 18.3606C189.596 18.3599 189.596 18.3592 189.596 18.3586C189.596 18.3579 189.596 18.3572 189.596 18.3565C189.596 18.3558 189.596 18.3551 189.596 18.3544C189.596 18.3537 189.596 18.353 189.596 18.3524C189.596 18.3517 189.596 18.351 189.596 18.3503C189.596 18.3496 189.596 18.3489 189.596 18.3482C189.596 18.3475 189.596 18.3468 189.596 18.3461C189.596 18.3454 189.596 18.3448 189.596 18.3441C189.596 18.3434 189.596 18.3427 189.596 18.342C189.596 18.3413 189.596 18.3406 189.596 18.3399C189.596 18.3392 189.596 18.3385 189.596 18.3378C189.596 18.3371 189.596 18.3364 189.596 18.3357C189.596 18.335 189.596 18.3343 189.596 18.3336C189.596 18.3329 189.596 18.3322 189.596 18.3315C189.596 18.3308 189.596 18.3302 189.596 18.3295C189.596 18.3288 189.596 18.3281 189.596 18.3274C189.596 18.3267 189.596 18.326 189.596 18.3253C189.596 18.3246 189.596 18.3239 189.596 18.3232C189.596 18.3225 189.596 18.3218 189.596 18.3211C189.596 18.3204 189.596 18.3197 189.596 18.319C189.596 18.3182 189.596 18.3175 189.596 18.3168C189.596 18.3161 189.596 18.3154 189.596 18.3147C189.596 18.314 189.596 18.3133 189.596 18.3126C189.596 18.3119 189.596 18.3112 189.596 18.3105C189.596 18.3098 189.596 18.3091 189.596 18.3084C189.596 18.3077 189.596 18.307 189.596 18.3063C189.596 18.3056 189.596 18.3049 189.596 18.3042C189.596 18.3034 189.596 18.3027 189.596 18.302C189.596 18.3013 189.596 18.3006 189.596 18.2999C189.596 18.2992 189.596 18.2985 189.596 18.2978C189.596 18.2971 189.596 18.2964 189.596 18.2956C189.596 18.2949 189.596 18.2942 189.596 18.2935C189.596 18.2928 189.596 18.2921 189.596 18.2914C189.596 18.2907 189.596 18.29 189.596 18.2892C189.596 18.2885 189.596 18.2878 189.596 18.2871C189.596 18.2864 189.596 18.2857 189.596 18.285C189.596 18.2842 189.596 18.2835 189.596 18.2828C189.596 18.2821 189.596 18.2814 189.596 18.2807C189.596 18.28 189.596 18.2792 189.596 18.2785C189.596 18.2778 189.596 18.2771 189.596 18.2764C189.596 18.2757 189.596 18.2749 189.596 18.2742C189.596 18.2735 189.596 18.2728 189.596 18.2721C189.596 18.2713 189.596 18.2706 189.596 18.2699C189.596 18.2692 189.596 18.2685 189.596 18.2677C189.596 18.267 189.596 18.2663 189.596 18.2656C189.596 18.2649 189.596 18.2641 189.596 18.2634C189.596 18.2627 189.596 18.262 189.596 18.2612C189.596 18.2605 189.596 18.2598 189.596 18.2591C189.596 18.2584 189.596 18.2576 189.596 18.2569C189.596 18.2562 189.596 18.2555 189.596 18.2547C189.596 18.254 189.596 18.2533 189.596 18.2526C189.596 18.2518 189.596 18.2511 189.596 18.2504C189.596 18.2497 189.596 18.2489 189.596 18.2482C189.596 18.2475 189.596 18.2467 189.596 18.246C189.596 18.2453 189.596 18.2446 189.596 18.2438C189.596 18.2431 189.596 18.2424 189.596 18.2416C189.596 18.2409 189.596 18.2402 189.596 18.2395C189.596 18.2387 189.596 18.238 189.596 18.2373C189.596 18.2365 189.596 18.2358 189.596 18.2351C189.596 18.2343 189.596 18.2336 189.596 18.2329C189.596 18.2321 189.596 18.2314 189.596 18.2307C189.596 18.2299 189.596 18.2292 189.596 18.2285C189.596 18.2277 189.596 18.227 189.596 18.2263C189.596 18.2255 189.596 18.2248 189.596 18.2241C189.596 18.2233 189.596 18.2226 189.596 18.2219C189.596 18.2211 189.596 18.2204 189.596 18.2196C189.596 18.2189 189.596 18.2182 189.596 18.2174C189.596 18.2167 189.596 18.216 189.596 18.2152C189.596 18.2145 189.596 18.2137 189.596 18.213C189.596 18.2123 189.596 18.2115 189.596 18.2108C189.596 18.21 189.596 18.2093 189.596 18.2086C189.596 18.2078 189.596 18.2071 189.596 18.2063C189.596 18.2056 189.596 18.2049 189.596 18.2041C189.596 18.2034 189.596 18.2026 189.596 18.2019C189.596 18.2011 189.596 18.2004 189.596 18.1996C189.596 18.1989 189.596 18.1982 189.596 18.1974C189.596 18.1967 189.596 18.1959 189.596 18.1952C189.596 18.1944 189.596 18.1937 189.596 18.1929C189.596 18.1922 189.596 18.1914 189.596 18.1907C189.596 18.19 189.596 18.1892 189.596 18.1885C189.596 18.1877 189.596 18.187 189.596 18.1862C189.596 18.1855 189.596 18.1847 189.596 18.184C189.596 18.1832 189.596 18.1825 189.596 18.1817C189.596 18.181 189.596 18.1802 189.596 18.1795C189.596 18.1787 189.596 18.178 189.596 18.1772C189.596 18.1765 189.596 18.1757 189.596 18.175C189.596 18.1742 189.596 18.1735 189.596 18.1727C189.596 18.1719 189.596 18.1712 189.596 18.1704C189.596 18.1697 189.596 18.1689 189.596 18.1682C189.596 18.1674 189.596 18.1667 189.596 18.1659C189.596 18.1652 189.596 18.1644 189.596 18.1636C189.596 18.1629 189.596 18.1621 189.596 18.1614C189.596 18.1606 189.596 18.1599 189.596 18.1591C189.596 18.1583 189.596 18.1576 189.596 18.1568C189.596 18.1561 189.596 18.1553 189.596 18.1546C189.596 18.1538 189.596 18.153 189.596 18.1523C189.596 18.1515 189.596 18.1508 189.596 18.15C189.596 18.1492 189.596 18.1485 189.596 18.1477C189.596 18.1469 189.596 18.1462 189.596 18.1454C189.596 18.1447 189.596 18.1439 189.596 18.1431C189.596 18.1424 189.596 18.1416 189.596 18.1408C189.596 18.1401 189.596 18.1393 189.596 18.1385C189.596 18.1378 189.596 18.137 189.596 18.1363C189.596 18.1355 189.596 18.1347 189.596 18.134C189.596 18.1332 189.596 18.1324 189.596 18.1317C189.596 18.1309 189.596 18.1301 189.596 18.1294C189.596 18.1286 189.596 18.1278 189.596 18.1271C189.596 18.1263 189.596 18.1255 189.596 18.1247C189.596 18.124 189.596 18.1232 189.596 18.1224C189.596 18.1217 189.596 18.1209 189.596 18.1201C189.596 18.1194 189.596 18.1186 189.596 18.1178C189.596 18.117 189.596 18.1163 189.596 18.1155C189.596 18.1147 189.596 18.114 189.596 18.1132C189.596 18.1124 189.596 18.1116 189.596 18.1109C189.596 18.1101 189.596 18.1093 189.596 18.1085C189.596 18.1078 189.596 18.107 189.596 18.1062C189.596 18.1054 189.596 18.1047 189.596 18.1039C189.596 18.1031 189.596 18.1023 189.596 18.1016C189.596 18.1008 189.596 18.1 189.596 18.0992C189.596 18.0984 189.596 18.0977 189.596 18.0969C189.596 18.0961 189.596 18.0953 189.596 18.0946C189.596 18.0938 189.596 18.093 189.596 18.0922C189.596 18.0914 189.596 18.0907 189.596 18.0899C189.596 18.0891 189.596 18.0883 189.596 18.0875C189.596 18.0867 189.596 18.086 189.596 18.0852C189.596 18.0844 189.596 18.0836 189.596 18.0828C189.596 18.0821 189.596 18.0813 189.596 18.0805C189.596 18.0797 189.596 18.0789 189.596 18.0781C189.596 18.0774 189.596 18.0766 189.596 18.0758C189.596 18.075 189.596 18.0742 189.596 18.0734C189.596 18.0726 189.596 18.0719 189.596 18.0711C189.596 18.0703 189.596 18.0695 189.596 18.0687C189.596 18.0679 189.596 18.0671 189.596 18.0663C189.596 18.0656 189.596 18.0648 189.596 18.064C189.596 18.0632 189.596 18.0624 189.596 18.0616C189.596 18.0608 189.596 18.06 189.596 18.0592C189.596 18.0584 189.596 18.0577 189.596 18.0569C189.596 18.0561 189.596 18.0553 189.596 18.0545C189.596 18.0537 189.596 18.0529 189.596 18.0521C189.596 18.0513 189.596 18.0505 189.596 18.0497C189.596 18.0489 189.596 18.0481 189.596 18.0473C189.596 18.0466 189.596 18.0458 189.596 18.045C189.596 18.0442 189.596 18.0434 189.596 18.0426C189.596 18.0418 189.596 18.041 189.596 18.0402C189.596 18.0394 189.596 18.0386 189.596 18.0378C189.596 18.037 189.596 18.0362 189.596 18.0354C189.596 18.0346 189.596 18.0338 189.596 18.033C189.596 18.0322 189.596 18.0314 189.596 18.0306C189.596 18.0298 189.596 18.029 189.596 18.0282C189.596 18.0274 189.596 18.0266 189.596 18.0258C189.596 18.025 189.596 18.0242 189.596 18.0234C189.596 18.0226 189.596 18.0218 189.596 18.021C189.596 18.0202 189.596 18.0194 189.596 18.0186C189.596 18.0178 189.596 18.017 189.596 18.0162C189.596 18.0154 189.596 18.0146 189.596 18.0138C189.596 18.013 189.596 18.0122 189.596 18.0113C189.596 18.0105 189.596 18.0097 189.596 18.0089C189.596 18.0081 189.596 18.0073 189.596 18.0065C189.596 18.0057 189.596 18.0049 189.596 18.0041C189.596 18.0033 189.596 18.0025 189.596 18.0017C189.596 18.0008 189.596 18 189.596 17.9992C189.596 17.9984 189.596 17.9976 189.596 17.9968C189.596 17.996 189.596 17.9952 189.596 17.9944C189.596 17.9936 189.596 17.9927 189.596 17.9919C189.596 17.9911 189.596 17.9903 189.596 17.9895C189.596 17.9887 189.596 17.9879 189.596 17.9871C189.596 17.9862 189.596 17.9854 189.596 17.9846C189.596 17.9838 189.596 17.983 189.596 17.9822C189.596 17.9814 189.596 17.9805 189.596 17.9797C189.596 17.9789 189.596 17.9781 189.596 17.9773C189.596 17.9765 189.596 17.9756 189.596 17.9748C189.596 17.974 189.596 17.9732 189.596 17.9724C189.596 17.9716 189.596 17.9707 189.596 17.9699C189.596 17.9691 189.596 17.9683 189.596 17.9675C189.596 17.9666 189.596 17.9658 189.596 17.965C189.596 17.9642 189.596 17.9634 189.596 17.9625C189.596 17.9617 189.596 17.9609 189.596 17.9601C189.596 17.9593 189.596 17.9584 189.596 17.9576C189.596 17.9568 189.596 17.956 189.596 17.9551C189.596 17.9543 189.596 17.9535 189.596 17.9527C189.596 17.9518 189.596 17.951 189.596 17.9502C189.596 17.9494 189.596 17.9485 189.596 17.9477C189.596 17.9469 189.596 17.9461 189.596 17.9452C189.596 17.9444 189.596 17.9436 189.596 17.9428C189.596 17.9419 189.596 17.9411 189.596 17.9403C189.596 17.9394 189.596 17.9386 189.596 17.9378C189.596 17.937 189.596 17.9361 189.596 17.9353C189.596 17.9345 189.596 17.9336 189.596 17.9328C189.596 17.932 189.596 17.9312 189.596 17.9303C189.596 17.9295 189.596 17.9287 189.596 17.9278C189.596 17.927 189.596 17.9262 189.596 17.9253C189.596 17.9245 189.596 17.9237 189.596 17.9228C189.596 17.922 189.596 17.9212 189.596 17.9203C189.596 17.9195 189.596 17.9187 189.596 17.9178C189.596 17.917 189.596 17.9162 189.596 17.9153C189.596 17.9145 189.596 17.9137 189.596 17.9128C189.596 17.912 189.596 17.9111 189.596 17.9103C189.596 17.9095 189.596 17.9086 189.596 17.9078C189.596 17.907 189.596 17.9061 189.596 17.9053C189.596 17.9044 189.596 17.9036 189.596 17.9028C189.596 17.9019 189.596 17.9011 189.596 17.9002C189.596 17.8994 189.596 17.8986 189.596 17.8977C189.596 17.8969 189.596 17.896 189.596 17.8952C189.596 17.8944 189.596 17.8935 189.596 17.8927C189.596 17.8918 189.596 17.891 189.596 17.8901C189.596 17.8893 189.596 17.8885 189.596 17.8876C189.596 17.8868 189.596 17.8859 189.596 17.8851C189.596 17.8842 189.596 17.8834 189.596 17.8825C189.596 17.8817 189.596 17.8809 189.596 17.88C189.596 17.8792 189.596 17.8783 189.596 17.8775C189.596 17.8766 189.596 17.8758 189.596 17.8749C189.596 17.8741 189.596 17.8732 189.596 17.8724C189.596 17.8715 189.596 17.8707 189.596 17.8698C189.596 17.869 189.596 17.8681 189.596 17.8673C189.596 17.8664 189.596 17.8656 189.596 17.8647C189.596 17.8639 189.596 17.863 189.596 17.8622C189.596 17.8613 189.596 17.8605 189.596 17.8596C189.596 17.8588 189.596 17.8579 189.596 17.8571C189.596 17.8562 189.596 17.8554 189.596 17.8545C189.596 17.8536 189.596 17.8528 189.596 17.8519C189.596 17.8511 189.596 17.8502 189.596 17.8494C189.596 17.8485 189.596 17.8477 189.596 17.8468C189.596 17.846 189.596 17.8451 189.596 17.8442C189.596 17.8434 189.596 17.8425 189.596 17.8417C189.596 17.8408 189.596 17.84 189.596 17.8391C189.596 17.8382 189.596 17.8374 189.596 17.8365C189.596 17.8357 189.596 17.8348 189.596 17.8339C189.596 17.8331 189.596 17.8322 189.596 17.8314C189.596 17.8305 189.596 17.8296 189.596 17.8288C189.596 17.8279 189.596 17.827 189.596 17.8262C189.596 17.8253 189.596 17.8245 189.596 17.8236C189.596 17.8227 189.596 17.8219 189.596 17.821C189.596 17.8201 189.596 17.8193 189.596 17.8184C189.596 17.8176 189.596 17.8167 189.596 17.8158C189.596 17.815 189.596 17.8141 189.596 17.8132C189.596 17.8124 189.596 17.8115 189.596 17.8106C189.596 17.8098 189.596 17.8089 189.596 17.808C189.596 17.8072 189.596 17.8063 189.596 17.8054C189.596 17.8045 189.596 17.8037 189.596 17.8028C189.596 17.8019 189.596 17.8011 189.596 17.8002C189.596 17.7993 189.596 17.7985 189.596 17.7976C189.596 17.7967 189.596 17.7959 189.596 17.795C189.596 17.7941 189.596 17.7932 189.596 17.7924C189.596 17.7915 189.596 17.7906 189.596 17.7897C189.596 17.7889 189.596 17.788 189.596 17.7871C189.596 17.7863 189.596 17.7854 189.596 17.7845C189.596 17.7836 189.596 17.7828 189.596 17.7819C189.596 17.781 189.596 17.7801 189.596 17.7793C189.596 17.7784 189.596 17.7775 189.596 17.7766C189.596 17.7757 189.596 17.7749 189.596 17.774C189.596 17.7731 189.596 17.7722 189.596 17.7714C189.596 17.7705 189.596 17.7696 189.596 17.7687C189.596 17.7678 189.596 17.767 189.596 17.7661C189.596 17.7652 189.596 17.7643 189.596 17.7634C189.596 17.7626 189.596 17.7617 189.596 17.7608C189.596 17.7599 189.596 17.759 189.596 17.7582C189.596 17.7573 189.596 17.7564 189.596 17.7555C189.596 17.7546 189.596 17.7537 189.596 17.7529C189.596 17.752 189.596 17.7511 189.596 17.7502C189.596 17.7493 189.596 17.7484 189.596 17.7476C189.596 17.7467 189.596 17.7458 189.596 17.7449C189.596 17.744 189.596 17.7431 189.596 17.7422C189.596 17.7413 189.596 17.7405 189.596 17.7396C189.596 17.7387 189.596 17.7378 189.596 17.7369C189.596 17.736 189.596 17.7351 189.596 17.7342C189.596 17.7334 189.596 17.7325 189.596 17.7316C189.596 17.7307 189.596 17.7298 189.596 17.7289C189.596 17.728 189.596 17.7271 189.596 17.7262C189.596 17.7253 189.596 17.7245 189.596 17.7236C189.596 17.7227 189.596 17.7218 189.596 17.7209C189.596 17.72 189.596 17.7191 189.596 17.7182C189.596 17.7173 189.596 17.7164 189.596 17.7155C189.596 17.7146 189.596 17.7137 189.596 17.7128C189.596 17.7119 189.596 17.711 189.596 17.7102C189.596 17.7093 189.596 17.7084 189.596 17.7075C189.596 17.7066 189.596 17.7057 189.596 17.7048C189.596 17.7039 189.596 17.703 189.596 17.7021C189.596 17.7012 189.596 17.7003 189.596 17.6994C189.596 17.6985 189.596 17.6976 189.596 17.6967C189.596 17.6958 189.596 17.6949 189.596 17.694C189.596 17.6931 189.596 17.6922 189.596 17.6913C189.596 17.6904 189.596 17.6895 189.596 17.6886C189.596 17.6877 189.596 17.6868 189.596 17.6859C189.596 17.685 189.596 17.6841 189.596 17.6832C189.596 17.6823 189.596 17.6814 189.596 17.6804C189.596 17.6795 189.596 17.6786 189.596 17.6777C189.596 17.6768 189.596 17.6759 189.596 17.675C189.596 17.6741 189.596 17.6732 189.596 17.6723C189.596 17.6714 189.596 17.6705 189.596 17.6696C189.596 17.6687 189.596 17.6678 189.596 17.6669C189.596 17.6659 189.596 17.665 189.596 17.6641C189.596 17.6632 189.596 17.6623 189.596 17.6614C189.596 17.6605 189.596 17.6596 189.596 17.6587C189.596 17.6578 189.596 17.6569 189.596 17.6559C189.596 17.655 189.596 17.6541 189.596 17.6532C189.596 17.6523 189.596 17.6514 189.596 17.6505C189.596 17.6496 189.596 17.6486 189.596 17.6477C189.596 17.6468 189.596 17.6459 189.596 17.645C189.596 17.6441 189.596 17.6432 189.596 17.6422C189.596 17.6413 189.596 17.6404 189.596 17.6395C189.596 17.6386 189.596 17.6377 189.596 17.6368C189.596 17.6358 189.596 17.6349 189.596 17.634C189.596 17.6331 189.596 17.6322 189.596 17.6312C189.596 17.6303 189.596 17.6294 189.596 17.6285C189.596 17.6276 189.596 17.6267 189.596 17.6257C189.596 17.6248 189.596 17.6239 189.596 17.623C189.596 17.6221 189.596 17.6211 189.596 17.6202C189.596 17.6193 189.596 17.6184 189.596 17.6175C189.596 17.6165 189.596 17.6156 189.596 17.6147C189.596 17.6138 189.596 17.6128 189.596 17.6119C189.596 17.611 189.596 17.6101 189.596 17.6091C189.596 17.6082 189.596 17.6073 189.596 17.6064C189.596 17.6054 189.596 17.6045 189.596 17.6036C189.596 17.6027 189.596 17.6017 189.596 17.6008C189.596 17.5999 189.596 17.599 189.596 17.598C189.596 17.5971 189.596 17.5962 189.596 17.5953C189.596 17.5943 189.596 17.5934 189.596 17.5925C189.596 17.5915 189.596 17.5906 189.596 17.5897C189.596 17.5888 189.596 17.5878 189.596 17.5869C189.596 17.586 189.596 17.585 189.596 17.5841C189.596 17.5832 189.596 17.5822 189.596 17.5813C189.596 17.5804 189.596 17.5794 189.596 17.5785C189.596 17.5776 189.596 17.5766 189.596 17.5757C189.596 17.5748 189.596 17.5738 189.596 17.5729C189.596 17.572 189.596 17.571 189.596 17.5701C189.596 17.5692 189.596 17.5682 189.596 17.5673C189.596 17.5664 189.596 17.5654 189.596 17.5645C189.596 17.5636 189.596 17.5626 189.596 17.5617C189.596 17.5607 189.596 17.5598 189.596 17.5589C189.596 17.5579 189.596 17.557 189.596 17.5561C189.596 17.5551 189.596 17.5542 189.596 17.5532C189.596 17.5523 189.596 17.5514 189.596 17.5504C189.596 17.5495 189.596 17.5485 189.596 17.5476C189.596 17.5467 189.596 17.5457 189.596 17.5448C189.596 17.5438 189.596 17.5429 189.596 17.542C189.596 17.541 189.596 17.5401 189.596 17.5391C189.596 17.5382 189.596 17.5372 189.596 17.5363C189.596 17.5353 189.596 17.5344 189.596 17.5335C189.596 17.5325 189.596 17.5316 189.596 17.5306C189.596 17.5297 189.596 17.5287 189.596 17.5278C189.596 17.5268 189.596 17.5259 189.596 17.5249C189.596 17.524 189.596 17.5231 189.596 17.5221C189.596 17.5212 189.596 17.5202 189.596 17.5193C189.596 17.5183 189.596 17.5174 189.596 17.5164C189.596 17.5155 189.596 17.5145 189.596 17.5136C189.596 17.5126 189.596 17.5117 189.596 17.5107C189.596 17.5098 189.596 17.5088 189.596 17.5079C189.596 17.5069 189.596 17.506 189.596 17.505C189.596 17.5041 189.596 17.5031 189.596 17.5021C189.596 17.5012 189.596 17.5002 189.596 17.4993C189.596 17.4983 189.596 17.4974 189.596 17.4964C189.596 17.4955 189.596 17.4945 189.596 17.4936C189.596 17.4926 189.596 17.4916 189.596 17.4907C189.596 17.4897 189.596 17.4888 189.596 17.4878C189.596 17.4869 189.596 17.4859 189.596 17.485C189.596 17.484 189.596 17.483 189.596 17.4821C189.596 17.4811 189.596 17.4802 189.596 17.4792C189.596 17.4782 189.596 17.4773 189.596 17.4763C189.596 17.4754 189.596 17.4744 189.596 17.4734C189.596 17.4725 189.596 17.4715 189.596 17.4706C189.596 17.4696 189.596 17.4686 189.596 17.4677C189.596 17.4667 189.596 17.4657 189.596 17.4648C189.596 17.4638 189.596 17.4629 189.596 17.4619C189.596 17.4609 189.596 17.46 189.596 17.459C189.596 17.458 189.596 17.4571 189.596 17.4561C189.596 17.4551 189.596 17.4542 189.596 17.4532C189.596 17.4522 189.596 17.4513 189.596 17.4503C189.596 17.4493 189.596 17.4484 189.596 17.4474C189.596 17.4464 189.596 17.4455 189.596 17.4445C189.596 17.4435 189.596 17.4426 189.596 17.4416C189.596 17.4406 189.596 17.4397 189.596 17.4387C189.596 17.4377 189.596 17.4368 189.596 17.4358C189.596 17.4348 189.596 17.4338 189.596 17.4329C189.596 17.4319 189.596 17.4309 189.596 17.43C189.596 17.429 189.596 17.428 189.596 17.427C189.596 17.4261 189.596 17.4251 189.596 17.4241C189.596 17.4231 189.596 17.4222 189.596 17.4212C189.596 17.4202 189.596 17.4192 189.596 17.4183C189.596 17.4173 189.596 17.4163 189.596 17.4153C189.596 17.4144 189.596 17.4134 189.596 17.4124C189.596 17.4114 189.596 17.4105 189.596 17.4095C189.596 17.4085 189.596 17.4075 189.596 17.4065C189.596 17.4056 189.596 17.4046 189.596 17.4036C189.596 17.4026 189.596 17.4017 189.596 17.4007C189.596 17.3997 189.596 17.3987 189.596 17.3977C189.596 17.3968 189.596 17.3958 189.596 17.3948C189.596 17.3938 189.596 17.3928 189.596 17.3918C189.596 17.3909 189.596 17.3899 189.596 17.3889C189.596 17.3879 189.596 17.3869 189.596 17.3859C189.596 17.385 189.596 17.384 189.596 17.383C189.596 17.382 189.596 17.381 189.596 17.38C189.596 17.3791 189.596 17.3781 189.596 17.3771C189.596 17.3761 189.596 17.3751 189.596 17.3741C189.596 17.3731 189.596 17.3722 189.596 17.3712C189.596 17.3702 189.596 17.3692 189.596 17.3682C189.596 17.3672 189.596 17.3662 189.596 17.3652C189.596 17.3642 189.596 17.3633 189.596 17.3623C189.596 17.3613 189.596 17.3603 189.596 17.3593C189.596 17.3583 189.596 17.3573 189.596 17.3563C189.596 17.3553 189.596 17.3543 189.596 17.3534C189.596 17.3524 189.596 17.3514 189.596 17.3504C189.596 17.3494 189.596 17.3484 189.596 17.3474C189.596 17.3464 189.596 17.3454 189.596 17.3444C189.596 17.3434 189.596 17.3424 189.596 17.3414C189.596 17.3404 189.596 17.3394 189.596 17.3384C189.596 17.3374 189.596 17.3365 189.596 17.3355C189.596 17.3345 189.596 17.3335 189.596 17.3325C189.596 17.3315 189.596 17.3305 189.596 17.3295C189.596 17.3285 189.596 17.3275 189.596 17.3265C189.596 17.3255 189.596 17.3245 189.596 17.3235C189.596 17.3225 189.596 17.3215 189.596 17.3205C189.596 17.3195 189.596 17.3185 189.596 17.3175C189.596 17.3165 189.596 17.3155 189.596 17.3145C189.596 17.3135 189.596 17.3125 189.596 17.3115C189.596 17.3105 189.596 17.3095 189.596 17.3085C189.596 17.3075 189.596 17.3064 189.596 17.3054C189.596 17.3044 189.596 17.3034 189.596 17.3024C189.596 17.3014 189.596 17.3004 189.596 17.2994C189.596 17.2984 189.596 17.2974 189.596 17.2964C189.596 17.2954 189.596 17.2944 189.596 17.2934C189.596 17.2924 189.596 17.2914 189.596 17.2904C189.596 17.2893 189.596 17.2883 189.596 17.2873C189.596 17.2863 189.596 17.2853 189.596 17.2843C189.596 17.2833 189.596 17.2823 189.596 17.2813C189.596 17.2803 189.596 17.2793 189.596 17.2782C189.596 17.2772 189.596 17.2762 189.596 17.2752C189.596 17.2742 189.596 17.2732 189.596 17.2722C189.596 17.2712 189.596 17.2701 189.596 17.2691C189.596 17.2681 189.596 17.2671 189.596 17.2661C189.596 17.2651 189.596 17.2641 189.596 17.263C189.596 17.262 189.596 17.261 189.596 17.26H187.596C187.596 17.261 187.596 17.262 187.596 17.263C187.596 17.2641 187.596 17.2651 187.596 17.2661C187.596 17.2671 187.596 17.2681 187.596 17.2691C187.596 17.2701 187.596 17.2712 187.596 17.2722C187.596 17.2732 187.596 17.2742 187.596 17.2752C187.596 17.2762 187.596 17.2772 187.596 17.2782C187.596 17.2793 187.596 17.2803 187.596 17.2813C187.596 17.2823 187.596 17.2833 187.596 17.2843C187.596 17.2853 187.596 17.2863 187.596 17.2873C187.596 17.2883 187.596 17.2893 187.596 17.2904C187.596 17.2914 187.596 17.2924 187.596 17.2934C187.596 17.2944 187.596 17.2954 187.596 17.2964C187.596 17.2974 187.596 17.2984 187.596 17.2994C187.596 17.3004 187.596 17.3014 187.596 17.3024C187.596 17.3034 187.596 17.3044 187.596 17.3054C187.596 17.3064 187.596 17.3075 187.596 17.3085C187.596 17.3095 187.596 17.3105 187.596 17.3115C187.596 17.3125 187.596 17.3135 187.596 17.3145C187.596 17.3155 187.596 17.3165 187.596 17.3175C187.596 17.3185 187.596 17.3195 187.596 17.3205C187.596 17.3215 187.596 17.3225 187.596 17.3235C187.596 17.3245 187.596 17.3255 187.596 17.3265C187.596 17.3275 187.596 17.3285 187.596 17.3295C187.596 17.3305 187.596 17.3315 187.596 17.3325C187.596 17.3335 187.596 17.3345 187.596 17.3355C187.596 17.3365 187.596 17.3374 187.596 17.3384C187.596 17.3394 187.596 17.3404 187.596 17.3414C187.596 17.3424 187.596 17.3434 187.596 17.3444C187.596 17.3454 187.596 17.3464 187.596 17.3474C187.596 17.3484 187.596 17.3494 187.596 17.3504C187.596 17.3514 187.596 17.3524 187.596 17.3534C187.596 17.3543 187.596 17.3553 187.596 17.3563C187.596 17.3573 187.596 17.3583 187.596 17.3593C187.596 17.3603 187.596 17.3613 187.596 17.3623C187.596 17.3633 187.596 17.3642 187.596 17.3652C187.596 17.3662 187.596 17.3672 187.596 17.3682C187.596 17.3692 187.596 17.3702 187.596 17.3712C187.596 17.3722 187.596 17.3731 187.596 17.3741C187.596 17.3751 187.596 17.3761 187.596 17.3771C187.596 17.3781 187.596 17.3791 187.596 17.38C187.596 17.381 187.596 17.382 187.596 17.383C187.596 17.384 187.596 17.385 187.596 17.3859C187.596 17.3869 187.596 17.3879 187.596 17.3889C187.596 17.3899 187.596 17.3909 187.596 17.3918C187.596 17.3928 187.596 17.3938 187.596 17.3948C187.596 17.3958 187.596 17.3968 187.596 17.3977C187.596 17.3987 187.596 17.3997 187.596 17.4007C187.596 17.4017 187.596 17.4026 187.596 17.4036C187.596 17.4046 187.596 17.4056 187.596 17.4065C187.596 17.4075 187.596 17.4085 187.596 17.4095C187.596 17.4105 187.596 17.4114 187.596 17.4124C187.596 17.4134 187.596 17.4144 187.596 17.4153C187.596 17.4163 187.596 17.4173 187.596 17.4183C187.596 17.4192 187.596 17.4202 187.596 17.4212C187.596 17.4222 187.596 17.4231 187.596 17.4241C187.596 17.4251 187.596 17.4261 187.596 17.427C187.596 17.428 187.596 17.429 187.596 17.43C187.596 17.4309 187.596 17.4319 187.596 17.4329C187.596 17.4338 187.596 17.4348 187.596 17.4358C187.596 17.4368 187.596 17.4377 187.596 17.4387C187.596 17.4397 187.596 17.4406 187.596 17.4416C187.596 17.4426 187.596 17.4435 187.596 17.4445C187.596 17.4455 187.596 17.4464 187.596 17.4474C187.596 17.4484 187.596 17.4493 187.596 17.4503C187.596 17.4513 187.596 17.4522 187.596 17.4532C187.596 17.4542 187.596 17.4551 187.596 17.4561C187.596 17.4571 187.596 17.458 187.596 17.459C187.596 17.46 187.596 17.4609 187.596 17.4619C187.596 17.4629 187.596 17.4638 187.596 17.4648C187.596 17.4657 187.596 17.4667 187.596 17.4677C187.596 17.4686 187.596 17.4696 187.596 17.4706C187.596 17.4715 187.596 17.4725 187.596 17.4734C187.596 17.4744 187.596 17.4754 187.596 17.4763C187.596 17.4773 187.596 17.4782 187.596 17.4792C187.596 17.4802 187.596 17.4811 187.596 17.4821C187.596 17.483 187.596 17.484 187.596 17.485C187.596 17.4859 187.596 17.4869 187.596 17.4878C187.596 17.4888 187.596 17.4897 187.596 17.4907C187.596 17.4916 187.596 17.4926 187.596 17.4936C187.596 17.4945 187.596 17.4955 187.596 17.4964C187.596 17.4974 187.596 17.4983 187.596 17.4993C187.596 17.5002 187.596 17.5012 187.596 17.5021C187.596 17.5031 187.596 17.5041 187.596 17.505C187.596 17.506 187.596 17.5069 187.596 17.5079C187.596 17.5088 187.596 17.5098 187.596 17.5107C187.596 17.5117 187.596 17.5126 187.596 17.5136C187.596 17.5145 187.596 17.5155 187.596 17.5164C187.596 17.5174 187.596 17.5183 187.596 17.5193C187.596 17.5202 187.596 17.5212 187.596 17.5221C187.596 17.5231 187.596 17.524 187.596 17.5249C187.596 17.5259 187.596 17.5268 187.596 17.5278C187.596 17.5287 187.596 17.5297 187.596 17.5306C187.596 17.5316 187.596 17.5325 187.596 17.5335C187.596 17.5344 187.596 17.5353 187.596 17.5363C187.596 17.5372 187.596 17.5382 187.596 17.5391C187.596 17.5401 187.596 17.541 187.596 17.542C187.596 17.5429 187.596 17.5438 187.596 17.5448C187.596 17.5457 187.596 17.5467 187.596 17.5476C187.596 17.5485 187.596 17.5495 187.596 17.5504C187.596 17.5514 187.596 17.5523 187.596 17.5532C187.596 17.5542 187.596 17.5551 187.596 17.5561C187.596 17.557 187.596 17.5579 187.596 17.5589C187.596 17.5598 187.596 17.5607 187.596 17.5617C187.596 17.5626 187.596 17.5636 187.596 17.5645C187.596 17.5654 187.596 17.5664 187.596 17.5673C187.596 17.5682 187.596 17.5692 187.596 17.5701C187.596 17.571 187.596 17.572 187.596 17.5729C187.596 17.5738 187.596 17.5748 187.596 17.5757C187.596 17.5766 187.596 17.5776 187.596 17.5785C187.596 17.5794 187.596 17.5804 187.596 17.5813C187.596 17.5822 187.596 17.5832 187.596 17.5841C187.596 17.585 187.596 17.586 187.596 17.5869C187.596 17.5878 187.596 17.5888 187.596 17.5897C187.596 17.5906 187.596 17.5915 187.596 17.5925C187.596 17.5934 187.596 17.5943 187.596 17.5953C187.596 17.5962 187.596 17.5971 187.596 17.598C187.596 17.599 187.596 17.5999 187.596 17.6008C187.596 17.6017 187.596 17.6027 187.596 17.6036C187.596 17.6045 187.596 17.6054 187.596 17.6064C187.596 17.6073 187.596 17.6082 187.596 17.6091C187.596 17.6101 187.596 17.611 187.596 17.6119C187.596 17.6128 187.596 17.6138 187.596 17.6147C187.596 17.6156 187.596 17.6165 187.596 17.6175C187.596 17.6184 187.596 17.6193 187.596 17.6202C187.596 17.6211 187.596 17.6221 187.596 17.623C187.596 17.6239 187.596 17.6248 187.596 17.6257C187.596 17.6267 187.596 17.6276 187.596 17.6285C187.596 17.6294 187.596 17.6303 187.596 17.6312C187.596 17.6322 187.596 17.6331 187.596 17.634C187.596 17.6349 187.596 17.6358 187.596 17.6368C187.596 17.6377 187.596 17.6386 187.596 17.6395C187.596 17.6404 187.596 17.6413 187.596 17.6422C187.596 17.6432 187.596 17.6441 187.596 17.645C187.596 17.6459 187.596 17.6468 187.596 17.6477C187.596 17.6486 187.596 17.6496 187.596 17.6505C187.596 17.6514 187.596 17.6523 187.596 17.6532C187.596 17.6541 187.596 17.655 187.596 17.6559C187.596 17.6569 187.596 17.6578 187.596 17.6587C187.596 17.6596 187.596 17.6605 187.596 17.6614C187.596 17.6623 187.596 17.6632 187.596 17.6641C187.596 17.665 187.596 17.6659 187.596 17.6669C187.596 17.6678 187.596 17.6687 187.596 17.6696C187.596 17.6705 187.596 17.6714 187.596 17.6723C187.596 17.6732 187.596 17.6741 187.596 17.675C187.596 17.6759 187.596 17.6768 187.596 17.6777C187.596 17.6786 187.596 17.6795 187.596 17.6804C187.596 17.6814 187.596 17.6823 187.596 17.6832C187.596 17.6841 187.596 17.685 187.596 17.6859C187.596 17.6868 187.596 17.6877 187.596 17.6886C187.596 17.6895 187.596 17.6904 187.596 17.6913C187.596 17.6922 187.596 17.6931 187.596 17.694C187.596 17.6949 187.596 17.6958 187.596 17.6967C187.596 17.6976 187.596 17.6985 187.596 17.6994C187.596 17.7003 187.596 17.7012 187.596 17.7021C187.596 17.703 187.596 17.7039 187.596 17.7048C187.596 17.7057 187.596 17.7066 187.596 17.7075C187.596 17.7084 187.596 17.7093 187.596 17.7102C187.596 17.711 187.596 17.7119 187.596 17.7128C187.596 17.7137 187.596 17.7146 187.596 17.7155C187.596 17.7164 187.596 17.7173 187.596 17.7182C187.596 17.7191 187.596 17.72 187.596 17.7209C187.596 17.7218 187.596 17.7227 187.596 17.7236C187.596 17.7245 187.596 17.7253 187.596 17.7262C187.596 17.7271 187.596 17.728 187.596 17.7289C187.596 17.7298 187.596 17.7307 187.596 17.7316C187.596 17.7325 187.596 17.7334 187.596 17.7342C187.596 17.7351 187.596 17.736 187.596 17.7369C187.596 17.7378 187.596 17.7387 187.596 17.7396C187.596 17.7405 187.596 17.7413 187.596 17.7422C187.596 17.7431 187.596 17.744 187.596 17.7449C187.596 17.7458 187.596 17.7467 187.596 17.7476C187.596 17.7484 187.596 17.7493 187.596 17.7502C187.596 17.7511 187.596 17.752 187.596 17.7529C187.596 17.7537 187.596 17.7546 187.596 17.7555C187.596 17.7564 187.596 17.7573 187.596 17.7582C187.596 17.759 187.596 17.7599 187.596 17.7608C187.596 17.7617 187.596 17.7626 187.596 17.7634C187.596 17.7643 187.596 17.7652 187.596 17.7661C187.596 17.767 187.596 17.7678 187.596 17.7687C187.596 17.7696 187.596 17.7705 187.596 17.7714C187.596 17.7722 187.596 17.7731 187.596 17.774C187.596 17.7749 187.596 17.7757 187.596 17.7766C187.596 17.7775 187.596 17.7784 187.596 17.7793C187.596 17.7801 187.596 17.781 187.596 17.7819C187.596 17.7828 187.596 17.7836 187.596 17.7845C187.596 17.7854 187.596 17.7863 187.596 17.7871C187.596 17.788 187.596 17.7889 187.596 17.7897C187.596 17.7906 187.596 17.7915 187.596 17.7924C187.596 17.7932 187.596 17.7941 187.596 17.795C187.596 17.7959 187.596 17.7967 187.596 17.7976C187.596 17.7985 187.596 17.7993 187.596 17.8002C187.596 17.8011 187.596 17.8019 187.596 17.8028C187.596 17.8037 187.596 17.8045 187.596 17.8054C187.596 17.8063 187.596 17.8072 187.596 17.808C187.596 17.8089 187.596 17.8098 187.596 17.8106C187.596 17.8115 187.596 17.8124 187.596 17.8132C187.596 17.8141 187.596 17.815 187.596 17.8158C187.596 17.8167 187.596 17.8176 187.596 17.8184C187.596 17.8193 187.596 17.8201 187.596 17.821C187.596 17.8219 187.596 17.8227 187.596 17.8236C187.596 17.8245 187.596 17.8253 187.596 17.8262C187.596 17.827 187.596 17.8279 187.596 17.8288C187.596 17.8296 187.596 17.8305 187.596 17.8314C187.596 17.8322 187.596 17.8331 187.596 17.8339C187.596 17.8348 187.596 17.8357 187.596 17.8365C187.596 17.8374 187.596 17.8382 187.596 17.8391C187.596 17.84 187.596 17.8408 187.596 17.8417C187.596 17.8425 187.596 17.8434 187.596 17.8442C187.596 17.8451 187.596 17.846 187.596 17.8468C187.596 17.8477 187.596 17.8485 187.596 17.8494C187.596 17.8502 187.596 17.8511 187.596 17.8519C187.596 17.8528 187.596 17.8536 187.596 17.8545C187.596 17.8554 187.596 17.8562 187.596 17.8571C187.596 17.8579 187.596 17.8588 187.596 17.8596C187.596 17.8605 187.596 17.8613 187.596 17.8622C187.596 17.863 187.596 17.8639 187.596 17.8647C187.596 17.8656 187.596 17.8664 187.596 17.8673C187.596 17.8681 187.596 17.869 187.596 17.8698C187.596 17.8707 187.596 17.8715 187.596 17.8724C187.596 17.8732 187.596 17.8741 187.596 17.8749C187.596 17.8758 187.596 17.8766 187.596 17.8775C187.596 17.8783 187.596 17.8792 187.596 17.88C187.596 17.8809 187.596 17.8817 187.596 17.8825C187.596 17.8834 187.596 17.8842 187.596 17.8851C187.596 17.8859 187.596 17.8868 187.596 17.8876C187.596 17.8885 187.596 17.8893 187.596 17.8901C187.596 17.891 187.596 17.8918 187.596 17.8927C187.596 17.8935 187.596 17.8944 187.596 17.8952C187.596 17.896 187.596 17.8969 187.596 17.8977C187.596 17.8986 187.596 17.8994 187.596 17.9002C187.596 17.9011 187.596 17.9019 187.596 17.9028C187.596 17.9036 187.596 17.9044 187.596 17.9053C187.596 17.9061 187.596 17.907 187.596 17.9078C187.596 17.9086 187.596 17.9095 187.596 17.9103C187.596 17.9111 187.596 17.912 187.596 17.9128C187.596 17.9137 187.596 17.9145 187.596 17.9153C187.596 17.9162 187.596 17.917 187.596 17.9178C187.596 17.9187 187.596 17.9195 187.596 17.9203C187.596 17.9212 187.596 17.922 187.596 17.9228C187.596 17.9237 187.596 17.9245 187.596 17.9253C187.596 17.9262 187.596 17.927 187.596 17.9278C187.596 17.9287 187.596 17.9295 187.596 17.9303C187.596 17.9312 187.596 17.932 187.596 17.9328C187.596 17.9336 187.596 17.9345 187.596 17.9353C187.596 17.9361 187.596 17.937 187.596 17.9378C187.596 17.9386 187.596 17.9394 187.596 17.9403C187.596 17.9411 187.596 17.9419 187.596 17.9428C187.596 17.9436 187.596 17.9444 187.596 17.9452C187.596 17.9461 187.596 17.9469 187.596 17.9477C187.596 17.9485 187.596 17.9494 187.596 17.9502C187.596 17.951 187.596 17.9518 187.596 17.9527C187.596 17.9535 187.596 17.9543 187.596 17.9551C187.596 17.956 187.596 17.9568 187.596 17.9576C187.596 17.9584 187.596 17.9593 187.596 17.9601C187.596 17.9609 187.596 17.9617 187.596 17.9625C187.596 17.9634 187.596 17.9642 187.596 17.965C187.596 17.9658 187.596 17.9666 187.596 17.9675C187.596 17.9683 187.596 17.9691 187.596 17.9699C187.596 17.9707 187.596 17.9716 187.596 17.9724C187.596 17.9732 187.596 17.974 187.596 17.9748C187.596 17.9756 187.596 17.9765 187.596 17.9773C187.596 17.9781 187.596 17.9789 187.596 17.9797C187.596 17.9805 187.596 17.9814 187.596 17.9822C187.596 17.983 187.596 17.9838 187.596 17.9846C187.596 17.9854 187.596 17.9862 187.596 17.9871C187.596 17.9879 187.596 17.9887 187.596 17.9895C187.596 17.9903 187.596 17.9911 187.596 17.9919C187.596 17.9927 187.596 17.9936 187.596 17.9944C187.596 17.9952 187.596 17.996 187.596 17.9968C187.596 17.9976 187.596 17.9984 187.596 17.9992C187.596 18 187.596 18.0008 187.596 18.0017C187.596 18.0025 187.596 18.0033 187.596 18.0041C187.596 18.0049 187.596 18.0057 187.596 18.0065C187.596 18.0073 187.596 18.0081 187.596 18.0089C187.596 18.0097 187.596 18.0105 187.596 18.0113C187.596 18.0122 187.596 18.013 187.596 18.0138C187.596 18.0146 187.596 18.0154 187.596 18.0162C187.596 18.017 187.596 18.0178 187.596 18.0186C187.596 18.0194 187.596 18.0202 187.596 18.021C187.596 18.0218 187.596 18.0226 187.596 18.0234C187.596 18.0242 187.596 18.025 187.596 18.0258C187.596 18.0266 187.596 18.0274 187.596 18.0282C187.596 18.029 187.596 18.0298 187.596 18.0306C187.596 18.0314 187.596 18.0322 187.596 18.033C187.596 18.0338 187.596 18.0346 187.596 18.0354C187.596 18.0362 187.596 18.037 187.596 18.0378C187.596 18.0386 187.596 18.0394 187.596 18.0402C187.596 18.041 187.596 18.0418 187.596 18.0426C187.596 18.0434 187.596 18.0442 187.596 18.045C187.596 18.0458 187.596 18.0466 187.596 18.0473C187.596 18.0481 187.596 18.0489 187.596 18.0497C187.596 18.0505 187.596 18.0513 187.596 18.0521C187.596 18.0529 187.596 18.0537 187.596 18.0545C187.596 18.0553 187.596 18.0561 187.596 18.0569C187.596 18.0577 187.596 18.0584 187.596 18.0592C187.596 18.06 187.596 18.0608 187.596 18.0616C187.596 18.0624 187.596 18.0632 187.596 18.064C187.596 18.0648 187.596 18.0656 187.596 18.0663C187.596 18.0671 187.596 18.0679 187.596 18.0687C187.596 18.0695 187.596 18.0703 187.596 18.0711C187.596 18.0719 187.596 18.0726 187.596 18.0734C187.596 18.0742 187.596 18.075 187.596 18.0758C187.596 18.0766 187.596 18.0774 187.596 18.0781C187.596 18.0789 187.596 18.0797 187.596 18.0805C187.596 18.0813 187.596 18.0821 187.596 18.0828C187.596 18.0836 187.596 18.0844 187.596 18.0852C187.596 18.086 187.596 18.0867 187.596 18.0875C187.596 18.0883 187.596 18.0891 187.596 18.0899C187.596 18.0907 187.596 18.0914 187.596 18.0922C187.596 18.093 187.596 18.0938 187.596 18.0946C187.596 18.0953 187.596 18.0961 187.596 18.0969C187.596 18.0977 187.596 18.0984 187.596 18.0992C187.596 18.1 187.596 18.1008 187.596 18.1016C187.596 18.1023 187.596 18.1031 187.596 18.1039C187.596 18.1047 187.596 18.1054 187.596 18.1062C187.596 18.107 187.596 18.1078 187.596 18.1085C187.596 18.1093 187.596 18.1101 187.596 18.1109C187.596 18.1116 187.596 18.1124 187.596 18.1132C187.596 18.114 187.596 18.1147 187.596 18.1155C187.596 18.1163 187.596 18.117 187.596 18.1178C187.596 18.1186 187.596 18.1194 187.596 18.1201C187.596 18.1209 187.596 18.1217 187.596 18.1224C187.596 18.1232 187.596 18.124 187.596 18.1247C187.596 18.1255 187.596 18.1263 187.596 18.1271C187.596 18.1278 187.596 18.1286 187.596 18.1294C187.596 18.1301 187.596 18.1309 187.596 18.1317C187.596 18.1324 187.596 18.1332 187.596 18.134C187.596 18.1347 187.596 18.1355 187.596 18.1363C187.596 18.137 187.596 18.1378 187.596 18.1385C187.596 18.1393 187.596 18.1401 187.596 18.1408C187.596 18.1416 187.596 18.1424 187.596 18.1431C187.596 18.1439 187.596 18.1447 187.596 18.1454C187.596 18.1462 187.596 18.1469 187.596 18.1477C187.596 18.1485 187.596 18.1492 187.596 18.15C187.596 18.1508 187.596 18.1515 187.596 18.1523C187.596 18.153 187.596 18.1538 187.596 18.1546C187.596 18.1553 187.596 18.1561 187.596 18.1568C187.596 18.1576 187.596 18.1583 187.596 18.1591C187.596 18.1599 187.596 18.1606 187.596 18.1614C187.596 18.1621 187.596 18.1629 187.596 18.1636C187.596 18.1644 187.596 18.1652 187.596 18.1659C187.596 18.1667 187.596 18.1674 187.596 18.1682C187.596 18.1689 187.596 18.1697 187.596 18.1704C187.596 18.1712 187.596 18.1719 187.596 18.1727C187.596 18.1735 187.596 18.1742 187.596 18.175C187.596 18.1757 187.596 18.1765 187.596 18.1772C187.596 18.178 187.596 18.1787 187.596 18.1795C187.596 18.1802 187.596 18.181 187.596 18.1817C187.596 18.1825 187.596 18.1832 187.596 18.184C187.596 18.1847 187.596 18.1855 187.596 18.1862C187.596 18.187 187.596 18.1877 187.596 18.1885C187.596 18.1892 187.596 18.19 187.596 18.1907C187.596 18.1914 187.596 18.1922 187.596 18.1929C187.596 18.1937 187.596 18.1944 187.596 18.1952C187.596 18.1959 187.596 18.1967 187.596 18.1974C187.596 18.1982 187.596 18.1989 187.596 18.1996C187.596 18.2004 187.596 18.2011 187.596 18.2019C187.596 18.2026 187.596 18.2034 187.596 18.2041C187.596 18.2049 187.596 18.2056 187.596 18.2063C187.596 18.2071 187.596 18.2078 187.596 18.2086C187.596 18.2093 187.596 18.21 187.596 18.2108C187.596 18.2115 187.596 18.2123 187.596 18.213C187.596 18.2137 187.596 18.2145 187.596 18.2152C187.596 18.216 187.596 18.2167 187.596 18.2174C187.596 18.2182 187.596 18.2189 187.596 18.2196C187.596 18.2204 187.596 18.2211 187.596 18.2219C187.596 18.2226 187.596 18.2233 187.596 18.2241C187.596 18.2248 187.596 18.2255 187.596 18.2263C187.596 18.227 187.596 18.2277 187.596 18.2285C187.596 18.2292 187.596 18.2299 187.596 18.2307C187.596 18.2314 187.596 18.2321 187.596 18.2329C187.596 18.2336 187.596 18.2343 187.596 18.2351C187.596 18.2358 187.596 18.2365 187.596 18.2373C187.596 18.238 187.596 18.2387 187.596 18.2395C187.596 18.2402 187.596 18.2409 187.596 18.2416C187.596 18.2424 187.596 18.2431 187.596 18.2438C187.596 18.2446 187.596 18.2453 187.596 18.246C187.596 18.2467 187.596 18.2475 187.596 18.2482C187.596 18.2489 187.596 18.2497 187.596 18.2504C187.596 18.2511 187.596 18.2518 187.596 18.2526C187.596 18.2533 187.596 18.254 187.596 18.2547C187.596 18.2555 187.596 18.2562 187.596 18.2569C187.596 18.2576 187.596 18.2584 187.596 18.2591C187.596 18.2598 187.596 18.2605 187.596 18.2612C187.596 18.262 187.596 18.2627 187.596 18.2634C187.596 18.2641 187.596 18.2649 187.596 18.2656C187.596 18.2663 187.596 18.267 187.596 18.2677C187.596 18.2685 187.596 18.2692 187.596 18.2699C187.596 18.2706 187.596 18.2713 187.596 18.2721C187.596 18.2728 187.596 18.2735 187.596 18.2742C187.596 18.2749 187.596 18.2757 187.596 18.2764C187.596 18.2771 187.596 18.2778 187.596 18.2785C187.596 18.2792 187.596 18.28 187.596 18.2807C187.596 18.2814 187.596 18.2821 187.596 18.2828C187.596 18.2835 187.596 18.2842 187.596 18.285C187.596 18.2857 187.596 18.2864 187.596 18.2871C187.596 18.2878 187.596 18.2885 187.596 18.2892C187.596 18.29 187.596 18.2907 187.596 18.2914C187.596 18.2921 187.596 18.2928 187.596 18.2935C187.596 18.2942 187.596 18.2949 187.596 18.2956C187.596 18.2964 187.596 18.2971 187.596 18.2978C187.596 18.2985 187.596 18.2992 187.596 18.2999C187.596 18.3006 187.596 18.3013 187.596 18.302C187.596 18.3027 187.596 18.3034 187.596 18.3042C187.596 18.3049 187.596 18.3056 187.596 18.3063C187.596 18.307 187.596 18.3077 187.596 18.3084C187.596 18.3091 187.596 18.3098 187.596 18.3105C187.596 18.3112 187.596 18.3119 187.596 18.3126C187.596 18.3133 187.596 18.314 187.596 18.3147C187.596 18.3154 187.596 18.3161 187.596 18.3168C187.596 18.3175 187.596 18.3182 187.596 18.319C187.596 18.3197 187.596 18.3204 187.596 18.3211C187.596 18.3218 187.596 18.3225 187.596 18.3232C187.596 18.3239 187.596 18.3246 187.596 18.3253C187.596 18.326 187.596 18.3267 187.596 18.3274C187.596 18.3281 187.596 18.3288 187.596 18.3295C187.596 18.3302 187.596 18.3308 187.596 18.3315C187.596 18.3322 187.596 18.3329 187.596 18.3336C187.596 18.3343 187.596 18.335 187.596 18.3357C187.596 18.3364 187.596 18.3371 187.596 18.3378C187.596 18.3385 187.596 18.3392 187.596 18.3399C187.596 18.3406 187.596 18.3413 187.596 18.342C187.596 18.3427 187.596 18.3434 187.596 18.3441C187.596 18.3448 187.596 18.3454 187.596 18.3461C187.596 18.3468 187.596 18.3475 187.596 18.3482C187.596 18.3489 187.596 18.3496 187.596 18.3503C187.596 18.351 187.596 18.3517 187.596 18.3524C187.596 18.353 187.596 18.3537 187.596 18.3544C187.596 18.3551 187.596 18.3558 187.596 18.3565C187.596 18.3572 187.596 18.3579 187.596 18.3586C187.596 18.3592 187.596 18.3599 187.596 18.3606C187.596 18.3613 187.596 18.362 187.596 18.3627C187.596 18.3634 187.596 18.364 187.596 18.3647C187.596 18.3654 187.596 18.3661 187.596 18.3668C187.596 18.3675 187.596 18.3682 187.596 18.3688C187.596 18.3695 187.596 18.3702 187.596 18.3709C187.596 18.3716 187.596 18.3723 187.596 18.3729C187.596 18.3736 187.596 18.3743 187.596 18.375C187.596 18.3757 187.596 18.3763 187.596 18.377C187.596 18.3777 187.596 18.3784 187.596 18.3791C187.596 18.3797 187.596 18.3804 187.596 18.3811C187.596 18.3818 187.596 18.3825 187.596 18.3831C187.596 18.3838 187.596 18.3845 187.596 18.3852C187.596 18.3859 187.596 18.3865 187.596 18.3872C187.596 18.3879 187.596 18.3886 187.596 18.3892C187.596 18.3899 187.596 18.3906 187.596 18.3913C187.596 18.3919 187.596 18.3926 187.596 18.3933C187.596 18.394 187.596 18.3946 187.596 18.3953C187.596 18.396 187.596 18.3967 187.596 18.3973C187.596 18.398 187.596 18.3987 187.596 18.3994C187.596 18.4 187.596 18.4007 187.596 18.4014C187.596 18.402 187.596 18.4027 187.596 18.4034C187.596 18.4041 187.596 18.4047 187.596 18.4054C187.596 18.4061 187.596 18.4067 187.596 18.4074C187.596 18.4081 187.596 18.4087 187.596 18.4094C187.596 18.4101 187.596 18.4107 187.596 18.4114C187.596 18.4121 187.596 18.4127 187.596 18.4134C187.596 18.4141 187.596 18.4147 187.596 18.4154C187.596 18.4161 187.596 18.4167 187.596 18.4174C187.596 18.4181 187.596 18.4187 187.596 18.4194C187.596 18.4201 187.596 18.4207 187.596 18.4214C187.596 18.4221 187.596 18.4227 187.596 18.4234C187.596 18.4241 187.596 18.4247 187.596 18.4254C187.596 18.426 187.596 18.4267 187.596 18.4274C187.596 18.428 187.596 18.4287 187.596 18.4293C187.596 18.43 187.596 18.4307 187.596 18.4313C187.596 18.432 187.596 18.4326 187.596 18.4333C187.596 18.434 187.596 18.4346 187.596 18.4353C187.596 18.4359 187.596 18.4366 187.596 18.4373C187.596 18.4379 187.596 18.4386 187.596 18.4392C187.596 18.4399 187.596 18.4405 187.596 18.4412C187.596 18.4419 187.596 18.4425 187.596 18.4432C187.596 18.4438 187.596 18.4445 187.596 18.4451C187.596 18.4458 187.596 18.4464 187.596 18.4471C187.596 18.4478 187.596 18.4484 187.596 18.4491C187.596 18.4497 187.596 18.4504 187.596 18.451C187.596 18.4517 187.596 18.4523 187.596 18.453C187.596 18.4536 187.596 18.4543 187.596 18.4549C187.596 18.4556 187.596 18.4562 187.596 18.4569C187.596 18.4575 187.596 18.4582 187.596 18.4588C187.596 18.4595 187.596 18.4601 187.596 18.4608C187.596 18.4614 187.596 18.4621 187.596 18.4627C187.596 18.4634 187.596 18.464 187.596 18.4647C187.596 18.4653 187.596 18.466 187.596 18.4666C187.596 18.4672 187.596 18.4679 187.596 18.4685C187.596 18.4692 187.596 18.4698 187.596 18.4705C187.596 18.4711 187.596 18.4718 187.596 18.4724C187.596 18.4731 187.596 18.4737 187.596 18.4743C187.596 18.475 187.596 18.4756 187.596 18.4763C187.596 18.4769 187.596 18.4776 187.596 18.4782C187.596 18.4788 187.596 18.4795 187.596 18.4801C187.596 18.4808 187.596 18.4814 187.596 18.482C187.596 18.4827 187.596 18.4833 187.596 18.484C187.596 18.4846 187.596 18.4852 187.596 18.4859C187.596 18.4865 187.596 18.4872 187.596 18.4878C187.596 18.4884 187.596 18.4891 187.596 18.4897C187.596 18.4903 187.596 18.491 187.596 18.4916C187.596 18.4923 187.596 18.4929 187.596 18.4935C187.596 18.4942 187.596 18.4948 187.596 18.4954C187.596 18.4961 187.596 18.4967 187.596 18.4973C187.596 18.498 187.596 18.4986 187.596 18.4992C187.596 18.4999 187.596 18.5005 187.596 18.5011C187.596 18.5018 187.596 18.5024 187.596 18.503C187.596 18.5037 187.596 18.5043 187.596 18.5049C187.596 18.5056 187.596 18.5062 187.596 18.5068C187.596 18.5074 187.596 18.5081 187.596 18.5087C187.596 18.5093 187.596 18.51 187.596 18.5106C187.596 18.5112 187.596 18.5119 187.596 18.5125C187.596 18.5131 187.596 18.5137 187.596 18.5144C187.596 18.515 187.596 18.5156 187.596 18.5162C187.596 18.5169 187.596 18.5175 187.596 18.5181C187.596 18.5187 187.596 18.5194 187.596 18.52H189.596ZM189.595 17.2984C189.615 16.7789 189.635 16.2694 189.655 15.77L187.657 15.69C187.636 16.1906 187.616 16.7011 187.596 17.2216L189.595 17.2984ZM189.655 15.7684C189.675 15.2513 189.694 14.8769 189.713 14.6367L187.719 14.4833C187.697 14.7631 187.677 15.1687 187.656 15.6916L189.655 15.7684ZM187.872 14.0232L179.322 27.4632L181.009 28.5368L189.559 15.0968L187.872 14.0232ZM180.166 27H176.896V29H180.166V27ZM177.896 28V11.92H175.896V28H177.896ZM176.896 12.92H179.386V10.92H176.896V12.92ZM178.386 11.92V21.73H180.386V11.92H178.386Z" fill="black"/>
<line y1="-1.5" x2="165.519" y2="-1.5" transform="matrix(0.999987 -0.00504483 0.00880945 0.999961 9 47.2727)" stroke="black" stroke-width="3"/>
<line x1="172.983" y1="44" x2="172.983" y2="56.3" stroke="black" stroke-width="3"/>
<line x1="188.5" y1="54" x2="188.5" y2="66.3" stroke="black" stroke-width="3"/>
<line x1="172" y1="55.5" x2="188.588" y2="55.5" stroke="black" stroke-width="3"/>
<path d="M187 66H203.588" stroke="black" stroke-width="3"/>
<path d="M994.931 342.5C993.276 308.833 963.703 240.4 858.655 236C753.607 231.6 426.839 215.5 276.586 208C214.609 208 91.4276 175.7 94.5173 46.5" stroke="black" stroke-width="3"/>
<path d="M994.293 344.707C994.683 345.098 995.317 345.098 995.707 344.707L1002.07 338.343C1002.46 337.953 1002.46 337.319 1002.07 336.929C1001.68 336.538 1001.05 336.538 1000.66 336.929L995 342.586L989.343 336.929C988.953 336.538 988.319 336.538 987.929 336.929C987.538 337.319 987.538 337.953 987.929 338.343L994.293 344.707ZM994 338V344H996V338H994Z" fill="black"/>
</svg>
