<svg width="985" height="350" viewBox="0 0 985 350" fill="none" xmlns="http://www.w3.org/2000/svg">
<path d="M789.56 38H755.88V9.44H759.48V34.8H770.88V9.44H774.48V34.8H785.92V9.44H789.56V38ZM805.004 16.2C807.618 16.2 809.551 16.7733 810.804 17.92C812.058 19.0667 812.684 20.8933 812.684 23.4V38H810.124L809.444 34.96H809.284C808.671 35.7333 808.031 36.3867 807.364 36.92C806.724 37.4267 805.978 37.8 805.124 38.04C804.298 38.28 803.284 38.4 802.084 38.4C800.804 38.4 799.644 38.1733 798.604 37.72C797.591 37.2667 796.791 36.5733 796.204 35.64C795.618 34.68 795.324 33.48 795.324 32.04C795.324 29.9067 796.164 28.2667 797.844 27.12C799.524 25.9467 802.111 25.3067 805.604 25.2L809.244 25.08V23.8C809.244 22.0133 808.858 20.7733 808.084 20.08C807.311 19.3867 806.218 19.04 804.804 19.04C803.684 19.04 802.618 19.2133 801.604 19.56C800.591 19.88 799.644 20.2533 798.764 20.68L797.684 18.04C798.618 17.5333 799.724 17.1067 801.004 16.76C802.284 16.3867 803.618 16.2 805.004 16.2ZM806.044 27.64C803.378 27.7467 801.524 28.1733 800.484 28.92C799.471 29.6667 798.964 30.72 798.964 32.08C798.964 33.28 799.324 34.16 800.044 34.72C800.791 35.28 801.738 35.56 802.884 35.56C804.698 35.56 806.204 35.0667 807.404 34.08C808.604 33.0667 809.204 31.52 809.204 29.44V27.52L806.044 27.64ZM832.386 16.56V19.52H822.826V38H819.306V16.56H832.386ZM862.249 21.96C862.249 23.2933 861.849 24.3333 861.049 25.08C860.249 25.8267 859.223 26.3333 857.969 26.6V26.76C859.303 26.9467 860.463 27.4267 861.449 28.2C862.436 28.9467 862.929 30.12 862.929 31.72C862.929 32.6267 862.756 33.4667 862.409 34.24C862.089 35.0133 861.583 35.68 860.889 36.24C860.196 36.8 859.303 37.24 858.209 37.56C857.116 37.8533 855.796 38 854.249 38H845.009V16.56H854.209C855.729 16.56 857.089 16.7333 858.289 17.08C859.516 17.4 860.476 17.96 861.169 18.76C861.889 19.5333 862.249 20.6 862.249 21.96ZM859.289 31.72C859.289 30.4933 858.823 29.6133 857.889 29.08C856.956 28.5467 855.583 28.28 853.769 28.28H848.529V35.16H853.849C855.609 35.16 856.956 34.9067 857.889 34.4C858.823 33.8667 859.289 32.9733 859.289 31.72ZM858.689 22.4C858.689 21.3867 858.316 20.6533 857.569 20.2C856.849 19.72 855.663 19.48 854.009 19.48H848.529V25.36H853.369C855.103 25.36 856.423 25.12 857.329 24.64C858.236 24.16 858.689 23.4133 858.689 22.4ZM882.856 19.52H875.856V38H872.376V19.52H865.456V16.56H882.856V19.52ZM905.329 27.24C905.329 29.0267 905.089 30.6133 904.609 32C904.156 33.36 903.489 34.52 902.609 35.48C901.756 36.44 900.702 37.1733 899.449 37.68C898.222 38.16 896.849 38.4 895.329 38.4C893.916 38.4 892.609 38.16 891.409 37.68C890.209 37.1733 889.169 36.44 888.289 35.48C887.409 34.52 886.716 33.36 886.209 32C885.729 30.6133 885.489 29.0267 885.489 27.24C885.489 24.8667 885.889 22.8667 886.689 21.24C887.489 19.5867 888.636 18.3333 890.129 17.48C891.622 16.6 893.396 16.16 895.449 16.16C897.396 16.16 899.102 16.6 900.569 17.48C902.062 18.3333 903.222 19.5867 904.049 21.24C904.902 22.8667 905.329 24.8667 905.329 27.24ZM889.129 27.24C889.129 28.92 889.342 30.3867 889.769 31.64C890.222 32.8667 890.916 33.8133 891.849 34.48C892.782 35.1467 893.969 35.48 895.409 35.48C896.849 35.48 898.036 35.1467 898.969 34.48C899.902 33.8133 900.582 32.8667 901.009 31.64C901.462 30.3867 901.689 28.92 901.689 27.24C901.689 25.5333 901.462 24.08 901.009 22.88C900.556 21.68 899.862 20.76 898.929 20.12C898.022 19.4533 896.836 19.12 895.369 19.12C893.182 19.12 891.596 19.84 890.609 21.28C889.622 22.72 889.129 24.7067 889.129 27.24ZM921.108 16.16C923.748 16.16 925.868 17.08 927.468 18.92C929.094 20.76 929.908 23.5333 929.908 27.24C929.908 29.6667 929.534 31.72 928.788 33.4C928.068 35.0533 927.041 36.3067 925.708 37.16C924.401 37.9867 922.854 38.4 921.068 38.4C919.974 38.4 919.001 38.2533 918.148 37.96C917.294 37.6667 916.561 37.2933 915.948 36.84C915.361 36.36 914.854 35.84 914.428 35.28H914.188C914.241 35.7333 914.294 36.3067 914.348 37C914.401 37.6933 914.428 38.2933 914.428 38.8V47.6H910.908V16.56H913.788L914.268 19.48H914.428C914.854 18.8667 915.361 18.3067 915.948 17.8C916.561 17.2933 917.281 16.8933 918.108 16.6C918.961 16.3067 919.961 16.16 921.108 16.16ZM920.468 19.12C919.028 19.12 917.868 19.4 916.988 19.96C916.108 20.4933 915.468 21.3067 915.068 22.4C914.668 23.4933 914.454 24.88 914.428 26.56V27.24C914.428 29 914.614 30.4933 914.988 31.72C915.361 32.9467 915.988 33.88 916.868 34.52C917.774 35.16 919.001 35.48 920.548 35.48C921.854 35.48 922.921 35.12 923.748 34.4C924.601 33.68 925.228 32.7067 925.628 31.48C926.054 30.2267 926.268 28.8 926.268 27.2C926.268 24.7467 925.788 22.7867 924.828 21.32C923.894 19.8533 922.441 19.12 920.468 19.12ZM954.157 27.24C954.157 29.0267 953.917 30.6133 953.437 32C952.984 33.36 952.317 34.52 951.437 35.48C950.584 36.44 949.531 37.1733 948.277 37.68C947.051 38.16 945.677 38.4 944.157 38.4C942.744 38.4 941.437 38.16 940.237 37.68C939.037 37.1733 937.997 36.44 937.117 35.48C936.237 34.52 935.544 33.36 935.037 32C934.557 30.6133 934.317 29.0267 934.317 27.24C934.317 24.8667 934.717 22.8667 935.517 21.24C936.317 19.5867 937.464 18.3333 938.957 17.48C940.451 16.6 942.224 16.16 944.277 16.16C946.224 16.16 947.931 16.6 949.397 17.48C950.891 18.3333 952.051 19.5867 952.877 21.24C953.731 22.8667 954.157 24.8667 954.157 27.24ZM937.957 27.24C937.957 28.92 938.171 30.3867 938.597 31.64C939.051 32.8667 939.744 33.8133 940.677 34.48C941.611 35.1467 942.797 35.48 944.237 35.48C945.677 35.48 946.864 35.1467 947.797 34.48C948.731 33.8133 949.411 32.8667 949.837 31.64C950.291 30.3867 950.517 28.92 950.517 27.24C950.517 25.5333 950.291 24.08 949.837 22.88C949.384 21.68 948.691 20.76 947.757 20.12C946.851 19.4533 945.664 19.12 944.197 19.12C942.011 19.12 940.424 19.84 939.437 21.28C938.451 22.72 937.957 24.7067 937.957 27.24ZM977.096 7.68C976.989 9.01333 976.656 10.1333 976.096 11.04C975.563 11.9467 974.763 12.6267 973.696 13.08C972.629 13.5333 971.243 13.76 969.536 13.76C967.803 13.76 966.403 13.5333 965.336 13.08C964.296 12.6267 963.536 11.96 963.056 11.08C962.576 10.1733 962.283 9.04 962.176 7.68H965.456C965.589 9.12 965.963 10.0933 966.576 10.6C967.216 11.08 968.229 11.32 969.616 11.32C970.843 11.32 971.803 11.0667 972.496 10.56C973.216 10.0267 973.643 9.06667 973.776 7.68H977.096ZM963.056 29.64C963.056 29.88 963.043 30.2267 963.016 30.68C963.016 31.1067 963.003 31.5733 962.976 32.08C962.949 32.56 962.923 33.0267 962.896 33.48C962.869 33.9067 962.843 34.2533 962.816 34.52L974.296 16.56H978.616V38H975.336V25.36C975.336 24.9333 975.336 24.3733 975.336 23.68C975.363 22.9867 975.389 22.3067 975.416 21.64C975.443 20.9467 975.469 20.4267 975.496 20.08L964.096 38H959.736V16.56H963.056V29.64Z" fill="black"/>
<path d="M789.56 38V39H790.56V38H789.56ZM755.88 38H754.88V39H755.88V38ZM755.88 9.44V8.44H754.88V9.44H755.88ZM759.48 9.44H760.48V8.44H759.48V9.44ZM759.48 34.8H758.48V35.8H759.48V34.8ZM770.88 34.8V35.8H771.88V34.8H770.88ZM770.88 9.44V8.44H769.88V9.44H770.88ZM774.48 9.44H775.48V8.44H774.48V9.44ZM774.48 34.8H773.48V35.8H774.48V34.8ZM785.92 34.8V35.8H786.92V34.8H785.92ZM785.92 9.44V8.44H784.92V9.44H785.92ZM789.56 9.44H790.56V8.44H789.56V9.44ZM789.56 37H755.88V39H789.56V37ZM756.88 38V9.44H754.88V38H756.88ZM755.88 10.44H759.48V8.44H755.88V10.44ZM758.48 9.44V34.8H760.48V9.44H758.48ZM759.48 35.8H770.88V33.8H759.48V35.8ZM771.88 34.8V9.44H769.88V34.8H771.88ZM770.88 10.44H774.48V8.44H770.88V10.44ZM773.48 9.44V34.8H775.48V9.44H773.48ZM774.48 35.8H785.92V33.8H774.48V35.8ZM786.92 34.8V9.44H784.92V34.8H786.92ZM785.92 10.44H789.56V8.44H785.92V10.44ZM788.56 9.44V38H790.56V9.44H788.56ZM810.804 17.92L811.479 17.1822L811.479 17.1822L810.804 17.92ZM812.684 38V39H813.684V38H812.684ZM810.124 38L809.148 38.2183L809.323 39H810.124V38ZM809.444 34.96L810.42 34.7417L810.245 33.96H809.444V34.96ZM809.284 34.96V33.96H808.801L808.501 34.3386L809.284 34.96ZM807.364 36.92L807.985 37.7041L807.989 37.7009L807.364 36.92ZM805.124 38.04L804.854 37.0773L804.846 37.0797L805.124 38.04ZM798.604 37.72L798.196 38.6329L798.205 38.6367L798.604 37.72ZM796.204 35.64L795.351 36.1615L795.358 36.1722L796.204 35.64ZM797.844 27.12L798.408 27.946L798.417 27.9398L797.844 27.12ZM805.604 25.2L805.635 26.1995L805.637 26.1995L805.604 25.2ZM809.244 25.08L809.277 26.0795L810.244 26.0476V25.08H809.244ZM808.084 20.08L807.417 20.8246L807.417 20.8246L808.084 20.08ZM801.604 19.56L801.906 20.5136L801.917 20.51L801.928 20.5062L801.604 19.56ZM798.764 20.68L797.839 21.0586L798.242 22.0445L799.201 21.5798L798.764 20.68ZM797.684 18.04L797.207 17.1611L796.419 17.5889L796.759 18.4186L797.684 18.04ZM801.004 16.76L801.266 17.7252L801.275 17.7227L801.284 17.72L801.004 16.76ZM806.044 27.64L806.006 26.6407L806.004 26.6408L806.044 27.64ZM800.484 28.92L799.901 28.1076L799.891 28.1149L800.484 28.92ZM800.044 34.72L799.43 35.5094L799.437 35.5147L799.444 35.52L800.044 34.72ZM807.404 34.08L808.04 34.8525L808.05 34.844L807.404 34.08ZM809.204 27.52H810.204V26.4813L809.166 26.5207L809.204 27.52ZM805.004 17.2C807.498 17.2 809.138 17.7507 810.129 18.6578L811.479 17.1822C809.964 15.796 807.738 15.2 805.004 15.2V17.2ZM810.129 18.6578C811.094 19.5401 811.684 21.0393 811.684 23.4H813.684C813.684 20.7473 813.022 18.5933 811.479 17.1822L810.129 18.6578ZM811.684 23.4V38H813.684V23.4H811.684ZM812.684 37H810.124V39H812.684V37ZM811.1 37.7817L810.42 34.7417L808.468 35.1783L809.148 38.2183L811.1 37.7817ZM809.444 33.96H809.284V35.96H809.444V33.96ZM808.501 34.3386C807.927 35.0619 807.339 35.6594 806.74 36.1391L807.989 37.7009C808.723 37.1139 809.415 36.4048 810.068 35.5814L808.501 34.3386ZM806.744 36.136C806.216 36.5537 805.591 36.8701 804.854 37.0773L805.395 39.0027C806.365 38.7299 807.233 38.2996 807.985 37.704L806.744 36.136ZM804.846 37.0797C804.137 37.2853 803.224 37.4 802.084 37.4V39.4C803.345 39.4 804.458 39.2747 805.403 39.0003L804.846 37.0797ZM802.084 37.4C800.924 37.4 799.903 37.1951 799.004 36.8033L798.205 38.6367C799.386 39.1516 800.684 39.4 802.084 39.4V37.4ZM799.013 36.8072C798.179 36.434 797.532 35.8725 797.051 35.1078L795.358 36.1722C796.05 37.2742 797.004 38.0993 798.196 38.6328L799.013 36.8072ZM797.058 35.1185C796.59 34.3539 796.324 33.3468 796.324 32.04H794.324C794.324 33.6132 794.645 35.0061 795.351 36.1614L797.058 35.1185ZM796.324 32.04C796.324 30.218 797.017 28.8957 798.408 27.9459L797.281 26.294C795.312 27.6376 794.324 29.5954 794.324 32.04H796.324ZM798.417 27.9398C799.861 26.9315 802.214 26.304 805.635 26.1995L805.574 24.2005C802.008 24.3093 799.188 24.9618 797.272 26.3002L798.417 27.9398ZM805.637 26.1995L809.277 26.0795L809.211 24.0805L805.571 24.2005L805.637 26.1995ZM810.244 25.08V23.8H808.244V25.08H810.244ZM810.244 23.8C810.244 21.9232 809.848 20.3178 808.752 19.3354L807.417 20.8246C807.868 21.2289 808.244 22.1034 808.244 23.8H810.244ZM808.752 19.3354C807.738 18.4262 806.374 18.04 804.804 18.04V20.04C806.061 20.04 806.884 20.3471 807.417 20.8246L808.752 19.3354ZM804.804 18.04C803.579 18.04 802.403 18.2299 801.281 18.6138L801.928 20.5062C802.832 20.1968 803.789 20.04 804.804 20.04V18.04ZM801.303 18.6064C800.248 18.9398 799.255 19.3306 798.328 19.7802L799.201 21.5798C800.033 21.1761 800.935 20.8202 801.906 20.5136L801.303 18.6064ZM799.69 20.3014L798.61 17.6614L796.759 18.4186L797.839 21.0586L799.69 20.3014ZM798.161 18.9189C799.012 18.4571 800.043 18.0564 801.266 17.7252L800.743 15.7948C799.406 16.157 798.223 16.6096 797.207 17.1611L798.161 18.9189ZM801.284 17.72C802.47 17.3742 803.709 17.2 805.004 17.2V15.2C803.527 15.2 802.099 15.3991 800.724 15.8L801.284 17.72ZM806.004 26.6408C803.314 26.7484 801.198 27.1767 799.901 28.1077L801.068 29.7323C801.851 29.1699 803.442 28.7449 806.084 28.6392L806.004 26.6408ZM799.891 28.1149C798.599 29.0671 797.964 30.432 797.964 32.08H799.964C799.964 31.008 800.343 30.2663 801.078 29.7251L799.891 28.1149ZM797.964 32.08C797.964 33.4832 798.394 34.7034 799.43 35.5094L800.658 33.9306C800.255 33.6166 799.964 33.0768 799.964 32.08H797.964ZM799.444 35.52C800.401 36.2372 801.572 36.56 802.884 36.56V34.56C801.904 34.56 801.181 34.3228 800.644 33.92L799.444 35.52ZM802.884 36.56C804.889 36.56 806.631 36.0101 808.039 34.8524L806.769 33.3076C805.777 34.1232 804.507 34.56 802.884 34.56V36.56ZM808.05 34.844C809.542 33.5836 810.204 31.7128 810.204 29.44H808.204C808.204 31.3272 807.667 32.5497 806.759 33.316L808.05 34.844ZM810.204 29.44V27.52H808.204V29.44H810.204ZM809.166 26.5207L806.006 26.6407L806.082 28.6393L809.242 28.5193L809.166 26.5207ZM832.386 16.56H833.386V15.56H832.386V16.56ZM832.386 19.52V20.52H833.386V19.52H832.386ZM822.826 19.52V18.52H821.826V19.52H822.826ZM822.826 38V39H823.826V38H822.826ZM819.306 38H818.306V39H819.306V38ZM819.306 16.56V15.56H818.306V16.56H819.306ZM831.386 16.56V19.52H833.386V16.56H831.386ZM832.386 18.52H822.826V20.52H832.386V18.52ZM821.826 19.52V38H823.826V19.52H821.826ZM822.826 37H819.306V39H822.826V37ZM820.306 38V16.56H818.306V38H820.306ZM819.306 17.56H832.386V15.56H819.306V17.56ZM861.049 25.08L860.367 24.3489L861.049 25.08ZM857.969 26.6L857.761 25.6219L856.969 25.7904V26.6H857.969ZM857.969 26.76H856.969V27.6298L857.831 27.7503L857.969 26.76ZM861.449 28.2L860.832 28.9871L860.839 28.9923L860.846 28.9974L861.449 28.2ZM862.409 34.24L861.497 33.8309L861.491 33.8442L861.485 33.8576L862.409 34.24ZM858.209 37.56L858.469 38.5258L858.479 38.5229L858.49 38.5197L858.209 37.56ZM845.009 38H844.009V39H845.009V38ZM845.009 16.56V15.56H844.009V16.56H845.009ZM858.289 17.08L858.012 18.0407L858.024 18.0443L858.037 18.0476L858.289 17.08ZM861.169 18.76L860.414 19.4149L860.425 19.4284L860.437 19.4414L861.169 18.76ZM857.889 29.08L857.393 29.9482L857.393 29.9482L857.889 29.08ZM848.529 28.28V27.28H847.529V28.28H848.529ZM848.529 35.16H847.529V36.16H848.529V35.16ZM857.889 34.4L858.366 35.2789L858.376 35.2737L858.386 35.2682L857.889 34.4ZM857.569 20.2L857.015 21.032L857.032 21.0438L857.05 21.0548L857.569 20.2ZM848.529 19.48V18.48H847.529V19.48H848.529ZM848.529 25.36H847.529V26.36H848.529V25.36ZM857.329 24.64L856.861 23.7562L856.861 23.7562L857.329 24.64ZM861.249 21.96C861.249 23.0814 860.921 23.8317 860.367 24.3489L861.732 25.8111C862.778 24.8349 863.249 23.5053 863.249 21.96H861.249ZM860.367 24.3489C859.721 24.9519 858.868 25.3865 857.761 25.6219L858.177 27.5781C859.578 27.2802 860.778 26.7014 861.732 25.8111L860.367 24.3489ZM856.969 26.6V26.76H858.969V26.6H856.969ZM857.831 27.7503C859.003 27.9144 859.995 28.3305 860.832 28.9871L862.066 27.4129C860.931 26.5229 859.603 25.9789 858.108 25.7697L857.831 27.7503ZM860.846 28.9974C861.512 29.5017 861.929 30.3327 861.929 31.72H863.929C863.929 29.9073 863.36 28.3916 862.053 27.4026L860.846 28.9974ZM861.929 31.72C861.929 32.4957 861.782 33.1951 861.497 33.8309L863.322 34.6491C863.73 33.7382 863.929 32.7577 863.929 31.72H861.929ZM861.485 33.8576C861.233 34.4664 860.833 35.0001 860.261 35.4621L861.518 37.0179C862.332 36.3599 862.945 35.5602 863.333 34.6224L861.485 33.8576ZM860.261 35.4621C859.695 35.9195 858.929 36.3074 857.928 36.6003L858.49 38.5197C859.676 38.1726 860.697 37.6805 861.518 37.0179L860.261 35.4621ZM857.95 36.5942C856.966 36.8583 855.738 37 854.249 37V39C855.854 39 857.266 38.8484 858.469 38.5258L857.95 36.5942ZM854.249 37H845.009V39H854.249V37ZM846.009 38V16.56H844.009V38H846.009ZM845.009 17.56H854.209V15.56H845.009V17.56ZM854.209 17.56C855.655 17.56 856.919 17.725 858.012 18.0407L858.567 16.1193C857.26 15.7416 855.804 15.56 854.209 15.56V17.56ZM858.037 18.0476C859.107 18.3269 859.877 18.7957 860.414 19.4149L861.925 18.1051C861.075 17.1243 859.925 16.4731 858.542 16.1124L858.037 18.0476ZM860.437 19.4414C860.94 19.9812 861.249 20.7777 861.249 21.96H863.249C863.249 20.4223 862.839 19.0855 861.901 18.0786L860.437 19.4414ZM860.289 31.72C860.289 30.1953 859.68 28.9514 858.386 28.2118L857.393 29.9482C857.966 30.2753 858.289 30.7913 858.289 31.72H860.289ZM858.386 28.2118C857.23 27.5516 855.651 27.28 853.769 27.28V29.28C855.514 29.28 856.682 29.5417 857.393 29.9482L858.386 28.2118ZM853.769 27.28H848.529V29.28H853.769V27.28ZM847.529 28.28V35.16H849.529V28.28H847.529ZM848.529 36.16H853.849V34.16H848.529V36.16ZM853.849 36.16C855.679 36.16 857.22 35.9011 858.366 35.2789L857.412 33.5211C856.692 33.9123 855.54 34.16 853.849 34.16V36.16ZM858.386 35.2682C859.688 34.5242 860.289 33.2611 860.289 31.72H858.289C858.289 32.6856 857.958 33.2091 857.393 33.5318L858.386 35.2682ZM859.689 22.4C859.689 21.1034 859.186 20.0117 858.088 19.3452L857.05 21.0548C857.446 21.2949 857.689 21.67 857.689 22.4H859.689ZM858.124 19.3679C857.148 18.7169 855.708 18.48 854.009 18.48V20.48C855.617 20.48 856.551 20.7231 857.015 21.032L858.124 19.3679ZM854.009 18.48H848.529V20.48H854.009V18.48ZM847.529 19.48V25.36H849.529V19.48H847.529ZM848.529 26.36H853.369V24.36H848.529V26.36ZM853.369 26.36C855.167 26.36 856.679 26.1157 857.797 25.5238L856.861 23.7562C856.166 24.1243 855.038 24.36 853.369 24.36V26.36ZM857.797 25.5238C858.382 25.2142 858.869 24.7917 859.204 24.239C859.54 23.6856 859.689 23.0599 859.689 22.4H857.689C857.689 22.7534 857.612 23.0078 857.495 23.201C857.377 23.395 857.183 23.5858 856.861 23.7562L857.797 25.5238ZM882.856 19.52V20.52H883.856V19.52H882.856ZM875.856 19.52V18.52H874.856V19.52H875.856ZM875.856 38V39H876.856V38H875.856ZM872.376 38H871.376V39H872.376V38ZM872.376 19.52H873.376V18.52H872.376V19.52ZM865.456 19.52H864.456V20.52H865.456V19.52ZM865.456 16.56V15.56H864.456V16.56H865.456ZM882.856 16.56H883.856V15.56H882.856V16.56ZM882.856 18.52H875.856V20.52H882.856V18.52ZM874.856 19.52V38H876.856V19.52H874.856ZM875.856 37H872.376V39H875.856V37ZM873.376 38V19.52H871.376V38H873.376ZM872.376 18.52H865.456V20.52H872.376V18.52ZM866.456 19.52V16.56H864.456V19.52H866.456ZM865.456 17.56H882.856V15.56H865.456V17.56ZM881.856 16.56V19.52H883.856V16.56H881.856ZM904.609 32L903.664 31.6729L903.66 31.6838L904.609 32ZM902.609 35.48L901.872 34.8043L901.867 34.8099L901.862 34.8156L902.609 35.48ZM899.449 37.68L899.813 38.6113L899.824 38.6071L899.449 37.68ZM891.409 37.68L891.02 38.6012L891.029 38.6049L891.038 38.6085L891.409 37.68ZM888.289 35.48L887.552 36.1557L887.552 36.1557L888.289 35.48ZM886.209 32L885.264 32.3271L885.268 32.3382L885.272 32.3491L886.209 32ZM886.689 21.24L887.586 21.6813L887.589 21.6756L886.689 21.24ZM890.129 17.48L890.625 18.3483L890.637 18.3415L890.129 17.48ZM900.569 17.48L900.055 18.3375L900.064 18.343L900.073 18.3482L900.569 17.48ZM904.049 21.24L903.155 21.6872L903.159 21.6959L903.164 21.7045L904.049 21.24ZM889.769 31.64L888.822 31.9623L888.827 31.9745L888.831 31.9866L889.769 31.64ZM891.849 34.48L892.43 33.6663L892.43 33.6663L891.849 34.48ZM898.969 34.48L898.388 33.6663L898.388 33.6663L898.969 34.48ZM901.009 31.64L900.069 31.2998L900.065 31.3115L901.009 31.64ZM901.009 22.88L901.945 22.5266L901.945 22.5266L901.009 22.88ZM898.929 20.12L898.337 20.9256L898.35 20.9354L898.364 20.9447L898.929 20.12ZM890.609 21.28L891.434 21.8452L891.434 21.8452L890.609 21.28ZM904.329 27.24C904.329 28.9387 904.101 30.4115 903.664 31.6729L905.554 32.3271C906.077 30.8152 906.329 29.1146 906.329 27.24H904.329ZM903.66 31.6838C903.247 32.924 902.648 33.9579 901.872 34.8043L903.346 36.1557C904.33 35.0821 905.064 33.796 905.558 32.3162L903.66 31.6838ZM901.862 34.8156C901.116 35.6545 900.193 36.3008 899.074 36.7529L899.824 38.6071C901.212 38.0458 902.395 37.2255 903.356 36.1444L901.862 34.8156ZM899.085 36.7488C897.991 37.1769 896.743 37.4 895.329 37.4V39.4C896.955 39.4 898.454 39.1431 899.813 38.6112L899.085 36.7488ZM895.329 37.4C894.031 37.4 892.852 37.18 891.78 36.7515L891.038 38.6085C892.366 39.14 893.8 39.4 895.329 39.4V37.4ZM891.798 36.7588C890.73 36.308 889.809 35.6584 889.026 34.8043L887.552 36.1557C888.529 37.2216 889.688 38.0387 891.02 38.6012L891.798 36.7588ZM889.026 34.8043C888.243 33.9495 887.613 32.904 887.146 31.6509L885.272 32.3491C885.818 33.816 886.575 35.0905 887.552 36.1557L889.026 34.8043ZM887.154 31.6729C886.717 30.4115 886.489 28.9387 886.489 27.24H884.489C884.489 29.1146 884.741 30.8152 885.264 32.3271L887.154 31.6729ZM886.489 27.24C886.489 24.9742 886.871 23.135 887.586 21.6813L885.792 20.7987C884.907 22.5983 884.489 24.7591 884.489 27.24H886.489ZM887.589 21.6756C888.308 20.1909 889.319 19.0945 890.625 18.3482L889.633 16.6118C887.952 17.5722 886.671 18.9824 885.789 20.8044L887.589 21.6756ZM890.637 18.3415C891.95 17.5677 893.541 17.16 895.449 17.16V15.16C893.25 15.16 891.295 15.6323 889.621 16.6185L890.637 18.3415ZM895.449 17.16C897.24 17.16 898.764 17.5631 900.055 18.3375L901.084 16.6225C899.441 15.6369 897.551 15.16 895.449 15.16V17.16ZM900.073 18.3482C901.382 19.0962 902.409 20.1966 903.155 21.6872L904.943 20.7928C904.035 18.9767 902.743 17.5704 901.065 16.6118L900.073 18.3482ZM903.164 21.7045C903.923 23.1522 904.329 24.9827 904.329 27.24H906.329C906.329 24.7507 905.882 22.5811 904.935 20.7755L903.164 21.7045ZM888.129 27.24C888.129 29.0015 888.352 30.5815 888.822 31.9623L890.716 31.3177C890.332 30.1918 890.129 28.8385 890.129 27.24H888.129ZM888.831 31.9866C889.344 33.374 890.149 34.4948 891.268 35.2937L892.43 33.6663C891.682 33.1318 891.101 32.3593 890.707 31.2933L888.831 31.9866ZM891.268 35.2937C892.41 36.1094 893.814 36.48 895.409 36.48V34.48C894.124 34.48 893.155 34.1839 892.43 33.6663L891.268 35.2937ZM895.409 36.48C897.004 36.48 898.408 36.1094 899.55 35.2937L898.388 33.6663C897.663 34.1839 896.694 34.48 895.409 34.48V36.48ZM899.55 35.2937C900.674 34.4913 901.468 33.3637 901.954 31.9685L900.065 31.3115C899.697 32.3696 899.131 33.1354 898.388 33.6663L899.55 35.2937ZM901.949 31.9801C902.451 30.5935 902.689 29.0071 902.689 27.24H900.689C900.689 28.8329 900.474 30.1798 900.069 31.2999L901.949 31.9801ZM902.689 27.24C902.689 25.4502 902.452 23.87 901.945 22.5266L900.074 23.2334C900.473 24.29 900.689 25.6165 900.689 27.24H902.689ZM901.945 22.5266C901.429 21.1619 900.618 20.0659 899.495 19.2953L898.364 20.9447C899.106 21.4541 899.682 22.1981 900.074 23.2334L901.945 22.5266ZM899.521 19.3143C898.398 18.4879 896.984 18.12 895.369 18.12V20.12C896.687 20.12 897.647 20.4188 898.337 20.9256L899.521 19.3143ZM895.369 18.12C892.946 18.12 891.005 18.9334 889.784 20.7148L891.434 21.8452C892.187 20.7466 893.418 20.12 895.369 20.12V18.12ZM889.784 20.7148C888.643 22.3807 888.129 24.5917 888.129 27.24H890.129C890.129 24.8217 890.602 23.0593 891.434 21.8452L889.784 20.7148ZM927.468 18.92L926.713 19.5762L926.719 19.5823L927.468 18.92ZM928.788 33.4L927.874 32.9939L927.871 33.0007L928.788 33.4ZM925.708 37.16L926.242 38.0051L926.247 38.0023L925.708 37.16ZM918.148 37.96L917.823 38.9057L917.823 38.9057L918.148 37.96ZM915.948 36.84L915.315 37.614L915.334 37.6295L915.353 37.6442L915.948 36.84ZM914.428 35.28L915.223 34.674L914.923 34.28H914.428V35.28ZM914.188 35.28V34.28H913.063L913.195 35.3968L914.188 35.28ZM914.348 37L913.351 37.0767L913.351 37.0767L914.348 37ZM914.428 47.6V48.6H915.428V47.6H914.428ZM910.908 47.6H909.908V48.6H910.908V47.6ZM910.908 16.56V15.56H909.908V16.56H910.908ZM913.788 16.56L914.775 16.3978L914.637 15.56H913.788V16.56ZM914.268 19.48L913.281 19.6422L913.419 20.48H914.268V19.48ZM914.428 19.48V20.48H914.95L915.249 20.0511L914.428 19.48ZM915.948 17.8L915.311 17.029L915.302 17.036L915.294 17.0432L915.948 17.8ZM918.108 16.6L917.783 15.6543L917.773 15.6576L918.108 16.6ZM916.988 19.96L917.506 20.8152L917.515 20.8095L917.525 20.8037L916.988 19.96ZM914.428 26.56L913.428 26.5441L913.428 26.5521V26.56H914.428ZM914.988 31.72L914.031 32.0112L914.031 32.0112L914.988 31.72ZM916.868 34.52L916.28 35.3288L916.291 35.337L916.868 34.52ZM923.748 34.4L923.103 33.6357L923.097 33.6408L923.091 33.6459L923.748 34.4ZM925.628 31.48L924.681 31.1577L924.677 31.17L925.628 31.48ZM924.828 21.32L923.984 21.8569L923.991 21.8677L924.828 21.32ZM921.108 17.16C923.485 17.16 925.32 17.9742 926.713 19.5762L928.222 18.2638C926.415 16.1858 924.01 15.16 921.108 15.16V17.16ZM926.719 19.5823C928.119 21.166 928.908 23.657 928.908 27.24H930.908C930.908 23.4097 930.07 20.354 928.217 18.2577L926.719 19.5823ZM928.908 27.24C928.908 29.5694 928.549 31.4756 927.874 32.9939L929.702 33.8061C930.52 31.9644 930.908 29.764 930.908 27.24H928.908ZM927.871 33.0007C927.219 34.4983 926.313 35.5857 925.169 36.3177L926.247 38.0023C927.77 37.0276 928.917 35.6084 929.705 33.7993L927.871 33.0007ZM925.173 36.3149C924.05 37.0254 922.695 37.4 921.068 37.4V39.4C923.014 39.4 924.752 38.9479 926.242 38.0051L925.173 36.3149ZM921.068 37.4C920.062 37.4 919.202 37.265 918.473 37.0143L917.823 38.9057C918.8 39.2417 919.887 39.4 921.068 39.4V37.4ZM918.473 37.0143C917.699 36.7482 917.06 36.4186 916.542 36.0358L915.353 37.6442C916.062 38.1681 916.89 38.5851 917.823 38.9057L918.473 37.0143ZM916.581 36.066C916.05 35.6317 915.599 35.1673 915.223 34.674L913.632 35.886C914.11 36.5127 914.672 37.0883 915.315 37.614L916.581 36.066ZM914.428 34.28H914.188V36.28H914.428V34.28ZM913.195 35.3968C913.246 35.8319 913.298 36.3906 913.351 37.0767L915.345 36.9233C915.291 36.2227 915.236 35.6348 915.181 35.1632L913.195 35.3968ZM913.351 37.0767C913.403 37.7532 913.428 38.3263 913.428 38.8H915.428C915.428 38.2603 915.399 37.6335 915.345 36.9233L913.351 37.0767ZM913.428 38.8V47.6H915.428V38.8H913.428ZM914.428 46.6H910.908V48.6H914.428V46.6ZM911.908 47.6V16.56H909.908V47.6H911.908ZM910.908 17.56H913.788V15.56H910.908V17.56ZM912.801 16.7222L913.281 19.6422L915.255 19.3178L914.775 16.3978L912.801 16.7222ZM914.268 20.48H914.428V18.48H914.268V20.48ZM915.249 20.0511C915.626 19.5089 916.076 19.0109 916.601 18.5568L915.294 17.0432C914.647 17.6025 914.083 18.2244 913.607 18.9089L915.249 20.0511ZM916.585 18.571C917.099 18.1459 917.714 17.8007 918.442 17.5424L917.773 15.6576C916.848 15.986 916.023 16.4407 915.311 17.029L916.585 18.571ZM918.433 17.5457C919.158 17.2965 920.043 17.16 921.108 17.16V15.16C919.879 15.16 918.765 15.3168 917.783 15.6543L918.433 17.5457ZM920.468 18.12C918.907 18.12 917.542 18.4223 916.451 19.1163L917.525 20.8037C918.194 20.3777 919.148 20.12 920.468 20.12V18.12ZM916.47 19.1048C915.37 19.7713 914.596 20.7793 914.129 22.0564L916.007 22.7436C916.34 21.834 916.846 21.2154 917.506 20.8152L916.47 19.1048ZM914.129 22.0564C913.677 23.2902 913.456 24.7975 913.428 26.5441L915.428 26.5759C915.453 24.9625 915.658 23.6965 916.007 22.7436L914.129 22.0564ZM913.428 26.56V27.24H915.428V26.56H913.428ZM913.428 27.24C913.428 29.0647 913.621 30.6623 914.031 32.0112L915.944 31.4288C915.608 30.3243 915.428 28.9353 915.428 27.24H913.428ZM914.031 32.0112C914.456 33.4074 915.194 34.5391 916.28 35.3287L917.456 33.7113C916.782 33.2209 916.266 32.4859 915.944 31.4288L914.031 32.0112ZM916.291 35.337C917.421 36.1347 918.874 36.48 920.548 36.48V34.48C919.129 34.48 918.128 34.1853 917.444 33.703L916.291 35.337ZM920.548 36.48C922.047 36.48 923.362 36.062 924.405 35.1541L923.091 33.6459C922.48 34.178 921.662 34.48 920.548 34.48V36.48ZM924.393 35.1643C925.409 34.3066 926.13 33.1656 926.579 31.79L924.677 31.17C924.326 32.2478 923.793 33.0534 923.103 33.6357L924.393 35.1643ZM926.574 31.8023C927.043 30.4261 927.268 28.8875 927.268 27.2H925.268C925.268 28.7125 925.066 30.0272 924.681 31.1577L926.574 31.8023ZM927.268 27.2C927.268 24.6269 926.766 22.4547 925.665 20.7723L923.991 21.8677C924.81 23.1186 925.268 24.8665 925.268 27.2H927.268ZM925.671 20.7831C924.527 18.9849 922.729 18.12 920.468 18.12V20.12C922.154 20.12 923.262 20.7218 923.984 21.8569L925.671 20.7831ZM953.437 32L952.492 31.6729L952.489 31.6838L953.437 32ZM951.437 35.48L950.7 34.8043L950.695 34.8099L950.69 34.8156L951.437 35.48ZM948.277 37.68L948.642 38.6113L948.652 38.6071L948.277 37.68ZM940.237 37.68L939.848 38.6012L939.857 38.6049L939.866 38.6085L940.237 37.68ZM937.117 35.48L936.38 36.1557L936.38 36.1557L937.117 35.48ZM935.037 32L934.092 32.3271L934.096 32.3382L934.1 32.3491L935.037 32ZM935.517 21.24L936.415 21.6813L936.417 21.6756L935.517 21.24ZM938.957 17.48L939.453 18.3483L939.465 18.3415L938.957 17.48ZM949.397 17.48L948.883 18.3375L948.892 18.343L948.901 18.3482L949.397 17.48ZM952.877 21.24L951.983 21.6872L951.987 21.6959L951.992 21.7045L952.877 21.24ZM938.597 31.64L937.651 31.9623L937.655 31.9745L937.659 31.9866L938.597 31.64ZM940.677 34.48L941.258 33.6663L941.258 33.6663L940.677 34.48ZM947.797 34.48L947.216 33.6663L947.216 33.6663L947.797 34.48ZM949.837 31.64L948.897 31.2998L948.893 31.3115L949.837 31.64ZM949.837 22.88L950.773 22.5266L950.773 22.5266L949.837 22.88ZM947.757 20.12L947.165 20.9256L947.178 20.9354L947.192 20.9447L947.757 20.12ZM939.437 21.28L940.262 21.8452L940.262 21.8452L939.437 21.28ZM953.157 27.24C953.157 28.9387 952.929 30.4115 952.492 31.6729L954.382 32.3271C954.906 30.8152 955.157 29.1146 955.157 27.24H953.157ZM952.489 31.6838C952.075 32.924 951.476 33.9579 950.7 34.8043L952.174 36.1557C953.159 35.0821 953.893 33.796 954.386 32.3162L952.489 31.6838ZM950.69 34.8156C949.944 35.6545 949.021 36.3008 947.902 36.7529L948.652 38.6071C950.04 38.0458 951.224 37.2255 952.185 36.1444L950.69 34.8156ZM947.913 36.7488C946.819 37.1769 945.571 37.4 944.157 37.4V39.4C945.783 39.4 947.282 39.1431 948.642 38.6112L947.913 36.7488ZM944.157 37.4C942.859 37.4 941.68 37.18 940.609 36.7515L939.866 38.6085C941.195 39.14 942.629 39.4 944.157 39.4V37.4ZM940.626 36.7588C939.558 36.308 938.637 35.6584 937.854 34.8043L936.38 36.1557C937.357 37.2216 938.516 38.0387 939.848 38.6012L940.626 36.7588ZM937.854 34.8043C937.071 33.9495 936.441 32.904 935.974 31.6509L934.1 32.3491C934.647 33.816 935.404 35.0905 936.38 36.1557L937.854 34.8043ZM935.982 31.6729C935.546 30.4115 935.317 28.9387 935.317 27.24H933.317C933.317 29.1146 933.569 30.8152 934.092 32.3271L935.982 31.6729ZM935.317 27.24C935.317 24.9742 935.7 23.135 936.415 21.6813L934.62 20.7987C933.735 22.5983 933.317 24.7591 933.317 27.24H935.317ZM936.417 21.6756C937.136 20.1909 938.147 19.0945 939.453 18.3482L938.461 16.6118C936.78 17.5722 935.499 18.9824 934.617 20.8044L936.417 21.6756ZM939.465 18.3415C940.778 17.5677 942.369 17.16 944.277 17.16V15.16C942.078 15.16 940.123 15.6323 938.449 16.6185L939.465 18.3415ZM944.277 17.16C946.068 17.16 947.592 17.5631 948.883 18.3375L949.912 16.6225C948.269 15.6369 946.38 15.16 944.277 15.16V17.16ZM948.901 18.3482C950.21 19.0962 951.237 20.1966 951.983 21.6872L953.772 20.7928C952.864 18.9767 951.571 17.5704 949.893 16.6118L948.901 18.3482ZM951.992 21.7045C952.751 23.1522 953.157 24.9827 953.157 27.24H955.157C955.157 24.7507 954.71 22.5811 953.763 20.7755L951.992 21.7045ZM936.957 27.24C936.957 29.0015 937.181 30.5815 937.651 31.9623L939.544 31.3177C939.161 30.1918 938.957 28.8385 938.957 27.24H936.957ZM937.659 31.9866C938.172 33.374 938.977 34.4948 940.096 35.2937L941.258 33.6663C940.51 33.1318 939.929 32.3593 939.535 31.2933L937.659 31.9866ZM940.096 35.2937C941.238 36.1094 942.642 36.48 944.237 36.48V34.48C942.952 34.48 941.983 34.1839 941.258 33.6663L940.096 35.2937ZM944.237 36.48C945.832 36.48 947.237 36.1094 948.378 35.2937L947.216 33.6663C946.491 34.1839 945.522 34.48 944.237 34.48V36.48ZM948.378 35.2937C949.502 34.4913 950.296 33.3637 950.782 31.9685L948.893 31.3115C948.525 32.3696 947.959 33.1354 947.216 33.6663L948.378 35.2937ZM950.778 31.9801C951.279 30.5935 951.517 29.0071 951.517 27.24H949.517C949.517 28.8329 949.302 30.1798 948.897 31.2999L950.778 31.9801ZM951.517 27.24C951.517 25.4502 951.28 23.87 950.773 22.5266L948.902 23.2334C949.301 24.29 949.517 25.6165 949.517 27.24H951.517ZM950.773 22.5266C950.257 21.1619 949.447 20.0659 948.323 19.2953L947.192 20.9447C947.934 21.4541 948.511 22.1981 948.902 23.2334L950.773 22.5266ZM948.35 19.3143C947.226 18.4879 945.812 18.12 944.197 18.12V20.12C945.515 20.12 946.475 20.4188 947.165 20.9256L948.35 19.3143ZM944.197 18.12C941.775 18.12 939.833 18.9334 938.612 20.7148L940.262 21.8452C941.015 20.7466 942.246 20.12 944.197 20.12V18.12ZM938.612 20.7148C937.471 22.3807 936.957 24.5917 936.957 27.24H938.957C938.957 24.8217 939.43 23.0593 940.262 21.8452L938.612 20.7148ZM977.096 7.68L978.093 7.75974L978.179 6.68H977.096V7.68ZM976.096 11.04L975.245 10.5145L975.239 10.5237L975.234 10.533L976.096 11.04ZM973.696 13.08L973.305 12.1597L973.305 12.1597L973.696 13.08ZM965.336 13.08L964.936 13.9967L964.945 14.0003L965.336 13.08ZM963.056 11.08L962.172 11.5479L962.178 11.5589L963.056 11.08ZM962.176 7.68V6.68H961.094L961.179 7.75819L962.176 7.68ZM965.456 7.68L966.452 7.5878L966.368 6.68H965.456V7.68ZM966.576 10.6L965.939 11.371L965.957 11.3859L965.976 11.4L966.576 10.6ZM972.496 10.56L973.086 11.3674L973.091 11.3636L972.496 10.56ZM973.776 7.68V6.68H972.867L972.781 7.58429L973.776 7.68ZM963.016 30.68L962.018 30.6213L962.016 30.6506V30.68H963.016ZM962.976 32.08L963.974 32.1355L963.975 32.1326L962.976 32.08ZM962.896 33.48L963.894 33.5424L963.894 33.5387L962.896 33.48ZM962.816 34.52L961.821 34.4205L963.659 35.0586L962.816 34.52ZM974.296 16.56V15.56H973.748L973.453 16.0214L974.296 16.56ZM978.616 16.56H979.616V15.56H978.616V16.56ZM978.616 38V39H979.616V38H978.616ZM975.336 38H974.336V39H975.336V38ZM975.336 23.68L974.337 23.6416L974.336 23.6608V23.68H975.336ZM975.416 21.64L976.415 21.68L976.415 21.6784L975.416 21.64ZM975.496 20.08L976.493 20.1567L974.652 19.5432L975.496 20.08ZM964.096 38V39H964.645L964.94 38.5368L964.096 38ZM959.736 38H958.736V39H959.736V38ZM959.736 16.56V15.56H958.736V16.56H959.736ZM963.056 16.56H964.056V15.56H963.056V16.56ZM976.099 7.60025C976.002 8.81495 975.703 9.77279 975.245 10.5145L976.947 11.5655C977.609 10.4939 977.977 9.21172 978.093 7.75974L976.099 7.60025ZM975.234 10.533C974.82 11.2361 974.195 11.7811 973.305 12.1597L974.087 14.0003C975.33 13.4722 976.305 12.6572 976.958 11.547L975.234 10.533ZM973.305 12.1597C972.406 12.5417 971.166 12.76 969.536 12.76V14.76C971.319 14.76 972.853 14.525 974.087 14.0003L973.305 12.1597ZM969.536 12.76C967.877 12.76 966.624 12.5411 965.727 12.1597L964.945 14.0003C966.181 14.5256 967.729 14.76 969.536 14.76V12.76ZM965.736 12.1633C964.871 11.7864 964.294 11.2607 963.934 10.6011L962.178 11.5589C962.778 12.6593 963.721 13.4669 964.936 13.9967L965.736 12.1633ZM963.94 10.6121C963.541 9.85903 963.272 8.86815 963.173 7.60181L961.179 7.75819C961.293 9.21185 961.611 10.4876 962.172 11.5479L963.94 10.6121ZM962.176 8.68H965.456V6.68H962.176V8.68ZM964.46 7.7722C964.6 9.28004 965.006 10.6006 965.939 11.371L967.213 9.82904C966.919 9.5861 966.579 8.95996 966.452 7.5878L964.46 7.7722ZM965.976 11.4C966.876 12.0749 968.155 12.32 969.616 12.32V10.32C968.304 10.32 967.556 10.0851 967.176 9.8L965.976 11.4ZM969.616 12.32C970.967 12.32 972.162 12.0426 973.086 11.3674L971.906 9.75261C971.443 10.0907 970.718 10.32 969.616 10.32V12.32ZM973.091 11.3636C974.139 10.5871 974.626 9.2895 974.771 7.77571L972.781 7.58429C972.659 8.84383 972.293 9.46622 971.901 9.75644L973.091 11.3636ZM973.776 8.68H977.096V6.68H973.776V8.68ZM962.056 29.64C962.056 29.8502 962.044 30.1736 962.018 30.6213L964.014 30.7387C964.041 30.2798 964.056 29.9098 964.056 29.64H962.056ZM962.016 30.68C962.016 31.0862 962.003 31.5351 961.977 32.0274L963.975 32.1326C964.002 31.6115 964.016 31.1271 964.016 30.68H962.016ZM961.977 32.0245C961.951 32.5035 961.924 32.9691 961.898 33.4213L963.894 33.5387C963.921 33.0842 963.948 32.6165 963.974 32.1355L961.977 32.0245ZM961.898 33.4176C961.872 33.8382 961.846 34.1712 961.821 34.4205L963.811 34.6195C963.839 34.3355 963.867 33.9751 963.894 33.5424L961.898 33.4176ZM963.659 35.0586L975.139 17.0986L973.453 16.0214L961.973 33.9814L963.659 35.0586ZM974.296 17.56H978.616V15.56H974.296V17.56ZM977.616 16.56V38H979.616V16.56H977.616ZM978.616 37H975.336V39H978.616V37ZM976.336 38V25.36H974.336V38H976.336ZM976.336 25.36C976.336 25.3592 976.336 25.3583 976.336 25.3575C976.336 25.3567 976.336 25.3558 976.336 25.355C976.336 25.3542 976.336 25.3533 976.336 25.3525C976.336 25.3516 976.336 25.3508 976.336 25.35C976.336 25.3491 976.336 25.3483 976.336 25.3475C976.336 25.3466 976.336 25.3458 976.336 25.3449C976.336 25.3441 976.336 25.3433 976.336 25.3424C976.336 25.3416 976.336 25.3407 976.336 25.3399C976.336 25.3391 976.336 25.3382 976.336 25.3374C976.336 25.3365 976.336 25.3357 976.336 25.3348C976.336 25.334 976.336 25.3332 976.336 25.3323C976.336 25.3315 976.336 25.3306 976.336 25.3298C976.336 25.3289 976.336 25.3281 976.336 25.3272C976.336 25.3264 976.336 25.3255 976.336 25.3247C976.336 25.3239 976.336 25.323 976.336 25.3222C976.336 25.3213 976.336 25.3205 976.336 25.3196C976.336 25.3188 976.336 25.3179 976.336 25.3171C976.336 25.3162 976.336 25.3154 976.336 25.3145C976.336 25.3137 976.336 25.3128 976.336 25.3119C976.336 25.3111 976.336 25.3102 976.336 25.3094C976.336 25.3085 976.336 25.3077 976.336 25.3068C976.336 25.306 976.336 25.3051 976.336 25.3043C976.336 25.3034 976.336 25.3025 976.336 25.3017C976.336 25.3008 976.336 25.3 976.336 25.2991C976.336 25.2983 976.336 25.2974 976.336 25.2965C976.336 25.2957 976.336 25.2948 976.336 25.294C976.336 25.2931 976.336 25.2922 976.336 25.2914C976.336 25.2905 976.336 25.2897 976.336 25.2888C976.336 25.2879 976.336 25.2871 976.336 25.2862C976.336 25.2854 976.336 25.2845 976.336 25.2836C976.336 25.2828 976.336 25.2819 976.336 25.281C976.336 25.2802 976.336 25.2793 976.336 25.2784C976.336 25.2776 976.336 25.2767 976.336 25.2758C976.336 25.275 976.336 25.2741 976.336 25.2732C976.336 25.2724 976.336 25.2715 976.336 25.2706C976.336 25.2698 976.336 25.2689 976.336 25.268C976.336 25.2672 976.336 25.2663 976.336 25.2654C976.336 25.2645 976.336 25.2637 976.336 25.2628C976.336 25.2619 976.336 25.2611 976.336 25.2602C976.336 25.2593 976.336 25.2584 976.336 25.2576C976.336 25.2567 976.336 25.2558 976.336 25.2549C976.336 25.2541 976.336 25.2532 976.336 25.2523C976.336 25.2514 976.336 25.2506 976.336 25.2497C976.336 25.2488 976.336 25.2479 976.336 25.247C976.336 25.2462 976.336 25.2453 976.336 25.2444C976.336 25.2435 976.336 25.2427 976.336 25.2418C976.336 25.2409 976.336 25.24 976.336 25.2391C976.336 25.2382 976.336 25.2374 976.336 25.2365C976.336 25.2356 976.336 25.2347 976.336 25.2338C976.336 25.233 976.336 25.2321 976.336 25.2312C976.336 25.2303 976.336 25.2294 976.336 25.2285C976.336 25.2276 976.336 25.2268 976.336 25.2259C976.336 25.225 976.336 25.2241 976.336 25.2232C976.336 25.2223 976.336 25.2214 976.336 25.2205C976.336 25.2197 976.336 25.2188 976.336 25.2179C976.336 25.217 976.336 25.2161 976.336 25.2152C976.336 25.2143 976.336 25.2134 976.336 25.2125C976.336 25.2117 976.336 25.2108 976.336 25.2099C976.336 25.209 976.336 25.2081 976.336 25.2072C976.336 25.2063 976.336 25.2054 976.336 25.2045C976.336 25.2036 976.336 25.2027 976.336 25.2018C976.336 25.2009 976.336 25.2 976.336 25.1991C976.336 25.1982 976.336 25.1973 976.336 25.1964C976.336 25.1955 976.336 25.1946 976.336 25.1937C976.336 25.1929 976.336 25.192 976.336 25.1911C976.336 25.1902 976.336 25.1893 976.336 25.1884C976.336 25.1875 976.336 25.1866 976.336 25.1856C976.336 25.1847 976.336 25.1838 976.336 25.1829C976.336 25.182 976.336 25.1811 976.336 25.1802C976.336 25.1793 976.336 25.1784 976.336 25.1775C976.336 25.1766 976.336 25.1757 976.336 25.1748C976.336 25.1739 976.336 25.173 976.336 25.1721C976.336 25.1712 976.336 25.1703 976.336 25.1694C976.336 25.1685 976.336 25.1676 976.336 25.1666C976.336 25.1657 976.336 25.1648 976.336 25.1639C976.336 25.163 976.336 25.1621 976.336 25.1612C976.336 25.1603 976.336 25.1594 976.336 25.1585C976.336 25.1575 976.336 25.1566 976.336 25.1557C976.336 25.1548 976.336 25.1539 976.336 25.153C976.336 25.1521 976.336 25.1511 976.336 25.1502C976.336 25.1493 976.336 25.1484 976.336 25.1475C976.336 25.1466 976.336 25.1457 976.336 25.1447C976.336 25.1438 976.336 25.1429 976.336 25.142C976.336 25.1411 976.336 25.1402 976.336 25.1392C976.336 25.1383 976.336 25.1374 976.336 25.1365C976.336 25.1356 976.336 25.1346 976.336 25.1337C976.336 25.1328 976.336 25.1319 976.336 25.131C976.336 25.13 976.336 25.1291 976.336 25.1282C976.336 25.1273 976.336 25.1263 976.336 25.1254C976.336 25.1245 976.336 25.1236 976.336 25.1226C976.336 25.1217 976.336 25.1208 976.336 25.1199C976.336 25.1189 976.336 25.118 976.336 25.1171C976.336 25.1162 976.336 25.1152 976.336 25.1143C976.336 25.1134 976.336 25.1124 976.336 25.1115C976.336 25.1106 976.336 25.1097 976.336 25.1087C976.336 25.1078 976.336 25.1069 976.336 25.1059C976.336 25.105 976.336 25.1041 976.336 25.1031C976.336 25.1022 976.336 25.1013 976.336 25.1003C976.336 25.0994 976.336 25.0985 976.336 25.0975C976.336 25.0966 976.336 25.0957 976.336 25.0947C976.336 25.0938 976.336 25.0929 976.336 25.0919C976.336 25.091 976.336 25.0901 976.336 25.0891C976.336 25.0882 976.336 25.0872 976.336 25.0863C976.336 25.0854 976.336 25.0844 976.336 25.0835C976.336 25.0826 976.336 25.0816 976.336 25.0807C976.336 25.0797 976.336 25.0788 976.336 25.0779C976.336 25.0769 976.336 25.076 976.336 25.075C976.336 25.0741 976.336 25.0731 976.336 25.0722C976.336 25.0713 976.336 25.0703 976.336 25.0694C976.336 25.0684 976.336 25.0675 976.336 25.0665C976.336 25.0656 976.336 25.0646 976.336 25.0637C976.336 25.0628 976.336 25.0618 976.336 25.0609C976.336 25.0599 976.336 25.059 976.336 25.058C976.336 25.0571 976.336 25.0561 976.336 25.0552C976.336 25.0542 976.336 25.0533 976.336 25.0523C976.336 25.0514 976.336 25.0504 976.336 25.0495C976.336 25.0485 976.336 25.0476 976.336 25.0466C976.336 25.0457 976.336 25.0447 976.336 25.0438C976.336 25.0428 976.336 25.0418 976.336 25.0409C976.336 25.0399 976.336 25.039 976.336 25.038C976.336 25.0371 976.336 25.0361 976.336 25.0352C976.336 25.0342 976.336 25.0332 976.336 25.0323C976.336 25.0313 976.336 25.0304 976.336 25.0294C976.336 25.0285 976.336 25.0275 976.336 25.0265C976.336 25.0256 976.336 25.0246 976.336 25.0237C976.336 25.0227 976.336 25.0217 976.336 25.0208C976.336 25.0198 976.336 25.0189 976.336 25.0179C976.336 25.0169 976.336 25.016 976.336 25.015C976.336 25.014 976.336 25.0131 976.336 25.0121C976.336 25.0111 976.336 25.0102 976.336 25.0092C976.336 25.0082 976.336 25.0073 976.336 25.0063C976.336 25.0053 976.336 25.0044 976.336 25.0034C976.336 25.0024 976.336 25.0015 976.336 25.0005C976.336 24.9995 976.336 24.9986 976.336 24.9976C976.336 24.9966 976.336 24.9957 976.336 24.9947C976.336 24.9937 976.336 24.9927 976.336 24.9918C976.336 24.9908 976.336 24.9898 976.336 24.9889C976.336 24.9879 976.336 24.9869 976.336 24.9859C976.336 24.985 976.336 24.984 976.336 24.983C976.336 24.982 976.336 24.9811 976.336 24.9801C976.336 24.9791 976.336 24.9781 976.336 24.9772C976.336 24.9762 976.336 24.9752 976.336 24.9742C976.336 24.9733 976.336 24.9723 976.336 24.9713C976.336 24.9703 976.336 24.9693 976.336 24.9684C976.336 24.9674 976.336 24.9664 976.336 24.9654C976.336 24.9644 976.336 24.9635 976.336 24.9625C976.336 24.9615 976.336 24.9605 976.336 24.9595C976.336 24.9585 976.336 24.9576 976.336 24.9566C976.336 24.9556 976.336 24.9546 976.336 24.9536C976.336 24.9526 976.336 24.9517 976.336 24.9507C976.336 24.9497 976.336 24.9487 976.336 24.9477C976.336 24.9467 976.336 24.9457 976.336 24.9447C976.336 24.9438 976.336 24.9428 976.336 24.9418C976.336 24.9408 976.336 24.9398 976.336 24.9388C976.336 24.9378 976.336 24.9368 976.336 24.9358C976.336 24.9348 976.336 24.9339 976.336 24.9329C976.336 24.9319 976.336 24.9309 976.336 24.9299C976.336 24.9289 976.336 24.9279 976.336 24.9269C976.336 24.9259 976.336 24.9249 976.336 24.9239C976.336 24.9229 976.336 24.9219 976.336 24.9209C976.336 24.9199 976.336 24.9189 976.336 24.9179C976.336 24.9169 976.336 24.916 976.336 24.915C976.336 24.914 976.336 24.913 976.336 24.912C976.336 24.911 976.336 24.91 976.336 24.909C976.336 24.908 976.336 24.907 976.336 24.906C976.336 24.905 976.336 24.904 976.336 24.903C976.336 24.902 976.336 24.9009 976.336 24.8999C976.336 24.8989 976.336 24.8979 976.336 24.8969C976.336 24.8959 976.336 24.8949 976.336 24.8939C976.336 24.8929 976.336 24.8919 976.336 24.8909C976.336 24.8899 976.336 24.8889 976.336 24.8879C976.336 24.8869 976.336 24.8859 976.336 24.8849C976.336 24.8838 976.336 24.8828 976.336 24.8818C976.336 24.8808 976.336 24.8798 976.336 24.8788C976.336 24.8778 976.336 24.8768 976.336 24.8758C976.336 24.8748 976.336 24.8737 976.336 24.8727C976.336 24.8717 976.336 24.8707 976.336 24.8697C976.336 24.8687 976.336 24.8677 976.336 24.8667C976.336 24.8656 976.336 24.8646 976.336 24.8636C976.336 24.8626 976.336 24.8616 976.336 24.8606C976.336 24.8595 976.336 24.8585 976.336 24.8575C976.336 24.8565 976.336 24.8555 976.336 24.8545C976.336 24.8534 976.336 24.8524 976.336 24.8514C976.336 24.8504 976.336 24.8494 976.336 24.8483C976.336 24.8473 976.336 24.8463 976.336 24.8453C976.336 24.8443 976.336 24.8432 976.336 24.8422C976.336 24.8412 976.336 24.8402 976.336 24.8391C976.336 24.8381 976.336 24.8371 976.336 24.8361C976.336 24.835 976.336 24.834 976.336 24.833C976.336 24.832 976.336 24.8309 976.336 24.8299C976.336 24.8289 976.336 24.8279 976.336 24.8268C976.336 24.8258 976.336 24.8248 976.336 24.8237C976.336 24.8227 976.336 24.8217 976.336 24.8207C976.336 24.8196 976.336 24.8186 976.336 24.8176C976.336 24.8165 976.336 24.8155 976.336 24.8145C976.336 24.8134 976.336 24.8124 976.336 24.8114C976.336 24.8103 976.336 24.8093 976.336 24.8083C976.336 24.8072 976.336 24.8062 976.336 24.8052C976.336 24.8041 976.336 24.8031 976.336 24.8021C976.336 24.801 976.336 24.8 976.336 24.799C976.336 24.7979 976.336 24.7969 976.336 24.7959C976.336 24.7948 976.336 24.7938 976.336 24.7927C976.336 24.7917 976.336 24.7907 976.336 24.7896C976.336 24.7886 976.336 24.7875 976.336 24.7865C976.336 24.7855 976.336 24.7844 976.336 24.7834C976.336 24.7823 976.336 24.7813 976.336 24.7802C976.336 24.7792 976.336 24.7782 976.336 24.7771C976.336 24.7761 976.336 24.775 976.336 24.774C976.336 24.7729 976.336 24.7719 976.336 24.7708C976.336 24.7698 976.336 24.7688 976.336 24.7677C976.336 24.7667 976.336 24.7656 976.336 24.7646C976.336 24.7635 976.336 24.7625 976.336 24.7614C976.336 24.7604 976.336 24.7593 976.336 24.7583C976.336 24.7572 976.336 24.7562 976.336 24.7551C976.336 24.7541 976.336 24.753 976.336 24.752C976.336 24.7509 976.336 24.7499 976.336 24.7488C976.336 24.7478 976.336 24.7467 976.336 24.7456C976.336 24.7446 976.336 24.7435 976.336 24.7425C976.336 24.7414 976.336 24.7404 976.336 24.7393C976.336 24.7383 976.336 24.7372 976.336 24.7361C976.336 24.7351 976.336 24.734 976.336 24.733C976.336 24.7319 976.336 24.7309 976.336 24.7298C976.336 24.7287 976.336 24.7277 976.336 24.7266C976.336 24.7256 976.336 24.7245 976.336 24.7234C976.336 24.7224 976.336 24.7213 976.336 24.7203C976.336 24.7192 976.336 24.7181 976.336 24.7171C976.336 24.716 976.336 24.7149 976.336 24.7139C976.336 24.7128 976.336 24.7117 976.336 24.7107C976.336 24.7096 976.336 24.7085 976.336 24.7075C976.336 24.7064 976.336 24.7053 976.336 24.7043C976.336 24.7032 976.336 24.7021 976.336 24.7011C976.336 24.7 976.336 24.6989 976.336 24.6979C976.336 24.6968 976.336 24.6957 976.336 24.6947C976.336 24.6936 976.336 24.6925 976.336 24.6914C976.336 24.6904 976.336 24.6893 976.336 24.6882C976.336 24.6872 976.336 24.6861 976.336 24.685C976.336 24.6839 976.336 24.6829 976.336 24.6818C976.336 24.6807 976.336 24.6796 976.336 24.6786C976.336 24.6775 976.336 24.6764 976.336 24.6753C976.336 24.6743 976.336 24.6732 976.336 24.6721C976.336 24.671 976.336 24.67 976.336 24.6689C976.336 24.6678 976.336 24.6667 976.336 24.6656C976.336 24.6646 976.336 24.6635 976.336 24.6624C976.336 24.6613 976.336 24.6602 976.336 24.6592C976.336 24.6581 976.336 24.657 976.336 24.6559C976.336 24.6548 976.336 24.6537 976.336 24.6527C976.336 24.6516 976.336 24.6505 976.336 24.6494C976.336 24.6483 976.336 24.6472 976.336 24.6462C976.336 24.6451 976.336 24.644 976.336 24.6429C976.336 24.6418 976.336 24.6407 976.336 24.6396C976.336 24.6385 976.336 24.6375 976.336 24.6364C976.336 24.6353 976.336 24.6342 976.336 24.6331C976.336 24.632 976.336 24.6309 976.336 24.6298C976.336 24.6287 976.336 24.6276 976.336 24.6266C976.336 24.6255 976.336 24.6244 976.336 24.6233C976.336 24.6222 976.336 24.6211 976.336 24.62C976.336 24.6189 976.336 24.6178 976.336 24.6167C976.336 24.6156 976.336 24.6145 976.336 24.6134C976.336 24.6123 976.336 24.6112 976.336 24.6101C976.336 24.609 976.336 24.6079 976.336 24.6068C976.336 24.6058 976.336 24.6047 976.336 24.6036C976.336 24.6025 976.336 24.6014 976.336 24.6003C976.336 24.5992 976.336 24.5981 976.336 24.597C976.336 24.5959 976.336 24.5948 976.336 24.5937C976.336 24.5925 976.336 24.5914 976.336 24.5903C976.336 24.5892 976.336 24.5881 976.336 24.587C976.336 24.5859 976.336 24.5848 976.336 24.5837C976.336 24.5826 976.336 24.5815 976.336 24.5804C976.336 24.5793 976.336 24.5782 976.336 24.5771C976.336 24.576 976.336 24.5749 976.336 24.5738C976.336 24.5727 976.336 24.5715 976.336 24.5704C976.336 24.5693 976.336 24.5682 976.336 24.5671C976.336 24.566 976.336 24.5649 976.336 24.5638C976.336 24.5627 976.336 24.5616 976.336 24.5604C976.336 24.5593 976.336 24.5582 976.336 24.5571C976.336 24.556 976.336 24.5549 976.336 24.5538C976.336 24.5526 976.336 24.5515 976.336 24.5504C976.336 24.5493 976.336 24.5482 976.336 24.5471C976.336 24.546 976.336 24.5448 976.336 24.5437C976.336 24.5426 976.336 24.5415 976.336 24.5404C976.336 24.5393 976.336 24.5381 976.336 24.537C976.336 24.5359 976.336 24.5348 976.336 24.5337C976.336 24.5325 976.336 24.5314 976.336 24.5303C976.336 24.5292 976.336 24.5281 976.336 24.5269C976.336 24.5258 976.336 24.5247 976.336 24.5236C976.336 24.5224 976.336 24.5213 976.336 24.5202C976.336 24.5191 976.336 24.5179 976.336 24.5168C976.336 24.5157 976.336 24.5146 976.336 24.5134C976.336 24.5123 976.336 24.5112 976.336 24.5101C976.336 24.5089 976.336 24.5078 976.336 24.5067C976.336 24.5055 976.336 24.5044 976.336 24.5033C976.336 24.5022 976.336 24.501 976.336 24.4999C976.336 24.4988 976.336 24.4976 976.336 24.4965C976.336 24.4954 976.336 24.4942 976.336 24.4931C976.336 24.492 976.336 24.4908 976.336 24.4897C976.336 24.4886 976.336 24.4874 976.336 24.4863C976.336 24.4852 976.336 24.484 976.336 24.4829C976.336 24.4818 976.336 24.4806 976.336 24.4795C976.336 24.4784 976.336 24.4772 976.336 24.4761C976.336 24.4749 976.336 24.4738 976.336 24.4727C976.336 24.4715 976.336 24.4704 976.336 24.4693C976.336 24.4681 976.336 24.467 976.336 24.4658C976.336 24.4647 976.336 24.4636 976.336 24.4624C976.336 24.4613 976.336 24.4601 976.336 24.459C976.336 24.4578 976.336 24.4567 976.336 24.4556C976.336 24.4544 976.336 24.4533 976.336 24.4521C976.336 24.451 976.336 24.4498 976.336 24.4487C976.336 24.4475 976.336 24.4464 976.336 24.4452C976.336 24.4441 976.336 24.443 976.336 24.4418C976.336 24.4407 976.336 24.4395 976.336 24.4384C976.336 24.4372 976.336 24.4361 976.336 24.4349C976.336 24.4338 976.336 24.4326 976.336 24.4315C976.336 24.4303 976.336 24.4292 976.336 24.428C976.336 24.4269 976.336 24.4257 976.336 24.4246C976.336 24.4234 976.336 24.4222 976.336 24.4211C976.336 24.4199 976.336 24.4188 976.336 24.4176C976.336 24.4165 976.336 24.4153 976.336 24.4142C976.336 24.413 976.336 24.4119 976.336 24.4107C976.336 24.4095 976.336 24.4084 976.336 24.4072C976.336 24.4061 976.336 24.4049 976.336 24.4037C976.336 24.4026 976.336 24.4014 976.336 24.4003C976.336 24.3991 976.336 24.398 976.336 24.3968C976.336 24.3956 976.336 24.3945 976.336 24.3933C976.336 24.3921 976.336 24.391 976.336 24.3898C976.336 24.3887 976.336 24.3875 976.336 24.3863C976.336 24.3852 976.336 24.384 976.336 24.3828C976.336 24.3817 976.336 24.3805 976.336 24.3793C976.336 24.3782 976.336 24.377 976.336 24.3758C976.336 24.3747 976.336 24.3735 976.336 24.3723C976.336 24.3712 976.336 24.37 976.336 24.3688C976.336 24.3677 976.336 24.3665 976.336 24.3653C976.336 24.3642 976.336 24.363 976.336 24.3618C976.336 24.3606 976.336 24.3595 976.336 24.3583C976.336 24.3571 976.336 24.356 976.336 24.3548C976.336 24.3536 976.336 24.3524 976.336 24.3513C976.336 24.3501 976.336 24.3489 976.336 24.3477C976.336 24.3466 976.336 24.3454 976.336 24.3442C976.336 24.343 976.336 24.3419 976.336 24.3407C976.336 24.3395 976.336 24.3383 976.336 24.3371C976.336 24.336 976.336 24.3348 976.336 24.3336C976.336 24.3324 976.336 24.3312 976.336 24.3301C976.336 24.3289 976.336 24.3277 976.336 24.3265C976.336 24.3253 976.336 24.3242 976.336 24.323C976.336 24.3218 976.336 24.3206 976.336 24.3194C976.336 24.3182 976.336 24.3171 976.336 24.3159C976.336 24.3147 976.336 24.3135 976.336 24.3123C976.336 24.3111 976.336 24.31 976.336 24.3088C976.336 24.3076 976.336 24.3064 976.336 24.3052C976.336 24.304 976.336 24.3028 976.336 24.3016C976.336 24.3005 976.336 24.2993 976.336 24.2981C976.336 24.2969 976.336 24.2957 976.336 24.2945C976.336 24.2933 976.336 24.2921 976.336 24.2909C976.336 24.2897 976.336 24.2886 976.336 24.2874C976.336 24.2862 976.336 24.285 976.336 24.2838C976.336 24.2826 976.336 24.2814 976.336 24.2802C976.336 24.279 976.336 24.2778 976.336 24.2766C976.336 24.2754 976.336 24.2742 976.336 24.273C976.336 24.2718 976.336 24.2706 976.336 24.2694C976.336 24.2682 976.336 24.267 976.336 24.2658C976.336 24.2646 976.336 24.2634 976.336 24.2622C976.336 24.261 976.336 24.2598 976.336 24.2586C976.336 24.2574 976.336 24.2562 976.336 24.255C976.336 24.2538 976.336 24.2526 976.336 24.2514C976.336 24.2502 976.336 24.249 976.336 24.2478C976.336 24.2466 976.336 24.2454 976.336 24.2442C976.336 24.243 976.336 24.2418 976.336 24.2406C976.336 24.2394 976.336 24.2382 976.336 24.237C976.336 24.2358 976.336 24.2346 976.336 24.2334C976.336 24.2322 976.336 24.2309 976.336 24.2297C976.336 24.2285 976.336 24.2273 976.336 24.2261C976.336 24.2249 976.336 24.2237 976.336 24.2225C976.336 24.2213 976.336 24.2201 976.336 24.2188C976.336 24.2176 976.336 24.2164 976.336 24.2152C976.336 24.214 976.336 24.2128 976.336 24.2116C976.336 24.2104 976.336 24.2091 976.336 24.2079C976.336 24.2067 976.336 24.2055 976.336 24.2043C976.336 24.2031 976.336 24.2018 976.336 24.2006C976.336 24.1994 976.336 24.1982 976.336 24.197C976.336 24.1958 976.336 24.1945 976.336 24.1933C976.336 24.1921 976.336 24.1909 976.336 24.1897C976.336 24.1884 976.336 24.1872 976.336 24.186C976.336 24.1848 976.336 24.1836 976.336 24.1823C976.336 24.1811 976.336 24.1799 976.336 24.1787C976.336 24.1774 976.336 24.1762 976.336 24.175C976.336 24.1738 976.336 24.1726 976.336 24.1713C976.336 24.1701 976.336 24.1689 976.336 24.1676C976.336 24.1664 976.336 24.1652 976.336 24.164C976.336 24.1627 976.336 24.1615 976.336 24.1603C976.336 24.1591 976.336 24.1578 976.336 24.1566C976.336 24.1554 976.336 24.1541 976.336 24.1529C976.336 24.1517 976.336 24.1505 976.336 24.1492C976.336 24.148 976.336 24.1468 976.336 24.1455C976.336 24.1443 976.336 24.1431 976.336 24.1418C976.336 24.1406 976.336 24.1394 976.336 24.1381C976.336 24.1369 976.336 24.1357 976.336 24.1344C976.336 24.1332 976.336 24.132 976.336 24.1307C976.336 24.1295 976.336 24.1282 976.336 24.127C976.336 24.1258 976.336 24.1245 976.336 24.1233C976.336 24.1221 976.336 24.1208 976.336 24.1196C976.336 24.1183 976.336 24.1171 976.336 24.1159C976.336 24.1146 976.336 24.1134 976.336 24.1121C976.336 24.1109 976.336 24.1097 976.336 24.1084C976.336 24.1072 976.336 24.1059 976.336 24.1047C976.336 24.1034 976.336 24.1022 976.336 24.101C976.336 24.0997 976.336 24.0985 976.336 24.0972C976.336 24.096 976.336 24.0947 976.336 24.0935C976.336 24.0922 976.336 24.091 976.336 24.0897C976.336 24.0885 976.336 24.0872 976.336 24.086C976.336 24.0847 976.336 24.0835 976.336 24.0822C976.336 24.081 976.336 24.0797 976.336 24.0785C976.336 24.0772 976.336 24.076 976.336 24.0747C976.336 24.0735 976.336 24.0722 976.336 24.071C976.336 24.0697 976.336 24.0685 976.336 24.0672C976.336 24.066 976.336 24.0647 976.336 24.0635C976.336 24.0622 976.336 24.061 976.336 24.0597C976.336 24.0584 976.336 24.0572 976.336 24.0559C976.336 24.0547 976.336 24.0534 976.336 24.0522C976.336 24.0509 976.336 24.0497 976.336 24.0484C976.336 24.0471 976.336 24.0459 976.336 24.0446C976.336 24.0434 976.336 24.0421 976.336 24.0408C976.336 24.0396 976.336 24.0383 976.336 24.0371C976.336 24.0358 976.336 24.0345 976.336 24.0333C976.336 24.032 976.336 24.0307 976.336 24.0295C976.336 24.0282 976.336 24.0269 976.336 24.0257C976.336 24.0244 976.336 24.0232 976.336 24.0219C976.336 24.0206 976.336 24.0194 976.336 24.0181C976.336 24.0168 976.336 24.0156 976.336 24.0143C976.336 24.013 976.336 24.0118 976.336 24.0105C976.336 24.0092 976.336 24.0079 976.336 24.0067C976.336 24.0054 976.336 24.0041 976.336 24.0029C976.336 24.0016 976.336 24.0003 976.336 23.9991C976.336 23.9978 976.336 23.9965 976.336 23.9952C976.336 23.994 976.336 23.9927 976.336 23.9914C976.336 23.9901 976.336 23.9889 976.336 23.9876C976.336 23.9863 976.336 23.985 976.336 23.9838C976.336 23.9825 976.336 23.9812 976.336 23.9799C976.336 23.9787 976.336 23.9774 976.336 23.9761C976.336 23.9748 976.336 23.9735 976.336 23.9723C976.336 23.971 976.336 23.9697 976.336 23.9684C976.336 23.9672 976.336 23.9659 976.336 23.9646C976.336 23.9633 976.336 23.962 976.336 23.9607C976.336 23.9595 976.336 23.9582 976.336 23.9569C976.336 23.9556 976.336 23.9543 976.336 23.953C976.336 23.9518 976.336 23.9505 976.336 23.9492C976.336 23.9479 976.336 23.9466 976.336 23.9453C976.336 23.9441 976.336 23.9428 976.336 23.9415C976.336 23.9402 976.336 23.9389 976.336 23.9376C976.336 23.9363 976.336 23.935 976.336 23.9337C976.336 23.9325 976.336 23.9312 976.336 23.9299C976.336 23.9286 976.336 23.9273 976.336 23.926C976.336 23.9247 976.336 23.9234 976.336 23.9221C976.336 23.9208 976.336 23.9195 976.336 23.9183C976.336 23.917 976.336 23.9157 976.336 23.9144C976.336 23.9131 976.336 23.9118 976.336 23.9105C976.336 23.9092 976.336 23.9079 976.336 23.9066C976.336 23.9053 976.336 23.904 976.336 23.9027C976.336 23.9014 976.336 23.9001 976.336 23.8988C976.336 23.8975 976.336 23.8962 976.336 23.8949C976.336 23.8936 976.336 23.8923 976.336 23.891C976.336 23.8897 976.336 23.8884 976.336 23.8871C976.336 23.8858 976.336 23.8845 976.336 23.8832C976.336 23.8819 976.336 23.8806 976.336 23.8793C976.336 23.878 976.336 23.8767 976.336 23.8754C976.336 23.8741 976.336 23.8728 976.336 23.8715C976.336 23.8702 976.336 23.8689 976.336 23.8676C976.336 23.8663 976.336 23.865 976.336 23.8636C976.336 23.8623 976.336 23.861 976.336 23.8597C976.336 23.8584 976.336 23.8571 976.336 23.8558C976.336 23.8545 976.336 23.8532 976.336 23.8519C976.336 23.8506 976.336 23.8492 976.336 23.8479C976.336 23.8466 976.336 23.8453 976.336 23.844C976.336 23.8427 976.336 23.8414 976.336 23.8401C976.336 23.8387 976.336 23.8374 976.336 23.8361C976.336 23.8348 976.336 23.8335 976.336 23.8322C976.336 23.8309 976.336 23.8295 976.336 23.8282C976.336 23.8269 976.336 23.8256 976.336 23.8243C976.336 23.823 976.336 23.8216 976.336 23.8203C976.336 23.819 976.336 23.8177 976.336 23.8164C976.336 23.815 976.336 23.8137 976.336 23.8124C976.336 23.8111 976.336 23.8098 976.336 23.8084C976.336 23.8071 976.336 23.8058 976.336 23.8045C976.336 23.8031 976.336 23.8018 976.336 23.8005C976.336 23.7992 976.336 23.7979 976.336 23.7965C976.336 23.7952 976.336 23.7939 976.336 23.7926C976.336 23.7912 976.336 23.7899 976.336 23.7886C976.336 23.7872 976.336 23.7859 976.336 23.7846C976.336 23.7833 976.336 23.7819 976.336 23.7806C976.336 23.7793 976.336 23.778 976.336 23.7766C976.336 23.7753 976.336 23.774 976.336 23.7726C976.336 23.7713 976.336 23.77 976.336 23.7686C976.336 23.7673 976.336 23.766 976.336 23.7646C976.336 23.7633 976.336 23.762 976.336 23.7606C976.336 23.7593 976.336 23.758 976.336 23.7566C976.336 23.7553 976.336 23.754 976.336 23.7526C976.336 23.7513 976.336 23.75 976.336 23.7486C976.336 23.7473 976.336 23.7459 976.336 23.7446C976.336 23.7433 976.336 23.7419 976.336 23.7406C976.336 23.7393 976.336 23.7379 976.336 23.7366C976.336 23.7352 976.336 23.7339 976.336 23.7326C976.336 23.7312 976.336 23.7299 976.336 23.7285C976.336 23.7272 976.336 23.7258 976.336 23.7245C976.336 23.7232 976.336 23.7218 976.336 23.7205C976.336 23.7191 976.336 23.7178 976.336 23.7164C976.336 23.7151 976.336 23.7137 976.336 23.7124C976.336 23.7111 976.336 23.7097 976.336 23.7084C976.336 23.707 976.336 23.7057 976.336 23.7043C976.336 23.703 976.336 23.7016 976.336 23.7003C976.336 23.6989 976.336 23.6976 976.336 23.6962C976.336 23.6949 976.336 23.6935 976.336 23.6922C976.336 23.6908 976.336 23.6895 976.336 23.6881C976.336 23.6868 976.336 23.6854 976.336 23.6841C976.336 23.6827 976.336 23.6814 976.336 23.68H974.336C974.336 23.6814 974.336 23.6827 974.336 23.6841C974.336 23.6854 974.336 23.6868 974.336 23.6881C974.336 23.6895 974.336 23.6908 974.336 23.6922C974.336 23.6935 974.336 23.6949 974.336 23.6962C974.336 23.6976 974.336 23.6989 974.336 23.7003C974.336 23.7016 974.336 23.703 974.336 23.7043C974.336 23.7057 974.336 23.707 974.336 23.7084C974.336 23.7097 974.336 23.7111 974.336 23.7124C974.336 23.7137 974.336 23.7151 974.336 23.7164C974.336 23.7178 974.336 23.7191 974.336 23.7205C974.336 23.7218 974.336 23.7232 974.336 23.7245C974.336 23.7258 974.336 23.7272 974.336 23.7285C974.336 23.7299 974.336 23.7312 974.336 23.7326C974.336 23.7339 974.336 23.7352 974.336 23.7366C974.336 23.7379 974.336 23.7393 974.336 23.7406C974.336 23.7419 974.336 23.7433 974.336 23.7446C974.336 23.7459 974.336 23.7473 974.336 23.7486C974.336 23.75 974.336 23.7513 974.336 23.7526C974.336 23.754 974.336 23.7553 974.336 23.7566C974.336 23.758 974.336 23.7593 974.336 23.7606C974.336 23.762 974.336 23.7633 974.336 23.7646C974.336 23.766 974.336 23.7673 974.336 23.7686C974.336 23.77 974.336 23.7713 974.336 23.7726C974.336 23.774 974.336 23.7753 974.336 23.7766C974.336 23.778 974.336 23.7793 974.336 23.7806C974.336 23.7819 974.336 23.7833 974.336 23.7846C974.336 23.7859 974.336 23.7872 974.336 23.7886C974.336 23.7899 974.336 23.7912 974.336 23.7926C974.336 23.7939 974.336 23.7952 974.336 23.7965C974.336 23.7979 974.336 23.7992 974.336 23.8005C974.336 23.8018 974.336 23.8031 974.336 23.8045C974.336 23.8058 974.336 23.8071 974.336 23.8084C974.336 23.8098 974.336 23.8111 974.336 23.8124C974.336 23.8137 974.336 23.815 974.336 23.8164C974.336 23.8177 974.336 23.819 974.336 23.8203C974.336 23.8216 974.336 23.823 974.336 23.8243C974.336 23.8256 974.336 23.8269 974.336 23.8282C974.336 23.8295 974.336 23.8309 974.336 23.8322C974.336 23.8335 974.336 23.8348 974.336 23.8361C974.336 23.8374 974.336 23.8387 974.336 23.8401C974.336 23.8414 974.336 23.8427 974.336 23.844C974.336 23.8453 974.336 23.8466 974.336 23.8479C974.336 23.8492 974.336 23.8506 974.336 23.8519C974.336 23.8532 974.336 23.8545 974.336 23.8558C974.336 23.8571 974.336 23.8584 974.336 23.8597C974.336 23.861 974.336 23.8623 974.336 23.8636C974.336 23.865 974.336 23.8663 974.336 23.8676C974.336 23.8689 974.336 23.8702 974.336 23.8715C974.336 23.8728 974.336 23.8741 974.336 23.8754C974.336 23.8767 974.336 23.878 974.336 23.8793C974.336 23.8806 974.336 23.8819 974.336 23.8832C974.336 23.8845 974.336 23.8858 974.336 23.8871C974.336 23.8884 974.336 23.8897 974.336 23.891C974.336 23.8923 974.336 23.8936 974.336 23.8949C974.336 23.8962 974.336 23.8975 974.336 23.8988C974.336 23.9001 974.336 23.9014 974.336 23.9027C974.336 23.904 974.336 23.9053 974.336 23.9066C974.336 23.9079 974.336 23.9092 974.336 23.9105C974.336 23.9118 974.336 23.9131 974.336 23.9144C974.336 23.9157 974.336 23.917 974.336 23.9183C974.336 23.9195 974.336 23.9208 974.336 23.9221C974.336 23.9234 974.336 23.9247 974.336 23.926C974.336 23.9273 974.336 23.9286 974.336 23.9299C974.336 23.9312 974.336 23.9325 974.336 23.9337C974.336 23.935 974.336 23.9363 974.336 23.9376C974.336 23.9389 974.336 23.9402 974.336 23.9415C974.336 23.9428 974.336 23.9441 974.336 23.9453C974.336 23.9466 974.336 23.9479 974.336 23.9492C974.336 23.9505 974.336 23.9518 974.336 23.953C974.336 23.9543 974.336 23.9556 974.336 23.9569C974.336 23.9582 974.336 23.9595 974.336 23.9607C974.336 23.962 974.336 23.9633 974.336 23.9646C974.336 23.9659 974.336 23.9672 974.336 23.9684C974.336 23.9697 974.336 23.971 974.336 23.9723C974.336 23.9735 974.336 23.9748 974.336 23.9761C974.336 23.9774 974.336 23.9787 974.336 23.9799C974.336 23.9812 974.336 23.9825 974.336 23.9838C974.336 23.985 974.336 23.9863 974.336 23.9876C974.336 23.9889 974.336 23.9901 974.336 23.9914C974.336 23.9927 974.336 23.994 974.336 23.9952C974.336 23.9965 974.336 23.9978 974.336 23.9991C974.336 24.0003 974.336 24.0016 974.336 24.0029C974.336 24.0041 974.336 24.0054 974.336 24.0067C974.336 24.0079 974.336 24.0092 974.336 24.0105C974.336 24.0118 974.336 24.013 974.336 24.0143C974.336 24.0156 974.336 24.0168 974.336 24.0181C974.336 24.0194 974.336 24.0206 974.336 24.0219C974.336 24.0232 974.336 24.0244 974.336 24.0257C974.336 24.0269 974.336 24.0282 974.336 24.0295C974.336 24.0307 974.336 24.032 974.336 24.0333C974.336 24.0345 974.336 24.0358 974.336 24.0371C974.336 24.0383 974.336 24.0396 974.336 24.0408C974.336 24.0421 974.336 24.0434 974.336 24.0446C974.336 24.0459 974.336 24.0471 974.336 24.0484C974.336 24.0497 974.336 24.0509 974.336 24.0522C974.336 24.0534 974.336 24.0547 974.336 24.0559C974.336 24.0572 974.336 24.0584 974.336 24.0597C974.336 24.061 974.336 24.0622 974.336 24.0635C974.336 24.0647 974.336 24.066 974.336 24.0672C974.336 24.0685 974.336 24.0697 974.336 24.071C974.336 24.0722 974.336 24.0735 974.336 24.0747C974.336 24.076 974.336 24.0772 974.336 24.0785C974.336 24.0797 974.336 24.081 974.336 24.0822C974.336 24.0835 974.336 24.0847 974.336 24.086C974.336 24.0872 974.336 24.0885 974.336 24.0897C974.336 24.091 974.336 24.0922 974.336 24.0935C974.336 24.0947 974.336 24.096 974.336 24.0972C974.336 24.0985 974.336 24.0997 974.336 24.101C974.336 24.1022 974.336 24.1034 974.336 24.1047C974.336 24.1059 974.336 24.1072 974.336 24.1084C974.336 24.1097 974.336 24.1109 974.336 24.1121C974.336 24.1134 974.336 24.1146 974.336 24.1159C974.336 24.1171 974.336 24.1183 974.336 24.1196C974.336 24.1208 974.336 24.1221 974.336 24.1233C974.336 24.1245 974.336 24.1258 974.336 24.127C974.336 24.1282 974.336 24.1295 974.336 24.1307C974.336 24.132 974.336 24.1332 974.336 24.1344C974.336 24.1357 974.336 24.1369 974.336 24.1381C974.336 24.1394 974.336 24.1406 974.336 24.1418C974.336 24.1431 974.336 24.1443 974.336 24.1455C974.336 24.1468 974.336 24.148 974.336 24.1492C974.336 24.1505 974.336 24.1517 974.336 24.1529C974.336 24.1541 974.336 24.1554 974.336 24.1566C974.336 24.1578 974.336 24.1591 974.336 24.1603C974.336 24.1615 974.336 24.1627 974.336 24.164C974.336 24.1652 974.336 24.1664 974.336 24.1676C974.336 24.1689 974.336 24.1701 974.336 24.1713C974.336 24.1726 974.336 24.1738 974.336 24.175C974.336 24.1762 974.336 24.1774 974.336 24.1787C974.336 24.1799 974.336 24.1811 974.336 24.1823C974.336 24.1836 974.336 24.1848 974.336 24.186C974.336 24.1872 974.336 24.1884 974.336 24.1897C974.336 24.1909 974.336 24.1921 974.336 24.1933C974.336 24.1945 974.336 24.1958 974.336 24.197C974.336 24.1982 974.336 24.1994 974.336 24.2006C974.336 24.2018 974.336 24.2031 974.336 24.2043C974.336 24.2055 974.336 24.2067 974.336 24.2079C974.336 24.2091 974.336 24.2104 974.336 24.2116C974.336 24.2128 974.336 24.214 974.336 24.2152C974.336 24.2164 974.336 24.2176 974.336 24.2188C974.336 24.2201 974.336 24.2213 974.336 24.2225C974.336 24.2237 974.336 24.2249 974.336 24.2261C974.336 24.2273 974.336 24.2285 974.336 24.2297C974.336 24.2309 974.336 24.2322 974.336 24.2334C974.336 24.2346 974.336 24.2358 974.336 24.237C974.336 24.2382 974.336 24.2394 974.336 24.2406C974.336 24.2418 974.336 24.243 974.336 24.2442C974.336 24.2454 974.336 24.2466 974.336 24.2478C974.336 24.249 974.336 24.2502 974.336 24.2514C974.336 24.2526 974.336 24.2538 974.336 24.255C974.336 24.2562 974.336 24.2574 974.336 24.2586C974.336 24.2598 974.336 24.261 974.336 24.2622C974.336 24.2634 974.336 24.2646 974.336 24.2658C974.336 24.267 974.336 24.2682 974.336 24.2694C974.336 24.2706 974.336 24.2718 974.336 24.273C974.336 24.2742 974.336 24.2754 974.336 24.2766C974.336 24.2778 974.336 24.279 974.336 24.2802C974.336 24.2814 974.336 24.2826 974.336 24.2838C974.336 24.285 974.336 24.2862 974.336 24.2874C974.336 24.2886 974.336 24.2897 974.336 24.2909C974.336 24.2921 974.336 24.2933 974.336 24.2945C974.336 24.2957 974.336 24.2969 974.336 24.2981C974.336 24.2993 974.336 24.3005 974.336 24.3016C974.336 24.3028 974.336 24.304 974.336 24.3052C974.336 24.3064 974.336 24.3076 974.336 24.3088C974.336 24.31 974.336 24.3111 974.336 24.3123C974.336 24.3135 974.336 24.3147 974.336 24.3159C974.336 24.3171 974.336 24.3182 974.336 24.3194C974.336 24.3206 974.336 24.3218 974.336 24.323C974.336 24.3242 974.336 24.3253 974.336 24.3265C974.336 24.3277 974.336 24.3289 974.336 24.3301C974.336 24.3312 974.336 24.3324 974.336 24.3336C974.336 24.3348 974.336 24.336 974.336 24.3371C974.336 24.3383 974.336 24.3395 974.336 24.3407C974.336 24.3419 974.336 24.343 974.336 24.3442C974.336 24.3454 974.336 24.3466 974.336 24.3477C974.336 24.3489 974.336 24.3501 974.336 24.3513C974.336 24.3524 974.336 24.3536 974.336 24.3548C974.336 24.356 974.336 24.3571 974.336 24.3583C974.336 24.3595 974.336 24.3606 974.336 24.3618C974.336 24.363 974.336 24.3642 974.336 24.3653C974.336 24.3665 974.336 24.3677 974.336 24.3688C974.336 24.37 974.336 24.3712 974.336 24.3723C974.336 24.3735 974.336 24.3747 974.336 24.3758C974.336 24.377 974.336 24.3782 974.336 24.3793C974.336 24.3805 974.336 24.3817 974.336 24.3828C974.336 24.384 974.336 24.3852 974.336 24.3863C974.336 24.3875 974.336 24.3887 974.336 24.3898C974.336 24.391 974.336 24.3921 974.336 24.3933C974.336 24.3945 974.336 24.3956 974.336 24.3968C974.336 24.398 974.336 24.3991 974.336 24.4003C974.336 24.4014 974.336 24.4026 974.336 24.4037C974.336 24.4049 974.336 24.4061 974.336 24.4072C974.336 24.4084 974.336 24.4095 974.336 24.4107C974.336 24.4119 974.336 24.413 974.336 24.4142C974.336 24.4153 974.336 24.4165 974.336 24.4176C974.336 24.4188 974.336 24.4199 974.336 24.4211C974.336 24.4222 974.336 24.4234 974.336 24.4246C974.336 24.4257 974.336 24.4269 974.336 24.428C974.336 24.4292 974.336 24.4303 974.336 24.4315C974.336 24.4326 974.336 24.4338 974.336 24.4349C974.336 24.4361 974.336 24.4372 974.336 24.4384C974.336 24.4395 974.336 24.4407 974.336 24.4418C974.336 24.443 974.336 24.4441 974.336 24.4452C974.336 24.4464 974.336 24.4475 974.336 24.4487C974.336 24.4498 974.336 24.451 974.336 24.4521C974.336 24.4533 974.336 24.4544 974.336 24.4556C974.336 24.4567 974.336 24.4578 974.336 24.459C974.336 24.4601 974.336 24.4613 974.336 24.4624C974.336 24.4636 974.336 24.4647 974.336 24.4658C974.336 24.467 974.336 24.4681 974.336 24.4693C974.336 24.4704 974.336 24.4715 974.336 24.4727C974.336 24.4738 974.336 24.4749 974.336 24.4761C974.336 24.4772 974.336 24.4784 974.336 24.4795C974.336 24.4806 974.336 24.4818 974.336 24.4829C974.336 24.484 974.336 24.4852 974.336 24.4863C974.336 24.4874 974.336 24.4886 974.336 24.4897C974.336 24.4908 974.336 24.492 974.336 24.4931C974.336 24.4942 974.336 24.4954 974.336 24.4965C974.336 24.4976 974.336 24.4988 974.336 24.4999C974.336 24.501 974.336 24.5022 974.336 24.5033C974.336 24.5044 974.336 24.5055 974.336 24.5067C974.336 24.5078 974.336 24.5089 974.336 24.5101C974.336 24.5112 974.336 24.5123 974.336 24.5134C974.336 24.5146 974.336 24.5157 974.336 24.5168C974.336 24.5179 974.336 24.5191 974.336 24.5202C974.336 24.5213 974.336 24.5224 974.336 24.5236C974.336 24.5247 974.336 24.5258 974.336 24.5269C974.336 24.5281 974.336 24.5292 974.336 24.5303C974.336 24.5314 974.336 24.5325 974.336 24.5337C974.336 24.5348 974.336 24.5359 974.336 24.537C974.336 24.5381 974.336 24.5393 974.336 24.5404C974.336 24.5415 974.336 24.5426 974.336 24.5437C974.336 24.5448 974.336 24.546 974.336 24.5471C974.336 24.5482 974.336 24.5493 974.336 24.5504C974.336 24.5515 974.336 24.5526 974.336 24.5538C974.336 24.5549 974.336 24.556 974.336 24.5571C974.336 24.5582 974.336 24.5593 974.336 24.5604C974.336 24.5616 974.336 24.5627 974.336 24.5638C974.336 24.5649 974.336 24.566 974.336 24.5671C974.336 24.5682 974.336 24.5693 974.336 24.5704C974.336 24.5715 974.336 24.5727 974.336 24.5738C974.336 24.5749 974.336 24.576 974.336 24.5771C974.336 24.5782 974.336 24.5793 974.336 24.5804C974.336 24.5815 974.336 24.5826 974.336 24.5837C974.336 24.5848 974.336 24.5859 974.336 24.587C974.336 24.5881 974.336 24.5892 974.336 24.5903C974.336 24.5914 974.336 24.5925 974.336 24.5937C974.336 24.5948 974.336 24.5959 974.336 24.597C974.336 24.5981 974.336 24.5992 974.336 24.6003C974.336 24.6014 974.336 24.6025 974.336 24.6036C974.336 24.6047 974.336 24.6058 974.336 24.6068C974.336 24.6079 974.336 24.609 974.336 24.6101C974.336 24.6112 974.336 24.6123 974.336 24.6134C974.336 24.6145 974.336 24.6156 974.336 24.6167C974.336 24.6178 974.336 24.6189 974.336 24.62C974.336 24.6211 974.336 24.6222 974.336 24.6233C974.336 24.6244 974.336 24.6255 974.336 24.6266C974.336 24.6276 974.336 24.6287 974.336 24.6298C974.336 24.6309 974.336 24.632 974.336 24.6331C974.336 24.6342 974.336 24.6353 974.336 24.6364C974.336 24.6375 974.336 24.6385 974.336 24.6396C974.336 24.6407 974.336 24.6418 974.336 24.6429C974.336 24.644 974.336 24.6451 974.336 24.6462C974.336 24.6472 974.336 24.6483 974.336 24.6494C974.336 24.6505 974.336 24.6516 974.336 24.6527C974.336 24.6537 974.336 24.6548 974.336 24.6559C974.336 24.657 974.336 24.6581 974.336 24.6592C974.336 24.6602 974.336 24.6613 974.336 24.6624C974.336 24.6635 974.336 24.6646 974.336 24.6656C974.336 24.6667 974.336 24.6678 974.336 24.6689C974.336 24.67 974.336 24.671 974.336 24.6721C974.336 24.6732 974.336 24.6743 974.336 24.6753C974.336 24.6764 974.336 24.6775 974.336 24.6786C974.336 24.6796 974.336 24.6807 974.336 24.6818C974.336 24.6829 974.336 24.6839 974.336 24.685C974.336 24.6861 974.336 24.6872 974.336 24.6882C974.336 24.6893 974.336 24.6904 974.336 24.6914C974.336 24.6925 974.336 24.6936 974.336 24.6947C974.336 24.6957 974.336 24.6968 974.336 24.6979C974.336 24.6989 974.336 24.7 974.336 24.7011C974.336 24.7021 974.336 24.7032 974.336 24.7043C974.336 24.7053 974.336 24.7064 974.336 24.7075C974.336 24.7085 974.336 24.7096 974.336 24.7107C974.336 24.7117 974.336 24.7128 974.336 24.7139C974.336 24.7149 974.336 24.716 974.336 24.7171C974.336 24.7181 974.336 24.7192 974.336 24.7203C974.336 24.7213 974.336 24.7224 974.336 24.7234C974.336 24.7245 974.336 24.7256 974.336 24.7266C974.336 24.7277 974.336 24.7287 974.336 24.7298C974.336 24.7309 974.336 24.7319 974.336 24.733C974.336 24.734 974.336 24.7351 974.336 24.7361C974.336 24.7372 974.336 24.7383 974.336 24.7393C974.336 24.7404 974.336 24.7414 974.336 24.7425C974.336 24.7435 974.336 24.7446 974.336 24.7456C974.336 24.7467 974.336 24.7478 974.336 24.7488C974.336 24.7499 974.336 24.7509 974.336 24.752C974.336 24.753 974.336 24.7541 974.336 24.7551C974.336 24.7562 974.336 24.7572 974.336 24.7583C974.336 24.7593 974.336 24.7604 974.336 24.7614C974.336 24.7625 974.336 24.7635 974.336 24.7646C974.336 24.7656 974.336 24.7667 974.336 24.7677C974.336 24.7688 974.336 24.7698 974.336 24.7708C974.336 24.7719 974.336 24.7729 974.336 24.774C974.336 24.775 974.336 24.7761 974.336 24.7771C974.336 24.7782 974.336 24.7792 974.336 24.7802C974.336 24.7813 974.336 24.7823 974.336 24.7834C974.336 24.7844 974.336 24.7855 974.336 24.7865C974.336 24.7875 974.336 24.7886 974.336 24.7896C974.336 24.7907 974.336 24.7917 974.336 24.7927C974.336 24.7938 974.336 24.7948 974.336 24.7959C974.336 24.7969 974.336 24.7979 974.336 24.799C974.336 24.8 974.336 24.801 974.336 24.8021C974.336 24.8031 974.336 24.8041 974.336 24.8052C974.336 24.8062 974.336 24.8072 974.336 24.8083C974.336 24.8093 974.336 24.8103 974.336 24.8114C974.336 24.8124 974.336 24.8134 974.336 24.8145C974.336 24.8155 974.336 24.8165 974.336 24.8176C974.336 24.8186 974.336 24.8196 974.336 24.8207C974.336 24.8217 974.336 24.8227 974.336 24.8237C974.336 24.8248 974.336 24.8258 974.336 24.8268C974.336 24.8279 974.336 24.8289 974.336 24.8299C974.336 24.8309 974.336 24.832 974.336 24.833C974.336 24.834 974.336 24.835 974.336 24.8361C974.336 24.8371 974.336 24.8381 974.336 24.8391C974.336 24.8402 974.336 24.8412 974.336 24.8422C974.336 24.8432 974.336 24.8443 974.336 24.8453C974.336 24.8463 974.336 24.8473 974.336 24.8483C974.336 24.8494 974.336 24.8504 974.336 24.8514C974.336 24.8524 974.336 24.8534 974.336 24.8545C974.336 24.8555 974.336 24.8565 974.336 24.8575C974.336 24.8585 974.336 24.8595 974.336 24.8606C974.336 24.8616 974.336 24.8626 974.336 24.8636C974.336 24.8646 974.336 24.8656 974.336 24.8667C974.336 24.8677 974.336 24.8687 974.336 24.8697C974.336 24.8707 974.336 24.8717 974.336 24.8727C974.336 24.8737 974.336 24.8748 974.336 24.8758C974.336 24.8768 974.336 24.8778 974.336 24.8788C974.336 24.8798 974.336 24.8808 974.336 24.8818C974.336 24.8828 974.336 24.8838 974.336 24.8849C974.336 24.8859 974.336 24.8869 974.336 24.8879C974.336 24.8889 974.336 24.8899 974.336 24.8909C974.336 24.8919 974.336 24.8929 974.336 24.8939C974.336 24.8949 974.336 24.8959 974.336 24.8969C974.336 24.8979 974.336 24.8989 974.336 24.8999C974.336 24.9009 974.336 24.902 974.336 24.903C974.336 24.904 974.336 24.905 974.336 24.906C974.336 24.907 974.336 24.908 974.336 24.909C974.336 24.91 974.336 24.911 974.336 24.912C974.336 24.913 974.336 24.914 974.336 24.915C974.336 24.916 974.336 24.9169 974.336 24.9179C974.336 24.9189 974.336 24.9199 974.336 24.9209C974.336 24.9219 974.336 24.9229 974.336 24.9239C974.336 24.9249 974.336 24.9259 974.336 24.9269C974.336 24.9279 974.336 24.9289 974.336 24.9299C974.336 24.9309 974.336 24.9319 974.336 24.9329C974.336 24.9339 974.336 24.9348 974.336 24.9358C974.336 24.9368 974.336 24.9378 974.336 24.9388C974.336 24.9398 974.336 24.9408 974.336 24.9418C974.336 24.9428 974.336 24.9438 974.336 24.9447C974.336 24.9457 974.336 24.9467 974.336 24.9477C974.336 24.9487 974.336 24.9497 974.336 24.9507C974.336 24.9517 974.336 24.9526 974.336 24.9536C974.336 24.9546 974.336 24.9556 974.336 24.9566C974.336 24.9576 974.336 24.9585 974.336 24.9595C974.336 24.9605 974.336 24.9615 974.336 24.9625C974.336 24.9635 974.336 24.9644 974.336 24.9654C974.336 24.9664 974.336 24.9674 974.336 24.9684C974.336 24.9693 974.336 24.9703 974.336 24.9713C974.336 24.9723 974.336 24.9733 974.336 24.9742C974.336 24.9752 974.336 24.9762 974.336 24.9772C974.336 24.9781 974.336 24.9791 974.336 24.9801C974.336 24.9811 974.336 24.982 974.336 24.983C974.336 24.984 974.336 24.985 974.336 24.9859C974.336 24.9869 974.336 24.9879 974.336 24.9889C974.336 24.9898 974.336 24.9908 974.336 24.9918C974.336 24.9927 974.336 24.9937 974.336 24.9947C974.336 24.9957 974.336 24.9966 974.336 24.9976C974.336 24.9986 974.336 24.9995 974.336 25.0005C974.336 25.0015 974.336 25.0024 974.336 25.0034C974.336 25.0044 974.336 25.0053 974.336 25.0063C974.336 25.0073 974.336 25.0082 974.336 25.0092C974.336 25.0102 974.336 25.0111 974.336 25.0121C974.336 25.0131 974.336 25.014 974.336 25.015C974.336 25.016 974.336 25.0169 974.336 25.0179C974.336 25.0189 974.336 25.0198 974.336 25.0208C974.336 25.0217 974.336 25.0227 974.336 25.0237C974.336 25.0246 974.336 25.0256 974.336 25.0265C974.336 25.0275 974.336 25.0285 974.336 25.0294C974.336 25.0304 974.336 25.0313 974.336 25.0323C974.336 25.0332 974.336 25.0342 974.336 25.0352C974.336 25.0361 974.336 25.0371 974.336 25.038C974.336 25.039 974.336 25.0399 974.336 25.0409C974.336 25.0418 974.336 25.0428 974.336 25.0438C974.336 25.0447 974.336 25.0457 974.336 25.0466C974.336 25.0476 974.336 25.0485 974.336 25.0495C974.336 25.0504 974.336 25.0514 974.336 25.0523C974.336 25.0533 974.336 25.0542 974.336 25.0552C974.336 25.0561 974.336 25.0571 974.336 25.058C974.336 25.059 974.336 25.0599 974.336 25.0609C974.336 25.0618 974.336 25.0628 974.336 25.0637C974.336 25.0646 974.336 25.0656 974.336 25.0665C974.336 25.0675 974.336 25.0684 974.336 25.0694C974.336 25.0703 974.336 25.0713 974.336 25.0722C974.336 25.0731 974.336 25.0741 974.336 25.075C974.336 25.076 974.336 25.0769 974.336 25.0779C974.336 25.0788 974.336 25.0797 974.336 25.0807C974.336 25.0816 974.336 25.0826 974.336 25.0835C974.336 25.0844 974.336 25.0854 974.336 25.0863C974.336 25.0872 974.336 25.0882 974.336 25.0891C974.336 25.0901 974.336 25.091 974.336 25.0919C974.336 25.0929 974.336 25.0938 974.336 25.0947C974.336 25.0957 974.336 25.0966 974.336 25.0975C974.336 25.0985 974.336 25.0994 974.336 25.1003C974.336 25.1013 974.336 25.1022 974.336 25.1031C974.336 25.1041 974.336 25.105 974.336 25.1059C974.336 25.1069 974.336 25.1078 974.336 25.1087C974.336 25.1097 974.336 25.1106 974.336 25.1115C974.336 25.1124 974.336 25.1134 974.336 25.1143C974.336 25.1152 974.336 25.1162 974.336 25.1171C974.336 25.118 974.336 25.1189 974.336 25.1199C974.336 25.1208 974.336 25.1217 974.336 25.1226C974.336 25.1236 974.336 25.1245 974.336 25.1254C974.336 25.1263 974.336 25.1273 974.336 25.1282C974.336 25.1291 974.336 25.13 974.336 25.131C974.336 25.1319 974.336 25.1328 974.336 25.1337C974.336 25.1346 974.336 25.1356 974.336 25.1365C974.336 25.1374 974.336 25.1383 974.336 25.1392C974.336 25.1402 974.336 25.1411 974.336 25.142C974.336 25.1429 974.336 25.1438 974.336 25.1447C974.336 25.1457 974.336 25.1466 974.336 25.1475C974.336 25.1484 974.336 25.1493 974.336 25.1502C974.336 25.1511 974.336 25.1521 974.336 25.153C974.336 25.1539 974.336 25.1548 974.336 25.1557C974.336 25.1566 974.336 25.1575 974.336 25.1585C974.336 25.1594 974.336 25.1603 974.336 25.1612C974.336 25.1621 974.336 25.163 974.336 25.1639C974.336 25.1648 974.336 25.1657 974.336 25.1666C974.336 25.1676 974.336 25.1685 974.336 25.1694C974.336 25.1703 974.336 25.1712 974.336 25.1721C974.336 25.173 974.336 25.1739 974.336 25.1748C974.336 25.1757 974.336 25.1766 974.336 25.1775C974.336 25.1784 974.336 25.1793 974.336 25.1802C974.336 25.1811 974.336 25.182 974.336 25.1829C974.336 25.1838 974.336 25.1847 974.336 25.1856C974.336 25.1866 974.336 25.1875 974.336 25.1884C974.336 25.1893 974.336 25.1902 974.336 25.1911C974.336 25.192 974.336 25.1929 974.336 25.1937C974.336 25.1946 974.336 25.1955 974.336 25.1964C974.336 25.1973 974.336 25.1982 974.336 25.1991C974.336 25.2 974.336 25.2009 974.336 25.2018C974.336 25.2027 974.336 25.2036 974.336 25.2045C974.336 25.2054 974.336 25.2063 974.336 25.2072C974.336 25.2081 974.336 25.209 974.336 25.2099C974.336 25.2108 974.336 25.2117 974.336 25.2125C974.336 25.2134 974.336 25.2143 974.336 25.2152C974.336 25.2161 974.336 25.217 974.336 25.2179C974.336 25.2188 974.336 25.2197 974.336 25.2205C974.336 25.2214 974.336 25.2223 974.336 25.2232C974.336 25.2241 974.336 25.225 974.336 25.2259C974.336 25.2268 974.336 25.2276 974.336 25.2285C974.336 25.2294 974.336 25.2303 974.336 25.2312C974.336 25.2321 974.336 25.233 974.336 25.2338C974.336 25.2347 974.336 25.2356 974.336 25.2365C974.336 25.2374 974.336 25.2382 974.336 25.2391C974.336 25.24 974.336 25.2409 974.336 25.2418C974.336 25.2427 974.336 25.2435 974.336 25.2444C974.336 25.2453 974.336 25.2462 974.336 25.247C974.336 25.2479 974.336 25.2488 974.336 25.2497C974.336 25.2506 974.336 25.2514 974.336 25.2523C974.336 25.2532 974.336 25.2541 974.336 25.2549C974.336 25.2558 974.336 25.2567 974.336 25.2576C974.336 25.2584 974.336 25.2593 974.336 25.2602C974.336 25.2611 974.336 25.2619 974.336 25.2628C974.336 25.2637 974.336 25.2645 974.336 25.2654C974.336 25.2663 974.336 25.2672 974.336 25.268C974.336 25.2689 974.336 25.2698 974.336 25.2706C974.336 25.2715 974.336 25.2724 974.336 25.2732C974.336 25.2741 974.336 25.275 974.336 25.2758C974.336 25.2767 974.336 25.2776 974.336 25.2784C974.336 25.2793 974.336 25.2802 974.336 25.281C974.336 25.2819 974.336 25.2828 974.336 25.2836C974.336 25.2845 974.336 25.2854 974.336 25.2862C974.336 25.2871 974.336 25.2879 974.336 25.2888C974.336 25.2897 974.336 25.2905 974.336 25.2914C974.336 25.2922 974.336 25.2931 974.336 25.294C974.336 25.2948 974.336 25.2957 974.336 25.2965C974.336 25.2974 974.336 25.2983 974.336 25.2991C974.336 25.3 974.336 25.3008 974.336 25.3017C974.336 25.3025 974.336 25.3034 974.336 25.3043C974.336 25.3051 974.336 25.306 974.336 25.3068C974.336 25.3077 974.336 25.3085 974.336 25.3094C974.336 25.3102 974.336 25.3111 974.336 25.3119C974.336 25.3128 974.336 25.3137 974.336 25.3145C974.336 25.3154 974.336 25.3162 974.336 25.3171C974.336 25.3179 974.336 25.3188 974.336 25.3196C974.336 25.3205 974.336 25.3213 974.336 25.3222C974.336 25.323 974.336 25.3239 974.336 25.3247C974.336 25.3255 974.336 25.3264 974.336 25.3272C974.336 25.3281 974.336 25.3289 974.336 25.3298C974.336 25.3306 974.336 25.3315 974.336 25.3323C974.336 25.3332 974.336 25.334 974.336 25.3348C974.336 25.3357 974.336 25.3365 974.336 25.3374C974.336 25.3382 974.336 25.3391 974.336 25.3399C974.336 25.3407 974.336 25.3416 974.336 25.3424C974.336 25.3433 974.336 25.3441 974.336 25.3449C974.336 25.3458 974.336 25.3466 974.336 25.3475C974.336 25.3483 974.336 25.3491 974.336 25.35C974.336 25.3508 974.336 25.3516 974.336 25.3525C974.336 25.3533 974.336 25.3542 974.336 25.355C974.336 25.3558 974.336 25.3567 974.336 25.3575C974.336 25.3583 974.336 25.3592 974.336 25.36H976.336ZM976.335 23.7184C976.362 23.0256 976.388 22.3461 976.415 21.68L974.417 21.6C974.39 22.2672 974.363 22.9477 974.337 23.6416L976.335 23.7184ZM976.415 21.6784C976.442 20.988 976.468 20.4836 976.493 20.1567L974.499 20.0033C974.471 20.3698 974.443 20.9054 974.417 21.6016L976.415 21.6784ZM974.652 19.5432L963.252 37.4632L964.94 38.5368L976.34 20.6168L974.652 19.5432ZM964.096 37H959.736V39H964.096V37ZM960.736 38V16.56H958.736V38H960.736ZM959.736 17.56H963.056V15.56H959.736V17.56ZM962.056 16.56V29.64H964.056V16.56H962.056Z" fill="black"/>
<line y1="-1.5" x2="158.301" y2="-1.5" transform="matrix(-0.999985 -0.00541203 -0.00821176 0.999966 951 52.2727)" stroke="black" stroke-width="3"/>
<line y1="-1.5" x2="12.3" y2="-1.5" transform="matrix(0 1 1 0 795.603 49)" stroke="black" stroke-width="3"/>
<line y1="-1.5" x2="12.3" y2="-1.5" transform="matrix(0 1 1 0 780.763 59)" stroke="black" stroke-width="3"/>
<line y1="-1.5" x2="15.865" y2="-1.5" transform="matrix(-1 0 0 1 795.109 62)" stroke="black" stroke-width="3"/>
<path d="M780.763 71H764.898" stroke="black" stroke-width="3"/>
<path d="M8.066 347.5C9.64899 313.833 37.9318 245.4 138.399 241C238.866 236.6 551.383 220.5 695.083 213C754.358 213 872.167 180.7 869.212 51.5" stroke="black" stroke-width="3"/>
<path d="M8.70711 349.707C8.31658 350.098 7.68342 350.098 7.29289 349.707L0.928932 343.343C0.538408 342.953 0.538408 342.319 0.928932 341.929C1.31946 341.538 1.95262 341.538 2.34315 341.929L8 347.586L13.6569 341.929C14.0474 341.538 14.6805 341.538 15.0711 341.929C15.4616 342.319 15.4616 342.953 15.0711 343.343L8.70711 349.707ZM9 343V349H7V343H9Z" fill="black"/>
</svg>
