<svg width="958" height="355" viewBox="0 0 958 355" fill="none" xmlns="http://www.w3.org/2000/svg">
<path d="M796.6 29.8C796.6 30.92 796.4 31.9733 796 32.96C795.627 33.9467 795.093 34.8133 794.4 35.56C793.733 36.28 792.933 36.8667 792 37.32C791.067 37.7467 790.067 37.96 789 37.96C787.96 37.96 786.947 37.8267 785.96 37.56C784.973 37.2933 784.093 37 783.32 36.68C782.413 36.3067 781.547 35.8667 780.72 35.36L781.52 33.16C782.427 33.64 783.32 34.0533 784.2 34.4C784.973 34.6933 785.787 34.9733 786.64 35.24C787.493 35.48 788.267 35.6 788.96 35.6C789.707 35.6 790.4 35.4533 791.04 35.16C791.707 34.8667 792.28 34.4667 792.76 33.96C793.24 33.4267 793.613 32.8133 793.88 32.12C794.147 31.4267 794.28 30.68 794.28 29.88C794.28 29.0533 794.093 28.3733 793.72 27.84C793.347 27.28 792.867 26.8267 792.28 26.48C791.72 26.1067 791.093 25.8267 790.4 25.64C789.707 25.4267 789.027 25.2667 788.36 25.16C787.373 25 786.44 24.72 785.56 24.32C784.707 23.92 783.947 23.4 783.28 22.76C782.64 22.12 782.133 21.3733 781.76 20.52C781.387 19.6667 781.2 18.7067 781.2 17.64C781.2 16.5467 781.387 15.52 781.76 14.56C782.16 13.5733 782.693 12.72 783.36 12C784.053 11.2533 784.853 10.6667 785.76 10.24C786.667 9.81333 787.627 9.6 788.64 9.6C789.28 9.6 789.933 9.68 790.6 9.84C791.293 9.97333 791.933 10.12 792.52 10.28C793.187 10.4933 793.84 10.72 794.48 10.96L793.72 13.2C793.133 12.96 792.533 12.7467 791.92 12.56C791.387 12.4 790.827 12.2533 790.24 12.12C789.653 11.9867 789.093 11.92 788.56 11.92C787.84 11.92 787.16 12.08 786.52 12.4C785.907 12.6933 785.373 13.1067 784.92 13.64C784.467 14.1467 784.107 14.7467 783.84 15.44C783.573 16.1067 783.44 16.8 783.44 17.52C783.44 18.3467 783.6 19.08 783.92 19.72C784.267 20.3333 784.693 20.8533 785.2 21.28C785.733 21.7067 786.32 22.0533 786.96 22.32C787.6 22.56 788.213 22.7333 788.8 22.84C789.893 23.0267 790.907 23.2933 791.84 23.64C792.8 23.9867 793.627 24.44 794.32 25C795.04 25.5333 795.6 26.2 796 27C796.4 27.8 796.6 28.7333 796.6 29.8ZM806.672 28.36H806.752C807.232 28.36 807.672 28.2667 808.072 28.08C808.472 27.8667 808.819 27.6 809.112 27.28C809.405 26.9333 809.632 26.5467 809.792 26.12C809.979 25.6933 810.072 25.24 810.072 24.76V23.08C810.072 22.44 809.952 21.9067 809.712 21.48C809.472 21.0267 809.152 20.6667 808.752 20.4C808.379 20.1333 807.925 19.9467 807.392 19.84C806.885 19.7067 806.352 19.64 805.792 19.64C805.285 19.64 804.792 19.72 804.312 19.88C803.859 20.04 803.459 20.2667 803.112 20.56C802.765 20.8533 802.485 21.2133 802.272 21.64C802.059 22.0667 801.952 22.5467 801.952 23.08V28.32L806.672 28.36ZM799.872 23.28C799.872 22.48 800.005 21.7333 800.272 21.04C800.565 20.3467 800.952 19.7467 801.432 19.24C801.939 18.7333 802.512 18.3333 803.152 18.04C803.819 17.7467 804.539 17.6 805.312 17.6H806.672C807.419 17.6 808.125 17.7467 808.792 18.04C809.459 18.3333 810.045 18.7333 810.552 19.24C811.059 19.7467 811.445 20.3467 811.712 21.04C812.005 21.7333 812.152 22.48 812.152 23.28V24.6C812.152 25.72 811.952 26.6667 811.552 27.44C811.152 28.1867 810.605 28.8 809.912 29.28C809.219 29.76 808.405 30.1067 807.472 30.32C806.565 30.5067 805.592 30.6 804.552 30.6C804.125 30.6 803.699 30.5867 803.272 30.56C802.845 30.5333 802.405 30.4933 801.952 30.44V32.84C802.139 33.9067 802.632 34.76 803.432 35.4C804.259 36.0133 805.192 36.32 806.232 36.32C806.339 36.32 806.672 36.2667 807.232 36.16C807.819 36.0267 808.432 35.8933 809.072 35.76C809.819 35.6 810.645 35.4133 811.552 35.2L812.032 37.32C811.045 37.5333 810.152 37.7067 809.352 37.84C808.659 37.9733 807.992 38.0933 807.352 38.2C806.739 38.3067 806.365 38.36 806.232 38.36C805.379 38.36 804.565 38.2133 803.792 37.92C803.019 37.6 802.339 37.16 801.752 36.6C801.165 36.04 800.699 35.3867 800.352 34.64C800.032 33.8667 799.872 33.0267 799.872 32.12V23.28ZM818.161 32.08C818.161 32.72 818.268 33.3067 818.481 33.84C818.721 34.3467 819.041 34.7867 819.441 35.16C819.841 35.5333 820.294 35.8267 820.801 36.04C821.334 36.2267 821.894 36.32 822.481 36.32C822.748 36.32 823.081 36.2933 823.481 36.24C823.881 36.16 824.268 36.08 824.641 36C825.094 35.8933 825.561 35.7733 826.041 35.64L826.681 37.48C826.148 37.6667 825.641 37.8133 825.161 37.92C824.734 38.0267 824.268 38.12 823.761 38.2C823.281 38.28 822.854 38.32 822.481 38.32C821.601 38.32 820.774 38.1733 820.001 37.88C819.254 37.56 818.588 37.12 818.001 36.56C817.441 36 816.988 35.3467 816.641 34.6C816.321 33.8267 816.161 32.9867 816.161 32.08V23.72C816.161 22.8133 816.321 21.9867 816.641 21.24C816.988 20.4667 817.441 19.8133 818.001 19.28C818.561 18.7467 819.214 18.3333 819.961 18.04C820.734 17.72 821.561 17.56 822.441 17.56C822.868 17.56 823.308 17.6133 823.761 17.72C824.241 17.8267 824.681 17.9467 825.081 18.08C825.561 18.2133 826.028 18.3733 826.481 18.56L826.001 20.28C825.601 20.1467 825.188 20.0267 824.761 19.92C824.388 19.8133 824.001 19.72 823.601 19.64C823.201 19.56 822.814 19.52 822.441 19.52C821.268 19.52 820.254 19.9067 819.401 20.68C818.574 21.4267 818.161 22.44 818.161 23.72V32.08ZM840.078 32.24V23.56C840.078 22.68 839.918 21.9867 839.598 21.48C839.278 20.9467 838.891 20.5467 838.438 20.28C838.011 19.9867 837.544 19.8 837.038 19.72C836.558 19.6133 836.144 19.56 835.798 19.56C835.451 19.56 835.024 19.6133 834.518 19.72C834.038 19.8 833.571 19.9867 833.118 20.28C832.664 20.5467 832.278 20.9467 831.958 21.48C831.638 21.9867 831.478 22.68 831.478 23.56V32.24C831.478 33.12 831.638 33.8267 831.958 34.36C832.278 34.8667 832.664 35.2667 833.118 35.56C833.571 35.8533 834.038 36.0533 834.518 36.16C835.024 36.24 835.451 36.28 835.798 36.28C836.144 36.28 836.558 36.24 837.038 36.16C837.544 36.0533 838.011 35.8533 838.438 35.56C838.891 35.2667 839.278 34.8667 839.598 34.36C839.918 33.8267 840.078 33.12 840.078 32.24ZM841.918 32.52C841.918 33.7467 841.691 34.7333 841.238 35.48C840.784 36.2267 840.238 36.8133 839.598 37.24C838.958 37.64 838.291 37.9067 837.598 38.04C836.904 38.1733 836.304 38.24 835.798 38.24C835.291 38.24 834.691 38.1733 833.998 38.04C833.304 37.9067 832.638 37.64 831.998 37.24C831.358 36.8133 830.811 36.2267 830.358 35.48C829.904 34.7333 829.678 33.7467 829.678 32.52V23.28C829.678 22.0533 829.904 21.0667 830.358 20.32C830.811 19.5733 831.358 19 831.998 18.6C832.638 18.2 833.304 17.9333 833.998 17.8C834.691 17.6667 835.291 17.6 835.798 17.6C836.304 17.6 836.904 17.6667 837.598 17.8C838.291 17.9333 838.958 18.2 839.598 18.6C840.238 19 840.784 19.5733 841.238 20.32C841.691 21.0667 841.918 22.0533 841.918 23.28V32.52ZM858.396 20.92C858.716 21.5867 858.903 22.2667 858.956 22.96C859.01 23.6267 859.036 24.32 859.036 25.04V38H856.916V23.8C856.916 22.44 856.556 21.4 855.836 20.68C855.116 19.96 854.303 19.6 853.396 19.6C852.89 19.6 852.236 19.68 851.436 19.84C850.663 20 849.783 20.4 848.796 21.04V38H846.756V19.96L845.876 19.12L847.316 17.68L848.516 18.88C849.983 18.0533 851.37 17.64 852.676 17.64C853.876 17.64 854.996 17.8933 856.036 18.4C857.076 18.88 857.863 19.72 858.396 20.92ZM873.542 34.88V21.08C872.609 20.4667 871.729 20.08 870.902 19.92C870.075 19.76 869.435 19.68 868.982 19.68C868.049 19.68 867.262 20.0267 866.622 20.72C865.982 21.3867 865.662 22.2 865.662 23.16V32.88C865.662 33.36 865.742 33.8133 865.902 34.24C866.089 34.64 866.329 35 866.622 35.32C866.915 35.6133 867.262 35.8533 867.662 36.04C868.062 36.2267 868.489 36.32 868.942 36.32C869.182 36.32 869.542 36.2933 870.022 36.24C870.502 36.16 870.982 36.0667 871.462 35.96C871.969 35.8267 872.422 35.68 872.822 35.52C873.222 35.3333 873.462 35.12 873.542 34.88ZM873.582 18.76V10.04H875.582V36.08L876.462 36.96L875.022 38.36L873.822 37.16C872.969 37.64 872.089 37.96 871.182 38.12C870.275 38.28 869.542 38.36 868.982 38.36C868.235 38.36 867.542 38.2133 866.902 37.92C866.262 37.6267 865.702 37.2267 865.222 36.72C864.742 36.2133 864.355 35.6133 864.062 34.92C863.795 34.2267 863.662 33.4933 863.662 32.72V23.28C863.662 22.5067 863.795 21.7867 864.062 21.12C864.355 20.4267 864.742 19.8267 865.222 19.32C865.702 18.7867 866.262 18.3733 866.902 18.08C867.542 17.7867 868.235 17.64 868.982 17.64C869.435 17.64 870.049 17.6933 870.822 17.8C871.595 17.88 872.515 18.2 873.582 18.76ZM912.577 29.8C912.577 30.92 912.377 31.9733 911.977 32.96C911.603 33.9467 911.07 34.8133 910.377 35.56C909.71 36.28 908.91 36.8667 907.977 37.32C907.043 37.7467 906.043 37.96 904.977 37.96C903.937 37.96 902.923 37.8267 901.937 37.56C900.95 37.2933 900.07 37 899.297 36.68C898.39 36.3067 897.523 35.8667 896.697 35.36L897.497 33.16C898.403 33.64 899.297 34.0533 900.177 34.4C900.95 34.6933 901.763 34.9733 902.617 35.24C903.47 35.48 904.243 35.6 904.937 35.6C905.683 35.6 906.377 35.4533 907.017 35.16C907.683 34.8667 908.257 34.4667 908.737 33.96C909.217 33.4267 909.59 32.8133 909.857 32.12C910.123 31.4267 910.257 30.68 910.257 29.88C910.257 29.0533 910.07 28.3733 909.697 27.84C909.323 27.28 908.843 26.8267 908.257 26.48C907.697 26.1067 907.07 25.8267 906.377 25.64C905.683 25.4267 905.003 25.2667 904.337 25.16C903.35 25 902.417 24.72 901.537 24.32C900.683 23.92 899.923 23.4 899.257 22.76C898.617 22.12 898.11 21.3733 897.737 20.52C897.363 19.6667 897.177 18.7067 897.177 17.64C897.177 16.5467 897.363 15.52 897.737 14.56C898.137 13.5733 898.67 12.72 899.337 12C900.03 11.2533 900.83 10.6667 901.737 10.24C902.643 9.81333 903.603 9.6 904.617 9.6C905.257 9.6 905.91 9.68 906.577 9.84C907.27 9.97333 907.91 10.12 908.497 10.28C909.163 10.4933 909.817 10.72 910.457 10.96L909.697 13.2C909.11 12.96 908.51 12.7467 907.897 12.56C907.363 12.4 906.803 12.2533 906.217 12.12C905.63 11.9867 905.07 11.92 904.537 11.92C903.817 11.92 903.137 12.08 902.497 12.4C901.883 12.6933 901.35 13.1067 900.897 13.64C900.443 14.1467 900.083 14.7467 899.817 15.44C899.55 16.1067 899.417 16.8 899.417 17.52C899.417 18.3467 899.577 19.08 899.897 19.72C900.243 20.3333 900.67 20.8533 901.177 21.28C901.71 21.7067 902.297 22.0533 902.937 22.32C903.577 22.56 904.19 22.7333 904.777 22.84C905.87 23.0267 906.883 23.2933 907.817 23.64C908.777 23.9867 909.603 24.44 910.297 25C911.017 25.5333 911.577 26.2 911.977 27C912.377 27.8 912.577 28.7333 912.577 29.8ZM917.379 32.8V19.96H913.979V17.96H917.379V10H919.499V17.96H923.179V19.96H919.499V33C919.499 34.0933 919.765 34.8533 920.299 35.28C920.859 35.68 921.525 35.88 922.299 35.88H923.179V38.04H922.099C921.432 38.04 920.805 37.9467 920.219 37.76C919.659 37.5467 919.165 37.24 918.739 36.84C918.312 36.4133 917.979 35.8667 917.739 35.2C917.499 34.5333 917.379 33.7333 917.379 32.8ZM932.883 28.36H932.963C933.443 28.36 933.883 28.2667 934.283 28.08C934.683 27.8667 935.029 27.6 935.323 27.28C935.616 26.9333 935.843 26.5467 936.003 26.12C936.189 25.6933 936.283 25.24 936.283 24.76V23.08C936.283 22.44 936.163 21.9067 935.923 21.48C935.683 21.0267 935.363 20.6667 934.963 20.4C934.589 20.1333 934.136 19.9467 933.603 19.84C933.096 19.7067 932.563 19.64 932.003 19.64C931.496 19.64 931.003 19.72 930.523 19.88C930.069 20.04 929.669 20.2667 929.323 20.56C928.976 20.8533 928.696 21.2133 928.483 21.64C928.269 22.0667 928.163 22.5467 928.163 23.08V28.32L932.883 28.36ZM926.083 23.28C926.083 22.48 926.216 21.7333 926.483 21.04C926.776 20.3467 927.163 19.7467 927.643 19.24C928.149 18.7333 928.723 18.3333 929.363 18.04C930.029 17.7467 930.749 17.6 931.523 17.6H932.883C933.629 17.6 934.336 17.7467 935.003 18.04C935.669 18.3333 936.256 18.7333 936.763 19.24C937.269 19.7467 937.656 20.3467 937.923 21.04C938.216 21.7333 938.363 22.48 938.363 23.28V24.6C938.363 25.72 938.163 26.6667 937.763 27.44C937.363 28.1867 936.816 28.8 936.123 29.28C935.429 29.76 934.616 30.1067 933.683 30.32C932.776 30.5067 931.803 30.6 930.763 30.6C930.336 30.6 929.909 30.5867 929.483 30.56C929.056 30.5333 928.616 30.4933 928.163 30.44V32.84C928.349 33.9067 928.843 34.76 929.643 35.4C930.469 36.0133 931.403 36.32 932.443 36.32C932.549 36.32 932.883 36.2667 933.443 36.16C934.029 36.0267 934.643 35.8933 935.283 35.76C936.029 35.6 936.856 35.4133 937.763 35.2L938.243 37.32C937.256 37.5333 936.363 37.7067 935.563 37.84C934.869 37.9733 934.203 38.0933 933.563 38.2C932.949 38.3067 932.576 38.36 932.443 38.36C931.589 38.36 930.776 38.2133 930.003 37.92C929.229 37.6 928.549 37.16 927.963 36.6C927.376 36.04 926.909 35.3867 926.563 34.64C926.243 33.8667 926.083 33.0267 926.083 32.12V23.28ZM944.812 34.96C945.132 35.1733 945.505 35.36 945.932 35.52C946.359 35.68 946.785 35.8267 947.212 35.96C947.639 36.0933 948.039 36.2 948.412 36.28C948.812 36.3333 949.132 36.36 949.372 36.36C950.305 36.36 951.092 36.0267 951.732 35.36C952.372 34.6667 952.692 33.84 952.692 32.88V23.08C952.692 22.6 952.599 22.16 952.412 21.76C952.252 21.3333 952.025 20.9733 951.732 20.68C951.439 20.36 951.092 20.1067 950.692 19.92C950.292 19.7333 949.865 19.64 949.412 19.64C949.172 19.64 948.865 19.6667 948.492 19.72C948.119 19.7467 947.719 19.8267 947.292 19.96C946.892 20.0667 946.479 20.2133 946.052 20.4C945.625 20.5867 945.212 20.8133 944.812 21.08V34.96ZM944.772 37.28V48H942.772V19.88L941.892 19.04L943.292 17.6L944.532 18.8C945.439 18.3467 946.319 18.04 947.172 17.88C948.025 17.6933 948.759 17.6 949.372 17.6C950.119 17.6 950.812 17.7467 951.452 18.04C952.092 18.3333 952.652 18.7333 953.132 19.24C953.612 19.7467 953.985 20.3467 954.252 21.04C954.545 21.7333 954.692 22.4667 954.692 23.24V32.76C954.692 33.5333 954.545 34.2667 954.252 34.96C953.985 35.6267 953.612 36.2267 953.132 36.76C952.652 37.2667 952.092 37.6667 951.452 37.96C950.812 38.2533 950.119 38.4 949.372 38.4C948.919 38.4 948.305 38.3467 947.532 38.24C946.759 38.16 945.839 37.84 944.772 37.28Z" fill="black"/>
<path d="M796 32.96L795.073 32.5843L795.069 32.5952L795.065 32.6061L796 32.96ZM794.4 35.56L793.667 34.8795L793.666 34.8806L794.4 35.56ZM792 37.32L792.416 38.2295L792.426 38.2246L792.437 38.2195L792 37.32ZM785.96 37.56L786.221 36.5946L785.96 37.56ZM783.32 36.68L783.702 35.756L783.701 35.7553L783.32 36.68ZM780.72 35.36L779.78 35.0183L779.501 35.7858L780.197 36.2126L780.72 35.36ZM781.52 33.16L781.988 32.2762L780.973 31.7388L780.58 32.8183L781.52 33.16ZM784.2 34.4L783.833 35.3305L783.845 35.335L784.2 34.4ZM786.64 35.24L786.342 36.1945L786.355 36.1988L786.369 36.2027L786.64 35.24ZM791.04 35.16L790.637 34.2447L790.63 34.2478L790.623 34.2509L791.04 35.16ZM792.76 33.96L793.486 34.6477L793.495 34.6385L793.503 34.629L792.76 33.96ZM793.88 32.12L792.947 31.761L792.947 31.761L793.88 32.12ZM793.72 27.84L792.888 28.3947L792.894 28.4042L792.901 28.4135L793.72 27.84ZM792.28 26.48L791.725 27.312L791.748 27.3271L791.771 27.3409L792.28 26.48ZM790.4 25.64L790.106 26.5958L790.123 26.601L790.14 26.6056L790.4 25.64ZM788.36 25.16L788.2 26.1471L788.202 26.1474L788.36 25.16ZM785.56 24.32L785.136 25.2255L785.146 25.2304L785.56 24.32ZM783.28 22.76L782.573 23.4671L782.58 23.4743L782.587 23.4814L783.28 22.76ZM781.76 20.52L780.844 20.9208L780.844 20.9208L781.76 20.52ZM781.76 14.56L780.833 14.1843L780.831 14.1909L780.828 14.1976L781.76 14.56ZM783.36 12L782.627 11.3195L782.626 11.3206L783.36 12ZM785.76 10.24L786.186 11.1448L786.186 11.1448L785.76 10.24ZM790.6 9.84L790.367 10.8124L790.389 10.8177L790.411 10.822L790.6 9.84ZM792.52 10.28L792.825 9.32757L792.804 9.32095L792.783 9.31524L792.52 10.28ZM794.48 10.96L795.427 11.2813L795.738 10.3638L794.831 10.0237L794.48 10.96ZM793.72 13.2L793.341 14.1255L794.325 14.5281L794.667 13.5213L793.72 13.2ZM791.92 12.56L792.211 11.6033L792.207 11.6022L791.92 12.56ZM790.24 12.12L790.462 11.1449L790.462 11.1449L790.24 12.12ZM786.52 12.4L786.951 13.3021L786.959 13.2983L786.967 13.2944L786.52 12.4ZM784.92 13.64L785.665 14.3068L785.674 14.2973L785.682 14.2876L784.92 13.64ZM783.84 15.44L784.769 15.8114L784.773 15.799L783.84 15.44ZM783.92 19.72L783.026 20.1672L783.037 20.1899L783.049 20.2121L783.92 19.72ZM785.2 21.28L784.556 22.0449L784.565 22.053L784.575 22.0609L785.2 21.28ZM786.96 22.32L786.575 23.2431L786.592 23.25L786.609 23.2563L786.96 22.32ZM788.8 22.84L788.621 23.8239L788.632 23.8257L788.8 22.84ZM791.84 23.64L791.492 24.5775L791.5 24.5806L791.84 23.64ZM794.32 25L793.692 25.7779L793.708 25.7911L793.725 25.8036L794.32 25ZM796 27L795.106 27.4472L795.106 27.4472L796 27ZM795.6 29.8C795.6 30.798 795.422 31.7231 795.073 32.5843L796.927 33.3357C797.378 32.2236 797.6 31.042 797.6 29.8H795.6ZM795.065 32.6061C794.735 33.4762 794.269 34.231 793.667 34.8795L795.133 36.2405C795.917 35.3957 796.518 34.4171 796.935 33.3139L795.065 32.6061ZM793.666 34.8806C793.089 35.5043 792.391 36.0183 791.563 36.4205L792.437 38.2195C793.476 37.715 794.378 37.0557 795.134 36.2394L793.666 34.8806ZM791.584 36.4105C790.787 36.7752 789.929 36.96 789 36.96V38.96C790.204 38.96 791.347 38.7182 792.416 38.2295L791.584 36.4105ZM789 36.96C788.047 36.96 787.121 36.8379 786.221 36.5946L785.699 38.5254C786.772 38.8154 787.873 38.96 789 38.96V36.96ZM786.221 36.5946C785.267 36.3368 784.429 36.0565 783.702 35.756L782.938 37.604C783.758 37.9435 784.68 38.2499 785.699 38.5254L786.221 36.5946ZM783.701 35.7553C782.843 35.402 782.023 34.986 781.243 34.5074L780.197 36.2126C781.07 36.7473 781.984 37.2114 782.939 37.6047L783.701 35.7553ZM781.66 35.7017L782.46 33.5017L780.58 32.8183L779.78 35.0183L781.66 35.7017ZM781.052 34.0438C781.989 34.5398 782.916 34.969 783.833 35.3304L784.567 33.4696C783.724 33.1377 782.864 32.7402 781.988 32.2762L781.052 34.0438ZM783.845 35.335C784.639 35.6359 785.471 35.9224 786.342 36.1945L786.938 34.2855C786.102 34.0243 785.308 33.7507 784.555 33.465L783.845 35.335ZM786.369 36.2027C787.288 36.4609 788.154 36.6 788.96 36.6V34.6C788.38 34.6 787.699 34.4991 786.911 34.2773L786.369 36.2027ZM788.96 36.6C789.842 36.6 790.678 36.4259 791.457 36.0691L790.623 34.2509C790.122 34.4808 789.572 34.6 788.96 34.6V36.6ZM791.443 36.0753C792.226 35.7308 792.91 35.2552 793.486 34.6477L792.034 33.2723C791.65 33.6781 791.188 34.0026 790.637 34.2447L791.443 36.0753ZM793.503 34.629C794.068 34.0016 794.504 33.2823 794.813 32.479L792.947 31.761C792.722 32.3444 792.412 32.8518 792.017 33.291L793.503 34.629ZM794.813 32.479C795.127 31.6625 795.28 30.7932 795.28 29.88H793.28C793.28 30.5668 793.166 31.1908 792.947 31.761L794.813 32.479ZM795.28 29.88C795.28 28.9036 795.058 28.0083 794.539 27.2665L792.901 28.4135C793.128 28.7384 793.28 29.203 793.28 29.88H795.28ZM794.552 27.2853C794.094 26.5986 793.503 26.0412 792.789 25.6191L791.771 27.3409C792.23 27.6121 792.599 27.9614 792.888 28.3947L794.552 27.2853ZM792.835 25.6479C792.178 25.2105 791.451 24.8874 790.66 24.6744L790.14 26.6056C790.736 26.7659 791.262 27.0029 791.725 27.312L792.835 25.6479ZM790.694 24.6842C789.959 24.4582 789.234 24.2871 788.518 24.1726L788.202 26.1474C788.819 26.2462 789.454 26.3952 790.106 26.5958L790.694 24.6842ZM788.52 24.1729C787.618 24.0266 786.77 23.7717 785.974 23.4096L785.146 25.2304C786.11 25.6683 787.129 25.9734 788.2 26.1471L788.52 24.1729ZM785.984 23.4145C785.228 23.0599 784.559 22.6015 783.973 22.0386L782.587 23.4814C783.334 24.1985 784.185 24.7801 785.136 25.2255L785.984 23.4145ZM783.987 22.0529C783.438 21.5036 783.001 20.8617 782.676 20.1192L780.844 20.9208C781.266 21.885 781.842 22.7364 782.573 23.4671L783.987 22.0529ZM782.676 20.1192C782.366 19.4093 782.2 18.5886 782.2 17.64H780.2C780.2 18.8247 780.408 19.924 780.844 20.9208L782.676 20.1192ZM782.2 17.64C782.2 16.663 782.366 15.7599 782.692 14.9224L780.828 14.1976C780.407 15.2801 780.2 16.4304 780.2 17.64H782.2ZM782.687 14.9357C783.045 14.0515 783.516 13.3034 784.094 12.6794L782.626 11.3206C781.871 12.1366 781.275 13.0951 780.833 14.1843L782.687 14.9357ZM784.093 12.6804C784.701 12.0259 785.397 11.5161 786.186 11.1448L785.334 9.33518C784.31 9.81724 783.406 10.4808 782.627 11.3195L784.093 12.6804ZM786.186 11.1448C786.958 10.7816 787.772 10.6 788.64 10.6V8.6C787.481 8.6 786.376 8.84511 785.334 9.33518L786.186 11.1448ZM788.64 10.6C789.196 10.6 789.771 10.6694 790.367 10.8124L790.833 8.86761C790.096 8.69056 789.364 8.6 788.64 8.6V10.6ZM790.411 10.822C791.083 10.9513 791.698 11.0924 792.257 11.2448L792.783 9.31524C792.168 9.14758 791.503 8.99538 790.789 8.85799L790.411 10.822ZM792.215 11.2324C792.867 11.4409 793.505 11.6622 794.129 11.8963L794.831 10.0237C794.175 9.77779 793.507 9.54577 792.825 9.32757L792.215 11.2324ZM793.533 10.6387L792.773 12.8787L794.667 13.5213L795.427 11.2813L793.533 10.6387ZM794.099 12.2745C793.483 12.0226 792.854 11.7989 792.211 11.6033L791.629 13.5167C792.213 13.6944 792.784 13.8974 793.341 14.1255L794.099 12.2745ZM792.207 11.6022C791.651 11.4352 791.069 11.2828 790.462 11.1449L790.018 13.0951C790.585 13.2238 791.123 13.3648 791.633 13.5178L792.207 11.6022ZM790.462 11.1449C789.811 10.9971 789.177 10.92 788.56 10.92V12.92C789.01 12.92 789.495 12.9763 790.018 13.0951L790.462 11.1449ZM788.56 10.92C787.686 10.92 786.853 11.1157 786.073 11.5056L786.967 13.2944C787.467 13.0443 787.994 12.92 788.56 12.92V10.92ZM786.089 11.4979C785.345 11.8537 784.7 12.3552 784.158 12.9924L785.682 14.2876C786.047 13.8582 786.469 13.533 786.951 13.3021L786.089 11.4979ZM784.175 12.9732C783.633 13.5782 783.213 14.285 782.907 15.081L784.773 15.799C785.001 15.2083 785.3 14.7151 785.665 14.3068L784.175 12.9732ZM782.912 15.0686C782.597 15.8537 782.44 16.6731 782.44 17.52H784.44C784.44 16.9269 784.549 16.3596 784.768 15.8114L782.912 15.0686ZM782.44 17.52C782.44 18.4778 782.626 19.3683 783.026 20.1672L784.814 19.2728C784.574 18.7917 784.44 18.2156 784.44 17.52H782.44ZM783.049 20.2121C783.451 20.9225 783.952 21.5367 784.556 22.0449L785.844 20.5151C785.434 20.1699 785.082 19.7442 784.791 19.2279L783.049 20.2121ZM784.575 22.0609C785.183 22.5468 785.85 22.941 786.575 23.2431L787.345 21.3969C786.79 21.1657 786.284 20.8665 785.825 20.4991L784.575 22.0609ZM786.609 23.2563C787.297 23.5143 787.968 23.7051 788.621 23.8239L788.979 21.8561C788.459 21.7616 787.903 21.6057 787.311 21.3837L786.609 23.2563ZM788.632 23.8257C789.671 24.0031 790.623 24.2547 791.492 24.5774L792.188 22.7026C791.19 22.332 790.116 22.0502 788.968 21.8543L788.632 23.8257ZM791.5 24.5806C792.371 24.8948 793.096 25.2972 793.692 25.7779L794.948 24.2221C794.157 23.5828 793.229 23.0785 792.18 22.6994L791.5 24.5806ZM793.725 25.8036C794.319 26.2435 794.776 26.7881 795.106 27.4472L796.894 26.5528C796.424 25.6119 795.761 24.8232 794.915 24.1964L793.725 25.8036ZM795.106 27.4472C795.424 28.0841 795.6 28.8589 795.6 29.8H797.6C797.6 28.6077 797.376 27.5159 796.894 26.5528L795.106 27.4472ZM806.672 28.36L806.663 29.36H806.672V28.36ZM808.072 28.08L808.495 28.9862L808.519 28.9749L808.542 28.9624L808.072 28.08ZM809.112 27.28L809.849 27.9557L809.862 27.9411L809.875 27.9259L809.112 27.28ZM809.792 26.12L808.876 25.7192L808.865 25.7438L808.856 25.7689L809.792 26.12ZM809.712 21.48L808.828 21.9479L808.834 21.9592L808.84 21.9703L809.712 21.48ZM808.752 20.4L808.171 21.2137L808.184 21.2231L808.197 21.232L808.752 20.4ZM807.392 19.84L807.137 20.8071L807.166 20.8147L807.196 20.8206L807.392 19.84ZM804.312 19.88L803.996 18.9313L803.987 18.9341L803.979 18.937L804.312 19.88ZM803.112 20.56L803.758 21.3234L803.758 21.3234L803.112 20.56ZM802.272 21.64L801.377 21.1928L801.377 21.1928L802.272 21.64ZM801.952 28.32H800.952V29.3116L801.943 29.32L801.952 28.32ZM800.272 21.04L799.351 20.6504L799.344 20.6656L799.339 20.681L800.272 21.04ZM801.432 19.24L800.725 18.5329L800.715 18.5424L800.706 18.5523L801.432 19.24ZM803.152 18.04L802.749 17.1247L802.742 17.1278L802.735 17.1309L803.152 18.04ZM808.792 18.04L808.389 18.9553L808.389 18.9553L808.792 18.04ZM811.712 21.04L810.779 21.399L810.784 21.4144L810.791 21.4296L811.712 21.04ZM811.552 27.44L812.433 27.9122L812.437 27.9058L812.44 27.8994L811.552 27.44ZM809.912 29.28L810.481 30.1022L810.481 30.1022L809.912 29.28ZM807.472 30.32L807.674 31.2995L807.684 31.2973L807.695 31.2949L807.472 30.32ZM803.272 30.56L803.209 31.5581L803.209 31.5581L803.272 30.56ZM801.952 30.44L802.069 29.4468L800.952 29.3155V30.44H801.952ZM801.952 32.84H800.952V32.9268L800.967 33.0124L801.952 32.84ZM803.432 35.4L802.807 36.1809L802.821 36.1922L802.836 36.2031L803.432 35.4ZM807.232 36.16L807.419 37.1423L807.436 37.139L807.453 37.1351L807.232 36.16ZM809.072 35.76L809.276 36.739L809.281 36.7378L809.072 35.76ZM811.552 35.2L812.527 34.9792L812.304 33.9956L811.323 34.2266L811.552 35.2ZM812.032 37.32L812.243 38.2974L813.23 38.084L813.007 37.0992L812.032 37.32ZM809.352 37.84L809.187 36.8536L809.175 36.8556L809.163 36.858L809.352 37.84ZM807.352 38.2L807.187 37.2136L807.181 37.2148L807.352 38.2ZM803.792 37.92L803.41 38.844L803.423 38.8497L803.437 38.855L803.792 37.92ZM801.752 36.6L801.061 37.3234L801.061 37.3234L801.752 36.6ZM800.352 34.64L799.428 35.0224L799.436 35.0419L799.445 35.0611L800.352 34.64ZM806.672 29.36H806.752V27.36H806.672V29.36ZM806.752 29.36C807.365 29.36 807.951 29.2399 808.495 28.9862L807.649 27.1738C807.393 27.2934 807.099 27.36 806.752 27.36V29.36ZM808.542 28.9624C809.038 28.6981 809.476 28.3629 809.849 27.9557L808.375 26.6043C808.161 26.8371 807.906 27.0352 807.601 27.1976L808.542 28.9624ZM809.875 27.9259C810.243 27.4913 810.528 27.0049 810.728 26.4711L808.856 25.7689C808.736 26.0885 808.567 26.3753 808.348 26.6341L809.875 27.9259ZM810.708 26.5208C810.952 25.9638 811.072 25.3736 811.072 24.76H809.072C809.072 25.1064 809.005 25.4228 808.876 25.7192L810.708 26.5208ZM811.072 24.76V23.08H809.072V24.76H811.072ZM811.072 23.08C811.072 22.3195 810.93 21.6052 810.583 20.9897L808.84 21.9703C808.974 22.2081 809.072 22.5605 809.072 23.08H811.072ZM810.596 21.0121C810.283 20.4221 809.854 19.9329 809.307 19.5679L808.197 21.232C808.45 21.4004 808.66 21.6313 808.828 21.9479L810.596 21.0121ZM809.333 19.5863C808.825 19.2235 808.235 18.9888 807.588 18.8594L807.196 20.8206C807.616 20.9046 807.932 21.0431 808.171 21.2137L809.333 19.5863ZM807.646 18.8729C807.051 18.7163 806.432 18.64 805.792 18.64V20.64C806.272 20.64 806.719 20.697 807.137 20.8071L807.646 18.8729ZM805.792 18.64C805.178 18.64 804.578 18.7373 803.996 18.9313L804.628 20.8287C805.006 20.7027 805.393 20.64 805.792 20.64V18.64ZM803.979 18.937C803.418 19.135 802.911 19.4204 802.466 19.7966L803.758 21.3234C804.007 21.1129 804.299 20.945 804.645 20.823L803.979 18.937ZM802.466 19.7966C802.011 20.1818 801.648 20.6512 801.377 21.1928L803.166 22.0872C803.322 21.7755 803.52 21.5249 803.758 21.3234L802.466 19.7966ZM801.377 21.1928C801.087 21.774 800.952 22.4099 800.952 23.08H802.952C802.952 22.6834 803.03 22.3594 803.166 22.0872L801.377 21.1928ZM800.952 23.08V28.32H802.952V23.08H800.952ZM801.943 29.32L806.663 29.36L806.68 27.36L801.96 27.32L801.943 29.32ZM800.872 23.28C800.872 22.5932 800.986 21.9692 801.205 21.399L799.339 20.681C799.025 21.4975 798.872 22.3668 798.872 23.28H800.872ZM801.193 21.4296C801.443 20.8378 801.766 20.3409 802.158 19.9277L800.706 18.5523C800.137 19.1524 799.687 19.8555 799.351 20.6504L801.193 21.4296ZM802.139 19.9471C802.563 19.523 803.039 19.192 803.569 18.9491L802.735 17.1309C801.985 17.4747 801.314 17.9437 800.725 18.5329L802.139 19.9471ZM803.555 18.9553C804.087 18.7212 804.668 18.6 805.312 18.6V16.6C804.409 16.6 803.55 16.7721 802.749 17.1247L803.555 18.9553ZM805.312 18.6H806.672V16.6H805.312V18.6ZM806.672 18.6C807.283 18.6 807.853 18.7193 808.389 18.9553L809.195 17.1247C808.398 16.7741 807.554 16.6 806.672 16.6V18.6ZM808.389 18.9553C808.944 19.1996 809.427 19.5296 809.845 19.9471L811.259 18.5329C810.663 17.9371 809.973 17.4671 809.195 17.1247L808.389 18.9553ZM809.845 19.9471C810.249 20.3512 810.56 20.8313 810.779 21.399L812.645 20.681C812.33 19.862 811.868 19.1422 811.259 18.5329L809.845 19.9471ZM810.791 21.4296C811.029 21.9921 811.152 22.6053 811.152 23.28H813.152C813.152 22.3546 812.982 21.4746 812.633 20.6504L810.791 21.4296ZM811.152 23.28V24.6H813.152V23.28H811.152ZM811.152 24.6C811.152 25.6045 810.972 26.3841 810.664 26.9806L812.44 27.8994C812.932 26.9493 813.152 25.8355 813.152 24.6H811.152ZM810.67 26.9678C810.345 27.5753 809.905 28.0685 809.343 28.4578L810.481 30.1022C811.305 29.5315 811.959 28.798 812.433 27.9122L810.67 26.9678ZM809.343 28.4578C808.767 28.8562 808.075 29.1564 807.249 29.3451L807.695 31.2949C808.735 31.057 809.67 30.6638 810.481 30.1022L809.343 28.4578ZM807.27 29.3405C806.437 29.512 805.532 29.6 804.552 29.6V31.6C805.651 31.6 806.693 31.5013 807.674 31.2995L807.27 29.3405ZM804.552 29.6C804.146 29.6 803.74 29.5873 803.334 29.5619L803.209 31.5581C803.657 31.586 804.104 31.6 804.552 31.6V29.6ZM803.334 29.5619C802.927 29.5365 802.505 29.4982 802.069 29.4468L801.835 31.4332C802.305 31.4885 802.763 31.5302 803.209 31.5581L803.334 29.5619ZM800.952 30.44V32.84H802.952V30.44H800.952ZM800.967 33.0124C801.193 34.3041 801.805 35.3795 802.807 36.1809L804.057 34.6191C803.458 34.1405 803.084 33.5092 802.937 32.6676L800.967 33.0124ZM802.836 36.2031C803.837 36.9457 804.98 37.32 806.232 37.32V35.32C805.404 35.32 804.68 35.0809 804.028 34.5969L802.836 36.2031ZM806.232 37.32C806.379 37.32 806.57 37.2915 806.72 37.2674C806.901 37.2385 807.135 37.1964 807.419 37.1423L807.045 35.1777C806.769 35.2302 806.556 35.2681 806.404 35.2926C806.327 35.3048 806.272 35.3127 806.234 35.3173C806.186 35.3231 806.195 35.32 806.232 35.32V37.32ZM807.453 37.1351C808.034 37.0032 808.641 36.8712 809.276 36.739L808.868 34.781C808.223 34.9155 807.603 35.0501 807.01 35.1849L807.453 37.1351ZM809.281 36.7378C810.036 36.5761 810.869 36.388 811.781 36.1734L811.323 34.2266C810.421 34.4387 809.601 34.6239 808.862 34.7822L809.281 36.7378ZM810.577 35.4208L811.057 37.5408L813.007 37.0992L812.527 34.9792L810.577 35.4208ZM811.821 36.3426C810.846 36.5533 809.969 36.7234 809.187 36.8536L809.516 38.8264C810.335 38.6899 811.245 38.5133 812.243 38.2974L811.821 36.3426ZM809.163 36.858C808.477 36.9899 807.819 37.1084 807.187 37.2136L807.516 39.1864C808.165 39.0783 808.84 38.9568 809.541 38.822L809.163 36.858ZM807.181 37.2148C806.878 37.2673 806.643 37.3054 806.47 37.3301C806.275 37.358 806.217 37.36 806.232 37.36V39.36C806.38 39.36 806.575 39.3354 806.753 39.3099C806.954 39.2812 807.212 39.2393 807.523 39.1852L807.181 37.2148ZM806.232 37.36C805.496 37.36 804.803 37.234 804.147 36.985L803.437 38.855C804.327 39.1927 805.261 39.36 806.232 39.36V37.36ZM804.174 36.996C803.511 36.7217 802.937 36.3486 802.442 35.8766L801.061 37.3234C801.74 37.9714 802.526 38.4783 803.41 38.844L804.174 36.996ZM802.442 35.8766C801.948 35.4043 801.554 34.8539 801.259 34.2189L799.445 35.0611C799.843 35.9194 800.383 36.6757 801.061 37.3234L802.442 35.8766ZM801.276 34.2576C801.01 33.6153 800.872 32.9065 800.872 32.12H798.872C798.872 33.1468 799.054 34.118 799.428 35.0224L801.276 34.2576ZM800.872 32.12V23.28H798.872V32.12H800.872ZM818.481 33.84L817.552 34.2114L817.564 34.2401L817.577 34.2681L818.481 33.84ZM820.801 36.04L820.413 36.9616L820.441 36.9736L820.471 36.9839L820.801 36.04ZM823.481 36.24L823.613 37.2312L823.645 37.2269L823.677 37.2206L823.481 36.24ZM824.641 36L824.85 36.9778L824.86 36.9757L824.87 36.9734L824.641 36ZM826.041 35.64L826.985 35.3115L826.677 34.4254L825.773 34.6765L826.041 35.64ZM826.681 37.48L827.011 38.4239L827.953 38.0941L827.625 37.1515L826.681 37.48ZM825.161 37.92L824.944 36.9438L824.931 36.9467L824.918 36.9499L825.161 37.92ZM823.761 38.2L823.605 37.2122L823.597 37.2136L823.761 38.2ZM820.001 37.88L819.607 38.7991L819.626 38.8075L819.646 38.815L820.001 37.88ZM818.001 36.56L817.294 37.2671L817.302 37.2753L817.31 37.2834L818.001 36.56ZM816.641 34.6L815.717 34.9824L815.725 35.0019L815.734 35.0211L816.641 34.6ZM816.641 21.24L815.728 20.8309L815.725 20.8385L815.722 20.8461L816.641 21.24ZM818.001 19.28L817.311 18.5559L817.311 18.5559L818.001 19.28ZM819.961 18.04L820.327 18.9708L820.335 18.9675L820.343 18.964L819.961 18.04ZM823.761 17.72L823.532 18.6935L823.544 18.6962L823.761 17.72ZM825.081 18.08L824.765 19.0287L824.789 19.0367L824.813 19.0435L825.081 18.08ZM826.481 18.56L827.444 18.8288L827.683 17.9734L826.862 17.6353L826.481 18.56ZM826.001 20.28L825.685 21.2287L826.682 21.561L826.964 20.5488L826.001 20.28ZM824.761 19.92L824.486 20.8815L824.502 20.8861L824.518 20.8901L824.761 19.92ZM823.601 19.64L823.405 20.6206L823.601 19.64ZM819.401 20.68L820.071 21.4221L820.072 21.421L819.401 20.68ZM817.161 32.08C817.161 32.8327 817.287 33.5472 817.552 34.2114L819.409 33.4686C819.248 33.0662 819.161 32.6073 819.161 32.08H817.161ZM817.577 34.2681C817.87 34.8859 818.264 35.4295 818.759 35.8911L820.123 34.4289C819.818 34.1439 819.572 33.8074 819.385 33.4119L817.577 34.2681ZM818.759 35.8911C819.245 36.3451 819.798 36.7028 820.413 36.9616L821.189 35.1184C820.79 34.9505 820.437 34.7215 820.123 34.4289L818.759 35.8911ZM820.471 36.9839C821.114 37.2091 821.786 37.32 822.481 37.32V35.32C822.002 35.32 821.554 35.2442 821.131 35.0961L820.471 36.9839ZM822.481 37.32C822.808 37.32 823.189 37.2878 823.613 37.2312L823.349 35.2488C822.973 35.2989 822.687 35.32 822.481 35.32V37.32ZM823.677 37.2206C824.081 37.1397 824.472 37.0588 824.85 36.9778L824.431 35.0222C824.063 35.1012 823.681 35.1803 823.285 35.2594L823.677 37.2206ZM824.87 36.9734C825.337 36.8635 825.817 36.7402 826.309 36.6035L825.773 34.6765C825.305 34.8065 824.851 34.9232 824.412 35.0266L824.87 36.9734ZM825.096 35.9685L825.736 37.8085L827.625 37.1515L826.985 35.3115L825.096 35.9685ZM826.351 36.5361C825.849 36.7117 825.38 36.8468 824.944 36.9438L825.378 38.8962C825.901 38.7798 826.446 38.6217 827.011 38.4239L826.351 36.5361ZM824.918 36.9499C824.525 37.0483 824.087 37.1361 823.605 37.2122L823.917 39.1878C824.448 39.1039 824.944 39.005 825.403 38.8901L824.918 36.9499ZM823.597 37.2136C823.156 37.2871 822.786 37.32 822.481 37.32V39.32C822.923 39.32 823.406 39.2729 823.925 39.1864L823.597 37.2136ZM822.481 37.32C821.714 37.32 821.009 37.1927 820.356 36.945L819.646 38.815C820.54 39.154 821.488 39.32 822.481 39.32V37.32ZM820.395 36.9609C819.758 36.6878 819.192 36.3141 818.691 35.8366L817.31 37.2834C817.984 37.9259 818.751 38.4322 819.607 38.7991L820.395 36.9609ZM818.708 35.8529C818.234 35.379 817.847 34.8235 817.548 34.1789L815.734 35.0211C816.128 35.8698 816.648 36.621 817.294 37.2671L818.708 35.8529ZM817.565 34.2176C817.299 33.5753 817.161 32.8665 817.161 32.08H815.161C815.161 33.1068 815.343 34.078 815.717 34.9824L817.565 34.2176ZM817.161 32.08V23.72H815.161V32.08H817.161ZM817.161 23.72C817.161 22.933 817.299 22.2424 817.56 21.6339L815.722 20.8461C815.343 21.7309 815.161 22.6937 815.161 23.72H817.161ZM817.553 21.6491C817.852 20.9828 818.233 20.4397 818.691 20.0041L817.311 18.5559C816.649 19.187 816.123 19.9505 815.728 20.8309L817.553 21.6491ZM818.691 20.0041C819.153 19.5633 819.696 19.2186 820.327 18.9708L819.595 17.1092C818.733 17.4481 817.968 17.93 817.311 18.5559L818.691 20.0041ZM820.343 18.964C820.989 18.6967 821.685 18.56 822.441 18.56V16.56C821.437 16.56 820.479 16.7433 819.579 17.116L820.343 18.964ZM822.441 18.56C822.784 18.56 823.147 18.6028 823.532 18.6934L823.99 16.7466C823.468 16.6238 822.951 16.56 822.441 16.56V18.56ZM823.544 18.6962C823.996 18.7966 824.402 18.9078 824.765 19.0287L825.397 17.1313C824.96 16.9855 824.486 16.8567 823.978 16.7438L823.544 18.6962ZM824.813 19.0435C825.255 19.1663 825.684 19.3134 826.1 19.4847L826.862 17.6353C826.371 17.4332 825.866 17.2603 825.349 17.1165L824.813 19.0435ZM825.518 18.2912L825.038 20.0112L826.964 20.5488L827.444 18.8288L825.518 18.2912ZM826.317 19.3313C825.892 19.1896 825.454 19.0625 825.003 18.9499L824.518 20.8901C824.921 20.9909 825.31 21.1038 825.685 21.2287L826.317 19.3313ZM825.036 18.9585C824.635 18.844 824.222 18.7444 823.797 18.6594L823.405 20.6206C823.78 20.6956 824.14 20.7826 824.486 20.8815L825.036 18.9585ZM823.797 18.6594C823.338 18.5677 822.886 18.52 822.441 18.52V20.52C822.743 20.52 823.064 20.5523 823.405 20.6206L823.797 18.6594ZM822.441 18.52C821.025 18.52 819.77 18.9955 818.729 19.939L820.072 21.421C820.738 20.8178 821.511 20.52 822.441 20.52V18.52ZM818.731 19.9379C817.662 20.9032 817.161 22.2036 817.161 23.72H819.161C819.161 22.6764 819.487 21.9501 820.071 21.4221L818.731 19.9379ZM817.161 23.72V32.08H819.161V23.72H817.161ZM839.598 21.48L838.74 21.9945L838.746 22.0043L838.752 22.014L839.598 21.48ZM838.438 20.28L837.871 21.104L837.9 21.124L837.93 21.1419L838.438 20.28ZM837.038 19.72L836.821 20.6962L836.851 20.7029L836.882 20.7078L837.038 19.72ZM834.518 19.72L834.682 20.7064L834.703 20.7029L834.724 20.6985L834.518 19.72ZM833.118 20.28L833.625 21.1419L833.643 21.1311L833.661 21.1196L833.118 20.28ZM831.958 21.48L832.803 22.014L832.809 22.0043L832.815 21.9945L831.958 21.48ZM831.958 34.36L831.1 34.8745L831.106 34.8843L831.112 34.894L831.958 34.36ZM833.118 35.56L833.661 34.7204L833.661 34.7204L833.118 35.56ZM834.518 36.16L834.301 37.1362L834.331 37.1429L834.362 37.1478L834.518 36.16ZM837.038 36.16L837.202 37.1464L837.223 37.1429L837.244 37.1385L837.038 36.16ZM838.438 35.56L837.894 34.7204L837.883 34.728L837.871 34.736L838.438 35.56ZM839.598 34.36L840.443 34.894L840.449 34.8843L840.455 34.8745L839.598 34.36ZM841.238 35.48L842.092 35.999L842.092 35.999L841.238 35.48ZM839.598 37.24L840.127 38.088L840.14 38.0802L840.152 38.0721L839.598 37.24ZM837.598 38.04L837.786 39.022L837.598 38.04ZM833.998 38.04L833.809 39.022L833.809 39.022L833.998 38.04ZM831.998 37.24L831.443 38.0721L831.455 38.0802L831.468 38.088L831.998 37.24ZM830.358 35.48L831.212 34.961L831.212 34.961L830.358 35.48ZM830.358 20.32L831.212 20.839L831.212 20.839L830.358 20.32ZM833.998 17.8L834.186 18.782L834.186 18.782L833.998 17.8ZM837.598 17.8L837.409 18.782L837.409 18.782L837.598 17.8ZM839.598 18.6L840.127 17.752L840.127 17.752L839.598 18.6ZM841.238 20.32L842.092 19.801L842.092 19.801L841.238 20.32ZM841.078 32.24V23.56H839.078V32.24H841.078ZM841.078 23.56C841.078 22.5743 840.901 21.6707 840.443 20.946L838.752 22.014C838.934 22.3026 839.078 22.7857 839.078 23.56H841.078ZM840.455 20.9655C840.065 20.3151 839.566 19.7837 838.945 19.4181L837.93 21.1419C838.216 21.3097 838.49 21.5783 838.74 21.9945L840.455 20.9655ZM839.004 19.456C838.456 19.0789 837.849 18.8357 837.193 18.7322L836.882 20.7078C837.239 20.7643 837.566 20.8944 837.871 21.104L839.004 19.456ZM837.254 18.7438C836.73 18.6273 836.24 18.56 835.798 18.56V20.56C836.048 20.56 836.385 20.5993 836.821 20.6962L837.254 18.7438ZM835.798 18.56C835.357 18.56 834.856 18.6268 834.311 18.7414L834.724 20.6985C835.192 20.5999 835.545 20.56 835.798 20.56V18.56ZM834.353 18.7336C833.724 18.8385 833.13 19.0809 832.574 19.4404L833.661 21.1196C834.012 20.8924 834.351 20.7615 834.682 20.7064L834.353 18.7336ZM832.61 19.4181C831.989 19.7837 831.49 20.3151 831.1 20.9655L832.815 21.9945C833.065 21.5783 833.339 21.3097 833.625 21.1419L832.61 19.4181ZM831.112 20.946C830.654 21.6707 830.478 22.5743 830.478 23.56H832.478C832.478 22.7857 832.621 22.3026 832.803 22.014L831.112 20.946ZM830.478 23.56V32.24H832.478V23.56H830.478ZM830.478 32.24C830.478 33.2298 830.656 34.1342 831.1 34.8745L832.815 33.8455C832.619 33.5191 832.478 33.0102 832.478 32.24H830.478ZM831.112 34.894C831.501 35.5097 831.986 36.0192 832.574 36.3996L833.661 34.7204C833.342 34.5141 833.054 34.2237 832.803 33.826L831.112 34.894ZM832.574 36.3996C833.118 36.7511 833.694 37.0013 834.301 37.1362L834.734 35.1838C834.381 35.1053 834.024 34.9555 833.661 34.7204L832.574 36.3996ZM834.362 37.1478C834.898 37.2324 835.38 37.28 835.798 37.28V35.28C835.521 35.28 835.151 35.2476 834.673 35.1722L834.362 37.1478ZM835.798 37.28C836.216 37.28 836.687 37.2321 837.202 37.1464L836.873 35.1736C836.428 35.2479 836.072 35.28 835.798 35.28V37.28ZM837.244 37.1385C837.879 37.0047 838.469 36.7522 839.004 36.384L837.871 34.736C837.553 34.9545 837.209 35.102 836.831 35.1815L837.244 37.1385ZM838.981 36.3996C839.569 36.0192 840.054 35.5097 840.443 34.894L838.752 33.826C838.501 34.2237 838.213 34.5141 837.894 34.7204L838.981 36.3996ZM840.455 34.8745C840.899 34.1342 841.078 33.2298 841.078 32.24H839.078C839.078 33.0102 838.936 33.5191 838.74 33.8455L840.455 34.8745ZM840.918 32.52C840.918 33.6342 840.71 34.4217 840.383 34.961L842.092 35.999C842.672 35.0449 842.918 33.8591 842.918 32.52H840.918ZM840.383 34.961C839.995 35.5996 839.546 36.0728 839.043 36.4079L840.152 38.0721C840.929 37.5539 841.573 36.8537 842.092 35.999L840.383 34.961ZM839.068 36.392C838.525 36.7312 837.973 36.9495 837.409 37.058L837.786 39.022C838.609 38.8638 839.39 38.5488 840.127 38.088L839.068 36.392ZM837.409 37.058C836.755 37.1836 836.222 37.24 835.798 37.24V39.24C836.387 39.24 837.053 39.163 837.786 39.022L837.409 37.058ZM835.798 37.24C835.373 37.24 834.84 37.1836 834.186 37.058L833.809 39.022C834.542 39.163 835.208 39.24 835.798 39.24V37.24ZM834.186 37.058C833.622 36.9495 833.07 36.7312 832.527 36.392L831.468 38.088C832.205 38.5488 832.986 38.8638 833.809 39.022L834.186 37.058ZM832.552 36.4079C832.049 36.0728 831.6 35.5996 831.212 34.961L829.503 35.999C830.022 36.8537 830.666 37.5539 831.443 38.0721L832.552 36.4079ZM831.212 34.961C830.885 34.4217 830.678 33.6342 830.678 32.52H828.678C828.678 33.8591 828.923 35.0449 829.503 35.999L831.212 34.961ZM830.678 32.52V23.28H828.678V32.52H830.678ZM830.678 23.28C830.678 22.1658 830.885 21.3783 831.212 20.839L829.503 19.801C828.923 20.7551 828.678 21.9408 828.678 23.28H830.678ZM831.212 20.839C831.597 20.2048 832.039 19.7531 832.527 19.448L831.468 17.752C830.676 18.2469 830.024 18.9419 829.503 19.801L831.212 20.839ZM832.527 19.448C833.07 19.1088 833.622 18.8905 834.186 18.782L833.809 16.818C832.986 16.9762 832.205 17.2912 831.468 17.752L832.527 19.448ZM834.186 18.782C834.84 18.6564 835.373 18.6 835.798 18.6V16.6C835.208 16.6 834.542 16.677 833.809 16.818L834.186 18.782ZM835.798 18.6C836.222 18.6 836.755 18.6564 837.409 18.782L837.786 16.818C837.053 16.677 836.387 16.6 835.798 16.6V18.6ZM837.409 18.782C837.973 18.8905 838.525 19.1088 839.068 19.448L840.127 17.752C839.39 17.2912 838.609 16.9762 837.786 16.818L837.409 18.782ZM839.068 19.448C839.556 19.7531 839.998 20.2048 840.383 20.839L842.092 19.801C841.571 18.9419 840.919 18.2469 840.127 17.752L839.068 19.448ZM840.383 20.839C840.71 21.3783 840.918 22.1658 840.918 23.28H842.918C842.918 21.9408 842.672 20.7551 842.092 19.801L840.383 20.839ZM840.918 23.28V32.52H842.918V23.28H840.918ZM858.396 20.92L857.482 21.3261L857.488 21.3395L857.495 21.3527L858.396 20.92ZM858.956 22.96L857.959 23.0367L857.959 23.0397L858.956 22.96ZM859.036 38V39H860.036V38H859.036ZM856.916 38H855.916V39H856.916V38ZM855.836 20.68L856.543 19.9729L856.543 19.9729L855.836 20.68ZM851.436 19.84L851.24 18.8594L851.234 18.8607L851.436 19.84ZM848.796 21.04L848.252 20.201L847.796 20.4967V21.04H848.796ZM848.796 38V39H849.796V38H848.796ZM846.756 38H845.756V39H846.756V38ZM846.756 19.96H847.756V19.5321L847.447 19.2366L846.756 19.96ZM845.876 19.12L845.169 18.4129L844.445 19.1366L845.186 19.8434L845.876 19.12ZM847.316 17.68L848.023 16.9729L847.316 16.2658L846.609 16.9729L847.316 17.68ZM848.516 18.88L847.809 19.5871L848.346 20.1239L849.007 19.7512L848.516 18.88ZM856.036 18.4L855.598 19.299L855.608 19.3036L855.617 19.308L856.036 18.4ZM857.495 21.3527C857.765 21.9148 857.916 22.4746 857.959 23.0367L859.953 22.8833C859.89 22.0587 859.668 21.2585 859.298 20.4873L857.495 21.3527ZM857.959 23.0397C858.01 23.678 858.036 24.3446 858.036 25.04H860.036C860.036 24.2954 860.009 23.5754 859.953 22.8803L857.959 23.0397ZM858.036 25.04V38H860.036V25.04H858.036ZM859.036 37H856.916V39H859.036V37ZM857.916 38V23.8H855.916V38H857.916ZM857.916 23.8C857.916 22.2667 857.507 20.9367 856.543 19.9729L855.129 21.3871C855.605 21.8633 855.916 22.6133 855.916 23.8H857.916ZM856.543 19.9729C855.661 19.0906 854.602 18.6 853.396 18.6V20.6C854.004 20.6 854.571 20.8294 855.129 21.3871L856.543 19.9729ZM853.396 18.6C852.796 18.6 852.071 18.6933 851.24 18.8594L851.632 20.8206C852.402 20.6667 852.983 20.6 853.396 20.6V18.6ZM851.234 18.8607C850.295 19.055 849.297 19.5234 848.252 20.201L849.34 21.879C850.269 21.2766 851.031 20.945 851.639 20.8193L851.234 18.8607ZM847.796 21.04V38H849.796V21.04H847.796ZM848.796 37H846.756V39H848.796V37ZM847.756 38V19.96H845.756V38H847.756ZM847.447 19.2366L846.567 18.3966L845.186 19.8434L846.066 20.6834L847.447 19.2366ZM846.583 19.8271L848.023 18.3871L846.609 16.9729L845.169 18.4129L846.583 19.8271ZM846.609 18.3871L847.809 19.5871L849.223 18.1729L848.023 16.9729L846.609 18.3871ZM849.007 19.7512C850.366 18.9852 851.584 18.64 852.676 18.64V16.64C851.155 16.64 849.6 17.1215 848.025 18.0088L849.007 19.7512ZM852.676 18.64C853.73 18.64 854.7 18.8613 855.598 19.299L856.474 17.501C855.293 16.9254 854.022 16.64 852.676 16.64V18.64ZM855.617 19.308C856.405 19.6715 857.032 20.3133 857.482 21.3261L859.31 20.5139C858.694 19.1267 857.748 18.0885 856.455 17.492L855.617 19.308ZM873.542 34.88L874.491 35.1962L874.542 35.0423V34.88H873.542ZM873.542 21.08H874.542V20.5405L874.091 20.2443L873.542 21.08ZM870.902 19.92L871.092 18.9382L871.092 18.9382L870.902 19.92ZM866.622 20.72L867.343 21.4125L867.35 21.4055L867.357 21.3983L866.622 20.72ZM865.902 34.24L864.966 34.5911L864.979 34.6276L864.996 34.6629L865.902 34.24ZM866.622 35.32L865.885 35.9957L865.899 36.0117L865.915 36.0271L866.622 35.32ZM870.022 36.24L870.132 37.2339L870.159 37.2309L870.186 37.2264L870.022 36.24ZM871.462 35.96L871.679 36.9362L871.698 36.932L871.716 36.9271L871.462 35.96ZM872.822 35.52L873.193 36.4485L873.219 36.4381L873.245 36.4262L872.822 35.52ZM873.582 18.76L873.117 19.6454L874.582 20.4144V18.76H873.582ZM873.582 10.04V9.04H872.582V10.04H873.582ZM875.582 10.04H876.582V9.04H875.582V10.04ZM875.582 36.08H874.582V36.4942L874.875 36.7871L875.582 36.08ZM876.462 36.96L877.159 37.677L877.886 36.97L877.169 36.2529L876.462 36.96ZM875.022 38.36L874.315 39.0671L875.012 39.7643L875.719 39.077L875.022 38.36ZM873.822 37.16L874.529 36.4529L873.993 35.9166L873.332 36.2884L873.822 37.16ZM871.182 38.12L871.008 37.1352L871.182 38.12ZM866.902 37.92L867.319 37.0109L866.902 37.92ZM864.062 34.92L863.129 35.279L863.134 35.2944L863.141 35.3096L864.062 34.92ZM864.062 21.12L863.141 20.7304L863.137 20.7394L863.133 20.7486L864.062 21.12ZM865.222 19.32L865.948 20.0077L865.957 19.9985L865.965 19.989L865.222 19.32ZM866.902 18.08L866.485 17.1709L866.485 17.1709L866.902 18.08ZM870.822 17.8L870.685 18.7906L870.702 18.7929L870.719 18.7947L870.822 17.8ZM874.542 34.88V21.08H872.542V34.88H874.542ZM874.091 20.2443C873.082 19.5814 872.081 19.1297 871.092 18.9382L870.712 20.9018C871.376 21.0303 872.135 21.3519 872.993 21.9157L874.091 20.2443ZM871.092 18.9382C870.246 18.7745 869.532 18.68 868.982 18.68V20.68C869.339 20.68 869.904 20.7455 870.712 20.9018L871.092 18.9382ZM868.982 18.68C867.766 18.68 866.714 19.1459 865.887 20.0417L867.357 21.3983C867.81 20.9075 868.331 20.68 868.982 20.68V18.68ZM865.9 20.0275C865.074 20.8882 864.662 21.953 864.662 23.16H866.662C866.662 22.447 866.89 21.8851 867.343 21.4125L865.9 20.0275ZM864.662 23.16V32.88H866.662V23.16H864.662ZM864.662 32.88C864.662 33.4734 864.761 34.0463 864.966 34.5911L866.838 33.8889C866.723 33.5804 866.662 33.2466 866.662 32.88H864.662ZM864.996 34.6629C865.225 35.1537 865.521 35.5993 865.885 35.9957L867.359 34.6443C867.136 34.4007 866.952 34.1263 866.808 33.8171L864.996 34.6629ZM865.915 36.0271C866.296 36.408 866.74 36.7134 867.239 36.9462L868.085 35.1338C867.784 34.9933 867.535 34.8187 867.329 34.6129L865.915 36.0271ZM867.239 36.9462C867.775 37.1963 868.346 37.32 868.942 37.32V35.32C868.631 35.32 868.349 35.257 868.085 35.1338L867.239 36.9462ZM868.942 37.32C869.239 37.32 869.644 37.2881 870.132 37.2339L869.911 35.2461C869.439 35.2986 869.124 35.32 868.942 35.32V37.32ZM870.186 37.2264C870.684 37.1434 871.182 37.0467 871.679 36.9362L871.245 34.9838C870.782 35.0866 870.32 35.1766 869.857 35.2536L870.186 37.2264ZM871.716 36.9271C872.255 36.7854 872.748 36.6266 873.193 36.4485L872.45 34.5915C872.096 34.7334 871.682 34.8679 871.207 34.9929L871.716 36.9271ZM873.245 36.4262C873.72 36.2042 874.278 35.8348 874.491 35.1962L872.593 34.5638C872.622 34.4786 872.661 34.4515 872.638 34.4726C872.611 34.4959 872.542 34.5473 872.399 34.6138L873.245 36.4262ZM874.582 18.76V10.04H872.582V18.76H874.582ZM873.582 11.04H875.582V9.04H873.582V11.04ZM874.582 10.04V36.08H876.582V10.04H874.582ZM874.875 36.7871L875.755 37.6671L877.169 36.2529L876.289 35.3729L874.875 36.7871ZM875.765 36.243L874.325 37.643L875.719 39.077L877.159 37.677L875.765 36.243ZM875.729 37.6529L874.529 36.4529L873.115 37.8671L874.315 39.0671L875.729 37.6529ZM873.332 36.2884C872.57 36.7166 871.797 36.996 871.008 37.1352L871.356 39.1048C872.38 38.924 873.367 38.5634 874.312 38.0316L873.332 36.2884ZM871.008 37.1352C870.127 37.2907 869.459 37.36 868.982 37.36V39.36C869.625 39.36 870.423 39.2693 871.356 39.1048L871.008 37.1352ZM868.982 37.36C868.37 37.36 867.82 37.2408 867.319 37.0109L866.485 38.8291C867.264 39.1859 868.1 39.36 868.982 39.36V37.36ZM867.319 37.0109C866.794 36.7704 866.339 36.4452 865.948 36.0323L864.496 37.4077C865.065 38.0081 865.73 38.4829 866.485 38.8291L867.319 37.0109ZM865.948 36.0323C865.556 35.6191 865.233 35.1222 864.983 34.5304L863.141 35.3096C863.477 36.1045 863.927 36.8076 864.496 37.4077L865.948 36.0323ZM864.995 34.561C864.774 33.9869 864.662 33.3757 864.662 32.72H862.662C862.662 33.611 862.816 34.4664 863.129 35.279L864.995 34.561ZM864.662 32.72V23.28H862.662V32.72H864.662ZM864.662 23.28C864.662 22.624 864.774 22.0311 864.99 21.4914L863.133 20.7486C862.816 21.5422 862.662 22.3893 862.662 23.28H864.662ZM864.983 21.5096C865.233 20.9178 865.556 20.4209 865.948 20.0077L864.496 18.6323C863.927 19.2324 863.477 19.9355 863.141 20.7304L864.983 21.5096ZM865.965 19.989C866.356 19.5551 866.805 19.2244 867.319 18.9891L866.485 17.1709C865.719 17.5223 865.048 18.0182 864.479 18.651L865.965 19.989ZM867.319 18.9891C867.82 18.7592 868.37 18.64 868.982 18.64V16.64C868.1 16.64 867.264 16.8141 866.485 17.1709L867.319 18.9891ZM868.982 18.64C869.368 18.64 869.93 18.6864 870.685 18.7906L870.959 16.8094C870.167 16.7002 869.502 16.64 868.982 16.64V18.64ZM870.719 18.7947C871.316 18.8564 872.108 19.1155 873.117 19.6454L874.047 17.8746C872.923 17.2845 871.875 16.9036 870.925 16.8053L870.719 18.7947ZM911.977 32.96L911.05 32.5843L911.045 32.5952L911.041 32.6061L911.977 32.96ZM910.377 35.56L909.644 34.8795L909.643 34.8806L910.377 35.56ZM907.977 37.32L908.392 38.2295L908.403 38.2246L908.413 38.2195L907.977 37.32ZM901.937 37.56L902.197 36.5946L901.937 37.56ZM899.297 36.68L899.679 35.756L899.677 35.7553L899.297 36.68ZM896.697 35.36L895.757 35.0183L895.478 35.7858L896.174 36.2126L896.697 35.36ZM897.497 33.16L897.964 32.2762L896.949 31.7388L896.557 32.8183L897.497 33.16ZM900.177 34.4L899.81 35.3305L899.822 35.335L900.177 34.4ZM902.617 35.24L902.318 36.1945L902.332 36.1988L902.346 36.2027L902.617 35.24ZM907.017 35.16L906.614 34.2447L906.607 34.2478L906.6 34.2509L907.017 35.16ZM908.737 33.96L909.463 34.6477L909.471 34.6385L909.48 34.629L908.737 33.96ZM909.857 32.12L908.923 31.761L908.923 31.761L909.857 32.12ZM909.697 27.84L908.865 28.3947L908.871 28.4042L908.877 28.4135L909.697 27.84ZM908.257 26.48L907.702 27.312L907.724 27.3271L907.748 27.3409L908.257 26.48ZM906.377 25.64L906.082 26.5958L906.099 26.601L906.117 26.6056L906.377 25.64ZM904.337 25.16L904.176 26.1471L904.179 26.1474L904.337 25.16ZM901.537 24.32L901.112 25.2255L901.123 25.2304L901.537 24.32ZM899.257 22.76L898.549 23.4671L898.557 23.4743L898.564 23.4814L899.257 22.76ZM897.737 20.52L896.82 20.9208L896.82 20.9208L897.737 20.52ZM897.737 14.56L896.81 14.1843L896.807 14.1909L896.805 14.1976L897.737 14.56ZM899.337 12L898.604 11.3195L898.603 11.3206L899.337 12ZM901.737 10.24L902.162 11.1448L902.162 11.1448L901.737 10.24ZM906.577 9.84L906.343 10.8124L906.365 10.8177L906.388 10.822L906.577 9.84ZM908.497 10.28L908.801 9.32757L908.781 9.32095L908.76 9.31524L908.497 10.28ZM910.457 10.96L911.404 11.2813L911.715 10.3638L910.808 10.0237L910.457 10.96ZM909.697 13.2L909.318 14.1255L910.302 14.5281L910.644 13.5213L909.697 13.2ZM907.897 12.56L908.188 11.6033L908.184 11.6022L907.897 12.56ZM906.217 12.12L906.438 11.1449L906.438 11.1449L906.217 12.12ZM902.497 12.4L902.928 13.3021L902.936 13.2983L902.944 13.2944L902.497 12.4ZM900.897 13.64L901.642 14.3068L901.65 14.2973L901.659 14.2876L900.897 13.64ZM899.817 15.44L900.745 15.8114L900.75 15.799L899.817 15.44ZM899.897 19.72L899.002 20.1672L899.013 20.1899L899.026 20.2121L899.897 19.72ZM901.177 21.28L900.532 22.0449L900.542 22.053L900.552 22.0609L901.177 21.28ZM902.937 22.32L902.552 23.2431L902.569 23.25L902.585 23.2563L902.937 22.32ZM904.777 22.84L904.598 23.8239L904.608 23.8257L904.777 22.84ZM907.817 23.64L907.468 24.5775L907.477 24.5806L907.817 23.64ZM910.297 25L909.668 25.7779L909.685 25.7911L909.701 25.8036L910.297 25ZM911.977 27L911.082 27.4472L911.082 27.4472L911.977 27ZM911.577 29.8C911.577 30.798 911.399 31.7231 911.05 32.5843L912.903 33.3357C913.354 32.2236 913.577 31.042 913.577 29.8H911.577ZM911.041 32.6061C910.712 33.4762 910.246 34.231 909.644 34.8795L911.109 36.2405C911.894 35.3957 912.494 34.4171 912.912 33.3139L911.041 32.6061ZM909.643 34.8806C909.065 35.5043 908.368 36.0183 907.54 36.4205L908.413 38.2195C909.452 37.715 910.354 37.0557 911.11 36.2394L909.643 34.8806ZM907.561 36.4105C906.763 36.7752 905.906 36.96 904.977 36.96V38.96C906.181 38.96 907.323 38.7182 908.392 38.2295L907.561 36.4105ZM904.977 36.96C904.023 36.96 903.098 36.8379 902.197 36.5946L901.676 38.5254C902.749 38.8154 903.85 38.96 904.977 38.96V36.96ZM902.197 36.5946C901.243 36.3368 900.405 36.0565 899.679 35.756L898.914 37.604C899.735 37.9435 900.656 38.2499 901.676 38.5254L902.197 36.5946ZM899.677 35.7553C898.819 35.402 898 34.986 897.219 34.5074L896.174 36.2126C897.046 36.7473 897.961 37.2114 898.916 37.6047L899.677 35.7553ZM897.636 35.7017L898.436 33.5017L896.557 32.8183L895.757 35.0183L897.636 35.7017ZM897.029 34.0438C897.966 34.5398 898.893 34.969 899.81 35.3304L900.543 33.4696C899.7 33.1377 898.841 32.7402 897.964 32.2762L897.029 34.0438ZM899.822 35.335C900.615 35.6359 901.447 35.9224 902.318 36.1945L902.915 34.2855C902.079 34.0243 901.285 33.7507 900.531 33.465L899.822 35.335ZM902.346 36.2027C903.264 36.4609 904.13 36.6 904.937 36.6V34.6C904.356 34.6 903.676 34.4991 902.887 34.2773L902.346 36.2027ZM904.937 36.6C905.818 36.6 906.655 36.4259 907.433 36.0691L906.6 34.2509C906.098 34.4808 905.548 34.6 904.937 34.6V36.6ZM907.419 36.0753C908.202 35.7308 908.887 35.2552 909.463 34.6477L908.011 33.2723C907.626 33.6781 907.164 34.0026 906.614 34.2447L907.419 36.0753ZM909.48 34.629C910.045 34.0016 910.481 33.2823 910.79 32.479L908.923 31.761C908.699 32.3444 908.389 32.8518 907.993 33.291L909.48 34.629ZM910.79 32.479C911.104 31.6625 911.257 30.7932 911.257 29.88H909.257C909.257 30.5668 909.143 31.1908 908.923 31.761L910.79 32.479ZM911.257 29.88C911.257 28.9036 911.035 28.0083 910.516 27.2665L908.877 28.4135C909.105 28.7384 909.257 29.203 909.257 29.88H911.257ZM910.529 27.2853C910.071 26.5986 909.48 26.0412 908.765 25.6191L907.748 27.3409C908.207 27.6121 908.576 27.9614 908.865 28.3947L910.529 27.2853ZM908.811 25.6479C908.155 25.2105 907.428 24.8874 906.637 24.6744L906.117 26.6056C906.712 26.7659 907.238 27.0029 907.702 27.312L908.811 25.6479ZM906.671 24.6842C905.936 24.4582 905.211 24.2871 904.495 24.1726L904.179 26.1474C904.796 26.2462 905.43 26.3952 906.082 26.5958L906.671 24.6842ZM904.497 24.1729C903.595 24.0266 902.747 23.7717 901.95 23.4096L901.123 25.2304C902.086 25.6683 903.105 25.9734 904.176 26.1471L904.497 24.1729ZM901.961 23.4145C901.204 23.0599 900.535 22.6015 899.949 22.0386L898.564 23.4814C899.311 24.1985 900.162 24.7801 901.112 25.2255L901.961 23.4145ZM899.964 22.0529C899.414 21.5036 898.978 20.8617 898.653 20.1192L896.82 20.9208C897.242 21.885 897.819 22.7364 898.549 23.4671L899.964 22.0529ZM898.653 20.1192C898.342 19.4093 898.177 18.5886 898.177 17.64H896.177C896.177 18.8247 896.384 19.924 896.82 20.9208L898.653 20.1192ZM898.177 17.64C898.177 16.663 898.343 15.7599 898.669 14.9224L896.805 14.1976C896.384 15.2801 896.177 16.4304 896.177 17.64H898.177ZM898.663 14.9357C899.022 14.0515 899.493 13.3034 900.07 12.6794L898.603 11.3206C897.847 12.1366 897.251 13.0951 896.81 14.1843L898.663 14.9357ZM900.069 12.6804C900.677 12.0259 901.373 11.5161 902.162 11.1448L901.311 9.33518C900.286 9.81724 899.383 10.4808 898.604 11.3195L900.069 12.6804ZM902.162 11.1448C902.934 10.7816 903.749 10.6 904.617 10.6V8.6C903.458 8.6 902.352 8.84511 901.311 9.33518L902.162 11.1448ZM904.617 10.6C905.173 10.6 905.748 10.6694 906.343 10.8124L906.81 8.86761C906.072 8.69056 905.341 8.6 904.617 8.6V10.6ZM906.388 10.822C907.06 10.9513 907.675 11.0924 908.233 11.2448L908.76 9.31524C908.145 9.14758 907.48 8.99538 906.765 8.85799L906.388 10.822ZM908.192 11.2324C908.843 11.4409 909.481 11.6622 910.105 11.8963L910.808 10.0237C910.152 9.77779 909.483 9.54577 908.801 9.32757L908.192 11.2324ZM909.51 10.6387L908.75 12.8787L910.644 13.5213L911.404 11.2813L909.51 10.6387ZM910.075 12.2745C909.46 12.0226 908.83 11.7989 908.188 11.6033L907.605 13.5167C908.189 13.6944 908.76 13.8974 909.318 14.1255L910.075 12.2745ZM908.184 11.6022C907.627 11.4352 907.045 11.2828 906.438 11.1449L905.995 13.0951C906.561 13.2238 907.099 13.3648 907.609 13.5178L908.184 11.6022ZM906.438 11.1449C905.788 10.9971 905.153 10.92 904.537 10.92V12.92C904.987 12.92 905.472 12.9763 905.995 13.0951L906.438 11.1449ZM904.537 10.92C903.662 10.92 902.829 11.1157 902.049 11.5056L902.944 13.2944C903.444 13.0443 903.971 12.92 904.537 12.92V10.92ZM902.065 11.4979C901.321 11.8537 900.676 12.3552 900.135 12.9924L901.659 14.2876C902.024 13.8582 902.445 13.533 902.928 13.3021L902.065 11.4979ZM900.151 12.9732C899.61 13.5782 899.189 14.285 898.883 15.081L900.75 15.799C900.977 15.2083 901.276 14.7151 901.642 14.3068L900.151 12.9732ZM898.888 15.0686C898.574 15.8537 898.417 16.6731 898.417 17.52H900.417C900.417 16.9269 900.526 16.3596 900.745 15.8114L898.888 15.0686ZM898.417 17.52C898.417 18.4778 898.603 19.3683 899.002 20.1672L900.791 19.2728C900.55 18.7917 900.417 18.2156 900.417 17.52H898.417ZM899.026 20.2121C899.428 20.9225 899.929 21.5367 900.532 22.0449L901.821 20.5151C901.411 20.1699 901.059 19.7442 900.767 19.2279L899.026 20.2121ZM900.552 22.0609C901.159 22.5468 901.827 22.941 902.552 23.2431L903.321 21.3969C902.766 21.1657 902.26 20.8665 901.801 20.4991L900.552 22.0609ZM902.585 23.2563C903.273 23.5143 903.945 23.7051 904.598 23.8239L904.955 21.8561C904.435 21.7616 903.88 21.6057 903.288 21.3837L902.585 23.2563ZM904.608 23.8257C905.647 24.0031 906.6 24.2547 907.468 24.5774L908.165 22.7026C907.167 22.332 906.093 22.0502 904.945 21.8543L904.608 23.8257ZM907.477 24.5806C908.347 24.8948 909.073 25.2972 909.668 25.7779L910.925 24.2221C910.133 23.5828 909.206 23.0785 908.156 22.6994L907.477 24.5806ZM909.701 25.8036C910.295 26.2435 910.753 26.7881 911.082 27.4472L912.871 26.5528C912.401 25.6119 911.738 24.8232 910.892 24.1964L909.701 25.8036ZM911.082 27.4472C911.401 28.0841 911.577 28.8589 911.577 29.8H913.577C913.577 28.6077 913.353 27.5159 912.871 26.5528L911.082 27.4472ZM917.379 19.96H918.379V18.96H917.379V19.96ZM913.979 19.96H912.979V20.96H913.979V19.96ZM913.979 17.96V16.96H912.979V17.96H913.979ZM917.379 17.96V18.96H918.379V17.96H917.379ZM917.379 10V9H916.379V10H917.379ZM919.499 10H920.499V9H919.499V10ZM919.499 17.96H918.499V18.96H919.499V17.96ZM923.179 17.96H924.179V16.96H923.179V17.96ZM923.179 19.96V20.96H924.179V19.96H923.179ZM919.499 19.96V18.96H918.499V19.96H919.499ZM920.299 35.28L919.674 36.0609L919.695 36.0779L919.718 36.0937L920.299 35.28ZM923.179 35.88H924.179V34.88H923.179V35.88ZM923.179 38.04V39.04H924.179V38.04H923.179ZM920.219 37.76L919.863 38.6945L919.889 38.7044L919.916 38.7129L920.219 37.76ZM918.739 36.84L918.032 37.5471L918.043 37.5585L918.055 37.5695L918.739 36.84ZM917.739 35.2L916.798 35.5387L916.798 35.5387L917.739 35.2ZM918.379 32.8V19.96H916.379V32.8H918.379ZM917.379 18.96H913.979V20.96H917.379V18.96ZM914.979 19.96V17.96H912.979V19.96H914.979ZM913.979 18.96H917.379V16.96H913.979V18.96ZM918.379 17.96V10H916.379V17.96H918.379ZM917.379 11H919.499V9H917.379V11ZM918.499 10V17.96H920.499V10H918.499ZM919.499 18.96H923.179V16.96H919.499V18.96ZM922.179 17.96V19.96H924.179V17.96H922.179ZM923.179 18.96H919.499V20.96H923.179V18.96ZM918.499 19.96V33H920.499V19.96H918.499ZM918.499 33C918.499 34.2151 918.791 35.3542 919.674 36.0609L920.923 34.4991C920.74 34.3525 920.499 33.9716 920.499 33H918.499ZM919.718 36.0937C920.468 36.6296 921.344 36.88 922.299 36.88V34.88C921.707 34.88 921.25 34.7304 920.88 34.4663L919.718 36.0937ZM922.299 36.88H923.179V34.88H922.299V36.88ZM922.179 35.88V38.04H924.179V35.88H922.179ZM923.179 37.04H922.099V39.04H923.179V37.04ZM922.099 37.04C921.526 37.04 921.003 36.9601 920.522 36.8071L919.916 38.7129C920.608 38.9333 921.338 39.04 922.099 39.04V37.04ZM920.575 36.8255C920.133 36.6573 919.752 36.4192 919.423 36.1105L918.055 37.5695C918.579 38.0608 919.184 38.436 919.863 38.6945L920.575 36.8255ZM919.446 36.1329C919.14 35.8269 918.878 35.4134 918.68 34.8613L916.798 35.5387C917.079 36.3199 917.484 36.9997 918.032 37.5471L919.446 36.1329ZM918.68 34.8613C918.489 34.3316 918.379 33.6524 918.379 32.8H916.379C916.379 33.8143 916.509 34.7351 916.798 35.5387L918.68 34.8613ZM932.883 28.36L932.874 29.36H932.883V28.36ZM934.283 28.08L934.706 28.9862L934.73 28.9749L934.753 28.9624L934.283 28.08ZM935.323 27.28L936.06 27.9557L936.073 27.9411L936.086 27.9259L935.323 27.28ZM936.003 26.12L935.087 25.7192L935.076 25.7438L935.066 25.7689L936.003 26.12ZM935.923 21.48L935.039 21.9479L935.045 21.9592L935.051 21.9703L935.923 21.48ZM934.963 20.4L934.382 21.2137L934.395 21.2231L934.408 21.232L934.963 20.4ZM933.603 19.84L933.348 20.8071L933.377 20.8147L933.407 20.8206L933.603 19.84ZM930.523 19.88L930.207 18.9313L930.198 18.9341L930.19 18.937L930.523 19.88ZM929.323 20.56L929.969 21.3234L929.969 21.3234L929.323 20.56ZM928.483 21.64L927.588 21.1928L927.588 21.1928L928.483 21.64ZM928.163 28.32H927.163V29.3116L928.154 29.32L928.163 28.32ZM926.483 21.04L925.562 20.6504L925.555 20.6656L925.549 20.681L926.483 21.04ZM927.643 19.24L926.936 18.5329L926.926 18.5424L926.917 18.5523L927.643 19.24ZM929.363 18.04L928.96 17.1247L928.953 17.1278L928.946 17.1309L929.363 18.04ZM935.003 18.04L934.6 18.9553L934.6 18.9553L935.003 18.04ZM937.923 21.04L936.989 21.399L936.995 21.4144L937.002 21.4296L937.923 21.04ZM937.763 27.44L938.644 27.9122L938.648 27.9058L938.651 27.8994L937.763 27.44ZM936.123 29.28L936.692 30.1022L936.692 30.1022L936.123 29.28ZM933.683 30.32L933.884 31.2995L933.895 31.2973L933.906 31.2949L933.683 30.32ZM929.483 30.56L929.42 31.5581L929.42 31.5581L929.483 30.56ZM928.163 30.44L928.28 29.4468L927.163 29.3155V30.44H928.163ZM928.163 32.84H927.163V32.9268L927.178 33.0124L928.163 32.84ZM929.643 35.4L929.018 36.1809L929.032 36.1922L929.047 36.2031L929.643 35.4ZM933.443 36.16L933.63 37.1423L933.647 37.139L933.664 37.1351L933.443 36.16ZM935.283 35.76L935.487 36.739L935.492 36.7378L935.283 35.76ZM937.763 35.2L938.738 34.9792L938.515 33.9956L937.534 34.2266L937.763 35.2ZM938.243 37.32L938.454 38.2974L939.441 38.084L939.218 37.0992L938.243 37.32ZM935.563 37.84L935.398 36.8536L935.386 36.8556L935.374 36.858L935.563 37.84ZM933.563 38.2L933.398 37.2136L933.391 37.2148L933.563 38.2ZM930.003 37.92L929.62 38.844L929.634 38.8497L929.648 38.855L930.003 37.92ZM927.963 36.6L927.272 37.3234L927.272 37.3234L927.963 36.6ZM926.563 34.64L925.639 35.0224L925.647 35.0419L925.656 35.0611L926.563 34.64ZM932.883 29.36H932.963V27.36H932.883V29.36ZM932.963 29.36C933.576 29.36 934.162 29.2399 934.706 28.9862L933.86 27.1738C933.604 27.2934 933.31 27.36 932.963 27.36V29.36ZM934.753 28.9624C935.249 28.6981 935.687 28.3629 936.06 27.9557L934.586 26.6043C934.372 26.8371 934.117 27.0352 933.812 27.1976L934.753 28.9624ZM936.086 27.9259C936.454 27.4913 936.739 27.0049 936.939 26.4711L935.066 25.7689C934.947 26.0885 934.778 26.3753 934.559 26.6341L936.086 27.9259ZM936.919 26.5208C937.163 25.9638 937.283 25.3736 937.283 24.76H935.283C935.283 25.1064 935.216 25.4228 935.087 25.7192L936.919 26.5208ZM937.283 24.76V23.08H935.283V24.76H937.283ZM937.283 23.08C937.283 22.3195 937.141 21.6052 936.794 20.9897L935.051 21.9703C935.185 22.2081 935.283 22.5605 935.283 23.08H937.283ZM936.807 21.0121C936.494 20.4221 936.065 19.9329 935.518 19.5679L934.408 21.232C934.661 21.4004 934.871 21.6313 935.039 21.9479L936.807 21.0121ZM935.544 19.5863C935.036 19.2235 934.446 18.9888 933.799 18.8594L933.407 20.8206C933.827 20.9046 934.143 21.0431 934.382 21.2137L935.544 19.5863ZM933.857 18.8729C933.262 18.7163 932.643 18.64 932.003 18.64V20.64C932.483 20.64 932.93 20.697 933.348 20.8071L933.857 18.8729ZM932.003 18.64C931.389 18.64 930.789 18.7373 930.207 18.9313L930.839 20.8287C931.217 20.7027 931.603 20.64 932.003 20.64V18.64ZM930.19 18.937C929.629 19.135 929.121 19.4204 928.677 19.7966L929.969 21.3234C930.217 21.1129 930.51 20.945 930.856 20.823L930.19 18.937ZM928.677 19.7966C928.222 20.1818 927.859 20.6512 927.588 21.1928L929.377 22.0872C929.533 21.7755 929.731 21.5249 929.969 21.3234L928.677 19.7966ZM927.588 21.1928C927.298 21.774 927.163 22.4099 927.163 23.08H929.163C929.163 22.6834 929.241 22.3594 929.377 22.0872L927.588 21.1928ZM927.163 23.08V28.32H929.163V23.08H927.163ZM928.154 29.32L932.874 29.36L932.891 27.36L928.171 27.32L928.154 29.32ZM927.083 23.28C927.083 22.5932 927.197 21.9692 927.416 21.399L925.549 20.681C925.235 21.4975 925.083 22.3668 925.083 23.28H927.083ZM927.404 21.4296C927.654 20.8378 927.977 20.3409 928.369 19.9277L926.917 18.5523C926.348 19.1524 925.898 19.8555 925.562 20.6504L927.404 21.4296ZM928.35 19.9471C928.774 19.523 929.249 19.192 929.779 18.9491L928.946 17.1309C928.196 17.4747 927.525 17.9437 926.936 18.5329L928.35 19.9471ZM929.766 18.9553C930.298 18.7212 930.879 18.6 931.523 18.6V16.6C930.62 16.6 929.761 16.7721 928.96 17.1247L929.766 18.9553ZM931.523 18.6H932.883V16.6H931.523V18.6ZM932.883 18.6C933.494 18.6 934.064 18.7193 934.6 18.9553L935.406 17.1247C934.609 16.7741 933.765 16.6 932.883 16.6V18.6ZM934.6 18.9553C935.155 19.1996 935.638 19.5296 936.056 19.9471L937.47 18.5329C936.874 17.9371 936.184 17.4671 935.406 17.1247L934.6 18.9553ZM936.056 19.9471C936.46 20.3512 936.771 20.8313 936.989 21.399L938.856 20.681C938.541 19.862 938.079 19.1422 937.47 18.5329L936.056 19.9471ZM937.002 21.4296C937.24 21.9921 937.363 22.6053 937.363 23.28H939.363C939.363 22.3546 939.192 21.4746 938.844 20.6504L937.002 21.4296ZM937.363 23.28V24.6H939.363V23.28H937.363ZM937.363 24.6C937.363 25.6045 937.183 26.3841 936.875 26.9806L938.651 27.8994C939.142 26.9493 939.363 25.8355 939.363 24.6H937.363ZM936.881 26.9678C936.556 27.5753 936.116 28.0685 935.554 28.4578L936.692 30.1022C937.516 29.5315 938.17 28.798 938.644 27.9122L936.881 26.9678ZM935.554 28.4578C934.978 28.8562 934.286 29.1564 933.46 29.3451L933.906 31.2949C934.946 31.057 935.881 30.6638 936.692 30.1022L935.554 28.4578ZM933.481 29.3405C932.648 29.512 931.743 29.6 930.763 29.6V31.6C931.862 31.6 932.904 31.5013 933.884 31.2995L933.481 29.3405ZM930.763 29.6C930.357 29.6 929.951 29.5873 929.545 29.5619L929.42 31.5581C929.868 31.586 930.315 31.6 930.763 31.6V29.6ZM929.545 29.5619C929.138 29.5365 928.716 29.4982 928.28 29.4468L928.046 31.4332C928.516 31.4885 928.974 31.5302 929.42 31.5581L929.545 29.5619ZM927.163 30.44V32.84H929.163V30.44H927.163ZM927.178 33.0124C927.404 34.3041 928.016 35.3795 929.018 36.1809L930.268 34.6191C929.669 34.1405 929.295 33.5092 929.148 32.6676L927.178 33.0124ZM929.047 36.2031C930.048 36.9457 931.191 37.32 932.443 37.32V35.32C931.615 35.32 930.891 35.0809 930.239 34.5969L929.047 36.2031ZM932.443 37.32C932.59 37.32 932.781 37.2915 932.931 37.2674C933.112 37.2385 933.346 37.1964 933.63 37.1423L933.256 35.1777C932.98 35.2302 932.767 35.2681 932.615 35.2926C932.538 35.3048 932.483 35.3127 932.445 35.3173C932.397 35.3231 932.406 35.32 932.443 35.32V37.32ZM933.664 37.1351C934.245 37.0032 934.852 36.8712 935.487 36.739L935.079 34.781C934.433 34.9155 933.814 35.0501 933.221 35.1849L933.664 37.1351ZM935.492 36.7378C936.247 36.5761 937.08 36.388 937.992 36.1734L937.534 34.2266C936.632 34.4387 935.812 34.6239 935.073 34.7822L935.492 36.7378ZM936.787 35.4208L937.268 37.5408L939.218 37.0992L938.738 34.9792L936.787 35.4208ZM938.031 36.3426C937.057 36.5533 936.179 36.7234 935.398 36.8536L935.727 38.8264C936.546 38.6899 937.455 38.5133 938.454 38.2974L938.031 36.3426ZM935.374 36.858C934.688 36.9899 934.03 37.1084 933.398 37.2136L933.727 39.1864C934.376 39.0783 935.051 38.9568 935.752 38.822L935.374 36.858ZM933.391 37.2148C933.089 37.2673 932.854 37.3054 932.681 37.3301C932.486 37.358 932.428 37.36 932.443 37.36V39.36C932.591 39.36 932.786 39.3354 932.964 39.3099C933.165 39.2812 933.423 39.2393 933.734 39.1852L933.391 37.2148ZM932.443 37.36C931.707 37.36 931.014 37.234 930.357 36.985L929.648 38.855C930.538 39.1927 931.472 39.36 932.443 39.36V37.36ZM930.385 36.996C929.722 36.7217 929.148 36.3486 928.653 35.8766L927.272 37.3234C927.951 37.9714 928.737 38.4783 929.62 38.844L930.385 36.996ZM928.653 35.8766C928.158 35.4043 927.765 34.8539 927.47 34.2189L925.656 35.0611C926.054 35.9194 926.594 36.6757 927.272 37.3234L928.653 35.8766ZM927.487 34.2576C927.221 33.6153 927.083 32.9065 927.083 32.12H925.083C925.083 33.1468 925.265 34.118 925.639 35.0224L927.487 34.2576ZM927.083 32.12V23.28H925.083V32.12H927.083ZM944.812 34.96H943.812V35.4952L944.257 35.7921L944.812 34.96ZM947.212 35.96L947.51 35.0055L947.51 35.0055L947.212 35.96ZM948.412 36.28L948.202 37.2578L948.241 37.266L948.28 37.2712L948.412 36.28ZM951.732 35.36L952.453 36.0525L952.46 36.0455L952.467 36.0383L951.732 35.36ZM952.412 21.76L951.476 22.1111L951.489 22.1476L951.506 22.1829L952.412 21.76ZM951.732 20.68L950.995 21.3557L951.009 21.3717L951.025 21.3871L951.732 20.68ZM950.692 19.92L950.269 20.8262L950.269 20.8262L950.692 19.92ZM948.492 19.72L948.563 20.7175L948.598 20.7149L948.633 20.7099L948.492 19.72ZM947.292 19.96L947.55 20.9262L947.57 20.9208L947.59 20.9145L947.292 19.96ZM946.052 20.4L945.651 19.4838L945.651 19.4838L946.052 20.4ZM944.812 21.08L944.257 20.2479L943.812 20.5448V21.08H944.812ZM944.772 37.28L945.237 36.3946L943.772 35.6256V37.28H944.772ZM944.772 48V49H945.772V48H944.772ZM942.772 48H941.772V49H942.772V48ZM942.772 19.88H943.772V19.4521L943.462 19.1566L942.772 19.88ZM941.892 19.04L941.175 18.3429L940.471 19.0665L941.201 19.7634L941.892 19.04ZM943.292 17.6L943.987 16.8814L943.27 16.1876L942.575 16.9029L943.292 17.6ZM944.532 18.8L943.836 19.5186L944.345 20.0112L944.979 19.6944L944.532 18.8ZM947.172 17.88L947.356 18.8629L947.371 18.8601L947.386 18.8569L947.172 17.88ZM951.452 18.04L951.035 18.9491L951.035 18.9491L951.452 18.04ZM953.132 19.24L952.406 19.9277L952.406 19.9277L953.132 19.24ZM954.252 21.04L953.319 21.399L953.324 21.4144L953.331 21.4296L954.252 21.04ZM954.252 34.96L953.331 34.5704L953.327 34.5794L953.323 34.5886L954.252 34.96ZM953.132 36.76L953.858 37.4477L953.867 37.4385L953.875 37.429L953.132 36.76ZM951.452 37.96L951.035 37.0509L951.035 37.0509L951.452 37.96ZM947.532 38.24L947.669 37.2494L947.652 37.2471L947.635 37.2453L947.532 38.24ZM944.257 35.7921C944.651 36.0548 945.095 36.2743 945.581 36.4563L946.283 34.5837C945.915 34.4457 945.613 34.2919 945.367 34.1279L944.257 35.7921ZM945.581 36.4563C946.025 36.6227 946.469 36.7755 946.914 36.9145L947.51 35.0055C947.102 34.8778 946.693 34.7373 946.283 34.5837L945.581 36.4563ZM946.914 36.9145C947.365 37.0554 947.795 37.1704 948.202 37.2578L948.621 35.3022C948.283 35.2296 947.912 35.1312 947.51 35.0055L946.914 36.9145ZM948.28 37.2712C948.698 37.327 949.068 37.36 949.372 37.36V35.36C949.196 35.36 948.925 35.3396 948.544 35.2888L948.28 37.2712ZM949.372 37.36C950.574 37.36 951.623 36.9178 952.453 36.0525L951.01 34.6675C950.561 35.1355 950.036 35.36 949.372 35.36V37.36ZM952.467 36.0383C953.28 35.1567 953.692 34.0865 953.692 32.88H951.692C951.692 33.5935 951.463 34.1766 950.997 34.6817L952.467 36.0383ZM953.692 32.88V23.08H951.692V32.88H953.692ZM953.692 23.08C953.692 22.4668 953.572 21.8808 953.318 21.3371L951.506 22.1829C951.625 22.4392 951.692 22.7332 951.692 23.08H953.692ZM953.348 21.4089C953.143 20.8618 952.843 20.3767 952.439 19.9729L951.025 21.3871C951.208 21.5699 951.361 21.8048 951.476 22.1111L953.348 21.4089ZM952.469 20.0043C952.086 19.5859 951.632 19.255 951.115 19.0138L950.269 20.8262C950.552 20.9583 950.792 21.1341 950.995 21.3557L952.469 20.0043ZM951.115 19.0138C950.579 18.7637 950.007 18.64 949.412 18.64V20.64C949.723 20.64 950.005 20.703 950.269 20.8262L951.115 19.0138ZM949.412 18.64C949.106 18.64 948.747 18.6733 948.35 18.73L948.633 20.7099C948.983 20.66 949.238 20.64 949.412 20.64V18.64ZM948.421 18.7225C947.957 18.7557 947.48 18.8534 946.994 19.0055L947.59 20.9145C947.957 20.7999 948.28 20.7377 948.563 20.7175L948.421 18.7225ZM947.034 18.9938C946.58 19.115 946.118 19.2794 945.651 19.4838L946.453 21.3162C946.839 21.1473 947.204 21.0184 947.55 20.9262L947.034 18.9938ZM945.651 19.4838C945.169 19.6947 944.704 19.9498 944.257 20.2479L945.367 21.912C945.719 21.6768 946.081 21.4786 946.453 21.3162L945.651 19.4838ZM943.812 21.08V34.96H945.812V21.08H943.812ZM943.772 37.28V48H945.772V37.28H943.772ZM944.772 47H942.772V49H944.772V47ZM943.772 48V19.88H941.772V48H943.772ZM943.462 19.1566L942.582 18.3166L941.201 19.7634L942.081 20.6034L943.462 19.1566ZM942.609 19.7371L944.009 18.2971L942.575 16.9029L941.175 18.3429L942.609 19.7371ZM942.596 18.3186L943.836 19.5186L945.227 18.0814L943.987 16.8814L942.596 18.3186ZM944.979 19.6944C945.816 19.2759 946.608 19.0032 947.356 18.8629L946.988 16.8971C946.029 17.0768 945.061 17.4175 944.085 17.9056L944.979 19.6944ZM947.386 18.8569C948.196 18.6797 948.854 18.6 949.372 18.6V16.6C948.664 16.6 947.855 16.707 946.958 16.9031L947.386 18.8569ZM949.372 18.6C949.984 18.6 950.534 18.7192 951.035 18.9491L951.869 17.1309C951.09 16.7741 950.253 16.6 949.372 16.6V18.6ZM951.035 18.9491C951.56 19.1896 952.015 19.5148 952.406 19.9277L953.858 18.5523C953.289 17.9519 952.624 17.4771 951.869 17.1309L951.035 18.9491ZM952.406 19.9277C952.79 20.3334 953.096 20.8198 953.319 21.399L955.185 20.681C954.875 19.8735 954.433 19.1599 953.858 18.5523L952.406 19.9277ZM953.331 21.4296C953.571 21.9963 953.692 22.5968 953.692 23.24H955.692C955.692 22.3365 955.52 21.4704 955.173 20.6504L953.331 21.4296ZM953.692 23.24V32.76H955.692V23.24H953.692ZM953.692 32.76C953.692 33.4032 953.571 34.0037 953.331 34.5704L955.173 35.3496C955.52 34.5296 955.692 33.6635 955.692 32.76H953.692ZM953.323 34.5886C953.1 35.146 952.79 35.6453 952.389 36.091L953.875 37.429C954.434 36.8081 954.87 36.1073 955.18 35.3314L953.323 34.5886ZM952.406 36.0723C952.015 36.4852 951.56 36.8104 951.035 37.0509L951.869 38.8691C952.624 38.5229 953.289 38.0481 953.858 37.4477L952.406 36.0723ZM951.035 37.0509C950.534 37.2808 949.984 37.4 949.372 37.4V39.4C950.253 39.4 951.09 39.2259 951.869 38.8691L951.035 37.0509ZM949.372 37.4C948.985 37.4 948.424 37.3536 947.669 37.2494L947.395 39.2306C948.187 39.3398 948.852 39.4 949.372 39.4V37.4ZM947.635 37.2453C947.038 37.1836 946.246 36.9245 945.237 36.3946L944.307 38.1654C945.431 38.7555 946.479 39.1364 947.429 39.2347L947.635 37.2453Z" fill="black"/>
<line y1="-1.5" x2="158.301" y2="-1.5" transform="matrix(-0.999985 -0.00541203 -0.00821176 0.999966 951 57.2727)" stroke="black" stroke-width="3"/>
<line y1="-1.5" x2="12.3" y2="-1.5" transform="matrix(0 1 1 0 795.603 54)" stroke="black" stroke-width="3"/>
<line y1="-1.5" x2="12.3" y2="-1.5" transform="matrix(0 1 1 0 780.763 64)" stroke="black" stroke-width="3"/>
<line y1="-1.5" x2="15.865" y2="-1.5" transform="matrix(-1 0 0 1 795.109 67)" stroke="black" stroke-width="3"/>
<path d="M780.763 76H764.898" stroke="black" stroke-width="3"/>
<path d="M8.066 352.5C9.64899 318.833 37.9318 250.4 138.399 246C238.866 241.6 551.383 225.5 695.083 218C754.358 218 872.167 185.7 869.212 56.5" stroke="black" stroke-width="3"/>
<path d="M8.70711 354.707C8.31658 355.098 7.68342 355.098 7.29289 354.707L0.928932 348.343C0.538408 347.953 0.538408 347.319 0.928932 346.929C1.31946 346.538 1.95262 346.538 2.34315 346.929L8 352.586L13.6569 346.929C14.0474 346.538 14.6805 346.538 15.0711 346.929C15.4616 347.319 15.4616 347.953 15.0711 348.343L8.70711 354.707ZM9 348V354H7V348H9Z" fill="black"/>
</svg>
