<svg width="997" height="352" viewBox="0 0 997 352" fill="none" xmlns="http://www.w3.org/2000/svg">
<path d="M17.6 29.8C17.6 30.92 17.4 31.9733 17 32.96C16.6267 33.9467 16.0933 34.8133 15.4 35.56C14.7333 36.28 13.9333 36.8667 13 37.32C12.0667 37.7467 11.0667 37.96 10 37.96C8.96 37.96 7.94667 37.8267 6.96 37.56C5.97333 37.2933 5.09333 37 4.32 36.68C3.41333 36.3067 2.54667 35.8667 1.72 35.36L2.52 33.16C3.42667 33.64 4.32 34.0533 5.2 34.4C5.97333 34.6933 6.78667 34.9733 7.64 35.24C8.49333 35.48 9.26667 35.6 9.96 35.6C10.7067 35.6 11.4 35.4533 12.04 35.16C12.7067 34.8667 13.28 34.4667 13.76 33.96C14.24 33.4267 14.6133 32.8133 14.88 32.12C15.1467 31.4267 15.28 30.68 15.28 29.88C15.28 29.0533 15.0933 28.3733 14.72 27.84C14.3467 27.28 13.8667 26.8267 13.28 26.48C12.72 26.1067 12.0933 25.8267 11.4 25.64C10.7067 25.4267 10.0267 25.2667 9.36 25.16C8.37333 25 7.44 24.72 6.56 24.32C5.70667 23.92 4.94667 23.4 4.28 22.76C3.64 22.12 3.13333 21.3733 2.76 20.52C2.38667 19.6667 2.2 18.7067 2.2 17.64C2.2 16.5467 2.38667 15.52 2.76 14.56C3.16 13.5733 3.69333 12.72 4.36 12C5.05333 11.2533 5.85333 10.6667 6.76 10.24C7.66667 9.81333 8.62667 9.6 9.64 9.6C10.28 9.6 10.9333 9.68 11.6 9.84C12.2933 9.97333 12.9333 10.12 13.52 10.28C14.1867 10.4933 14.84 10.72 15.48 10.96L14.72 13.2C14.1333 12.96 13.5333 12.7467 12.92 12.56C12.3867 12.4 11.8267 12.2533 11.24 12.12C10.6533 11.9867 10.0933 11.92 9.56 11.92C8.84 11.92 8.16 12.08 7.52 12.4C6.90667 12.6933 6.37333 13.1067 5.92 13.64C5.46667 14.1467 5.10667 14.7467 4.84 15.44C4.57333 16.1067 4.44 16.8 4.44 17.52C4.44 18.3467 4.6 19.08 4.92 19.72C5.26667 20.3333 5.69333 20.8533 6.2 21.28C6.73333 21.7067 7.32 22.0533 7.96 22.32C8.6 22.56 9.21333 22.7333 9.8 22.84C10.8933 23.0267 11.9067 23.2933 12.84 23.64C13.8 23.9867 14.6267 24.44 15.32 25C16.04 25.5333 16.6 26.2 17 27C17.4 27.8 17.6 28.7333 17.6 29.8ZM27.6719 28.36H27.7519C28.2319 28.36 28.6719 28.2667 29.0719 28.08C29.4719 27.8667 29.8185 27.6 30.1119 27.28C30.4052 26.9333 30.6319 26.5467 30.7919 26.12C30.9785 25.6933 31.0719 25.24 31.0719 24.76V23.08C31.0719 22.44 30.9519 21.9067 30.7119 21.48C30.4719 21.0267 30.1519 20.6667 29.7519 20.4C29.3785 20.1333 28.9252 19.9467 28.3919 19.84C27.8852 19.7067 27.3519 19.64 26.7919 19.64C26.2852 19.64 25.7919 19.72 25.3119 19.88C24.8585 20.04 24.4585 20.2667 24.1119 20.56C23.7652 20.8533 23.4852 21.2133 23.2719 21.64C23.0585 22.0667 22.9519 22.5467 22.9519 23.08V28.32L27.6719 28.36ZM20.8719 23.28C20.8719 22.48 21.0052 21.7333 21.2719 21.04C21.5652 20.3467 21.9519 19.7467 22.4319 19.24C22.9385 18.7333 23.5119 18.3333 24.1519 18.04C24.8185 17.7467 25.5385 17.6 26.3119 17.6H27.6719C28.4185 17.6 29.1252 17.7467 29.7919 18.04C30.4585 18.3333 31.0452 18.7333 31.5519 19.24C32.0585 19.7467 32.4452 20.3467 32.7119 21.04C33.0052 21.7333 33.1519 22.48 33.1519 23.28V24.6C33.1519 25.72 32.9519 26.6667 32.5519 27.44C32.1519 28.1867 31.6052 28.8 30.9119 29.28C30.2185 29.76 29.4052 30.1067 28.4719 30.32C27.5652 30.5067 26.5919 30.6 25.5519 30.6C25.1252 30.6 24.6985 30.5867 24.2719 30.56C23.8452 30.5333 23.4052 30.4933 22.9519 30.44V32.84C23.1385 33.9067 23.6319 34.76 24.4319 35.4C25.2585 36.0133 26.1919 36.32 27.2319 36.32C27.3385 36.32 27.6719 36.2667 28.2319 36.16C28.8185 36.0267 29.4319 35.8933 30.0719 35.76C30.8185 35.6 31.6452 35.4133 32.5519 35.2L33.0319 37.32C32.0452 37.5333 31.1519 37.7067 30.3519 37.84C29.6585 37.9733 28.9919 38.0933 28.3519 38.2C27.7385 38.3067 27.3652 38.36 27.2319 38.36C26.3785 38.36 25.5652 38.2133 24.7919 37.92C24.0185 37.6 23.3385 37.16 22.7519 36.6C22.1652 36.04 21.6985 35.3867 21.3519 34.64C21.0319 33.8667 20.8719 33.0267 20.8719 32.12V23.28ZM46.5209 18H48.5609L44.0409 38H40.6409L35.8809 18H37.8809L40.8809 30C40.9876 30.4 41.0943 30.9067 41.2009 31.52C41.3343 32.1067 41.4543 32.68 41.5609 33.24C41.6676 33.8 41.7609 34.28 41.8409 34.68C41.9209 35.08 41.9609 35.28 41.9609 35.28H42.7609C42.9209 34.56 43.0676 33.8667 43.2009 33.2C43.3343 32.64 43.4543 32.0667 43.5609 31.48C43.6676 30.8667 43.7743 30.36 43.8809 29.96L46.5209 18ZM58.4922 28.36H58.5722C59.0522 28.36 59.4922 28.2667 59.8922 28.08C60.2922 27.8667 60.6389 27.6 60.9322 27.28C61.2255 26.9333 61.4522 26.5467 61.6122 26.12C61.7989 25.6933 61.8922 25.24 61.8922 24.76V23.08C61.8922 22.44 61.7722 21.9067 61.5322 21.48C61.2922 21.0267 60.9722 20.6667 60.5722 20.4C60.1989 20.1333 59.7455 19.9467 59.2122 19.84C58.7055 19.7067 58.1722 19.64 57.6122 19.64C57.1055 19.64 56.6122 19.72 56.1322 19.88C55.6789 20.04 55.2789 20.2667 54.9322 20.56C54.5855 20.8533 54.3055 21.2133 54.0922 21.64C53.8789 22.0667 53.7722 22.5467 53.7722 23.08V28.32L58.4922 28.36ZM51.6922 23.28C51.6922 22.48 51.8255 21.7333 52.0922 21.04C52.3855 20.3467 52.7722 19.7467 53.2522 19.24C53.7589 18.7333 54.3322 18.3333 54.9722 18.04C55.6389 17.7467 56.3589 17.6 57.1322 17.6H58.4922C59.2389 17.6 59.9455 17.7467 60.6122 18.04C61.2789 18.3333 61.8655 18.7333 62.3722 19.24C62.8789 19.7467 63.2655 20.3467 63.5322 21.04C63.8255 21.7333 63.9722 22.48 63.9722 23.28V24.6C63.9722 25.72 63.7722 26.6667 63.3722 27.44C62.9722 28.1867 62.4255 28.8 61.7322 29.28C61.0389 29.76 60.2255 30.1067 59.2922 30.32C58.3855 30.5067 57.4122 30.6 56.3722 30.6C55.9455 30.6 55.5189 30.5867 55.0922 30.56C54.6655 30.5333 54.2255 30.4933 53.7722 30.44V32.84C53.9589 33.9067 54.4522 34.76 55.2522 35.4C56.0789 36.0133 57.0122 36.32 58.0522 36.32C58.1589 36.32 58.4922 36.2667 59.0522 36.16C59.6389 36.0267 60.2522 35.8933 60.8922 35.76C61.6389 35.6 62.4655 35.4133 63.3722 35.2L63.8522 37.32C62.8655 37.5333 61.9722 37.7067 61.1722 37.84C60.4789 37.9733 59.8122 38.0933 59.1722 38.2C58.5589 38.3067 58.1855 38.36 58.0522 38.36C57.1989 38.36 56.3855 38.2133 55.6122 37.92C54.8389 37.6 54.1589 37.16 53.5722 36.6C52.9855 36.04 52.5189 35.3867 52.1722 34.64C51.8522 33.8667 51.6922 33.0267 51.6922 32.12V23.28ZM80.0213 20.92C80.3413 21.5867 80.5279 22.2667 80.5813 22.96C80.6346 23.6267 80.6613 24.32 80.6613 25.04V38H78.5413V23.8C78.5413 22.44 78.1813 21.4 77.4613 20.68C76.7413 19.96 75.9279 19.6 75.0213 19.6C74.5146 19.6 73.8613 19.68 73.0613 19.84C72.2879 20 71.4079 20.4 70.4213 21.04V38H68.3813V19.96L67.5013 19.12L68.9413 17.68L70.1413 18.88C71.6079 18.0533 72.9946 17.64 74.3013 17.64C75.5013 17.64 76.6213 17.8933 77.6613 18.4C78.7013 18.88 79.4879 19.72 80.0213 20.92ZM87.0897 32.8V19.96H83.6897V17.96H87.0897V10H89.2097V17.96H92.8897V19.96H89.2097V33C89.2097 34.0933 89.4764 34.8533 90.0097 35.28C90.5697 35.68 91.2364 35.88 92.0097 35.88H92.8897V38.04H91.8097C91.143 38.04 90.5164 37.9467 89.9297 37.76C89.3697 37.5467 88.8764 37.24 88.4497 36.84C88.023 36.4133 87.6897 35.8667 87.4497 35.2C87.2097 34.5333 87.0897 33.7333 87.0897 32.8ZM106.074 38V23.12C106.074 22.16 105.754 21.3467 105.114 20.68C104.474 19.9867 103.687 19.64 102.754 19.64C102.514 19.64 102.22 19.6667 101.874 19.72C101.527 19.7467 101.14 19.8133 100.714 19.92C100.287 20.0267 99.8604 20.1733 99.4338 20.36C99.0071 20.5467 98.5938 20.7733 98.1938 21.04V38H96.1538V10H98.1538V18.72C99.2204 18.16 100.14 17.84 100.914 17.76C101.687 17.6533 102.3 17.6 102.754 17.6C103.5 17.6 104.194 17.7467 104.834 18.04C105.474 18.3333 106.034 18.7467 106.514 19.28C106.994 19.7867 107.367 20.3867 107.634 21.08C107.927 21.7467 108.074 22.4667 108.074 23.24V38H106.074ZM144.944 29.8C144.944 30.92 144.744 31.9733 144.344 32.96C143.97 33.9467 143.437 34.8133 142.744 35.56C142.077 36.28 141.277 36.8667 140.344 37.32C139.41 37.7467 138.41 37.96 137.344 37.96C136.304 37.96 135.29 37.8267 134.304 37.56C133.317 37.2933 132.437 37 131.664 36.68C130.757 36.3067 129.89 35.8667 129.064 35.36L129.864 33.16C130.77 33.64 131.664 34.0533 132.544 34.4C133.317 34.6933 134.13 34.9733 134.984 35.24C135.837 35.48 136.61 35.6 137.304 35.6C138.05 35.6 138.744 35.4533 139.384 35.16C140.05 34.8667 140.624 34.4667 141.104 33.96C141.584 33.4267 141.957 32.8133 142.224 32.12C142.49 31.4267 142.624 30.68 142.624 29.88C142.624 29.0533 142.437 28.3733 142.064 27.84C141.69 27.28 141.21 26.8267 140.624 26.48C140.064 26.1067 139.437 25.8267 138.744 25.64C138.05 25.4267 137.37 25.2667 136.704 25.16C135.717 25 134.784 24.72 133.904 24.32C133.05 23.92 132.29 23.4 131.624 22.76C130.984 22.12 130.477 21.3733 130.104 20.52C129.73 19.6667 129.544 18.7067 129.544 17.64C129.544 16.5467 129.73 15.52 130.104 14.56C130.504 13.5733 131.037 12.72 131.704 12C132.397 11.2533 133.197 10.6667 134.104 10.24C135.01 9.81333 135.97 9.6 136.984 9.6C137.624 9.6 138.277 9.68 138.944 9.84C139.637 9.97333 140.277 10.12 140.864 10.28C141.53 10.4933 142.184 10.72 142.824 10.96L142.064 13.2C141.477 12.96 140.877 12.7467 140.264 12.56C139.73 12.4 139.17 12.2533 138.584 12.12C137.997 11.9867 137.437 11.92 136.904 11.92C136.184 11.92 135.504 12.08 134.864 12.4C134.25 12.6933 133.717 13.1067 133.264 13.64C132.81 14.1467 132.45 14.7467 132.184 15.44C131.917 16.1067 131.784 16.8 131.784 17.52C131.784 18.3467 131.944 19.08 132.264 19.72C132.61 20.3333 133.037 20.8533 133.544 21.28C134.077 21.7067 134.664 22.0533 135.304 22.32C135.944 22.56 136.557 22.7333 137.144 22.84C138.237 23.0267 139.25 23.2933 140.184 23.64C141.144 23.9867 141.97 24.44 142.664 25C143.384 25.5333 143.944 26.2 144.344 27C144.744 27.8 144.944 28.7333 144.944 29.8ZM149.746 32.8V19.96H146.346V17.96H149.746V10H151.866V17.96H155.546V19.96H151.866V33C151.866 34.0933 152.133 34.8533 152.666 35.28C153.226 35.68 153.893 35.88 154.666 35.88H155.546V38.04H154.466C153.799 38.04 153.173 37.9467 152.586 37.76C152.026 37.5467 151.533 37.24 151.106 36.84C150.679 36.4133 150.346 35.8667 150.106 35.2C149.866 34.5333 149.746 33.7333 149.746 32.8ZM165.25 28.36H165.33C165.81 28.36 166.25 28.2667 166.65 28.08C167.05 27.8667 167.397 27.6 167.69 27.28C167.983 26.9333 168.21 26.5467 168.37 26.12C168.557 25.6933 168.65 25.24 168.65 24.76V23.08C168.65 22.44 168.53 21.9067 168.29 21.48C168.05 21.0267 167.73 20.6667 167.33 20.4C166.957 20.1333 166.503 19.9467 165.97 19.84C165.463 19.7067 164.93 19.64 164.37 19.64C163.863 19.64 163.37 19.72 162.89 19.88C162.437 20.04 162.037 20.2667 161.69 20.56C161.343 20.8533 161.063 21.2133 160.85 21.64C160.637 22.0667 160.53 22.5467 160.53 23.08V28.32L165.25 28.36ZM158.45 23.28C158.45 22.48 158.583 21.7333 158.85 21.04C159.143 20.3467 159.53 19.7467 160.01 19.24C160.517 18.7333 161.09 18.3333 161.73 18.04C162.397 17.7467 163.117 17.6 163.89 17.6H165.25C165.997 17.6 166.703 17.7467 167.37 18.04C168.037 18.3333 168.623 18.7333 169.13 19.24C169.637 19.7467 170.023 20.3467 170.29 21.04C170.583 21.7333 170.73 22.48 170.73 23.28V24.6C170.73 25.72 170.53 26.6667 170.13 27.44C169.73 28.1867 169.183 28.8 168.49 29.28C167.797 29.76 166.983 30.1067 166.05 30.32C165.143 30.5067 164.17 30.6 163.13 30.6C162.703 30.6 162.277 30.5867 161.85 30.56C161.423 30.5333 160.983 30.4933 160.53 30.44V32.84C160.717 33.9067 161.21 34.76 162.01 35.4C162.837 36.0133 163.77 36.32 164.81 36.32C164.917 36.32 165.25 36.2667 165.81 36.16C166.397 36.0267 167.01 35.8933 167.65 35.76C168.397 35.6 169.223 35.4133 170.13 35.2L170.61 37.32C169.623 37.5333 168.73 37.7067 167.93 37.84C167.237 37.9733 166.57 38.0933 165.93 38.2C165.317 38.3067 164.943 38.36 164.81 38.36C163.957 38.36 163.143 38.2133 162.37 37.92C161.597 37.6 160.917 37.16 160.33 36.6C159.743 36.04 159.277 35.3867 158.93 34.64C158.61 33.8667 158.45 33.0267 158.45 32.12V23.28ZM177.179 34.96C177.499 35.1733 177.872 35.36 178.299 35.52C178.726 35.68 179.152 35.8267 179.579 35.96C180.006 36.0933 180.406 36.2 180.779 36.28C181.179 36.3333 181.499 36.36 181.739 36.36C182.672 36.36 183.459 36.0267 184.099 35.36C184.739 34.6667 185.059 33.84 185.059 32.88V23.08C185.059 22.6 184.966 22.16 184.779 21.76C184.619 21.3333 184.392 20.9733 184.099 20.68C183.806 20.36 183.459 20.1067 183.059 19.92C182.659 19.7333 182.232 19.64 181.779 19.64C181.539 19.64 181.232 19.6667 180.859 19.72C180.486 19.7467 180.086 19.8267 179.659 19.96C179.259 20.0667 178.846 20.2133 178.419 20.4C177.992 20.5867 177.579 20.8133 177.179 21.08V34.96ZM177.139 37.28V48H175.139V19.88L174.259 19.04L175.659 17.6L176.899 18.8C177.806 18.3467 178.686 18.04 179.539 17.88C180.392 17.6933 181.126 17.6 181.739 17.6C182.486 17.6 183.179 17.7467 183.819 18.04C184.459 18.3333 185.019 18.7333 185.499 19.24C185.979 19.7467 186.352 20.3467 186.619 21.04C186.912 21.7333 187.059 22.4667 187.059 23.24V32.76C187.059 33.5333 186.912 34.2667 186.619 34.96C186.352 35.6267 185.979 36.2267 185.499 36.76C185.019 37.2667 184.459 37.6667 183.819 37.96C183.179 38.2533 182.486 38.4 181.739 38.4C181.286 38.4 180.672 38.3467 179.899 38.24C179.126 38.16 178.206 37.84 177.139 37.28Z" fill="black"/>
<path d="M17 32.96L16.0733 32.5843L16.0689 32.5952L16.0647 32.6061L17 32.96ZM15.4 35.56L14.6672 34.8795L14.6662 34.8806L15.4 35.56ZM13 37.32L13.4158 38.2295L13.4264 38.2246L13.4369 38.2195L13 37.32ZM6.96 37.56L7.22091 36.5946L6.96 37.56ZM4.32 36.68L4.70235 35.756L4.70075 35.7553L4.32 36.68ZM1.72 35.36L0.780207 35.0183L0.501096 35.7858L1.19744 36.2126L1.72 35.36ZM2.52 33.16L2.98789 32.2762L1.97274 31.7388L1.58021 32.8183L2.52 33.16ZM5.2 34.4L4.83345 35.3305L4.84535 35.335L5.2 34.4ZM7.64 35.24L7.34173 36.1945L7.35543 36.1988L7.36925 36.2027L7.64 35.24ZM12.04 35.16L11.6373 34.2447L11.6303 34.2478L11.6233 34.2509L12.04 35.16ZM13.76 33.96L14.486 34.6477L14.4947 34.6385L14.5033 34.629L13.76 33.96ZM14.88 32.12L13.9467 31.761L13.9467 31.761L14.88 32.12ZM14.72 27.84L13.888 28.3947L13.8943 28.4042L13.9008 28.4135L14.72 27.84ZM13.28 26.48L12.7253 27.312L12.7479 27.3271L12.7713 27.3409L13.28 26.48ZM11.4 25.64L11.1059 26.5958L11.1229 26.601L11.14 26.6056L11.4 25.64ZM9.36 25.16L9.19993 26.1471L9.20201 26.1474L9.36 25.16ZM6.56 24.32L6.13554 25.2255L6.1462 25.2304L6.56 24.32ZM4.28 22.76L3.57289 23.4671L3.58011 23.4743L3.58747 23.4814L4.28 22.76ZM2.76 20.52L1.84384 20.9208L1.84384 20.9208L2.76 20.52ZM2.76 14.56L1.83326 14.1843L1.83058 14.1909L1.828 14.1976L2.76 14.56ZM4.36 12L3.62721 11.3195L3.62624 11.3206L4.36 12ZM6.76 10.24L7.1858 11.1448L7.1858 11.1448L6.76 10.24ZM11.6 9.84L11.3666 10.8124L11.3888 10.8177L11.4112 10.822L11.6 9.84ZM13.52 10.28L13.8248 9.32757L13.8041 9.32095L13.7831 9.31524L13.52 10.28ZM15.48 10.96L16.427 11.2813L16.7383 10.3638L15.8311 10.0237L15.48 10.96ZM14.72 13.2L14.3414 14.1255L15.3254 14.5281L15.667 13.5213L14.72 13.2ZM12.92 12.56L13.2112 11.6033L13.2073 11.6022L12.92 12.56ZM11.24 12.12L11.4616 11.1449L11.4616 11.1449L11.24 12.12ZM7.52 12.4L7.95146 13.3021L7.95937 13.2983L7.96721 13.2944L7.52 12.4ZM5.92 13.64L6.66524 14.3068L6.67371 14.2973L6.68194 14.2876L5.92 13.64ZM4.84 15.44L5.76856 15.8114L5.77335 15.799L4.84 15.44ZM4.92 19.72L4.02557 20.1672L4.03694 20.1899L4.04944 20.2121L4.92 19.72ZM6.2 21.28L5.55586 22.0449L5.56548 22.053L5.57531 22.0609L6.2 21.28ZM7.96 22.32L7.57539 23.2431L7.59201 23.25L7.60888 23.2563L7.96 22.32ZM9.8 22.84L9.6211 23.8239L9.6317 23.8257L9.8 22.84ZM12.84 23.64L12.4918 24.5775L12.5004 24.5806L12.84 23.64ZM15.32 25L14.6917 25.7779L14.708 25.7911L14.7248 25.8036L15.32 25ZM17 27L16.1056 27.4472L16.1056 27.4472L17 27ZM16.6 29.8C16.6 30.798 16.4224 31.7231 16.0733 32.5843L17.9267 33.3357C18.3776 32.2236 18.6 31.042 18.6 29.8H16.6ZM16.0647 32.6061C15.7355 33.4762 15.2695 34.231 14.6672 34.8795L16.1328 36.2405C16.9172 35.3957 17.5178 34.4171 17.9353 33.3139L16.0647 32.6061ZM14.6662 34.8806C14.0888 35.5043 13.3912 36.0183 12.5631 36.4205L13.4369 38.2195C14.4755 37.715 15.3779 37.0557 16.1338 36.2394L14.6662 34.8806ZM12.5842 36.4105C11.7866 36.7752 10.929 36.96 10 36.96V38.96C11.2043 38.96 12.3468 38.7182 13.4158 38.2295L12.5842 36.4105ZM10 36.96C9.04656 36.96 8.12102 36.8379 7.22091 36.5946L6.69909 38.5254C7.77231 38.8154 8.87344 38.96 10 38.96V36.96ZM7.22091 36.5946C6.2669 36.3368 5.42862 36.0565 4.70235 35.756L3.93765 37.604C4.75805 37.9435 5.67977 38.2499 6.69909 38.5254L7.22091 36.5946ZM4.70075 35.7553C3.84264 35.402 3.02344 34.986 2.24256 34.5074L1.19744 36.2126C2.0699 36.7473 2.98403 37.2114 3.93925 37.6047L4.70075 35.7553ZM2.65979 35.7017L3.45979 33.5017L1.58021 32.8183L0.780207 35.0183L2.65979 35.7017ZM2.05211 34.0438C2.98894 34.5398 3.91608 34.969 4.83348 35.3304L5.56652 33.4696C4.72392 33.1377 3.86439 32.7402 2.98789 32.2762L2.05211 34.0438ZM4.84535 35.335C5.63869 35.6359 6.47092 35.9224 7.34173 36.1945L7.93828 34.2855C7.10242 34.0243 6.30797 33.7507 5.55465 33.465L4.84535 35.335ZM7.36925 36.2027C8.28752 36.4609 9.15383 36.6 9.96 36.6V34.6C9.37951 34.6 8.69915 34.4991 7.91075 34.2773L7.36925 36.2027ZM9.96 36.6C10.8416 36.6 11.6781 36.4259 12.4567 36.0691L11.6233 34.2509C11.1219 34.4808 10.5717 34.6 9.96 34.6V36.6ZM12.4427 36.0753C13.2258 35.7308 13.9105 35.2552 14.486 34.6477L13.034 33.2723C12.6495 33.6781 12.1875 34.0026 11.6373 34.2447L12.4427 36.0753ZM14.5033 34.629C15.0679 34.0016 15.5044 33.2823 15.8133 32.479L13.9467 31.761C13.7223 32.3444 13.4121 32.8518 13.0167 33.291L14.5033 34.629ZM15.8133 32.479C16.1274 31.6625 16.28 30.7932 16.28 29.88H14.28C14.28 30.5668 14.166 31.1908 13.9467 31.761L15.8133 32.479ZM16.28 29.88C16.28 28.9036 16.0585 28.0083 15.5392 27.2665L13.9008 28.4135C14.1282 28.7384 14.28 29.203 14.28 29.88H16.28ZM15.5521 27.2853C15.0943 26.5986 14.5031 26.0412 13.7887 25.6191L12.7713 27.3409C13.2302 27.6121 13.5991 27.9614 13.888 28.3947L15.5521 27.2853ZM13.8347 25.6479C13.1785 25.2105 12.4511 24.8874 11.66 24.6744L11.14 26.6056C11.7355 26.7659 12.2615 27.0029 12.7253 27.312L13.8347 25.6479ZM11.6941 24.6842C10.9594 24.4582 10.234 24.2871 9.51799 24.1726L9.20201 26.1474C9.81937 26.2462 10.4539 26.3952 11.1059 26.5958L11.6941 24.6842ZM9.52007 24.1729C8.61802 24.0266 7.77029 23.7717 6.9738 23.4096L6.1462 25.2304C7.10971 25.6683 8.12865 25.9734 9.19993 26.1471L9.52007 24.1729ZM6.98443 23.4145C6.22793 23.0599 5.55891 22.6015 4.97253 22.0386L3.58747 23.4814C4.33442 24.1985 5.18541 24.7801 6.13557 25.2255L6.98443 23.4145ZM4.98711 22.0529C4.43785 21.5036 4.00099 20.8617 3.67616 20.1192L1.84384 20.9208C2.26567 21.885 2.84215 22.7364 3.57289 23.4671L4.98711 22.0529ZM3.67616 20.1192C3.36559 19.4093 3.2 18.5886 3.2 17.64H1.2C1.2 18.8247 1.40774 19.924 1.84384 20.9208L3.67616 20.1192ZM3.2 17.64C3.2 16.663 3.36632 15.7599 3.692 14.9224L1.828 14.1976C1.40702 15.2801 1.2 16.4304 1.2 17.64H3.2ZM3.68674 14.9357C4.04518 14.0515 4.51598 13.3034 5.09376 12.6794L3.62624 11.3206C2.87069 12.1366 2.27482 13.0951 1.83326 14.1843L3.68674 14.9357ZM5.09279 12.6804C5.70059 12.0259 6.39685 11.5161 7.1858 11.1448L6.3342 9.33518C5.30982 9.81724 4.40608 10.4808 3.62721 11.3195L5.09279 12.6804ZM7.1858 11.1448C7.95772 10.7816 8.77216 10.6 9.64 10.6V8.6C8.48117 8.6 7.37561 8.84511 6.3342 9.33518L7.1858 11.1448ZM9.64 10.6C10.196 10.6 10.771 10.6694 11.3666 10.8124L11.8334 8.86761C11.0957 8.69056 10.364 8.6 9.64 8.6V10.6ZM11.4112 10.822C12.0834 10.9513 12.6983 11.0924 13.2569 11.2448L13.7831 9.31524C13.1684 9.14758 12.5033 8.99538 11.7888 8.85799L11.4112 10.822ZM13.2152 11.2324C13.8667 11.4409 14.5046 11.6622 15.1289 11.8963L15.8311 10.0237C15.1754 9.77779 14.5066 9.54577 13.8248 9.32757L13.2152 11.2324ZM14.533 10.6387L13.773 12.8787L15.667 13.5213L16.427 11.2813L14.533 10.6387ZM15.0986 12.2745C14.483 12.0226 13.8538 11.7989 13.2112 11.6033L12.6288 13.5167C13.2129 13.6944 13.7837 13.8974 14.3414 14.1255L15.0986 12.2745ZM13.2073 11.6022C12.6507 11.4352 12.0686 11.2828 11.4616 11.1449L11.0184 13.0951C11.5847 13.2238 12.1227 13.3648 12.6327 13.5178L13.2073 11.6022ZM11.4616 11.1449C10.8113 10.9971 10.1767 10.92 9.56 10.92V12.92C10.01 12.92 10.4953 12.9763 11.0184 13.0951L11.4616 11.1449ZM9.56 10.92C8.68576 10.92 7.85254 11.1157 7.07279 11.5056L7.96721 13.2944C8.46746 13.0443 8.99424 12.92 9.56 12.92V10.92ZM7.08854 11.4979C6.34459 11.8537 5.69968 12.3552 5.15806 12.9924L6.68194 14.2876C7.04699 13.8582 7.46874 13.533 7.95146 13.3021L7.08854 11.4979ZM5.17476 12.9732C4.63341 13.5782 4.21281 14.285 3.90665 15.081L5.77335 15.799C6.00053 15.2083 6.29993 14.7151 6.66524 14.3068L5.17476 12.9732ZM3.91152 15.0686C3.59748 15.8537 3.44 16.6731 3.44 17.52H5.44C5.44 16.9269 5.54919 16.3596 5.76848 15.8114L3.91152 15.0686ZM3.44 17.52C3.44 18.4778 3.6261 19.3683 4.02557 20.1672L5.81443 19.2728C5.5739 18.7917 5.44 18.2156 5.44 17.52H3.44ZM4.04944 20.2121C4.45097 20.9225 4.95241 21.5367 5.55586 22.0449L6.84414 20.5151C6.43426 20.1699 6.08237 19.7442 5.79056 19.2279L4.04944 20.2121ZM5.57531 22.0609C6.18273 22.5468 6.85043 22.941 7.57539 23.2431L8.34462 21.3969C7.78958 21.1657 7.28393 20.8665 6.82469 20.4991L5.57531 22.0609ZM7.60888 23.2563C8.29683 23.5143 8.96795 23.7051 9.62111 23.8239L9.97889 21.8561C9.45871 21.7616 8.90317 21.6057 8.31112 21.3837L7.60888 23.2563ZM9.6317 23.8257C10.6705 24.0031 11.623 24.2547 12.4918 24.5774L13.1882 22.7026C12.1904 22.332 11.1161 22.0502 9.9683 21.8543L9.6317 23.8257ZM12.5004 24.5806C13.3707 24.8948 14.0964 25.2972 14.6917 25.7779L15.9483 24.2221C15.1569 23.5828 14.2293 23.0785 13.1796 22.6994L12.5004 24.5806ZM14.7248 25.8036C15.3186 26.2435 15.776 26.7881 16.1056 27.4472L17.8944 26.5528C17.424 25.6119 16.7614 24.8232 15.9152 24.1964L14.7248 25.8036ZM16.1056 27.4472C16.424 28.0841 16.6 28.8589 16.6 29.8H18.6C18.6 28.6077 18.376 27.5159 17.8944 26.5528L16.1056 27.4472ZM27.6719 28.36L27.6634 29.36H27.6719V28.36ZM29.0719 28.08L29.4948 28.9862L29.5189 28.9749L29.5425 28.9624L29.0719 28.08ZM30.1119 27.28L30.849 27.9557L30.8624 27.9411L30.8753 27.9259L30.1119 27.28ZM30.7919 26.12L29.8757 25.7192L29.865 25.7438L29.8555 25.7689L30.7919 26.12ZM30.7119 21.48L29.8281 21.9479L29.8341 21.9592L29.8403 21.9703L30.7119 21.48ZM29.7519 20.4L29.1706 21.2137L29.1838 21.2231L29.1972 21.232L29.7519 20.4ZM28.3919 19.84L28.1374 20.8071L28.1664 20.8147L28.1958 20.8206L28.3919 19.84ZM25.3119 19.88L24.9956 18.9313L24.9873 18.9341L24.9791 18.937L25.3119 19.88ZM24.1119 20.56L24.7578 21.3234L24.7578 21.3234L24.1119 20.56ZM23.2719 21.64L22.3774 21.1928L22.3774 21.1928L23.2719 21.64ZM22.9519 28.32H21.9519V29.3116L22.9434 29.32L22.9519 28.32ZM21.2719 21.04L20.3509 20.6504L20.3445 20.6656L20.3385 20.681L21.2719 21.04ZM22.4319 19.24L21.7248 18.5329L21.7152 18.5424L21.7059 18.5523L22.4319 19.24ZM24.1519 18.04L23.7491 17.1247L23.7422 17.1278L23.7352 17.1309L24.1519 18.04ZM29.7919 18.04L29.3891 18.9553L29.3891 18.9553L29.7919 18.04ZM32.7119 21.04L31.7785 21.399L31.7845 21.4144L31.7909 21.4296L32.7119 21.04ZM32.5519 27.44L33.4334 27.9122L33.4368 27.9058L33.4401 27.8994L32.5519 27.44ZM30.9119 29.28L31.4811 30.1022L31.4811 30.1022L30.9119 29.28ZM28.4719 30.32L28.6735 31.2995L28.6841 31.2973L28.6947 31.2949L28.4719 30.32ZM24.2719 30.56L24.2095 31.5581L24.2095 31.5581L24.2719 30.56ZM22.9519 30.44L23.0687 29.4468L21.9519 29.3155V30.44H22.9519ZM22.9519 32.84H21.9519V32.9268L21.9668 33.0124L22.9519 32.84ZM24.4319 35.4L23.8072 36.1809L23.8214 36.1922L23.836 36.2031L24.4319 35.4ZM28.2319 36.16L28.419 37.1423L28.4363 37.139L28.4535 37.1351L28.2319 36.16ZM30.0719 35.76L30.2758 36.739L30.2814 36.7378L30.0719 35.76ZM32.5519 35.2L33.5272 34.9792L33.3045 33.9956L32.3228 34.2266L32.5519 35.2ZM33.0319 37.32L33.2432 38.2974L34.2302 38.084L34.0072 37.0992L33.0319 37.32ZM30.3519 37.84L30.1875 36.8536L30.1752 36.8556L30.163 36.858L30.3519 37.84ZM28.3519 38.2L28.1875 37.2136L28.1805 37.2148L28.3519 38.2ZM24.7919 37.92L24.4095 38.844L24.4233 38.8497L24.4372 38.855L24.7919 37.92ZM22.7519 36.6L22.0614 37.3234L22.0614 37.3234L22.7519 36.6ZM21.3519 34.64L20.4279 35.0224L20.436 35.0419L20.4449 35.0611L21.3519 34.64ZM27.6719 29.36H27.7519V27.36H27.6719V29.36ZM27.7519 29.36C28.365 29.36 28.9511 29.2399 29.4948 28.9862L28.649 27.1738C28.3927 27.2934 28.0987 27.36 27.7519 27.36V29.36ZM29.5425 28.9624C30.0379 28.6981 30.4758 28.3629 30.849 27.9557L29.3747 26.6043C29.1613 26.8371 28.9058 27.0352 28.6013 27.1976L29.5425 28.9624ZM30.8753 27.9259C31.243 27.4913 31.528 27.0049 31.7282 26.4711L29.8555 25.7689C29.7357 26.0885 29.5674 26.3753 29.3485 26.6341L30.8753 27.9259ZM31.708 26.5208C31.9517 25.9638 32.0719 25.3736 32.0719 24.76H30.0719C30.0719 25.1064 30.0054 25.4228 29.8757 25.7192L31.708 26.5208ZM32.0719 24.76V23.08H30.0719V24.76H32.0719ZM32.0719 23.08C32.0719 22.3195 31.9296 21.6052 31.5835 20.9897L29.8403 21.9703C29.9741 22.2081 30.0719 22.5605 30.0719 23.08H32.0719ZM31.5957 21.0121C31.2833 20.4221 30.8541 19.9329 30.3066 19.5679L29.1972 21.232C29.4497 21.4004 29.6605 21.6313 29.8281 21.9479L31.5957 21.0121ZM30.3331 19.5863C29.8253 19.2235 29.2347 18.9888 28.588 18.8594L28.1958 20.8206C28.6158 20.9046 28.9318 21.0431 29.1706 21.2137L30.3331 19.5863ZM28.6464 18.8729C28.0511 18.7163 27.4319 18.64 26.7919 18.64V20.64C27.2719 20.64 27.7193 20.697 28.1374 20.8071L28.6464 18.8729ZM26.7919 18.64C26.1779 18.64 25.5778 18.7373 24.9956 18.9313L25.6281 20.8287C26.006 20.7027 26.3925 20.64 26.7919 20.64V18.64ZM24.9791 18.937C24.4181 19.135 23.9105 19.4204 23.4659 19.7966L24.7578 21.3234C25.0065 21.1129 25.299 20.945 25.6447 20.823L24.9791 18.937ZM23.4659 19.7966C23.0107 20.1818 22.6482 20.6512 22.3774 21.1928L24.1663 22.0872C24.3222 21.7755 24.5197 21.5249 24.7578 21.3234L23.4659 19.7966ZM22.3774 21.1928C22.0869 21.774 21.9519 22.4099 21.9519 23.08H23.9519C23.9519 22.6834 24.0302 22.3594 24.1663 22.0872L22.3774 21.1928ZM21.9519 23.08V28.32H23.9519V23.08H21.9519ZM22.9434 29.32L27.6634 29.36L27.6803 27.36L22.9603 27.32L22.9434 29.32ZM21.8719 23.28C21.8719 22.5932 21.9859 21.9692 22.2052 21.399L20.3385 20.681C20.0245 21.4975 19.8719 22.3668 19.8719 23.28H21.8719ZM22.1928 21.4296C22.4432 20.8378 22.7664 20.3409 23.1578 19.9277L21.7059 18.5523C21.1373 19.1524 20.6872 19.8555 20.3509 20.6504L22.1928 21.4296ZM23.139 19.9471C23.5631 19.523 24.0385 19.192 24.5685 18.9491L23.7352 17.1309C22.9852 17.4747 22.314 17.9437 21.7248 18.5329L23.139 19.9471ZM24.5546 18.9553C25.0866 18.7212 25.6685 18.6 26.3119 18.6V16.6C25.4086 16.6 24.5505 16.7721 23.7491 17.1247L24.5546 18.9553ZM26.3119 18.6H27.6719V16.6H26.3119V18.6ZM27.6719 18.6C28.2835 18.6 28.8526 18.7193 29.3891 18.9553L30.1946 17.1247C29.3978 16.7741 28.5536 16.6 27.6719 16.6V18.6ZM29.3891 18.9553C29.9442 19.1996 30.4272 19.5296 30.8448 19.9471L32.259 18.5329C31.6632 17.9371 30.9729 17.4671 30.1946 17.1247L29.3891 18.9553ZM30.8448 19.9471C31.2488 20.3512 31.5602 20.8313 31.7785 21.399L33.6452 20.681C33.3302 19.862 32.8682 19.1422 32.259 18.5329L30.8448 19.9471ZM31.7909 21.4296C32.0289 21.9921 32.1519 22.6053 32.1519 23.28H34.1519C34.1519 22.3546 33.9816 21.4746 33.6328 20.6504L31.7909 21.4296ZM32.1519 23.28V24.6H34.1519V23.28H32.1519ZM32.1519 24.6C32.1519 25.6045 31.9722 26.3841 31.6637 26.9806L33.4401 27.8994C33.9315 26.9493 34.1519 25.8355 34.1519 24.6H32.1519ZM31.6704 26.9678C31.3449 27.5753 30.905 28.0685 30.3427 28.4578L31.4811 30.1022C32.3054 29.5315 32.9588 28.798 33.4334 27.9122L31.6704 26.9678ZM30.3427 28.4578C29.7672 28.8562 29.0749 29.1564 28.2491 29.3451L28.6947 31.2949C29.7355 31.057 30.6699 30.6638 31.4811 30.1022L30.3427 28.4578ZM28.2702 29.3405C27.4375 29.512 26.5323 29.6 25.5519 29.6V31.6C26.6514 31.6 27.693 31.5013 28.6735 31.2995L28.2702 29.3405ZM25.5519 29.6C25.1461 29.6 24.7402 29.5873 24.3343 29.5619L24.2095 31.5581C24.6569 31.586 25.1044 31.6 25.5519 31.6V29.6ZM24.3343 29.5619C23.927 29.5365 23.5052 29.4982 23.0687 29.4468L22.835 31.4332C23.3053 31.4885 23.7635 31.5302 24.2095 31.5581L24.3343 29.5619ZM21.9519 30.44V32.84H23.9519V30.44H21.9519ZM21.9668 33.0124C22.1929 34.3041 22.8055 35.3795 23.8072 36.1809L25.0566 34.6191C24.4583 34.1405 24.0842 33.5092 23.9369 32.6676L21.9668 33.0124ZM23.836 36.2031C24.837 36.9457 25.9797 37.32 27.2319 37.32V35.32C26.4041 35.32 25.6801 35.0809 25.0277 34.5969L23.836 36.2031ZM27.2319 37.32C27.379 37.32 27.5696 37.2915 27.7199 37.2674C27.9006 37.2385 28.1349 37.1964 28.419 37.1423L28.0448 35.1777C27.7688 35.2302 27.5565 35.2681 27.4039 35.2926C27.3273 35.3048 27.2718 35.3127 27.234 35.3173C27.186 35.3231 27.195 35.32 27.2319 35.32V37.32ZM28.4535 37.1351C29.0338 37.0032 29.6412 36.8712 30.2758 36.739L29.8679 34.781C29.2225 34.9155 28.6033 35.0501 28.0103 35.1849L28.4535 37.1351ZM30.2814 36.7378C31.0358 36.5761 31.8691 36.388 32.7809 36.1734L32.3228 34.2266C31.4213 34.4387 30.6013 34.6239 29.8623 34.7822L30.2814 36.7378ZM31.5766 35.4208L32.0566 37.5408L34.0072 37.0992L33.5272 34.9792L31.5766 35.4208ZM32.8205 36.3426C31.8459 36.5533 30.9685 36.7234 30.1875 36.8536L30.5163 38.8264C31.3352 38.6899 32.2446 38.5133 33.2432 38.2974L32.8205 36.3426ZM30.163 36.858C29.4771 36.9899 28.8186 37.1084 28.1875 37.2136L28.5163 39.1864C29.1651 39.0783 29.84 38.9568 30.5407 38.822L30.163 36.858ZM28.1805 37.2148C27.8783 37.2673 27.6428 37.3054 27.4705 37.3301C27.275 37.358 27.2167 37.36 27.2319 37.36V39.36C27.3804 39.36 27.5754 39.3354 27.7533 39.3099C27.9543 39.2812 28.2121 39.2393 28.5232 39.1852L28.1805 37.2148ZM27.2319 37.36C26.4958 37.36 25.803 37.234 25.1465 36.985L24.4372 38.855C25.3275 39.1927 26.2613 39.36 27.2319 39.36V37.36ZM25.1742 36.996C24.5114 36.7217 23.9367 36.3486 23.4424 35.8766L22.0614 37.3234C22.7403 37.9714 23.5257 38.4783 24.4095 38.844L25.1742 36.996ZM23.4424 35.8766C22.9475 35.4043 22.5537 34.8539 22.2589 34.2189L20.4449 35.0611C20.8434 35.9194 21.3829 36.6757 22.0614 37.3234L23.4424 35.8766ZM22.2759 34.2576C22.0101 33.6153 21.8719 32.9065 21.8719 32.12H19.8719C19.8719 33.1468 20.0536 34.118 20.4279 35.0224L22.2759 34.2576ZM21.8719 32.12V23.28H19.8719V32.12H21.8719ZM46.5209 18V17H45.7176L45.5444 17.7845L46.5209 18ZM48.5609 18L49.5363 18.2204L49.8122 17H48.5609V18ZM44.0409 38V39H44.8402L45.0163 38.2204L44.0409 38ZM40.6409 38L39.6681 38.2315L39.851 39H40.6409V38ZM35.8809 18V17H34.615L34.9081 18.2315L35.8809 18ZM37.8809 18L38.8511 17.7575L38.6617 17H37.8809V18ZM40.8809 30L39.9108 30.2425L39.9127 30.2501L39.9147 30.2577L40.8809 30ZM41.2009 31.52L40.2157 31.6913L40.2201 31.7166L40.2258 31.7416L41.2009 31.52ZM41.5609 33.24L40.5786 33.4271L40.5786 33.4271L41.5609 33.24ZM41.8409 34.68L40.8604 34.8761L40.8604 34.8761L41.8409 34.68ZM41.9609 35.28L40.9804 35.4761L41.1411 36.28H41.9609V35.28ZM42.7609 35.28V36.28H43.5631L43.7371 35.4969L42.7609 35.28ZM43.2009 33.2L42.2281 32.9684L42.2239 32.9861L42.2204 33.0039L43.2009 33.2ZM43.5609 31.48L44.5448 31.6589L44.5461 31.6513L43.5609 31.48ZM43.8809 29.96L44.8472 30.2177L44.8528 30.1967L44.8574 30.1755L43.8809 29.96ZM46.5209 19H48.5609V17H46.5209V19ZM47.5855 17.7796L43.0655 37.7796L45.0163 38.2204L49.5363 18.2204L47.5855 17.7796ZM44.0409 37H40.6409V39H44.0409V37ZM41.6138 37.7685L36.8538 17.7685L34.9081 18.2315L39.6681 38.2315L41.6138 37.7685ZM35.8809 19H37.8809V17H35.8809V19ZM36.9108 18.2425L39.9108 30.2425L41.8511 29.7575L38.8511 17.7575L36.9108 18.2425ZM39.9147 30.2577C40.011 30.6189 40.1119 31.0942 40.2157 31.6913L42.1861 31.3487C42.0767 30.7192 41.9642 30.1811 41.8472 29.7423L39.9147 30.2577ZM40.2258 31.7416C40.3567 32.3175 40.4742 32.8793 40.5786 33.4271L42.5433 33.0529C42.4343 32.4807 42.3119 31.8959 42.1761 31.2984L40.2258 31.7416ZM40.5786 33.4271C40.6856 33.989 40.7796 34.4722 40.8604 34.8761L42.8215 34.4839C42.7423 34.0878 42.6496 33.611 42.5433 33.0529L40.5786 33.4271ZM40.8604 34.8761C40.8802 34.9755 40.8698 34.9236 40.8885 35.0167C40.8907 35.0276 40.8896 35.0222 40.8917 35.033C40.9035 35.0918 40.8816 34.9822 40.8933 35.041C40.8955 35.0517 40.8928 35.0384 40.8949 35.049C40.8951 35.0496 40.8952 35.0503 40.8953 35.0509C40.8955 35.0516 40.8956 35.0523 40.8957 35.0529C40.8958 35.0536 40.896 35.0542 40.8961 35.0549C40.8962 35.0555 40.8964 35.0562 40.8965 35.0568C40.9069 35.1088 40.8877 35.0127 40.8981 35.0646C40.9012 35.0802 40.8965 35.0569 40.8996 35.0724C40.8997 35.073 40.8999 35.0736 40.9 35.0743C40.9001 35.0749 40.9002 35.0756 40.9004 35.0762C40.9009 35.0788 40.9006 35.0775 40.9011 35.08C40.9112 35.1306 40.8926 35.0371 40.9027 35.0876C40.9067 35.1077 40.9001 35.075 40.9042 35.0951C40.9043 35.0957 40.9044 35.0964 40.9045 35.097C40.9047 35.0976 40.9048 35.0982 40.9049 35.0988C40.905 35.0995 40.9051 35.1001 40.9053 35.1007C40.9054 35.1013 40.9055 35.1019 40.9056 35.1025C40.9058 35.1032 40.9059 35.1038 40.906 35.1044C40.9061 35.105 40.9063 35.1056 40.9064 35.1062C40.9088 35.1184 40.9047 35.0977 40.9071 35.1099C40.9149 35.1489 40.9008 35.0782 40.9086 35.1172C40.9087 35.1178 40.9088 35.1184 40.9089 35.119C40.9091 35.1196 40.9092 35.1202 40.9093 35.1208C40.9098 35.1232 40.9095 35.122 40.91 35.1244C40.911 35.1292 40.9105 35.1268 40.9114 35.1315C40.92 35.1742 40.9043 35.096 40.9129 35.1386C40.9166 35.1573 40.9098 35.1235 40.9136 35.1421C40.9137 35.1427 40.9138 35.1433 40.9139 35.1439C40.914 35.1445 40.9141 35.145 40.9143 35.1456C40.9144 35.1462 40.9145 35.1468 40.9146 35.1473C40.9147 35.1479 40.9148 35.1485 40.915 35.1491C40.9172 35.1606 40.9133 35.1411 40.9156 35.1525C40.9276 35.2122 40.9051 35.0997 40.917 35.1594C40.9184 35.1662 40.9163 35.156 40.9177 35.1628C40.9222 35.1853 40.9139 35.1436 40.9184 35.1662C40.9185 35.1667 40.9186 35.1673 40.9187 35.1678C40.9188 35.1684 40.9189 35.169 40.919 35.1695C40.9195 35.1717 40.9193 35.1706 40.9197 35.1729C40.9241 35.195 40.9159 35.154 40.9204 35.1762C40.9205 35.1767 40.9206 35.1773 40.9207 35.1778C40.9208 35.1784 40.9209 35.1789 40.921 35.1795C40.9296 35.2225 40.9151 35.1496 40.9236 35.1925C40.9297 35.2226 40.9189 35.1689 40.9249 35.1989C40.9253 35.201 40.9251 35.2 40.9256 35.2021C40.9257 35.2026 40.9258 35.2032 40.9259 35.2037C40.926 35.2042 40.9261 35.2047 40.9262 35.2053C40.9263 35.2058 40.9264 35.2063 40.9265 35.2068C40.9266 35.2074 40.9267 35.2079 40.9268 35.2084C40.9269 35.2089 40.927 35.2094 40.9271 35.21C40.9272 35.2105 40.9273 35.211 40.9274 35.2115C40.9275 35.212 40.9276 35.2126 40.9278 35.2131C40.9279 35.2136 40.928 35.2141 40.9281 35.2146C40.9289 35.2188 40.9279 35.2136 40.9287 35.2177C40.9335 35.2418 40.9263 35.2058 40.9311 35.2299C40.9469 35.309 40.9177 35.1627 40.9335 35.2417C40.946 35.3043 40.9302 35.2252 40.9424 35.2863C40.9506 35.3274 40.9363 35.2557 40.9445 35.2967C40.9446 35.2971 40.9446 35.2975 40.9447 35.298C40.9448 35.2984 40.9449 35.2988 40.945 35.2992C40.9451 35.2997 40.9451 35.3001 40.9452 35.3005C40.9453 35.3009 40.9454 35.3013 40.9455 35.3018C40.9501 35.325 40.9418 35.2835 40.9465 35.3068C40.9466 35.3072 40.9467 35.3076 40.9467 35.308C40.9468 35.3084 40.9469 35.3088 40.947 35.3093C40.9499 35.324 40.9445 35.297 40.9475 35.3117C40.9507 35.3281 40.9452 35.3003 40.9485 35.3166C40.9491 35.3198 40.9488 35.3182 40.9494 35.3214C40.9495 35.3218 40.9496 35.3222 40.9497 35.3226C40.9497 35.323 40.9498 35.3234 40.9499 35.3238C40.95 35.3242 40.95 35.3246 40.9501 35.3249C40.9502 35.3253 40.9503 35.3257 40.9504 35.3261C40.951 35.3292 40.9507 35.3277 40.9513 35.3308C40.9543 35.3459 40.9492 35.3202 40.9522 35.3353C40.9546 35.3474 40.9516 35.3323 40.954 35.3443C40.9585 35.367 40.9512 35.3303 40.9557 35.3529C40.9658 35.4031 40.9474 35.3112 40.9574 35.3613C40.9575 35.3616 40.9575 35.362 40.9576 35.3623C40.9577 35.3626 40.9577 35.363 40.9578 35.3633C40.9602 35.3754 40.9558 35.3533 40.9582 35.3653C40.9609 35.3787 40.9559 35.354 40.9586 35.3673C40.9587 35.3677 40.9587 35.368 40.9588 35.3683C40.9589 35.3687 40.9589 35.369 40.959 35.3693C40.9595 35.3719 40.9589 35.3687 40.9594 35.3713C40.9595 35.3716 40.9595 35.3719 40.9596 35.3723C40.9597 35.3726 40.9597 35.3729 40.9598 35.3732C40.96 35.3745 40.9599 35.3739 40.9602 35.3752C40.9607 35.3777 40.96 35.3746 40.9606 35.3771C40.9695 35.422 40.9531 35.3398 40.962 35.3846C40.9699 35.4236 40.9557 35.3528 40.9635 35.3917C40.9756 35.4522 40.9542 35.3451 40.9662 35.4052C40.981 35.4791 40.9539 35.344 40.9686 35.4175C40.9698 35.4234 40.968 35.4146 40.9692 35.4204C40.9709 35.4289 40.9678 35.4134 40.9695 35.4218C40.9712 35.4302 40.9681 35.4148 40.9698 35.4232C40.9698 35.4235 40.9699 35.4237 40.9699 35.4239C40.97 35.4242 40.97 35.4244 40.9701 35.4246C40.9708 35.4282 40.9696 35.4224 40.9703 35.426C40.9704 35.4262 40.9704 35.4264 40.9705 35.4267C40.9705 35.4269 40.9706 35.4271 40.9706 35.4273C40.9713 35.4309 40.9702 35.4251 40.9709 35.4287C40.9755 35.452 40.9672 35.4105 40.9719 35.4338C40.9734 35.4412 40.9707 35.4276 40.9721 35.435C40.9722 35.4352 40.9722 35.4354 40.9723 35.4356C40.9723 35.4358 40.9723 35.436 40.9724 35.4362C40.9732 35.4402 40.9718 35.4335 40.9726 35.4374C40.9727 35.4376 40.9727 35.4378 40.9727 35.438C40.9728 35.4382 40.9728 35.4384 40.9729 35.4386C40.9811 35.4796 40.9665 35.4068 40.9746 35.4474C40.9756 35.4522 40.9739 35.4437 40.9748 35.4484C40.9749 35.4486 40.9749 35.4488 40.9749 35.4489C40.975 35.4491 40.975 35.4493 40.975 35.4494C40.976 35.4545 40.9744 35.4463 40.9754 35.4514C40.9762 35.4552 40.9748 35.4485 40.9756 35.4523C40.9756 35.4525 40.9757 35.4526 40.9757 35.4528C40.9757 35.4529 40.9757 35.4531 40.9758 35.4532C40.9758 35.4534 40.9758 35.4535 40.9759 35.4537C40.9759 35.4538 40.9759 35.454 40.976 35.4541C40.976 35.4543 40.976 35.4544 40.9761 35.4546C40.9761 35.4547 40.9761 35.4549 40.9761 35.455C40.9815 35.4816 40.9735 35.4417 40.9785 35.4667C40.9829 35.4886 40.975 35.4494 40.9793 35.4708C40.9803 35.4758 40.9786 35.4676 40.9796 35.4725C40.9798 35.4732 40.9796 35.4721 40.9797 35.4728C40.9797 35.4729 40.9797 35.4729 40.9797 35.473C40.9797 35.473 40.9798 35.4731 40.9798 35.4732C40.98 35.4743 40.9797 35.4726 40.9799 35.4738C40.9808 35.4785 40.9792 35.4702 40.9801 35.4748C40.9808 35.4784 40.9795 35.472 40.9802 35.4755C40.9807 35.4779 40.9799 35.4737 40.9803 35.476C40.9804 35.4762 40.9803 35.4758 40.9804 35.4761C40.9804 35.4761 40.9803 35.4761 40.9804 35.4761C40.9804 35.4761 40.9804 35.4761 40.9804 35.4761C40.9804 35.4761 40.9804 35.4761 41.9609 35.28C42.9415 35.0839 42.9415 35.0839 42.9415 35.0839C42.9415 35.0839 42.9415 35.0839 42.9415 35.0839C42.9415 35.0839 42.9415 35.0839 42.9415 35.0839C42.9415 35.0839 42.9415 35.0839 42.9415 35.0838C42.9415 35.0838 42.9415 35.0838 42.9415 35.0838C42.9415 35.0838 42.9415 35.0838 42.9415 35.0838C42.9415 35.0838 42.9415 35.0838 42.9415 35.0838C42.9415 35.0838 42.9415 35.0837 42.9415 35.0837C42.9414 35.0833 42.9415 35.084 42.9415 35.0836C42.9412 35.0824 42.9416 35.0845 42.9414 35.0833C42.9413 35.0827 42.9415 35.0837 42.9414 35.0831C42.9414 35.0831 42.9414 35.0831 42.9414 35.0831C42.9413 35.083 42.9413 35.083 42.9413 35.083C42.9409 35.081 42.9417 35.0845 42.9413 35.0826C42.9412 35.0825 42.9412 35.0825 42.9412 35.0825C42.9412 35.0824 42.9412 35.0824 42.9412 35.0823C42.9412 35.0823 42.9412 35.0823 42.9412 35.0822C42.9412 35.0822 42.9412 35.0821 42.9412 35.0821C42.9408 35.0802 42.9415 35.0837 42.9411 35.0818C42.9411 35.0818 42.9411 35.0817 42.9411 35.0817C42.9411 35.0816 42.9411 35.0816 42.941 35.0815C42.9395 35.0737 42.9421 35.0868 42.9405 35.0786C42.9404 35.0785 42.9404 35.0785 42.9404 35.0784C42.9404 35.0783 42.9404 35.0782 42.9404 35.0782C42.9404 35.0781 42.9403 35.078 42.9403 35.0779C42.9403 35.0779 42.9403 35.0778 42.9403 35.0777C42.9395 35.0739 42.9409 35.081 42.9402 35.0772C42.9402 35.0771 42.9402 35.077 42.9401 35.077C42.9401 35.0769 42.9401 35.0768 42.9401 35.0767C42.9398 35.0753 42.9399 35.076 42.9396 35.0745C42.9234 34.9931 42.9516 35.1341 42.934 35.0464C42.9286 35.0194 42.9355 35.0539 42.9298 35.0253C42.9173 34.9627 42.9375 35.0637 42.9246 34.9995C42.9186 34.9695 42.9278 35.0153 42.9217 34.9849C42.9187 34.9696 42.9232 34.9924 42.9202 34.9771C42.918 34.9663 42.9207 34.98 42.9185 34.969C42.9142 34.9472 42.9221 34.9868 42.9177 34.9649C42.9146 34.9495 42.9204 34.9782 42.9173 34.9628C42.9172 34.9625 42.9172 34.9621 42.9171 34.9617C42.917 34.9614 42.917 34.961 42.9169 34.9607C42.9155 34.9536 42.9179 34.9656 42.9165 34.9586C42.9144 34.9485 42.918 34.9665 42.916 34.9564C42.9154 34.9535 42.9157 34.955 42.9152 34.952C42.9151 34.9517 42.915 34.9513 42.9149 34.9509C42.9149 34.9506 42.9148 34.9502 42.9147 34.9498C42.9146 34.9495 42.9146 34.9491 42.9145 34.9487C42.9144 34.9484 42.9143 34.948 42.9143 34.9476C42.9134 34.9431 42.9147 34.9498 42.9138 34.9454C42.9132 34.9424 42.914 34.9461 42.9134 34.9431C42.9133 34.9427 42.9132 34.9424 42.9131 34.942C42.9131 34.9416 42.913 34.9412 42.9129 34.9408C42.9128 34.9405 42.9128 34.9401 42.9127 34.9397C42.9126 34.9393 42.9125 34.9389 42.9124 34.9385C42.9124 34.9381 42.9123 34.9378 42.9122 34.9374C42.9121 34.937 42.9121 34.9366 42.912 34.9362C42.9119 34.9358 42.9118 34.9354 42.9118 34.9351C42.9117 34.9347 42.9116 34.9343 42.9115 34.9339C42.9115 34.9339 42.9096 34.9245 42.9096 34.9244C42.9043 34.8979 42.913 34.9411 42.9077 34.9145C42.9076 34.9141 42.9075 34.9137 42.9074 34.9133C42.9073 34.9129 42.9072 34.9125 42.9072 34.912C42.9071 34.9116 42.907 34.9112 42.9069 34.9108C42.9068 34.9104 42.9067 34.91 42.9066 34.9095C42.9039 34.896 42.9089 34.9206 42.9061 34.907C42.9061 34.9066 42.906 34.9061 42.9059 34.9057C42.9058 34.9053 42.9057 34.9049 42.9056 34.9044C42.9019 34.8856 42.9089 34.9207 42.9051 34.9019C42.9041 34.8967 42.9056 34.9045 42.9046 34.8993C42.9045 34.8988 42.9044 34.8984 42.9043 34.898C42.9042 34.8975 42.9042 34.8971 42.9041 34.8967C42.902 34.8862 42.9056 34.9045 42.9035 34.894C42.9014 34.8834 42.9046 34.8994 42.9025 34.8887C42.8986 34.8691 42.9059 34.9057 42.902 34.886C42.898 34.8662 42.9054 34.9032 42.9014 34.8833C42.8906 34.8291 42.9112 34.9321 42.9003 34.8779C42.8944 34.8482 42.9052 34.902 42.8992 34.8724C42.8962 34.8575 42.8999 34.876 42.897 34.8611C42.8939 34.8456 42.8978 34.8651 42.8946 34.8495C42.8822 34.7871 42.9024 34.8883 42.8898 34.8255C42.8798 34.7753 42.8974 34.8634 42.8873 34.813C42.8789 34.771 42.8945 34.8487 42.8861 34.8067C42.8844 34.7982 42.8872 34.812 42.8854 34.8035C42.8853 34.803 42.8852 34.8024 42.8851 34.8019C42.885 34.8014 42.8849 34.8008 42.8848 34.8003C42.8779 34.7659 42.8812 34.7824 42.874 34.7464C42.8581 34.6666 42.8786 34.7692 42.8623 34.6878C42.8572 34.6624 42.8659 34.7056 42.8608 34.6801C42.8536 34.6441 42.8672 34.7123 42.86 34.6763C42.8599 34.6756 42.8597 34.675 42.8596 34.6743C42.8595 34.6737 42.8594 34.6731 42.8592 34.6724C42.8566 34.6595 42.861 34.6815 42.8584 34.6685C42.8501 34.6267 42.866 34.7064 42.8577 34.6646C42.8556 34.6542 42.8582 34.6672 42.8561 34.6567C42.8475 34.6139 42.8615 34.6837 42.8529 34.6408C42.8518 34.6354 42.8524 34.6381 42.8513 34.6327C42.8491 34.6218 42.8518 34.6355 42.8496 34.6245C42.8453 34.6026 42.8532 34.6423 42.8488 34.6204C42.8416 34.5845 42.8552 34.6521 42.848 34.6163C42.8479 34.6156 42.8477 34.6149 42.8476 34.6142C42.8474 34.6135 42.8473 34.6128 42.8472 34.6121C42.8438 34.5955 42.8497 34.6246 42.8463 34.608C42.843 34.5911 42.848 34.6164 42.8447 34.5996C42.8418 34.5855 42.8466 34.6094 42.8438 34.5953C42.8437 34.5946 42.8435 34.5939 42.8434 34.5932C42.8432 34.5925 42.8431 34.5918 42.843 34.5911C42.8428 34.5904 42.8427 34.5897 42.8425 34.589C42.8424 34.5883 42.8423 34.5876 42.8421 34.5869C42.841 34.5812 42.8424 34.5883 42.8413 34.5826C42.8411 34.5819 42.841 34.5811 42.8408 34.5804C42.8407 34.5797 42.8405 34.579 42.8404 34.5783C42.8403 34.5776 42.8401 34.5768 42.84 34.5761C42.8398 34.5754 42.8397 34.5747 42.8395 34.574C42.839 34.5711 42.8392 34.5725 42.8387 34.5696C42.8381 34.5667 42.8384 34.5682 42.8378 34.5653C42.8377 34.5646 42.8375 34.5638 42.8374 34.5631C42.8372 34.5624 42.8371 34.5617 42.8369 34.5609C42.8369 34.5609 42.8361 34.5565 42.836 34.5565C42.8359 34.5558 42.8358 34.5551 42.8356 34.5543C42.8355 34.5536 42.8353 34.5529 42.8352 34.5521C42.835 34.5514 42.8349 34.5507 42.8347 34.5499C42.8346 34.5492 42.8344 34.5485 42.8343 34.5477C42.8341 34.547 42.834 34.5462 42.8338 34.5455C42.8337 34.5448 42.8335 34.544 42.8334 34.5433C42.8332 34.5425 42.8331 34.5418 42.833 34.541C42.8328 34.5403 42.8327 34.5396 42.8325 34.5388C42.8277 34.515 42.8355 34.5537 42.8307 34.5298C42.8306 34.5291 42.8304 34.5283 42.8303 34.5276C42.8301 34.5268 42.83 34.5261 42.8298 34.5253C42.8297 34.5246 42.8295 34.5238 42.8294 34.5231C42.8292 34.5223 42.8291 34.5216 42.8289 34.5208C42.8287 34.52 42.8286 34.5193 42.8284 34.5185C42.8283 34.5178 42.8281 34.517 42.828 34.5162C42.8278 34.5155 42.8277 34.5147 42.8275 34.514C42.8274 34.5132 42.8272 34.5124 42.8271 34.5117C42.8234 34.4934 42.8289 34.5208 42.8252 34.5025C42.8251 34.5017 42.8249 34.5009 42.8248 34.5002C42.8246 34.4994 42.8245 34.4986 42.8243 34.4979C42.8242 34.4971 42.824 34.4963 42.8239 34.4955C42.8237 34.4948 42.8235 34.494 42.8234 34.4932C42.8228 34.4901 42.8231 34.4917 42.8225 34.4886C42.8223 34.4878 42.8221 34.487 42.822 34.4862C42.8218 34.4854 42.8217 34.4847 42.8215 34.4839L40.8604 34.8761ZM41.9609 36.28H42.7609V34.28H41.9609V36.28ZM43.7371 35.4969C43.8985 34.7706 44.0467 34.0703 44.1815 33.3961L42.2204 33.0039C42.0885 33.663 41.9433 34.3494 41.7848 35.0631L43.7371 35.4969ZM44.1737 33.4316C44.3114 32.8535 44.435 32.2626 44.5448 31.6589L42.5771 31.3011C42.4735 31.8707 42.3572 32.4265 42.2281 32.9684L44.1737 33.4316ZM44.5461 31.6513C44.65 31.0542 44.7509 30.5789 44.8472 30.2177L42.9147 29.7023C42.7977 30.1411 42.6852 30.6792 42.5757 31.3087L44.5461 31.6513ZM44.8574 30.1755L47.4974 18.2155L45.5444 17.7845L42.9044 29.7445L44.8574 30.1755ZM58.4922 28.36L58.4837 29.36H58.4922V28.36ZM59.8922 28.08L60.3151 28.9862L60.3392 28.9749L60.3628 28.9624L59.8922 28.08ZM60.9322 27.28L61.6693 27.9557L61.6828 27.9411L61.6956 27.9259L60.9322 27.28ZM61.6122 26.12L60.696 25.7192L60.6853 25.7438L60.6759 25.7689L61.6122 26.12ZM61.5322 21.48L60.6484 21.9479L60.6544 21.9592L60.6606 21.9703L61.5322 21.48ZM60.5722 20.4L59.991 21.2137L60.0041 21.2231L60.0175 21.232L60.5722 20.4ZM59.2122 19.84L58.9577 20.8071L58.9867 20.8147L59.0161 20.8206L59.2122 19.84ZM56.1322 19.88L55.816 18.9313L55.8076 18.9341L55.7994 18.937L56.1322 19.88ZM54.9322 20.56L55.5781 21.3234L55.5781 21.3234L54.9322 20.56ZM54.0922 21.64L53.1978 21.1928L53.1978 21.1928L54.0922 21.64ZM53.7722 28.32H52.7722V29.3116L53.7637 29.32L53.7722 28.32ZM52.0922 21.04L51.1712 20.6504L51.1648 20.6656L51.1588 20.681L52.0922 21.04ZM53.2522 19.24L52.5451 18.5329L52.5355 18.5424L52.5262 18.5523L53.2522 19.24ZM54.9722 18.04L54.5694 17.1247L54.5625 17.1278L54.5555 17.1309L54.9722 18.04ZM60.6122 18.04L60.2094 18.9553L60.2095 18.9553L60.6122 18.04ZM63.5322 21.04L62.5988 21.399L62.6048 21.4144L62.6112 21.4296L63.5322 21.04ZM63.3722 27.44L64.2537 27.9122L64.2571 27.9058L64.2604 27.8994L63.3722 27.44ZM61.7322 29.28L62.3014 30.1022L62.3014 30.1022L61.7322 29.28ZM59.2922 30.32L59.4938 31.2995L59.5045 31.2973L59.515 31.2949L59.2922 30.32ZM55.0922 30.56L55.0298 31.5581L55.0298 31.5581L55.0922 30.56ZM53.7722 30.44L53.889 29.4468L52.7722 29.3155V30.44H53.7722ZM53.7722 32.84H52.7722V32.9268L52.7872 33.0124L53.7722 32.84ZM55.2522 35.4L54.6275 36.1809L54.6417 36.1922L54.6563 36.2031L55.2522 35.4ZM59.0522 36.16L59.2393 37.1423L59.2566 37.139L59.2738 37.1351L59.0522 36.16ZM60.8922 35.76L61.0961 36.739L61.1017 36.7378L60.8922 35.76ZM63.3722 35.2L64.3475 34.9792L64.1248 33.9956L63.1431 34.2266L63.3722 35.2ZM63.8522 37.32L64.0635 38.2974L65.0505 38.084L64.8275 37.0992L63.8522 37.32ZM61.1722 37.84L61.0078 36.8536L60.9955 36.8556L60.9833 36.858L61.1722 37.84ZM59.1722 38.2L59.0078 37.2136L59.0008 37.2148L59.1722 38.2ZM55.6122 37.92L55.2298 38.844L55.2436 38.8497L55.2575 38.855L55.6122 37.92ZM53.5722 36.6L52.8817 37.3234L52.8817 37.3234L53.5722 36.6ZM52.1722 34.64L51.2482 35.0224L51.2563 35.0419L51.2652 35.0611L52.1722 34.64ZM58.4922 29.36H58.5722V27.36H58.4922V29.36ZM58.5722 29.36C59.1854 29.36 59.7714 29.2399 60.3151 28.9862L59.4693 27.1738C59.213 27.2934 58.919 27.36 58.5722 27.36V29.36ZM60.3628 28.9624C60.8582 28.6981 61.2961 28.3629 61.6693 27.9557L60.195 26.6043C59.9816 26.8371 59.7262 27.0352 59.4216 27.1976L60.3628 28.9624ZM61.6956 27.9259C62.0633 27.4913 62.3484 27.0049 62.5485 26.4711L60.6759 25.7689C60.556 26.0885 60.3877 26.3753 60.1688 26.6341L61.6956 27.9259ZM62.5283 26.5208C62.772 25.9638 62.8922 25.3736 62.8922 24.76H60.8922C60.8922 25.1064 60.8257 25.4228 60.696 25.7192L62.5283 26.5208ZM62.8922 24.76V23.08H60.8922V24.76H62.8922ZM62.8922 23.08C62.8922 22.3195 62.75 21.6052 62.4038 20.9897L60.6606 21.9703C60.7944 22.2081 60.8922 22.5605 60.8922 23.08H62.8922ZM62.416 21.0121C62.1036 20.4221 61.6744 19.9329 61.1269 19.5679L60.0175 21.232C60.27 21.4004 60.4808 21.6313 60.6484 21.9479L62.416 21.0121ZM61.1534 19.5863C60.6456 19.2235 60.055 18.9888 59.4083 18.8594L59.0161 20.8206C59.4361 20.9046 59.7521 21.0431 59.991 21.2137L61.1534 19.5863ZM59.4667 18.8729C58.8714 18.7163 58.2522 18.64 57.6122 18.64V20.64C58.0922 20.64 58.5396 20.697 58.9577 20.8071L59.4667 18.8729ZM57.6122 18.64C56.9982 18.64 56.3981 18.7373 55.816 18.9313L56.4484 20.8287C56.8263 20.7027 57.2129 20.64 57.6122 20.64V18.64ZM55.7994 18.937C55.2384 19.135 54.7309 19.4204 54.2862 19.7966L55.5781 21.3234C55.8269 21.1129 56.1193 20.945 56.465 20.823L55.7994 18.937ZM54.2862 19.7966C53.831 20.1818 53.4685 20.6512 53.1978 21.1928L54.9866 22.0872C55.1425 21.7755 55.34 21.5249 55.5781 21.3234L54.2862 19.7966ZM53.1978 21.1928C52.9072 21.774 52.7722 22.4099 52.7722 23.08H54.7722C54.7722 22.6834 54.8505 22.3594 54.9866 22.0872L53.1978 21.1928ZM52.7722 23.08V28.32H54.7722V23.08H52.7722ZM53.7637 29.32L58.4837 29.36L58.5007 27.36L53.7807 27.32L53.7637 29.32ZM52.6922 23.28C52.6922 22.5932 52.8062 21.9692 53.0255 21.399L51.1588 20.681C50.8448 21.4975 50.6922 22.3668 50.6922 23.28H52.6922ZM53.0132 21.4296C53.2635 20.8378 53.5867 20.3409 53.9781 19.9277L52.5262 18.5523C51.9577 19.1524 51.5075 19.8555 51.1712 20.6504L53.0132 21.4296ZM53.9593 19.9471C54.3834 19.523 54.8588 19.192 55.3888 18.9491L54.5555 17.1309C53.8055 17.4747 53.1343 17.9437 52.5451 18.5329L53.9593 19.9471ZM55.3749 18.9553C55.9069 18.7212 56.4888 18.6 57.1322 18.6V16.6C56.2289 16.6 55.3708 16.7721 54.5694 17.1247L55.3749 18.9553ZM57.1322 18.6H58.4922V16.6H57.1322V18.6ZM58.4922 18.6C59.1038 18.6 59.6729 18.7193 60.2094 18.9553L61.0149 17.1247C60.2181 16.7741 59.3739 16.6 58.4922 16.6V18.6ZM60.2095 18.9553C60.7645 19.1996 61.2476 19.5296 61.6651 19.9471L63.0793 18.5329C62.4835 17.9371 61.7932 17.4671 61.0149 17.1247L60.2095 18.9553ZM61.6651 19.9471C62.0692 20.3512 62.3805 20.8313 62.5988 21.399L64.4655 20.681C64.1505 19.862 63.6886 19.1422 63.0793 18.5329L61.6651 19.9471ZM62.6112 21.4296C62.8492 21.9921 62.9722 22.6053 62.9722 23.28H64.9722C64.9722 22.3546 64.8019 21.4746 64.4532 20.6504L62.6112 21.4296ZM62.9722 23.28V24.6H64.9722V23.28H62.9722ZM62.9722 24.6C62.9722 25.6045 62.7925 26.3841 62.484 26.9806L64.2604 27.8994C64.7519 26.9493 64.9722 25.8355 64.9722 24.6H62.9722ZM62.4907 26.9678C62.1652 27.5753 61.7253 28.0685 61.163 28.4578L62.3014 30.1022C63.1257 29.5315 63.7791 28.798 64.2537 27.9122L62.4907 26.9678ZM61.163 28.4578C60.5875 28.8562 59.8953 29.1564 59.0694 29.3451L59.515 31.2949C60.5558 31.057 61.4902 30.6638 62.3014 30.1022L61.163 28.4578ZM59.0905 29.3405C58.2578 29.512 57.3526 29.6 56.3722 29.6V31.6C57.4718 31.6 58.5133 31.5013 59.4938 31.2995L59.0905 29.3405ZM56.3722 29.6C55.9664 29.6 55.5605 29.5873 55.1546 29.5619L55.0298 31.5581C55.4772 31.586 55.9247 31.6 56.3722 31.6V29.6ZM55.1546 29.5619C54.7473 29.5365 54.3255 29.4982 53.889 29.4468L53.6553 31.4332C54.1256 31.4885 54.5838 31.5302 55.0298 31.5581L55.1546 29.5619ZM52.7722 30.44V32.84H54.7722V30.44H52.7722ZM52.7872 33.0124C53.0132 34.3041 53.6258 35.3795 54.6275 36.1809L55.8769 34.6191C55.2786 34.1405 54.9045 33.5092 54.7572 32.6676L52.7872 33.0124ZM54.6563 36.2031C55.6573 36.9457 56.8 37.32 58.0522 37.32V35.32C57.2244 35.32 56.5004 35.0809 55.848 34.5969L54.6563 36.2031ZM58.0522 37.32C58.1993 37.32 58.39 37.2915 58.5402 37.2674C58.7209 37.2385 58.9552 37.1964 59.2393 37.1423L58.8651 35.1777C58.5892 35.2302 58.3768 35.2681 58.2242 35.2926C58.1477 35.3048 58.0921 35.3127 58.0544 35.3173C58.0063 35.3231 58.0153 35.32 58.0522 35.32V37.32ZM59.2738 37.1351C59.8541 37.0032 60.4615 36.8712 61.0961 36.739L60.6882 34.781C60.0428 34.9155 59.4236 35.0501 58.8306 35.1849L59.2738 37.1351ZM61.1017 36.7378C61.8561 36.5761 62.6894 36.388 63.6012 36.1734L63.1431 34.2266C62.2416 34.4387 61.4216 34.6239 60.6827 34.7822L61.1017 36.7378ZM62.3969 35.4208L62.8769 37.5408L64.8275 37.0992L64.3475 34.9792L62.3969 35.4208ZM63.6409 36.3426C62.6662 36.5533 61.7888 36.7234 61.0078 36.8536L61.3366 38.8264C62.1555 38.6899 63.0649 38.5133 64.0635 38.2974L63.6409 36.3426ZM60.9833 36.858C60.2974 36.9899 59.6389 37.1084 59.0078 37.2136L59.3366 39.1864C59.9854 39.0783 60.6603 38.9568 61.361 38.822L60.9833 36.858ZM59.0008 37.2148C58.6986 37.2673 58.4631 37.3054 58.2908 37.3301C58.0953 37.358 58.037 37.36 58.0522 37.36V39.36C58.2007 39.36 58.3957 39.3354 58.5736 39.3099C58.7746 39.2812 59.0324 39.2393 59.3435 39.1852L59.0008 37.2148ZM58.0522 37.36C57.3161 37.36 56.6233 37.234 55.9668 36.985L55.2575 38.855C56.1478 39.1927 57.0816 39.36 58.0522 39.36V37.36ZM55.9945 36.996C55.3317 36.7217 54.757 36.3486 54.2627 35.8766L52.8817 37.3234C53.5607 37.9714 54.346 38.4783 55.2298 38.844L55.9945 36.996ZM54.2627 35.8766C53.7678 35.4043 53.374 34.8539 53.0792 34.2189L51.2652 35.0611C51.6637 35.9194 52.2032 36.6757 52.8817 37.3234L54.2627 35.8766ZM53.0962 34.2576C52.8304 33.6153 52.6922 32.9065 52.6922 32.12H50.6922C50.6922 33.1468 50.874 34.118 51.2482 35.0224L53.0962 34.2576ZM52.6922 32.12V23.28H50.6922V32.12H52.6922ZM80.0213 20.92L79.1074 21.3261L79.1134 21.3395L79.1197 21.3527L80.0213 20.92ZM80.5813 22.96L79.5842 23.0367L79.5844 23.0397L80.5813 22.96ZM80.6613 38V39H81.6613V38H80.6613ZM78.5413 38H77.5413V39H78.5413V38ZM77.4613 20.68L78.1684 19.9729L78.1684 19.9729L77.4613 20.68ZM73.0613 19.84L72.8651 18.8594L72.8586 18.8607L73.0613 19.84ZM70.4213 21.04L69.8771 20.201L69.4213 20.4967V21.04H70.4213ZM70.4213 38V39H71.4213V38H70.4213ZM68.3813 38H67.3813V39H68.3813V38ZM68.3813 19.96H69.3813V19.5321L69.0717 19.2366L68.3813 19.96ZM67.5013 19.12L66.7941 18.4129L66.0704 19.1366L66.8108 19.8434L67.5013 19.12ZM68.9413 17.68L69.6484 16.9729L68.9413 16.2658L68.2341 16.9729L68.9413 17.68ZM70.1413 18.88L69.4341 19.5871L69.9709 20.1239L70.6323 19.7512L70.1413 18.88ZM77.6613 18.4L77.2233 19.299L77.2327 19.3036L77.2422 19.308L77.6613 18.4ZM79.1197 21.3527C79.3895 21.9148 79.541 22.4746 79.5842 23.0367L81.5783 22.8833C81.5149 22.0587 81.293 21.2585 80.9228 20.4873L79.1197 21.3527ZM79.5844 23.0397C79.6355 23.678 79.6613 24.3446 79.6613 25.04H81.6613C81.6613 24.2954 81.6337 23.5754 81.5781 22.8803L79.5844 23.0397ZM79.6613 25.04V38H81.6613V25.04H79.6613ZM80.6613 37H78.5413V39H80.6613V37ZM79.5413 38V23.8H77.5413V38H79.5413ZM79.5413 23.8C79.5413 22.2667 79.1322 20.9367 78.1684 19.9729L76.7541 21.3871C77.2303 21.8633 77.5413 22.6133 77.5413 23.8H79.5413ZM78.1684 19.9729C77.286 19.0906 76.2268 18.6 75.0213 18.6V20.6C75.6291 20.6 76.1965 20.8294 76.7541 21.3871L78.1684 19.9729ZM75.0213 18.6C74.4213 18.6 73.6957 18.6933 72.8651 18.8594L73.2574 20.8206C74.0268 20.6667 74.6078 20.6 75.0213 20.6V18.6ZM72.8586 18.8607C71.9195 19.055 70.9218 19.5234 69.8771 20.201L70.9654 21.879C71.8941 21.2766 72.6563 20.945 73.2639 20.8193L72.8586 18.8607ZM69.4213 21.04V38H71.4213V21.04H69.4213ZM70.4213 37H68.3813V39H70.4213V37ZM69.3813 38V19.96H67.3813V38H69.3813ZM69.0717 19.2366L68.1917 18.3966L66.8108 19.8434L67.6908 20.6834L69.0717 19.2366ZM68.2084 19.8271L69.6484 18.3871L68.2341 16.9729L66.7941 18.4129L68.2084 19.8271ZM68.2341 18.3871L69.4341 19.5871L70.8484 18.1729L69.6484 16.9729L68.2341 18.3871ZM70.6323 19.7512C71.9913 18.9852 73.2093 18.64 74.3013 18.64V16.64C72.7799 16.64 71.2246 17.1215 69.6502 18.0088L70.6323 19.7512ZM74.3013 18.64C75.3553 18.64 76.3249 18.8613 77.2233 19.299L78.0992 17.501C76.9176 16.9254 75.6472 16.64 74.3013 16.64V18.64ZM77.2422 19.308C78.0298 19.6715 78.6573 20.3133 79.1074 21.3261L80.9351 20.5139C80.3185 19.1267 79.3727 18.0885 78.0803 17.492L77.2422 19.308ZM87.0897 19.96H88.0897V18.96H87.0897V19.96ZM83.6897 19.96H82.6897V20.96H83.6897V19.96ZM83.6897 17.96V16.96H82.6897V17.96H83.6897ZM87.0897 17.96V18.96H88.0897V17.96H87.0897ZM87.0897 10V9H86.0897V10H87.0897ZM89.2097 10H90.2097V9H89.2097V10ZM89.2097 17.96H88.2097V18.96H89.2097V17.96ZM92.8897 17.96H93.8897V16.96H92.8897V17.96ZM92.8897 19.96V20.96H93.8897V19.96H92.8897ZM89.2097 19.96V18.96H88.2097V19.96H89.2097ZM90.0097 35.28L89.385 36.0609L89.4063 36.0779L89.4284 36.0937L90.0097 35.28ZM92.8897 35.88H93.8897V34.88H92.8897V35.88ZM92.8897 38.04V39.04H93.8897V38.04H92.8897ZM89.9297 37.76L89.5737 38.6945L89.5998 38.7044L89.6265 38.7129L89.9297 37.76ZM88.4497 36.84L87.7426 37.5471L87.754 37.5585L87.7657 37.5695L88.4497 36.84ZM87.4497 35.2L86.5088 35.5387L86.5088 35.5387L87.4497 35.2ZM88.0897 32.8V19.96H86.0897V32.8H88.0897ZM87.0897 18.96H83.6897V20.96H87.0897V18.96ZM84.6897 19.96V17.96H82.6897V19.96H84.6897ZM83.6897 18.96H87.0897V16.96H83.6897V18.96ZM88.0897 17.96V10H86.0897V17.96H88.0897ZM87.0897 11H89.2097V9H87.0897V11ZM88.2097 10V17.96H90.2097V10H88.2097ZM89.2097 18.96H92.8897V16.96H89.2097V18.96ZM91.8897 17.96V19.96H93.8897V17.96H91.8897ZM92.8897 18.96H89.2097V20.96H92.8897V18.96ZM88.2097 19.96V33H90.2097V19.96H88.2097ZM88.2097 33C88.2097 34.2151 88.5017 35.3542 89.385 36.0609L90.6344 34.4991C90.4511 34.3525 90.2097 33.9716 90.2097 33H88.2097ZM89.4284 36.0937C90.1787 36.6296 91.0548 36.88 92.0097 36.88V34.88C91.4179 34.88 90.9607 34.7304 90.5909 34.4663L89.4284 36.0937ZM92.0097 36.88H92.8897V34.88H92.0097V36.88ZM91.8897 35.88V38.04H93.8897V35.88H91.8897ZM92.8897 37.04H91.8097V39.04H92.8897V37.04ZM91.8097 37.04C91.2374 37.04 90.7137 36.9601 90.2329 36.8071L89.6265 38.7129C90.319 38.9333 91.0486 39.04 91.8097 39.04V37.04ZM90.2857 36.8255C89.8442 36.6573 89.463 36.4192 89.1336 36.1105L87.7657 37.5695C88.2897 38.0608 88.8951 38.436 89.5737 38.6945L90.2857 36.8255ZM89.1568 36.1329C88.8508 35.8269 88.5893 35.4134 88.3906 34.8613L86.5088 35.5387C86.79 36.3199 87.1952 36.9997 87.7426 37.5471L89.1568 36.1329ZM88.3906 34.8613C88.1999 34.3316 88.0897 33.6524 88.0897 32.8H86.0897C86.0897 33.8143 86.2195 34.7351 86.5088 35.5387L88.3906 34.8613ZM106.074 38H105.074V39H106.074V38ZM105.114 20.68L104.379 21.3583L104.386 21.3655L104.392 21.3725L105.114 20.68ZM101.874 19.72L101.95 20.7171L101.988 20.7141L102.026 20.7084L101.874 19.72ZM99.4338 20.36L99.8346 21.2762L99.8346 21.2762L99.4338 20.36ZM98.1938 21.04L97.6391 20.2079L97.1938 20.5048V21.04H98.1938ZM98.1938 38V39H99.1938V38H98.1938ZM96.1538 38H95.1538V39H96.1538V38ZM96.1538 10V9H95.1538V10H96.1538ZM98.1538 10H99.1538V9H98.1538V10ZM98.1538 18.72H97.1538V20.3744L98.6186 19.6054L98.1538 18.72ZM100.914 17.76L101.017 18.7547L101.034 18.7529L101.05 18.7506L100.914 17.76ZM104.834 18.04L104.417 18.9491L104.417 18.9491L104.834 18.04ZM106.514 19.28L105.77 19.949L105.779 19.9585L105.788 19.9677L106.514 19.28ZM107.634 21.08L106.7 21.439L106.709 21.4611L106.718 21.4827L107.634 21.08ZM108.074 38V39H109.074V38H108.074ZM107.074 38V23.12H105.074V38H107.074ZM107.074 23.12C107.074 21.913 106.661 20.8482 105.835 19.9875L104.392 21.3725C104.846 21.8451 105.074 22.407 105.074 23.12H107.074ZM105.849 20.0017C105.022 19.1059 103.97 18.64 102.754 18.64V20.64C103.405 20.64 103.926 20.8675 104.379 21.3583L105.849 20.0017ZM102.754 18.64C102.445 18.64 102.098 18.6737 101.722 18.7316L102.026 20.7084C102.343 20.6596 102.582 20.64 102.754 20.64V18.64ZM101.797 18.7229C101.382 18.7549 100.939 18.833 100.471 18.9499L100.956 20.8901C101.342 20.7937 101.672 20.7385 101.95 20.7171L101.797 18.7229ZM100.471 18.9499C99.9873 19.0708 99.5078 19.2361 99.0329 19.4438L99.8346 21.2762C100.213 21.1106 100.587 20.9825 100.956 20.8901L100.471 18.9499ZM99.0329 19.4438C98.5509 19.6547 98.0862 19.9098 97.6391 20.2079L98.7484 21.872C99.1013 21.6368 99.4633 21.4386 99.8346 21.2762L99.0329 19.4438ZM97.1938 21.04V38H99.1938V21.04H97.1938ZM98.1938 37H96.1538V39H98.1938V37ZM97.1538 38V10H95.1538V38H97.1538ZM96.1538 11H98.1538V9H96.1538V11ZM97.1538 10V18.72H99.1538V10H97.1538ZM98.6186 19.6054C99.6279 19.0755 100.42 18.8164 101.017 18.7547L100.811 16.7653C99.8611 16.8636 98.813 17.2445 97.6889 17.8346L98.6186 19.6054ZM101.05 18.7506C101.806 18.6464 102.367 18.6 102.754 18.6V16.6C102.234 16.6 101.568 16.6602 100.777 16.7694L101.05 18.7506ZM102.754 18.6C103.365 18.6 103.916 18.7192 104.417 18.9491L105.25 17.1309C104.472 16.7741 103.635 16.6 102.754 16.6V18.6ZM104.417 18.9491C104.931 19.1844 105.38 19.5151 105.77 19.949L107.257 18.611C106.687 17.9782 106.017 17.4823 105.25 17.1309L104.417 18.9491ZM105.788 19.9677C106.172 20.3734 106.478 20.8598 106.7 21.439L108.567 20.721C108.257 19.9135 107.815 19.1999 107.24 18.5923L105.788 19.9677ZM106.718 21.4827C106.953 22.0147 107.074 22.5966 107.074 23.24H109.074C109.074 22.3367 108.902 21.4786 108.549 20.6773L106.718 21.4827ZM107.074 23.24V38H109.074V23.24H107.074ZM108.074 37H106.074V39H108.074V37ZM144.344 32.96L143.417 32.5843L143.413 32.5952L143.408 32.6061L144.344 32.96ZM142.744 35.56L142.011 34.8795L142.01 34.8806L142.744 35.56ZM140.344 37.32L140.76 38.2295L140.77 38.2246L140.781 38.2195L140.344 37.32ZM134.304 37.56L134.565 36.5946L134.304 37.56ZM131.664 36.68L132.046 35.756L132.044 35.7553L131.664 36.68ZM129.064 35.36L128.124 35.0183L127.845 35.7858L128.541 36.2126L129.064 35.36ZM129.864 33.16L130.332 32.2762L129.316 31.7388L128.924 32.8183L129.864 33.16ZM132.544 34.4L132.177 35.3305L132.189 35.335L132.544 34.4ZM134.984 35.24L134.685 36.1945L134.699 36.1988L134.713 36.2027L134.984 35.24ZM139.384 35.16L138.981 34.2447L138.974 34.2478L138.967 34.2509L139.384 35.16ZM141.104 33.96L141.83 34.6477L141.838 34.6385L141.847 34.629L141.104 33.96ZM142.224 32.12L141.29 31.761L141.29 31.761L142.224 32.12ZM142.064 27.84L141.232 28.3947L141.238 28.4042L141.245 28.4135L142.064 27.84ZM140.624 26.48L140.069 27.312L140.092 27.3271L140.115 27.3409L140.624 26.48ZM138.744 25.64L138.45 26.5958L138.467 26.601L138.484 26.6056L138.744 25.64ZM136.704 25.16L136.544 26.1471L136.546 26.1474L136.704 25.16ZM133.904 24.32L133.479 25.2255L133.49 25.2304L133.904 24.32ZM131.624 22.76L130.917 23.4671L130.924 23.4743L130.931 23.4814L131.624 22.76ZM130.104 20.52L129.188 20.9208L129.188 20.9208L130.104 20.52ZM130.104 14.56L129.177 14.1843L129.174 14.1909L129.172 14.1976L130.104 14.56ZM131.704 12L130.971 11.3195L130.97 11.3206L131.704 12ZM134.104 10.24L134.53 11.1448L134.53 11.1448L134.104 10.24ZM138.944 9.84L138.71 10.8124L138.733 10.8177L138.755 10.822L138.944 9.84ZM140.864 10.28L141.169 9.32757L141.148 9.32095L141.127 9.31524L140.864 10.28ZM142.824 10.96L143.771 11.2813L144.082 10.3638L143.175 10.0237L142.824 10.96ZM142.064 13.2L141.685 14.1255L142.669 14.5281L143.011 13.5213L142.064 13.2ZM140.264 12.56L140.555 11.6033L140.551 11.6022L140.264 12.56ZM138.584 12.12L138.805 11.1449L138.805 11.1449L138.584 12.12ZM134.864 12.4L135.295 13.3021L135.303 13.2983L135.311 13.2944L134.864 12.4ZM133.264 13.64L134.009 14.3068L134.017 14.2973L134.026 14.2876L133.264 13.64ZM132.184 15.44L133.112 15.8114L133.117 15.799L132.184 15.44ZM132.264 19.72L131.369 20.1672L131.381 20.1899L131.393 20.2121L132.264 19.72ZM133.544 21.28L132.9 22.0449L132.909 22.053L132.919 22.0609L133.544 21.28ZM135.304 22.32L134.919 23.2431L134.936 23.25L134.953 23.2563L135.304 22.32ZM137.144 22.84L136.965 23.8239L136.975 23.8257L137.144 22.84ZM140.184 23.64L139.836 24.5775L139.844 24.5806L140.184 23.64ZM142.664 25L142.035 25.7779L142.052 25.7911L142.069 25.8036L142.664 25ZM144.344 27L143.449 27.4472L143.449 27.4472L144.344 27ZM143.944 29.8C143.944 30.798 143.766 31.7231 143.417 32.5843L145.27 33.3357C145.721 32.2236 145.944 31.042 145.944 29.8H143.944ZM143.408 32.6061C143.079 33.4762 142.613 34.231 142.011 34.8795L143.477 36.2405C144.261 35.3957 144.862 34.4171 145.279 33.3139L143.408 32.6061ZM142.01 34.8806C141.433 35.5043 140.735 36.0183 139.907 36.4205L140.781 38.2195C141.819 37.715 142.722 37.0557 143.478 36.2394L142.01 34.8806ZM139.928 36.4105C139.13 36.7752 138.273 36.96 137.344 36.96V38.96C138.548 38.96 139.691 38.7182 140.76 38.2295L139.928 36.4105ZM137.344 36.96C136.39 36.96 135.465 36.8379 134.565 36.5946L134.043 38.5254C135.116 38.8154 136.217 38.96 137.344 38.96V36.96ZM134.565 36.5946C133.611 36.3368 132.772 36.0565 132.046 35.756L131.281 37.604C132.102 37.9435 133.024 38.2499 134.043 38.5254L134.565 36.5946ZM132.044 35.7553C131.186 35.402 130.367 34.986 129.586 34.5074L128.541 36.2126C129.414 36.7473 130.328 37.2114 131.283 37.6047L132.044 35.7553ZM130.004 35.7017L130.804 33.5017L128.924 32.8183L128.124 35.0183L130.004 35.7017ZM129.396 34.0438C130.333 34.5398 131.26 34.969 132.177 35.3304L132.91 33.4696C132.068 33.1377 131.208 32.7402 130.332 32.2762L129.396 34.0438ZM132.189 35.335C132.982 35.6359 133.815 35.9224 134.685 36.1945L135.282 34.2855C134.446 34.0243 133.652 33.7507 132.898 33.465L132.189 35.335ZM134.713 36.2027C135.631 36.4609 136.498 36.6 137.304 36.6V34.6C136.723 34.6 136.043 34.4991 135.254 34.2773L134.713 36.2027ZM137.304 36.6C138.185 36.6 139.022 36.4259 139.8 36.0691L138.967 34.2509C138.466 34.4808 137.915 34.6 137.304 34.6V36.6ZM139.786 36.0753C140.57 35.7308 141.254 35.2552 141.83 34.6477L140.378 33.2723C139.993 33.6781 139.531 34.0026 138.981 34.2447L139.786 36.0753ZM141.847 34.629C142.412 34.0016 142.848 33.2823 143.157 32.479L141.29 31.761C141.066 32.3444 140.756 32.8518 140.36 33.291L141.847 34.629ZM143.157 32.479C143.471 31.6625 143.624 30.7932 143.624 29.88H141.624C141.624 30.5668 141.51 31.1908 141.29 31.761L143.157 32.479ZM143.624 29.88C143.624 28.9036 143.402 28.0083 142.883 27.2665L141.245 28.4135C141.472 28.7384 141.624 29.203 141.624 29.88H143.624ZM142.896 27.2853C142.438 26.5986 141.847 26.0412 141.132 25.6191L140.115 27.3409C140.574 27.6121 140.943 27.9614 141.232 28.3947L142.896 27.2853ZM141.178 25.6479C140.522 25.2105 139.795 24.8874 139.004 24.6744L138.484 26.6056C139.079 26.7659 139.605 27.0029 140.069 27.312L141.178 25.6479ZM139.038 24.6842C138.303 24.4582 137.578 24.2871 136.862 24.1726L136.546 26.1474C137.163 26.2462 137.798 26.3952 138.45 26.5958L139.038 24.6842ZM136.864 24.1729C135.962 24.0266 135.114 23.7717 134.318 23.4096L133.49 25.2304C134.453 25.6683 135.472 25.9734 136.544 26.1471L136.864 24.1729ZM134.328 23.4145C133.572 23.0599 132.903 22.6015 132.316 22.0386L130.931 23.4814C131.678 24.1985 132.529 24.7801 133.479 25.2255L134.328 23.4145ZM132.331 22.0529C131.782 21.5036 131.345 20.8617 131.02 20.1192L129.188 20.9208C129.609 21.885 130.186 22.7364 130.917 23.4671L132.331 22.0529ZM131.02 20.1192C130.709 19.4093 130.544 18.5886 130.544 17.64H128.544C128.544 18.8247 128.751 19.924 129.188 20.9208L131.02 20.1192ZM130.544 17.64C130.544 16.663 130.71 15.7599 131.036 14.9224L129.172 14.1976C128.751 15.2801 128.544 16.4304 128.544 17.64H130.544ZM131.03 14.9357C131.389 14.0515 131.86 13.3034 132.438 12.6794L130.97 11.3206C130.214 12.1366 129.619 13.0951 129.177 14.1843L131.03 14.9357ZM132.437 12.6804C133.044 12.0259 133.741 11.5161 134.53 11.1448L133.678 9.33518C132.654 9.81724 131.75 10.4808 130.971 11.3195L132.437 12.6804ZM134.53 11.1448C135.301 10.7816 136.116 10.6 136.984 10.6V8.6C135.825 8.6 134.719 8.84511 133.678 9.33518L134.53 11.1448ZM136.984 10.6C137.54 10.6 138.115 10.6694 138.71 10.8124L139.177 8.86761C138.439 8.69056 137.708 8.6 136.984 8.6V10.6ZM138.755 10.822C139.427 10.9513 140.042 11.0924 140.601 11.2448L141.127 9.31524C140.512 9.14758 139.847 8.99538 139.133 8.85799L138.755 10.822ZM140.559 11.2324C141.21 11.4409 141.848 11.6622 142.473 11.8963L143.175 10.0237C142.519 9.77779 141.85 9.54577 141.169 9.32757L140.559 11.2324ZM141.877 10.6387L141.117 12.8787L143.011 13.5213L143.771 11.2813L141.877 10.6387ZM142.442 12.2745C141.827 12.0226 141.198 11.7989 140.555 11.6033L139.973 13.5167C140.557 13.6944 141.127 13.8974 141.685 14.1255L142.442 12.2745ZM140.551 11.6022C139.994 11.4352 139.412 11.2828 138.805 11.1449L138.362 13.0951C138.928 13.2238 139.466 13.3648 139.976 13.5178L140.551 11.6022ZM138.805 11.1449C138.155 10.9971 137.52 10.92 136.904 10.92V12.92C137.354 12.92 137.839 12.9763 138.362 13.0951L138.805 11.1449ZM136.904 10.92C136.03 10.92 135.196 11.1157 134.417 11.5056L135.311 13.2944C135.811 13.0443 136.338 12.92 136.904 12.92V10.92ZM134.432 11.4979C133.688 11.8537 133.043 12.3552 132.502 12.9924L134.026 14.2876C134.391 13.8582 134.812 13.533 135.295 13.3021L134.432 11.4979ZM132.519 12.9732C131.977 13.5782 131.557 14.285 131.25 15.081L133.117 15.799C133.344 15.2083 133.644 14.7151 134.009 14.3068L132.519 12.9732ZM131.255 15.0686C130.941 15.8537 130.784 16.6731 130.784 17.52H132.784C132.784 16.9269 132.893 16.3596 133.112 15.8114L131.255 15.0686ZM130.784 17.52C130.784 18.4778 130.97 19.3683 131.369 20.1672L133.158 19.2728C132.918 18.7917 132.784 18.2156 132.784 17.52H130.784ZM131.393 20.2121C131.795 20.9225 132.296 21.5367 132.9 22.0449L134.188 20.5151C133.778 20.1699 133.426 19.7442 133.134 19.2279L131.393 20.2121ZM132.919 22.0609C133.526 22.5468 134.194 22.941 134.919 23.2431L135.688 21.3969C135.133 21.1657 134.628 20.8665 134.168 20.4991L132.919 22.0609ZM134.953 23.2563C135.641 23.5143 136.312 23.7051 136.965 23.8239L137.323 21.8561C136.802 21.7616 136.247 21.6057 135.655 21.3837L134.953 23.2563ZM136.975 23.8257C138.014 24.0031 138.967 24.2547 139.836 24.5774L140.532 22.7026C139.534 22.332 138.46 22.0502 137.312 21.8543L136.975 23.8257ZM139.844 24.5806C140.714 24.8948 141.44 25.2972 142.035 25.7779L143.292 24.2221C142.501 23.5828 141.573 23.0785 140.523 22.6994L139.844 24.5806ZM142.069 25.8036C142.662 26.2435 143.12 26.7881 143.449 27.4472L145.238 26.5528C144.768 25.6119 144.105 24.8232 143.259 24.1964L142.069 25.8036ZM143.449 27.4472C143.768 28.0841 143.944 28.8589 143.944 29.8H145.944C145.944 28.6077 145.72 27.5159 145.238 26.5528L143.449 27.4472ZM149.746 19.96H150.746V18.96H149.746V19.96ZM146.346 19.96H145.346V20.96H146.346V19.96ZM146.346 17.96V16.96H145.346V17.96H146.346ZM149.746 17.96V18.96H150.746V17.96H149.746ZM149.746 10V9H148.746V10H149.746ZM151.866 10H152.866V9H151.866V10ZM151.866 17.96H150.866V18.96H151.866V17.96ZM155.546 17.96H156.546V16.96H155.546V17.96ZM155.546 19.96V20.96H156.546V19.96H155.546ZM151.866 19.96V18.96H150.866V19.96H151.866ZM152.666 35.28L152.041 36.0609L152.063 36.0779L152.085 36.0937L152.666 35.28ZM155.546 35.88H156.546V34.88H155.546V35.88ZM155.546 38.04V39.04H156.546V38.04H155.546ZM152.586 37.76L152.23 38.6945L152.256 38.7044L152.283 38.7129L152.586 37.76ZM151.106 36.84L150.399 37.5471L150.41 37.5585L150.422 37.5695L151.106 36.84ZM150.106 35.2L149.165 35.5387L149.165 35.5387L150.106 35.2ZM150.746 32.8V19.96H148.746V32.8H150.746ZM149.746 18.96H146.346V20.96H149.746V18.96ZM147.346 19.96V17.96H145.346V19.96H147.346ZM146.346 18.96H149.746V16.96H146.346V18.96ZM150.746 17.96V10H148.746V17.96H150.746ZM149.746 11H151.866V9H149.746V11ZM150.866 10V17.96H152.866V10H150.866ZM151.866 18.96H155.546V16.96H151.866V18.96ZM154.546 17.96V19.96H156.546V17.96H154.546ZM155.546 18.96H151.866V20.96H155.546V18.96ZM150.866 19.96V33H152.866V19.96H150.866ZM150.866 33C150.866 34.2151 151.158 35.3542 152.041 36.0609L153.291 34.4991C153.107 34.3525 152.866 33.9716 152.866 33H150.866ZM152.085 36.0937C152.835 36.6296 153.711 36.88 154.666 36.88V34.88C154.074 34.88 153.617 34.7304 153.247 34.4663L152.085 36.0937ZM154.666 36.88H155.546V34.88H154.666V36.88ZM154.546 35.88V38.04H156.546V35.88H154.546ZM155.546 37.04H154.466V39.04H155.546V37.04ZM154.466 37.04C153.894 37.04 153.37 36.9601 152.889 36.8071L152.283 38.7129C152.975 38.9333 153.705 39.04 154.466 39.04V37.04ZM152.942 36.8255C152.5 36.6573 152.119 36.4192 151.79 36.1105L150.422 37.5695C150.946 38.0608 151.551 38.436 152.23 38.6945L152.942 36.8255ZM151.813 36.1329C151.507 35.8269 151.246 35.4134 151.047 34.8613L149.165 35.5387C149.446 36.3199 149.851 36.9997 150.399 37.5471L151.813 36.1329ZM151.047 34.8613C150.856 34.3316 150.746 33.6524 150.746 32.8H148.746C148.746 33.8143 148.876 34.7351 149.165 35.5387L151.047 34.8613ZM165.25 28.36L165.242 29.36H165.25V28.36ZM166.65 28.08L167.073 28.9862L167.097 28.9749L167.121 28.9624L166.65 28.08ZM167.69 27.28L168.427 27.9557L168.441 27.9411L168.453 27.9259L167.69 27.28ZM168.37 26.12L167.454 25.7192L167.443 25.7438L167.434 25.7689L168.37 26.12ZM168.29 21.48L167.406 21.9479L167.412 21.9592L167.418 21.9703L168.29 21.48ZM167.33 20.4L166.749 21.2137L166.762 21.2231L166.775 21.232L167.33 20.4ZM165.97 19.84L165.716 20.8071L165.744 20.8147L165.774 20.8206L165.97 19.84ZM162.89 19.88L162.574 18.9313L162.565 18.9341L162.557 18.937L162.89 19.88ZM161.69 20.56L162.336 21.3234L162.336 21.3234L161.69 20.56ZM160.85 21.64L159.956 21.1928L159.956 21.1928L160.85 21.64ZM160.53 28.32H159.53V29.3116L160.522 29.32L160.53 28.32ZM158.85 21.04L157.929 20.6504L157.923 20.6656L157.917 20.681L158.85 21.04ZM160.01 19.24L159.303 18.5329L159.293 18.5424L159.284 18.5523L160.01 19.24ZM161.73 18.04L161.327 17.1247L161.32 17.1278L161.313 17.1309L161.73 18.04ZM167.37 18.04L166.967 18.9553L166.967 18.9553L167.37 18.04ZM170.29 21.04L169.357 21.399L169.363 21.4144L169.369 21.4296L170.29 21.04ZM170.13 27.44L171.011 27.9122L171.015 27.9058L171.018 27.8994L170.13 27.44ZM168.49 29.28L169.059 30.1022L169.059 30.1022L168.49 29.28ZM166.05 30.32L166.252 31.2995L166.262 31.2973L166.273 31.2949L166.05 30.32ZM161.85 30.56L161.788 31.5581L161.788 31.5581L161.85 30.56ZM160.53 30.44L160.647 29.4468L159.53 29.3155V30.44H160.53ZM160.53 32.84H159.53V32.9268L159.545 33.0124L160.53 32.84ZM162.01 35.4L161.385 36.1809L161.4 36.1922L161.414 36.2031L162.01 35.4ZM165.81 36.16L165.997 37.1423L166.014 37.139L166.032 37.1351L165.81 36.16ZM167.65 35.76L167.854 36.739L167.86 36.7378L167.65 35.76ZM170.13 35.2L171.105 34.9792L170.883 33.9956L169.901 34.2266L170.13 35.2ZM170.61 37.32L170.821 38.2974L171.808 38.084L171.585 37.0992L170.61 37.32ZM167.93 37.84L167.766 36.8536L167.753 36.8556L167.741 36.858L167.93 37.84ZM165.93 38.2L165.766 37.2136L165.759 37.2148L165.93 38.2ZM162.37 37.92L161.988 38.844L162.001 38.8497L162.015 38.855L162.37 37.92ZM160.33 36.6L159.64 37.3234L159.64 37.3234L160.33 36.6ZM158.93 34.64L158.006 35.0224L158.014 35.0419L158.023 35.0611L158.93 34.64ZM165.25 29.36H165.33V27.36H165.25V29.36ZM165.33 29.36C165.943 29.36 166.529 29.2399 167.073 28.9862L166.227 27.1738C165.971 27.2934 165.677 27.36 165.33 27.36V29.36ZM167.121 28.9624C167.616 28.6981 168.054 28.3629 168.427 27.9557L166.953 26.6043C166.739 26.8371 166.484 27.0352 166.179 27.1976L167.121 28.9624ZM168.453 27.9259C168.821 27.4913 169.106 27.0049 169.306 26.4711L167.434 25.7689C167.314 26.0885 167.146 26.3753 166.927 26.6341L168.453 27.9259ZM169.286 26.5208C169.53 25.9638 169.65 25.3736 169.65 24.76H167.65C167.65 25.1064 167.584 25.4228 167.454 25.7192L169.286 26.5208ZM169.65 24.76V23.08H167.65V24.76H169.65ZM169.65 23.08C169.65 22.3195 169.508 21.6052 169.162 20.9897L167.418 21.9703C167.552 22.2081 167.65 22.5605 167.65 23.08H169.65ZM169.174 21.0121C168.861 20.4221 168.432 19.9329 167.885 19.5679L166.775 21.232C167.028 21.4004 167.239 21.6313 167.406 21.9479L169.174 21.0121ZM167.911 19.5863C167.403 19.2235 166.813 18.9888 166.166 18.8594L165.774 20.8206C166.194 20.9046 166.51 21.0431 166.749 21.2137L167.911 19.5863ZM166.224 18.8729C165.629 18.7163 165.01 18.64 164.37 18.64V20.64C164.85 20.64 165.297 20.697 165.716 20.8071L166.224 18.8729ZM164.37 18.64C163.756 18.64 163.156 18.7373 162.574 18.9313L163.206 20.8287C163.584 20.7027 163.971 20.64 164.37 20.64V18.64ZM162.557 18.937C161.996 19.135 161.489 19.4204 161.044 19.7966L162.336 21.3234C162.585 21.1129 162.877 20.945 163.223 20.823L162.557 18.937ZM161.044 19.7966C160.589 20.1818 160.226 20.6512 159.956 21.1928L161.744 22.0872C161.9 21.7755 162.098 21.5249 162.336 21.3234L161.044 19.7966ZM159.956 21.1928C159.665 21.774 159.53 22.4099 159.53 23.08H161.53C161.53 22.6834 161.608 22.3594 161.744 22.0872L159.956 21.1928ZM159.53 23.08V28.32H161.53V23.08H159.53ZM160.522 29.32L165.242 29.36L165.258 27.36L160.538 27.32L160.522 29.32ZM159.45 23.28C159.45 22.5932 159.564 21.9692 159.783 21.399L157.917 20.681C157.603 21.4975 157.45 22.3668 157.45 23.28H159.45ZM159.771 21.4296C160.021 20.8378 160.345 20.3409 160.736 19.9277L159.284 18.5523C158.715 19.1524 158.265 19.8555 157.929 20.6504L159.771 21.4296ZM160.717 19.9471C161.141 19.523 161.617 19.192 162.147 18.9491L161.313 17.1309C160.563 17.4747 159.892 17.9437 159.303 18.5329L160.717 19.9471ZM162.133 18.9553C162.665 18.7212 163.247 18.6 163.89 18.6V16.6C162.987 16.6 162.129 16.7721 161.327 17.1247L162.133 18.9553ZM163.89 18.6H165.25V16.6H163.89V18.6ZM165.25 18.6C165.862 18.6 166.431 18.7193 166.967 18.9553L167.773 17.1247C166.976 16.7741 166.132 16.6 165.25 16.6V18.6ZM166.967 18.9553C167.522 19.1996 168.005 19.5296 168.423 19.9471L169.837 18.5329C169.241 17.9371 168.551 17.4671 167.773 17.1247L166.967 18.9553ZM168.423 19.9471C168.827 20.3512 169.138 20.8313 169.357 21.399L171.223 20.681C170.908 19.862 170.446 19.1422 169.837 18.5329L168.423 19.9471ZM169.369 21.4296C169.607 21.9921 169.73 22.6053 169.73 23.28H171.73C171.73 22.3546 171.56 21.4746 171.211 20.6504L169.369 21.4296ZM169.73 23.28V24.6H171.73V23.28H169.73ZM169.73 24.6C169.73 25.6045 169.55 26.3841 169.242 26.9806L171.018 27.8994C171.51 26.9493 171.73 25.8355 171.73 24.6H169.73ZM169.249 26.9678C168.923 27.5753 168.483 28.0685 167.921 28.4578L169.059 30.1022C169.884 29.5315 170.537 28.798 171.011 27.9122L169.249 26.9678ZM167.921 28.4578C167.345 28.8562 166.653 29.1564 165.827 29.3451L166.273 31.2949C167.314 31.057 168.248 30.6638 169.059 30.1022L167.921 28.4578ZM165.848 29.3405C165.016 29.512 164.11 29.6 163.13 29.6V31.6C164.23 31.6 165.271 31.5013 166.252 31.2995L165.848 29.3405ZM163.13 29.6C162.724 29.6 162.318 29.5873 161.912 29.5619L161.788 31.5581C162.235 31.586 162.682 31.6 163.13 31.6V29.6ZM161.912 29.5619C161.505 29.5365 161.083 29.4982 160.647 29.4468L160.413 31.4332C160.883 31.4885 161.342 31.5302 161.788 31.5581L161.912 29.5619ZM159.53 30.44V32.84H161.53V30.44H159.53ZM159.545 33.0124C159.771 34.3041 160.384 35.3795 161.385 36.1809L162.635 34.6191C162.036 34.1405 161.662 33.5092 161.515 32.6676L159.545 33.0124ZM161.414 36.2031C162.415 36.9457 163.558 37.32 164.81 37.32V35.32C163.982 35.32 163.258 35.0809 162.606 34.5969L161.414 36.2031ZM164.81 37.32C164.957 37.32 165.148 37.2915 165.298 37.2674C165.479 37.2385 165.713 37.1964 165.997 37.1423L165.623 35.1777C165.347 35.2302 165.135 35.2681 164.982 35.2926C164.905 35.3048 164.85 35.3127 164.812 35.3173C164.764 35.3231 164.773 35.32 164.81 35.32V37.32ZM166.032 37.1351C166.612 37.0032 167.219 36.8712 167.854 36.739L167.446 34.781C166.801 34.9155 166.181 35.0501 165.588 35.1849L166.032 37.1351ZM167.86 36.7378C168.614 36.5761 169.447 36.388 170.359 36.1734L169.901 34.2266C168.999 34.4387 168.179 34.6239 167.44 34.7822L167.86 36.7378ZM169.155 35.4208L169.635 37.5408L171.585 37.0992L171.105 34.9792L169.155 35.4208ZM170.399 36.3426C169.424 36.5533 168.547 36.7234 167.766 36.8536L168.094 38.8264C168.913 38.6899 169.823 38.5133 170.821 38.2974L170.399 36.3426ZM167.741 36.858C167.055 36.9899 166.397 37.1084 165.766 37.2136L166.094 39.1864C166.743 39.0783 167.418 38.9568 168.119 38.822L167.741 36.858ZM165.759 37.2148C165.456 37.2673 165.221 37.3054 165.049 37.3301C164.853 37.358 164.795 37.36 164.81 37.36V39.36C164.959 39.36 165.154 39.3354 165.331 39.3099C165.532 39.2812 165.79 39.2393 166.101 39.1852L165.759 37.2148ZM164.81 37.36C164.074 37.36 163.381 37.234 162.725 36.985L162.015 38.855C162.906 39.1927 163.839 39.36 164.81 39.36V37.36ZM162.752 36.996C162.09 36.7217 161.515 36.3486 161.02 35.8766L159.64 37.3234C160.318 37.9714 161.104 38.4783 161.988 38.844L162.752 36.996ZM161.02 35.8766C160.526 35.4043 160.132 34.8539 159.837 34.2189L158.023 35.0611C158.421 35.9194 158.961 36.6757 159.64 37.3234L161.02 35.8766ZM159.854 34.2576C159.588 33.6153 159.45 32.9065 159.45 32.12H157.45C157.45 33.1468 157.632 34.118 158.006 35.0224L159.854 34.2576ZM159.45 32.12V23.28H157.45V32.12H159.45ZM177.179 34.96H176.179V35.4952L176.624 35.7921L177.179 34.96ZM179.579 35.96L179.877 35.0055L179.877 35.0055L179.579 35.96ZM180.779 36.28L180.57 37.2578L180.608 37.266L180.647 37.2712L180.779 36.28ZM184.099 35.36L184.82 36.0525L184.827 36.0455L184.834 36.0383L184.099 35.36ZM184.779 21.76L183.843 22.1111L183.856 22.1476L183.873 22.1829L184.779 21.76ZM184.099 20.68L183.362 21.3557L183.377 21.3717L183.392 21.3871L184.099 20.68ZM183.059 19.92L182.636 20.8262L182.636 20.8262L183.059 19.92ZM180.859 19.72L180.93 20.7175L180.966 20.7149L181 20.7099L180.859 19.72ZM179.659 19.96L179.917 20.9262L179.937 20.9208L179.957 20.9145L179.659 19.96ZM178.419 20.4L178.018 19.4838L178.018 19.4838L178.419 20.4ZM177.179 21.08L176.624 20.2479L176.179 20.5448V21.08H177.179ZM177.139 37.28L177.604 36.3946L176.139 35.6256V37.28H177.139ZM177.139 48V49H178.139V48H177.139ZM175.139 48H174.139V49H175.139V48ZM175.139 19.88H176.139V19.4521L175.83 19.1566L175.139 19.88ZM174.259 19.04L173.542 18.3429L172.839 19.0665L173.569 19.7634L174.259 19.04ZM175.659 17.6L176.354 16.8814L175.638 16.1876L174.942 16.9029L175.659 17.6ZM176.899 18.8L176.204 19.5186L176.713 20.0112L177.346 19.6944L176.899 18.8ZM179.539 17.88L179.723 18.8629L179.738 18.8601L179.753 18.8569L179.539 17.88ZM183.819 18.04L183.402 18.9491L183.402 18.9491L183.819 18.04ZM185.499 19.24L184.773 19.9277L184.773 19.9277L185.499 19.24ZM186.619 21.04L185.686 21.399L185.692 21.4144L185.698 21.4296L186.619 21.04ZM186.619 34.96L185.698 34.5704L185.694 34.5794L185.691 34.5886L186.619 34.96ZM185.499 36.76L186.225 37.4477L186.234 37.4385L186.242 37.429L185.499 36.76ZM183.819 37.96L183.402 37.0509L183.402 37.0509L183.819 37.96ZM179.899 38.24L180.036 37.2494L180.019 37.2471L180.002 37.2453L179.899 38.24ZM176.624 35.7921C177.018 36.0548 177.462 36.2743 177.948 36.4563L178.65 34.5837C178.282 34.4457 177.98 34.2919 177.734 34.1279L176.624 35.7921ZM177.948 36.4563C178.392 36.6227 178.836 36.7755 179.281 36.9145L179.877 35.0055C179.469 34.8778 179.06 34.7373 178.65 34.5837L177.948 36.4563ZM179.281 36.9145C179.732 37.0554 180.162 37.1704 180.57 37.2578L180.989 35.3022C180.65 35.2296 180.28 35.1312 179.877 35.0055L179.281 36.9145ZM180.647 37.2712C181.066 37.327 181.435 37.36 181.739 37.36V35.36C181.563 35.36 181.293 35.3396 180.911 35.2888L180.647 37.2712ZM181.739 37.36C182.942 37.36 183.99 36.9178 184.82 36.0525L183.378 34.6675C182.928 35.1355 182.403 35.36 181.739 35.36V37.36ZM184.834 36.0383C185.648 35.1567 186.059 34.0865 186.059 32.88H184.059C184.059 33.5935 183.83 34.1766 183.364 34.6817L184.834 36.0383ZM186.059 32.88V23.08H184.059V32.88H186.059ZM186.059 23.08C186.059 22.4668 185.939 21.8808 185.685 21.3371L183.873 22.1829C183.993 22.4392 184.059 22.7332 184.059 23.08H186.059ZM185.715 21.4089C185.51 20.8618 185.21 20.3767 184.806 19.9729L183.392 21.3871C183.575 21.5699 183.728 21.8048 183.843 22.1111L185.715 21.4089ZM184.836 20.0043C184.453 19.5859 183.999 19.255 183.482 19.0138L182.636 20.8262C182.919 20.9583 183.159 21.1341 183.362 21.3557L184.836 20.0043ZM183.482 19.0138C182.946 18.7637 182.374 18.64 181.779 18.64V20.64C182.09 20.64 182.372 20.703 182.636 20.8262L183.482 19.0138ZM181.779 18.64C181.473 18.64 181.115 18.6733 180.718 18.73L181 20.7099C181.35 20.66 181.605 20.64 181.779 20.64V18.64ZM180.788 18.7225C180.324 18.7557 179.847 18.8534 179.361 19.0055L179.957 20.9145C180.324 20.7999 180.647 20.7377 180.93 20.7175L180.788 18.7225ZM179.401 18.9938C178.947 19.115 178.486 19.2794 178.018 19.4838L178.82 21.3162C179.206 21.1473 179.571 21.0184 179.917 20.9262L179.401 18.9938ZM178.018 19.4838C177.536 19.6947 177.072 19.9498 176.624 20.2479L177.734 21.912C178.087 21.6768 178.449 21.4786 178.82 21.3162L178.018 19.4838ZM176.179 21.08V34.96H178.179V21.08H176.179ZM176.139 37.28V48H178.139V37.28H176.139ZM177.139 47H175.139V49H177.139V47ZM176.139 48V19.88H174.139V48H176.139ZM175.83 19.1566L174.95 18.3166L173.569 19.7634L174.449 20.6034L175.83 19.1566ZM174.976 19.7371L176.376 18.2971L174.942 16.9029L173.542 18.3429L174.976 19.7371ZM174.964 18.3186L176.204 19.5186L177.594 18.0814L176.354 16.8814L174.964 18.3186ZM177.346 19.6944C178.183 19.2759 178.975 19.0032 179.723 18.8629L179.355 16.8971C178.396 17.0768 177.428 17.4175 176.452 17.9056L177.346 19.6944ZM179.753 18.8569C180.563 18.6797 181.221 18.6 181.739 18.6V16.6C181.031 16.6 180.222 16.707 179.325 16.9031L179.753 18.8569ZM181.739 18.6C182.351 18.6 182.901 18.7192 183.402 18.9491L184.236 17.1309C183.457 16.7741 182.621 16.6 181.739 16.6V18.6ZM183.402 18.9491C183.927 19.1896 184.382 19.5148 184.773 19.9277L186.225 18.5523C185.656 17.9519 184.991 17.4771 184.236 17.1309L183.402 18.9491ZM184.773 19.9277C185.157 20.3334 185.463 20.8198 185.686 21.399L187.552 20.681C187.242 19.8735 186.801 19.1599 186.225 18.5523L184.773 19.9277ZM185.698 21.4296C185.938 21.9963 186.059 22.5968 186.059 23.24H188.059C188.059 22.3365 187.887 21.4704 187.54 20.6504L185.698 21.4296ZM186.059 23.24V32.76H188.059V23.24H186.059ZM186.059 32.76C186.059 33.4032 185.938 34.0037 185.698 34.5704L187.54 35.3496C187.887 34.5296 188.059 33.6635 188.059 32.76H186.059ZM185.691 34.5886C185.468 35.146 185.157 35.6453 184.756 36.091L186.242 37.429C186.801 36.8081 187.237 36.1073 187.548 35.3314L185.691 34.5886ZM184.773 36.0723C184.382 36.4852 183.927 36.8104 183.402 37.0509L184.236 38.8691C184.991 38.5229 185.656 38.0481 186.225 37.4477L184.773 36.0723ZM183.402 37.0509C182.901 37.2808 182.351 37.4 181.739 37.4V39.4C182.621 39.4 183.457 39.2259 184.236 38.8691L183.402 37.0509ZM181.739 37.4C181.353 37.4 180.791 37.3536 180.036 37.2494L179.762 39.2306C180.554 39.3398 181.219 39.4 181.739 39.4V37.4ZM180.002 37.2453C179.405 37.1836 178.613 36.9245 177.604 36.3946L176.674 38.1654C177.798 38.7555 178.846 39.1364 179.796 39.2347L180.002 37.2453Z" fill="black"/>
<line y1="-1.5" x2="165.519" y2="-1.5" transform="matrix(0.999987 -0.00504483 0.00880945 0.999961 3 54.2727)" stroke="black" stroke-width="3"/>
<line x1="166.983" y1="51" x2="166.983" y2="63.3" stroke="black" stroke-width="3"/>
<line x1="182.5" y1="61" x2="182.5" y2="73.3" stroke="black" stroke-width="3"/>
<line x1="166" y1="62.5" x2="182.588" y2="62.5" stroke="black" stroke-width="3"/>
<path d="M181 73H197.588" stroke="black" stroke-width="3"/>
<path d="M988.931 349.5C987.276 315.833 957.703 247.4 852.655 243C747.607 238.6 420.839 222.5 270.586 215C208.609 215 85.4276 182.7 88.5173 53.5" stroke="black" stroke-width="3"/>
<path d="M988.293 351.707C988.683 352.098 989.317 352.098 989.707 351.707L996.071 345.343C996.462 344.953 996.462 344.319 996.071 343.929C995.681 343.538 995.047 343.538 994.657 343.929L989 349.586L983.343 343.929C982.953 343.538 982.319 343.538 981.929 343.929C981.538 344.319 981.538 344.953 981.929 345.343L988.293 351.707ZM988 345V351H990V345H988Z" fill="black"/>
</svg>
