<svg width="529" height="529" viewBox="0 0 529 529" fill="none" xmlns="http://www.w3.org/2000/svg">
<g clip-path="url(#clip0_11_66)">
<path d="M297.562 190.109V363.688C297.562 368.072 299.304 372.277 302.404 375.377C305.505 378.477 309.709 380.219 314.094 380.219H380.219C384.603 380.219 388.808 378.477 391.908 375.377C395.008 372.277 396.75 368.072 396.75 363.688V190.109C396.706 148.471 380.146 108.551 350.704 79.1088C321.261 49.6663 281.341 33.1063 239.703 33.0625H16.5312C12.1469 33.0625 7.9421 34.8042 4.84189 37.9044C1.74168 41.0046 0 45.2094 0 49.5938L0 479.406C0 483.791 1.74168 487.995 4.84189 491.096C7.9421 494.196 12.1469 495.938 16.5312 495.938H82.6562C87.0406 495.938 91.2454 494.196 94.3456 491.096C97.4458 487.995 99.1875 483.791 99.1875 479.406V132.25H239.703C255.048 132.25 269.765 138.346 280.616 149.197C291.467 160.047 297.562 174.764 297.562 190.109ZM82.6562 99.1875C78.2719 99.1875 74.0671 100.929 70.9669 104.029C67.8667 107.13 66.125 111.334 66.125 115.719V462.875H33.0625V66.125H239.703C272.586 66.125 304.122 79.1876 327.373 102.439C350.625 125.691 363.687 157.227 363.688 190.109V347.156H330.625V190.109C330.581 166.009 320.988 142.908 303.946 125.866C286.905 108.824 263.804 99.2312 239.703 99.1875H82.6562Z" fill="black"/>
<path d="M512.469 33.0625H446.344C441.959 33.0625 437.755 34.8042 434.654 37.9044C431.554 41.0046 429.812 45.2094 429.812 49.5938V396.75H289.297C273.952 396.75 259.235 390.654 248.384 379.803C237.533 368.953 231.438 354.236 231.438 338.891V165.312C231.438 160.928 229.696 156.723 226.596 153.623C223.495 150.523 219.291 148.781 214.906 148.781H148.781C144.397 148.781 140.192 150.523 137.092 153.623C133.992 156.723 132.25 160.928 132.25 165.312V338.891C132.294 380.529 148.854 420.449 178.296 449.891C207.739 479.334 247.659 495.894 289.297 495.938H512.469C516.853 495.938 521.058 494.196 524.158 491.096C527.258 487.995 529 483.791 529 479.406V49.5938C529 45.2094 527.258 41.0046 524.158 37.9044C521.058 34.8042 516.853 33.0625 512.469 33.0625ZM495.938 462.875H289.297C256.414 462.875 224.878 449.812 201.627 426.561C178.375 403.309 165.312 371.773 165.312 338.891V181.844H198.375V338.891C198.419 362.991 208.012 386.092 225.054 403.134C242.095 420.176 265.196 429.769 289.297 429.812H446.344C450.728 429.812 454.933 428.071 458.033 424.971C461.133 421.87 462.875 417.666 462.875 413.281V66.125H495.938V462.875Z" fill="black"/>
</g>
<defs>
<clipPath id="clip0_11_66">
<rect width="529" height="529" fill="white"/>
</clipPath>
</defs>
</svg>
