<svg width="974" height="356" viewBox="0 0 974 356" fill="none" xmlns="http://www.w3.org/2000/svg">
<path d="M812.6 29.8C812.6 30.92 812.4 31.9733 812 32.96C811.627 33.9467 811.093 34.8133 810.4 35.56C809.733 36.28 808.933 36.8667 808 37.32C807.067 37.7467 806.067 37.96 805 37.96C803.96 37.96 802.947 37.8267 801.96 37.56C800.973 37.2933 800.093 37 799.32 36.68C798.413 36.3067 797.547 35.8667 796.72 35.36L797.52 33.16C798.427 33.64 799.32 34.0533 800.2 34.4C800.973 34.6933 801.787 34.9733 802.64 35.24C803.493 35.48 804.267 35.6 804.96 35.6C805.707 35.6 806.4 35.4533 807.04 35.16C807.707 34.8667 808.28 34.4667 808.76 33.96C809.24 33.4267 809.613 32.8133 809.88 32.12C810.147 31.4267 810.28 30.68 810.28 29.88C810.28 29.0533 810.093 28.3733 809.72 27.84C809.347 27.28 808.867 26.8267 808.28 26.48C807.72 26.1067 807.093 25.8267 806.4 25.64C805.707 25.4267 805.027 25.2667 804.36 25.16C803.373 25 802.44 24.72 801.56 24.32C800.707 23.92 799.947 23.4 799.28 22.76C798.64 22.12 798.133 21.3733 797.76 20.52C797.387 19.6667 797.2 18.7067 797.2 17.64C797.2 16.5467 797.387 15.52 797.76 14.56C798.16 13.5733 798.693 12.72 799.36 12C800.053 11.2533 800.853 10.6667 801.76 10.24C802.667 9.81333 803.627 9.6 804.64 9.6C805.28 9.6 805.933 9.68 806.6 9.84C807.293 9.97333 807.933 10.12 808.52 10.28C809.187 10.4933 809.84 10.72 810.48 10.96L809.72 13.2C809.133 12.96 808.533 12.7467 807.92 12.56C807.387 12.4 806.827 12.2533 806.24 12.12C805.653 11.9867 805.093 11.92 804.56 11.92C803.84 11.92 803.16 12.08 802.52 12.4C801.907 12.6933 801.373 13.1067 800.92 13.64C800.467 14.1467 800.107 14.7467 799.84 15.44C799.573 16.1067 799.44 16.8 799.44 17.52C799.44 18.3467 799.6 19.08 799.92 19.72C800.267 20.3333 800.693 20.8533 801.2 21.28C801.733 21.7067 802.32 22.0533 802.96 22.32C803.6 22.56 804.213 22.7333 804.8 22.84C805.893 23.0267 806.907 23.2933 807.84 23.64C808.8 23.9867 809.627 24.44 810.32 25C811.04 25.5333 811.6 26.2 812 27C812.4 27.8 812.6 28.7333 812.6 29.8ZM816.232 10H818.352V13.12H816.232V10ZM816.232 18H818.352V38H816.232V18ZM827.698 29.2L823.938 38H821.898L826.138 28.04L821.898 18H823.938L827.858 26.8H828.498L832.218 18H834.338L830.258 28.04L834.458 37.96H832.338L828.538 29.2H827.698ZM839.629 32.8V19.96H836.229V17.96H839.629V10H841.749V17.96H845.429V19.96H841.749V33C841.749 34.0933 842.015 34.8533 842.549 35.28C843.109 35.68 843.775 35.88 844.549 35.88H845.429V38.04H844.349C843.682 38.04 843.055 37.9467 842.469 37.76C841.909 37.5467 841.415 37.24 840.989 36.84C840.562 36.4133 840.229 35.8667 839.989 35.2C839.749 34.5333 839.629 33.7333 839.629 32.8ZM858.613 38V23.12C858.613 22.16 858.293 21.3467 857.653 20.68C857.013 19.9867 856.226 19.64 855.293 19.64C855.053 19.64 854.759 19.6667 854.413 19.72C854.066 19.7467 853.679 19.8133 853.253 19.92C852.826 20.0267 852.399 20.1733 851.973 20.36C851.546 20.5467 851.133 20.7733 850.733 21.04V38H848.693V10H850.693V18.72C851.759 18.16 852.679 17.84 853.453 17.76C854.226 17.6533 854.839 17.6 855.293 17.6C856.039 17.6 856.733 17.7467 857.373 18.04C858.013 18.3333 858.573 18.7467 859.053 19.28C859.533 19.7867 859.906 20.3867 860.173 21.08C860.466 21.7467 860.613 22.4667 860.613 23.24V38H858.613ZM897.483 29.8C897.483 30.92 897.283 31.9733 896.883 32.96C896.509 33.9467 895.976 34.8133 895.283 35.56C894.616 36.28 893.816 36.8667 892.883 37.32C891.949 37.7467 890.949 37.96 889.883 37.96C888.843 37.96 887.829 37.8267 886.843 37.56C885.856 37.2933 884.976 37 884.203 36.68C883.296 36.3067 882.429 35.8667 881.603 35.36L882.403 33.16C883.309 33.64 884.203 34.0533 885.083 34.4C885.856 34.6933 886.669 34.9733 887.523 35.24C888.376 35.48 889.149 35.6 889.843 35.6C890.589 35.6 891.283 35.4533 891.923 35.16C892.589 34.8667 893.163 34.4667 893.643 33.96C894.123 33.4267 894.496 32.8133 894.763 32.12C895.029 31.4267 895.163 30.68 895.163 29.88C895.163 29.0533 894.976 28.3733 894.603 27.84C894.229 27.28 893.749 26.8267 893.163 26.48C892.603 26.1067 891.976 25.8267 891.283 25.64C890.589 25.4267 889.909 25.2667 889.243 25.16C888.256 25 887.323 24.72 886.443 24.32C885.589 23.92 884.829 23.4 884.163 22.76C883.523 22.12 883.016 21.3733 882.643 20.52C882.269 19.6667 882.083 18.7067 882.083 17.64C882.083 16.5467 882.269 15.52 882.643 14.56C883.043 13.5733 883.576 12.72 884.243 12C884.936 11.2533 885.736 10.6667 886.643 10.24C887.549 9.81333 888.509 9.6 889.523 9.6C890.163 9.6 890.816 9.68 891.483 9.84C892.176 9.97333 892.816 10.12 893.403 10.28C894.069 10.4933 894.723 10.72 895.363 10.96L894.603 13.2C894.016 12.96 893.416 12.7467 892.803 12.56C892.269 12.4 891.709 12.2533 891.123 12.12C890.536 11.9867 889.976 11.92 889.443 11.92C888.723 11.92 888.043 12.08 887.403 12.4C886.789 12.6933 886.256 13.1067 885.803 13.64C885.349 14.1467 884.989 14.7467 884.723 15.44C884.456 16.1067 884.323 16.8 884.323 17.52C884.323 18.3467 884.483 19.08 884.803 19.72C885.149 20.3333 885.576 20.8533 886.083 21.28C886.616 21.7067 887.203 22.0533 887.843 22.32C888.483 22.56 889.096 22.7333 889.683 22.84C890.776 23.0267 891.789 23.2933 892.723 23.64C893.683 23.9867 894.509 24.44 895.203 25C895.923 25.5333 896.483 26.2 896.883 27C897.283 27.8 897.483 28.7333 897.483 29.8ZM902.285 32.8V19.96H898.885V17.96H902.285V10H904.405V17.96H908.085V19.96H904.405V33C904.405 34.0933 904.672 34.8533 905.205 35.28C905.765 35.68 906.432 35.88 907.205 35.88H908.085V38.04H907.005C906.338 38.04 905.712 37.9467 905.125 37.76C904.565 37.5467 904.072 37.24 903.645 36.84C903.218 36.4133 902.885 35.8667 902.645 35.2C902.405 34.5333 902.285 33.7333 902.285 32.8ZM917.789 28.36H917.869C918.349 28.36 918.789 28.2667 919.189 28.08C919.589 27.8667 919.936 27.6 920.229 27.28C920.522 26.9333 920.749 26.5467 920.909 26.12C921.096 25.6933 921.189 25.24 921.189 24.76V23.08C921.189 22.44 921.069 21.9067 920.829 21.48C920.589 21.0267 920.269 20.6667 919.869 20.4C919.496 20.1333 919.042 19.9467 918.509 19.84C918.002 19.7067 917.469 19.64 916.909 19.64C916.402 19.64 915.909 19.72 915.429 19.88C914.976 20.04 914.576 20.2667 914.229 20.56C913.882 20.8533 913.602 21.2133 913.389 21.64C913.176 22.0667 913.069 22.5467 913.069 23.08V28.32L917.789 28.36ZM910.989 23.28C910.989 22.48 911.122 21.7333 911.389 21.04C911.682 20.3467 912.069 19.7467 912.549 19.24C913.056 18.7333 913.629 18.3333 914.269 18.04C914.936 17.7467 915.656 17.6 916.429 17.6H917.789C918.536 17.6 919.242 17.7467 919.909 18.04C920.576 18.3333 921.162 18.7333 921.669 19.24C922.176 19.7467 922.562 20.3467 922.829 21.04C923.122 21.7333 923.269 22.48 923.269 23.28V24.6C923.269 25.72 923.069 26.6667 922.669 27.44C922.269 28.1867 921.722 28.8 921.029 29.28C920.336 29.76 919.522 30.1067 918.589 30.32C917.682 30.5067 916.709 30.6 915.669 30.6C915.242 30.6 914.816 30.5867 914.389 30.56C913.962 30.5333 913.522 30.4933 913.069 30.44V32.84C913.256 33.9067 913.749 34.76 914.549 35.4C915.376 36.0133 916.309 36.32 917.349 36.32C917.456 36.32 917.789 36.2667 918.349 36.16C918.936 36.0267 919.549 35.8933 920.189 35.76C920.936 35.6 921.762 35.4133 922.669 35.2L923.149 37.32C922.162 37.5333 921.269 37.7067 920.469 37.84C919.776 37.9733 919.109 38.0933 918.469 38.2C917.856 38.3067 917.482 38.36 917.349 38.36C916.496 38.36 915.682 38.2133 914.909 37.92C914.136 37.6 913.456 37.16 912.869 36.6C912.282 36.04 911.816 35.3867 911.469 34.64C911.149 33.8667 910.989 33.0267 910.989 32.12V23.28ZM929.718 34.96C930.038 35.1733 930.411 35.36 930.838 35.52C931.265 35.68 931.691 35.8267 932.118 35.96C932.545 36.0933 932.945 36.2 933.318 36.28C933.718 36.3333 934.038 36.36 934.278 36.36C935.211 36.36 935.998 36.0267 936.638 35.36C937.278 34.6667 937.598 33.84 937.598 32.88V23.08C937.598 22.6 937.505 22.16 937.318 21.76C937.158 21.3333 936.931 20.9733 936.638 20.68C936.345 20.36 935.998 20.1067 935.598 19.92C935.198 19.7333 934.771 19.64 934.318 19.64C934.078 19.64 933.771 19.6667 933.398 19.72C933.025 19.7467 932.625 19.8267 932.198 19.96C931.798 20.0667 931.385 20.2133 930.958 20.4C930.531 20.5867 930.118 20.8133 929.718 21.08V34.96ZM929.678 37.28V48H927.678V19.88L926.798 19.04L928.198 17.6L929.438 18.8C930.345 18.3467 931.225 18.04 932.078 17.88C932.931 17.6933 933.665 17.6 934.278 17.6C935.025 17.6 935.718 17.7467 936.358 18.04C936.998 18.3333 937.558 18.7333 938.038 19.24C938.518 19.7467 938.891 20.3467 939.158 21.04C939.451 21.7333 939.598 22.4667 939.598 23.24V32.76C939.598 33.5333 939.451 34.2667 939.158 34.96C938.891 35.6267 938.518 36.2267 938.038 36.76C937.558 37.2667 936.998 37.6667 936.358 37.96C935.718 38.2533 935.025 38.4 934.278 38.4C933.825 38.4 933.211 38.3467 932.438 38.24C931.665 38.16 930.745 37.84 929.678 37.28Z" fill="black"/>
<path d="M812 32.96L811.073 32.5843L811.069 32.5952L811.065 32.6061L812 32.96ZM810.4 35.56L809.667 34.8795L809.666 34.8806L810.4 35.56ZM808 37.32L808.416 38.2295L808.426 38.2246L808.437 38.2195L808 37.32ZM801.96 37.56L802.221 36.5946L801.96 37.56ZM799.32 36.68L799.702 35.756L799.701 35.7553L799.32 36.68ZM796.72 35.36L795.78 35.0183L795.501 35.7858L796.197 36.2126L796.72 35.36ZM797.52 33.16L797.988 32.2762L796.973 31.7388L796.58 32.8183L797.52 33.16ZM800.2 34.4L799.833 35.3305L799.845 35.335L800.2 34.4ZM802.64 35.24L802.342 36.1945L802.355 36.1988L802.369 36.2027L802.64 35.24ZM807.04 35.16L806.637 34.2447L806.63 34.2478L806.623 34.2509L807.04 35.16ZM808.76 33.96L809.486 34.6477L809.495 34.6385L809.503 34.629L808.76 33.96ZM809.88 32.12L808.947 31.761L808.947 31.761L809.88 32.12ZM809.72 27.84L808.888 28.3947L808.894 28.4042L808.901 28.4135L809.72 27.84ZM808.28 26.48L807.725 27.312L807.748 27.3271L807.771 27.3409L808.28 26.48ZM806.4 25.64L806.106 26.5958L806.123 26.601L806.14 26.6056L806.4 25.64ZM804.36 25.16L804.2 26.1471L804.202 26.1474L804.36 25.16ZM801.56 24.32L801.136 25.2255L801.146 25.2304L801.56 24.32ZM799.28 22.76L798.573 23.4671L798.58 23.4743L798.587 23.4814L799.28 22.76ZM797.76 20.52L796.844 20.9208L796.844 20.9208L797.76 20.52ZM797.76 14.56L796.833 14.1843L796.831 14.1909L796.828 14.1976L797.76 14.56ZM799.36 12L798.627 11.3195L798.626 11.3206L799.36 12ZM801.76 10.24L802.186 11.1448L802.186 11.1448L801.76 10.24ZM806.6 9.84L806.367 10.8124L806.389 10.8177L806.411 10.822L806.6 9.84ZM808.52 10.28L808.825 9.32757L808.804 9.32095L808.783 9.31524L808.52 10.28ZM810.48 10.96L811.427 11.2813L811.738 10.3638L810.831 10.0237L810.48 10.96ZM809.72 13.2L809.341 14.1255L810.325 14.5281L810.667 13.5213L809.72 13.2ZM807.92 12.56L808.211 11.6033L808.207 11.6022L807.92 12.56ZM806.24 12.12L806.462 11.1449L806.462 11.1449L806.24 12.12ZM802.52 12.4L802.951 13.3021L802.959 13.2983L802.967 13.2944L802.52 12.4ZM800.92 13.64L801.665 14.3068L801.674 14.2973L801.682 14.2876L800.92 13.64ZM799.84 15.44L800.769 15.8114L800.773 15.799L799.84 15.44ZM799.92 19.72L799.026 20.1672L799.037 20.1899L799.049 20.2121L799.92 19.72ZM801.2 21.28L800.556 22.0449L800.565 22.053L800.575 22.0609L801.2 21.28ZM802.96 22.32L802.575 23.2431L802.592 23.25L802.609 23.2563L802.96 22.32ZM804.8 22.84L804.621 23.8239L804.632 23.8257L804.8 22.84ZM807.84 23.64L807.492 24.5775L807.5 24.5806L807.84 23.64ZM810.32 25L809.692 25.7779L809.708 25.7911L809.725 25.8036L810.32 25ZM812 27L811.106 27.4472L811.106 27.4472L812 27ZM811.6 29.8C811.6 30.798 811.422 31.7231 811.073 32.5843L812.927 33.3357C813.378 32.2236 813.6 31.042 813.6 29.8H811.6ZM811.065 32.6061C810.735 33.4762 810.269 34.231 809.667 34.8795L811.133 36.2405C811.917 35.3957 812.518 34.4171 812.935 33.3139L811.065 32.6061ZM809.666 34.8806C809.089 35.5043 808.391 36.0183 807.563 36.4205L808.437 38.2195C809.476 37.715 810.378 37.0557 811.134 36.2394L809.666 34.8806ZM807.584 36.4105C806.787 36.7752 805.929 36.96 805 36.96V38.96C806.204 38.96 807.347 38.7182 808.416 38.2295L807.584 36.4105ZM805 36.96C804.047 36.96 803.121 36.8379 802.221 36.5946L801.699 38.5254C802.772 38.8154 803.873 38.96 805 38.96V36.96ZM802.221 36.5946C801.267 36.3368 800.429 36.0565 799.702 35.756L798.938 37.604C799.758 37.9435 800.68 38.2499 801.699 38.5254L802.221 36.5946ZM799.701 35.7553C798.843 35.402 798.023 34.986 797.243 34.5074L796.197 36.2126C797.07 36.7473 797.984 37.2114 798.939 37.6047L799.701 35.7553ZM797.66 35.7017L798.46 33.5017L796.58 32.8183L795.78 35.0183L797.66 35.7017ZM797.052 34.0438C797.989 34.5398 798.916 34.969 799.833 35.3304L800.567 33.4696C799.724 33.1377 798.864 32.7402 797.988 32.2762L797.052 34.0438ZM799.845 35.335C800.639 35.6359 801.471 35.9224 802.342 36.1945L802.938 34.2855C802.102 34.0243 801.308 33.7507 800.555 33.465L799.845 35.335ZM802.369 36.2027C803.288 36.4609 804.154 36.6 804.96 36.6V34.6C804.38 34.6 803.699 34.4991 802.911 34.2773L802.369 36.2027ZM804.96 36.6C805.842 36.6 806.678 36.4259 807.457 36.0691L806.623 34.2509C806.122 34.4808 805.572 34.6 804.96 34.6V36.6ZM807.443 36.0753C808.226 35.7308 808.91 35.2552 809.486 34.6477L808.034 33.2723C807.65 33.6781 807.188 34.0026 806.637 34.2447L807.443 36.0753ZM809.503 34.629C810.068 34.0016 810.504 33.2823 810.813 32.479L808.947 31.761C808.722 32.3444 808.412 32.8518 808.017 33.291L809.503 34.629ZM810.813 32.479C811.127 31.6625 811.28 30.7932 811.28 29.88H809.28C809.28 30.5668 809.166 31.1908 808.947 31.761L810.813 32.479ZM811.28 29.88C811.28 28.9036 811.058 28.0083 810.539 27.2665L808.901 28.4135C809.128 28.7384 809.28 29.203 809.28 29.88H811.28ZM810.552 27.2853C810.094 26.5986 809.503 26.0412 808.789 25.6191L807.771 27.3409C808.23 27.6121 808.599 27.9614 808.888 28.3947L810.552 27.2853ZM808.835 25.6479C808.178 25.2105 807.451 24.8874 806.66 24.6744L806.14 26.6056C806.736 26.7659 807.262 27.0029 807.725 27.312L808.835 25.6479ZM806.694 24.6842C805.959 24.4582 805.234 24.2871 804.518 24.1726L804.202 26.1474C804.819 26.2462 805.454 26.3952 806.106 26.5958L806.694 24.6842ZM804.52 24.1729C803.618 24.0266 802.77 23.7717 801.974 23.4096L801.146 25.2304C802.11 25.6683 803.129 25.9734 804.2 26.1471L804.52 24.1729ZM801.984 23.4145C801.228 23.0599 800.559 22.6015 799.973 22.0386L798.587 23.4814C799.334 24.1985 800.185 24.7801 801.136 25.2255L801.984 23.4145ZM799.987 22.0529C799.438 21.5036 799.001 20.8617 798.676 20.1192L796.844 20.9208C797.266 21.885 797.842 22.7364 798.573 23.4671L799.987 22.0529ZM798.676 20.1192C798.366 19.4093 798.2 18.5886 798.2 17.64H796.2C796.2 18.8247 796.408 19.924 796.844 20.9208L798.676 20.1192ZM798.2 17.64C798.2 16.663 798.366 15.7599 798.692 14.9224L796.828 14.1976C796.407 15.2801 796.2 16.4304 796.2 17.64H798.2ZM798.687 14.9357C799.045 14.0515 799.516 13.3034 800.094 12.6794L798.626 11.3206C797.871 12.1366 797.275 13.0951 796.833 14.1843L798.687 14.9357ZM800.093 12.6804C800.701 12.0259 801.397 11.5161 802.186 11.1448L801.334 9.33518C800.31 9.81724 799.406 10.4808 798.627 11.3195L800.093 12.6804ZM802.186 11.1448C802.958 10.7816 803.772 10.6 804.64 10.6V8.6C803.481 8.6 802.376 8.84511 801.334 9.33518L802.186 11.1448ZM804.64 10.6C805.196 10.6 805.771 10.6694 806.367 10.8124L806.833 8.86761C806.096 8.69056 805.364 8.6 804.64 8.6V10.6ZM806.411 10.822C807.083 10.9513 807.698 11.0924 808.257 11.2448L808.783 9.31524C808.168 9.14758 807.503 8.99538 806.789 8.85799L806.411 10.822ZM808.215 11.2324C808.867 11.4409 809.505 11.6622 810.129 11.8963L810.831 10.0237C810.175 9.77779 809.507 9.54577 808.825 9.32757L808.215 11.2324ZM809.533 10.6387L808.773 12.8787L810.667 13.5213L811.427 11.2813L809.533 10.6387ZM810.099 12.2745C809.483 12.0226 808.854 11.7989 808.211 11.6033L807.629 13.5167C808.213 13.6944 808.784 13.8974 809.341 14.1255L810.099 12.2745ZM808.207 11.6022C807.651 11.4352 807.069 11.2828 806.462 11.1449L806.018 13.0951C806.585 13.2238 807.123 13.3648 807.633 13.5178L808.207 11.6022ZM806.462 11.1449C805.811 10.9971 805.177 10.92 804.56 10.92V12.92C805.01 12.92 805.495 12.9763 806.018 13.0951L806.462 11.1449ZM804.56 10.92C803.686 10.92 802.853 11.1157 802.073 11.5056L802.967 13.2944C803.467 13.0443 803.994 12.92 804.56 12.92V10.92ZM802.089 11.4979C801.345 11.8537 800.7 12.3552 800.158 12.9924L801.682 14.2876C802.047 13.8582 802.469 13.533 802.951 13.3021L802.089 11.4979ZM800.175 12.9732C799.633 13.5782 799.213 14.285 798.907 15.081L800.773 15.799C801.001 15.2083 801.3 14.7151 801.665 14.3068L800.175 12.9732ZM798.912 15.0686C798.597 15.8537 798.44 16.6731 798.44 17.52H800.44C800.44 16.9269 800.549 16.3596 800.768 15.8114L798.912 15.0686ZM798.44 17.52C798.44 18.4778 798.626 19.3683 799.026 20.1672L800.814 19.2728C800.574 18.7917 800.44 18.2156 800.44 17.52H798.44ZM799.049 20.2121C799.451 20.9225 799.952 21.5367 800.556 22.0449L801.844 20.5151C801.434 20.1699 801.082 19.7442 800.791 19.2279L799.049 20.2121ZM800.575 22.0609C801.183 22.5468 801.85 22.941 802.575 23.2431L803.345 21.3969C802.79 21.1657 802.284 20.8665 801.825 20.4991L800.575 22.0609ZM802.609 23.2563C803.297 23.5143 803.968 23.7051 804.621 23.8239L804.979 21.8561C804.459 21.7616 803.903 21.6057 803.311 21.3837L802.609 23.2563ZM804.632 23.8257C805.671 24.0031 806.623 24.2547 807.492 24.5774L808.188 22.7026C807.19 22.332 806.116 22.0502 804.968 21.8543L804.632 23.8257ZM807.5 24.5806C808.371 24.8948 809.096 25.2972 809.692 25.7779L810.948 24.2221C810.157 23.5828 809.229 23.0785 808.18 22.6994L807.5 24.5806ZM809.725 25.8036C810.319 26.2435 810.776 26.7881 811.106 27.4472L812.894 26.5528C812.424 25.6119 811.761 24.8232 810.915 24.1964L809.725 25.8036ZM811.106 27.4472C811.424 28.0841 811.6 28.8589 811.6 29.8H813.6C813.6 28.6077 813.376 27.5159 812.894 26.5528L811.106 27.4472ZM816.232 10V9H815.232V10H816.232ZM818.352 10H819.352V9H818.352V10ZM818.352 13.12V14.12H819.352V13.12H818.352ZM816.232 13.12H815.232V14.12H816.232V13.12ZM816.232 18V17H815.232V18H816.232ZM818.352 18H819.352V17H818.352V18ZM818.352 38V39H819.352V38H818.352ZM816.232 38H815.232V39H816.232V38ZM816.232 11H818.352V9H816.232V11ZM817.352 10V13.12H819.352V10H817.352ZM818.352 12.12H816.232V14.12H818.352V12.12ZM817.232 13.12V10H815.232V13.12H817.232ZM816.232 19H818.352V17H816.232V19ZM817.352 18V38H819.352V18H817.352ZM818.352 37H816.232V39H818.352V37ZM817.232 38V18H815.232V38H817.232ZM827.698 29.2V28.2H827.038L826.779 28.8071L827.698 29.2ZM823.938 38V39H824.599L824.858 38.3929L823.938 38ZM821.898 38L820.978 37.6083L820.386 39H821.898V38ZM826.138 28.04L827.059 28.4317L827.225 28.0416L827.06 27.651L826.138 28.04ZM821.898 18V17H820.391L820.977 18.389L821.898 18ZM823.938 18L824.852 17.5931L824.588 17H823.938V18ZM827.858 26.8L826.945 27.2069L827.209 27.8H827.858V26.8ZM828.498 26.8V27.8H829.161L829.42 27.1894L828.498 26.8ZM832.218 18V17H831.555L831.297 17.6106L832.218 18ZM834.338 18L835.265 18.3765L835.824 17H834.338V18ZM830.258 28.04L829.332 27.6635L829.176 28.0479L829.338 28.4299L830.258 28.04ZM834.458 37.96V38.96H835.968L835.379 37.5701L834.458 37.96ZM832.338 37.96L831.421 38.358L831.682 38.96H832.338V37.96ZM828.538 29.2L829.456 28.802L829.195 28.2H828.538V29.2ZM826.779 28.8071L823.019 37.6071L824.858 38.3929L828.618 29.5929L826.779 28.8071ZM823.938 37H821.898V39H823.938V37ZM822.819 38.3917L827.059 28.4317L825.218 27.6483L820.978 37.6083L822.819 38.3917ZM827.06 27.651L822.82 17.611L820.977 18.389L825.217 28.429L827.06 27.651ZM821.898 19H823.938V17H821.898V19ZM823.025 18.4069L826.945 27.2069L828.772 26.3931L824.852 17.5931L823.025 18.4069ZM827.858 27.8H828.498V25.8H827.858V27.8ZM829.42 27.1894L833.14 18.3894L831.297 17.6106L827.577 26.4106L829.42 27.1894ZM832.218 19H834.338V17H832.218V19ZM833.412 17.6235L829.332 27.6635L831.185 28.4165L835.265 18.3765L833.412 17.6235ZM829.338 28.4299L833.538 38.3499L835.379 37.5701L831.179 27.6501L829.338 28.4299ZM834.458 36.96H832.338V38.96H834.458V36.96ZM833.256 37.562L829.456 28.802L827.621 29.598L831.421 38.358L833.256 37.562ZM828.538 28.2H827.698V30.2H828.538V28.2ZM839.629 19.96H840.629V18.96H839.629V19.96ZM836.229 19.96H835.229V20.96H836.229V19.96ZM836.229 17.96V16.96H835.229V17.96H836.229ZM839.629 17.96V18.96H840.629V17.96H839.629ZM839.629 10V9H838.629V10H839.629ZM841.749 10H842.749V9H841.749V10ZM841.749 17.96H840.749V18.96H841.749V17.96ZM845.429 17.96H846.429V16.96H845.429V17.96ZM845.429 19.96V20.96H846.429V19.96H845.429ZM841.749 19.96V18.96H840.749V19.96H841.749ZM842.549 35.28L841.924 36.0609L841.945 36.0779L841.968 36.0937L842.549 35.28ZM845.429 35.88H846.429V34.88H845.429V35.88ZM845.429 38.04V39.04H846.429V38.04H845.429ZM842.469 37.76L842.113 38.6945L842.139 38.7044L842.166 38.7129L842.469 37.76ZM840.989 36.84L840.282 37.5471L840.293 37.5585L840.305 37.5695L840.989 36.84ZM839.989 35.2L839.048 35.5387L839.048 35.5387L839.989 35.2ZM840.629 32.8V19.96H838.629V32.8H840.629ZM839.629 18.96H836.229V20.96H839.629V18.96ZM837.229 19.96V17.96H835.229V19.96H837.229ZM836.229 18.96H839.629V16.96H836.229V18.96ZM840.629 17.96V10H838.629V17.96H840.629ZM839.629 11H841.749V9H839.629V11ZM840.749 10V17.96H842.749V10H840.749ZM841.749 18.96H845.429V16.96H841.749V18.96ZM844.429 17.96V19.96H846.429V17.96H844.429ZM845.429 18.96H841.749V20.96H845.429V18.96ZM840.749 19.96V33H842.749V19.96H840.749ZM840.749 33C840.749 34.2151 841.041 35.3542 841.924 36.0609L843.173 34.4991C842.99 34.3525 842.749 33.9716 842.749 33H840.749ZM841.968 36.0937C842.718 36.6296 843.594 36.88 844.549 36.88V34.88C843.957 34.88 843.5 34.7304 843.13 34.4663L841.968 36.0937ZM844.549 36.88H845.429V34.88H844.549V36.88ZM844.429 35.88V38.04H846.429V35.88H844.429ZM845.429 37.04H844.349V39.04H845.429V37.04ZM844.349 37.04C843.776 37.04 843.253 36.9601 842.772 36.8071L842.166 38.7129C842.858 38.9333 843.588 39.04 844.349 39.04V37.04ZM842.825 36.8255C842.383 36.6573 842.002 36.4192 841.673 36.1105L840.305 37.5695C840.829 38.0608 841.434 38.436 842.113 38.6945L842.825 36.8255ZM841.696 36.1329C841.39 35.8269 841.128 35.4134 840.93 34.8613L839.048 35.5387C839.329 36.3199 839.734 36.9997 840.282 37.5471L841.696 36.1329ZM840.93 34.8613C840.739 34.3316 840.629 33.6524 840.629 32.8H838.629C838.629 33.8143 838.759 34.7351 839.048 35.5387L840.93 34.8613ZM858.613 38H857.613V39H858.613V38ZM857.653 20.68L856.918 21.3583L856.925 21.3655L856.931 21.3725L857.653 20.68ZM854.413 19.72L854.49 20.7171L854.527 20.7141L854.565 20.7084L854.413 19.72ZM851.973 20.36L852.374 21.2762L852.374 21.2762L851.973 20.36ZM850.733 21.04L850.178 20.2079L849.733 20.5048V21.04H850.733ZM850.733 38V39H851.733V38H850.733ZM848.693 38H847.693V39H848.693V38ZM848.693 10V9H847.693V10H848.693ZM850.693 10H851.693V9H850.693V10ZM850.693 18.72H849.693V20.3744L851.158 19.6054L850.693 18.72ZM853.453 17.76L853.556 18.7547L853.573 18.7529L853.589 18.7506L853.453 17.76ZM857.373 18.04L856.956 18.9491L856.956 18.9491L857.373 18.04ZM859.053 19.28L858.31 19.949L858.318 19.9585L858.327 19.9677L859.053 19.28ZM860.173 21.08L859.239 21.439L859.248 21.4611L859.257 21.4827L860.173 21.08ZM860.613 38V39H861.613V38H860.613ZM859.613 38V23.12H857.613V38H859.613ZM859.613 23.12C859.613 21.913 859.201 20.8482 858.374 19.9875L856.931 21.3725C857.385 21.8451 857.613 22.407 857.613 23.12H859.613ZM858.388 20.0017C857.561 19.1059 856.509 18.64 855.293 18.64V20.64C855.944 20.64 856.465 20.8675 856.918 21.3583L858.388 20.0017ZM855.293 18.64C854.985 18.64 854.637 18.6737 854.261 18.7316L854.565 20.7084C854.882 20.6596 855.121 20.64 855.293 20.64V18.64ZM854.336 18.7229C853.921 18.7549 853.478 18.833 853.01 18.9499L853.495 20.8901C853.881 20.7937 854.211 20.7385 854.49 20.7171L854.336 18.7229ZM853.01 18.9499C852.526 19.0708 852.047 19.2361 851.572 19.4438L852.374 21.2762C852.752 21.1106 853.126 20.9825 853.495 20.8901L853.01 18.9499ZM851.572 19.4438C851.09 19.6547 850.625 19.9098 850.178 20.2079L851.288 21.872C851.64 21.6368 852.002 21.4386 852.374 21.2762L851.572 19.4438ZM849.733 21.04V38H851.733V21.04H849.733ZM850.733 37H848.693V39H850.733V37ZM849.693 38V10H847.693V38H849.693ZM848.693 11H850.693V9H848.693V11ZM849.693 10V18.72H851.693V10H849.693ZM851.158 19.6054C852.167 19.0755 852.959 18.8164 853.556 18.7547L853.35 16.7653C852.4 16.8636 851.352 17.2445 850.228 17.8346L851.158 19.6054ZM853.589 18.7506C854.345 18.6464 854.906 18.6 855.293 18.6V16.6C854.773 16.6 854.107 16.6602 853.316 16.7694L853.589 18.7506ZM855.293 18.6C855.905 18.6 856.455 18.7192 856.956 18.9491L857.789 17.1309C857.011 16.7741 856.174 16.6 855.293 16.6V18.6ZM856.956 18.9491C857.47 19.1844 857.919 19.5151 858.31 19.949L859.796 18.611C859.227 17.9782 858.556 17.4823 857.789 17.1309L856.956 18.9491ZM858.327 19.9677C858.711 20.3734 859.017 20.8598 859.239 21.439L861.106 20.721C860.796 19.9135 860.354 19.1999 859.779 18.5923L858.327 19.9677ZM859.257 21.4827C859.492 22.0147 859.613 22.5966 859.613 23.24H861.613C861.613 22.3367 861.441 21.4786 861.088 20.6773L859.257 21.4827ZM859.613 23.24V38H861.613V23.24H859.613ZM860.613 37H858.613V39H860.613V37ZM896.883 32.96L895.956 32.5843L895.952 32.5952L895.948 32.6061L896.883 32.96ZM895.283 35.56L894.55 34.8795L894.549 34.8806L895.283 35.56ZM892.883 37.32L893.299 38.2295L893.309 38.2246L893.32 38.2195L892.883 37.32ZM886.843 37.56L887.104 36.5946L886.843 37.56ZM884.203 36.68L884.585 35.756L884.584 35.7553L884.203 36.68ZM881.603 35.36L880.663 35.0183L880.384 35.7858L881.08 36.2126L881.603 35.36ZM882.403 33.16L882.871 32.2762L881.856 31.7388L881.463 32.8183L882.403 33.16ZM885.083 34.4L884.716 35.3305L884.728 35.335L885.083 34.4ZM887.523 35.24L887.225 36.1945L887.238 36.1988L887.252 36.2027L887.523 35.24ZM891.923 35.16L891.52 34.2447L891.513 34.2478L891.506 34.2509L891.923 35.16ZM893.643 33.96L894.369 34.6477L894.378 34.6385L894.386 34.629L893.643 33.96ZM894.763 32.12L893.829 31.761L893.829 31.761L894.763 32.12ZM894.603 27.84L893.771 28.3947L893.777 28.4042L893.784 28.4135L894.603 27.84ZM893.163 26.48L892.608 27.312L892.631 27.3271L892.654 27.3409L893.163 26.48ZM891.283 25.64L890.989 26.5958L891.006 26.601L891.023 26.6056L891.283 25.64ZM889.243 25.16L889.083 26.1471L889.085 26.1474L889.243 25.16ZM886.443 24.32L886.018 25.2255L886.029 25.2304L886.443 24.32ZM884.163 22.76L883.456 23.4671L883.463 23.4743L883.47 23.4814L884.163 22.76ZM882.643 20.52L881.727 20.9208L881.727 20.9208L882.643 20.52ZM882.643 14.56L881.716 14.1843L881.713 14.1909L881.711 14.1976L882.643 14.56ZM884.243 12L883.51 11.3195L883.509 11.3206L884.243 12ZM886.643 10.24L887.069 11.1448L887.069 11.1448L886.643 10.24ZM891.483 9.84L891.249 10.8124L891.272 10.8177L891.294 10.822L891.483 9.84ZM893.403 10.28L893.708 9.32757L893.687 9.32095L893.666 9.31524L893.403 10.28ZM895.363 10.96L896.31 11.2813L896.621 10.3638L895.714 10.0237L895.363 10.96ZM894.603 13.2L894.224 14.1255L895.208 14.5281L895.55 13.5213L894.603 13.2ZM892.803 12.56L893.094 11.6033L893.09 11.6022L892.803 12.56ZM891.123 12.12L891.344 11.1449L891.344 11.1449L891.123 12.12ZM887.403 12.4L887.834 13.3021L887.842 13.2983L887.85 13.2944L887.403 12.4ZM885.803 13.64L886.548 14.3068L886.557 14.2973L886.565 14.2876L885.803 13.64ZM884.723 15.44L885.651 15.8114L885.656 15.799L884.723 15.44ZM884.803 19.72L883.908 20.1672L883.92 20.1899L883.932 20.2121L884.803 19.72ZM886.083 21.28L885.439 22.0449L885.448 22.053L885.458 22.0609L886.083 21.28ZM887.843 22.32L887.458 23.2431L887.475 23.25L887.492 23.2563L887.843 22.32ZM889.683 22.84L889.504 23.8239L889.515 23.8257L889.683 22.84ZM892.723 23.64L892.375 24.5775L892.383 24.5806L892.723 23.64ZM895.203 25L894.574 25.7779L894.591 25.7911L894.608 25.8036L895.203 25ZM896.883 27L895.988 27.4472L895.988 27.4472L896.883 27ZM896.483 29.8C896.483 30.798 896.305 31.7231 895.956 32.5843L897.81 33.3357C898.26 32.2236 898.483 31.042 898.483 29.8H896.483ZM895.948 32.6061C895.618 33.4762 895.152 34.231 894.55 34.8795L896.016 36.2405C896.8 35.3957 897.401 34.4171 897.818 33.3139L895.948 32.6061ZM894.549 34.8806C893.972 35.5043 893.274 36.0183 892.446 36.4205L893.32 38.2195C894.358 37.715 895.261 37.0557 896.017 36.2394L894.549 34.8806ZM892.467 36.4105C891.669 36.7752 890.812 36.96 889.883 36.96V38.96C891.087 38.96 892.23 38.7182 893.299 38.2295L892.467 36.4105ZM889.883 36.96C888.929 36.96 888.004 36.8379 887.104 36.5946L886.582 38.5254C887.655 38.8154 888.756 38.96 889.883 38.96V36.96ZM887.104 36.5946C886.15 36.3368 885.311 36.0565 884.585 35.756L883.82 37.604C884.641 37.9435 885.563 38.2499 886.582 38.5254L887.104 36.5946ZM884.584 35.7553C883.725 35.402 882.906 34.986 882.125 34.5074L881.08 36.2126C881.953 36.7473 882.867 37.2114 883.822 37.6047L884.584 35.7553ZM882.543 35.7017L883.343 33.5017L881.463 32.8183L880.663 35.0183L882.543 35.7017ZM881.935 34.0438C882.872 34.5398 883.799 34.969 884.716 35.3304L885.449 33.4696C884.607 33.1377 883.747 32.7402 882.871 32.2762L881.935 34.0438ZM884.728 35.335C885.522 35.6359 886.354 35.9224 887.225 36.1945L887.821 34.2855C886.985 34.0243 886.191 33.7507 885.437 33.465L884.728 35.335ZM887.252 36.2027C888.17 36.4609 889.037 36.6 889.843 36.6V34.6C889.262 34.6 888.582 34.4991 887.794 34.2773L887.252 36.2027ZM889.843 36.6C890.724 36.6 891.561 36.4259 892.339 36.0691L891.506 34.2509C891.005 34.4808 890.455 34.6 889.843 34.6V36.6ZM892.326 36.0753C893.109 35.7308 893.793 35.2552 894.369 34.6477L892.917 33.2723C892.532 33.6781 892.07 34.0026 891.52 34.2447L892.326 36.0753ZM894.386 34.629C894.951 34.0016 895.387 33.2823 895.696 32.479L893.829 31.761C893.605 32.3444 893.295 32.8518 892.9 33.291L894.386 34.629ZM895.696 32.479C896.01 31.6625 896.163 30.7932 896.163 29.88H894.163C894.163 30.5668 894.049 31.1908 893.829 31.761L895.696 32.479ZM896.163 29.88C896.163 28.9036 895.941 28.0083 895.422 27.2665L893.784 28.4135C894.011 28.7384 894.163 29.203 894.163 29.88H896.163ZM895.435 27.2853C894.977 26.5986 894.386 26.0412 893.672 25.6191L892.654 27.3409C893.113 27.6121 893.482 27.9614 893.771 28.3947L895.435 27.2853ZM893.718 25.6479C893.061 25.2105 892.334 24.8874 891.543 24.6744L891.023 26.6056C891.618 26.7659 892.144 27.0029 892.608 27.312L893.718 25.6479ZM891.577 24.6842C890.842 24.4582 890.117 24.2871 889.401 24.1726L889.085 26.1474C889.702 26.2462 890.337 26.3952 890.989 26.5958L891.577 24.6842ZM889.403 24.1729C888.501 24.0266 887.653 23.7717 886.857 23.4096L886.029 25.2304C886.993 25.6683 888.011 25.9734 889.083 26.1471L889.403 24.1729ZM886.867 23.4145C886.111 23.0599 885.442 22.6015 884.855 22.0386L883.47 23.4814C884.217 24.1985 885.068 24.7801 886.018 25.2255L886.867 23.4145ZM884.87 22.0529C884.321 21.5036 883.884 20.8617 883.559 20.1192L881.727 20.9208C882.148 21.885 882.725 22.7364 883.456 23.4671L884.87 22.0529ZM883.559 20.1192C883.248 19.4093 883.083 18.5886 883.083 17.64H881.083C881.083 18.8247 881.291 19.924 881.727 20.9208L883.559 20.1192ZM883.083 17.64C883.083 16.663 883.249 15.7599 883.575 14.9224L881.711 14.1976C881.29 15.2801 881.083 16.4304 881.083 17.64H883.083ZM883.57 14.9357C883.928 14.0515 884.399 13.3034 884.977 12.6794L883.509 11.3206C882.753 12.1366 882.158 13.0951 881.716 14.1843L883.57 14.9357ZM884.976 12.6804C885.583 12.0259 886.28 11.5161 887.069 11.1448L886.217 9.33518C885.193 9.81724 884.289 10.4808 883.51 11.3195L884.976 12.6804ZM887.069 11.1448C887.841 10.7816 888.655 10.6 889.523 10.6V8.6C888.364 8.6 887.258 8.84511 886.217 9.33518L887.069 11.1448ZM889.523 10.6C890.079 10.6 890.654 10.6694 891.249 10.8124L891.716 8.86761C890.978 8.69056 890.247 8.6 889.523 8.6V10.6ZM891.294 10.822C891.966 10.9513 892.581 11.0924 893.14 11.2448L893.666 9.31524C893.051 9.14758 892.386 8.99538 891.672 8.85799L891.294 10.822ZM893.098 11.2324C893.749 11.4409 894.387 11.6622 895.012 11.8963L895.714 10.0237C895.058 9.77779 894.389 9.54577 893.708 9.32757L893.098 11.2324ZM894.416 10.6387L893.656 12.8787L895.55 13.5213L896.31 11.2813L894.416 10.6387ZM894.981 12.2745C894.366 12.0226 893.737 11.7989 893.094 11.6033L892.512 13.5167C893.096 13.6944 893.666 13.8974 894.224 14.1255L894.981 12.2745ZM893.09 11.6022C892.533 11.4352 891.951 11.2828 891.344 11.1449L890.901 13.0951C891.468 13.2238 892.005 13.3648 892.515 13.5178L893.09 11.6022ZM891.344 11.1449C890.694 10.9971 890.06 10.92 889.443 10.92V12.92C889.893 12.92 890.378 12.9763 890.901 13.0951L891.344 11.1449ZM889.443 10.92C888.569 10.92 887.735 11.1157 886.956 11.5056L887.85 13.2944C888.35 13.0443 888.877 12.92 889.443 12.92V10.92ZM886.971 11.4979C886.227 11.8537 885.582 12.3552 885.041 12.9924L886.565 14.2876C886.93 13.8582 887.352 13.533 887.834 13.3021L886.971 11.4979ZM885.058 12.9732C884.516 13.5782 884.096 14.285 883.789 15.081L885.656 15.799C885.883 15.2083 886.183 14.7151 886.548 14.3068L885.058 12.9732ZM883.794 15.0686C883.48 15.8537 883.323 16.6731 883.323 17.52H885.323C885.323 16.9269 885.432 16.3596 885.651 15.8114L883.794 15.0686ZM883.323 17.52C883.323 18.4778 883.509 19.3683 883.908 20.1672L885.697 19.2728C885.457 18.7917 885.323 18.2156 885.323 17.52H883.323ZM883.932 20.2121C884.334 20.9225 884.835 21.5367 885.439 22.0449L886.727 20.5151C886.317 20.1699 885.965 19.7442 885.673 19.2279L883.932 20.2121ZM885.458 22.0609C886.066 22.5468 886.733 22.941 887.458 23.2431L888.227 21.3969C887.672 21.1657 887.167 20.8665 886.708 20.4991L885.458 22.0609ZM887.492 23.2563C888.18 23.5143 888.851 23.7051 889.504 23.8239L889.862 21.8561C889.342 21.7616 888.786 21.6057 888.194 21.3837L887.492 23.2563ZM889.515 23.8257C890.553 24.0031 891.506 24.2547 892.375 24.5774L893.071 22.7026C892.073 22.332 890.999 22.0502 889.851 21.8543L889.515 23.8257ZM892.383 24.5806C893.254 24.8948 893.979 25.2972 894.574 25.7779L895.831 24.2221C895.04 23.5828 894.112 23.0785 893.062 22.6994L892.383 24.5806ZM894.608 25.8036C895.201 26.2435 895.659 26.7881 895.988 27.4472L897.777 26.5528C897.307 25.6119 896.644 24.8232 895.798 24.1964L894.608 25.8036ZM895.988 27.4472C896.307 28.0841 896.483 28.8589 896.483 29.8H898.483C898.483 28.6077 898.259 27.5159 897.777 26.5528L895.988 27.4472ZM902.285 19.96H903.285V18.96H902.285V19.96ZM898.885 19.96H897.885V20.96H898.885V19.96ZM898.885 17.96V16.96H897.885V17.96H898.885ZM902.285 17.96V18.96H903.285V17.96H902.285ZM902.285 10V9H901.285V10H902.285ZM904.405 10H905.405V9H904.405V10ZM904.405 17.96H903.405V18.96H904.405V17.96ZM908.085 17.96H909.085V16.96H908.085V17.96ZM908.085 19.96V20.96H909.085V19.96H908.085ZM904.405 19.96V18.96H903.405V19.96H904.405ZM905.205 35.28L904.58 36.0609L904.602 36.0779L904.624 36.0937L905.205 35.28ZM908.085 35.88H909.085V34.88H908.085V35.88ZM908.085 38.04V39.04H909.085V38.04H908.085ZM905.125 37.76L904.769 38.6945L904.795 38.7044L904.822 38.7129L905.125 37.76ZM903.645 36.84L902.938 37.5471L902.949 37.5585L902.961 37.5695L903.645 36.84ZM902.645 35.2L901.704 35.5387L901.704 35.5387L902.645 35.2ZM903.285 32.8V19.96H901.285V32.8H903.285ZM902.285 18.96H898.885V20.96H902.285V18.96ZM899.885 19.96V17.96H897.885V19.96H899.885ZM898.885 18.96H902.285V16.96H898.885V18.96ZM903.285 17.96V10H901.285V17.96H903.285ZM902.285 11H904.405V9H902.285V11ZM903.405 10V17.96H905.405V10H903.405ZM904.405 18.96H908.085V16.96H904.405V18.96ZM907.085 17.96V19.96H909.085V17.96H907.085ZM908.085 18.96H904.405V20.96H908.085V18.96ZM903.405 19.96V33H905.405V19.96H903.405ZM903.405 33C903.405 34.2151 903.697 35.3542 904.58 36.0609L905.83 34.4991C905.646 34.3525 905.405 33.9716 905.405 33H903.405ZM904.624 36.0937C905.374 36.6296 906.25 36.88 907.205 36.88V34.88C906.613 34.88 906.156 34.7304 905.786 34.4663L904.624 36.0937ZM907.205 36.88H908.085V34.88H907.205V36.88ZM907.085 35.88V38.04H909.085V35.88H907.085ZM908.085 37.04H907.005V39.04H908.085V37.04ZM907.005 37.04C906.433 37.04 905.909 36.9601 905.428 36.8071L904.822 38.7129C905.514 38.9333 906.244 39.04 907.005 39.04V37.04ZM905.481 36.8255C905.04 36.6573 904.658 36.4192 904.329 36.1105L902.961 37.5695C903.485 38.0608 904.09 38.436 904.769 38.6945L905.481 36.8255ZM904.352 36.1329C904.046 35.8269 903.785 35.4134 903.586 34.8613L901.704 35.5387C901.985 36.3199 902.391 36.9997 902.938 37.5471L904.352 36.1329ZM903.586 34.8613C903.395 34.3316 903.285 33.6524 903.285 32.8H901.285C901.285 33.8143 901.415 34.7351 901.704 35.5387L903.586 34.8613ZM917.789 28.36L917.781 29.36H917.789V28.36ZM919.189 28.08L919.612 28.9862L919.636 28.9749L919.66 28.9624L919.189 28.08ZM920.229 27.28L920.966 27.9557L920.98 27.9411L920.992 27.9259L920.229 27.28ZM920.909 26.12L919.993 25.7192L919.982 25.7438L919.973 25.7689L920.909 26.12ZM920.829 21.48L919.945 21.9479L919.951 21.9592L919.957 21.9703L920.829 21.48ZM919.869 20.4L919.288 21.2137L919.301 21.2231L919.314 21.232L919.869 20.4ZM918.509 19.84L918.255 20.8071L918.284 20.8147L918.313 20.8206L918.509 19.84ZM915.429 19.88L915.113 18.9313L915.105 18.9341L915.096 18.937L915.429 19.88ZM914.229 20.56L914.875 21.3234L914.875 21.3234L914.229 20.56ZM913.389 21.64L912.495 21.1928L912.495 21.1928L913.389 21.64ZM913.069 28.32H912.069V29.3116L913.061 29.32L913.069 28.32ZM911.389 21.04L910.468 20.6504L910.462 20.6656L910.456 20.681L911.389 21.04ZM912.549 19.24L911.842 18.5329L911.832 18.5424L911.823 18.5523L912.549 19.24ZM914.269 18.04L913.866 17.1247L913.859 17.1278L913.852 17.1309L914.269 18.04ZM919.909 18.04L919.506 18.9553L919.506 18.9553L919.909 18.04ZM922.829 21.04L921.896 21.399L921.902 21.4144L921.908 21.4296L922.829 21.04ZM922.669 27.44L923.551 27.9122L923.554 27.9058L923.557 27.8994L922.669 27.44ZM921.029 29.28L921.598 30.1022L921.598 30.1022L921.029 29.28ZM918.589 30.32L918.791 31.2995L918.801 31.2973L918.812 31.2949L918.589 30.32ZM914.389 30.56L914.327 31.5581L914.327 31.5581L914.389 30.56ZM913.069 30.44L913.186 29.4468L912.069 29.3155V30.44H913.069ZM913.069 32.84H912.069V32.9268L912.084 33.0124L913.069 32.84ZM914.549 35.4L913.924 36.1809L913.939 36.1922L913.953 36.2031L914.549 35.4ZM918.349 36.16L918.536 37.1423L918.553 37.139L918.571 37.1351L918.349 36.16ZM920.189 35.76L920.393 36.739L920.399 36.7378L920.189 35.76ZM922.669 35.2L923.644 34.9792L923.422 33.9956L922.44 34.2266L922.669 35.2ZM923.149 37.32L923.36 38.2974L924.347 38.084L924.124 37.0992L923.149 37.32ZM920.469 37.84L920.305 36.8536L920.292 36.8556L920.28 36.858L920.469 37.84ZM918.469 38.2L918.305 37.2136L918.298 37.2148L918.469 38.2ZM914.909 37.92L914.527 38.844L914.54 38.8497L914.554 38.855L914.909 37.92ZM912.869 36.6L912.179 37.3234L912.179 37.3234L912.869 36.6ZM911.469 34.64L910.545 35.0224L910.553 35.0419L910.562 35.0611L911.469 34.64ZM917.789 29.36H917.869V27.36H917.789V29.36ZM917.869 29.36C918.482 29.36 919.068 29.2399 919.612 28.9862L918.766 27.1738C918.51 27.2934 918.216 27.36 917.869 27.36V29.36ZM919.66 28.9624C920.155 28.6981 920.593 28.3629 920.966 27.9557L919.492 26.6043C919.278 26.8371 919.023 27.0352 918.718 27.1976L919.66 28.9624ZM920.992 27.9259C921.36 27.4913 921.645 27.0049 921.845 26.4711L919.973 25.7689C919.853 26.0885 919.685 26.3753 919.466 26.6341L920.992 27.9259ZM921.825 26.5208C922.069 25.9638 922.189 25.3736 922.189 24.76H920.189C920.189 25.1064 920.123 25.4228 919.993 25.7192L921.825 26.5208ZM922.189 24.76V23.08H920.189V24.76H922.189ZM922.189 23.08C922.189 22.3195 922.047 21.6052 921.701 20.9897L919.957 21.9703C920.091 22.2081 920.189 22.5605 920.189 23.08H922.189ZM921.713 21.0121C921.4 20.4221 920.971 19.9329 920.424 19.5679L919.314 21.232C919.567 21.4004 919.778 21.6313 919.945 21.9479L921.713 21.0121ZM920.45 19.5863C919.942 19.2235 919.352 18.9888 918.705 18.8594L918.313 20.8206C918.733 20.9046 919.049 21.0431 919.288 21.2137L920.45 19.5863ZM918.764 18.8729C918.168 18.7163 917.549 18.64 916.909 18.64V20.64C917.389 20.64 917.836 20.697 918.255 20.8071L918.764 18.8729ZM916.909 18.64C916.295 18.64 915.695 18.7373 915.113 18.9313L915.745 20.8287C916.123 20.7027 916.51 20.64 916.909 20.64V18.64ZM915.096 18.937C914.535 19.135 914.028 19.4204 913.583 19.7966L914.875 21.3234C915.124 21.1129 915.416 20.945 915.762 20.823L915.096 18.937ZM913.583 19.7966C913.128 20.1818 912.765 20.6512 912.495 21.1928L914.283 22.0872C914.439 21.7755 914.637 21.5249 914.875 21.3234L913.583 19.7966ZM912.495 21.1928C912.204 21.774 912.069 22.4099 912.069 23.08H914.069C914.069 22.6834 914.147 22.3594 914.283 22.0872L912.495 21.1928ZM912.069 23.08V28.32H914.069V23.08H912.069ZM913.061 29.32L917.781 29.36L917.798 27.36L913.078 27.32L913.061 29.32ZM911.989 23.28C911.989 22.5932 912.103 21.9692 912.322 21.399L910.456 20.681C910.142 21.4975 909.989 22.3668 909.989 23.28H911.989ZM912.31 21.4296C912.56 20.8378 912.884 20.3409 913.275 19.9277L911.823 18.5523C911.255 19.1524 910.804 19.8555 910.468 20.6504L912.31 21.4296ZM913.256 19.9471C913.68 19.523 914.156 19.192 914.686 18.9491L913.852 17.1309C913.102 17.4747 912.431 17.9437 911.842 18.5329L913.256 19.9471ZM914.672 18.9553C915.204 18.7212 915.786 18.6 916.429 18.6V16.6C915.526 16.6 914.668 16.7721 913.866 17.1247L914.672 18.9553ZM916.429 18.6H917.789V16.6H916.429V18.6ZM917.789 18.6C918.401 18.6 918.97 18.7193 919.506 18.9553L920.312 17.1247C919.515 16.7741 918.671 16.6 917.789 16.6V18.6ZM919.506 18.9553C920.061 19.1996 920.544 19.5296 920.962 19.9471L922.376 18.5329C921.78 17.9371 921.09 17.4671 920.312 17.1247L919.506 18.9553ZM920.962 19.9471C921.366 20.3512 921.677 20.8313 921.896 21.399L923.762 20.681C923.447 19.862 922.985 19.1422 922.376 18.5329L920.962 19.9471ZM921.908 21.4296C922.146 21.9921 922.269 22.6053 922.269 23.28H924.269C924.269 22.3546 924.099 21.4746 923.75 20.6504L921.908 21.4296ZM922.269 23.28V24.6H924.269V23.28H922.269ZM922.269 24.6C922.269 25.6045 922.089 26.3841 921.781 26.9806L923.557 27.8994C924.049 26.9493 924.269 25.8355 924.269 24.6H922.269ZM921.788 26.9678C921.462 27.5753 921.022 28.0685 920.46 28.4578L921.598 30.1022C922.423 29.5315 923.076 28.798 923.551 27.9122L921.788 26.9678ZM920.46 28.4578C919.884 28.8562 919.192 29.1564 918.366 29.3451L918.812 31.2949C919.853 31.057 920.787 30.6638 921.598 30.1022L920.46 28.4578ZM918.387 29.3405C917.555 29.512 916.649 29.6 915.669 29.6V31.6C916.769 31.6 917.81 31.5013 918.791 31.2995L918.387 29.3405ZM915.669 29.6C915.263 29.6 914.857 29.5873 914.451 29.5619L914.327 31.5581C914.774 31.586 915.222 31.6 915.669 31.6V29.6ZM914.451 29.5619C914.044 29.5365 913.622 29.4982 913.186 29.4468L912.952 31.4332C913.422 31.4885 913.881 31.5302 914.327 31.5581L914.451 29.5619ZM912.069 30.44V32.84H914.069V30.44H912.069ZM912.084 33.0124C912.31 34.3041 912.923 35.3795 913.924 36.1809L915.174 34.6191C914.575 34.1405 914.201 33.5092 914.054 32.6676L912.084 33.0124ZM913.953 36.2031C914.954 36.9457 916.097 37.32 917.349 37.32V35.32C916.521 35.32 915.797 35.0809 915.145 34.5969L913.953 36.2031ZM917.349 37.32C917.496 37.32 917.687 37.2915 917.837 37.2674C918.018 37.2385 918.252 37.1964 918.536 37.1423L918.162 35.1777C917.886 35.2302 917.674 35.2681 917.521 35.2926C917.445 35.3048 917.389 35.3127 917.351 35.3173C917.303 35.3231 917.312 35.32 917.349 35.32V37.32ZM918.571 37.1351C919.151 37.0032 919.758 36.8712 920.393 36.739L919.985 34.781C919.34 34.9155 918.72 35.0501 918.127 35.1849L918.571 37.1351ZM920.399 36.7378C921.153 36.5761 921.986 36.388 922.898 36.1734L922.44 34.2266C921.538 34.4387 920.718 34.6239 919.98 34.7822L920.399 36.7378ZM921.694 35.4208L922.174 37.5408L924.124 37.0992L923.644 34.9792L921.694 35.4208ZM922.938 36.3426C921.963 36.5533 921.086 36.7234 920.305 36.8536L920.633 38.8264C921.452 38.6899 922.362 38.5133 923.36 38.2974L922.938 36.3426ZM920.28 36.858C919.594 36.9899 918.936 37.1084 918.305 37.2136L918.633 39.1864C919.282 39.0783 919.957 38.9568 920.658 38.822L920.28 36.858ZM918.298 37.2148C917.996 37.2673 917.76 37.3054 917.588 37.3301C917.392 37.358 917.334 37.36 917.349 37.36V39.36C917.498 39.36 917.693 39.3354 917.87 39.3099C918.071 39.2812 918.329 39.2393 918.64 39.1852L918.298 37.2148ZM917.349 37.36C916.613 37.36 915.92 37.234 915.264 36.985L914.554 38.855C915.445 39.1927 916.378 39.36 917.349 39.36V37.36ZM915.291 36.996C914.629 36.7217 914.054 36.3486 913.56 35.8766L912.179 37.3234C912.858 37.9714 913.643 38.4783 914.527 38.844L915.291 36.996ZM913.56 35.8766C913.065 35.4043 912.671 34.8539 912.376 34.2189L910.562 35.0611C910.961 35.9194 911.5 36.6757 912.179 37.3234L913.56 35.8766ZM912.393 34.2576C912.127 33.6153 911.989 32.9065 911.989 32.12H909.989C909.989 33.1468 910.171 34.118 910.545 35.0224L912.393 34.2576ZM911.989 32.12V23.28H909.989V32.12H911.989ZM929.718 34.96H928.718V35.4952L929.163 35.7921L929.718 34.96ZM932.118 35.96L932.416 35.0055L932.416 35.0055L932.118 35.96ZM933.318 36.28L933.109 37.2578L933.147 37.266L933.186 37.2712L933.318 36.28ZM936.638 35.36L937.36 36.0525L937.366 36.0455L937.373 36.0383L936.638 35.36ZM937.318 21.76L936.382 22.1111L936.395 22.1476L936.412 22.1829L937.318 21.76ZM936.638 20.68L935.901 21.3557L935.916 21.3717L935.931 21.3871L936.638 20.68ZM935.598 19.92L935.175 20.8262L935.175 20.8262L935.598 19.92ZM933.398 19.72L933.469 20.7175L933.505 20.7149L933.54 20.7099L933.398 19.72ZM932.198 19.96L932.456 20.9262L932.476 20.9208L932.496 20.9145L932.198 19.96ZM930.958 20.4L930.557 19.4838L930.557 19.4838L930.958 20.4ZM929.718 21.08L929.163 20.2479L928.718 20.5448V21.08H929.718ZM929.678 37.28L930.143 36.3946L928.678 35.6256V37.28H929.678ZM929.678 48V49H930.678V48H929.678ZM927.678 48H926.678V49H927.678V48ZM927.678 19.88H928.678V19.4521L928.369 19.1566L927.678 19.88ZM926.798 19.04L926.081 18.3429L925.378 19.0665L926.108 19.7634L926.798 19.04ZM928.198 17.6L928.894 16.8814L928.177 16.1876L927.481 16.9029L928.198 17.6ZM929.438 18.8L928.743 19.5186L929.252 20.0112L929.885 19.6944L929.438 18.8ZM932.078 17.88L932.262 18.8629L932.277 18.8601L932.292 18.8569L932.078 17.88ZM936.358 18.04L935.941 18.9491L935.941 18.9491L936.358 18.04ZM938.038 19.24L937.312 19.9277L937.312 19.9277L938.038 19.24ZM939.158 21.04L938.225 21.399L938.231 21.4144L938.237 21.4296L939.158 21.04ZM939.158 34.96L938.237 34.5704L938.233 34.5794L938.23 34.5886L939.158 34.96ZM938.038 36.76L938.764 37.4477L938.773 37.4385L938.781 37.429L938.038 36.76ZM936.358 37.96L935.941 37.0509L935.941 37.0509L936.358 37.96ZM932.438 38.24L932.575 37.2494L932.558 37.2471L932.541 37.2453L932.438 38.24ZM929.163 35.7921C929.557 36.0548 930.001 36.2743 930.487 36.4563L931.189 34.5837C930.821 34.4457 930.519 34.2919 930.273 34.1279L929.163 35.7921ZM930.487 36.4563C930.931 36.6227 931.375 36.7755 931.82 36.9145L932.416 35.0055C932.008 34.8778 931.599 34.7373 931.189 34.5837L930.487 36.4563ZM931.82 36.9145C932.271 37.0554 932.701 37.1704 933.109 37.2578L933.528 35.3022C933.189 35.2296 932.819 35.1312 932.416 35.0055L931.82 36.9145ZM933.186 37.2712C933.605 37.327 933.974 37.36 934.278 37.36V35.36C934.102 35.36 933.832 35.3396 933.45 35.2888L933.186 37.2712ZM934.278 37.36C935.481 37.36 936.529 36.9178 937.36 36.0525L935.917 34.6675C935.467 35.1355 934.942 35.36 934.278 35.36V37.36ZM937.373 36.0383C938.187 35.1567 938.598 34.0865 938.598 32.88H936.598C936.598 33.5935 936.37 34.1766 935.903 34.6817L937.373 36.0383ZM938.598 32.88V23.08H936.598V32.88H938.598ZM938.598 23.08C938.598 22.4668 938.478 21.8808 938.224 21.3371L936.412 22.1829C936.532 22.4392 936.598 22.7332 936.598 23.08H938.598ZM938.254 21.4089C938.049 20.8618 937.749 20.3767 937.345 19.9729L935.931 21.3871C936.114 21.5699 936.267 21.8048 936.382 22.1111L938.254 21.4089ZM937.375 20.0043C936.992 19.5859 936.538 19.255 936.021 19.0138L935.175 20.8262C935.458 20.9583 935.698 21.1341 935.901 21.3557L937.375 20.0043ZM936.021 19.0138C935.485 18.7637 934.914 18.64 934.318 18.64V20.64C934.629 20.64 934.911 20.703 935.175 20.8262L936.021 19.0138ZM934.318 18.64C934.012 18.64 933.654 18.6733 933.257 18.73L933.54 20.7099C933.889 20.66 934.144 20.64 934.318 20.64V18.64ZM933.327 18.7225C932.863 18.7557 932.386 18.8534 931.9 19.0055L932.496 20.9145C932.863 20.7999 933.186 20.7377 933.469 20.7175L933.327 18.7225ZM931.94 18.9938C931.486 19.115 931.025 19.2794 930.557 19.4838L931.359 21.3162C931.745 21.1473 932.11 21.0184 932.456 20.9262L931.94 18.9938ZM930.557 19.4838C930.075 19.6947 929.611 19.9498 929.163 20.2479L930.273 21.912C930.626 21.6768 930.988 21.4786 931.359 21.3162L930.557 19.4838ZM928.718 21.08V34.96H930.718V21.08H928.718ZM928.678 37.28V48H930.678V37.28H928.678ZM929.678 47H927.678V49H929.678V47ZM928.678 48V19.88H926.678V48H928.678ZM928.369 19.1566L927.489 18.3166L926.108 19.7634L926.988 20.6034L928.369 19.1566ZM927.515 19.7371L928.915 18.2971L927.481 16.9029L926.081 18.3429L927.515 19.7371ZM927.503 18.3186L928.743 19.5186L930.134 18.0814L928.894 16.8814L927.503 18.3186ZM929.885 19.6944C930.722 19.2759 931.514 19.0032 932.262 18.8629L931.894 16.8971C930.935 17.0768 929.967 17.4175 928.991 17.9056L929.885 19.6944ZM932.292 18.8569C933.102 18.6797 933.76 18.6 934.278 18.6V16.6C933.57 16.6 932.761 16.707 931.864 16.9031L932.292 18.8569ZM934.278 18.6C934.89 18.6 935.44 18.7192 935.941 18.9491L936.775 17.1309C935.996 16.7741 935.16 16.6 934.278 16.6V18.6ZM935.941 18.9491C936.466 19.1896 936.921 19.5148 937.312 19.9277L938.764 18.5523C938.195 17.9519 937.53 17.4771 936.775 17.1309L935.941 18.9491ZM937.312 19.9277C937.697 20.3334 938.002 20.8198 938.225 21.399L940.091 20.681C939.781 19.8735 939.34 19.1599 938.764 18.5523L937.312 19.9277ZM938.237 21.4296C938.477 21.9963 938.598 22.5968 938.598 23.24H940.598C940.598 22.3365 940.426 21.4704 940.079 20.6504L938.237 21.4296ZM938.598 23.24V32.76H940.598V23.24H938.598ZM938.598 32.76C938.598 33.4032 938.477 34.0037 938.237 34.5704L940.079 35.3496C940.426 34.5296 940.598 33.6635 940.598 32.76H938.598ZM938.23 34.5886C938.007 35.146 937.696 35.6453 937.295 36.091L938.781 37.429C939.34 36.8081 939.776 36.1073 940.087 35.3314L938.23 34.5886ZM937.312 36.0723C936.921 36.4852 936.466 36.8104 935.941 37.0509L936.775 38.8691C937.53 38.5229 938.195 38.0481 938.764 37.4477L937.312 36.0723ZM935.941 37.0509C935.44 37.2808 934.89 37.4 934.278 37.4V39.4C935.16 39.4 935.996 39.2259 936.775 38.8691L935.941 37.0509ZM934.278 37.4C933.892 37.4 933.33 37.3536 932.575 37.2494L932.301 39.2306C933.093 39.3398 933.758 39.4 934.278 39.4V37.4ZM932.541 37.2453C931.944 37.1836 931.152 36.9245 930.143 36.3946L929.213 38.1654C930.337 38.7555 931.385 39.1364 932.335 39.2347L932.541 37.2453Z" fill="black"/>
<line y1="-1.5" x2="158.301" y2="-1.5" transform="matrix(-0.999985 -0.00541203 -0.00821176 0.999966 951 58.2727)" stroke="black" stroke-width="3"/>
<line y1="-1.5" x2="12.3" y2="-1.5" transform="matrix(0 1 1 0 795.603 55)" stroke="black" stroke-width="3"/>
<line y1="-1.5" x2="12.3" y2="-1.5" transform="matrix(0 1 1 0 780.763 65)" stroke="black" stroke-width="3"/>
<line y1="-1.5" x2="15.865" y2="-1.5" transform="matrix(-1 0 0 1 795.109 68)" stroke="black" stroke-width="3"/>
<path d="M780.763 77H764.898" stroke="black" stroke-width="3"/>
<path d="M8.066 353.5C9.64899 319.833 37.9318 251.4 138.399 247C238.866 242.6 551.383 226.5 695.083 219C754.358 219 872.167 186.7 869.212 57.5" stroke="black" stroke-width="3"/>
<path d="M8.70711 355.707C8.31658 356.098 7.68342 356.098 7.29289 355.707L0.928932 349.343C0.538408 348.953 0.538408 348.319 0.928932 347.929C1.31946 347.538 1.95262 347.538 2.34315 347.929L8 353.586L13.6569 347.929C14.0474 347.538 14.6805 347.538 15.0711 347.929C15.4616 348.319 15.4616 348.953 15.0711 349.343L8.70711 355.707ZM9 349V355H7V349H9Z" fill="black"/>
</svg>
