<svg width="800" height="800" viewBox="0 0 800 800" fill="none" xmlns="http://www.w3.org/2000/svg">
<path d="M400 116.406L383.594 131.25L190.625 300H100V675H350V575C350 547.07 372.07 525 400 525C427.93 525 450 547.07 450 575V675H700V300H609.375L416.406 131.25L400 116.406ZM150 175C135.449 196.875 100 200.195 100 241.406C100 264.551 116.406 275 116.406 275H183.594C183.594 275 200 264.551 200 241.406C200 198.047 166.406 196.191 150 175ZM650 175C635.449 196.875 600 212.5 600 241.406C600 264.551 616.406 275 616.406 275H683.594C683.594 275 700 264.551 700 241.406C700 210.352 666.406 196.191 650 175ZM400 182.812L583.594 343.75L590.625 350H650V625H500V575C500 520.02 454.98 475 400 475C345.02 475 300 520.02 300 575V625H150V350H209.375L216.406 343.75L400 182.812ZM400 286.719L378.125 324.219H335.156L356.25 361.719L335.156 399.219H378.125L400 437.5L421.875 399.219H464.844L443.75 361.719L464.844 324.219H421.875L400 286.719Z" fill="black"/>
</svg>
