<svg width="995" height="352" viewBox="0 0 995 352" fill="none" xmlns="http://www.w3.org/2000/svg">
<path d="M28.96 10V12.16H22.56V38H20.4V12.16H13.76V10H28.96ZM42.1988 38V23.12C42.1988 22.16 41.8788 21.3467 41.2388 20.68C40.5988 19.9867 39.8121 19.64 38.8788 19.64C38.6388 19.64 38.3454 19.6667 37.9988 19.72C37.6521 19.7467 37.2654 19.8133 36.8388 19.92C36.4121 20.0267 35.9854 20.1733 35.5588 20.36C35.1321 20.5467 34.7188 20.7733 34.3188 21.04V38H32.2788V10H34.2788V18.72C35.3454 18.16 36.2654 17.84 37.0388 17.76C37.8121 17.6533 38.4254 17.6 38.8788 17.6C39.6254 17.6 40.3188 17.7467 40.9588 18.04C41.5988 18.3333 42.1588 18.7467 42.6388 19.28C43.1188 19.7867 43.4921 20.3867 43.7588 21.08C44.0521 21.7467 44.1988 22.4667 44.1988 23.24V38H42.1988ZM49.2319 10H51.3519V13.12H49.2319V10ZM49.2319 18H51.3519V38H49.2319V18ZM66.8184 19.2L65.6984 20.88C65.2451 20.6133 64.8718 20.4133 64.5784 20.28C64.2851 20.12 64.0051 20 63.7384 19.92C63.4984 19.84 63.2584 19.8 63.0184 19.8C62.8051 19.7733 62.5651 19.76 62.2984 19.76C61.8984 19.76 61.3518 19.88 60.6584 20.12C59.9651 20.3333 59.2718 20.76 58.5784 21.4V37.96H56.5784V20.28L55.5384 19.24L56.9384 17.8L58.3384 19.16C59.1118 18.4667 59.8451 18.04 60.5384 17.88C61.2584 17.6933 61.8718 17.6 62.3784 17.6C62.9118 17.6 63.4984 17.7067 64.1384 17.92C64.7784 18.1333 65.6718 18.56 66.8184 19.2ZM79.1044 34.88V21.08C78.171 20.4667 77.291 20.08 76.4644 19.92C75.6377 19.76 74.9977 19.68 74.5444 19.68C73.611 19.68 72.8244 20.0267 72.1844 20.72C71.5444 21.3867 71.2244 22.2 71.2244 23.16V32.88C71.2244 33.36 71.3044 33.8133 71.4644 34.24C71.651 34.64 71.891 35 72.1844 35.32C72.4777 35.6133 72.8244 35.8533 73.2244 36.04C73.6244 36.2267 74.051 36.32 74.5044 36.32C74.7444 36.32 75.1044 36.2933 75.5844 36.24C76.0644 36.16 76.5444 36.0667 77.0244 35.96C77.531 35.8267 77.9844 35.68 78.3844 35.52C78.7844 35.3333 79.0244 35.12 79.1044 34.88ZM79.1444 18.76V10.04H81.1444V36.08L82.0244 36.96L80.5844 38.36L79.3844 37.16C78.531 37.64 77.651 37.96 76.7444 38.12C75.8377 38.28 75.1044 38.36 74.5444 38.36C73.7977 38.36 73.1044 38.2133 72.4644 37.92C71.8244 37.6267 71.2644 37.2267 70.7844 36.72C70.3044 36.2133 69.9177 35.6133 69.6244 34.92C69.3577 34.2267 69.2244 33.4933 69.2244 32.72V23.28C69.2244 22.5067 69.3577 21.7867 69.6244 21.12C69.9177 20.4267 70.3044 19.8267 70.7844 19.32C71.2644 18.7867 71.8244 18.3733 72.4644 18.08C73.1044 17.7867 73.7977 17.64 74.5444 17.64C74.9977 17.64 75.611 17.6933 76.3844 17.8C77.1577 17.88 78.0777 18.2 79.1444 18.76ZM118.139 29.8C118.139 30.92 117.939 31.9733 117.539 32.96C117.166 33.9467 116.632 34.8133 115.939 35.56C115.272 36.28 114.472 36.8667 113.539 37.32C112.606 37.7467 111.606 37.96 110.539 37.96C109.499 37.96 108.486 37.8267 107.499 37.56C106.512 37.2933 105.632 37 104.859 36.68C103.952 36.3067 103.086 35.8667 102.259 35.36L103.059 33.16C103.966 33.64 104.859 34.0533 105.739 34.4C106.512 34.6933 107.326 34.9733 108.179 35.24C109.032 35.48 109.806 35.6 110.499 35.6C111.246 35.6 111.939 35.4533 112.579 35.16C113.246 34.8667 113.819 34.4667 114.299 33.96C114.779 33.4267 115.152 32.8133 115.419 32.12C115.686 31.4267 115.819 30.68 115.819 29.88C115.819 29.0533 115.632 28.3733 115.259 27.84C114.886 27.28 114.406 26.8267 113.819 26.48C113.259 26.1067 112.632 25.8267 111.939 25.64C111.246 25.4267 110.566 25.2667 109.899 25.16C108.912 25 107.979 24.72 107.099 24.32C106.246 23.92 105.486 23.4 104.819 22.76C104.179 22.12 103.672 21.3733 103.299 20.52C102.926 19.6667 102.739 18.7067 102.739 17.64C102.739 16.5467 102.926 15.52 103.299 14.56C103.699 13.5733 104.232 12.72 104.899 12C105.592 11.2533 106.392 10.6667 107.299 10.24C108.206 9.81333 109.166 9.6 110.179 9.6C110.819 9.6 111.472 9.68 112.139 9.84C112.832 9.97333 113.472 10.12 114.059 10.28C114.726 10.4933 115.379 10.72 116.019 10.96L115.259 13.2C114.672 12.96 114.072 12.7467 113.459 12.56C112.926 12.4 112.366 12.2533 111.779 12.12C111.192 11.9867 110.632 11.92 110.099 11.92C109.379 11.92 108.699 12.08 108.059 12.4C107.446 12.6933 106.912 13.1067 106.459 13.64C106.006 14.1467 105.646 14.7467 105.379 15.44C105.112 16.1067 104.979 16.8 104.979 17.52C104.979 18.3467 105.139 19.08 105.459 19.72C105.806 20.3333 106.232 20.8533 106.739 21.28C107.272 21.7067 107.859 22.0533 108.499 22.32C109.139 22.56 109.752 22.7333 110.339 22.84C111.432 23.0267 112.446 23.2933 113.379 23.64C114.339 23.9867 115.166 24.44 115.859 25C116.579 25.5333 117.139 26.2 117.539 27C117.939 27.8 118.139 28.7333 118.139 29.8ZM122.941 32.8V19.96H119.541V17.96H122.941V10H125.061V17.96H128.741V19.96H125.061V33C125.061 34.0933 125.328 34.8533 125.861 35.28C126.421 35.68 127.088 35.88 127.861 35.88H128.741V38.04H127.661C126.995 38.04 126.368 37.9467 125.781 37.76C125.221 37.5467 124.728 37.24 124.301 36.84C123.875 36.4133 123.541 35.8667 123.301 35.2C123.061 34.5333 122.941 33.7333 122.941 32.8ZM138.445 28.36H138.525C139.005 28.36 139.445 28.2667 139.845 28.08C140.245 27.8667 140.592 27.6 140.885 27.28C141.179 26.9333 141.405 26.5467 141.565 26.12C141.752 25.6933 141.845 25.24 141.845 24.76V23.08C141.845 22.44 141.725 21.9067 141.485 21.48C141.245 21.0267 140.925 20.6667 140.525 20.4C140.152 20.1333 139.699 19.9467 139.165 19.84C138.659 19.7067 138.125 19.64 137.565 19.64C137.059 19.64 136.565 19.72 136.085 19.88C135.632 20.04 135.232 20.2667 134.885 20.56C134.539 20.8533 134.259 21.2133 134.045 21.64C133.832 22.0667 133.725 22.5467 133.725 23.08V28.32L138.445 28.36ZM131.645 23.28C131.645 22.48 131.779 21.7333 132.045 21.04C132.339 20.3467 132.725 19.7467 133.205 19.24C133.712 18.7333 134.285 18.3333 134.925 18.04C135.592 17.7467 136.312 17.6 137.085 17.6H138.445C139.192 17.6 139.899 17.7467 140.565 18.04C141.232 18.3333 141.819 18.7333 142.325 19.24C142.832 19.7467 143.219 20.3467 143.485 21.04C143.779 21.7333 143.925 22.48 143.925 23.28V24.6C143.925 25.72 143.725 26.6667 143.325 27.44C142.925 28.1867 142.379 28.8 141.685 29.28C140.992 29.76 140.179 30.1067 139.245 30.32C138.339 30.5067 137.365 30.6 136.325 30.6C135.899 30.6 135.472 30.5867 135.045 30.56C134.619 30.5333 134.179 30.4933 133.725 30.44V32.84C133.912 33.9067 134.405 34.76 135.205 35.4C136.032 36.0133 136.965 36.32 138.005 36.32C138.112 36.32 138.445 36.2667 139.005 36.16C139.592 36.0267 140.205 35.8933 140.845 35.76C141.592 35.6 142.419 35.4133 143.325 35.2L143.805 37.32C142.819 37.5333 141.925 37.7067 141.125 37.84C140.432 37.9733 139.765 38.0933 139.125 38.2C138.512 38.3067 138.139 38.36 138.005 38.36C137.152 38.36 136.339 38.2133 135.565 37.92C134.792 37.6 134.112 37.16 133.525 36.6C132.939 36.04 132.472 35.3867 132.125 34.64C131.805 33.8667 131.645 33.0267 131.645 32.12V23.28ZM150.374 34.96C150.694 35.1733 151.068 35.36 151.494 35.52C151.921 35.68 152.348 35.8267 152.774 35.96C153.201 36.0933 153.601 36.2 153.974 36.28C154.374 36.3333 154.694 36.36 154.934 36.36C155.868 36.36 156.654 36.0267 157.294 35.36C157.934 34.6667 158.254 33.84 158.254 32.88V23.08C158.254 22.6 158.161 22.16 157.974 21.76C157.814 21.3333 157.588 20.9733 157.294 20.68C157.001 20.36 156.654 20.1067 156.254 19.92C155.854 19.7333 155.428 19.64 154.974 19.64C154.734 19.64 154.428 19.6667 154.054 19.72C153.681 19.7467 153.281 19.8267 152.854 19.96C152.454 20.0667 152.041 20.2133 151.614 20.4C151.188 20.5867 150.774 20.8133 150.374 21.08V34.96ZM150.334 37.28V48H148.334V19.88L147.454 19.04L148.854 17.6L150.094 18.8C151.001 18.3467 151.881 18.04 152.734 17.88C153.588 17.6933 154.321 17.6 154.934 17.6C155.681 17.6 156.374 17.7467 157.014 18.04C157.654 18.3333 158.214 18.7333 158.694 19.24C159.174 19.7467 159.548 20.3467 159.814 21.04C160.108 21.7333 160.254 22.4667 160.254 23.24V32.76C160.254 33.5333 160.108 34.2667 159.814 34.96C159.548 35.6267 159.174 36.2267 158.694 36.76C158.214 37.2667 157.654 37.6667 157.014 37.96C156.374 38.2533 155.681 38.4 154.934 38.4C154.481 38.4 153.868 38.3467 153.094 38.24C152.321 38.16 151.401 37.84 150.334 37.28Z" fill="black"/>
<path d="M28.96 10H29.96V9H28.96V10ZM28.96 12.16V13.16H29.96V12.16H28.96ZM22.56 12.16V11.16H21.56V12.16H22.56ZM22.56 38V39H23.56V38H22.56ZM20.4 38H19.4V39H20.4V38ZM20.4 12.16H21.4V11.16H20.4V12.16ZM13.76 12.16H12.76V13.16H13.76V12.16ZM13.76 10V9H12.76V10H13.76ZM27.96 10V12.16H29.96V10H27.96ZM28.96 11.16H22.56V13.16H28.96V11.16ZM21.56 12.16V38H23.56V12.16H21.56ZM22.56 37H20.4V39H22.56V37ZM21.4 38V12.16H19.4V38H21.4ZM20.4 11.16H13.76V13.16H20.4V11.16ZM14.76 12.16V10H12.76V12.16H14.76ZM13.76 11H28.96V9H13.76V11ZM42.1988 38H41.1988V39H42.1988V38ZM41.2388 20.68L40.5039 21.3583L40.5106 21.3655L40.5174 21.3725L41.2388 20.68ZM37.9988 19.72L38.0754 20.7171L38.1133 20.7141L38.1508 20.7084L37.9988 19.72ZM35.5588 20.36L35.9596 21.2762L35.9596 21.2762L35.5588 20.36ZM34.3188 21.04L33.7641 20.2079L33.3188 20.5048V21.04H34.3188ZM34.3188 38V39H35.3188V38H34.3188ZM32.2788 38H31.2788V39H32.2788V38ZM32.2788 10V9H31.2788V10H32.2788ZM34.2788 10H35.2788V9H34.2788V10ZM34.2788 18.72H33.2788V20.3744L34.7436 19.6054L34.2788 18.72ZM37.0388 17.76L37.1417 18.7547L37.1586 18.7529L37.1754 18.7506L37.0388 17.76ZM40.9588 18.04L40.5421 18.9491L40.5421 18.9491L40.9588 18.04ZM42.6388 19.28L41.8955 19.949L41.904 19.9585L41.9128 19.9677L42.6388 19.28ZM43.7588 21.08L42.8254 21.439L42.8339 21.4611L42.8434 21.4827L43.7588 21.08ZM44.1988 38V39H45.1988V38H44.1988ZM43.1988 38V23.12H41.1988V38H43.1988ZM43.1988 23.12C43.1988 21.913 42.7865 20.8482 41.9601 19.9875L40.5174 21.3725C40.971 21.8451 41.1988 22.407 41.1988 23.12H43.1988ZM41.9736 20.0017C41.1466 19.1059 40.0946 18.64 38.8788 18.64V20.64C39.5295 20.64 40.0509 20.8675 40.5039 21.3583L41.9736 20.0017ZM38.8788 18.64C38.5705 18.64 38.223 18.6737 37.8467 18.7316L38.1508 20.7084C38.4679 20.6596 38.707 20.64 38.8788 20.64V18.64ZM37.9221 18.7229C37.5071 18.7549 37.0638 18.833 36.5962 18.9499L37.0813 20.8901C37.4671 20.7937 37.7971 20.7385 38.0754 20.7171L37.9221 18.7229ZM36.5962 18.9499C36.1123 19.0708 35.6328 19.2361 35.1579 19.4438L35.9596 21.2762C36.3381 21.1106 36.7119 20.9825 37.0813 20.8901L36.5962 18.9499ZM35.1579 19.4438C34.6759 19.6547 34.2112 19.9098 33.7641 20.2079L34.8734 21.872C35.2263 21.6368 35.5883 21.4386 35.9596 21.2762L35.1579 19.4438ZM33.3188 21.04V38H35.3188V21.04H33.3188ZM34.3188 37H32.2788V39H34.3188V37ZM33.2788 38V10H31.2788V38H33.2788ZM32.2788 11H34.2788V9H32.2788V11ZM33.2788 10V18.72H35.2788V10H33.2788ZM34.7436 19.6054C35.7529 19.0755 36.5448 18.8164 37.1417 18.7547L36.9359 16.7653C35.9861 16.8636 34.938 17.2445 33.8139 17.8346L34.7436 19.6054ZM37.1754 18.7506C37.9307 18.6464 38.4922 18.6 38.8788 18.6V16.6C38.3586 16.6 37.6934 16.6602 36.9021 16.7694L37.1754 18.7506ZM38.8788 18.6C39.4905 18.6 40.0407 18.7192 40.5421 18.9491L41.3754 17.1309C40.5968 16.7741 39.7603 16.6 38.8788 16.6V18.6ZM40.5421 18.9491C41.0555 19.1844 41.505 19.5151 41.8955 19.949L43.382 18.611C42.8125 17.9782 42.142 17.4823 41.3754 17.1309L40.5421 18.9491ZM41.9128 19.9677C42.2971 20.3734 42.6026 20.8598 42.8254 21.439L44.6921 20.721C44.3815 19.9135 43.9404 19.1999 43.3647 18.5923L41.9128 19.9677ZM42.8434 21.4827C43.0775 22.0147 43.1988 22.5966 43.1988 23.24H45.1988C45.1988 22.3367 45.0266 21.4786 44.6741 20.6773L42.8434 21.4827ZM43.1988 23.24V38H45.1988V23.24H43.1988ZM44.1988 37H42.1988V39H44.1988V37ZM49.2319 10V9H48.2319V10H49.2319ZM51.3519 10H52.3519V9H51.3519V10ZM51.3519 13.12V14.12H52.3519V13.12H51.3519ZM49.2319 13.12H48.2319V14.12H49.2319V13.12ZM49.2319 18V17H48.2319V18H49.2319ZM51.3519 18H52.3519V17H51.3519V18ZM51.3519 38V39H52.3519V38H51.3519ZM49.2319 38H48.2319V39H49.2319V38ZM49.2319 11H51.3519V9H49.2319V11ZM50.3519 10V13.12H52.3519V10H50.3519ZM51.3519 12.12H49.2319V14.12H51.3519V12.12ZM50.2319 13.12V10H48.2319V13.12H50.2319ZM49.2319 19H51.3519V17H49.2319V19ZM50.3519 18V38H52.3519V18H50.3519ZM51.3519 37H49.2319V39H51.3519V37ZM50.2319 38V18H48.2319V38H50.2319ZM66.8184 19.2L67.6505 19.7547L68.2508 18.8542L67.3058 18.3268L66.8184 19.2ZM65.6984 20.88L65.1914 21.7419L66.0062 22.2212L66.5305 21.4347L65.6984 20.88ZM64.5784 20.28L64.0996 21.1579L64.1315 21.1753L64.1646 21.1904L64.5784 20.28ZM63.7384 19.92L63.4222 20.8687L63.4366 20.8735L63.4511 20.8778L63.7384 19.92ZM63.0184 19.8L62.8944 20.7923L62.9562 20.8H63.0184V19.8ZM60.6584 20.12L60.9525 21.0758L60.9691 21.0707L60.9855 21.065L60.6584 20.12ZM58.5784 21.4L57.9002 20.6652L57.5784 20.9622V21.4H58.5784ZM58.5784 37.96V38.96H59.5784V37.96H58.5784ZM56.5784 37.96H55.5784V38.96H56.5784V37.96ZM56.5784 20.28H57.5784V19.8658L57.2855 19.5729L56.5784 20.28ZM55.5384 19.24L54.8214 18.5429L54.1341 19.2499L54.8313 19.9471L55.5384 19.24ZM56.9384 17.8L57.6352 17.0827L56.9182 16.3862L56.2214 17.1029L56.9384 17.8ZM58.3384 19.16L57.6417 19.8773L58.3111 20.5276L59.006 19.9046L58.3384 19.16ZM60.5384 17.88L60.7633 18.8544L60.7764 18.8514L60.7894 18.848L60.5384 17.88ZM64.1384 17.92L64.4547 16.9713L64.4547 16.9713L64.1384 17.92ZM65.9864 18.6453L64.8664 20.3253L66.5305 21.4347L67.6505 19.7547L65.9864 18.6453ZM66.2055 20.0181C65.7382 19.7432 65.331 19.5236 64.9922 19.3696L64.1646 21.1904C64.4126 21.3031 64.752 21.4835 65.1914 21.7419L66.2055 20.0181ZM65.0573 19.4021C64.7147 19.2153 64.3705 19.0656 64.0258 18.9622L63.4511 20.8778C63.6397 20.9344 63.8555 21.0247 64.0996 21.1579L65.0573 19.4021ZM64.0547 18.9713C63.7182 18.8592 63.3716 18.8 63.0184 18.8V20.8C63.1453 20.8 63.2786 20.8208 63.4222 20.8687L64.0547 18.9713ZM63.1425 18.8077C62.8796 18.7749 62.5972 18.76 62.2984 18.76V20.76C62.533 20.76 62.7306 20.7718 62.8944 20.7923L63.1425 18.8077ZM62.2984 18.76C61.7301 18.76 61.0574 18.9237 60.3313 19.175L60.9855 21.065C61.6461 20.8363 62.0668 20.76 62.2984 20.76V18.76ZM60.3644 19.1642C59.4918 19.4327 58.6716 19.9531 57.9002 20.6652L59.2567 22.1348C59.8719 21.5669 60.4384 21.234 60.9525 21.0758L60.3644 19.1642ZM57.5784 21.4V37.96H59.5784V21.4H57.5784ZM58.5784 36.96H56.5784V38.96H58.5784V36.96ZM57.5784 37.96V20.28H55.5784V37.96H57.5784ZM57.2855 19.5729L56.2455 18.5329L54.8313 19.9471L55.8713 20.9871L57.2855 19.5729ZM56.2554 19.9371L57.6554 18.4971L56.2214 17.1029L54.8214 18.5429L56.2554 19.9371ZM56.2417 18.5173L57.6417 19.8773L59.0352 18.4427L57.6352 17.0827L56.2417 18.5173ZM59.006 19.9046C59.7074 19.2757 60.293 18.9629 60.7633 18.8544L60.3136 16.9056C59.3972 17.1171 58.5161 17.6576 57.6709 18.4154L59.006 19.9046ZM60.7894 18.848C61.4619 18.6736 61.9859 18.6 62.3784 18.6V16.6C61.7577 16.6 61.055 16.713 60.2875 16.912L60.7894 18.848ZM62.3784 18.6C62.7802 18.6 63.2584 18.6808 63.8222 18.8687L64.4547 16.9713C63.7384 16.7326 63.0434 16.6 62.3784 16.6V18.6ZM63.8222 18.8687C64.3708 19.0515 65.198 19.4408 66.3311 20.0732L67.3058 18.3268C66.1455 17.6792 65.1861 17.2151 64.4547 16.9713L63.8222 18.8687ZM79.1044 34.88L80.0531 35.1962L80.1044 35.0423V34.88H79.1044ZM79.1044 21.08H80.1044V20.5405L79.6536 20.2443L79.1044 21.08ZM76.4644 19.92L76.6544 18.9382L76.6544 18.9382L76.4644 19.92ZM72.1844 20.72L72.9058 21.4125L72.9125 21.4055L72.9192 21.3983L72.1844 20.72ZM71.4644 34.24L70.528 34.5911L70.5417 34.6276L70.5582 34.6629L71.4644 34.24ZM72.1844 35.32L71.4472 35.9957L71.4619 36.0117L71.4773 36.0271L72.1844 35.32ZM75.5844 36.24L75.6948 37.2339L75.7219 37.2309L75.7488 37.2264L75.5844 36.24ZM77.0244 35.96L77.2413 36.9362L77.2602 36.932L77.2789 36.9271L77.0244 35.96ZM78.3844 35.52L78.7558 36.4485L78.7818 36.4381L78.8073 36.4262L78.3844 35.52ZM79.1444 18.76L78.6795 19.6454L80.1444 20.4144V18.76H79.1444ZM79.1444 10.04V9.04H78.1444V10.04H79.1444ZM81.1444 10.04H82.1444V9.04H81.1444V10.04ZM81.1444 36.08H80.1444V36.4942L80.4373 36.7871L81.1444 36.08ZM82.0244 36.96L82.7215 37.677L83.4486 36.97L82.7315 36.2529L82.0244 36.96ZM80.5844 38.36L79.8773 39.0671L80.5745 39.7643L81.2815 39.077L80.5844 38.36ZM79.3844 37.16L80.0915 36.4529L79.5552 35.9166L78.8941 36.2884L79.3844 37.16ZM76.7444 38.12L76.5706 37.1352L76.7444 38.12ZM72.4644 37.92L72.881 37.0109L72.4644 37.92ZM69.6244 34.92L68.691 35.279L68.697 35.2944L68.7034 35.3096L69.6244 34.92ZM69.6244 21.12L68.7034 20.7304L68.6996 20.7394L68.6959 20.7486L69.6244 21.12ZM70.7844 19.32L71.5103 20.0077L71.5191 19.9985L71.5277 19.989L70.7844 19.32ZM72.4644 18.08L72.0477 17.1709L72.0477 17.1709L72.4644 18.08ZM76.3844 17.8L76.2477 18.7906L76.2646 18.7929L76.2815 18.7947L76.3844 17.8ZM80.1044 34.88V21.08H78.1044V34.88H80.1044ZM79.6536 20.2443C78.6449 19.5814 77.6436 19.1297 76.6544 18.9382L76.2744 20.9018C76.9385 21.0303 77.6972 21.3519 78.5552 21.9157L79.6536 20.2443ZM76.6544 18.9382C75.8086 18.7745 75.0942 18.68 74.5444 18.68V20.68C74.9012 20.68 75.4668 20.7455 76.2744 20.9018L76.6544 18.9382ZM74.5444 18.68C73.3285 18.68 72.2765 19.1459 71.4496 20.0417L72.9192 21.3983C73.3722 20.9075 73.8936 20.68 74.5444 20.68V18.68ZM71.463 20.0275C70.6367 20.8882 70.2244 21.953 70.2244 23.16H72.2244C72.2244 22.447 72.4521 21.8851 72.9058 21.4125L71.463 20.0275ZM70.2244 23.16V32.88H72.2244V23.16H70.2244ZM70.2244 32.88C70.2244 33.4734 70.3237 34.0463 70.528 34.5911L72.4007 33.8889C72.285 33.5804 72.2244 33.2466 72.2244 32.88H70.2244ZM70.5582 34.6629C70.7872 35.1537 71.0838 35.5993 71.4472 35.9957L72.9215 34.6443C72.6983 34.4007 72.5148 34.1263 72.3706 33.8171L70.5582 34.6629ZM71.4773 36.0271C71.8582 36.408 72.3027 36.7134 72.8015 36.9462L73.6473 35.1338C73.3461 34.9933 73.0972 34.8187 72.8915 34.6129L71.4773 36.0271ZM72.8015 36.9462C73.3375 37.1963 73.909 37.32 74.5044 37.32V35.32C74.1931 35.32 73.9112 35.257 73.6473 35.1338L72.8015 36.9462ZM74.5044 37.32C74.8019 37.32 75.207 37.2881 75.6948 37.2339L75.4739 35.2461C75.0018 35.2986 74.6868 35.32 74.5044 35.32V37.32ZM75.7488 37.2264C76.2466 37.1434 76.7441 37.0467 77.2413 36.9362L76.8074 34.9838C76.3447 35.0866 75.8822 35.1766 75.42 35.2536L75.7488 37.2264ZM77.2789 36.9271C77.8171 36.7854 78.3105 36.6266 78.7558 36.4485L78.013 34.5915C77.6582 34.7334 77.245 34.8679 76.7699 34.9929L77.2789 36.9271ZM78.8073 36.4262C79.283 36.2042 79.8402 35.8348 80.0531 35.1962L78.1557 34.5638C78.1841 34.4786 78.2238 34.4515 78.2 34.4726C78.1738 34.4959 78.1041 34.5473 77.9615 34.6138L78.8073 36.4262ZM80.1444 18.76V10.04H78.1444V18.76H80.1444ZM79.1444 11.04H81.1444V9.04H79.1444V11.04ZM80.1444 10.04V36.08H82.1444V10.04H80.1444ZM80.4373 36.7871L81.3173 37.6671L82.7315 36.2529L81.8515 35.3729L80.4373 36.7871ZM81.3273 36.243L79.8873 37.643L81.2815 39.077L82.7215 37.677L81.3273 36.243ZM81.2915 37.6529L80.0915 36.4529L78.6773 37.8671L79.8773 39.0671L81.2915 37.6529ZM78.8941 36.2884C78.1329 36.7166 77.3593 36.996 76.5706 37.1352L76.9182 39.1048C77.9428 38.924 78.9292 38.5634 79.8746 38.0316L78.8941 36.2884ZM76.5706 37.1352C75.6898 37.2907 75.021 37.36 74.5444 37.36V39.36C75.1877 39.36 75.9856 39.2693 76.9182 39.1048L76.5706 37.1352ZM74.5444 37.36C73.9326 37.36 73.3825 37.2408 72.881 37.0109L72.0477 38.8291C72.8263 39.1859 73.6628 39.36 74.5444 39.36V37.36ZM72.881 37.0109C72.3563 36.7704 71.9016 36.4452 71.5103 36.0323L70.0584 37.4077C70.6272 38.0081 71.2925 38.4829 72.0477 38.8291L72.881 37.0109ZM71.5103 36.0323C71.1189 35.6191 70.7957 35.1222 70.5453 34.5304L68.7034 35.3096C69.0397 36.1045 69.4898 36.8076 70.0584 37.4077L71.5103 36.0323ZM70.5577 34.561C70.3369 33.9869 70.2244 33.3757 70.2244 32.72H68.2244C68.2244 33.611 68.3785 34.4664 68.691 35.279L70.5577 34.561ZM70.2244 32.72V23.28H68.2244V32.72H70.2244ZM70.2244 23.28C70.2244 22.624 70.337 22.0311 70.5529 21.4914L68.6959 20.7486C68.3784 21.5422 68.2244 22.3893 68.2244 23.28H70.2244ZM70.5453 21.5096C70.7957 20.9178 71.1189 20.4209 71.5103 20.0077L70.0584 18.6323C69.4898 19.2324 69.0397 19.9355 68.7034 20.7304L70.5453 21.5096ZM71.5277 19.989C71.9181 19.5551 72.3676 19.2244 72.881 18.9891L72.0477 17.1709C71.2812 17.5223 70.6106 18.0182 70.0411 18.651L71.5277 19.989ZM72.881 18.9891C73.3825 18.7592 73.9326 18.64 74.5444 18.64V16.64C73.6628 16.64 72.8263 16.8141 72.0477 17.1709L72.881 18.9891ZM74.5444 18.64C74.9309 18.64 75.4924 18.6864 76.2477 18.7906L76.521 16.8094C75.7297 16.7002 75.0645 16.64 74.5444 16.64V18.64ZM76.2815 18.7947C76.8783 18.8564 77.6703 19.1155 78.6795 19.6454L79.6092 17.8746C78.4852 17.2845 77.4371 16.9036 76.4873 16.8053L76.2815 18.7947ZM117.539 32.96L116.612 32.5843L116.608 32.5952L116.604 32.6061L117.539 32.96ZM115.939 35.56L115.206 34.8795L115.205 34.8806L115.939 35.56ZM113.539 37.32L113.955 38.2295L113.965 38.2246L113.976 38.2195L113.539 37.32ZM107.499 37.56L107.76 36.5946L107.499 37.56ZM104.859 36.68L105.241 35.756L105.24 35.7553L104.859 36.68ZM102.259 35.36L101.319 35.0183L101.04 35.7858L101.737 36.2126L102.259 35.36ZM103.059 33.16L103.527 32.2762L102.512 31.7388L102.119 32.8183L103.059 33.16ZM105.739 34.4L105.373 35.3305L105.384 35.335L105.739 34.4ZM108.179 35.24L107.881 36.1945L107.894 36.1988L107.908 36.2027L108.179 35.24ZM112.579 35.16L112.176 34.2447L112.169 34.2478L112.162 34.2509L112.579 35.16ZM114.299 33.96L115.025 34.6477L115.034 34.6385L115.042 34.629L114.299 33.96ZM115.419 32.12L114.486 31.761L114.486 31.761L115.419 32.12ZM115.259 27.84L114.427 28.3947L114.433 28.4042L114.44 28.4135L115.259 27.84ZM113.819 26.48L113.264 27.312L113.287 27.3271L113.31 27.3409L113.819 26.48ZM111.939 25.64L111.645 26.5958L111.662 26.601L111.679 26.6056L111.939 25.64ZM109.899 25.16L109.739 26.1471L109.741 26.1474L109.899 25.16ZM107.099 24.32L106.675 25.2255L106.685 25.2304L107.099 24.32ZM104.819 22.76L104.112 23.4671L104.119 23.4743L104.127 23.4814L104.819 22.76ZM103.299 20.52L102.383 20.9208L102.383 20.9208L103.299 20.52ZM103.299 14.56L102.372 14.1843L102.37 14.1909L102.367 14.1976L103.299 14.56ZM104.899 12L104.166 11.3195L104.165 11.3206L104.899 12ZM107.299 10.24L107.725 11.1448L107.725 11.1448L107.299 10.24ZM112.139 9.84L111.906 10.8124L111.928 10.8177L111.95 10.822L112.139 9.84ZM114.059 10.28L114.364 9.32757L114.343 9.32095L114.322 9.31524L114.059 10.28ZM116.019 10.96L116.966 11.2813L117.277 10.3638L116.37 10.0237L116.019 10.96ZM115.259 13.2L114.88 14.1255L115.864 14.5281L116.206 13.5213L115.259 13.2ZM113.459 12.56L113.75 11.6033L113.746 11.6022L113.459 12.56ZM111.779 12.12L112.001 11.1449L112.001 11.1449L111.779 12.12ZM108.059 12.4L108.491 13.3021L108.498 13.2983L108.506 13.2944L108.059 12.4ZM106.459 13.64L107.204 14.3068L107.213 14.2973L107.221 14.2876L106.459 13.64ZM105.379 15.44L106.308 15.8114L106.312 15.799L105.379 15.44ZM105.459 19.72L104.565 20.1672L104.576 20.1899L104.588 20.2121L105.459 19.72ZM106.739 21.28L106.095 22.0449L106.105 22.053L106.114 22.0609L106.739 21.28ZM108.499 22.32L108.114 23.2431L108.131 23.25L108.148 23.2563L108.499 22.32ZM110.339 22.84L110.16 23.8239L110.171 23.8257L110.339 22.84ZM113.379 23.64L113.031 24.5775L113.039 24.5806L113.379 23.64ZM115.859 25L115.231 25.7779L115.247 25.7911L115.264 25.8036L115.859 25ZM117.539 27L116.645 27.4472L116.645 27.4472L117.539 27ZM117.139 29.8C117.139 30.798 116.961 31.7231 116.612 32.5843L118.466 33.3357C118.917 32.2236 119.139 31.042 119.139 29.8H117.139ZM116.604 32.6061C116.275 33.4762 115.809 34.231 115.206 34.8795L116.672 36.2405C117.456 35.3957 118.057 34.4171 118.474 33.3139L116.604 32.6061ZM115.205 34.8806C114.628 35.5043 113.93 36.0183 113.102 36.4205L113.976 38.2195C115.015 37.715 115.917 37.0557 116.673 36.2394L115.205 34.8806ZM113.123 36.4105C112.326 36.7752 111.468 36.96 110.539 36.96V38.96C111.743 38.96 112.886 38.7182 113.955 38.2295L113.123 36.4105ZM110.539 36.96C109.586 36.96 108.66 36.8379 107.76 36.5946L107.238 38.5254C108.311 38.8154 109.413 38.96 110.539 38.96V36.96ZM107.76 36.5946C106.806 36.3368 105.968 36.0565 105.241 35.756L104.477 37.604C105.297 37.9435 106.219 38.2499 107.238 38.5254L107.76 36.5946ZM105.24 35.7553C104.382 35.402 103.563 34.986 102.782 34.5074L101.737 36.2126C102.609 36.7473 103.523 37.2114 104.478 37.6047L105.24 35.7553ZM103.199 35.7017L103.999 33.5017L102.119 32.8183L101.319 35.0183L103.199 35.7017ZM102.591 34.0438C103.528 34.5398 104.455 34.969 105.373 35.3304L106.106 33.4696C105.263 33.1377 104.403 32.7402 103.527 32.2762L102.591 34.0438ZM105.384 35.335C106.178 35.6359 107.01 35.9224 107.881 36.1945L108.477 34.2855C107.641 34.0243 106.847 33.7507 106.094 33.465L105.384 35.335ZM107.908 36.2027C108.827 36.4609 109.693 36.6 110.499 36.6V34.6C109.919 34.6 109.238 34.4991 108.45 34.2773L107.908 36.2027ZM110.499 36.6C111.381 36.6 112.217 36.4259 112.996 36.0691L112.162 34.2509C111.661 34.4808 111.111 34.6 110.499 34.6V36.6ZM112.982 36.0753C113.765 35.7308 114.45 35.2552 115.025 34.6477L113.573 33.2723C113.189 33.6781 112.727 34.0026 112.176 34.2447L112.982 36.0753ZM115.042 34.629C115.607 34.0016 116.043 33.2823 116.352 32.479L114.486 31.761C114.261 32.3444 113.951 32.8518 113.556 33.291L115.042 34.629ZM116.352 32.479C116.666 31.6625 116.819 30.7932 116.819 29.88H114.819C114.819 30.5668 114.705 31.1908 114.486 31.761L116.352 32.479ZM116.819 29.88C116.819 28.9036 116.598 28.0083 116.078 27.2665L114.44 28.4135C114.667 28.7384 114.819 29.203 114.819 29.88H116.819ZM116.091 27.2853C115.633 26.5986 115.042 26.0412 114.328 25.6191L113.31 27.3409C113.769 27.6121 114.138 27.9614 114.427 28.3947L116.091 27.2853ZM114.374 25.6479C113.718 25.2105 112.99 24.8874 112.199 24.6744L111.679 26.6056C112.275 26.7659 112.801 27.0029 113.264 27.312L114.374 25.6479ZM112.233 24.6842C111.499 24.4582 110.773 24.2871 110.057 24.1726L109.741 26.1474C110.358 26.2462 110.993 26.3952 111.645 26.5958L112.233 24.6842ZM110.059 24.1729C109.157 24.0266 108.309 23.7717 107.513 23.4096L106.685 25.2304C107.649 25.6683 108.668 25.9734 109.739 26.1471L110.059 24.1729ZM107.523 23.4145C106.767 23.0599 106.098 22.6015 105.512 22.0386L104.127 23.4814C104.873 24.1985 105.724 24.7801 106.675 25.2255L107.523 23.4145ZM105.526 22.0529C104.977 21.5036 104.54 20.8617 104.215 20.1192L102.383 20.9208C102.805 21.885 103.381 22.7364 104.112 23.4671L105.526 22.0529ZM104.215 20.1192C103.905 19.4093 103.739 18.5886 103.739 17.64H101.739C101.739 18.8247 101.947 19.924 102.383 20.9208L104.215 20.1192ZM103.739 17.64C103.739 16.663 103.905 15.7599 104.231 14.9224L102.367 14.1976C101.946 15.2801 101.739 16.4304 101.739 17.64H103.739ZM104.226 14.9357C104.584 14.0515 105.055 13.3034 105.633 12.6794L104.165 11.3206C103.41 12.1366 102.814 13.0951 102.372 14.1843L104.226 14.9357ZM105.632 12.6804C106.24 12.0259 106.936 11.5161 107.725 11.1448L106.873 9.33518C105.849 9.81724 104.945 10.4808 104.166 11.3195L105.632 12.6804ZM107.725 11.1448C108.497 10.7816 109.311 10.6 110.179 10.6V8.6C109.02 8.6 107.915 8.84511 106.873 9.33518L107.725 11.1448ZM110.179 10.6C110.735 10.6 111.31 10.6694 111.906 10.8124L112.372 8.86761C111.635 8.69056 110.903 8.6 110.179 8.6V10.6ZM111.95 10.822C112.622 10.9513 113.237 11.0924 113.796 11.2448L114.322 9.31524C113.707 9.14758 113.042 8.99538 112.328 8.85799L111.95 10.822ZM113.754 11.2324C114.406 11.4409 115.044 11.6622 115.668 11.8963L116.37 10.0237C115.715 9.77779 115.046 9.54577 114.364 9.32757L113.754 11.2324ZM115.072 10.6387L114.312 12.8787L116.206 13.5213L116.966 11.2813L115.072 10.6387ZM115.638 12.2745C115.022 12.0226 114.393 11.7989 113.75 11.6033L113.168 13.5167C113.752 13.6944 114.323 13.8974 114.88 14.1255L115.638 12.2745ZM113.746 11.6022C113.19 11.4352 112.608 11.2828 112.001 11.1449L111.557 13.0951C112.124 13.2238 112.662 13.3648 113.172 13.5178L113.746 11.6022ZM112.001 11.1449C111.35 10.9971 110.716 10.92 110.099 10.92V12.92C110.549 12.92 111.034 12.9763 111.557 13.0951L112.001 11.1449ZM110.099 10.92C109.225 10.92 108.392 11.1157 107.612 11.5056L108.506 13.2944C109.007 13.0443 109.533 12.92 110.099 12.92V10.92ZM107.628 11.4979C106.884 11.8537 106.239 12.3552 105.697 12.9924L107.221 14.2876C107.586 13.8582 108.008 13.533 108.491 13.3021L107.628 11.4979ZM105.714 12.9732C105.172 13.5782 104.752 14.285 104.446 15.081L106.312 15.799C106.54 15.2083 106.839 14.7151 107.204 14.3068L105.714 12.9732ZM104.451 15.0686C104.137 15.8537 103.979 16.6731 103.979 17.52H105.979C105.979 16.9269 106.088 16.3596 106.308 15.8114L104.451 15.0686ZM103.979 17.52C103.979 18.4778 104.165 19.3683 104.565 20.1672L106.353 19.2728C106.113 18.7917 105.979 18.2156 105.979 17.52H103.979ZM104.588 20.2121C104.99 20.9225 105.491 21.5367 106.095 22.0449L107.383 20.5151C106.973 20.1699 106.621 19.7442 106.33 19.2279L104.588 20.2121ZM106.114 22.0609C106.722 22.5468 107.389 22.941 108.114 23.2431L108.884 21.3969C108.329 21.1657 107.823 20.8665 107.364 20.4991L106.114 22.0609ZM108.148 23.2563C108.836 23.5143 109.507 23.7051 110.16 23.8239L110.518 21.8561C109.998 21.7616 109.442 21.6057 108.85 21.3837L108.148 23.2563ZM110.171 23.8257C111.21 24.0031 112.162 24.2547 113.031 24.5774L113.727 22.7026C112.729 22.332 111.655 22.0502 110.507 21.8543L110.171 23.8257ZM113.039 24.5806C113.91 24.8948 114.635 25.2972 115.231 25.7779L116.487 24.2221C115.696 23.5828 114.768 23.0785 113.719 22.6994L113.039 24.5806ZM115.264 25.8036C115.858 26.2435 116.315 26.7881 116.645 27.4472L118.433 26.5528C117.963 25.6119 117.3 24.8232 116.454 24.1964L115.264 25.8036ZM116.645 27.4472C116.963 28.0841 117.139 28.8589 117.139 29.8H119.139C119.139 28.6077 118.915 27.5159 118.433 26.5528L116.645 27.4472ZM122.941 19.96H123.941V18.96H122.941V19.96ZM119.541 19.96H118.541V20.96H119.541V19.96ZM119.541 17.96V16.96H118.541V17.96H119.541ZM122.941 17.96V18.96H123.941V17.96H122.941ZM122.941 10V9H121.941V10H122.941ZM125.061 10H126.061V9H125.061V10ZM125.061 17.96H124.061V18.96H125.061V17.96ZM128.741 17.96H129.741V16.96H128.741V17.96ZM128.741 19.96V20.96H129.741V19.96H128.741ZM125.061 19.96V18.96H124.061V19.96H125.061ZM125.861 35.28L125.237 36.0609L125.258 36.0779L125.28 36.0937L125.861 35.28ZM128.741 35.88H129.741V34.88H128.741V35.88ZM128.741 38.04V39.04H129.741V38.04H128.741ZM125.781 37.76L125.425 38.6945L125.451 38.7044L125.478 38.7129L125.781 37.76ZM124.301 36.84L123.594 37.5471L123.606 37.5585L123.617 37.5695L124.301 36.84ZM123.301 35.2L122.36 35.5387L122.36 35.5387L123.301 35.2ZM123.941 32.8V19.96H121.941V32.8H123.941ZM122.941 18.96H119.541V20.96H122.941V18.96ZM120.541 19.96V17.96H118.541V19.96H120.541ZM119.541 18.96H122.941V16.96H119.541V18.96ZM123.941 17.96V10H121.941V17.96H123.941ZM122.941 11H125.061V9H122.941V11ZM124.061 10V17.96H126.061V10H124.061ZM125.061 18.96H128.741V16.96H125.061V18.96ZM127.741 17.96V19.96H129.741V17.96H127.741ZM128.741 18.96H125.061V20.96H128.741V18.96ZM124.061 19.96V33H126.061V19.96H124.061ZM124.061 33C124.061 34.2151 124.353 35.3542 125.237 36.0609L126.486 34.4991C126.303 34.3525 126.061 33.9716 126.061 33H124.061ZM125.28 36.0937C126.03 36.6296 126.906 36.88 127.861 36.88V34.88C127.269 34.88 126.812 34.7304 126.442 34.4663L125.28 36.0937ZM127.861 36.88H128.741V34.88H127.861V36.88ZM127.741 35.88V38.04H129.741V35.88H127.741ZM128.741 37.04H127.661V39.04H128.741V37.04ZM127.661 37.04C127.089 37.04 126.565 36.9601 126.084 36.8071L125.478 38.7129C126.171 38.9333 126.9 39.04 127.661 39.04V37.04ZM126.137 36.8255C125.696 36.6573 125.315 36.4192 124.985 36.1105L123.617 37.5695C124.141 38.0608 124.747 38.436 125.425 38.6945L126.137 36.8255ZM125.008 36.1329C124.702 35.8269 124.441 35.4134 124.242 34.8613L122.36 35.5387C122.642 36.3199 123.047 36.9997 123.594 37.5471L125.008 36.1329ZM124.242 34.8613C124.051 34.3316 123.941 33.6524 123.941 32.8H121.941C121.941 33.8143 122.071 34.7351 122.36 35.5387L124.242 34.8613ZM138.445 28.36L138.437 29.36H138.445V28.36ZM139.845 28.08L140.268 28.9862L140.292 28.9749L140.316 28.9624L139.845 28.08ZM140.885 27.28L141.622 27.9557L141.636 27.9411L141.649 27.9259L140.885 27.28ZM141.565 26.12L140.649 25.7192L140.638 25.7438L140.629 25.7689L141.565 26.12ZM141.485 21.48L140.602 21.9479L140.607 21.9592L140.614 21.9703L141.485 21.48ZM140.525 20.4L139.944 21.2137L139.957 21.2231L139.971 21.232L140.525 20.4ZM139.165 19.84L138.911 20.8071L138.94 20.8147L138.969 20.8206L139.165 19.84ZM136.085 19.88L135.769 18.9313L135.761 18.9341L135.752 18.937L136.085 19.88ZM134.885 20.56L135.531 21.3234L135.531 21.3234L134.885 20.56ZM134.045 21.64L133.151 21.1928L133.151 21.1928L134.045 21.64ZM133.725 28.32H132.725V29.3116L133.717 29.32L133.725 28.32ZM132.045 21.04L131.124 20.6504L131.118 20.6656L131.112 20.681L132.045 21.04ZM133.205 19.24L132.498 18.5329L132.489 18.5424L132.479 18.5523L133.205 19.24ZM134.925 18.04L134.523 17.1247L134.516 17.1278L134.509 17.1309L134.925 18.04ZM140.565 18.04L140.163 18.9553L140.163 18.9553L140.565 18.04ZM143.485 21.04L142.552 21.399L142.558 21.4144L142.564 21.4296L143.485 21.04ZM143.325 27.44L144.207 27.9122L144.21 27.9058L144.214 27.8994L143.325 27.44ZM141.685 29.28L142.255 30.1022L142.255 30.1022L141.685 29.28ZM139.245 30.32L139.447 31.2995L139.458 31.2973L139.468 31.2949L139.245 30.32ZM135.045 30.56L134.983 31.5581L134.983 31.5581L135.045 30.56ZM133.725 30.44L133.842 29.4468L132.725 29.3155V30.44H133.725ZM133.725 32.84H132.725V32.9268L132.74 33.0124L133.725 32.84ZM135.205 35.4L134.581 36.1809L134.595 36.1922L134.609 36.2031L135.205 35.4ZM139.005 36.16L139.192 37.1423L139.21 37.139L139.227 37.1351L139.005 36.16ZM140.845 35.76L141.049 36.739L141.055 36.7378L140.845 35.76ZM143.325 35.2L144.301 34.9792L144.078 33.9956L143.096 34.2266L143.325 35.2ZM143.805 37.32L144.017 38.2974L145.004 38.084L144.781 37.0992L143.805 37.32ZM141.125 37.84L140.961 36.8536L140.949 36.8556L140.936 36.858L141.125 37.84ZM139.125 38.2L138.961 37.2136L138.954 37.2148L139.125 38.2ZM135.565 37.92L135.183 38.844L135.197 38.8497L135.211 38.855L135.565 37.92ZM133.525 36.6L132.835 37.3234L132.835 37.3234L133.525 36.6ZM132.125 34.64L131.201 35.0224L131.209 35.0419L131.218 35.0611L132.125 34.64ZM138.445 29.36H138.525V27.36H138.445V29.36ZM138.525 29.36C139.138 29.36 139.725 29.2399 140.268 28.9862L139.422 27.1738C139.166 27.2934 138.872 27.36 138.525 27.36V29.36ZM140.316 28.9624C140.811 28.6981 141.249 28.3629 141.622 27.9557L140.148 26.6043C139.935 26.8371 139.679 27.0352 139.375 27.1976L140.316 28.9624ZM141.649 27.9259C142.016 27.4913 142.301 27.0049 142.502 26.4711L140.629 25.7689C140.509 26.0885 140.341 26.3753 140.122 26.6341L141.649 27.9259ZM142.481 26.5208C142.725 25.9638 142.845 25.3736 142.845 24.76H140.845C140.845 25.1064 140.779 25.4228 140.649 25.7192L142.481 26.5208ZM142.845 24.76V23.08H140.845V24.76H142.845ZM142.845 23.08C142.845 22.3195 142.703 21.6052 142.357 20.9897L140.614 21.9703C140.748 22.2081 140.845 22.5605 140.845 23.08H142.845ZM142.369 21.0121C142.057 20.4221 141.627 19.9329 141.08 19.5679L139.971 21.232C140.223 21.4004 140.434 21.6313 140.602 21.9479L142.369 21.0121ZM141.107 19.5863C140.599 19.2235 140.008 18.9888 139.361 18.8594L138.969 20.8206C139.389 20.9046 139.705 21.0431 139.944 21.2137L141.107 19.5863ZM139.42 18.8729C138.825 18.7163 138.205 18.64 137.565 18.64V20.64C138.045 20.64 138.493 20.697 138.911 20.8071L139.42 18.8729ZM137.565 18.64C136.951 18.64 136.351 18.7373 135.769 18.9313L136.402 20.8287C136.779 20.7027 137.166 20.64 137.565 20.64V18.64ZM135.752 18.937C135.192 19.135 134.684 19.4204 134.239 19.7966L135.531 21.3234C135.78 21.1129 136.072 20.945 136.418 20.823L135.752 18.937ZM134.239 19.7966C133.784 20.1818 133.422 20.6512 133.151 21.1928L134.94 22.0872C135.096 21.7755 135.293 21.5249 135.531 21.3234L134.239 19.7966ZM133.151 21.1928C132.86 21.774 132.725 22.4099 132.725 23.08H134.725C134.725 22.6834 134.804 22.3594 134.94 22.0872L133.151 21.1928ZM132.725 23.08V28.32H134.725V23.08H132.725ZM133.717 29.32L138.437 29.36L138.454 27.36L133.734 27.32L133.717 29.32ZM132.645 23.28C132.645 22.5932 132.759 21.9692 132.979 21.399L131.112 20.681C130.798 21.4975 130.645 22.3668 130.645 23.28H132.645ZM132.966 21.4296C133.217 20.8378 133.54 20.3409 133.931 19.9277L132.479 18.5523C131.911 19.1524 131.461 19.8555 131.124 20.6504L132.966 21.4296ZM133.912 19.9471C134.337 19.523 134.812 19.192 135.342 18.9491L134.509 17.1309C133.759 17.4747 133.087 17.9437 132.498 18.5329L133.912 19.9471ZM135.328 18.9553C135.86 18.7212 136.442 18.6 137.085 18.6V16.6C136.182 16.6 135.324 16.7721 134.523 17.1247L135.328 18.9553ZM137.085 18.6H138.445V16.6H137.085V18.6ZM138.445 18.6C139.057 18.6 139.626 18.7193 140.163 18.9553L140.968 17.1247C140.171 16.7741 139.327 16.6 138.445 16.6V18.6ZM140.163 18.9553C140.718 19.1996 141.201 19.5296 141.618 19.9471L143.032 18.5329C142.437 17.9371 141.746 17.4671 140.968 17.1247L140.163 18.9553ZM141.618 19.9471C142.022 20.3512 142.334 20.8313 142.552 21.399L144.419 20.681C144.104 19.862 143.642 19.1422 143.032 18.5329L141.618 19.9471ZM142.564 21.4296C142.802 21.9921 142.925 22.6053 142.925 23.28H144.925C144.925 22.3546 144.755 21.4746 144.406 20.6504L142.564 21.4296ZM142.925 23.28V24.6H144.925V23.28H142.925ZM142.925 24.6C142.925 25.6045 142.746 26.3841 142.437 26.9806L144.214 27.8994C144.705 26.9493 144.925 25.8355 144.925 24.6H142.925ZM142.444 26.9678C142.118 27.5753 141.678 28.0685 141.116 28.4578L142.255 30.1022C143.079 29.5315 143.732 28.798 144.207 27.9122L142.444 26.9678ZM141.116 28.4578C140.541 28.8562 139.848 29.1564 139.022 29.3451L139.468 31.2949C140.509 31.057 141.443 30.6638 142.255 30.1022L141.116 28.4578ZM139.044 29.3405C138.211 29.512 137.306 29.6 136.325 29.6V31.6C137.425 31.6 138.466 31.5013 139.447 31.2995L139.044 29.3405ZM136.325 29.6C135.919 29.6 135.514 29.5873 135.108 29.5619L134.983 31.5581C135.43 31.586 135.878 31.6 136.325 31.6V29.6ZM135.108 29.5619C134.7 29.5365 134.279 29.4982 133.842 29.4468L133.608 31.4332C134.079 31.4885 134.537 31.5302 134.983 31.5581L135.108 29.5619ZM132.725 30.44V32.84H134.725V30.44H132.725ZM132.74 33.0124C132.966 34.3041 133.579 35.3795 134.581 36.1809L135.83 34.6191C135.232 34.1405 134.858 33.5092 134.71 32.6676L132.74 33.0124ZM134.609 36.2031C135.61 36.9457 136.753 37.32 138.005 37.32V35.32C137.178 35.32 136.454 35.0809 135.801 34.5969L134.609 36.2031ZM138.005 37.32C138.152 37.32 138.343 37.2915 138.493 37.2674C138.674 37.2385 138.908 37.1964 139.192 37.1423L138.818 35.1777C138.542 35.2302 138.33 35.2681 138.177 35.2926C138.101 35.3048 138.045 35.3127 138.007 35.3173C137.959 35.3231 137.968 35.32 138.005 35.32V37.32ZM139.227 37.1351C139.807 37.0032 140.415 36.8712 141.049 36.739L140.641 34.781C139.996 34.9155 139.377 35.0501 138.784 35.1849L139.227 37.1351ZM141.055 36.7378C141.809 36.5761 142.643 36.388 143.554 36.1734L143.096 34.2266C142.195 34.4387 141.375 34.6239 140.636 34.7822L141.055 36.7378ZM142.35 35.4208L142.83 37.5408L144.781 37.0992L144.301 34.9792L142.35 35.4208ZM143.594 36.3426C142.619 36.5533 141.742 36.7234 140.961 36.8536L141.29 38.8264C142.109 38.6899 143.018 38.5133 144.017 38.2974L143.594 36.3426ZM140.936 36.858C140.251 36.9899 139.592 37.1084 138.961 37.2136L139.29 39.1864C139.939 39.0783 140.613 38.9568 141.314 38.822L140.936 36.858ZM138.954 37.2148C138.652 37.2673 138.416 37.3054 138.244 37.3301C138.048 37.358 137.99 37.36 138.005 37.36V39.36C138.154 39.36 138.349 39.3354 138.527 39.3099C138.728 39.2812 138.986 39.2393 139.297 39.1852L138.954 37.2148ZM138.005 37.36C137.269 37.36 136.576 37.234 135.92 36.985L135.211 38.855C136.101 39.1927 137.035 39.36 138.005 39.36V37.36ZM135.948 36.996C135.285 36.7217 134.71 36.3486 134.216 35.8766L132.835 37.3234C133.514 37.9714 134.299 38.4783 135.183 38.844L135.948 36.996ZM134.216 35.8766C133.721 35.4043 133.327 34.8539 133.032 34.2189L131.218 35.0611C131.617 35.9194 132.156 36.6757 132.835 37.3234L134.216 35.8766ZM133.049 34.2576C132.784 33.6153 132.645 32.9065 132.645 32.12H130.645C130.645 33.1468 130.827 34.118 131.201 35.0224L133.049 34.2576ZM132.645 32.12V23.28H130.645V32.12H132.645ZM150.374 34.96H149.374V35.4952L149.82 35.7921L150.374 34.96ZM152.774 35.96L153.073 35.0055L153.073 35.0055L152.774 35.96ZM153.974 36.28L153.765 37.2578L153.803 37.266L153.842 37.2712L153.974 36.28ZM157.294 35.36L158.016 36.0525L158.023 36.0455L158.029 36.0383L157.294 35.36ZM157.974 21.76L157.038 22.1111L157.052 22.1476L157.068 22.1829L157.974 21.76ZM157.294 20.68L156.557 21.3557L156.572 21.3717L156.587 21.3871L157.294 20.68ZM156.254 19.92L155.831 20.8262L155.831 20.8262L156.254 19.92ZM154.054 19.72L154.126 20.7175L154.161 20.7149L154.196 20.7099L154.054 19.72ZM152.854 19.96L153.112 20.9262L153.132 20.9208L153.153 20.9145L152.854 19.96ZM151.614 20.4L151.214 19.4838L151.214 19.4838L151.614 20.4ZM150.374 21.08L149.82 20.2479L149.374 20.5448V21.08H150.374ZM150.334 37.28L150.799 36.3946L149.334 35.6256V37.28H150.334ZM150.334 48V49H151.334V48H150.334ZM148.334 48H147.334V49H148.334V48ZM148.334 19.88H149.334V19.4521L149.025 19.1566L148.334 19.88ZM147.454 19.04L146.737 18.3429L146.034 19.0665L146.764 19.7634L147.454 19.04ZM148.854 17.6L149.55 16.8814L148.833 16.1876L148.137 16.9029L148.854 17.6ZM150.094 18.8L149.399 19.5186L149.908 20.0112L150.542 19.6944L150.094 18.8ZM152.734 17.88L152.919 18.8629L152.933 18.8601L152.948 18.8569L152.734 17.88ZM157.014 18.04L156.598 18.9491L156.598 18.9491L157.014 18.04ZM158.694 19.24L157.968 19.9277L157.968 19.9277L158.694 19.24ZM159.814 21.04L158.881 21.399L158.887 21.4144L158.893 21.4296L159.814 21.04ZM159.814 34.96L158.893 34.5704L158.89 34.5794L158.886 34.5886L159.814 34.96ZM158.694 36.76L159.42 37.4477L159.429 37.4385L159.438 37.429L158.694 36.76ZM157.014 37.96L156.598 37.0509L156.598 37.0509L157.014 37.96ZM153.094 38.24L153.231 37.2494L153.214 37.2471L153.197 37.2453L153.094 38.24ZM149.82 35.7921C150.214 36.0548 150.658 36.2743 151.143 36.4563L151.845 34.5837C151.478 34.4457 151.175 34.2919 150.929 34.1279L149.82 35.7921ZM151.143 36.4563C151.587 36.6227 152.031 36.7755 152.476 36.9145L153.073 35.0055C152.664 34.8778 152.255 34.7373 151.845 34.5837L151.143 36.4563ZM152.476 36.9145C152.927 37.0554 153.357 37.1704 153.765 37.2578L154.184 35.3022C153.845 35.2296 153.475 35.1312 153.073 35.0055L152.476 36.9145ZM153.842 37.2712C154.261 37.327 154.631 37.36 154.934 37.36V35.36C154.758 35.36 154.488 35.3396 154.107 35.2888L153.842 37.2712ZM154.934 37.36C156.137 37.36 157.185 36.9178 158.016 36.0525L156.573 34.6675C156.124 35.1355 155.598 35.36 154.934 35.36V37.36ZM158.029 36.0383C158.843 35.1567 159.254 34.0865 159.254 32.88H157.254C157.254 33.5935 157.026 34.1766 156.56 34.6817L158.029 36.0383ZM159.254 32.88V23.08H157.254V32.88H159.254ZM159.254 23.08C159.254 22.4668 159.134 21.8808 158.881 21.3371L157.068 22.1829C157.188 22.4392 157.254 22.7332 157.254 23.08H159.254ZM158.911 21.4089C158.706 20.8618 158.405 20.3767 158.001 19.9729L156.587 21.3871C156.77 21.5699 156.923 21.8048 157.038 22.1111L158.911 21.4089ZM158.032 20.0043C157.648 19.5859 157.194 19.255 156.677 19.0138L155.831 20.8262C156.115 20.9583 156.354 21.1341 156.557 21.3557L158.032 20.0043ZM156.677 19.0138C156.141 18.7637 155.57 18.64 154.974 18.64V20.64C155.286 20.64 155.568 20.703 155.831 20.8262L156.677 19.0138ZM154.974 18.64C154.668 18.64 154.31 18.6733 153.913 18.73L154.196 20.7099C154.546 20.66 154.8 20.64 154.974 20.64V18.64ZM153.983 18.7225C153.52 18.7557 153.043 18.8534 152.556 19.0055L153.153 20.9145C153.519 20.7999 153.843 20.7377 154.126 20.7175L153.983 18.7225ZM152.597 18.9938C152.142 19.115 151.681 19.2794 151.214 19.4838L152.015 21.3162C152.401 21.1473 152.767 21.0184 153.112 20.9262L152.597 18.9938ZM151.214 19.4838C150.732 19.6947 150.267 19.9498 149.82 20.2479L150.929 21.912C151.282 21.6768 151.644 21.4786 152.015 21.3162L151.214 19.4838ZM149.374 21.08V34.96H151.374V21.08H149.374ZM149.334 37.28V48H151.334V37.28H149.334ZM150.334 47H148.334V49H150.334V47ZM149.334 48V19.88H147.334V48H149.334ZM149.025 19.1566L148.145 18.3166L146.764 19.7634L147.644 20.6034L149.025 19.1566ZM148.171 19.7371L149.571 18.2971L148.137 16.9029L146.737 18.3429L148.171 19.7371ZM148.159 18.3186L149.399 19.5186L150.79 18.0814L149.55 16.8814L148.159 18.3186ZM150.542 19.6944C151.379 19.2759 152.17 19.0032 152.919 18.8629L152.55 16.8971C151.592 17.0768 150.623 17.4175 149.647 17.9056L150.542 19.6944ZM152.948 18.8569C153.758 18.6797 154.416 18.6 154.934 18.6V16.6C154.226 16.6 153.417 16.707 152.521 16.9031L152.948 18.8569ZM154.934 18.6C155.546 18.6 156.096 18.7192 156.598 18.9491L157.431 17.1309C156.652 16.7741 155.816 16.6 154.934 16.6V18.6ZM156.598 18.9491C157.122 19.1896 157.577 19.5148 157.968 19.9277L159.42 18.5523C158.852 17.9519 158.186 17.4771 157.431 17.1309L156.598 18.9491ZM157.968 19.9277C158.353 20.3334 158.658 20.8198 158.881 21.399L160.748 20.681C160.437 19.8735 159.996 19.1599 159.42 18.5523L157.968 19.9277ZM158.893 21.4296C159.133 21.9963 159.254 22.5968 159.254 23.24H161.254C161.254 22.3365 161.082 21.4704 160.735 20.6504L158.893 21.4296ZM159.254 23.24V32.76H161.254V23.24H159.254ZM159.254 32.76C159.254 33.4032 159.133 34.0037 158.893 34.5704L160.735 35.3496C161.082 34.5296 161.254 33.6635 161.254 32.76H159.254ZM158.886 34.5886C158.663 35.146 158.352 35.6453 157.951 36.091L159.438 37.429C159.996 36.8081 160.432 36.1073 160.743 35.3314L158.886 34.5886ZM157.968 36.0723C157.577 36.4852 157.122 36.8104 156.598 37.0509L157.431 38.8691C158.186 38.5229 158.852 38.0481 159.42 37.4477L157.968 36.0723ZM156.598 37.0509C156.096 37.2808 155.546 37.4 154.934 37.4V39.4C155.816 39.4 156.652 39.2259 157.431 38.8691L156.598 37.0509ZM154.934 37.4C154.548 37.4 153.986 37.3536 153.231 37.2494L152.958 39.2306C153.749 39.3398 154.414 39.4 154.934 39.4V37.4ZM153.197 37.2453C152.6 37.1836 151.808 36.9245 150.799 36.3946L149.87 38.1654C150.994 38.7555 152.042 39.1364 152.991 39.2347L153.197 37.2453Z" fill="black"/>
<line y1="-1.5" x2="165.519" y2="-1.5" transform="matrix(0.999987 -0.00504483 0.00880945 0.999961 1 54.2727)" stroke="black" stroke-width="3"/>
<line x1="164.983" y1="51" x2="164.983" y2="63.3" stroke="black" stroke-width="3"/>
<line x1="180.5" y1="61" x2="180.5" y2="73.3" stroke="black" stroke-width="3"/>
<line x1="164" y1="62.5" x2="180.588" y2="62.5" stroke="black" stroke-width="3"/>
<path d="M179 73H195.588" stroke="black" stroke-width="3"/>
<path d="M986.931 349.5C985.276 315.833 955.703 247.4 850.655 243C745.607 238.6 418.839 222.5 268.586 215C206.609 215 83.4276 182.7 86.5173 53.5" stroke="black" stroke-width="3"/>
<path d="M986.293 351.707C986.683 352.098 987.317 352.098 987.707 351.707L994.071 345.343C994.462 344.953 994.462 344.319 994.071 343.929C993.681 343.538 993.047 343.538 992.657 343.929L987 349.586L981.343 343.929C980.953 343.538 980.319 343.538 979.929 343.929C979.538 344.319 979.538 344.953 979.929 345.343L986.293 351.707ZM986 345V351H988V345H986Z" fill="black"/>
</svg>
