<svg width="587" height="587" viewBox="0 0 587 587" fill="none" xmlns="http://www.w3.org/2000/svg">
<g clip-path="url(#clip0_11_55)">
<path d="M304.65 270.619H282.133L269.931 291.655L282.133 312.691H304.65L316.851 291.655L304.65 270.619Z" fill="black"/>
<path d="M567.856 504.052H548.714V82.9467H567.856C578.423 82.9467 586.998 74.3791 586.998 63.8051C586.998 53.2311 578.423 44.6635 567.856 44.6635H510.432V25.523C510.432 14.949 501.865 6.38135 491.291 6.38135C480.717 6.38135 472.149 14.949 472.149 25.523V44.6646H414.725C404.151 44.6646 395.584 53.2322 395.584 63.8062C395.584 74.3802 404.151 82.9479 414.725 82.9479H433.867V121.23H153.128V82.9467H172.27C182.844 82.9467 191.412 74.3791 191.412 63.8051C191.412 53.2311 182.844 44.6635 172.27 44.6635H114.846V25.523C114.846 14.949 106.279 6.38135 95.7047 6.38135C85.1307 6.38135 76.5631 14.949 76.5631 25.523V44.6646H19.1416C8.56764 44.6635 0 53.2322 0 63.8039C0 74.3779 8.56764 82.9456 19.1416 82.9456H38.2833V504.052H19.1416C8.56764 504.052 0 512.621 0 523.194C0 533.768 8.56764 542.335 19.1416 542.335H76.5654V561.477C76.5654 572.051 85.133 580.619 95.707 580.619C106.281 580.619 114.849 572.051 114.849 561.477V542.335H172.272C182.846 542.335 191.414 533.768 191.414 523.194C191.414 512.62 182.846 504.052 172.272 504.052H153.131V465.77H433.869V504.052H414.728C404.154 504.052 395.586 512.62 395.586 523.194C395.586 533.768 404.154 542.335 414.728 542.335H472.151V561.477C472.151 572.051 480.719 580.619 491.293 580.619C501.867 580.619 510.435 572.051 510.435 561.477V542.335H567.858C578.426 542.335 587 533.768 587 523.194C586.998 512.621 578.423 504.052 567.856 504.052ZM114.847 140.37V446.63V504.053H76.5654V82.9467H114.847V140.37ZM377.141 340.392C373.844 346.118 367.739 349.648 361.131 349.648H325.936L309.375 378.2C306.069 383.899 299.98 387.407 293.391 387.407C286.802 387.407 280.713 383.899 277.407 378.2L260.845 349.648H225.65C219.042 349.648 212.937 346.118 209.64 340.392C206.341 334.667 206.351 327.614 209.666 321.898L227.207 291.657L209.666 261.415C206.35 255.699 206.34 248.646 209.64 242.921C212.937 237.195 219.043 233.665 225.65 233.665H260.845L277.406 205.113C280.712 199.414 286.801 195.906 293.39 195.906C299.979 195.906 306.068 199.414 309.374 205.113L325.935 233.665H361.131C367.739 233.665 373.844 237.195 377.141 242.921C380.44 248.646 380.43 255.699 377.115 261.415L359.574 291.657L377.115 321.898C380.431 327.612 380.441 334.667 377.141 340.392ZM510.432 504.052H472.15V446.628V140.369V82.9467H510.432V504.052Z" fill="black"/>
</g>
<defs>
<clipPath id="clip0_11_55">
<rect width="587" height="587" fill="white"/>
</clipPath>
</defs>
</svg>
